<svg class="marks" width="987" height="364" viewBox="0 0 987 364" version="1.1" xmlns="http://www.w3.org/2000/svg" xmlns:xlink="http://www.w3.org/1999/xlink"><rect width="987" height="364" fill="white"></rect><g fill="none" stroke-miterlimit="10" transform="translate(53,27)"><g class="mark-group role-frame root" role="graphics-object" aria-roledescription="group mark container"><g transform="translate(0,0)"><path class="background" aria-hidden="true" d="M0.5,0.5h850v300h-850Z" stroke="#ddd"></path><g><g class="mark-group role-axis" role="graphics-symbol" aria-roledescription="axis" aria-label="X-axis for a time scale with values from Wednesday, 01 October 2025, 12:00:00 AM to Thursday, 25 December 2025, 12:00:00 AM"><g transform="translate(0.5,300.5)"><path class="background" aria-hidden="true" d="M0,0h0v0h0Z" pointer-events="none"></path><g><g class="mark-rule role-axis-grid" pointer-events="none"><line transform="translate(40,-300)" x2="0" y2="300" stroke="#ddd" stroke-width="1" opacity="1"></line><line transform="translate(110,-300)" x2="0" y2="300" stroke="#ddd" stroke-width="1" opacity="1"></line><line transform="translate(180,-300)" x2="0" y2="300" stroke="#ddd" stroke-width="1" opacity="1"></line><line transform="translate(250,-300)" x2="0" y2="300" stroke="#ddd" stroke-width="1" opacity="1"></line><line transform="translate(320,-300)" x2="0" y2="300" stroke="#ddd" stroke-width="1" opacity="1"></line><line transform="translate(390,-300)" x2="0" y2="300" stroke="#ddd" stroke-width="1" opacity="1"></line><line transform="translate(460,-300)" x2="0" y2="300" stroke="#ddd" stroke-width="1" opacity="1"></line><line transform="translate(530,-300)" x2="0" y2="300" stroke="#ddd" stroke-width="1" opacity="1"></line><line transform="translate(600,-300)" x2="0" y2="300" stroke="#ddd" stroke-width="1" opacity="1"></line><line transform="translate(670,-300)" x2="0" y2="300" stroke="#ddd" stroke-width="1" opacity="1"></line><line transform="translate(740,-300)" x2="0" y2="300" stroke="#ddd" stroke-width="1" opacity="1"></line><line transform="translate(810,-300)" x2="0" y2="300" stroke="#ddd" stroke-width="1" opacity="1"></line></g></g><path class="foreground" aria-hidden="true" d="" pointer-events="none" display="none"></path></g></g><g class="mark-group role-axis" role="graphics-symbol" aria-roledescription="axis" aria-label="Y-axis for a time scale with values from Sunday, 01 January 2012, 12:00:00 AM to Monday, 02 January 2012, 12:00:00 AM"><g transform="translate(0.5,0.5)"><path class="background" aria-hidden="true" d="M0,0h0v0h0Z" pointer-events="none"></path><g><g class="mark-rule role-axis-grid" pointer-events="none"><line transform="translate(0,300)" x2="850" y2="0" stroke="#ddd" stroke-width="1" opacity="1"></line><line transform="translate(0,263)" x2="850" y2="0" stroke="#ddd" stroke-width="1" opacity="1"></line><line transform="translate(0,225)" x2="850" y2="0" stroke="#ddd" stroke-width="1" opacity="1"></line><line transform="translate(0,188)" x2="850" y2="0" stroke="#ddd" stroke-width="1" opacity="1"></line><line transform="translate(0,150)" x2="850" y2="0" stroke="#ddd" stroke-width="1" opacity="1"></line><line transform="translate(0,113)" x2="850" y2="0" stroke="#ddd" stroke-width="1" opacity="1"></line><line transform="translate(0,75)" x2="850" y2="0" stroke="#ddd" stroke-width="1" opacity="1"></line><line transform="translate(0,38)" x2="850" y2="0" stroke="#ddd" stroke-width="1" opacity="1"></line><line transform="translate(0,0)" x2="850" y2="0" stroke="#ddd" stroke-width="1" opacity="1"></line></g></g><path class="foreground" aria-hidden="true" d="" pointer-events="none" display="none"></path></g></g><g class="mark-group role-axis" role="graphics-symbol" aria-roledescription="axis" aria-label="X-axis titled 'Time (year-month-date)' for a time scale with values from Wednesday, 01 October 2025, 12:00:00 AM to Thursday, 25 December 2025, 12:00:00 AM"><g transform="translate(0.5,300.5)"><path class="background" aria-hidden="true" d="M0,0h0v0h0Z" pointer-events="none"></path><g><g class="mark-rule role-axis-tick" pointer-events="none"><line transform="translate(40,0)" x2="0" y2="5" stroke="#888" stroke-width="1" opacity="1"></line><line transform="translate(110,0)" x2="0" y2="5" stroke="#888" stroke-width="1" opacity="1"></line><line transform="translate(180,0)" x2="0" y2="5" stroke="#888" stroke-width="1" opacity="1"></line><line transform="translate(250,0)" x2="0" y2="5" stroke="#888" stroke-width="1" opacity="1"></line><line transform="translate(320,0)" x2="0" y2="5" stroke="#888" stroke-width="1" opacity="1"></line><line transform="translate(390,0)" x2="0" y2="5" stroke="#888" stroke-width="1" opacity="1"></line><line transform="translate(460,0)" x2="0" y2="5" stroke="#888" stroke-width="1" opacity="1"></line><line transform="translate(530,0)" x2="0" y2="5" stroke="#888" stroke-width="1" opacity="1"></line><line transform="translate(600,0)" x2="0" y2="5" stroke="#888" stroke-width="1" opacity="1"></line><line transform="translate(670,0)" x2="0" y2="5" stroke="#888" stroke-width="1" opacity="1"></line><line transform="translate(740,0)" x2="0" y2="5" stroke="#888" stroke-width="1" opacity="1"></line><line transform="translate(810,0)" x2="0" y2="5" stroke="#888" stroke-width="1" opacity="1"></line></g><g class="mark-text role-axis-label" pointer-events="none"><text text-anchor="middle" transform="translate(39.98040176384125,15)" font-family="sans-serif" font-size="10px" fill="#000" opacity="1">Oct 05, 2025</text><text text-anchor="middle" transform="translate(109.94610485056344,15)" font-family="sans-serif" font-size="10px" fill="#000" opacity="1">Oct 12, 2025</text><text text-anchor="middle" transform="translate(179.91180793728563,15)" font-family="sans-serif" font-size="10px" fill="#000" opacity="1">Oct 19, 2025</text><text text-anchor="middle" transform="translate(249.87751102400782,15)" font-family="sans-serif" font-size="10px" fill="#000" opacity="1">Oct 26, 2025</text><text text-anchor="middle" transform="translate(320.2596766291034,15)" font-family="sans-serif" font-size="10px" fill="#000" opacity="1">Nov 02, 2025</text><text text-anchor="middle" transform="translate(390.22537971582557,15)" font-family="sans-serif" font-size="10px" fill="#000" opacity="1">Nov 09, 2025</text><text text-anchor="middle" transform="translate(460.1910828025478,15)" font-family="sans-serif" font-size="10px" fill="#000" opacity="1">Nov 16, 2025</text><text text-anchor="middle" transform="translate(530.1567858892699,15)" font-family="sans-serif" font-size="10px" fill="#000" opacity="1">Nov 23, 2025</text><text text-anchor="middle" transform="translate(600.1224889759922,15)" font-family="sans-serif" font-size="10px" fill="#000" opacity="1">Nov 30, 2025</text><text text-anchor="middle" transform="translate(670.0881920627144,15)" font-family="sans-serif" font-size="10px" fill="#000" opacity="1">Dec 07, 2025</text><text text-anchor="middle" transform="translate(740.0538951494366,15)" font-family="sans-serif" font-size="10px" fill="#000" opacity="1">Dec 14, 2025</text><text text-anchor="middle" transform="translate(810.0195982361587,15)" font-family="sans-serif" font-size="10px" fill="#000" opacity="1">Dec 21, 2025</text></g><g class="mark-rule role-axis-domain" pointer-events="none"><line transform="translate(0,0)" x2="850" y2="0" stroke="#888" stroke-width="1" opacity="1"></line></g><g class="mark-text role-axis-title" pointer-events="none"><text text-anchor="middle" transform="translate(425,30)" font-family="sans-serif" font-size="11px" font-weight="bold" fill="#000" opacity="1">Time (year-month-date)</text></g></g><path class="foreground" aria-hidden="true" d="" pointer-events="none" display="none"></path></g></g><g class="mark-group role-axis" role="graphics-symbol" aria-roledescription="axis" aria-label="Y-axis titled 'Time (hours)' for a time scale with values from Sunday, 01 January 2012, 12:00:00 AM to Monday, 02 January 2012, 12:00:00 AM"><g transform="translate(0.5,0.5)"><path class="background" aria-hidden="true" d="M0,0h0v0h0Z" pointer-events="none"></path><g><g class="mark-rule role-axis-tick" pointer-events="none"><line transform="translate(0,300)" x2="-5" y2="0" stroke="#888" stroke-width="1" opacity="1"></line><line transform="translate(0,263)" x2="-5" y2="0" stroke="#888" stroke-width="1" opacity="1"></line><line transform="translate(0,225)" x2="-5" y2="0" stroke="#888" stroke-width="1" opacity="1"></line><line transform="translate(0,188)" x2="-5" y2="0" stroke="#888" stroke-width="1" opacity="1"></line><line transform="translate(0,150)" x2="-5" y2="0" stroke="#888" stroke-width="1" opacity="1"></line><line transform="translate(0,113)" x2="-5" y2="0" stroke="#888" stroke-width="1" opacity="1"></line><line transform="translate(0,75)" x2="-5" y2="0" stroke="#888" stroke-width="1" opacity="1"></line><line transform="translate(0,38)" x2="-5" y2="0" stroke="#888" stroke-width="1" opacity="1"></line><line transform="translate(0,0)" x2="-5" y2="0" stroke="#888" stroke-width="1" opacity="1"></line></g><g class="mark-text role-axis-label" pointer-events="none"><text text-anchor="end" transform="translate(-7,303)" font-family="sans-serif" font-size="10px" fill="#000" opacity="1">00:00</text><text text-anchor="end" transform="translate(-7,265.5)" font-family="sans-serif" font-size="10px" fill="#000" opacity="1">03:00</text><text text-anchor="end" transform="translate(-7,228)" font-family="sans-serif" font-size="10px" fill="#000" opacity="1">06:00</text><text text-anchor="end" transform="translate(-7,190.5)" font-family="sans-serif" font-size="10px" fill="#000" opacity="1">09:00</text><text text-anchor="end" transform="translate(-7,153)" font-family="sans-serif" font-size="10px" fill="#000" opacity="1">12:00</text><text text-anchor="end" transform="translate(-7,115.5)" font-family="sans-serif" font-size="10px" fill="#000" opacity="1">15:00</text><text text-anchor="end" transform="translate(-7,78)" font-family="sans-serif" font-size="10px" fill="#000" opacity="1">18:00</text><text text-anchor="end" transform="translate(-7,40.5)" font-family="sans-serif" font-size="10px" fill="#000" opacity="1">21:00</text><text text-anchor="end" transform="translate(-7,3)" font-family="sans-serif" font-size="10px" fill="#000" opacity="1">00:00</text></g><g class="mark-rule role-axis-domain" pointer-events="none"><line transform="translate(0,300)" x2="0" y2="-300" stroke="#888" stroke-width="1" opacity="1"></line></g><g class="mark-text role-axis-title" pointer-events="none"><text text-anchor="middle" transform="translate(-36.0244140625,150) rotate(-90) translate(0,-2)" font-family="sans-serif" font-size="11px" font-weight="bold" fill="#000" opacity="1">Time (hours)</text></g></g><path class="foreground" aria-hidden="true" d="" pointer-events="none" display="none"></path></g></g><g class="mark-rect role-mark marks" role="graphics-symbol" aria-roledescription="rect mark container"><path d="M720.063694267516,262.5h9.995100440960186v12.5h-9.995100440960186Z" fill="#f58518" opacity="0.5"></path><path d="M780.0342969132778,287.5h9.995100440960414v12.5h-9.995100440960414Z" fill="#f58518" opacity="0.5"></path><path d="M780.0342969132778,100.00000000000001h9.995100440960414v12.499999999999986h-9.995100440960414Z" fill="#4c78a8" opacity="0.5"></path><path d="M530.1567858892699,250h9.9951004409603v12.5h-9.9951004409603Z" fill="#f58518" opacity="0.5"></path><path d="M69.9657030867222,287.5h9.9951004409603v12.5h-9.9951004409603Z" fill="#f58518" opacity="0.5"></path><path d="M249.87751102400782,275h10.41156295933368v12.5h-10.41156295933368Z" fill="#f58518" opacity="0.5"></path><path d="M249.87751102400782,262.5h10.41156295933368v12.5h-10.41156295933368Z" fill="#f58518" opacity="0.5"></path><path d="M239.88241058304754,187.5h9.995100440960272v12.500000000000028h-9.995100440960272Z" fill="#4c78a8" opacity="0.5"></path><path d="M89.95590396864282,124.99999999999999h9.995100440960329v12.500000000000014h-9.995100440960329Z" fill="#4c78a8" opacity="0.5"></path><path d="M9.995100440960313,225h9.995100440960313v12.5h-9.995100440960313Z" fill="#4c78a8" opacity="0.5"></path><path d="M290.27437530622245,262.5h9.9951004409603v12.5h-9.9951004409603Z" fill="#4c78a8" opacity="0.5"></path><path d="M119.94120529152377,37.5h9.9951004409603v12.499999999999986h-9.9951004409603Z" fill="#4c78a8" opacity="0.5"></path><path d="M69.9657030867222,87.49999999999999h9.9951004409603v12.500000000000028h-9.9951004409603Z" fill="#f58518" opacity="0.5"></path><path d="M249.87751102400782,25.00000000000001h10.41156295933368v12.49999999999999h-10.41156295933368Z" fill="#4c78a8" opacity="0.5"></path><path d="M209.8971092601666,0h9.9951004409603v12.49999999999999h-9.9951004409603Z" fill="#f58518" opacity="0.5"></path><path d="M219.8922097011269,187.5h9.995100440960329v12.500000000000028h-9.995100440960329Z" fill="#f58518" opacity="0.5"></path><path d="M239.88241058304754,162.50000000000003h9.995100440960272v12.499999999999943h-9.995100440960272Z" fill="#4c78a8" opacity="0.5"></path><path d="M239.88241058304754,250h9.995100440960272v12.5h-9.995100440960272Z" fill="#4c78a8" opacity="0.5"></path><path d="M239.88241058304754,287.5h9.995100440960272v12.5h-9.995100440960272Z" fill="#4c78a8" opacity="0.5"></path><path d="M249.87751102400782,275h10.41156295933368v12.5h-10.41156295933368Z" fill="#f58518" opacity="0.5"></path><path d="M179.91180793728563,49.999999999999986h9.995100440960329v12.500000000000028h-9.995100440960329Z" fill="#4c78a8" opacity="0.5"></path><path d="M169.91670749632533,25.00000000000001h9.9951004409603v12.49999999999999h-9.9951004409603Z" fill="#4c78a8" opacity="0.5"></path><path d="M300.26947574718275,137.5h9.9951004409603v12.5h-9.9951004409603Z" fill="#4c78a8" opacity="0.5"></path><path d="M129.93630573248407,62.500000000000014h9.995100440960329v12.499999999999986h-9.995100440960329Z" fill="#f58518" opacity="0.5"></path><path d="M189.90690837824596,200.00000000000003h9.995100440960329v12.499999999999943h-9.995100440960329Z" fill="#4c78a8" opacity="0.5"></path><path d="M260.2890739833415,62.500000000000014h9.995100440960357v12.499999999999986h-9.995100440960357Z" fill="#4c78a8" opacity="0.5"></path><path d="M320.2596766291034,275h9.9951004409603v12.5h-9.9951004409603Z" fill="#4c78a8" opacity="0.5"></path><path d="M320.2596766291034,287.5h9.9951004409603v12.5h-9.9951004409603Z" fill="#4c78a8" opacity="0.5"></path><path d="M169.91670749632533,237.5h9.9951004409603v12.5h-9.9951004409603Z" fill="#4c78a8" opacity="0.5"></path><path d="M300.26947574718275,75h9.9951004409603v12.499999999999986h-9.9951004409603Z" fill="#4c78a8" opacity="0.5"></path><path d="M260.2890739833415,100.00000000000001h9.995100440960357v12.499999999999986h-9.995100440960357Z" fill="#4c78a8" opacity="0.5"></path><path d="M199.9020088192063,174.99999999999997h9.9951004409603v12.500000000000028h-9.9951004409603Z" fill="#4c78a8" opacity="0.5"></path><path d="M310.26457618814305,37.5h9.995100440960357v12.499999999999986h-9.995100440960357Z" fill="#4c78a8" opacity="0.5"></path><path d="M249.87751102400782,49.999999999999986h10.41156295933368v12.500000000000028h-10.41156295933368Z" fill="#f58518" opacity="0.5"></path><path d="M239.88241058304754,37.5h9.995100440960272v12.499999999999986h-9.995100440960272Z" fill="#f58518" opacity="0.5"></path><path d="M199.9020088192063,124.99999999999999h9.9951004409603v12.500000000000014h-9.9951004409603Z" fill="#4c78a8" opacity="0.5"></path><path d="M59.970602645761886,150h9.995100440960314v12.500000000000028h-9.995100440960314Z" fill="#4c78a8" opacity="0.5"></path><path d="M149.9265066144047,262.5h9.9951004409603v12.5h-9.9951004409603Z" fill="#4c78a8" opacity="0.5"></path><path d="M209.8971092601666,225h9.9951004409603v12.5h-9.9951004409603Z" fill="#4c78a8" opacity="0.5"></path><path d="M79.9608035276825,212.49999999999997h9.995100440960314v12.500000000000028h-9.995100440960314Z" fill="#4c78a8" opacity="0.5"></path><path d="M49.97550220480157,87.49999999999999h9.995100440960314v12.500000000000028h-9.995100440960314Z" fill="#4c78a8" opacity="0.5"></path><path d="M159.921607055365,287.5h9.995100440960329v12.5h-9.995100440960329Z" fill="#f58518" opacity="0.5"></path><path d="M320.2596766291034,137.5h9.9951004409603v12.5h-9.9951004409603Z" fill="#4c78a8" opacity="0.5"></path><path d="M290.27437530622245,87.49999999999999h9.9951004409603v12.500000000000028h-9.9951004409603Z" fill="#f58518" opacity="0.5"></path><path d="M199.9020088192063,12.49999999999999h9.9951004409603v12.500000000000021h-9.9951004409603Z" fill="#4c78a8" opacity="0.5"></path><path d="M139.9314061734444,150h9.9951004409603v12.500000000000028h-9.9951004409603Z" fill="#4c78a8" opacity="0.5"></path><path d="M290.27437530622245,225h9.9951004409603v12.5h-9.9951004409603Z" fill="#4c78a8" opacity="0.5"></path><path d="M199.9020088192063,187.5h9.9951004409603v12.500000000000028h-9.9951004409603Z" fill="#f58518" opacity="0.5"></path><path d="M229.88731014208722,137.5h9.995100440960329v12.5h-9.995100440960329Z" fill="#4c78a8" opacity="0.5"></path><path d="M219.8922097011269,37.5h9.995100440960329v12.499999999999986h-9.995100440960329Z" fill="#4c78a8" opacity="0.5"></path><path d="M260.2890739833415,287.5h9.995100440960357v12.5h-9.995100440960357Z" fill="#4c78a8" opacity="0.5"></path><path d="M99.95100440960314,187.5h9.9951004409603v12.500000000000028h-9.9951004409603Z" fill="#4c78a8" opacity="0.5"></path><path d="M179.91180793728563,250h9.995100440960329v12.5h-9.995100440960329Z" fill="#4c78a8" opacity="0.5"></path><path d="M79.9608035276825,200.00000000000003h9.995100440960314v12.499999999999943h-9.995100440960314Z" fill="#4c78a8" opacity="0.5"></path><path d="M199.9020088192063,100.00000000000001h9.9951004409603v12.499999999999986h-9.9951004409603Z" fill="#f58518" opacity="0.5"></path><path d="M89.95590396864282,237.5h9.995100440960329v12.5h-9.995100440960329Z" fill="#f58518" opacity="0.5"></path><path d="M280.2792748652621,100.00000000000001h9.995100440960357v12.499999999999986h-9.995100440960357Z" fill="#f58518" opacity="0.5"></path><path d="M199.9020088192063,187.5h9.9951004409603v12.500000000000028h-9.9951004409603Z" fill="#4c78a8" opacity="0.5"></path><path d="M139.9314061734444,275h9.9951004409603v12.5h-9.9951004409603Z" fill="#f58518" opacity="0.5"></path><path d="M49.97550220480157,37.5h9.995100440960314v12.499999999999986h-9.995100440960314Z" fill="#f58518" opacity="0.5"></path><path d="M49.97550220480157,100.00000000000001h9.995100440960314v12.499999999999986h-9.995100440960314Z" fill="#f58518" opacity="0.5"></path><path d="M209.8971092601666,137.5h9.9951004409603v12.5h-9.9951004409603Z" fill="#4c78a8" opacity="0.5"></path><path d="M310.26457618814305,100.00000000000001h9.995100440960357v12.499999999999986h-9.995100440960357Z" fill="#4c78a8" opacity="0.5"></path><path d="M260.2890739833415,137.5h9.995100440960357v12.5h-9.995100440960357Z" fill="#4c78a8" opacity="0.5"></path><path d="M0,37.5h9.995100440960313v12.499999999999986h-9.995100440960313Z" fill="#4c78a8" opacity="0.5"></path><path d="M39.98040176384125,275h9.995100440960321v12.5h-9.995100440960321Z" fill="#4c78a8" opacity="0.5"></path><path d="M129.93630573248407,250h9.995100440960329v12.5h-9.995100440960329Z" fill="#4c78a8" opacity="0.5"></path><path d="M840.0048995590397,237.5h9.9951004409603v12.5h-9.9951004409603Z" fill="#4c78a8" opacity="0.5"></path><path d="M330.2547770700637,262.5h9.9951004409603v12.5h-9.9951004409603Z" fill="#f58518" opacity="0.5"></path><path d="M179.91180793728563,262.5h9.995100440960329v12.5h-9.995100440960329Z" fill="#f58518" opacity="0.5"></path><path d="M59.970602645761886,187.5h9.995100440960314v12.500000000000028h-9.995100440960314Z" fill="#4c78a8" opacity="0.5"></path><path d="M119.94120529152377,287.5h9.9951004409603v12.5h-9.9951004409603Z" fill="#4c78a8" opacity="0.5"></path><path d="M430.2057814796668,200.00000000000003h9.9951004409603v12.499999999999943h-9.9951004409603Z" fill="#4c78a8" opacity="0.5"></path><path d="M430.2057814796668,174.99999999999997h9.9951004409603v12.500000000000028h-9.9951004409603Z" fill="#4c78a8" opacity="0.5"></path><path d="M420.2106810387065,62.500000000000014h9.9951004409603v12.499999999999986h-9.9951004409603Z" fill="#4c78a8" opacity="0.5"></path><path d="M420.2106810387065,0h9.9951004409603v12.49999999999999h-9.9951004409603Z" fill="#4c78a8" opacity="0.5"></path><path d="M430.2057814796668,250h9.9951004409603v12.5h-9.9951004409603Z" fill="#4c78a8" opacity="0.5"></path><path d="M430.2057814796668,225h9.9951004409603v12.5h-9.9951004409603Z" fill="#f58518" opacity="0.5"></path><path d="M430.2057814796668,275h9.9951004409603v12.5h-9.9951004409603Z" fill="#f58518" opacity="0.5"></path><path d="M420.2106810387065,87.49999999999999h9.9951004409603v12.500000000000028h-9.9951004409603Z" fill="#f58518" opacity="0.5"></path><path d="M430.2057814796668,212.49999999999997h9.9951004409603v12.500000000000028h-9.9951004409603Z" fill="#f58518" opacity="0.5"></path><path d="M430.2057814796668,237.5h9.9951004409603v12.5h-9.9951004409603Z" fill="#4c78a8" opacity="0.5"></path><path d="M430.2057814796668,187.5h9.9951004409603v12.500000000000028h-9.9951004409603Z" fill="#f58518" opacity="0.5"></path><path d="M430.2057814796668,262.5h9.9951004409603v12.5h-9.9951004409603Z" fill="#f58518" opacity="0.5"></path><path d="M430.2057814796668,187.5h9.9951004409603v12.500000000000028h-9.9951004409603Z" fill="#f58518" opacity="0.5"></path><path d="M420.2106810387065,25.00000000000001h9.9951004409603v12.49999999999999h-9.9951004409603Z" fill="#4c78a8" opacity="0.5"></path><path d="M420.2106810387065,0h9.9951004409603v12.49999999999999h-9.9951004409603Z" fill="#f58518" opacity="0.5"></path><path d="M420.2106810387065,25.00000000000001h9.9951004409603v12.49999999999999h-9.9951004409603Z" fill="#4c78a8" opacity="0.5"></path><path d="M490.1763841254287,162.50000000000003h9.995100440960357v12.499999999999943h-9.995100440960357Z" fill="#f58518" opacity="0.5"></path><path d="M540.1518863302302,250h9.995100440960414v12.5h-9.995100440960414Z" fill="#f58518" opacity="0.5"></path><path d="M550.1469867711907,25.00000000000001h9.995100440960186v12.49999999999999h-9.995100440960186Z" fill="#f58518" opacity="0.5"></path><path d="M510.16658500734934,87.49999999999999h9.9951004409603v12.500000000000028h-9.9951004409603Z" fill="#f58518" opacity="0.5"></path><path d="M460.1910828025478,237.5h9.995100440960243v12.5h-9.995100440960243Z" fill="#f58518" opacity="0.5"></path><path d="M530.1567858892699,87.49999999999999h9.9951004409603v12.500000000000028h-9.9951004409603Z" fill="#f58518" opacity="0.5"></path><path d="M119.94120529152377,200.00000000000003h9.9951004409603v12.499999999999943h-9.9951004409603Z" fill="#f58518" opacity="0.5"></path><path d="M39.98040176384125,25.00000000000001h9.995100440960321v12.49999999999999h-9.995100440960321Z" fill="#f58518" opacity="0.5"></path><path d="M149.9265066144047,237.5h9.9951004409603v12.5h-9.9951004409603Z" fill="#f58518" opacity="0.5"></path><path d="M99.95100440960314,62.500000000000014h9.9951004409603v12.499999999999986h-9.9951004409603Z" fill="#f58518" opacity="0.5"></path><path d="M99.95100440960314,174.99999999999997h9.9951004409603v12.500000000000028h-9.9951004409603Z" fill="#f58518" opacity="0.5"></path><path d="M49.97550220480157,137.5h9.995100440960314v12.5h-9.995100440960314Z" fill="#f58518" opacity="0.5"></path><path d="M229.88731014208722,112.5h9.995100440960329v12.499999999999986h-9.995100440960329Z" fill="#f58518" opacity="0.5"></path><path d="M310.26457618814305,100.00000000000001h9.995100440960357v12.499999999999986h-9.995100440960357Z" fill="#f58518" opacity="0.5"></path><path d="M69.9657030867222,62.500000000000014h9.9951004409603v12.499999999999986h-9.9951004409603Z" fill="#f58518" opacity="0.5"></path><path d="M39.98040176384125,12.49999999999999h9.995100440960321v12.500000000000021h-9.995100440960321Z" fill="#f58518" opacity="0.5"></path><path d="M209.8971092601666,75h9.9951004409603v12.499999999999986h-9.9951004409603Z" fill="#f58518" opacity="0.5"></path><path d="M199.9020088192063,87.49999999999999h9.9951004409603v12.500000000000028h-9.9951004409603Z" fill="#f58518" opacity="0.5"></path><path d="M9.995100440960313,200.00000000000003h9.995100440960313v12.499999999999943h-9.995100440960313Z" fill="#f58518" opacity="0.5"></path><path d="M109.94610485056344,275h9.995100440960329v12.5h-9.995100440960329Z" fill="#f58518" opacity="0.5"></path><path d="M219.8922097011269,0h9.995100440960329v12.49999999999999h-9.995100440960329Z" fill="#4c78a8" opacity="0.5"></path><path d="M229.88731014208722,212.49999999999997h9.995100440960329v12.500000000000028h-9.995100440960329Z" fill="#4c78a8" opacity="0.5"></path><path d="M290.27437530622245,124.99999999999999h9.9951004409603v12.500000000000014h-9.9951004409603Z" fill="#f58518" opacity="0.5"></path><path d="M260.2890739833415,187.5h9.995100440960357v12.500000000000028h-9.995100440960357Z" fill="#4c78a8" opacity="0.5"></path><path d="M209.8971092601666,0h9.9951004409603v12.49999999999999h-9.9951004409603Z" fill="#4c78a8" opacity="0.5"></path><path d="M59.970602645761886,200.00000000000003h9.995100440960314v12.499999999999943h-9.995100440960314Z" fill="#4c78a8" opacity="0.5"></path><path d="M49.97550220480157,75h9.995100440960314v12.499999999999986h-9.995100440960314Z" fill="#4c78a8" opacity="0.5"></path><path d="M179.91180793728563,112.5h9.995100440960329v12.499999999999986h-9.995100440960329Z" fill="#4c78a8" opacity="0.5"></path><path d="M129.93630573248407,124.99999999999999h9.995100440960329v12.500000000000014h-9.995100440960329Z" fill="#f58518" opacity="0.5"></path><path d="M159.921607055365,275h9.995100440960329v12.5h-9.995100440960329Z" fill="#f58518" opacity="0.5"></path><path d="M59.970602645761886,75h9.995100440960314v12.499999999999986h-9.995100440960314Z" fill="#4c78a8" opacity="0.5"></path><path d="M209.8971092601666,112.5h9.9951004409603v12.499999999999986h-9.9951004409603Z" fill="#4c78a8" opacity="0.5"></path><path d="M280.2792748652621,137.5h9.995100440960357v12.5h-9.995100440960357Z" fill="#4c78a8" opacity="0.5"></path><path d="M229.88731014208722,200.00000000000003h9.995100440960329v12.499999999999943h-9.995100440960329Z" fill="#4c78a8" opacity="0.5"></path><path d="M260.2890739833415,275h9.995100440960357v12.5h-9.995100440960357Z" fill="#4c78a8" opacity="0.5"></path><path d="M229.88731014208722,275h9.995100440960329v12.5h-9.995100440960329Z" fill="#4c78a8" opacity="0.5"></path><path d="M59.970602645761886,275h9.995100440960314v12.5h-9.995100440960314Z" fill="#f58518" opacity="0.5"></path><path d="M290.27437530622245,12.49999999999999h9.9951004409603v12.500000000000021h-9.9951004409603Z" fill="#f58518" opacity="0.5"></path><path d="M260.2890739833415,212.49999999999997h9.995100440960357v12.500000000000028h-9.995100440960357Z" fill="#f58518" opacity="0.5"></path><path d="M69.9657030867222,262.5h9.9951004409603v12.5h-9.9951004409603Z" fill="#4c78a8" opacity="0.5"></path><path d="M179.91180793728563,187.5h9.995100440960329v12.500000000000028h-9.995100440960329Z" fill="#4c78a8" opacity="0.5"></path><path d="M119.94120529152377,62.500000000000014h9.9951004409603v12.499999999999986h-9.9951004409603Z" fill="#f58518" opacity="0.5"></path><path d="M189.90690837824596,162.50000000000003h9.995100440960329v12.499999999999943h-9.995100440960329Z" fill="#4c78a8" opacity="0.5"></path><path d="M410.2155805977462,225h9.9951004409603v12.5h-9.9951004409603Z" fill="#f58518" opacity="0.5"></path><path d="M59.970602645761886,174.99999999999997h9.995100440960314v12.500000000000028h-9.995100440960314Z" fill="#4c78a8" opacity="0.5"></path><path d="M420.2106810387065,112.5h9.9951004409603v12.499999999999986h-9.9951004409603Z" fill="#4c78a8" opacity="0.5"></path><path d="M430.2057814796668,225h9.9951004409603v12.5h-9.9951004409603Z" fill="#4c78a8" opacity="0.5"></path><path d="M420.2106810387065,137.5h9.9951004409603v12.5h-9.9951004409603Z" fill="#4c78a8" opacity="0.5"></path><path d="M420.2106810387065,49.999999999999986h9.9951004409603v12.500000000000028h-9.9951004409603Z" fill="#4c78a8" opacity="0.5"></path><path d="M420.2106810387065,87.49999999999999h9.9951004409603v12.500000000000028h-9.9951004409603Z" fill="#4c78a8" opacity="0.5"></path><path d="M420.2106810387065,112.5h9.9951004409603v12.499999999999986h-9.9951004409603Z" fill="#4c78a8" opacity="0.5"></path><path d="M430.2057814796668,237.5h9.9951004409603v12.5h-9.9951004409603Z" fill="#4c78a8" opacity="0.5"></path><path d="M420.2106810387065,100.00000000000001h9.9951004409603v12.499999999999986h-9.9951004409603Z" fill="#4c78a8" opacity="0.5"></path><path d="M420.2106810387065,25.00000000000001h9.9951004409603v12.49999999999999h-9.9951004409603Z" fill="#4c78a8" opacity="0.5"></path><path d="M420.2106810387065,112.5h9.9951004409603v12.499999999999986h-9.9951004409603Z" fill="#4c78a8" opacity="0.5"></path><path d="M420.2106810387065,0h9.9951004409603v12.49999999999999h-9.9951004409603Z" fill="#4c78a8" opacity="0.5"></path><path d="M730.0587947084762,174.99999999999997h9.995100440960414v12.500000000000028h-9.995100440960414Z" fill="#f58518" opacity="0.5"></path><path d="M69.9657030867222,124.99999999999999h9.9951004409603v12.500000000000014h-9.9951004409603Z" fill="#f58518" opacity="0.5"></path><path d="M510.16658500734934,200.00000000000003h9.9951004409603v12.499999999999943h-9.9951004409603Z" fill="#4c78a8" opacity="0.5"></path><path d="M460.1910828025478,275h9.995100440960243v12.5h-9.995100440960243Z" fill="#4c78a8" opacity="0.5"></path><path d="M540.1518863302302,100.00000000000001h9.995100440960414v12.499999999999986h-9.995100440960414Z" fill="#4c78a8" opacity="0.5"></path><path d="M550.1469867711907,225h9.995100440960186v12.5h-9.995100440960186Z" fill="#4c78a8" opacity="0.5"></path><path d="M450.1959823615875,150h9.9951004409603v12.500000000000028h-9.9951004409603Z" fill="#4c78a8" opacity="0.5"></path><path d="M470.186183243508,137.5h9.995100440960357v12.5h-9.995100440960357Z" fill="#4c78a8" opacity="0.5"></path><path d="M550.1469867711907,275h9.995100440960186v12.5h-9.995100440960186Z" fill="#4c78a8" opacity="0.5"></path><path d="M460.1910828025478,137.5h9.995100440960243v12.5h-9.995100440960243Z" fill="#4c78a8" opacity="0.5"></path><path d="M510.16658500734934,225h9.9951004409603v12.5h-9.9951004409603Z" fill="#4c78a8" opacity="0.5"></path><path d="M520.1616854483096,0h9.9951004409603v12.49999999999999h-9.9951004409603Z" fill="#4c78a8" opacity="0.5"></path><path d="M470.186183243508,37.5h9.995100440960357v12.499999999999986h-9.995100440960357Z" fill="#4c78a8" opacity="0.5"></path><path d="M480.1812836844684,62.500000000000014h9.9951004409603v12.499999999999986h-9.9951004409603Z" fill="#4c78a8" opacity="0.5"></path><path d="M420.2106810387065,0h9.9951004409603v12.49999999999999h-9.9951004409603Z" fill="#4c78a8" opacity="0.5"></path><path d="M420.2106810387065,49.999999999999986h9.9951004409603v12.500000000000028h-9.9951004409603Z" fill="#4c78a8" opacity="0.5"></path><path d="M430.2057814796668,174.99999999999997h9.9951004409603v12.500000000000028h-9.9951004409603Z" fill="#f58518" opacity="0.5"></path><path d="M430.2057814796668,237.5h9.9951004409603v12.5h-9.9951004409603Z" fill="#f58518" opacity="0.5"></path><path d="M420.2106810387065,112.5h9.9951004409603v12.499999999999986h-9.9951004409603Z" fill="#4c78a8" opacity="0.5"></path><path d="M420.2106810387065,37.5h9.9951004409603v12.499999999999986h-9.9951004409603Z" fill="#4c78a8" opacity="0.5"></path><path d="M420.2106810387065,49.999999999999986h9.9951004409603v12.500000000000028h-9.9951004409603Z" fill="#f58518" opacity="0.5"></path><path d="M430.2057814796668,250h9.9951004409603v12.5h-9.9951004409603Z" fill="#4c78a8" opacity="0.5"></path><path d="M420.2106810387065,124.99999999999999h9.9951004409603v12.500000000000014h-9.9951004409603Z" fill="#f58518" opacity="0.5"></path><path d="M420.2106810387065,0h9.9951004409603v12.49999999999999h-9.9951004409603Z" fill="#f58518" opacity="0.5"></path><path d="M610.1175894169525,237.5h9.995100440960414v12.5h-9.995100440960414Z" fill="#4c78a8" opacity="0.5"></path><path d="M209.8971092601666,200.00000000000003h9.9951004409603v12.499999999999943h-9.9951004409603Z" fill="#f58518" opacity="0.5"></path><path d="M69.9657030867222,187.5h9.9951004409603v12.500000000000028h-9.9951004409603Z" fill="#f58518" opacity="0.5"></path><path d="M79.9608035276825,100.00000000000001h9.995100440960314v12.499999999999986h-9.995100440960314Z" fill="#f58518" opacity="0.5"></path><path d="M189.90690837824596,100.00000000000001h9.995100440960329v12.499999999999986h-9.995100440960329Z" fill="#f58518" opacity="0.5"></path><path d="M330.2547770700637,162.50000000000003h9.9951004409603v12.499999999999943h-9.9951004409603Z" fill="#f58518" opacity="0.5"></path><path d="M300.26947574718275,187.5h9.9951004409603v12.500000000000028h-9.9951004409603Z" fill="#f58518" opacity="0.5"></path><path d="M129.93630573248407,25.00000000000001h9.995100440960329v12.49999999999999h-9.995100440960329Z" fill="#f58518" opacity="0.5"></path><path d="M209.8971092601666,62.500000000000014h9.9951004409603v12.499999999999986h-9.9951004409603Z" fill="#f58518" opacity="0.5"></path><path d="M320.2596766291034,212.49999999999997h9.9951004409603v12.500000000000028h-9.9951004409603Z" fill="#f58518" opacity="0.5"></path><path d="M69.9657030867222,174.99999999999997h9.9951004409603v12.500000000000028h-9.9951004409603Z" fill="#f58518" opacity="0.5"></path><path d="M560.1420872121508,275h9.995100440960414v12.5h-9.995100440960414Z" fill="#4c78a8" opacity="0.5"></path><path d="M470.186183243508,37.5h9.995100440960357v12.499999999999986h-9.995100440960357Z" fill="#4c78a8" opacity="0.5"></path><path d="M550.1469867711907,187.5h9.995100440960186v12.500000000000028h-9.995100440960186Z" fill="#f58518" opacity="0.5"></path><path d="M430.2057814796668,187.5h9.9951004409603v12.500000000000028h-9.9951004409603Z" fill="#f58518" opacity="0.5"></path><path d="M500.17148456638904,49.999999999999986h9.9951004409603v12.500000000000028h-9.9951004409603Z" fill="#f58518" opacity="0.5"></path><path d="M500.17148456638904,162.50000000000003h9.9951004409603v12.499999999999943h-9.9951004409603Z" fill="#f58518" opacity="0.5"></path><path d="M119.94120529152377,49.999999999999986h9.9951004409603v12.500000000000028h-9.9951004409603Z" fill="#f58518" opacity="0.5"></path><path d="M249.87751102400782,0h10.41156295933368v12.49999999999999h-10.41156295933368Z" fill="#f58518" opacity="0.5"></path><path d="M310.26457618814305,262.5h9.995100440960357v12.5h-9.995100440960357Z" fill="#f58518" opacity="0.5"></path><path d="M199.9020088192063,25.00000000000001h9.9951004409603v12.49999999999999h-9.9951004409603Z" fill="#f58518" opacity="0.5"></path><path d="M39.98040176384125,137.5h9.995100440960321v12.5h-9.995100440960321Z" fill="#f58518" opacity="0.5"></path><path d="M290.27437530622245,75h9.9951004409603v12.499999999999986h-9.9951004409603Z" fill="#f58518" opacity="0.5"></path><path d="M280.2792748652621,187.5h9.995100440960357v12.500000000000028h-9.995100440960357Z" fill="#f58518" opacity="0.5"></path><path d="M79.9608035276825,250h9.995100440960314v12.5h-9.995100440960314Z" fill="#f58518" opacity="0.5"></path><path d="M69.9657030867222,225h9.9951004409603v12.5h-9.9951004409603Z" fill="#f58518" opacity="0.5"></path><path d="M99.95100440960314,87.49999999999999h9.9951004409603v12.500000000000028h-9.9951004409603Z" fill="#f58518" opacity="0.5"></path><path d="M300.26947574718275,187.5h9.9951004409603v12.500000000000028h-9.9951004409603Z" fill="#f58518" opacity="0.5"></path><path d="M139.9314061734444,137.5h9.9951004409603v12.5h-9.9951004409603Z" fill="#f58518" opacity="0.5"></path><path d="M239.88241058304754,100.00000000000001h9.995100440960272v12.499999999999986h-9.995100440960272Z" fill="#f58518" opacity="0.5"></path><path d="M249.87751102400782,25.00000000000001h10.41156295933368v12.49999999999999h-10.41156295933368Z" fill="#f58518" opacity="0.5"></path><path d="M460.1910828025478,25.00000000000001h9.995100440960243v12.49999999999999h-9.995100440960243Z" fill="#4c78a8" opacity="0.5"></path><path d="M490.1763841254287,200.00000000000003h9.995100440960357v12.499999999999943h-9.995100440960357Z" fill="#4c78a8" opacity="0.5"></path><path d="M530.1567858892699,212.49999999999997h9.9951004409603v12.500000000000028h-9.9951004409603Z" fill="#4c78a8" opacity="0.5"></path><path d="M490.1763841254287,162.50000000000003h9.995100440960357v12.499999999999943h-9.995100440960357Z" fill="#f58518" opacity="0.5"></path><path d="M500.17148456638904,237.5h9.9951004409603v12.5h-9.9951004409603Z" fill="#f58518" opacity="0.5"></path><path d="M510.16658500734934,62.500000000000014h9.9951004409603v12.499999999999986h-9.9951004409603Z" fill="#f58518" opacity="0.5"></path><path d="M420.2106810387065,75h9.9951004409603v12.499999999999986h-9.9951004409603Z" fill="#f58518" opacity="0.5"></path><path d="M530.1567858892699,212.49999999999997h9.9951004409603v12.500000000000028h-9.9951004409603Z" fill="#f58518" opacity="0.5"></path><path d="M209.8971092601666,250h9.9951004409603v12.5h-9.9951004409603Z" fill="#f58518" opacity="0.5"></path><path d="M540.1518863302302,275h9.995100440960414v12.5h-9.995100440960414Z" fill="#4c78a8" opacity="0.5"></path><path d="M430.2057814796668,262.5h9.9951004409603v12.5h-9.9951004409603Z" fill="#4c78a8" opacity="0.5"></path><path d="M580.1322880940716,100.00000000000001h9.9951004409603v12.499999999999986h-9.9951004409603Z" fill="#f58518" opacity="0.5"></path><path d="M159.921607055365,275h9.995100440960329v12.5h-9.995100440960329Z" fill="#f58518" opacity="0.5"></path></g><g class="mark-group role-legend" role="graphics-symbol" aria-roledescription="legend" aria-label="Symbol legend titled 'eType' for fill color with 7 values: Email, Phone, Sell, Buy, Author-of, Financial, Travels-to"><g transform="translate(868,0)"><path class="background" aria-hidden="true" d="M0,0h61v105h-61Z" pointer-events="none"></path><g><g class="mark-group role-legend-entry"><g transform="translate(0,16)"><path class="background" aria-hidden="true" d="M0,0h0v0h0Z" pointer-events="none"></path><g><g class="mark-group role-scope" role="graphics-object" aria-roledescription="group mark container"><g transform="translate(0,0)"><path class="background" aria-hidden="true" d="M0,0h60.0869140625v11h-60.0869140625Z" pointer-events="none" opacity="1"></path><g><g class="mark-symbol role-legend-symbol" pointer-events="none"><path transform="translate(6,6)" d="M-5,-5h10v10h-10Z" fill="#4c78a8" stroke-width="1.5" opacity="0.5"></path></g><g class="mark-text role-legend-label" pointer-events="none"><text text-anchor="start" transform="translate(16,9)" font-family="sans-serif" font-size="10px" fill="#000" opacity="1">Email</text></g></g><path class="foreground" aria-hidden="true" d="" pointer-events="none" display="none"></path></g><g transform="translate(0,13)"><path class="background" aria-hidden="true" d="M0,0h60.0869140625v11h-60.0869140625Z" pointer-events="none" opacity="1"></path><g><g class="mark-symbol role-legend-symbol" pointer-events="none"><path transform="translate(6,6)" d="M-5,-5h10v10h-10Z" fill="#f58518" stroke-width="1.5" opacity="0.5"></path></g><g class="mark-text role-legend-label" pointer-events="none"><text text-anchor="start" transform="translate(16,9)" font-family="sans-serif" font-size="10px" fill="#000" opacity="1">Phone</text></g></g><path class="foreground" aria-hidden="true" d="" pointer-events="none" display="none"></path></g><g transform="translate(0,26)"><path class="background" aria-hidden="true" d="M0,0h60.0869140625v11h-60.0869140625Z" pointer-events="none" opacity="1"></path><g><g class="mark-symbol role-legend-symbol" pointer-events="none"><path transform="translate(6,6)" d="M-5,-5h10v10h-10Z" fill="#e45756" stroke-width="1.5" opacity="0.5"></path></g><g class="mark-text role-legend-label" pointer-events="none"><text text-anchor="start" transform="translate(16,9)" font-family="sans-serif" font-size="10px" fill="#000" opacity="1">Sell</text></g></g><path class="foreground" aria-hidden="true" d="" pointer-events="none" display="none"></path></g><g transform="translate(0,39)"><path class="background" aria-hidden="true" d="M0,0h60.0869140625v11h-60.0869140625Z" pointer-events="none" opacity="1"></path><g><g class="mark-symbol role-legend-symbol" pointer-events="none"><path transform="translate(6,6)" d="M-5,-5h10v10h-10Z" fill="#72b7b2" stroke-width="1.5" opacity="0.5"></path></g><g class="mark-text role-legend-label" pointer-events="none"><text text-anchor="start" transform="translate(16,9)" font-family="sans-serif" font-size="10px" fill="#000" opacity="1">Buy</text></g></g><path class="foreground" aria-hidden="true" d="" pointer-events="none" display="none"></path></g><g transform="translate(0,52)"><path class="background" aria-hidden="true" d="M0,0h60.0869140625v11h-60.0869140625Z" pointer-events="none" opacity="1"></path><g><g class="mark-symbol role-legend-symbol" pointer-events="none"><path transform="translate(6,6)" d="M-5,-5h10v10h-10Z" fill="#54a24b" stroke-width="1.5" opacity="0.5"></path></g><g class="mark-text role-legend-label" pointer-events="none"><text text-anchor="start" transform="translate(16,9)" font-family="sans-serif" font-size="10px" fill="#000" opacity="1">Author-of</text></g></g><path class="foreground" aria-hidden="true" d="" pointer-events="none" display="none"></path></g><g transform="translate(0,65)"><path class="background" aria-hidden="true" d="M0,0h60.0869140625v11h-60.0869140625Z" pointer-events="none" opacity="1"></path><g><g class="mark-symbol role-legend-symbol" pointer-events="none"><path transform="translate(6,6)" d="M-5,-5h10v10h-10Z" fill="#eeca3b" stroke-width="1.5" opacity="0.5"></path></g><g class="mark-text role-legend-label" pointer-events="none"><text text-anchor="start" transform="translate(16,9)" font-family="sans-serif" font-size="10px" fill="#000" opacity="1">Financial</text></g></g><path class="foreground" aria-hidden="true" d="" pointer-events="none" display="none"></path></g><g transform="translate(0,78)"><path class="background" aria-hidden="true" d="M0,0h60.0869140625v11h-60.0869140625Z" pointer-events="none" opacity="1"></path><g><g class="mark-symbol role-legend-symbol" pointer-events="none"><path transform="translate(6,6)" d="M-5,-5h10v10h-10Z" fill="#b279a2" stroke-width="1.5" opacity="0.5"></path></g><g class="mark-text role-legend-label" pointer-events="none"><text text-anchor="start" transform="translate(16,9)" font-family="sans-serif" font-size="10px" fill="#000" opacity="1">Travels-to</text></g></g><path class="foreground" aria-hidden="true" d="" pointer-events="none" display="none"></path></g></g></g><path class="foreground" aria-hidden="true" d="" pointer-events="none" display="none"></path></g></g><g class="mark-text role-legend-title" pointer-events="none"><text text-anchor="start" transform="translate(0,9)" font-family="sans-serif" font-size="11px" font-weight="bold" fill="#000" opacity="1">eType</text></g></g><path class="foreground" aria-hidden="true" d="" pointer-events="none" display="none"></path></g></g><g class="mark-group role-title"><g transform="translate(425,-22)"><path class="background" aria-hidden="true" d="M0,0h0v0h0Z" pointer-events="none"></path><g><g class="mark-text role-title-text" role="graphics-symbol" aria-roledescription="title" aria-label="Title text 'matched_nodes_intra'" pointer-events="none"><text text-anchor="middle" transform="translate(0,10)" font-family="sans-serif" font-size="13px" font-weight="300" fill="#000" opacity="1">matched_nodes_intra</text></g></g><path class="foreground" aria-hidden="true" d="" pointer-events="none" display="none"></path></g></g></g><path class="foreground" aria-hidden="true" d="" display="none"></path></g></g></g></svg>