<?xml version="1.0" encoding="UTF-8" standalone="no"?>
<svg
   xmlns:dc="http://purl.org/dc/elements/1.1/"
   xmlns:cc="http://creativecommons.org/ns#"
   xmlns:rdf="http://www.w3.org/1999/02/22-rdf-syntax-ns#"
   xmlns:svg="http://www.w3.org/2000/svg"
   xmlns="http://www.w3.org/2000/svg"
   xmlns:xlink="http://www.w3.org/1999/xlink"
   xmlns:sodipodi="http://sodipodi.sourceforge.net/DTD/sodipodi-0.dtd"
   xmlns:inkscape="http://www.inkscape.org/namespaces/inkscape"
   inkscape:export-ydpi="238.10001"
   inkscape:export-xdpi="238.10001"
   inkscape:export-filename="/Users/paola/Downloads/hierarchical.png"
   inkscape:version="1.0 (4035a4f, 2020-05-01)"
   sodipodi:docname="hierarchical.svg"
   id="svg9968"
   width="763.75598pt"
   viewBox="0 0 763.75598 239.16719"
   version="1.1"
   height="239.16719pt">
  <metadata
     id="metadata9972">
    <rdf:RDF>
      <cc:Work
         rdf:about="">
        <dc:format>image/svg+xml</dc:format>
        <dc:type
           rdf:resource="http://purl.org/dc/dcmitype/StillImage" />
      </cc:Work>
    </rdf:RDF>
  </metadata>
  <sodipodi:namedview
     inkscape:current-layer="axes_2"
     inkscape:window-maximized="0"
     inkscape:window-y="0"
     inkscape:window-x="0"
     inkscape:cy="112.42626"
     inkscape:cx="462.04934"
     inkscape:zoom="0.76111111"
     showgrid="false"
     id="namedview9970"
     inkscape:window-height="804"
     inkscape:window-width="1542"
     inkscape:pageshadow="2"
     inkscape:pageopacity="0"
     guidetolerance="10"
     gridtolerance="10"
     objecttolerance="10"
     borderopacity="1"
     bordercolor="#666666"
     pagecolor="#ffffff" />
  <defs
     id="defs9636">
    <style
       id="style9634"
       type="text/css">
*{stroke-linecap:butt;stroke-linejoin:round;}
  </style>
  </defs>
  <g
     transform="translate(-208.24402,-68.089062)"
     id="figure_1">
    <g
       transform="translate(66)"
       id="axes_1">
      <g
         id="line2d_1">
        <path
           id="path9641"
           style="fill:none;stroke:#440154;stroke-linecap:square"
           d="m 142.74402,145.125 v 42.46875"
           clip-path="url(#pb7af4bcf76)" />
      </g>
      <g
         id="line2d_2">
        <path
           id="path9644"
           style="fill:none;stroke:#440154;stroke-linecap:square"
           d="M 142.74402,187.59375 H 254.69795"
           clip-path="url(#pb7af4bcf76)" />
      </g>
      <g
         id="line2d_3">
        <path
           id="path9647"
           style="fill:none;stroke:#481a6c;stroke-linecap:square"
           d="m 254.69795,187.59375 v 84.9375"
           clip-path="url(#pb7af4bcf76)" />
      </g>
      <g
         id="line2d_4">
        <path
           id="path9650"
           style="fill:none;stroke:#481a6c;stroke-linecap:square"
           d="M 254.69795,272.53125 H 359.02683"
           clip-path="url(#pb7af4bcf76)" />
      </g>
      <g
         id="line2d_5">
        <path
           id="path9653"
           style="fill:none;stroke:#3b518b;stroke-linecap:square"
           d="m 359.02683,272.53125 v 21.23437"
           clip-path="url(#pb7af4bcf76)" />
      </g>
      <g
         id="line2d_6">
        <path
           id="path9656"
           style="fill:none;stroke:#3b518b;stroke-linecap:square"
           d="M 359.02683,293.76562 H 515.26094"
           clip-path="url(#pb7af4bcf76)" />
      </g>
      <g
         id="line2d_7">
        <path
           id="path9659"
           style="fill:none;stroke:#3b518b;stroke-linecap:square"
           d="M 359.02683,272.53125 V 230.0625"
           clip-path="url(#pb7af4bcf76)" />
      </g>
      <g
         id="line2d_8">
        <path
           id="path9662"
           style="fill:none;stroke:#3b518b;stroke-linecap:square"
           d="m 359.02683,230.0625 h 84.21061"
           clip-path="url(#pb7af4bcf76)" />
      </g>
      <g
         id="line2d_9">
        <path
           id="path9665"
           style="fill:none;stroke:#2e6e8e;stroke-linecap:square"
           d="m 443.23744,230.0625 v 21.23437"
           clip-path="url(#pb7af4bcf76)" />
      </g>
      <g
         id="line2d_10">
        <path
           id="path9668"
           style="fill:none;stroke:#2e6e8e;stroke-linecap:square"
           d="m 443.23744,251.29687 h 72.0235"
           clip-path="url(#pb7af4bcf76)" />
      </g>
      <g
         id="line2d_11">
        <path
           id="path9671"
           style="fill:none;stroke:#2e6e8e;stroke-linecap:square"
           d="M 443.23744,230.0625 V 208.82812"
           clip-path="url(#pb7af4bcf76)" />
      </g>
      <g
         id="line2d_12">
        <path
           id="path9674"
           style="fill:none;stroke:#2e6e8e;stroke-linecap:square"
           d="m 443.23744,208.82812 h 72.0235"
           clip-path="url(#pb7af4bcf76)" />
      </g>
      <g
         id="line2d_13">
        <path
           id="path9677"
           style="fill:none;stroke:#481a6c;stroke-linecap:square"
           d="M 254.69795,187.59375 V 166.35937"
           clip-path="url(#pb7af4bcf76)" />
      </g>
      <g
         id="line2d_14">
        <path
           id="path9680"
           style="fill:none;stroke:#481a6c;stroke-linecap:square"
           d="M 254.69795,166.35937 H 515.26094"
           clip-path="url(#pb7af4bcf76)" />
      </g>
      <g
         id="line2d_15">
        <path
           id="path9683"
           style="fill:none;stroke:#440154;stroke-linecap:square"
           d="M 142.74402,145.125 V 102.65625"
           clip-path="url(#pb7af4bcf76)" />
      </g>
      <g
         id="line2d_16">
        <path
           id="path9686"
           style="fill:none;stroke:#440154;stroke-linecap:square"
           d="M 142.74402,102.65625 H 412.671"
           clip-path="url(#pb7af4bcf76)" />
      </g>
      <g
         id="line2d_17">
        <path
           id="path9689"
           style="fill:none;stroke:#481f70;stroke-linecap:square"
           d="m 412.671,102.65625 v 21.23438"
           clip-path="url(#pb7af4bcf76)" />
      </g>
      <g
         id="line2d_18">
        <path
           id="path9692"
           style="fill:none;stroke:#481f70;stroke-linecap:square"
           d="M 412.671,123.89063 H 515.26094"
           clip-path="url(#pb7af4bcf76)" />
      </g>
      <g
         id="line2d_19">
        <path
           id="path9695"
           style="fill:none;stroke:#481f70;stroke-linecap:square"
           d="M 412.671,102.65625 V 81.421875"
           clip-path="url(#pb7af4bcf76)" />
      </g>
      <g
         id="line2d_20">
        <path
           id="path9698"
           style="fill:none;stroke:#481f70;stroke-linecap:square"
           d="M 412.671,81.421875 H 515.26094"
           clip-path="url(#pb7af4bcf76)" />
      </g>
      <g
         transform="translate(-6)"
         id="text_1">
        <!-- 28.91 -->
        <defs
           id="defs9706">
          <path
             id="DejaVuSans-50"
             d="M 19.1875,8.296875 H 53.609375 V 0 H 7.328125 v 8.296875 q 5.609375,5.8125 15.296875,15.59375 9.703125,9.796875 12.1875,12.640625 4.734375,5.3125 6.609375,9 1.890625,3.6875 1.890625,7.25 0,5.8125 -4.078125,9.46875 -4.078125,3.671875 -10.625,3.671875 -4.640625,0 -9.796875,-1.609375 -5.140625,-1.609375 -11,-4.890625 v 9.96875 Q 13.765625,71.78125 18.9375,73 q 5.1875,1.21875 9.484375,1.21875 11.328125,0 18.0625,-5.671875 6.734375,-5.65625 6.734375,-15.125 0,-4.5 -1.6875,-8.53125 Q 49.859375,40.875 45.40625,35.40625 44.1875,33.984375 37.640625,27.21875 31.109375,20.453125 19.1875,8.296875 Z" />
          <path
             id="DejaVuSans-56"
             d="m 31.78125,34.625 q -7.03125,0 -11.0625,-3.765625 -4.015625,-3.765625 -4.015625,-10.34375 0,-6.59375 4.015625,-10.359375 4.03125,-3.765625 11.0625,-3.765625 7.03125,0 11.078125,3.78125 4.0625,3.796875 4.0625,10.34375 0,6.578125 -4.03125,10.34375 Q 38.875,34.625 31.78125,34.625 Z m -9.859375,4.1875 Q 15.578125,40.375 12.03125,44.71875 8.5,49.078125 8.5,55.328125 q 0,8.734375 6.21875,13.8125 6.234375,5.078125 17.0625,5.078125 10.890625,0 17.09375,-5.078125 6.203125,-5.078125 6.203125,-13.8125 0,-6.25 -3.546875,-10.609375 Q 48,40.375 41.703125,38.8125 q 7.125,-1.65625 11.09375,-6.5 3.984375,-4.828125 3.984375,-11.796875 0,-10.609375 -6.46875,-16.28125 -6.46875,-5.65625 -18.53125,-5.65625 -12.046875,0 -18.53125,5.65625 -6.46875,5.671875 -6.46875,16.28125 0,6.96875 4,11.796875 4.015625,4.84375 11.140625,6.5 z M 18.3125,54.390625 q 0,-5.65625 3.53125,-8.828125 3.546875,-3.171875 9.9375,-3.171875 6.359375,0 9.9375,3.171875 3.59375,3.171875 3.59375,8.828125 0,5.671875 -3.59375,8.84375 -3.578125,3.171875 -9.9375,3.171875 -6.390625,0 -9.9375,-3.171875 Q 18.3125,60.0625 18.3125,54.390625 Z" />
          <path
             id="DejaVuSans-46"
             d="M 10.6875,12.40625 H 21 V 0 H 10.6875 Z" />
          <path
             id="DejaVuSans-57"
             d="M 10.984375,1.515625 V 10.5 Q 14.703125,8.734375 18.5,7.8125 q 3.8125,-0.921875 7.484375,-0.921875 9.765625,0 14.90625,6.5625 5.15625,6.5625 5.890625,19.953125 -2.828125,-4.203125 -7.1875,-6.453125 -4.34375,-2.25 -9.609375,-2.25 -10.9375,0 -17.3125,6.609375 -6.375,6.625 -6.375,18.109375 0,11.21875 6.640625,18 6.640625,6.796875 17.671875,6.796875 12.65625,0 19.3125,-9.703125 6.671875,-9.6875 6.671875,-28.140625 0,-17.234375 -8.1875,-27.515625 -8.171875,-10.28125 -21.984375,-10.28125 -3.71875,0 -7.53125,0.734375 -3.796875,0.734375 -7.90625,2.203125 z m 19.625,30.90625 q 6.640625,0 10.515625,4.53125 3.890625,4.546875 3.890625,12.46875 0,7.859375 -3.890625,12.421875 -3.875,4.5625 -10.515625,4.5625 -6.640625,0 -10.515625,-4.5625 -3.875,-4.5625 -3.875,-12.421875 0,-7.921875 3.875,-12.46875 3.875,-4.53125 10.515625,-4.53125 z" />
          <path
             id="DejaVuSans-49"
             d="m 12.40625,8.296875 h 16.109375 v 55.625 L 10.984375,60.40625 v 8.984375 l 17.4375,3.515625 H 38.28125 V 8.296875 H 54.390625 V 0 H 12.40625 Z" />
        </defs>
        <g
           id="g9718"
           transform="matrix(0.1,0,0,-0.1,154.36004,147.88437)"
           style="fill:#440154">
          <use
             height="100%"
             width="100%"
             y="0"
             x="0"
             id="use9708"
             xlink:href="#DejaVuSans-50" />
          <use
             height="100%"
             width="100%"
             y="0"
             id="use9710"
             xlink:href="#DejaVuSans-56"
             x="63.623047" />
          <use
             height="100%"
             width="100%"
             y="0"
             id="use9712"
             xlink:href="#DejaVuSans-46"
             x="127.24609" />
          <use
             height="100%"
             width="100%"
             y="0"
             id="use9714"
             xlink:href="#DejaVuSans-57"
             x="159.0332" />
          <use
             height="100%"
             width="100%"
             y="0"
             id="use9716"
             xlink:href="#DejaVuSans-49"
             x="222.65625" />
        </g>
      </g>
      <g
         transform="translate(-6)"
         id="text_2">
        <!-- 26.94 -->
        <defs
           id="defs9723">
          <path
             id="DejaVuSans-54"
             d="m 33.015625,40.375 q -6.640625,0 -10.53125,-4.546875 -3.875,-4.53125 -3.875,-12.4375 0,-7.859375 3.875,-12.4375 3.890625,-4.5625 10.53125,-4.5625 6.640625,0 10.515625,4.5625 3.875,4.578125 3.875,12.4375 0,7.90625 -3.875,12.4375 Q 39.65625,40.375 33.015625,40.375 Z M 52.59375,71.296875 V 62.3125 q -3.71875,1.75 -7.5,2.671875 -3.78125,0.9375 -7.5,0.9375 -9.765625,0 -14.921875,-6.59375 -5.140625,-6.59375 -5.875,-19.921875 2.875,4.25 7.21875,6.515625 4.359375,2.265625 9.578125,2.265625 10.984375,0 17.359375,-6.671875 6.375,-6.65625 6.375,-18.125 0,-11.234375 -6.640625,-18.03125 -6.640625,-6.78125 -17.671875,-6.78125 -12.65625,0 -19.34375,9.6875 -6.6875,9.703125 -6.6875,28.109375 0,17.28125 8.203125,27.5625 8.203125,10.28125 22.015625,10.28125 3.71875,0 7.5,-0.734375 3.78125,-0.734375 7.890625,-2.1875 z" />
          <path
             id="DejaVuSans-52"
             d="M 37.796875,64.3125 12.890625,25.390625 h 24.90625 z m -2.59375,8.59375 h 12.40625 V 25.390625 h 10.40625 V 17.1875 H 47.609375 V 0 h -9.8125 V 17.1875 H 4.890625 v 9.515625 z" />
        </defs>
        <g
           id="g9735"
           transform="matrix(0.1,0,0,-0.1,266.31398,190.35312)"
           style="fill:#481a6c">
          <use
             height="100%"
             width="100%"
             y="0"
             x="0"
             id="use9725"
             xlink:href="#DejaVuSans-50" />
          <use
             height="100%"
             width="100%"
             y="0"
             id="use9727"
             xlink:href="#DejaVuSans-54"
             x="63.623047" />
          <use
             height="100%"
             width="100%"
             y="0"
             id="use9729"
             xlink:href="#DejaVuSans-46"
             x="127.24609" />
          <use
             height="100%"
             width="100%"
             y="0"
             id="use9731"
             xlink:href="#DejaVuSans-57"
             x="159.0332" />
          <use
             height="100%"
             width="100%"
             y="0"
             id="use9733"
             xlink:href="#DejaVuSans-52"
             x="222.65625" />
        </g>
      </g>
      <g
         transform="translate(-6)"
         id="text_3">
        <!-- 21.75 -->
        <defs
           id="defs9740">
          <path
             id="DejaVuSans-55"
             d="m 8.203125,72.90625 h 46.875 V 68.703125 L 28.609375,0 H 18.3125 L 43.21875,64.59375 H 8.203125 Z" />
          <path
             id="DejaVuSans-53"
             d="m 10.796875,72.90625 h 38.71875 v -8.3125 h -29.6875 V 46.734375 q 2.140625,0.734375 4.28125,1.09375 2.15625,0.359375 4.3125,0.359375 Q 40.625,48.1875 47.75,41.5 54.890625,34.8125 54.890625,23.390625 54.890625,11.625 47.5625,5.09375 40.234375,-1.421875 26.90625,-1.421875 q -4.59375,0 -9.359375,0.78125 -4.75,0.78125 -9.828125,2.34375 V 11.625 q 4.390625,-2.390625 9.078125,-3.5625 4.6875,-1.171875 9.90625,-1.171875 8.453125,0 13.375,4.4375 4.9375,4.4375 4.9375,12.0625 0,7.609375 -4.9375,12.046875 -4.921875,4.453125 -13.375,4.453125 -3.953125,0 -7.890625,-0.875 -3.921875,-0.875 -8.015625,-2.734375 z" />
        </defs>
        <g
           id="g9752"
           transform="matrix(0.1,0,0,-0.1,370.64285,275.29062)"
           style="fill:#3b518b">
          <use
             height="100%"
             width="100%"
             y="0"
             x="0"
             id="use9742"
             xlink:href="#DejaVuSans-50" />
          <use
             height="100%"
             width="100%"
             y="0"
             id="use9744"
             xlink:href="#DejaVuSans-49"
             x="63.623047" />
          <use
             height="100%"
             width="100%"
             y="0"
             id="use9746"
             xlink:href="#DejaVuSans-46"
             x="127.24609" />
          <use
             height="100%"
             width="100%"
             y="0"
             id="use9748"
             xlink:href="#DejaVuSans-55"
             x="159.0332" />
          <use
             height="100%"
             width="100%"
             y="0"
             id="use9750"
             xlink:href="#DejaVuSans-53"
             x="222.65625" />
        </g>
      </g>
      <g
         transform="translate(-4.5)"
         id="text_4">
        <!-- 18.60 -->
        <defs
           id="defs9756">
          <path
             id="DejaVuSans-48"
             d="m 31.78125,66.40625 q -7.609375,0 -11.453125,-7.5 Q 16.5,51.421875 16.5,36.375 q 0,-14.984375 3.828125,-22.484375 3.84375,-7.5 11.453125,-7.5 7.671875,0 11.5,7.5 3.84375,7.5 3.84375,22.484375 0,15.046875 -3.84375,22.53125 -3.828125,7.5 -11.5,7.5 z m 0,7.8125 q 12.265625,0 18.734375,-9.703125 6.46875,-9.6875 6.46875,-28.140625 0,-18.40625 -6.46875,-28.109375 -6.46875,-9.6875 -18.734375,-9.6875 -12.25,0 -18.71875,9.6875 Q 6.59375,17.96875 6.59375,36.375 q 0,18.453125 6.46875,28.140625 6.46875,9.703125 18.71875,9.703125 z" />
        </defs>
        <g
           id="g9768"
           transform="matrix(0.1,0,0,-0.1,454.85346,232.82187)"
           style="fill:#2e6e8e">
          <use
             height="100%"
             width="100%"
             y="0"
             x="0"
             id="use9758"
             xlink:href="#DejaVuSans-49" />
          <use
             height="100%"
             width="100%"
             y="0"
             id="use9760"
             xlink:href="#DejaVuSans-56"
             x="63.623047" />
          <use
             height="100%"
             width="100%"
             y="0"
             id="use9762"
             xlink:href="#DejaVuSans-46"
             x="127.24609" />
          <use
             height="100%"
             width="100%"
             y="0"
             id="use9764"
             xlink:href="#DejaVuSans-54"
             x="159.0332" />
          <use
             height="100%"
             width="100%"
             y="0"
             id="use9766"
             xlink:href="#DejaVuSans-48"
             x="222.65625" />
        </g>
      </g>
      <g
         transform="translate(-4.5)"
         id="text_5">
        <!-- 26.50 -->
        <g
           id="g9781"
           transform="matrix(0.1,0,0,-0.1,424.28703,105.41563)"
           style="fill:#481f70">
          <use
             height="100%"
             width="100%"
             y="0"
             x="0"
             id="use9771"
             xlink:href="#DejaVuSans-50" />
          <use
             height="100%"
             width="100%"
             y="0"
             id="use9773"
             xlink:href="#DejaVuSans-54"
             x="63.623047" />
          <use
             height="100%"
             width="100%"
             y="0"
             id="use9775"
             xlink:href="#DejaVuSans-46"
             x="127.24609" />
          <use
             height="100%"
             width="100%"
             y="0"
             id="use9777"
             xlink:href="#DejaVuSans-53"
             x="159.0332" />
          <use
             height="100%"
             width="100%"
             y="0"
             id="use9779"
             xlink:href="#DejaVuSans-48"
             x="222.65625" />
        </g>
      </g>
    </g>
    <g
       id="axes_2">
      <g
         style="stroke:#808080"
         id="line2d_21">
        <path
           id="path9785"
           style="fill:none;stroke:#808080;stroke-width:1.5;stroke-linecap:square"
           d="m 601.88389,305.47323 1.03385,-1.03303 1.03384,2.06605 h 6.20306 l 1.03385,-1.03302 1.03384,1.03302 h 2.06769 l 1.03384,-2.06605 1.03385,-3.09907 1.03384,5.16512 h 2.06769 l 1.03384,-7.23117 1.03385,6.19815 1.03384,-1.03303 1.03384,2.06605 1.03385,-1.03302 1.03384,1.03302 h 2.06769 l 1.03384,-1.03302 1.03385,1.03302 h 3.10153 l 2.06769,-2.06605 2.06768,2.06605 1.03385,-1.03302 1.03384,1.03302 h 8.27075 l 1.03385,-1.03302 1.03384,1.03302 h 3.10153 l 1.03385,-1.03302 1.03384,1.03302 1.03384,-1.03302 1.03385,1.03302 h 4.13537 l 1.03385,-1.03302 1.03384,1.03302 h 1.03385 l 1.03384,-1.03302 1.03384,1.03302 h 3.10154 l 1.03384,-1.03302 1.03384,1.03302 1.03385,-1.03302 1.03384,1.03302 h 7.23691 l 1.03384,-2.06605 1.03385,-1.03302 1.03384,-2.06605 1.03384,5.16512 h 3.10154 l 1.03384,-2.06605 1.03384,2.06605 h 7.23691 l 1.03384,-1.03302 1.03385,1.03302 h 3.10153 l 1.03384,-1.03302 1.03385,-4.1321 1.03384,5.16512 1.03385,-1.03302 1.03384,1.03302 1.03384,-6.19814 1.03385,6.19814 h 4.13537 l 1.03384,-5.16512 1.03385,4.1321 1.03384,-1.03303 1.03385,2.06605 h 3.10153 l 1.03384,-2.06605 1.03385,2.06605 h 2.06768 l 1.03385,-5.16512 1.03384,5.16512 h 2.06769 l 1.03384,-4.1321 1.03385,3.09908 1.03384,1.03302 h 1.03384 l 1.03385,-1.03302 1.03384,-5.16512 1.03385,6.19814 1.03384,-1.03302 1.03384,1.03302 h 4.13538 l 1.03384,-1.03302 1.03385,1.03302 1.03384,-1.03302 h 2.06769 l 1.03384,1.03302 h 1.03385 l 1.03384,-1.03302 1.03384,-5.16512 1.03385,5.16512 1.03384,1.03302 h 1.03385 l 1.03384,-1.03302 1.03384,1.03302 h 2.06769 l 1.03385,-2.06605 1.03384,2.06605 h 3.10153 l 1.03384,-1.03302 1.03385,1.03302 1.03384,-1.03302 1.03385,1.03302 h 1.03384 l 1.03384,-5.16512 1.03385,5.16512 h 1.03384 l 1.03385,-1.03302 1.03384,1.03302 1.03384,-1.03302 1.03385,1.03302 1.03384,-5.16512 1.03385,5.16512 h 2.06768 l 1.03385,-1.03302 1.03384,-4.1321 1.03384,5.16512 1.03385,-1.03302 h 1.03384 l 1.03385,1.03302 h 3.10153 l 1.03384,-5.16512 1.03385,3.09907 1.03384,2.06605 1.03384,-1.03302 1.03385,1.03302 h 1.03384 l 1.03385,-1.03302 1.03384,1.03302 h 2.06769 l 1.03384,-1.03302 h 1.03385 l 1.03384,1.03302 h 2.06769 l 1.03384,-1.03302 1.03384,1.03302 h 5.16922 l 1.03385,-1.03302 h 1.03384 l 1.03385,1.03302 1.03384,-1.03302 1.03384,1.03302 1.03385,-5.16512 1.03384,5.16512 1.03384,-2.06605 1.03385,-4.13209 1.03384,6.19814 h 1.03385 l 1.03384,-1.03302 1.03384,1.03302 h 3.10154 l 1.03384,-1.03302 h 1.03384 l 1.03385,1.03302 h 4.13537 l 1.03385,-1.03302 1.03384,1.03302 h 3.10153 l 1.03385,-1.03302 1.03384,1.03302 h 1.03384 l 1.03385,-1.03302 1.03384,1.03302 h 1.03384 l 1.03385,-1.03302 1.03384,1.03302 1.03385,-1.03302 1.03384,1.03302 h 3.10153 l 1.03385,-1.03302 h 1.03384 l 1.03384,1.03302 h 6.20307 l 2.06768,-2.06605 2.06769,2.06605 1.03385,-1.03302 1.03384,1.03302 h 3.10153 l 1.03385,-1.03302 1.03384,1.03302 h 1.03384 l 1.03385,-1.03302 1.03384,1.03302 h 8.27075 l 3.10153,-3.09907 1.03385,3.09907 h 6.20306 l 1.03384,-1.03302 1.03385,1.03302 h 2.06769 l 1.03384,-1.03302 1.03384,1.03302 h 4.13538 l 1.03384,-1.03302 1.03385,1.03302 1.03384,-2.06605 1.03384,2.06605 h 2.06769 l 1.03385,-1.03302 1.03384,1.03302 1.03384,-1.03302 1.03385,1.03302 h 1.03384 l 1.03385,-1.03302 1.03384,1.03302 1.03384,-1.03302 h 1.03385 l 1.03384,1.03302 1.03385,-10.33024 1.03384,9.29722 1.03384,-4.1321 1.03385,5.16512 1.03384,-1.03302 1.03385,1.03302 h 8.27075 l 1.03384,-10.33024 1.03384,10.33024 h 3.10154 l 1.03384,-5.16512 1.03384,5.16512 1.03385,-5.16512 1.03384,5.16512 h 1.03385 l 1.03384,-1.03302 h 1.03384 l 1.03385,1.03302 h 5.16922 l 1.03384,-6.19814 1.03384,6.19814 1.03385,-1.03302 h 2.06769 l 1.03384,1.03302 h 3.10153 l 1.03385,-1.03302 1.03384,1.03302 H 972 l 1.03384,-2.06605 v 0"
           clip-path="url(#p3a9d6174d2)" />
      </g>
      <g
         style="stroke:#808080"
         id="line2d_22">
        <path
           id="path9788"
           style="fill:none;stroke:#808080;stroke-width:1.5;stroke-linecap:square"
           d="m 601.88389,261.97145 1.03385,2.06605 1.03384,-1.03302 1.03384,1.03302 1.03385,-1.03302 1.03384,1.03302 1.03385,-1.03302 1.03384,1.03302 h 2.06769 l 1.03384,-1.03302 1.03385,1.03302 h 3.10153 l 1.03384,-1.03302 1.03384,1.03302 h 1.03385 l 1.03384,-2.06605 1.03385,2.06605 h 2.06768 l 1.03385,-6.19814 1.03384,6.19814 h 11.37228 l 1.03385,-2.06605 1.03384,2.06605 1.03385,-5.16512 1.03384,4.1321 1.03384,1.03302 h 11.37229 l 1.03384,-1.03302 1.03384,1.03302 1.03385,-2.06605 1.03384,2.06605 h 1.03385 l 1.03384,-5.16512 1.03384,5.16512 h 4.13538 l 1.03384,-1.03302 1.03385,1.03302 h 1.03384 l 1.03385,-5.16512 1.03384,5.16512 h 5.16922 l 1.03384,-1.03302 1.03385,1.03302 h 2.06768 l 1.03385,-5.16512 1.03384,4.1321 1.03385,1.03302 1.03384,-1.03302 1.03384,1.03302 h 4.13538 l 1.03384,-1.03302 h 1.03385 l 1.03384,-4.1321 1.03384,5.16512 h 1.03385 l 1.03384,-1.03302 1.03385,-4.1321 1.03384,5.16512 h 2.06769 l 1.03384,-6.19814 1.03385,6.19814 h 1.03384 l 1.03384,-1.03302 1.03385,1.03302 1.03384,-1.03302 1.03385,1.03302 h 2.06768 l 1.03385,-1.03302 1.03384,1.03302 1.03384,-1.03302 1.03385,1.03302 h 1.03384 l 1.03384,-5.16512 1.03385,5.16512 1.03384,-1.03302 1.03385,1.03302 h 10.33844 l 1.03384,-5.16512 1.03384,5.16512 1.03385,-1.03302 1.03384,1.03302 h 12.40613 l 1.03384,-1.03302 h 2.06769 l 1.03384,1.03302 1.03385,-1.03302 1.03384,1.03302 h 4.13538 l 1.03384,-1.03302 1.03384,1.03302 h 3.10154 l 1.03384,-1.03302 h 2.06769 l 1.03384,1.03302 h 5.16922 l 1.03384,-1.03302 1.03385,1.03302 1.03384,-1.03302 1.03385,1.03302 1.03384,-5.16512 1.03384,5.16512 h 3.10154 l 1.03384,-5.16512 1.03384,5.16512 1.03385,-10.33024 1.03384,10.33024 h 2.06769 l 1.03384,-1.03302 1.03385,1.03302 h 5.16922 l 1.03384,-1.03302 1.03384,1.03302 h 9.3046 l 1.03384,-1.03302 1.03385,-5.16512 1.03384,5.16512 1.03384,1.03302 h 3.10154 l 1.03384,-2.06605 1.03384,2.06605 h 12.40613 l 1.03384,-1.03302 1.03385,1.03302 h 3.10153 l 1.03384,-1.03302 1.03385,1.03302 1.03384,-1.03302 1.03385,1.03302 h 3.10153 l 2.06768,-2.06605 1.03385,2.06605 h 1.03384 l 1.03385,-1.03302 h 1.03384 l 1.03384,-1.03303 1.03385,2.06605 h 2.06768 l 1.03385,-1.03302 h 1.03384 l 1.03385,1.03302 h 1.03384 l 1.03384,-1.03302 1.03385,-4.1321 1.03384,5.16512 h 14.47382 l 1.03384,-1.03302 1.03384,1.03302 h 4.13538 l 1.03384,-1.03302 1.03385,1.03302 h 1.03384 l 2.06769,-2.06605 1.03384,2.06605 1.03385,-5.16512 1.03384,5.16512 h 4.13538 l 1.03384,-5.16512 1.03384,5.16512 h 5.16922 l 1.03385,-5.16512 1.03384,5.16512 h 13.43997 l 1.03384,-6.19814 1.03385,6.19814 h 1.03384 l 1.03385,-1.03302 1.03384,1.03302 h 1.03384 l 1.03385,-1.03302 1.03384,1.03302 h 4.13538 l 1.03384,-1.03302 1.03385,1.03302 h 1.03384 l 1.03384,-1.03302 1.03385,1.03302 h 6.20306 l 1.03384,-1.03302 1.03385,1.03302 h 2.06769 l 1.03384,-1.03302 1.03384,1.03302 h 1.03385 l 1.03384,-5.16512 1.03385,-1.03302 1.03384,5.16512 1.03384,1.03302 h 2.06769 l 1.03385,-1.03302 h 1.03384 l 1.03384,1.03302 1.03385,-1.03302 1.03384,1.03302 h 3.10153 l 1.03385,-1.03302 1.03384,1.03302 h 2.06769 l 1.03384,-1.03302 1.03385,1.03302 h 4.13537 l 1.03385,-1.03302 1.03384,1.03302 h 4.13537 l 1.03385,-1.03302 1.03384,1.03302 1.03384,-1.03302 v 0"
           clip-path="url(#p3a9d6174d2)" />
      </g>
      <g
         style="stroke:#808080"
         id="line2d_23">
        <path
           id="path9791"
           style="fill:none;stroke:#808080;stroke-width:1.5;stroke-linecap:square"
           d="m 601.88389,220.53573 h 1.03385 l 1.03384,1.03302 h 1.03384 l 1.03385,-1.03302 1.03384,1.03302 1.03385,-1.03302 h 2.06768 l 1.03385,-1.03303 1.03384,2.06605 h 4.13538 l 1.03384,-1.03302 1.03384,1.03302 1.03385,-1.03302 1.03384,1.03302 1.03385,-1.03302 1.03384,1.03302 h 2.06769 l 1.03384,-2.06605 1.03385,2.06605 h 1.03384 l 1.03384,-1.03302 1.03385,1.03302 1.03384,-1.03302 1.03385,1.03302 1.03384,-2.06605 1.03384,2.06605 h 1.03385 l 1.03384,-1.03302 h 1.03384 l 1.03385,-1.03303 h 2.06769 l 1.03384,1.03303 h 2.06769 l 1.03384,1.03302 h 1.03385 l 1.03384,-2.06605 1.03384,2.06605 1.03385,-5.16512 1.03384,3.09907 h 1.03384 l 1.03385,1.03303 1.03384,-3.09908 1.03385,2.06605 h 1.03384 l 1.03384,2.06605 1.03385,-1.03302 1.03384,1.03302 h 1.03385 l 1.03384,-2.06605 1.03384,2.06605 1.03385,-2.06605 1.03384,1.03303 h 2.06769 l 1.03384,1.03302 h 1.03385 l 1.03384,-3.09907 1.03385,3.09907 1.03384,-1.03302 1.03384,1.03302 2.06769,-2.06605 2.06769,2.06605 1.03384,-1.03302 h 1.03385 l 1.03384,-1.03303 1.03384,2.06605 1.03385,-1.03302 1.03384,1.03302 1.03385,-1.03302 h 1.03384 l 1.03384,1.03302 1.03385,-1.03302 1.03384,1.03302 h 1.03385 l 2.06768,-4.1321 1.03385,2.06605 h 1.03384 l 1.03384,1.03303 1.03385,-1.03303 h 1.03384 l 1.03385,2.06605 1.03384,-6.19814 1.03384,5.16512 h 1.03385 l 1.03384,-1.03303 1.03385,2.06605 1.03384,-1.03302 h 1.03384 l 2.06769,-2.06605 1.03385,2.06605 1.03384,-1.03303 1.03384,-3.09907 1.03385,4.1321 h 1.03384 l 1.03384,-1.03303 1.03385,1.03303 1.03384,-1.03303 h 1.03384 l 1.03385,1.03303 h 1.03384 l 1.03385,1.03302 1.03384,-2.06605 1.03384,2.06605 h 4.13538 l 2.06769,-2.06605 h 1.03384 l 1.03385,2.06605 h 4.13537 l 1.03384,-1.03302 1.03385,1.03302 h 3.10153 l 1.03384,-2.06605 1.03385,2.06605 h 3.10153 l 1.03384,-1.03302 1.03385,1.03302 1.03384,-2.06605 1.03385,2.06605 h 5.16921 l 1.03385,-1.03302 1.03384,1.03302 h 5.16922 l 1.03385,-1.03302 1.03384,1.03302 1.03384,-2.06605 2.06769,2.06605 h 4.13538 l 1.03384,-1.03302 1.03384,1.03302 1.03385,-1.03302 1.03384,1.03302 h 7.23691 l 1.03384,-1.03302 1.03385,1.03302 1.03384,-1.03302 h 2.06769 l 1.03384,1.03302 1.03385,-2.06605 1.03384,2.06605 h 1.03384 l 1.03385,-1.03302 1.03384,-2.06605 1.03385,2.06605 1.03384,-1.03303 h 1.03384 l 1.03385,1.03303 h 3.10153 l 1.03384,-1.03303 1.03385,2.06605 1.03384,-1.03302 1.03385,1.03302 h 1.03384 l 1.03384,-1.03302 h 1.03385 l 1.03384,1.03302 1.03384,-2.06605 1.03385,1.03303 1.03384,-2.06605 2.06769,2.06605 h 2.06769 l 1.03384,1.03302 h 1.03385 l 1.03384,-2.06605 1.03384,2.06605 1.03385,-1.03302 h 1.03384 l 1.03384,-2.06605 h 1.03385 l 1.03384,2.06605 1.03385,1.03302 h 7.2369 l 1.03385,-1.03302 1.03384,1.03302 h 1.03385 l 1.03384,-1.03302 1.03384,1.03302 h 5.16922 l 1.03385,-1.03302 1.03384,1.03302 1.03384,-1.03302 1.03385,1.03302 h 17.57534 l 1.03385,-1.03302 h 1.03384 l 1.03384,1.03302 h 12.40613 l 1.03384,-1.03302 1.03385,1.03302 h 4.13537 l 1.03385,-1.03302 h 1.03384 l 1.03385,1.03302 h 9.30459 l 1.03384,-1.03302 1.03385,1.03302 h 1.03384 l 1.03385,-1.03302 1.03384,1.03302 1.03384,-1.03302 1.03385,1.03302 h 13.43997 l 1.03384,-1.03302 1.03385,1.03302 h 2.06768 l 1.03385,-1.03302 h 2.06769 l 1.03384,1.03302 h 11.37228 l 1.03385,-1.03302 1.03384,1.03302 h 1.03384 l 1.03385,-1.03302 1.03384,1.03302 h 2.06769 l 1.03384,-1.03302 1.03385,1.03302 h 10.33844 l 1.03384,-1.03302 v 0"
           clip-path="url(#p3a9d6174d2)" />
      </g>
      <g
         style="stroke:#808080"
         id="line2d_24">
        <path
           id="path9794"
           style="fill:none;stroke:#808080;stroke-width:1.5;stroke-linecap:square"
           d="m 601.88389,171.86883 2.06769,4.1321 1.03384,-3.09907 1.03385,-1.03303 1.03384,1.03303 1.03385,-2.06605 1.03384,8.26419 h 3.10153 l 1.03385,-1.03302 1.03384,1.03302 h 3.10153 l 1.03384,-1.03302 h 1.03385 l 1.03384,1.03302 h 4.13538 l 1.03384,-1.03302 1.03385,1.03302 1.03384,-1.03302 1.03384,1.03302 h 1.03385 l 1.03384,-1.03302 h 1.03385 l 1.03384,1.03302 h 1.03384 l 1.03385,-1.03302 h 1.03384 l 1.03384,1.03302 1.03385,-1.03302 1.03384,1.03302 h 3.10153 l 1.03385,-1.03302 1.03384,1.03302 h 4.13538 l 1.03384,-1.03302 1.03384,1.03302 h 1.03385 l 1.03384,-1.03302 h 1.03385 l 1.03384,-1.03303 1.03384,2.06605 1.03385,-1.03302 1.03384,1.03302 1.03385,-2.06605 h 1.03384 l 1.03384,2.06605 1.03385,-1.03302 1.03384,1.03302 1.03385,-1.03302 h 1.03384 l 1.03384,-2.06605 1.03385,3.09907 h 1.03384 l 2.06769,-2.06605 h 1.03384 l 1.03385,2.06605 h 2.06768 l 1.03385,-2.06605 h 1.03384 l 2.06769,2.06605 1.03384,-1.03302 1.03385,1.03302 h 1.03384 l 1.03385,-1.03302 1.03384,1.03302 1.03384,-3.09907 h 2.06769 l 1.03385,3.09907 h 1.03384 l 1.03384,-4.1321 1.03385,-3.09907 1.03384,4.1321 h 1.03384 l 1.03385,-1.03303 1.03384,-3.09907 1.03385,4.1321 h 1.03384 l 1.03384,-2.06605 1.03385,5.16512 1.03384,-3.09907 1.03385,-1.03303 1.03384,3.09908 2.06769,-4.1321 1.03384,1.03302 1.03385,4.1321 1.03384,-2.06605 1.03384,-4.13209 1.03385,6.19814 1.03384,-7.23117 1.03384,4.1321 1.03385,-2.06605 1.03384,4.1321 1.03384,1.03302 h 1.03385 l 1.03384,-1.03302 h 2.06769 l 1.03384,1.03302 h 2.06769 l 1.03385,-3.09907 1.03384,3.09907 h 10.33844 l 1.03384,-2.06605 1.03385,2.06605 1.03384,-1.03302 1.03384,1.03302 h 18.60919 l 2.06769,-2.06605 1.03385,2.06605 h 2.06768 l 1.03385,-1.03302 h 1.03384 l 1.03384,1.03302 h 2.06769 l 1.03385,-1.03302 1.03384,1.03302 h 1.03384 l 1.03385,-1.03302 1.03384,1.03302 h 2.06769 l 1.03384,-1.03302 1.03385,1.03302 h 1.03384 l 1.03385,-1.03302 1.03384,1.03302 1.03384,-2.06605 1.03385,2.06605 1.03384,-2.06605 1.03384,2.06605 h 1.03385 l 1.03384,-2.06605 2.06769,2.06605 h 7.23691 l 1.03384,-2.06605 h 1.03385 l 1.03384,2.06605 h 3.10153 l 2.06769,-2.06605 1.03384,2.06605 h 1.03385 l 1.03384,-1.03302 1.03384,1.03302 1.03385,-1.03302 h 2.06769 L 811.7542,179.1 h 10.33844 l 1.03384,-1.03302 1.03385,1.03302 1.03384,-1.03302 h 1.03384 l 1.03385,-1.03303 1.03384,1.03303 h 1.03385 l 1.03384,1.03302 1.03384,-3.09907 1.03385,2.06605 h 1.03384 l 1.03385,1.03302 1.03384,-8.26419 1.03384,1.03302 1.03385,5.16512 1.03384,-8.26419 1.03384,9.29722 1.03385,-3.09908 2.06769,2.06605 1.03384,-2.06605 1.03384,3.09908 1.03385,-2.06605 1.03384,-3.09907 1.03384,5.16512 1.03385,-1.03303 1.03384,1.03303 1.03385,-2.06605 1.03384,2.06605 2.06769,-6.19815 1.03384,6.19815 1.03385,-5.16512 1.03384,6.19814 1.03384,-5.16512 1.03385,4.1321 1.03384,1.03302 1.03385,-6.19814 1.03384,2.06604 1.03384,3.09908 1.03385,1.03302 h 7.2369 l 1.03385,-8.26419 1.03384,-4.13209 1.03385,10.33023 1.03384,2.06605 1.03384,-2.06605 1.03385,2.06605 1.03384,-3.09907 h 2.06769 l 2.06769,2.06605 1.03384,-2.06605 1.03384,2.06605 1.03385,-2.06605 1.03384,3.09907 h 15.50766 l 1.03384,-1.03302 h 1.03385 l 1.03384,1.03302 h 8.27075 l 1.03385,-1.03302 1.03384,1.03302 1.03384,-1.03302 1.03385,1.03302 h 1.03384 l 1.03385,-1.03302 1.03384,1.03302 h 15.50766 l 1.03384,-1.03302 h 1.03385 l 1.03384,1.03302 h 5.16922 l 1.03384,-2.06605 h 1.03385 v 0"
           clip-path="url(#p3a9d6174d2)" />
      </g>
      <g
         style="stroke:#808080"
         id="line2d_25">
        <path
           id="path9797"
           style="fill:none;stroke:#808080;stroke-width:1.5;stroke-linecap:square"
           d="m 601.88389,123.20194 1.03385,11.36326 1.03384,-4.13209 1.03384,1.03302 1.03385,-2.06605 1.03384,-3.09907 1.03385,5.16512 1.03384,4.1321 1.03384,1.03302 h 1.03385 l 1.03384,-1.03302 1.03385,1.03302 1.03384,-1.03302 h 1.03384 l 1.03385,-1.03303 1.03384,2.06605 1.03384,-1.03302 1.03385,1.03302 2.06769,-2.06605 h 1.03384 l 1.03384,1.03303 h 1.03385 l 1.03384,1.03302 1.03385,-2.06605 1.03384,1.03303 h 1.03384 l 1.03385,1.03302 h 5.16922 l 1.03384,-1.03302 h 1.03384 l 1.03385,1.03302 1.03384,-2.06605 2.06769,2.06605 h 1.03384 l 1.03385,-2.06605 1.03384,2.06605 1.03385,-4.1321 1.03384,3.09908 1.03384,-1.03303 2.06769,2.06605 1.03384,-1.03302 1.03385,1.03302 1.03384,-2.06605 1.03385,2.06605 1.03384,-2.06605 h 1.03384 l 2.06769,-2.06605 1.03385,4.1321 h 1.03384 l 1.03384,-2.06605 1.03385,-1.03302 1.03384,1.03302 1.03385,2.06605 1.03384,-2.06605 h 1.03384 l 1.03385,-1.03302 1.03384,1.03302 h 1.03385 l 1.03384,2.06605 1.03384,-3.09907 2.06769,2.06605 1.03384,-1.03303 1.03385,1.03303 h 1.03384 l 1.03385,1.03302 2.06768,-2.06605 1.03385,2.06605 2.06769,-2.06605 1.03384,-2.06605 1.03384,4.1321 1.03385,-3.09907 h 1.03384 l 1.03385,2.06605 h 1.03384 l 1.03384,-1.03303 1.03385,2.06605 1.03384,-2.06605 2.06769,2.06605 h 1.03384 l 1.03385,-1.03302 h 1.03384 l 1.03384,-2.06605 1.03385,2.06605 1.03384,1.03302 h 1.03385 l 1.03384,-1.03302 1.03384,1.03302 1.03385,-3.09907 1.03384,2.06605 h 1.03385 l 1.03384,1.03302 h 1.03384 l 1.03385,-3.09907 1.03384,1.03302 h 1.03384 l 1.03385,-5.16512 1.03384,4.1321 1.03384,-4.1321 1.03385,4.1321 1.03384,-4.1321 1.03385,6.19815 1.03384,-2.06605 1.03384,2.06605 2.06769,-4.1321 1.03385,3.09907 1.03384,1.03303 1.03384,-4.1321 1.03385,2.06605 1.03384,1.03302 1.03385,2.06605 1.03384,-4.1321 h 1.03384 l 1.03385,1.03303 1.03384,2.06605 2.06769,-4.1321 1.03384,2.06605 1.03385,-3.09907 1.03384,3.09907 h 1.03384 l 1.03385,2.06605 1.03384,1.03302 h 3.10153 l 1.03385,-2.06605 1.03384,2.06605 h 10.33844 l 1.03384,-2.06605 1.03385,2.06605 h 3.10153 l 1.03384,-1.03302 1.03385,1.03302 h 10.33844 l 1.03384,-1.03302 1.03384,1.03302 1.03385,-2.06605 1.03384,2.06605 h 1.03385 l 1.03384,-2.06605 2.06769,2.06605 h 15.50766 l 1.03384,-2.06605 1.03384,2.06605 h 6.20307 l 1.03384,-2.06605 1.03384,2.06605 1.03385,-2.06605 1.03384,2.06605 h 16.5415 l 1.03385,-2.06605 1.03384,2.06605 h 6.20307 l 1.03384,-2.06605 1.03384,2.06605 h 1.03385 l 1.03384,-1.03302 h 1.03384 l 1.03385,-1.03303 1.03384,2.06605 h 1.03385 l 1.03384,-3.09907 1.03384,-2.06605 1.03385,1.03302 1.03384,2.06605 1.03384,-1.03302 1.03385,1.03302 1.03384,2.06605 1.03385,-1.03302 1.03384,-4.1321 1.03384,3.09907 1.03385,-3.09907 h 1.03384 l 1.03385,3.09907 1.03384,-1.03302 1.03384,1.03302 1.03385,-1.03302 h 2.06769 l 1.03384,1.03302 1.03384,-1.03302 1.03385,-3.09907 1.03384,-1.03303 1.03384,5.16512 h 1.03385 l 1.03384,-2.06605 1.03385,3.09908 1.03384,-3.09908 1.03384,1.03303 1.03385,3.09907 1.03384,-2.06605 1.03385,2.06605 h 1.03384 l 1.03384,-3.09907 1.03385,2.06605 1.03384,1.03302 h 6.20306 l 1.03385,-38.221875 1.03384,26.858615 1.03385,6.19814 1.03384,3.09907 1.03384,-3.09907 1.03385,4.1321 2.06769,-6.19815 1.03384,4.1321 1.03384,-1.03303 1.03385,-2.06604 1.03384,5.16512 1.03384,-1.03303 h 2.06769 l 1.03385,2.06605 h 1.03384 l 1.03384,-1.03302 1.03385,1.03302 1.03384,-1.03302 1.03385,1.03302 h 10.33843 l 1.03385,-1.03302 1.03384,1.03302 h 3.10153 l 1.03385,-1.03302 h 1.03384 l 1.03385,1.03302 h 2.06768 l 1.03385,-1.03302 1.03384,1.03302 h 3.10153 l 1.03385,-1.03302 1.03384,1.03302 1.03384,-1.03302 1.03385,1.03302 h 4.13537 l 1.03385,-1.03302 v 0"
           clip-path="url(#p3a9d6174d2)" />
      </g>
      <g
         style="stroke:#808080"
         id="line2d_26">
        <path
           id="path9800"
           style="fill:none;stroke:#808080;stroke-width:1.5;stroke-linecap:square"
           d="m 601.88389,83.832264 1.03385,2.066047 h 1.03384 l 1.03384,-4.132095 1.03385,8.264189 1.03384,-7.231165 1.03385,3.099071 1.03384,7.231165 1.03384,1.033024 h 7.23691 l 1.03384,-1.033024 1.03385,1.033024 h 2.06769 l 1.03384,-1.033024 1.03384,1.033024 1.03385,-1.033024 1.03384,1.033024 2.06769,-2.066047 1.03384,2.066047 h 1.03385 l 1.03384,-1.033024 h 3.10153 l 1.03385,-1.033023 h 2.06768 l 1.03385,1.033023 1.03384,-2.066047 2.06769,2.066047 1.03384,-1.033023 1.03385,1.033023 h 2.06769 l 1.03384,1.033024 1.03384,-1.033024 h 1.03385 l 1.03384,-5.165118 1.03384,4.132095 1.03385,-1.033024 1.03384,2.066047 h 1.03385 l 1.03384,-1.033023 h 1.03384 l 1.03385,2.066047 1.03384,-1.033024 h 1.03385 l 1.03384,-3.099071 1.03384,3.099071 1.03385,1.033024 1.03384,-1.033024 h 4.13538 l 2.06769,-2.066047 1.03384,2.066047 1.03384,1.033024 1.03385,-3.099071 3.10153,3.099071 1.03384,-1.033024 1.03385,1.033024 1.03384,-1.033024 1.03384,1.033024 h 1.03385 l 1.03384,-1.033024 h 1.03385 l 1.03384,1.033024 h 2.06769 l 1.03384,-1.033024 h 1.03385 l 1.03384,-1.033023 1.03384,2.066047 1.03385,-1.033024 1.03384,1.033024 h 1.03384 l 1.03385,-3.099071 1.03384,2.066047 1.03385,1.033024 1.03384,-3.099071 1.03384,1.033024 1.03385,2.066047 1.03384,-5.165118 1.03385,3.099071 h 1.03384 l 1.03384,2.066047 h 1.03385 l 1.03384,-1.033024 1.03385,1.033024 1.03384,-3.099071 1.03384,-1.033024 1.03385,3.099071 1.03384,1.033024 2.06769,-2.066047 1.03384,2.066047 1.03384,-2.066047 1.03385,2.066047 1.03384,-3.099071 1.03385,3.099071 h 3.10153 l 1.03384,-1.033024 h 1.03385 l 1.03384,-1.033023 1.03384,2.066047 h 4.13538 l 1.03384,-1.033024 1.03385,1.033024 h 1.03384 l 1.03384,-1.033024 h 1.03385 l 1.03384,1.033024 h 3.10153 l 1.03385,-2.066047 1.03384,2.066047 1.03385,-4.132095 1.03384,3.099071 1.03384,1.033024 h 3.10154 l 1.03384,-9.297213 1.03384,2.066047 1.03385,-6.198141 1.03384,10.330236 1.03384,-3.099071 1.03385,2.066047 1.03384,-6.198141 1.03385,1.033023 1.03384,-5.165118 1.03384,10.330236 h 1.03385 l 1.03384,-4.132094 1.03385,4.132094 1.03384,-4.132094 1.03384,1.033023 h 1.03385 l 1.03384,5.165119 1.03384,-6.198142 1.03385,3.099071 h 1.03384 l 1.03385,-2.066048 1.03384,4.132095 1.03384,1.033024 1.03385,-7.231166 1.03384,2.066047 h 1.03385 l 1.03384,3.099071 1.03384,4.132095 1.03385,-2.066047 1.03384,1.033023 h 1.03385 l 1.03384,1.033024 1.03384,-1.033024 1.03385,1.033024 1.03384,-4.132095 1.03384,4.132095 h 2.06769 l 1.03385,-1.033024 1.03384,-2.066047 1.03384,3.099071 1.03385,-2.066047 1.03384,2.066047 h 10.33844 l 1.03385,-2.066047 1.03384,2.066047 h 1.03384 l 1.03385,-1.033024 1.03384,1.033024 1.03384,-2.066047 1.03385,2.066047 h 1.03384 l 1.03385,-2.066047 2.06768,2.066047 h 2.06769 l 1.03385,-1.033024 1.03384,1.033024 h 1.03384 l 1.03385,-1.033024 1.03384,1.033024 h 3.10153 l 1.03385,-1.033024 1.03384,1.033024 1.03384,-1.033024 1.03385,1.033024 h 1.03384 l 1.03385,-1.033024 h 1.03384 l 1.03384,1.033024 h 3.10154 l 1.03384,-3.099071 1.03384,2.066047 h 1.03385 l 1.03384,1.033024 h 3.10153 l 1.03385,-1.033024 h 1.03384 l 1.03384,1.033024 h 6.20307 l 1.03384,-1.033024 1.03384,1.033024 h 7.23691 l 2.06769,-2.066047 h 1.03384 l 1.03385,-1.033024 1.03384,3.099071 1.03384,-2.066047 1.03385,2.066047 1.03384,-1.033024 h 1.03385 l 1.03384,1.033024 h 1.03384 l 1.03385,-4.132095 1.03384,-1.033023 h 1.03385 l 1.03384,-1.033024 2.06769,4.132095 1.03384,-2.066048 1.03384,3.099071 1.03385,-4.132094 3.10153,3.099071 h 2.06769 l 1.03384,-2.066048 1.03385,1.033024 1.03384,-6.198142 h 1.03384 l 1.03385,6.198142 1.03384,-2.066047 2.06769,-2.066048 h 1.03384 l 1.03385,5.165119 1.03384,-1.033024 1.03384,-3.099071 1.03385,2.066047 h 1.03384 l 1.03385,-1.033023 1.03384,3.099071 1.03384,2.066047 h 7.23691 l 1.03384,-23.759544 1.03385,6.198142 1.03384,17.561402 1.03385,-1.033024 1.03384,-3.099071 1.03384,1.033024 1.03385,2.066047 1.03384,-4.132094 1.03385,1.033023 h 1.03384 l 1.03384,3.099071 1.03385,-3.099071 h 1.03384 l 1.03385,-1.033023 1.03384,4.132094 1.03384,1.033024 h 5.16922 l 1.03385,-1.033024 1.03384,1.033024 h 1.03384 l 1.03385,-1.033024 1.03384,1.033024 h 6.20307 l 1.03384,-1.033024 1.03384,1.033024 h 5.16922 l 1.03385,-1.033024 1.03384,1.033024 h 5.16922 l 1.03384,-3.099071 1.03385,3.099071 h 2.06769 l 1.03384,-1.033024 1.03384,1.033024 1.03385,-1.033024 h 1.03384 l 1.03385,1.033024 1.03384,-1.033024 1.03384,1.033024 1.03385,-1.033024 v 0"
           clip-path="url(#p3a9d6174d2)" />
      </g>
      <g
         id="text_6">
        <!-- Q1-Graph4 -->
        <defs
           id="defs9810">
          <path
             id="DejaVuSans-81"
             d="m 39.40625,66.21875 q -10.75,0 -17.078125,-8.015625 -6.3125,-8 -6.3125,-21.828125 0,-13.765625 6.3125,-21.78125 6.328125,-8 17.078125,-8 10.734375,0 17.015625,8 6.28125,8.015625 6.28125,21.78125 0,13.828125 -6.28125,21.828125 -6.28125,8.015625 -17.015625,8.015625 z m 13.8125,-64.90625 13,-14.203125 H 54.296875 L 43.5,-1.21875 q -1.609375,-0.09375 -2.46875,-0.140625 -0.84375,-0.0625 -1.625,-0.0625 -15.375,0 -24.59375,10.28125 -9.203125,10.28125 -9.203125,27.515625 0,17.28125 9.203125,27.5625 9.21875,10.28125 24.59375,10.28125 15.328125,0 24.5,-10.28125 9.1875,-10.28125 9.1875,-27.5625 0,-12.6875 -5.109375,-21.734375 Q 62.890625,5.609375 53.21875,1.3125 Z" />
          <path
             id="DejaVuSans-45"
             d="m 4.890625,31.390625 h 26.3125 v -8 h -26.3125 z" />
          <path
             id="DejaVuSans-71"
             d="M 59.515625,10.40625 V 29.984375 H 43.40625 v 8.109375 h 25.875 V 6.78125 Q 63.578125,2.734375 56.6875,0.65625 49.8125,-1.421875 42,-1.421875 q -17.09375,0 -26.75,9.984375 -9.640625,10 -9.640625,27.8125 0,17.875 9.640625,27.859375 9.65625,9.984375 26.75,9.984375 7.125,0 13.546875,-1.765625 6.421875,-1.75 11.84375,-5.171875 v -10.5 q -5.46875,4.640625 -11.625,6.984375 -6.15625,2.34375 -12.9375,2.34375 -13.390625,0 -20.109375,-7.46875 -6.703125,-7.46875 -6.703125,-22.265625 0,-14.75 6.703125,-22.21875 6.71875,-7.46875 20.109375,-7.46875 5.21875,0 9.3125,0.90625 4.109375,0.90625 7.375,2.8125 z" />
          <path
             id="DejaVuSans-114"
             d="m 41.109375,46.296875 q -1.515625,0.875 -3.296875,1.28125 Q 36.03125,48 33.890625,48 26.265625,48 22.1875,43.046875 18.109375,38.09375 18.109375,28.8125 V 0 h -9.03125 v 54.6875 h 9.03125 v -8.5 q 2.84375,4.984375 7.375,7.390625 Q 30.03125,56 36.53125,56 q 0.921875,0 2.046875,-0.125 1.125,-0.109375 2.484375,-0.359375 z" />
          <path
             id="DejaVuSans-97"
             d="m 34.28125,27.484375 q -10.890625,0 -15.09375,-2.484375 -4.203125,-2.484375 -4.203125,-8.5 0,-4.78125 3.15625,-7.59375 3.15625,-2.796875 8.5625,-2.796875 7.484375,0 12,5.296875 4.515625,5.296875 4.515625,14.078125 v 2 z m 17.921875,3.71875 V 0 H 43.21875 v 8.296875 q -3.078125,-4.96875 -7.671875,-7.34375 -4.59375,-2.375 -11.234375,-2.375 -8.390625,0 -13.359375,4.71875 Q 6,8.015625 6,15.921875 q 0,9.21875 6.171875,13.90625 6.1875,4.6875 18.4375,4.6875 H 43.21875 v 0.890625 q 0,6.203125 -4.078125,9.59375 -4.078125,3.390625 -11.453125,3.390625 -4.6875,0 -9.140625,-1.125 -4.4375,-1.125 -8.53125,-3.375 v 8.3125 q 4.921875,1.90625 9.5625,2.84375 Q 24.21875,56 28.609375,56 q 11.875,0 17.734375,-6.15625 5.859375,-6.140625 5.859375,-18.640625 z" />
          <path
             id="DejaVuSans-112"
             d="m 18.109375,8.203125 v -29 H 9.078125 V 54.6875 h 9.03125 v -8.296875 q 2.84375,4.875 7.15625,7.234375 Q 29.59375,56 35.59375,56 q 9.96875,0 16.1875,-7.90625 6.234375,-7.90625 6.234375,-20.796875 0,-12.890625 -6.234375,-20.8125 -6.21875,-7.90625 -16.1875,-7.90625 -6,0 -10.328125,2.375 -4.3125,2.375 -7.15625,7.25 z M 48.6875,27.296875 q 0,9.90625 -4.078125,15.546875 -4.078125,5.640625 -11.203125,5.640625 -7.140625,0 -11.21875,-5.640625 -4.078125,-5.640625 -4.078125,-15.546875 0,-9.90625 4.078125,-15.546875 4.078125,-5.640625 11.21875,-5.640625 7.125,0 11.203125,5.640625 4.078125,5.640625 4.078125,15.546875 z" />
          <path
             id="DejaVuSans-104"
             d="M 54.890625,33.015625 V 0 H 45.90625 v 32.71875 q 0,7.765625 -3.03125,11.609375 -3.03125,3.859375 -9.078125,3.859375 -7.28125,0 -11.484375,-4.640625 -4.203125,-4.625 -4.203125,-12.640625 V 0 h -9.03125 v 75.984375 h 9.03125 V 46.1875 q 3.234375,4.9375 7.59375,7.375 4.375,2.4375 10.09375,2.4375 9.421875,0 14.25,-5.828125 4.84375,-5.828125 4.84375,-17.15625 z" />
        </defs>
        <g
           id="g9830"
           transform="matrix(0.1,0,0,-0.1,591.54545,288.03125)">
          <use
             height="100%"
             width="100%"
             y="0"
             x="0"
             id="use9812"
             xlink:href="#DejaVuSans-81" />
          <use
             height="100%"
             width="100%"
             y="0"
             id="use9814"
             xlink:href="#DejaVuSans-49"
             x="78.710938" />
          <use
             height="100%"
             width="100%"
             y="0"
             id="use9816"
             xlink:href="#DejaVuSans-45"
             x="142.33398" />
          <use
             height="100%"
             width="100%"
             y="0"
             id="use9818"
             xlink:href="#DejaVuSans-71"
             x="182.04297" />
          <use
             height="100%"
             width="100%"
             y="0"
             id="use9820"
             xlink:href="#DejaVuSans-114"
             x="259.5332" />
          <use
             height="100%"
             width="100%"
             y="0"
             id="use9822"
             xlink:href="#DejaVuSans-97"
             x="300.64648" />
          <use
             height="100%"
             width="100%"
             y="0"
             id="use9824"
             xlink:href="#DejaVuSans-112"
             x="361.92578" />
          <use
             height="100%"
             width="100%"
             y="0"
             id="use9826"
             xlink:href="#DejaVuSans-104"
             x="425.40234" />
          <use
             height="100%"
             width="100%"
             y="0"
             id="use9828"
             xlink:href="#DejaVuSans-52"
             x="488.78125" />
        </g>
      </g>
      <g
         id="text_7">
        <!-- Q1-Graph5 -->
        <g
           id="g9851"
           transform="matrix(0.1,0,0,-0.1,591.54545,245.5625)">
          <use
             height="100%"
             width="100%"
             y="0"
             x="0"
             id="use9833"
             xlink:href="#DejaVuSans-81" />
          <use
             height="100%"
             width="100%"
             y="0"
             id="use9835"
             xlink:href="#DejaVuSans-49"
             x="78.710938" />
          <use
             height="100%"
             width="100%"
             y="0"
             id="use9837"
             xlink:href="#DejaVuSans-45"
             x="142.33398" />
          <use
             height="100%"
             width="100%"
             y="0"
             id="use9839"
             xlink:href="#DejaVuSans-71"
             x="182.04297" />
          <use
             height="100%"
             width="100%"
             y="0"
             id="use9841"
             xlink:href="#DejaVuSans-114"
             x="259.5332" />
          <use
             height="100%"
             width="100%"
             y="0"
             id="use9843"
             xlink:href="#DejaVuSans-97"
             x="300.64648" />
          <use
             height="100%"
             width="100%"
             y="0"
             id="use9845"
             xlink:href="#DejaVuSans-112"
             x="361.92578" />
          <use
             height="100%"
             width="100%"
             y="0"
             id="use9847"
             xlink:href="#DejaVuSans-104"
             x="425.40234" />
          <use
             height="100%"
             width="100%"
             y="0"
             id="use9849"
             xlink:href="#DejaVuSans-53"
             x="488.78125" />
        </g>
      </g>
      <g
         id="text_8">
        <!-- Q1-Graph3 -->
        <defs
           id="defs9855">
          <path
             id="DejaVuSans-51"
             d="M 40.578125,39.3125 Q 47.65625,37.796875 51.625,33 q 3.984375,-4.78125 3.984375,-11.8125 0,-10.78125 -7.421875,-16.703125 -7.421875,-5.90625 -21.09375,-5.90625 -4.578125,0 -9.4375,0.90625 -4.859375,0.90625 -10.03125,2.71875 v 9.515625 q 4.09375,-2.390625 8.96875,-3.609375 4.890625,-1.21875 10.21875,-1.21875 9.265625,0 14.125,3.65625 4.859375,3.65625 4.859375,10.640625 0,6.453125 -4.515625,10.078125 -4.515625,3.640625 -12.5625,3.640625 h -8.5 v 8.109375 h 8.890625 q 7.265625,0 11.125,2.90625 3.859375,2.90625 3.859375,8.375 0,5.609375 -3.984375,8.609375 -3.96875,3.015625 -11.390625,3.015625 -4.0625,0 -8.703125,-0.890625 Q 15.375,64.15625 9.8125,62.3125 v 8.78125 q 5.625,1.5625 10.53125,2.34375 4.90625,0.78125 9.25,0.78125 11.234375,0 17.765625,-5.109375 6.546875,-5.09375 6.546875,-13.78125 0,-6.0625 -3.46875,-10.234375 -3.46875,-4.171875 -9.859375,-5.78125 z" />
        </defs>
        <g
           id="g9875"
           transform="matrix(0.1,0,0,-0.1,591.54545,203.09375)">
          <use
             height="100%"
             width="100%"
             y="0"
             x="0"
             id="use9857"
             xlink:href="#DejaVuSans-81" />
          <use
             height="100%"
             width="100%"
             y="0"
             id="use9859"
             xlink:href="#DejaVuSans-49"
             x="78.710938" />
          <use
             height="100%"
             width="100%"
             y="0"
             id="use9861"
             xlink:href="#DejaVuSans-45"
             x="142.33398" />
          <use
             height="100%"
             width="100%"
             y="0"
             id="use9863"
             xlink:href="#DejaVuSans-71"
             x="182.04297" />
          <use
             height="100%"
             width="100%"
             y="0"
             id="use9865"
             xlink:href="#DejaVuSans-114"
             x="259.5332" />
          <use
             height="100%"
             width="100%"
             y="0"
             id="use9867"
             xlink:href="#DejaVuSans-97"
             x="300.64648" />
          <use
             height="100%"
             width="100%"
             y="0"
             id="use9869"
             xlink:href="#DejaVuSans-112"
             x="361.92578" />
          <use
             height="100%"
             width="100%"
             y="0"
             id="use9871"
             xlink:href="#DejaVuSans-104"
             x="425.40234" />
          <use
             height="100%"
             width="100%"
             y="0"
             id="use9873"
             xlink:href="#DejaVuSans-51"
             x="488.78125" />
        </g>
      </g>
      <g
         id="text_9">
        <!-- Q1-Graph1 -->
        <g
           id="g9896"
           transform="matrix(0.1,0,0,-0.1,591.54545,160.625)">
          <use
             height="100%"
             width="100%"
             y="0"
             x="0"
             id="use9878"
             xlink:href="#DejaVuSans-81" />
          <use
             height="100%"
             width="100%"
             y="0"
             id="use9880"
             xlink:href="#DejaVuSans-49"
             x="78.710938" />
          <use
             height="100%"
             width="100%"
             y="0"
             id="use9882"
             xlink:href="#DejaVuSans-45"
             x="142.33398" />
          <use
             height="100%"
             width="100%"
             y="0"
             id="use9884"
             xlink:href="#DejaVuSans-71"
             x="182.04297" />
          <use
             height="100%"
             width="100%"
             y="0"
             id="use9886"
             xlink:href="#DejaVuSans-114"
             x="259.5332" />
          <use
             height="100%"
             width="100%"
             y="0"
             id="use9888"
             xlink:href="#DejaVuSans-97"
             x="300.64648" />
          <use
             height="100%"
             width="100%"
             y="0"
             id="use9890"
             xlink:href="#DejaVuSans-112"
             x="361.92578" />
          <use
             height="100%"
             width="100%"
             y="0"
             id="use9892"
             xlink:href="#DejaVuSans-104"
             x="425.40234" />
          <use
             height="100%"
             width="100%"
             y="0"
             id="use9894"
             xlink:href="#DejaVuSans-49"
             x="488.78125" />
        </g>
      </g>
      <g
         id="text_10">
        <!-- Q1-Graph2 -->
        <g
           id="g9917"
           transform="matrix(0.1,0,0,-0.1,591.54545,118.15625)">
          <use
             height="100%"
             width="100%"
             y="0"
             x="0"
             id="use9899"
             xlink:href="#DejaVuSans-81" />
          <use
             height="100%"
             width="100%"
             y="0"
             id="use9901"
             xlink:href="#DejaVuSans-49"
             x="78.710938" />
          <use
             height="100%"
             width="100%"
             y="0"
             id="use9903"
             xlink:href="#DejaVuSans-45"
             x="142.33398" />
          <use
             height="100%"
             width="100%"
             y="0"
             id="use9905"
             xlink:href="#DejaVuSans-71"
             x="182.04297" />
          <use
             height="100%"
             width="100%"
             y="0"
             id="use9907"
             xlink:href="#DejaVuSans-114"
             x="259.5332" />
          <use
             height="100%"
             width="100%"
             y="0"
             id="use9909"
             xlink:href="#DejaVuSans-97"
             x="300.64648" />
          <use
             height="100%"
             width="100%"
             y="0"
             id="use9911"
             xlink:href="#DejaVuSans-112"
             x="361.92578" />
          <use
             height="100%"
             width="100%"
             y="0"
             id="use9913"
             xlink:href="#DejaVuSans-104"
             x="425.40234" />
          <use
             height="100%"
             width="100%"
             y="0"
             id="use9915"
             xlink:href="#DejaVuSans-50"
             x="488.78125" />
        </g>
      </g>
      <g
         id="text_11">
        <!-- CGCS-Template -->
        <defs
           id="defs9927">
          <path
             id="DejaVuSans-67"
             d="M 64.40625,67.28125 V 56.890625 q -4.984375,4.640625 -10.625,6.921875 -5.640625,2.296875 -11.984375,2.296875 -12.5,0 -19.140625,-7.640625 -6.640625,-7.640625 -6.640625,-22.09375 0,-14.40625 6.640625,-22.046875 Q 29.296875,6.6875 41.796875,6.6875 q 6.34375,0 11.984375,2.296875 5.640625,2.296875 10.625,6.9375 V 5.609375 Q 59.234375,2.09375 53.4375,0.328125 q -5.78125,-1.75 -12.21875,-1.75 -16.5625,0 -26.09375,10.125 Q 5.609375,18.84375 5.609375,36.375 q 0,17.578125 9.515625,27.703125 9.53125,10.140625 26.09375,10.140625 6.53125,0 12.3125,-1.734375 5.796875,-1.734375 10.875,-5.203125 z" />
          <path
             id="DejaVuSans-83"
             d="m 53.515625,70.515625 v -9.625 q -5.609375,2.6875 -10.59375,4 -4.984375,1.328125 -9.625,1.328125 -8.046875,0 -12.421875,-3.125 -4.375,-3.125 -4.375,-8.890625 0,-4.84375 2.90625,-7.3125 2.90625,-2.453125 11.015625,-3.96875 L 36.375,41.703125 Q 47.40625,39.59375 52.65625,34.296875 57.90625,29 57.90625,20.125 q 0,-10.609375 -7.109375,-16.078125 -7.09375,-5.46875 -20.8125,-5.46875 -5.171875,0 -11.015625,1.171875 Q 13.140625,0.921875 6.890625,3.21875 V 13.375 q 6,-3.359375 11.765625,-5.078125 5.765625,-1.703125 11.328125,-1.703125 8.4375,0 13.03125,3.3125 4.59375,3.328125 4.59375,9.484375 0,5.359375 -3.296875,8.390625 Q 41.015625,30.8125 33.5,32.328125 L 27.484375,33.5 q -11.03125,2.1875 -15.96875,6.875 -4.921875,4.6875 -4.921875,13.046875 0,9.671875 6.8125,15.234375 6.8125,5.5625 18.765625,5.5625 5.140625,0 10.453125,-0.9375 5.328125,-0.921875 10.890625,-2.765625 z" />
          <path
             id="DejaVuSans-84"
             d="M -0.296875,72.90625 H 61.375 v -8.3125 H 35.5 V 0 H 25.59375 V 64.59375 H -0.296875 Z" />
          <path
             id="DejaVuSans-101"
             d="m 56.203125,29.59375 v -4.390625 h -41.3125 q 0.59375,-9.28125 5.59375,-14.140625 5,-4.859375 13.9375,-4.859375 5.171875,0 10.03125,1.265625 4.859375,1.265625 9.65625,3.8125 v -8.5 q -4.84375,-2.046875 -9.921875,-3.125 -5.078125,-1.078125 -10.296875,-1.078125 -13.09375,0 -20.734375,7.609375 -7.640625,7.625 -7.640625,20.625 0,13.421875 7.25,21.296875 Q 20.015625,56 32.328125,56 q 11.03125,0 17.453125,-7.109375 6.421875,-7.09375 6.421875,-19.296875 z m -8.984375,2.640625 q -0.09375,7.359375 -4.125,11.75 -4.03125,4.40625 -10.671875,4.40625 -7.515625,0 -12.03125,-4.25 -4.515625,-4.25 -5.203125,-11.96875 z" />
          <path
             id="DejaVuSans-109"
             d="M 52,44.1875 Q 55.375,50.25 60.0625,53.125 64.75,56 71.09375,56 q 8.546875,0 13.1875,-5.984375 4.640625,-5.96875 4.640625,-17 V 0 h -9.03125 v 32.71875 q 0,7.859375 -2.796875,11.65625 -2.78125,3.8125 -8.484375,3.8125 -6.984375,0 -11.046875,-4.640625 -4.046875,-4.625 -4.046875,-12.640625 V 0 h -9.03125 v 32.71875 q 0,7.90625 -2.78125,11.6875 -2.78125,3.78125 -8.59375,3.78125 -6.890625,0 -10.953125,-4.65625 -4.046875,-4.65625 -4.046875,-12.625 V 0 h -9.03125 v 54.6875 h 9.03125 v -8.5 q 3.078125,5.03125 7.375,7.421875 Q 29.78125,56 35.6875,56 41.65625,56 45.828125,52.96875 50,49.953125 52,44.1875 Z" />
          <path
             id="DejaVuSans-108"
             d="M 9.421875,75.984375 H 18.40625 V 0 H 9.421875 Z" />
          <path
             id="DejaVuSans-116"
             d="M 18.3125,70.21875 V 54.6875 h 18.5 v -6.984375 h -18.5 v -29.6875 q 0,-6.6875 1.828125,-8.59375 1.828125,-1.90625 7.453125,-1.90625 H 36.8125 V 0 H 27.59375 Q 17.1875,0 13.234375,3.875 9.28125,7.765625 9.28125,18.015625 v 29.6875 H 2.6875 V 54.6875 h 6.59375 v 15.53125 z" />
        </defs>
        <g
           id="g9955"
           transform="matrix(0.1,0,0,-0.1,591.54545,75.6875)">
          <use
             height="100%"
             width="100%"
             y="0"
             x="0"
             id="use9929"
             xlink:href="#DejaVuSans-67" />
          <use
             height="100%"
             width="100%"
             y="0"
             id="use9931"
             xlink:href="#DejaVuSans-71"
             x="69.824219" />
          <use
             height="100%"
             width="100%"
             y="0"
             id="use9933"
             xlink:href="#DejaVuSans-67"
             x="147.31445" />
          <use
             height="100%"
             width="100%"
             y="0"
             id="use9935"
             xlink:href="#DejaVuSans-83"
             x="217.13867" />
          <use
             height="100%"
             width="100%"
             y="0"
             id="use9937"
             xlink:href="#DejaVuSans-45"
             x="280.61523" />
          <use
             height="100%"
             width="100%"
             y="0"
             id="use9939"
             xlink:href="#DejaVuSans-84"
             x="307.57422" />
          <use
             height="100%"
             width="100%"
             y="0"
             id="use9941"
             xlink:href="#DejaVuSans-101"
             x="351.6582" />
          <use
             height="100%"
             width="100%"
             y="0"
             id="use9943"
             xlink:href="#DejaVuSans-109"
             x="413.18164" />
          <use
             height="100%"
             width="100%"
             y="0"
             id="use9945"
             xlink:href="#DejaVuSans-112"
             x="510.59375" />
          <use
             height="100%"
             width="100%"
             y="0"
             id="use9947"
             xlink:href="#DejaVuSans-108"
             x="574.07031" />
          <use
             height="100%"
             width="100%"
             y="0"
             id="use9949"
             xlink:href="#DejaVuSans-97"
             x="601.85352" />
          <use
             height="100%"
             width="100%"
             y="0"
             id="use9951"
             xlink:href="#DejaVuSans-116"
             x="663.13281" />
          <use
             height="100%"
             width="100%"
             y="0"
             id="use9953"
             xlink:href="#DejaVuSans-101"
             x="702.3418" />
        </g>
      </g>
    </g>
  </g>
  <defs
     id="defs9966">
    <clipPath
       id="pb7af4bcf76">
      <rect
         id="rect9960"
         y="43.200001"
         x="135"
         width="380.45456"
         height="271.79999" />
    </clipPath>
    <clipPath
       id="p3a9d6174d2">
      <rect
         id="rect9963"
         y="43.200001"
         x="591.54547"
         width="380.45456"
         height="271.79999" />
    </clipPath>
  </defs>
</svg>
