<svg width="300" height="300" viewBox="-150,-150,300,300"><text x="-150" y="-130" font-family="sans-serif" font-size="12px" text-anchor="start">CGCS-Template</text><g stroke="#999" stroke-opacity="0.6"><line stroke-width="1" x1="-32.93456303913859" y1="77.52097049227753" x2="-22.144352101500512" y2="106.92472901267703"></line><line stroke-width="1" x1="-111.26599718981291" y1="50.37532223334859" x2="-92.84614490654171" y2="69.95092096581891"></line><line stroke-width="2.23606797749979" x1="-111.26599718981291" y1="50.37532223334859" x2="-88.1116209872109" y2="48.00652661277642"></line><line stroke-width="2" x1="-111.26599718981291" y1="50.37532223334859" x2="-62.679918789650785" y2="36.95141527556364"></line><line stroke-width="2.6457513110645907" x1="-111.26599718981291" y1="50.37532223334859" x2="-92.84614490654171" y2="69.95092096581891"></line><line stroke-width="2.6457513110645907" x1="-111.26599718981291" y1="50.37532223334859" x2="-88.1116209872109" y2="48.00652661277642"></line><line stroke-width="2.23606797749979" x1="-111.26599718981291" y1="50.37532223334859" x2="-62.679918789650785" y2="36.95141527556364"></line><line stroke-width="1.4142135623730951" x1="-111.26599718981291" y1="50.37532223334859" x2="-85.24377222461347" y2="9.513162065210537"></line><line stroke-width="1" x1="-111.26599718981291" y1="50.37532223334859" x2="-101.31009115177591" y2="34.47713738016072"></line><line stroke-width="1.4142135623730951" x1="-111.26599718981291" y1="50.37532223334859" x2="-101.88282149531362" y2="-7.179575846592233"></line><line stroke-width="1.4142135623730951" x1="-111.26599718981291" y1="50.37532223334859" x2="-82.63634721598082" y2="24.85648138890821"></line><line stroke-width="1" x1="-111.26599718981291" y1="50.37532223334859" x2="-76.39270867106845" y2="60.33704561345409"></line><line stroke-width="1.4142135623730951" x1="-111.26599718981291" y1="50.37532223334859" x2="-120.58286791133474" y2="27.467355957944175"></line><line stroke-width="2" x1="-92.84614490654171" y1="69.95092096581891" x2="-111.26599718981291" y2="50.37532223334859"></line><line stroke-width="2.6457513110645907" x1="-92.84614490654171" y1="69.95092096581891" x2="-88.1116209872109" y2="48.00652661277642"></line><line stroke-width="1.4142135623730951" x1="-92.84614490654171" y1="69.95092096581891" x2="-62.679918789650785" y2="36.95141527556364"></line><line stroke-width="1" x1="-92.84614490654171" y1="69.95092096581891" x2="-120.58286791133474" y2="27.467355957944175"></line><line stroke-width="2.6457513110645907" x1="-92.84614490654171" y1="69.95092096581891" x2="-111.26599718981291" y2="50.37532223334859"></line><line stroke-width="2.449489742783178" x1="-92.84614490654171" y1="69.95092096581891" x2="-88.1116209872109" y2="48.00652661277642"></line><line stroke-width="2" x1="-92.84614490654171" y1="69.95092096581891" x2="-62.679918789650785" y2="36.95141527556364"></line><line stroke-width="1" x1="-92.84614490654171" y1="69.95092096581891" x2="-85.24377222461347" y2="9.513162065210537"></line><line stroke-width="1" x1="-92.84614490654171" y1="69.95092096581891" x2="-101.31009115177591" y2="34.47713738016072"></line><line stroke-width="1" x1="-92.84614490654171" y1="69.95092096581891" x2="-82.63634721598082" y2="24.85648138890821"></line><line stroke-width="1" x1="-92.84614490654171" y1="69.95092096581891" x2="-120.58286791133474" y2="27.467355957944175"></line><line stroke-width="1.4142135623730951" x1="-92.84614490654171" y1="69.95092096581891" x2="-109.60789764493727" y2="12.12705341585108"></line><line stroke-width="2.23606797749979" x1="-88.1116209872109" y1="48.00652661277642" x2="-111.26599718981291" y2="50.37532223334859"></line><line stroke-width="2.449489742783178" x1="-88.1116209872109" y1="48.00652661277642" x2="-92.84614490654171" y2="69.95092096581891"></line><line stroke-width="2.6457513110645907" x1="-88.1116209872109" y1="48.00652661277642" x2="-62.679918789650785" y2="36.95141527556364"></line><line stroke-width="1" x1="-88.1116209872109" y1="48.00652661277642" x2="-85.24377222461347" y2="9.513162065210537"></line><line stroke-width="2" x1="-88.1116209872109" y1="48.00652661277642" x2="-101.31009115177591" y2="34.47713738016072"></line><line stroke-width="1" x1="-88.1116209872109" y1="48.00652661277642" x2="-101.88282149531362" y2="-7.179575846592233"></line><line stroke-width="1" x1="-88.1116209872109" y1="48.00652661277642" x2="-82.63634721598082" y2="24.85648138890821"></line><line stroke-width="1" x1="-88.1116209872109" y1="48.00652661277642" x2="-120.58286791133474" y2="27.467355957944175"></line><line stroke-width="2" x1="-88.1116209872109" y1="48.00652661277642" x2="-109.60789764493727" y2="12.12705341585108"></line><line stroke-width="2.23606797749979" x1="-88.1116209872109" y1="48.00652661277642" x2="-111.26599718981291" y2="50.37532223334859"></line><line stroke-width="1.7320508075688772" x1="-88.1116209872109" y1="48.00652661277642" x2="-92.84614490654171" y2="69.95092096581891"></line><line stroke-width="1.4142135623730951" x1="-88.1116209872109" y1="48.00652661277642" x2="-62.679918789650785" y2="36.95141527556364"></line><line stroke-width="3" x1="-53.53250277118908" y1="7.734373668117952" x2="-77.67340981122824" y2="-13.135245552468216"></line><line stroke-width="1" x1="-53.53250277118908" y1="7.734373668117952" x2="-30.625746979070165" y2="45.57024101179624"></line><line stroke-width="3" x1="-53.53250277118908" y1="7.734373668117952" x2="-101.88282149531362" y2="-7.179575846592233"></line><line stroke-width="2.23606797749979" x1="-53.53250277118908" y1="7.734373668117952" x2="-55.79249499928874" y2="-26.178779093603424"></line><line stroke-width="3.872983346207417" x1="-53.53250277118908" y1="7.734373668117952" x2="-77.43112805326261" y2="-31.410997825921847"></line><line stroke-width="1" x1="-53.53250277118908" y1="7.734373668117952" x2="-7.713894987951614" y2="8.4621355892107"></line><line stroke-width="1" x1="-53.53250277118908" y1="7.734373668117952" x2="-14.49161045756312" y2="-15.15611239908061"></line><line stroke-width="1" x1="-53.53250277118908" y1="7.734373668117952" x2="-27.228184837567465" y2="-5.811131927181294"></line><line stroke-width="1" x1="-53.53250277118908" y1="7.734373668117952" x2="-20.934818563448562" y2="24.685533677928444"></line><line stroke-width="2" x1="-30.625746979070165" y1="45.57024101179624" x2="-32.93456303913859" y2="77.52097049227753"></line><line stroke-width="2" x1="-30.625746979070165" y1="45.57024101179624" x2="-53.53250277118908" y2="7.734373668117952"></line><line stroke-width="1.4142135623730951" x1="-30.625746979070165" y1="45.57024101179624" x2="-62.679918789650785" y2="36.95141527556364"></line><line stroke-width="1.4142135623730951" x1="-30.625746979070165" y1="45.57024101179624" x2="-50.911249420934006" y2="64.95887557368165"></line><line stroke-width="1.7320508075688772" x1="-30.625746979070165" y1="45.57024101179624" x2="-32.93456303913859" y2="77.52097049227753"></line><line stroke-width="1.7320508075688772" x1="-30.625746979070165" y1="45.57024101179624" x2="-53.53250277118908" y2="7.734373668117952"></line><line stroke-width="1.4142135623730951" x1="-30.625746979070165" y1="45.57024101179624" x2="-62.679918789650785" y2="36.95141527556364"></line><line stroke-width="1.7320508075688772" x1="-30.625746979070165" y1="45.57024101179624" x2="-50.911249420934006" y2="64.95887557368165"></line><line stroke-width="1" x1="-30.625746979070165" y1="45.57024101179624" x2="-7.713894987951614" y2="8.4621355892107"></line><line stroke-width="1" x1="-30.625746979070165" y1="45.57024101179624" x2="-14.49161045756312" y2="-15.15611239908061"></line><line stroke-width="1" x1="-30.625746979070165" y1="45.57024101179624" x2="-27.228184837567465" y2="-5.811131927181294"></line><line stroke-width="1" x1="-30.625746979070165" y1="45.57024101179624" x2="-20.934818563448562" y2="24.685533677928444"></line><line stroke-width="1.7320508075688772" x1="-62.679918789650785" y1="36.95141527556364" x2="-32.93456303913859" y2="77.52097049227753"></line><line stroke-width="1.4142135623730951" x1="-62.679918789650785" y1="36.95141527556364" x2="-111.26599718981291" y2="50.37532223334859"></line><line stroke-width="2.23606797749979" x1="-62.679918789650785" y1="36.95141527556364" x2="-92.84614490654171" y2="69.95092096581891"></line><line stroke-width="1.7320508075688772" x1="-62.679918789650785" y1="36.95141527556364" x2="-88.1116209872109" y2="48.00652661277642"></line><line stroke-width="2.449489742783178" x1="-62.679918789650785" y1="36.95141527556364" x2="-53.53250277118908" y2="7.734373668117952"></line><line stroke-width="1" x1="-62.679918789650785" y1="36.95141527556364" x2="-30.625746979070165" y2="45.57024101179624"></line><line stroke-width="1.7320508075688772" x1="-62.679918789650785" y1="36.95141527556364" x2="-85.24377222461347" y2="9.513162065210537"></line><line stroke-width="1.4142135623730951" x1="-62.679918789650785" y1="36.95141527556364" x2="-101.31009115177591" y2="34.47713738016072"></line><line stroke-width="2.23606797749979" x1="-62.679918789650785" y1="36.95141527556364" x2="-82.63634721598082" y2="24.85648138890821"></line><line stroke-width="1.7320508075688772" x1="-62.679918789650785" y1="36.95141527556364" x2="-76.39270867106845" y2="60.33704561345409"></line><line stroke-width="2" x1="-62.679918789650785" y1="36.95141527556364" x2="-109.60789764493727" y2="12.12705341585108"></line><line stroke-width="2.23606797749979" x1="-62.679918789650785" y1="36.95141527556364" x2="-50.911249420934006" y2="64.95887557368165"></line><line stroke-width="1.7320508075688772" x1="-62.679918789650785" y1="36.95141527556364" x2="-32.93456303913859" y2="77.52097049227753"></line><line stroke-width="2.23606797749979" x1="-62.679918789650785" y1="36.95141527556364" x2="-111.26599718981291" y2="50.37532223334859"></line><line stroke-width="2.449489742783178" x1="-62.679918789650785" y1="36.95141527556364" x2="-92.84614490654171" y2="69.95092096581891"></line><line stroke-width="2.449489742783178" x1="-62.679918789650785" y1="36.95141527556364" x2="-88.1116209872109" y2="48.00652661277642"></line><line stroke-width="1.7320508075688772" x1="-62.679918789650785" y1="36.95141527556364" x2="-53.53250277118908" y2="7.734373668117952"></line><line stroke-width="1.4142135623730951" x1="-62.679918789650785" y1="36.95141527556364" x2="-30.625746979070165" y2="45.57024101179624"></line><line stroke-width="1.7320508075688772" x1="-62.679918789650785" y1="36.95141527556364" x2="-85.24377222461347" y2="9.513162065210537"></line><line stroke-width="2.23606797749979" x1="-62.679918789650785" y1="36.95141527556364" x2="-101.31009115177591" y2="34.47713738016072"></line><line stroke-width="2.449489742783178" x1="-62.679918789650785" y1="36.95141527556364" x2="-101.88282149531362" y2="-7.179575846592233"></line><line stroke-width="2.6457513110645907" x1="-62.679918789650785" y1="36.95141527556364" x2="-82.63634721598082" y2="24.85648138890821"></line><line stroke-width="2.6457513110645907" x1="-62.679918789650785" y1="36.95141527556364" x2="-76.39270867106845" y2="60.33704561345409"></line><line stroke-width="3" x1="-62.679918789650785" y1="36.95141527556364" x2="-120.58286791133474" y2="27.467355957944175"></line><line stroke-width="2.8284271247461903" x1="-62.679918789650785" y1="36.95141527556364" x2="-109.60789764493727" y2="12.12705341585108"></line><line stroke-width="2.23606797749979" x1="-62.679918789650785" y1="36.95141527556364" x2="-50.911249420934006" y2="64.95887557368165"></line><line stroke-width="1" x1="-62.679918789650785" y1="36.95141527556364" x2="-7.713894987951614" y2="8.4621355892107"></line><line stroke-width="1" x1="-62.679918789650785" y1="36.95141527556364" x2="-14.49161045756312" y2="-15.15611239908061"></line><line stroke-width="1" x1="-62.679918789650785" y1="36.95141527556364" x2="-27.228184837567465" y2="-5.811131927181294"></line><line stroke-width="1" x1="-62.679918789650785" y1="36.95141527556364" x2="-20.934818563448562" y2="24.685533677928444"></line><line stroke-width="1.7320508075688772" x1="-85.24377222461347" y1="9.513162065210537" x2="-62.679918789650785" y2="36.95141527556364"></line><line stroke-width="2" x1="-85.24377222461347" y1="9.513162065210537" x2="-101.31009115177591" y2="34.47713738016072"></line><line stroke-width="2" x1="-85.24377222461347" y1="9.513162065210537" x2="-101.88282149531362" y2="-7.179575846592233"></line><line stroke-width="1" x1="-85.24377222461347" y1="9.513162065210537" x2="-120.58286791133474" y2="27.467355957944175"></line><line stroke-width="2" x1="-85.24377222461347" y1="9.513162065210537" x2="-109.60789764493727" y2="12.12705341585108"></line><line stroke-width="1" x1="-85.24377222461347" y1="9.513162065210537" x2="-111.26599718981291" y2="50.37532223334859"></line><line stroke-width="1" x1="-85.24377222461347" y1="9.513162065210537" x2="-88.1116209872109" y2="48.00652661277642"></line><line stroke-width="1" x1="-85.24377222461347" y1="9.513162065210537" x2="-62.679918789650785" y2="36.95141527556364"></line><line stroke-width="2.23606797749979" x1="-85.24377222461347" y1="9.513162065210537" x2="-101.31009115177591" y2="34.47713738016072"></line><line stroke-width="1" x1="-85.24377222461347" y1="9.513162065210537" x2="-101.88282149531362" y2="-7.179575846592233"></line><line stroke-width="1" x1="-85.24377222461347" y1="9.513162065210537" x2="-120.58286791133474" y2="27.467355957944175"></line><line stroke-width="1" x1="-101.31009115177591" y1="34.47713738016072" x2="-62.679918789650785" y2="36.95141527556364"></line><line stroke-width="1.7320508075688772" x1="-101.31009115177591" y1="34.47713738016072" x2="-85.24377222461347" y2="9.513162065210537"></line><line stroke-width="2" x1="-101.31009115177591" y1="34.47713738016072" x2="-101.88282149531362" y2="-7.179575846592233"></line><line stroke-width="1" x1="-101.31009115177591" y1="34.47713738016072" x2="-82.63634721598082" y2="24.85648138890821"></line><line stroke-width="1.7320508075688772" x1="-101.31009115177591" y1="34.47713738016072" x2="-120.58286791133474" y2="27.467355957944175"></line><line stroke-width="1.7320508075688772" x1="-101.31009115177591" y1="34.47713738016072" x2="-109.60789764493727" y2="12.12705341585108"></line><line stroke-width="4.123105625617661" x1="-101.88282149531362" y1="-7.179575846592233" x2="-53.53250277118908" y2="7.734373668117952"></line><line stroke-width="1.4142135623730951" x1="-101.88282149531362" y1="-7.179575846592233" x2="-62.679918789650785" y2="36.95141527556364"></line><line stroke-width="1" x1="-101.88282149531362" y1="-7.179575846592233" x2="-85.24377222461347" y2="9.513162065210537"></line><line stroke-width="1" x1="-101.88282149531362" y1="-7.179575846592233" x2="-101.31009115177591" y2="34.47713738016072"></line><line stroke-width="1" x1="-101.88282149531362" y1="-7.179575846592233" x2="-82.63634721598082" y2="24.85648138890821"></line><line stroke-width="2.449489742783178" x1="-101.88282149531362" y1="-7.179575846592233" x2="-120.58286791133474" y2="27.467355957944175"></line><line stroke-width="2.23606797749979" x1="-101.88282149531362" y1="-7.179575846592233" x2="-109.60789764493727" y2="12.12705341585108"></line><line stroke-width="2.23606797749979" x1="-101.88282149531362" y1="-7.179575846592233" x2="-77.43112805326261" y2="-31.410997825921847"></line><line stroke-width="1.4142135623730951" x1="-101.88282149531362" y1="-7.179575846592233" x2="-111.26599718981291" y2="50.37532223334859"></line><line stroke-width="1.4142135623730951" x1="-101.88282149531362" y1="-7.179575846592233" x2="-101.31009115177591" y2="34.47713738016072"></line><line stroke-width="1" x1="-101.88282149531362" y1="-7.179575846592233" x2="-82.63634721598082" y2="24.85648138890821"></line><line stroke-width="1.4142135623730951" x1="-101.88282149531362" y1="-7.179575846592233" x2="-76.39270867106845" y2="60.33704561345409"></line><line stroke-width="1" x1="-101.88282149531362" y1="-7.179575846592233" x2="-120.58286791133474" y2="27.467355957944175"></line><line stroke-width="1" x1="-101.88282149531362" y1="-7.179575846592233" x2="-109.60789764493727" y2="12.12705341585108"></line><line stroke-width="1" x1="-82.63634721598082" y1="24.85648138890821" x2="-92.84614490654171" y2="69.95092096581891"></line><line stroke-width="1" x1="-82.63634721598082" y1="24.85648138890821" x2="-88.1116209872109" y2="48.00652661277642"></line><line stroke-width="2.6457513110645907" x1="-82.63634721598082" y1="24.85648138890821" x2="-62.679918789650785" y2="36.95141527556364"></line><line stroke-width="1" x1="-82.63634721598082" y1="24.85648138890821" x2="-101.88282149531362" y2="-7.179575846592233"></line><line stroke-width="3.1622776601683795" x1="-82.63634721598082" y1="24.85648138890821" x2="-76.39270867106845" y2="60.33704561345409"></line><line stroke-width="1" x1="-82.63634721598082" y1="24.85648138890821" x2="-120.58286791133474" y2="27.467355957944175"></line><line stroke-width="1.7320508075688772" x1="-82.63634721598082" y1="24.85648138890821" x2="-92.84614490654171" y2="69.95092096581891"></line><line stroke-width="1" x1="-82.63634721598082" y1="24.85648138890821" x2="-88.1116209872109" y2="48.00652661277642"></line><line stroke-width="1.4142135623730951" x1="-82.63634721598082" y1="24.85648138890821" x2="-62.679918789650785" y2="36.95141527556364"></line><line stroke-width="1.7320508075688772" x1="-82.63634721598082" y1="24.85648138890821" x2="-85.24377222461347" y2="9.513162065210537"></line><line stroke-width="1.4142135623730951" x1="-82.63634721598082" y1="24.85648138890821" x2="-101.31009115177591" y2="34.47713738016072"></line><line stroke-width="1" x1="-82.63634721598082" y1="24.85648138890821" x2="-101.88282149531362" y2="-7.179575846592233"></line><line stroke-width="1" x1="-82.63634721598082" y1="24.85648138890821" x2="-120.58286791133474" y2="27.467355957944175"></line><line stroke-width="1.4142135623730951" x1="-82.63634721598082" y1="24.85648138890821" x2="-109.60789764493727" y2="12.12705341585108"></line><line stroke-width="1.4142135623730951" x1="-76.39270867106845" y1="60.33704561345409" x2="-111.26599718981291" y2="50.37532223334859"></line><line stroke-width="1.4142135623730951" x1="-76.39270867106845" y1="60.33704561345409" x2="-92.84614490654171" y2="69.95092096581891"></line><line stroke-width="1" x1="-76.39270867106845" y1="60.33704561345409" x2="-88.1116209872109" y2="48.00652661277642"></line><line stroke-width="1.4142135623730951" x1="-76.39270867106845" y1="60.33704561345409" x2="-62.679918789650785" y2="36.95141527556364"></line><line stroke-width="1.7320508075688772" x1="-76.39270867106845" y1="60.33704561345409" x2="-85.24377222461347" y2="9.513162065210537"></line><line stroke-width="1" x1="-76.39270867106845" y1="60.33704561345409" x2="-101.31009115177591" y2="34.47713738016072"></line><line stroke-width="1" x1="-76.39270867106845" y1="60.33704561345409" x2="-120.58286791133474" y2="27.467355957944175"></line><line stroke-width="1" x1="-76.39270867106845" y1="60.33704561345409" x2="-109.60789764493727" y2="12.12705341585108"></line><line stroke-width="1.7320508075688772" x1="-76.39270867106845" y1="60.33704561345409" x2="-62.679918789650785" y2="36.95141527556364"></line><line stroke-width="1.7320508075688772" x1="-76.39270867106845" y1="60.33704561345409" x2="-82.63634721598082" y2="24.85648138890821"></line><line stroke-width="1.7320508075688772" x1="-120.58286791133474" y1="27.467355957944175" x2="-111.26599718981291" y2="50.37532223334859"></line><line stroke-width="1.4142135623730951" x1="-120.58286791133474" y1="27.467355957944175" x2="-92.84614490654171" y2="69.95092096581891"></line><line stroke-width="1.4142135623730951" x1="-120.58286791133474" y1="27.467355957944175" x2="-88.1116209872109" y2="48.00652661277642"></line><line stroke-width="1.4142135623730951" x1="-120.58286791133474" y1="27.467355957944175" x2="-62.679918789650785" y2="36.95141527556364"></line><line stroke-width="1.7320508075688772" x1="-120.58286791133474" y1="27.467355957944175" x2="-85.24377222461347" y2="9.513162065210537"></line><line stroke-width="1.7320508075688772" x1="-120.58286791133474" y1="27.467355957944175" x2="-101.88282149531362" y2="-7.179575846592233"></line><line stroke-width="1.7320508075688772" x1="-120.58286791133474" y1="27.467355957944175" x2="-82.63634721598082" y2="24.85648138890821"></line><line stroke-width="2.6457513110645907" x1="-120.58286791133474" y1="27.467355957944175" x2="-109.60789764493727" y2="12.12705341585108"></line><line stroke-width="1" x1="-120.58286791133474" y1="27.467355957944175" x2="-88.1116209872109" y2="48.00652661277642"></line><line stroke-width="1.4142135623730951" x1="-120.58286791133474" y1="27.467355957944175" x2="-85.24377222461347" y2="9.513162065210537"></line><line stroke-width="1.4142135623730951" x1="-120.58286791133474" y1="27.467355957944175" x2="-101.31009115177591" y2="34.47713738016072"></line><line stroke-width="1" x1="-120.58286791133474" y1="27.467355957944175" x2="-101.88282149531362" y2="-7.179575846592233"></line><line stroke-width="1" x1="-120.58286791133474" y1="27.467355957944175" x2="-82.63634721598082" y2="24.85648138890821"></line><line stroke-width="1" x1="-109.60789764493727" y1="12.12705341585108" x2="-92.84614490654171" y2="69.95092096581891"></line><line stroke-width="3" x1="-109.60789764493727" y1="12.12705341585108" x2="-62.679918789650785" y2="36.95141527556364"></line><line stroke-width="1.4142135623730951" x1="-109.60789764493727" y1="12.12705341585108" x2="-85.24377222461347" y2="9.513162065210537"></line><line stroke-width="2.449489742783178" x1="-109.60789764493727" y1="12.12705341585108" x2="-101.31009115177591" y2="34.47713738016072"></line><line stroke-width="1.7320508075688772" x1="-109.60789764493727" y1="12.12705341585108" x2="-101.88282149531362" y2="-7.179575846592233"></line><line stroke-width="1" x1="-109.60789764493727" y1="12.12705341585108" x2="-82.63634721598082" y2="24.85648138890821"></line><line stroke-width="3.3166247903554" x1="-109.60789764493727" y1="12.12705341585108" x2="-120.58286791133474" y2="27.467355957944175"></line><line stroke-width="1.4142135623730951" x1="-109.60789764493727" y1="12.12705341585108" x2="-111.26599718981291" y2="50.37532223334859"></line><line stroke-width="1.7320508075688772" x1="-109.60789764493727" y1="12.12705341585108" x2="-88.1116209872109" y2="48.00652661277642"></line><line stroke-width="2.23606797749979" x1="-109.60789764493727" y1="12.12705341585108" x2="-62.679918789650785" y2="36.95141527556364"></line><line stroke-width="1.4142135623730951" x1="-109.60789764493727" y1="12.12705341585108" x2="-85.24377222461347" y2="9.513162065210537"></line><line stroke-width="1" x1="-109.60789764493727" y1="12.12705341585108" x2="-101.31009115177591" y2="34.47713738016072"></line><line stroke-width="1.4142135623730951" x1="-109.60789764493727" y1="12.12705341585108" x2="-101.88282149531362" y2="-7.179575846592233"></line><line stroke-width="2" x1="-109.60789764493727" y1="12.12705341585108" x2="-82.63634721598082" y2="24.85648138890821"></line><line stroke-width="2.8284271247461903" x1="-109.60789764493727" y1="12.12705341585108" x2="-120.58286791133474" y2="27.467355957944175"></line><line stroke-width="1" x1="-50.911249420934006" y1="64.95887557368165" x2="-32.93456303913859" y2="77.52097049227753"></line><line stroke-width="1" x1="-50.911249420934006" y1="64.95887557368165" x2="-53.53250277118908" y2="7.734373668117952"></line><line stroke-width="1.7320508075688772" x1="-50.911249420934006" y1="64.95887557368165" x2="-62.679918789650785" y2="36.95141527556364"></line><line stroke-width="2" x1="-50.911249420934006" y1="64.95887557368165" x2="-32.93456303913859" y2="77.52097049227753"></line><line stroke-width="1.4142135623730951" x1="-50.911249420934006" y1="64.95887557368165" x2="-53.53250277118908" y2="7.734373668117952"></line><line stroke-width="2" x1="-50.911249420934006" y1="64.95887557368165" x2="-30.625746979070165" y2="45.57024101179624"></line><line stroke-width="1.4142135623730951" x1="-50.911249420934006" y1="64.95887557368165" x2="-62.679918789650785" y2="36.95141527556364"></line><line stroke-width="4.69041575982343" x1="-77.43112805326261" y1="-31.410997825921847" x2="-53.53250277118908" y2="7.734373668117952"></line><line stroke-width="1.7320508075688772" x1="-77.43112805326261" y1="-31.410997825921847" x2="-101.88282149531362" y2="-7.179575846592233"></line><line stroke-width="3" x1="-77.43112805326261" y1="-31.410997825921847" x2="-77.67340981122824" y2="-13.135245552468216"></line><line stroke-width="1" x1="-8.910199126561652" y1="-44.5646698790651" x2="-14.49161045756312" y2="-15.15611239908061"></line><line stroke-width="1" x1="-8.910199126561652" y1="-44.5646698790651" x2="-27.228184837567465" y2="-5.811131927181294"></line><line stroke-width="1" x1="-8.910199126561652" y1="-44.5646698790651" x2="14.155514767867727" y2="-66.46623978156062"></line><line stroke-width="1" x1="-28.17999163743958" y1="-47.72775074350847" x2="-14.49161045756312" y2="-15.15611239908061"></line><line stroke-width="1" x1="-28.17999163743958" y1="-47.72775074350847" x2="-27.228184837567465" y2="-5.811131927181294"></line><line stroke-width="1" x1="-28.17999163743958" y1="-47.72775074350847" x2="14.155514767867727" y2="-66.46623978156062"></line><line stroke-width="1" x1="-18.399263188096675" y1="-52.94926048200145" x2="-14.49161045756312" y2="-15.15611239908061"></line><line stroke-width="1" x1="-18.399263188096675" y1="-52.94926048200145" x2="-27.228184837567465" y2="-5.811131927181294"></line><line stroke-width="1" x1="-18.399263188096675" y1="-52.94926048200145" x2="14.155514767867727" y2="-66.46623978156062"></line><line stroke-width="1" x1="12.937858158362152" y1="-28.19968745682769" x2="-7.713894987951614" y2="8.4621355892107"></line><line stroke-width="1" x1="12.937858158362152" y1="-28.19968745682769" x2="-14.49161045756312" y2="-15.15611239908061"></line><line stroke-width="1" x1="12.937858158362152" y1="-28.19968745682769" x2="14.155514767867727" y2="-66.46623978156062"></line><line stroke-width="1" x1="12.937858158362152" y1="-28.19968745682769" x2="52.615547054330605" y2="-8.780195463996808"></line><line stroke-width="1" x1="31.52543128605022" y1="-32.40945259381076" x2="-7.713894987951614" y2="8.4621355892107"></line><line stroke-width="1" x1="31.52543128605022" y1="-32.40945259381076" x2="-14.49161045756312" y2="-15.15611239908061"></line><line stroke-width="1" x1="31.52543128605022" y1="-32.40945259381076" x2="14.155514767867727" y2="-66.46623978156062"></line><line stroke-width="1" x1="31.52543128605022" y1="-32.40945259381076" x2="52.615547054330605" y2="-8.780195463996808"></line><line stroke-width="1" x1="25.85440441530045" y1="-20.925717348033455" x2="-7.713894987951614" y2="8.4621355892107"></line><line stroke-width="1" x1="25.85440441530045" y1="-20.925717348033455" x2="-14.49161045756312" y2="-15.15611239908061"></line><line stroke-width="1" x1="25.85440441530045" y1="-20.925717348033455" x2="14.155514767867727" y2="-66.46623978156062"></line><line stroke-width="1" x1="25.85440441530045" y1="-20.925717348033455" x2="52.615547054330605" y2="-8.780195463996808"></line><line stroke-width="1" x1="19.39487577369392" y1="-37.936833889449154" x2="-7.713894987951614" y2="8.4621355892107"></line><line stroke-width="1" x1="19.39487577369392" y1="-37.936833889449154" x2="-14.49161045756312" y2="-15.15611239908061"></line><line stroke-width="1" x1="19.39487577369392" y1="-37.936833889449154" x2="14.155514767867727" y2="-66.46623978156062"></line><line stroke-width="1" x1="19.39487577369392" y1="-37.936833889449154" x2="52.615547054330605" y2="-8.780195463996808"></line><line stroke-width="1" x1="11.462334983235674" y1="39.221761490482216" x2="-7.713894987951614" y2="8.4621355892107"></line><line stroke-width="1" x1="-3.0513027673765314" y1="43.4637462181252" x2="-7.713894987951614" y2="8.4621355892107"></line><line stroke-width="1" x1="23.752526176381114" y1="28.424237362827483" x2="-7.713894987951614" y2="8.4621355892107"></line><line stroke-width="1" x1="11.721144579953288" y1="13.467833459224137" x2="-14.49161045756312" y2="-15.15611239908061"></line><line stroke-width="1" x1="11.721144579953288" y1="13.467833459224137" x2="-27.228184837567465" y2="-5.811131927181294"></line><line stroke-width="1" x1="11.721144579953288" y1="13.467833459224137" x2="-20.934818563448562" y2="24.685533677928444"></line><line stroke-width="1" x1="11.721144579953288" y1="13.467833459224137" x2="52.615547054330605" y2="-8.780195463996808"></line><line stroke-width="1" x1="20.66676000349668" y1="5.6780533775644075" x2="-14.49161045756312" y2="-15.15611239908061"></line><line stroke-width="1" x1="20.66676000349668" y1="5.6780533775644075" x2="-27.228184837567465" y2="-5.811131927181294"></line><line stroke-width="1" x1="20.66676000349668" y1="5.6780533775644075" x2="-20.934818563448562" y2="24.685533677928444"></line><line stroke-width="1" x1="20.66676000349668" y1="5.6780533775644075" x2="52.615547054330605" y2="-8.780195463996808"></line><line stroke-width="1" x1="12.199371857009156" y1="-4.833970900997472" x2="-14.49161045756312" y2="-15.15611239908061"></line><line stroke-width="1" x1="12.199371857009156" y1="-4.833970900997472" x2="-27.228184837567465" y2="-5.811131927181294"></line><line stroke-width="1" x1="12.199371857009156" y1="-4.833970900997472" x2="-20.934818563448562" y2="24.685533677928444"></line><line stroke-width="1" x1="12.199371857009156" y1="-4.833970900997472" x2="52.615547054330605" y2="-8.780195463996808"></line></g><g stroke="#fff" stroke-width="1.5"><path d="M5.046265044040321,0A5.046265044040321,5.046265044040321,0,1,1,-5.046265044040321,0A5.046265044040321,5.046265044040321,0,1,1,5.046265044040321,0" fill="#8c564b" transform="translate(-32.93456303913859,77.52097049227753)"><title>Person 0</title></path><path d="M5.046265044040321,0A5.046265044040321,5.046265044040321,0,1,1,-5.046265044040321,0A5.046265044040321,5.046265044040321,0,1,1,5.046265044040321,0" fill="#8c564b" transform="translate(-62.679918789650785,36.95141527556364)"><title>Person 41</title></path><path d="M5.046265044040321,0A5.046265044040321,5.046265044040321,0,1,1,-5.046265044040321,0A5.046265044040321,5.046265044040321,0,1,1,5.046265044040321,0" fill="#8c564b" transform="translate(-88.1116209872109,48.00652661277642)"><title>Person 37</title></path><path d="M5.046265044040321,0A5.046265044040321,5.046265044040321,0,1,1,-5.046265044040321,0A5.046265044040321,5.046265044040321,0,1,1,5.046265044040321,0" fill="#8c564b" transform="translate(-92.84614490654171,69.95092096581891)"><title>Person 34</title></path><path d="M5.046265044040321,0A5.046265044040321,5.046265044040321,0,1,1,-5.046265044040321,0A5.046265044040321,5.046265044040321,0,1,1,5.046265044040321,0" fill="#8c564b" transform="translate(-111.26599718981291,50.37532223334859)"><title>Person 27</title></path><path d="M5.046265044040321,0A5.046265044040321,5.046265044040321,0,1,1,-5.046265044040321,0A5.046265044040321,5.046265044040321,0,1,1,5.046265044040321,0" fill="#8c564b" transform="translate(-30.625746979070165,45.57024101179624)"><title>Person 40</title></path><path d="M5.046265044040321,0A5.046265044040321,5.046265044040321,0,1,1,-5.046265044040321,0A5.046265044040321,5.046265044040321,0,1,1,5.046265044040321,0" fill="#8c564b" transform="translate(-50.911249420934006,64.95887557368165)"><title>Person 65</title></path><path d="M5.046265044040321,0A5.046265044040321,5.046265044040321,0,1,1,-5.046265044040321,0A5.046265044040321,5.046265044040321,0,1,1,5.046265044040321,0" fill="#7f7f7f" transform="translate(-77.43112805326261,-31.410997825921847)"><title>Person 67</title></path><path d="M5.046265044040321,0A5.046265044040321,5.046265044040321,0,1,1,-5.046265044040321,0A5.046265044040321,5.046265044040321,0,1,1,5.046265044040321,0" fill="#d62728" transform="translate(-101.88282149531362,-7.179575846592233)"><title>Person 47</title></path><path d="M5.046265044040321,0A5.046265044040321,5.046265044040321,0,1,1,-5.046265044040321,0A5.046265044040321,5.046265044040321,0,1,1,5.046265044040321,0" fill="#8c564b" transform="translate(-53.53250277118908,7.734373668117952)"><title>Person 39</title></path><path d="M5.046265044040321,0A5.046265044040321,5.046265044040321,0,1,1,-5.046265044040321,0A5.046265044040321,5.046265044040321,0,1,1,5.046265044040321,0" fill="#7f7f7f" transform="translate(31.52543128605022,-32.40945259381076)"><title>Person 78</title></path><path d="M5.046265044040321,0A5.046265044040321,5.046265044040321,0,1,1,-5.046265044040321,0A5.046265044040321,5.046265044040321,0,1,1,5.046265044040321,0" fill="#7f7f7f" transform="translate(19.39487577369392,-37.936833889449154)"><title>Person 80</title></path><path d="M5.046265044040321,0A5.046265044040321,5.046265044040321,0,1,1,-5.046265044040321,0A5.046265044040321,5.046265044040321,0,1,1,5.046265044040321,0" fill="#d62728" transform="translate(-85.24377222461347,9.513162065210537)"><title>Person 43</title></path><path d="M5.046265044040321,0A5.046265044040321,5.046265044040321,0,1,1,-5.046265044040321,0A5.046265044040321,5.046265044040321,0,1,1,5.046265044040321,0" fill="#1f77b4" transform="translate(-76.39270867106845,60.33704561345409)"><title>Person 57</title></path><path d="M5.046265044040321,0A5.046265044040321,5.046265044040321,0,1,1,-5.046265044040321,0A5.046265044040321,5.046265044040321,0,1,1,5.046265044040321,0" fill="#9467bd" transform="translate(-120.58286791133474,27.467355957944175)"><title>Person 58</title></path><path d="M5.046265044040321,0A5.046265044040321,5.046265044040321,0,1,1,-5.046265044040321,0A5.046265044040321,5.046265044040321,0,1,1,5.046265044040321,0" fill="#9467bd" transform="translate(-109.60789764493727,12.12705341585108)"><title>Person 63</title></path><path d="M5.046265044040321,0A5.046265044040321,5.046265044040321,0,1,1,-5.046265044040321,0A5.046265044040321,5.046265044040321,0,1,1,5.046265044040321,0" fill="#7f7f7f" transform="translate(12.937858158362152,-28.19968745682769)"><title>Person 77</title></path><path d="M5.046265044040321,0A5.046265044040321,5.046265044040321,0,1,1,-5.046265044040321,0A5.046265044040321,5.046265044040321,0,1,1,5.046265044040321,0" fill="#1f77b4" transform="translate(-82.63634721598082,24.85648138890821)"><title>Person 56</title></path><path d="M5.046265044040321,0A5.046265044040321,5.046265044040321,0,1,1,-5.046265044040321,0A5.046265044040321,5.046265044040321,0,1,1,5.046265044040321,0" fill="#7f7f7f" transform="translate(25.85440441530045,-20.925717348033455)"><title>Person 79</title></path><path d="M5.046265044040321,0A5.046265044040321,5.046265044040321,0,1,1,-5.046265044040321,0A5.046265044040321,5.046265044040321,0,1,1,5.046265044040321,0" fill="#d62728" transform="translate(-101.31009115177591,34.47713738016072)"><title>Person 45</title></path><path d="M5.046265044040321,0A5.046265044040321,5.046265044040321,0,1,1,-5.046265044040321,0A5.046265044040321,5.046265044040321,0,1,1,5.046265044040321,0" fill="#7f7f7f" transform="translate(11.462334983235674,39.221761490482216)"><title>Person 82</title></path><path d="M5.046265044040321,0A5.046265044040321,5.046265044040321,0,1,1,-5.046265044040321,0A5.046265044040321,5.046265044040321,0,1,1,5.046265044040321,0" fill="#7f7f7f" transform="translate(-3.0513027673765314,43.4637462181252)"><title>Person 83</title></path><path d="M5.046265044040321,0A5.046265044040321,5.046265044040321,0,1,1,-5.046265044040321,0A5.046265044040321,5.046265044040321,0,1,1,5.046265044040321,0" fill="#7f7f7f" transform="translate(23.752526176381114,28.424237362827483)"><title>Person 84</title></path><path d="M5.046265044040321,0A5.046265044040321,5.046265044040321,0,1,1,-5.046265044040321,0A5.046265044040321,5.046265044040321,0,1,1,5.046265044040321,0" fill="#7f7f7f" transform="translate(-8.910199126561652,-44.5646698790651)"><title>Person 73</title></path><path d="M5.046265044040321,0A5.046265044040321,5.046265044040321,0,1,1,-5.046265044040321,0A5.046265044040321,5.046265044040321,0,1,1,5.046265044040321,0" fill="#7f7f7f" transform="translate(-18.399263188096675,-52.94926048200145)"><title>Person 75</title></path><path d="M5.046265044040321,0A5.046265044040321,5.046265044040321,0,1,1,-5.046265044040321,0A5.046265044040321,5.046265044040321,0,1,1,5.046265044040321,0" fill="#7f7f7f" transform="translate(-28.17999163743958,-47.72775074350847)"><title>Person 74</title></path><path d="M5.046265044040321,0A5.046265044040321,5.046265044040321,0,1,1,-5.046265044040321,0A5.046265044040321,5.046265044040321,0,1,1,5.046265044040321,0" fill="#7f7f7f" transform="translate(12.199371857009156,-4.833970900997472)"><title>Person 87</title></path><path d="M5.046265044040321,0A5.046265044040321,5.046265044040321,0,1,1,-5.046265044040321,0A5.046265044040321,5.046265044040321,0,1,1,5.046265044040321,0" fill="#7f7f7f" transform="translate(11.721144579953288,13.467833459224137)"><title>Person 85</title></path><path d="M5.046265044040321,0A5.046265044040321,5.046265044040321,0,1,1,-5.046265044040321,0A5.046265044040321,5.046265044040321,0,1,1,5.046265044040321,0" fill="#7f7f7f" transform="translate(20.66676000349668,5.6780533775644075)"><title>Person 86</title></path><path d="M5.046265044040321,0A5.046265044040321,5.046265044040321,0,1,1,-5.046265044040321,0A5.046265044040321,5.046265044040321,0,1,1,5.046265044040321,0" fill="#7f7f7f" transform="translate(88.23142622816877,20.19107492739611)"><title>Person 2</title></path><path d="M5.046265044040321,0A5.046265044040321,5.046265044040321,0,1,1,-5.046265044040321,0A5.046265044040321,5.046265044040321,0,1,1,5.046265044040321,0" fill="#7f7f7f" transform="translate(-80.75616389266048,-85.16468610497445)"><title>Person 29</title></path><path d="M5.046265044040321,0A5.046265044040321,5.046265044040321,0,1,1,-5.046265044040321,0A5.046265044040321,5.046265044040321,0,1,1,5.046265044040321,0" fill="#7f7f7f" transform="translate(80.79137452680982,-56.54048340962259)"><title>Person 31</title></path><path d="M5.046265044040321,0A5.046265044040321,5.046265044040321,0,1,1,-5.046265044040321,0A5.046265044040321,5.046265044040321,0,1,1,5.046265044040321,0" fill="#7f7f7f" transform="translate(84.31778235465636,83.45179035914613)"><title>Person 33</title></path><path d="M5.046265044040321,0A5.046265044040321,5.046265044040321,0,1,1,-5.046265044040321,0A5.046265044040321,5.046265044040321,0,1,1,5.046265044040321,0" fill="#7f7f7f" transform="translate(-6.286926770609551,-108.95497200049114)"><title>Person 35</title></path><path d="M5.046265044040321,0A5.046265044040321,5.046265044040321,0,1,1,-5.046265044040321,0A5.046265044040321,5.046265044040321,0,1,1,5.046265044040321,0" fill="#7f7f7f" transform="translate(92.95132134929193,-21.69146118172486)"><title>Person 36</title></path><path d="M5.046265044040321,0A5.046265044040321,5.046265044040321,0,1,1,-5.046265044040321,0A5.046265044040321,5.046265044040321,0,1,1,5.046265044040321,0" fill="#7f7f7f" transform="translate(27.199503678354883,96.12974661528321)"><title>Person 38</title></path><path d="M5.046265044040321,0A5.046265044040321,5.046265044040321,0,1,1,-5.046265044040321,0A5.046265044040321,5.046265044040321,0,1,1,5.046265044040321,0" fill="#7f7f7f" transform="translate(62.53501700124603,-92.84517220706395)"><title>Person 42</title></path><path d="M5.046265044040321,0A5.046265044040321,5.046265044040321,0,1,1,-5.046265044040321,0A5.046265044040321,5.046265044040321,0,1,1,5.046265044040321,0" fill="#7f7f7f" transform="translate(104.2533696031639,54.811302429864305)"><title>Person 44</title></path><path d="M5.046265044040321,0A5.046265044040321,5.046265044040321,0,1,1,-5.046265044040321,0A5.046265044040321,5.046265044040321,0,1,1,5.046265044040321,0" fill="#7f7f7f" transform="translate(-54.67373060283066,-98.74231321389294)"><title>Person 46</title></path><path d="M5.046265044040321,0A5.046265044040321,5.046265044040321,0,1,1,-5.046265044040321,0A5.046265044040321,5.046265044040321,0,1,1,5.046265044040321,0" fill="#7f7f7f" transform="translate(111.8718907940767,-45.73411976972111)"><title>Person 48</title></path><path d="M5.046265044040321,0A5.046265044040321,5.046265044040321,0,1,1,-5.046265044040321,0A5.046265044040321,5.046265044040321,0,1,1,5.046265044040321,0" fill="#7f7f7f" transform="translate(55.13388611487328,75.9521803630218)"><title>Person 49</title></path><path d="M5.046265044040321,0A5.046265044040321,5.046265044040321,0,1,1,-5.046265044040321,0A5.046265044040321,5.046265044040321,0,1,1,5.046265044040321,0" fill="#7f7f7f" transform="translate(18.84627558052427,-118.41107165021052)"><title>Person 52</title></path><path d="M5.046265044040321,0A5.046265044040321,5.046265044040321,0,1,1,-5.046265044040321,0A5.046265044040321,5.046265044040321,0,1,1,5.046265044040321,0" fill="#7f7f7f" transform="translate(116.03810770405745,23.643843116234127)"><title>Person 53</title></path><path d="M5.046265044040321,0A5.046265044040321,5.046265044040321,0,1,1,-5.046265044040321,0A5.046265044040321,5.046265044040321,0,1,1,5.046265044040321,0" fill="#7f7f7f" transform="translate(9.511913714360416,118.15549632484718)"><title>Person 54</title></path><path d="M5.046265044040321,0A5.046265044040321,5.046265044040321,0,1,1,-5.046265044040321,0A5.046265044040321,5.046265044040321,0,1,1,5.046265044040321,0" fill="#7f7f7f" transform="translate(87.95607995871076,-82.86854958359439)"><title>Person 55</title></path><path d="M5.046265044040321,0A5.046265044040321,5.046265044040321,0,1,1,-5.046265044040321,0A5.046265044040321,5.046265044040321,0,1,1,5.046265044040321,0" fill="#7f7f7f" transform="translate(75.11720815349526,50.969474669630806)"><title>Person 59</title></path><path d="M5.046265044040321,0A5.046265044040321,5.046265044040321,0,1,1,-5.046265044040321,0A5.046265044040321,5.046265044040321,0,1,1,5.046265044040321,0" fill="#7f7f7f" transform="translate(-31.743428335648826,-114.77214299167761)"><title>Person 60</title></path><path d="M5.046265044040321,0A5.046265044040321,5.046265044040321,0,1,1,-5.046265044040321,0A5.046265044040321,5.046265044040321,0,1,1,5.046265044040321,0" fill="#7f7f7f" transform="translate(117.85477457638858,-7.972213106646748)"><title>Person 61</title></path><path d="M5.046265044040321,0A5.046265044040321,5.046265044040321,0,1,1,-5.046265044040321,0A5.046265044040321,5.046265044040321,0,1,1,5.046265044040321,0" fill="#7f7f7f" transform="translate(54.139839236705875,107.39780654150405)"><title>Person 62</title></path><path d="M5.046265044040321,0A5.046265044040321,5.046265044040321,0,1,1,-5.046265044040321,0A5.046265044040321,5.046265044040321,0,1,1,5.046265044040321,0" fill="#7f7f7f" transform="translate(40.23116247613176,-104.72486306286042)"><title>Person 64</title></path><path d="M-4.47213595499958,-4.47213595499958h8.94427190999916v8.94427190999916h-8.94427190999916Z" fill="#7f7f7f" transform="translate(-22.144352101500512,106.92472901267703)"><title>Document -99</title></path><path d="M5.046265044040321,0A5.046265044040321,5.046265044040321,0,1,1,-5.046265044040321,0A5.046265044040321,5.046265044040321,0,1,1,5.046265044040321,0" fill="#7f7f7f" transform="translate(-55.79249499928874,-26.178779093603424)"><title>Person 66</title></path><path d="M-6,-2L-2,-2L-2,-6L2,-6L2,-2L6,-2L6,2L2,2L2,6L-2,6L-2,2L-6,2Z" fill="#7f7f7f" transform="translate(-77.67340981122824,-13.135245552468216)"><title>Product 657187</title></path><path d="M0,-8.441862787462423L1.8953162830083747,-2.6086790655073533L8.028688613685706,-2.6086790655073537L3.0666861653386652,0.9964267372834953L4.962002448347041,6.829610459238564L6.661338147750939e-16,3.2245046564477153L-4.9620024483470395,6.829610459238565L-3.0666861653386652,0.9964267372834958L-8.028688613685707,-2.608679065507352L-1.8953162830083754,-2.608679065507353Z" fill="#ff7f0e" transform="translate(52.615547054330605,-8.780195463996808)"><title>Country 81</title></path><path d="M0,-8.441862787462423L1.8953162830083747,-2.6086790655073533L8.028688613685706,-2.6086790655073537L3.0666861653386652,0.9964267372834953L4.962002448347041,6.829610459238564L6.661338147750939e-16,3.2245046564477153L-4.9620024483470395,6.829610459238565L-3.0666861653386652,0.9964267372834958L-8.028688613685707,-2.608679065507352L-1.8953162830083754,-2.608679065507353Z" fill="#d62728" transform="translate(-14.49161045756312,-15.15611239908061)"><title>Country 70</title></path><path d="M0,-8.441862787462423L1.8953162830083747,-2.6086790655073533L8.028688613685706,-2.6086790655073537L3.0666861653386652,0.9964267372834953L4.962002448347041,6.829610459238564L6.661338147750939e-16,3.2245046564477153L-4.9620024483470395,6.829610459238565L-3.0666861653386652,0.9964267372834958L-8.028688613685707,-2.608679065507352L-1.8953162830083754,-2.608679065507353Z" fill="#9467bd" transform="translate(-7.713894987951614,8.4621355892107)"><title>Country 69</title></path><path d="M0,-8.441862787462423L1.8953162830083747,-2.6086790655073533L8.028688613685706,-2.6086790655073537L3.0666861653386652,0.9964267372834953L4.962002448347041,6.829610459238564L6.661338147750939e-16,3.2245046564477153L-4.9620024483470395,6.829610459238565L-3.0666861653386652,0.9964267372834958L-8.028688613685707,-2.608679065507352L-1.8953162830083754,-2.608679065507353Z" fill="#2ca02c" transform="translate(14.155514767867727,-66.46623978156062)"><title>Country 76</title></path><path d="M0,-8.441862787462423L1.8953162830083747,-2.6086790655073533L8.028688613685706,-2.6086790655073537L3.0666861653386652,0.9964267372834953L4.962002448347041,6.829610459238564L6.661338147750939e-16,3.2245046564477153L-4.9620024483470395,6.829610459238565L-3.0666861653386652,0.9964267372834958L-8.028688613685707,-2.608679065507352L-1.8953162830083754,-2.608679065507353Z" fill="#1f77b4" transform="translate(-27.228184837567465,-5.811131927181294)"><title>Country 71</title></path><path d="M0,-8.441862787462423L1.8953162830083747,-2.6086790655073533L8.028688613685706,-2.6086790655073537L3.0666861653386652,0.9964267372834953L4.962002448347041,6.829610459238564L6.661338147750939e-16,3.2245046564477153L-4.9620024483470395,6.829610459238565L-3.0666861653386652,0.9964267372834958L-8.028688613685707,-2.608679065507352L-1.8953162830083754,-2.608679065507353Z" fill="#8c564b" transform="translate(-20.934818563448562,24.685533677928444)"><title>Country 72</title></path></g></svg>