<svg width="300" height="300" viewBox="-150,-150,300,300"><text x="-150" y="-130" font-family="sans-serif" font-size="12px" text-anchor="start">Q3-demographics_matched_with_node66</text><g stroke="#999" stroke-opacity="0.6"><line stroke-width="1" x1="10.0068778498769" y1="59.22978715137016" x2="16.025457713445185" y2="17.98026144195717"></line><line stroke-width="1" x1="10.0068778498769" y1="59.22978715137016" x2="-3.4115485854241934" y2="38.2038745410977"></line><line stroke-width="1" x1="10.0068778498769" y1="59.22978715137016" x2="-8.006652525296026" y2="20.836643907851442"></line><line stroke-width="1.7320508075688772" x1="-118.06386216427208" y1="33.51247954357813" x2="-87.8652767060011" y2="43.579341871095004"></line><line stroke-width="2.6457513110645907" x1="-118.06386216427208" y1="33.51247954357813" x2="-97.81713352568688" y2="3.917478336072412"></line><line stroke-width="1.7320508075688772" x1="-118.06386216427208" y1="33.51247954357813" x2="-99.66657300192323" y2="-15.1811961658335"></line><line stroke-width="1" x1="-118.06386216427208" y1="33.51247954357813" x2="-67.47061819302216" y2="15.97934596170784"></line><line stroke-width="1.7320508075688772" x1="-118.06386216427208" y1="33.51247954357813" x2="-116.13014332266789" y2="-2.201193125548693"></line><line stroke-width="1.4142135623730951" x1="-118.06386216427208" y1="33.51247954357813" x2="-80.53382618001443" y2="-8.215300417103355"></line><line stroke-width="1.7320508075688772" x1="-118.06386216427208" y1="33.51247954357813" x2="-103.24378916567152" y2="53.92466339073847"></line><line stroke-width="1.4142135623730951" x1="-118.06386216427208" y1="33.51247954357813" x2="-86.00004705563182" y2="16.923130902764225"></line><line stroke-width="1.4142135623730951" x1="-118.06386216427208" y1="33.51247954357813" x2="-69.28587379382013" y2="34.49840636772994"></line><line stroke-width="1" x1="-118.06386216427208" y1="33.51247954357813" x2="-87.8652767060011" y2="43.579341871095004"></line><line stroke-width="1.4142135623730951" x1="-118.06386216427208" y1="33.51247954357813" x2="-120.06576309958346" y2="17.769787441207924"></line><line stroke-width="1.4142135623730951" x1="-118.06386216427208" y1="33.51247954357813" x2="-116.13014332266789" y2="-2.201193125548693"></line><line stroke-width="1" x1="-118.06386216427208" y1="33.51247954357813" x2="-103.24378916567152" y2="53.92466339073847"></line><line stroke-width="1" x1="-118.06386216427208" y1="33.51247954357813" x2="-86.00004705563182" y2="16.923130902764225"></line><line stroke-width="1" x1="3.9162205300003357" y1="-13.407053053481695" x2="16.025457713445185" y2="17.98026144195717"></line><line stroke-width="1" x1="3.9162205300003357" y1="-13.407053053481695" x2="-26.247735262204824" y2="-8.382379015343307"></line><line stroke-width="1" x1="3.9162205300003357" y1="-13.407053053481695" x2="-8.006652525296026" y2="20.836643907851442"></line><line stroke-width="1" x1="3.9162205300003357" y1="-13.407053053481695" x2="45.329742308073406" y2="-25.961150498019958"></line><line stroke-width="1" x1="-46.41896080646215" y1="-37.63406044390834" x2="-26.247735262204824" y2="-8.382379015343307"></line><line stroke-width="1" x1="-17.41522513197456" y1="-42.93430937290414" x2="-26.247735262204824" y2="-8.382379015343307"></line><line stroke-width="2.449489742783178" x1="-87.8652767060011" y1="43.579341871095004" x2="-118.06386216427208" y2="33.51247954357813"></line><line stroke-width="2.23606797749979" x1="-87.8652767060011" y1="43.579341871095004" x2="-97.81713352568688" y2="3.917478336072412"></line><line stroke-width="4.123105625617661" x1="-87.8652767060011" y1="43.579341871095004" x2="-41.959960347774185" y2="37.90162208211847"></line><line stroke-width="1" x1="-87.8652767060011" y1="43.579341871095004" x2="-120.06576309958346" y2="17.769787441207924"></line><line stroke-width="2.23606797749979" x1="-87.8652767060011" y1="43.579341871095004" x2="-67.47061819302216" y2="15.97934596170784"></line><line stroke-width="1" x1="-87.8652767060011" y1="43.579341871095004" x2="-116.13014332266789" y2="-2.201193125548693"></line><line stroke-width="1" x1="-87.8652767060011" y1="43.579341871095004" x2="-103.24378916567152" y2="53.92466339073847"></line><line stroke-width="1.4142135623730951" x1="-87.8652767060011" y1="43.579341871095004" x2="-69.28587379382013" y2="34.49840636772994"></line><line stroke-width="1" x1="-87.8652767060011" y1="43.579341871095004" x2="-118.06386216427208" y2="33.51247954357813"></line><line stroke-width="1" x1="-87.8652767060011" y1="43.579341871095004" x2="-97.81713352568688" y2="3.917478336072412"></line><line stroke-width="1.4142135623730951" x1="-87.8652767060011" y1="43.579341871095004" x2="-99.66657300192323" y2="-15.1811961658335"></line><line stroke-width="1.4142135623730951" x1="-87.8652767060011" y1="43.579341871095004" x2="-100.76468438099323" y2="27.53456297438204"></line><line stroke-width="1.4142135623730951" x1="-87.8652767060011" y1="43.579341871095004" x2="-120.06576309958346" y2="17.769787441207924"></line><line stroke-width="1" x1="-87.8652767060011" y1="43.579341871095004" x2="-103.24378916567152" y2="53.92466339073847"></line><line stroke-width="1" x1="-87.8652767060011" y1="43.579341871095004" x2="-69.28587379382013" y2="34.49840636772994"></line><line stroke-width="3.3166247903554" x1="-97.81713352568688" y1="3.917478336072412" x2="-118.06386216427208" y2="33.51247954357813"></line><line stroke-width="1.7320508075688772" x1="-97.81713352568688" y1="3.917478336072412" x2="-87.8652767060011" y2="43.579341871095004"></line><line stroke-width="2.449489742783178" x1="-97.81713352568688" y1="3.917478336072412" x2="-120.06576309958346" y2="17.769787441207924"></line><line stroke-width="1.4142135623730951" x1="-97.81713352568688" y1="3.917478336072412" x2="-116.13014332266789" y2="-2.201193125548693"></line><line stroke-width="1" x1="-97.81713352568688" y1="3.917478336072412" x2="-80.53382618001443" y2="-8.215300417103355"></line><line stroke-width="1" x1="-97.81713352568688" y1="3.917478336072412" x2="-103.24378916567152" y2="53.92466339073847"></line><line stroke-width="3" x1="-97.81713352568688" y1="3.917478336072412" x2="-69.28587379382013" y2="34.49840636772994"></line><line stroke-width="2.8284271247461903" x1="-97.81713352568688" y1="3.917478336072412" x2="-118.06386216427208" y2="33.51247954357813"></line><line stroke-width="1.4142135623730951" x1="-97.81713352568688" y1="3.917478336072412" x2="-87.8652767060011" y2="43.579341871095004"></line><line stroke-width="1.4142135623730951" x1="-97.81713352568688" y1="3.917478336072412" x2="-99.66657300192323" y2="-15.1811961658335"></line><line stroke-width="1" x1="-97.81713352568688" y1="3.917478336072412" x2="-120.06576309958346" y2="17.769787441207924"></line><line stroke-width="1" x1="-97.81713352568688" y1="3.917478336072412" x2="-67.47061819302216" y2="15.97934596170784"></line><line stroke-width="1.4142135623730951" x1="-97.81713352568688" y1="3.917478336072412" x2="-116.13014332266789" y2="-2.201193125548693"></line><line stroke-width="2" x1="-97.81713352568688" y1="3.917478336072412" x2="-103.24378916567152" y2="53.92466339073847"></line><line stroke-width="1.7320508075688772" x1="-97.81713352568688" y1="3.917478336072412" x2="-86.00004705563182" y2="16.923130902764225"></line><line stroke-width="2.23606797749979" x1="-97.81713352568688" y1="3.917478336072412" x2="-69.28587379382013" y2="34.49840636772994"></line><line stroke-width="1" x1="32.24970961521505" y1="41.46298189780335" x2="16.025457713445185" y2="17.98026144195717"></line><line stroke-width="1" x1="32.24970961521505" y1="41.46298189780335" x2="-3.4115485854241934" y2="38.2038745410977"></line><line stroke-width="1" x1="32.24970961521505" y1="41.46298189780335" x2="-8.006652525296026" y2="20.836643907851442"></line><line stroke-width="3" x1="-41.959960347774185" y1="37.90162208211847" x2="-47.3228149558527" y2="-1.780149689356879"></line><line stroke-width="3" x1="-41.959960347774185" y1="37.90162208211847" x2="-87.8652767060011" y2="43.579341871095004"></line><line stroke-width="2.23606797749979" x1="-41.959960347774185" y1="37.90162208211847" x2="-33.02315116743067" y2="9.093161739270618"></line><line stroke-width="3.872983346207417" x1="-41.959960347774185" y1="37.90162208211847" x2="-67.47061819302216" y2="15.97934596170784"></line><line stroke-width="1" x1="-41.959960347774185" y1="37.90162208211847" x2="-33.01593337813225" y2="57.324851486464986"></line><line stroke-width="1" x1="-41.959960347774185" y1="37.90162208211847" x2="-26.247735262204824" y2="-8.382379015343307"></line><line stroke-width="1" x1="-41.959960347774185" y1="37.90162208211847" x2="-3.4115485854241934" y2="38.2038745410977"></line><line stroke-width="1" x1="-41.959960347774185" y1="37.90162208211847" x2="-55.211353489048044" y2="68.77677864479098"></line><line stroke-width="1" x1="-41.959960347774185" y1="37.90162208211847" x2="-8.006652525296026" y2="20.836643907851442"></line><line stroke-width="1" x1="-32.42564438639405" y1="-43.54707299509469" x2="-26.247735262204824" y2="-8.382379015343307"></line><line stroke-width="1" x1="-99.66657300192323" y1="-15.1811961658335" x2="-80.53382618001443" y2="-8.215300417103355"></line><line stroke-width="2.23606797749979" x1="-99.66657300192323" y1="-15.1811961658335" x2="-86.00004705563182" y2="16.923130902764225"></line><line stroke-width="2" x1="-99.66657300192323" y1="-15.1811961658335" x2="-69.28587379382013" y2="34.49840636772994"></line><line stroke-width="1.4142135623730951" x1="-99.66657300192323" y1="-15.1811961658335" x2="-118.06386216427208" y2="33.51247954357813"></line><line stroke-width="1.4142135623730951" x1="-99.66657300192323" y1="-15.1811961658335" x2="-87.8652767060011" y2="43.579341871095004"></line><line stroke-width="1" x1="-99.66657300192323" y1="-15.1811961658335" x2="-100.76468438099323" y2="27.53456297438204"></line><line stroke-width="1" x1="-99.66657300192323" y1="-15.1811961658335" x2="-120.06576309958346" y2="17.769787441207924"></line><line stroke-width="1.4142135623730951" x1="-99.66657300192323" y1="-15.1811961658335" x2="-116.13014332266789" y2="-2.201193125548693"></line><line stroke-width="2.6457513110645907" x1="-99.66657300192323" y1="-15.1811961658335" x2="-80.53382618001443" y2="-8.215300417103355"></line><line stroke-width="1.4142135623730951" x1="-99.66657300192323" y1="-15.1811961658335" x2="-103.24378916567152" y2="53.92466339073847"></line><line stroke-width="2.6457513110645907" x1="-99.66657300192323" y1="-15.1811961658335" x2="-86.00004705563182" y2="16.923130902764225"></line><line stroke-width="2.23606797749979" x1="-99.66657300192323" y1="-15.1811961658335" x2="-69.28587379382013" y2="34.49840636772994"></line><line stroke-width="1" x1="-100.76468438099323" y1="27.53456297438204" x2="-118.06386216427208" y2="33.51247954357813"></line><line stroke-width="1" x1="-100.76468438099323" y1="27.53456297438204" x2="-97.81713352568688" y2="3.917478336072412"></line><line stroke-width="1.4142135623730951" x1="-100.76468438099323" y1="27.53456297438204" x2="-99.66657300192323" y2="-15.1811961658335"></line><line stroke-width="1" x1="-100.76468438099323" y1="27.53456297438204" x2="-120.06576309958346" y2="17.769787441207924"></line><line stroke-width="1.7320508075688772" x1="-100.76468438099323" y1="27.53456297438204" x2="-116.13014332266789" y2="-2.201193125548693"></line><line stroke-width="1.4142135623730951" x1="-100.76468438099323" y1="27.53456297438204" x2="-80.53382618001443" y2="-8.215300417103355"></line><line stroke-width="1" x1="-100.76468438099323" y1="27.53456297438204" x2="-86.00004705563182" y2="16.923130902764225"></line><line stroke-width="1.4142135623730951" x1="-100.76468438099323" y1="27.53456297438204" x2="-69.28587379382013" y2="34.49840636772994"></line><line stroke-width="1.7320508075688772" x1="-100.76468438099323" y1="27.53456297438204" x2="-103.24378916567152" y2="53.92466339073847"></line><line stroke-width="1.7320508075688772" x1="-100.76468438099323" y1="27.53456297438204" x2="-69.28587379382013" y2="34.49840636772994"></line><line stroke-width="1" x1="-44.56838455019628" y1="82.77606771339782" x2="-22.783200686034192" y2="106.5619192001508"></line><line stroke-width="1" x1="17.54815449669587" y1="-11.865373002870594" x2="16.025457713445185" y2="17.98026144195717"></line><line stroke-width="1" x1="17.54815449669587" y1="-11.865373002870594" x2="-26.247735262204824" y2="-8.382379015343307"></line><line stroke-width="1" x1="17.54815449669587" y1="-11.865373002870594" x2="-8.006652525296026" y2="20.836643907851442"></line><line stroke-width="1" x1="17.54815449669587" y1="-11.865373002870594" x2="45.329742308073406" y2="-25.961150498019958"></line><line stroke-width="1" x1="-67.91357029740222" y1="72.11155855463808" x2="-41.959960347774185" y2="37.90162208211847"></line><line stroke-width="1" x1="-67.91357029740222" y1="72.11155855463808" x2="-44.56838455019628" y2="82.77606771339782"></line><line stroke-width="1.7320508075688772" x1="-67.91357029740222" y1="72.11155855463808" x2="-69.28587379382013" y2="34.49840636772994"></line><line stroke-width="1.4142135623730951" x1="-67.91357029740222" y1="72.11155855463808" x2="-41.959960347774185" y2="37.90162208211847"></line><line stroke-width="2" x1="-67.91357029740222" y1="72.11155855463808" x2="-44.56838455019628" y2="82.77606771339782"></line><line stroke-width="2" x1="-67.91357029740222" y1="72.11155855463808" x2="-33.01593337813225" y2="57.324851486464986"></line><line stroke-width="1.4142135623730951" x1="-67.91357029740222" y1="72.11155855463808" x2="-69.28587379382013" y2="34.49840636772994"></line><line stroke-width="1.7320508075688772" x1="-120.06576309958346" y1="17.769787441207924" x2="-118.06386216427208" y2="33.51247954357813"></line><line stroke-width="2" x1="-120.06576309958346" y1="17.769787441207924" x2="-87.8652767060011" y2="43.579341871095004"></line><line stroke-width="1.7320508075688772" x1="-120.06576309958346" y1="17.769787441207924" x2="-97.81713352568688" y2="3.917478336072412"></line><line stroke-width="1.7320508075688772" x1="-120.06576309958346" y1="17.769787441207924" x2="-116.13014332266789" y2="-2.201193125548693"></line><line stroke-width="1" x1="-120.06576309958346" y1="17.769787441207924" x2="-103.24378916567152" y2="53.92466339073847"></line><line stroke-width="1" x1="-120.06576309958346" y1="17.769787441207924" x2="-69.28587379382013" y2="34.49840636772994"></line><line stroke-width="1.7320508075688772" x1="-67.47061819302216" y1="15.97934596170784" x2="-87.8652767060011" y2="43.579341871095004"></line><line stroke-width="4.69041575982343" x1="-67.47061819302216" y1="15.97934596170784" x2="-41.959960347774185" y2="37.90162208211847"></line><line stroke-width="1" x1="-67.47061819302216" y1="15.97934596170784" x2="-86.00004705563182" y2="16.923130902764225"></line><line stroke-width="3" x1="-67.47061819302216" y1="15.97934596170784" x2="-47.3228149558527" y2="-1.780149689356879"></line><line stroke-width="1" x1="42.57160917135296" y1="16.70234520557791" x2="-3.4115485854241934" y2="38.2038745410977"></line><line stroke-width="1" x1="42.57160917135296" y1="16.70234520557791" x2="45.329742308073406" y2="-25.961150498019958"></line><line stroke-width="1" x1="14.993190622996767" y1="-25.607248607704914" x2="16.025457713445185" y2="17.98026144195717"></line><line stroke-width="1" x1="14.993190622996767" y1="-25.607248607704914" x2="-26.247735262204824" y2="-8.382379015343307"></line><line stroke-width="1" x1="14.993190622996767" y1="-25.607248607704914" x2="-8.006652525296026" y2="20.836643907851442"></line><line stroke-width="1" x1="14.993190622996767" y1="-25.607248607704914" x2="45.329742308073406" y2="-25.961150498019958"></line><line stroke-width="1" x1="-116.13014332266789" y1="-2.201193125548693" x2="-118.06386216427208" y2="33.51247954357813"></line><line stroke-width="2" x1="-116.13014332266789" y1="-2.201193125548693" x2="-87.8652767060011" y2="43.579341871095004"></line><line stroke-width="2" x1="-116.13014332266789" y1="-2.201193125548693" x2="-97.81713352568688" y2="3.917478336072412"></line><line stroke-width="2" x1="-116.13014332266789" y1="-2.201193125548693" x2="-120.06576309958346" y2="17.769787441207924"></line><line stroke-width="1.7320508075688772" x1="-116.13014332266789" y1="-2.201193125548693" x2="-69.28587379382013" y2="34.49840636772994"></line><line stroke-width="1" x1="-116.13014332266789" y1="-2.201193125548693" x2="-118.06386216427208" y2="33.51247954357813"></line><line stroke-width="1" x1="-116.13014332266789" y1="-2.201193125548693" x2="-87.8652767060011" y2="43.579341871095004"></line><line stroke-width="1" x1="-116.13014332266789" y1="-2.201193125548693" x2="-99.66657300192323" y2="-15.1811961658335"></line><line stroke-width="2.23606797749979" x1="-116.13014332266789" y1="-2.201193125548693" x2="-120.06576309958346" y2="17.769787441207924"></line><line stroke-width="1" x1="-116.13014332266789" y1="-2.201193125548693" x2="-86.00004705563182" y2="16.923130902764225"></line><line stroke-width="1" x1="-116.13014332266789" y1="-2.201193125548693" x2="-69.28587379382013" y2="34.49840636772994"></line><line stroke-width="1" x1="34.170040001853565" y1="10.67272087631223" x2="-3.4115485854241934" y2="38.2038745410977"></line><line stroke-width="1" x1="34.170040001853565" y1="10.67272087631223" x2="45.329742308073406" y2="-25.961150498019958"></line><line stroke-width="1" x1="-80.53382618001443" y1="-8.215300417103355" x2="-118.06386216427208" y2="33.51247954357813"></line><line stroke-width="2" x1="-80.53382618001443" y1="-8.215300417103355" x2="-99.66657300192323" y2="-15.1811961658335"></line><line stroke-width="2.6457513110645907" x1="-80.53382618001443" y1="-8.215300417103355" x2="-86.00004705563182" y2="16.923130902764225"></line><line stroke-width="1.4142135623730951" x1="-80.53382618001443" y1="-8.215300417103355" x2="-69.28587379382013" y2="34.49840636772994"></line><line stroke-width="1" x1="-80.53382618001443" y1="-8.215300417103355" x2="-118.06386216427208" y2="33.51247954357813"></line><line stroke-width="1.4142135623730951" x1="-80.53382618001443" y1="-8.215300417103355" x2="-97.81713352568688" y2="3.917478336072412"></line><line stroke-width="2.6457513110645907" x1="-80.53382618001443" y1="-8.215300417103355" x2="-99.66657300192323" y2="-15.1811961658335"></line><line stroke-width="1" x1="-80.53382618001443" y1="-8.215300417103355" x2="-120.06576309958346" y2="17.769787441207924"></line><line stroke-width="1" x1="-80.53382618001443" y1="-8.215300417103355" x2="-116.13014332266789" y2="-2.201193125548693"></line><line stroke-width="1" x1="-80.53382618001443" y1="-8.215300417103355" x2="-103.24378916567152" y2="53.92466339073847"></line><line stroke-width="2.449489742783178" x1="-80.53382618001443" y1="-8.215300417103355" x2="-86.00004705563182" y2="16.923130902764225"></line><line stroke-width="2" x1="-80.53382618001443" y1="-8.215300417103355" x2="-69.28587379382013" y2="34.49840636772994"></line><line stroke-width="1.4142135623730951" x1="3.1874215150323106" y1="-27.10598670945947" x2="16.025457713445185" y2="17.98026144195717"></line><line stroke-width="1" x1="3.1874215150323106" y1="-27.10598670945947" x2="-26.247735262204824" y2="-8.382379015343307"></line><line stroke-width="1" x1="3.1874215150323106" y1="-27.10598670945947" x2="-8.006652525296026" y2="20.836643907851442"></line><line stroke-width="1" x1="3.1874215150323106" y1="-27.10598670945947" x2="45.329742308073406" y2="-25.961150498019958"></line><line stroke-width="1" x1="23.04197715351478" y1="51.93796921583637" x2="16.025457713445185" y2="17.98026144195717"></line><line stroke-width="1" x1="23.04197715351478" y1="51.93796921583637" x2="-3.4115485854241934" y2="38.2038745410977"></line><line stroke-width="1" x1="23.04197715351478" y1="51.93796921583637" x2="-8.006652525296026" y2="20.836643907851442"></line><line stroke-width="1" x1="-103.24378916567152" y1="53.92466339073847" x2="-118.06386216427208" y2="33.51247954357813"></line><line stroke-width="1" x1="-103.24378916567152" y1="53.92466339073847" x2="-87.8652767060011" y2="43.579341871095004"></line><line stroke-width="3.1622776601683795" x1="-103.24378916567152" y1="53.92466339073847" x2="-100.76468438099323" y2="27.53456297438204"></line><line stroke-width="1" x1="-103.24378916567152" y1="53.92466339073847" x2="-80.53382618001443" y2="-8.215300417103355"></line><line stroke-width="1" x1="-103.24378916567152" y1="53.92466339073847" x2="-86.00004705563182" y2="16.923130902764225"></line><line stroke-width="2.6457513110645907" x1="-103.24378916567152" y1="53.92466339073847" x2="-69.28587379382013" y2="34.49840636772994"></line><line stroke-width="1" x1="-103.24378916567152" y1="53.92466339073847" x2="-118.06386216427208" y2="33.51247954357813"></line><line stroke-width="1" x1="-103.24378916567152" y1="53.92466339073847" x2="-87.8652767060011" y2="43.579341871095004"></line><line stroke-width="1.4142135623730951" x1="-103.24378916567152" y1="53.92466339073847" x2="-97.81713352568688" y2="3.917478336072412"></line><line stroke-width="1.4142135623730951" x1="-103.24378916567152" y1="53.92466339073847" x2="-120.06576309958346" y2="17.769787441207924"></line><line stroke-width="1.7320508075688772" x1="-103.24378916567152" y1="53.92466339073847" x2="-116.13014332266789" y2="-2.201193125548693"></line><line stroke-width="1.7320508075688772" x1="-103.24378916567152" y1="53.92466339073847" x2="-80.53382618001443" y2="-8.215300417103355"></line><line stroke-width="1" x1="-103.24378916567152" y1="53.92466339073847" x2="-86.00004705563182" y2="16.923130902764225"></line><line stroke-width="1.4142135623730951" x1="-103.24378916567152" y1="53.92466339073847" x2="-69.28587379382013" y2="34.49840636772994"></line><line stroke-width="1" x1="-86.00004705563182" y1="16.923130902764225" x2="-118.06386216427208" y2="33.51247954357813"></line><line stroke-width="1" x1="-86.00004705563182" y1="16.923130902764225" x2="-87.8652767060011" y2="43.579341871095004"></line><line stroke-width="2" x1="-86.00004705563182" y1="16.923130902764225" x2="-97.81713352568688" y2="3.917478336072412"></line><line stroke-width="2.23606797749979" x1="-86.00004705563182" y1="16.923130902764225" x2="-99.66657300192323" y2="-15.1811961658335"></line><line stroke-width="2" x1="-86.00004705563182" y1="16.923130902764225" x2="-120.06576309958346" y2="17.769787441207924"></line><line stroke-width="1" x1="-86.00004705563182" y1="16.923130902764225" x2="-116.13014332266789" y2="-2.201193125548693"></line><line stroke-width="2.449489742783178" x1="-86.00004705563182" y1="16.923130902764225" x2="-80.53382618001443" y2="-8.215300417103355"></line><line stroke-width="1" x1="-86.00004705563182" y1="16.923130902764225" x2="-103.24378916567152" y2="53.92466339073847"></line><line stroke-width="2.6457513110645907" x1="-86.00004705563182" y1="16.923130902764225" x2="-69.28587379382013" y2="34.49840636772994"></line><line stroke-width="2.23606797749979" x1="-86.00004705563182" y1="16.923130902764225" x2="-99.66657300192323" y2="-15.1811961658335"></line><line stroke-width="1.7320508075688772" x1="-86.00004705563182" y1="16.923130902764225" x2="-80.53382618001443" y2="-8.215300417103355"></line><line stroke-width="1.4142135623730951" x1="-86.00004705563182" y1="16.923130902764225" x2="-69.28587379382013" y2="34.49840636772994"></line><line stroke-width="1" x1="24.366137251530347" y1="3.9777520441181276" x2="-3.4115485854241934" y2="38.2038745410977"></line><line stroke-width="1" x1="24.366137251530347" y1="3.9777520441181276" x2="45.329742308073406" y2="-25.961150498019958"></line><line stroke-width="2" x1="-33.01593337813225" y1="57.324851486464986" x2="-41.959960347774185" y2="37.90162208211847"></line><line stroke-width="2" x1="-33.01593337813225" y1="57.324851486464986" x2="-44.56838455019628" y2="82.77606771339782"></line><line stroke-width="1.4142135623730951" x1="-33.01593337813225" y1="57.324851486464986" x2="-67.91357029740222" y2="72.11155855463808"></line><line stroke-width="1" x1="-33.01593337813225" y1="57.324851486464986" x2="-86.00004705563182" y2="16.923130902764225"></line><line stroke-width="1.4142135623730951" x1="-33.01593337813225" y1="57.324851486464986" x2="-69.28587379382013" y2="34.49840636772994"></line><line stroke-width="1.7320508075688772" x1="-33.01593337813225" y1="57.324851486464986" x2="-41.959960347774185" y2="37.90162208211847"></line><line stroke-width="1.7320508075688772" x1="-33.01593337813225" y1="57.324851486464986" x2="-44.56838455019628" y2="82.77606771339782"></line><line stroke-width="1.7320508075688772" x1="-33.01593337813225" y1="57.324851486464986" x2="-67.91357029740222" y2="72.11155855463808"></line><line stroke-width="1.4142135623730951" x1="-33.01593337813225" y1="57.324851486464986" x2="-69.28587379382013" y2="34.49840636772994"></line><line stroke-width="1" x1="-33.01593337813225" y1="57.324851486464986" x2="-26.247735262204824" y2="-8.382379015343307"></line><line stroke-width="1" x1="-33.01593337813225" y1="57.324851486464986" x2="-3.4115485854241934" y2="38.2038745410977"></line><line stroke-width="1" x1="-33.01593337813225" y1="57.324851486464986" x2="-55.211353489048044" y2="68.77677864479098"></line><line stroke-width="1" x1="-33.01593337813225" y1="57.324851486464986" x2="-8.006652525296026" y2="20.836643907851442"></line><line stroke-width="2" x1="-69.28587379382013" y1="34.49840636772994" x2="-97.81713352568688" y2="3.917478336072412"></line><line stroke-width="2.449489742783178" x1="-69.28587379382013" y1="34.49840636772994" x2="-41.959960347774185" y2="37.90162208211847"></line><line stroke-width="1.4142135623730951" x1="-69.28587379382013" y1="34.49840636772994" x2="-99.66657300192323" y2="-15.1811961658335"></line><line stroke-width="1.7320508075688772" x1="-69.28587379382013" y1="34.49840636772994" x2="-100.76468438099323" y2="27.53456297438204"></line><line stroke-width="1.7320508075688772" x1="-69.28587379382013" y1="34.49840636772994" x2="-44.56838455019628" y2="82.77606771339782"></line><line stroke-width="2.23606797749979" x1="-69.28587379382013" y1="34.49840636772994" x2="-67.91357029740222" y2="72.11155855463808"></line><line stroke-width="1.4142135623730951" x1="-69.28587379382013" y1="34.49840636772994" x2="-120.06576309958346" y2="17.769787441207924"></line><line stroke-width="1.7320508075688772" x1="-69.28587379382013" y1="34.49840636772994" x2="-116.13014332266789" y2="-2.201193125548693"></line><line stroke-width="2.23606797749979" x1="-69.28587379382013" y1="34.49840636772994" x2="-80.53382618001443" y2="-8.215300417103355"></line><line stroke-width="2.23606797749979" x1="-69.28587379382013" y1="34.49840636772994" x2="-103.24378916567152" y2="53.92466339073847"></line><line stroke-width="1.7320508075688772" x1="-69.28587379382013" y1="34.49840636772994" x2="-86.00004705563182" y2="16.923130902764225"></line><line stroke-width="1" x1="-69.28587379382013" y1="34.49840636772994" x2="-33.01593337813225" y2="57.324851486464986"></line><line stroke-width="3" x1="-69.28587379382013" y1="34.49840636772994" x2="-118.06386216427208" y2="33.51247954357813"></line><line stroke-width="2.449489742783178" x1="-69.28587379382013" y1="34.49840636772994" x2="-87.8652767060011" y2="43.579341871095004"></line><line stroke-width="2.8284271247461903" x1="-69.28587379382013" y1="34.49840636772994" x2="-97.81713352568688" y2="3.917478336072412"></line><line stroke-width="1.7320508075688772" x1="-69.28587379382013" y1="34.49840636772994" x2="-41.959960347774185" y2="37.90162208211847"></line><line stroke-width="2.23606797749979" x1="-69.28587379382013" y1="34.49840636772994" x2="-99.66657300192323" y2="-15.1811961658335"></line><line stroke-width="2.6457513110645907" x1="-69.28587379382013" y1="34.49840636772994" x2="-100.76468438099323" y2="27.53456297438204"></line><line stroke-width="1.7320508075688772" x1="-69.28587379382013" y1="34.49840636772994" x2="-44.56838455019628" y2="82.77606771339782"></line><line stroke-width="2.23606797749979" x1="-69.28587379382013" y1="34.49840636772994" x2="-67.91357029740222" y2="72.11155855463808"></line><line stroke-width="2.23606797749979" x1="-69.28587379382013" y1="34.49840636772994" x2="-120.06576309958346" y2="17.769787441207924"></line><line stroke-width="1.7320508075688772" x1="-69.28587379382013" y1="34.49840636772994" x2="-116.13014332266789" y2="-2.201193125548693"></line><line stroke-width="2.449489742783178" x1="-69.28587379382013" y1="34.49840636772994" x2="-80.53382618001443" y2="-8.215300417103355"></line><line stroke-width="2.6457513110645907" x1="-69.28587379382013" y1="34.49840636772994" x2="-103.24378916567152" y2="53.92466339073847"></line><line stroke-width="2.449489742783178" x1="-69.28587379382013" y1="34.49840636772994" x2="-86.00004705563182" y2="16.923130902764225"></line><line stroke-width="1.4142135623730951" x1="-69.28587379382013" y1="34.49840636772994" x2="-33.01593337813225" y2="57.324851486464986"></line><line stroke-width="1" x1="-69.28587379382013" y1="34.49840636772994" x2="-26.247735262204824" y2="-8.382379015343307"></line><line stroke-width="1" x1="-69.28587379382013" y1="34.49840636772994" x2="-3.4115485854241934" y2="38.2038745410977"></line><line stroke-width="1" x1="-69.28587379382013" y1="34.49840636772994" x2="-55.211353489048044" y2="68.77677864479098"></line><line stroke-width="1.4142135623730951" x1="-69.28587379382013" y1="34.49840636772994" x2="-8.006652525296026" y2="20.836643907851442"></line></g><g stroke="#fff" stroke-width="1.5"><path d="M5.046265044040321,0A5.046265044040321,5.046265044040321,0,1,1,-5.046265044040321,0A5.046265044040321,5.046265044040321,0,1,1,5.046265044040321,0" fill="#9467bd" transform="translate(-118.06386216427208,33.51247954357813)"><title>Person 519424</title></path><path d="M5.046265044040321,0A5.046265044040321,5.046265044040321,0,1,1,-5.046265044040321,0A5.046265044040321,5.046265044040321,0,1,1,5.046265044040321,0" fill="#d62728" transform="translate(-87.8652767060011,43.579341871095004)"><title>Person 546999</title></path><path d="M5.046265044040321,0A5.046265044040321,5.046265044040321,0,1,1,-5.046265044040321,0A5.046265044040321,5.046265044040321,0,1,1,5.046265044040321,0" fill="#9467bd" transform="translate(-97.81713352568688,3.917478336072412)"><title>Person 551810</title></path><path d="M5.046265044040321,0A5.046265044040321,5.046265044040321,0,1,1,-5.046265044040321,0A5.046265044040321,5.046265044040321,0,1,1,5.046265044040321,0" fill="#8c564b" transform="translate(-41.959960347774185,37.90162208211847)"><title>Person 570284</title></path><path d="M5.046265044040321,0A5.046265044040321,5.046265044040321,0,1,1,-5.046265044040321,0A5.046265044040321,5.046265044040321,0,1,1,5.046265044040321,0" fill="#8c564b" transform="translate(-99.66657300192323,-15.1811961658335)"><title>Person 572500</title></path><path d="M5.046265044040321,0A5.046265044040321,5.046265044040321,0,1,1,-5.046265044040321,0A5.046265044040321,5.046265044040321,0,1,1,5.046265044040321,0" fill="#1f77b4" transform="translate(-100.76468438099323,27.53456297438204)"><title>Person 581406</title></path><path d="M5.046265044040321,0A5.046265044040321,5.046265044040321,0,1,1,-5.046265044040321,0A5.046265044040321,5.046265044040321,0,1,1,5.046265044040321,0" fill="#8c564b" transform="translate(-67.91357029740222,72.11155855463808)"><title>Person 593266</title></path><path d="M5.046265044040321,0A5.046265044040321,5.046265044040321,0,1,1,-5.046265044040321,0A5.046265044040321,5.046265044040321,0,1,1,5.046265044040321,0" fill="#d62728" transform="translate(-120.06576309958346,17.769787441207924)"><title>Person 594766</title></path><path d="M5.046265044040321,0A5.046265044040321,5.046265044040321,0,1,1,-5.046265044040321,0A5.046265044040321,5.046265044040321,0,1,1,5.046265044040321,0" fill="#9467bd" transform="translate(-67.47061819302216,15.97934596170784)"><title>Person 595104</title></path><path d="M5.046265044040321,0A5.046265044040321,5.046265044040321,0,1,1,-5.046265044040321,0A5.046265044040321,5.046265044040321,0,1,1,5.046265044040321,0" fill="#d62728" transform="translate(-116.13014332266789,-2.201193125548693)"><title>Person 604223</title></path><path d="M5.046265044040321,0A5.046265044040321,5.046265044040321,0,1,1,-5.046265044040321,0A5.046265044040321,5.046265044040321,0,1,1,5.046265044040321,0" fill="#8c564b" transform="translate(-80.53382618001443,-8.215300417103355)"><title>Person 615605</title></path><path d="M5.046265044040321,0A5.046265044040321,5.046265044040321,0,1,1,-5.046265044040321,0A5.046265044040321,5.046265044040321,0,1,1,5.046265044040321,0" fill="#1f77b4" transform="translate(-103.24378916567152,53.92466339073847)"><title>Person 636990</title></path><path d="M5.046265044040321,0A5.046265044040321,5.046265044040321,0,1,1,-5.046265044040321,0A5.046265044040321,5.046265044040321,0,1,1,5.046265044040321,0" fill="#8c564b" transform="translate(-86.00004705563182,16.923130902764225)"><title>Person 638752</title></path><path d="M5.046265044040321,0A5.046265044040321,5.046265044040321,0,1,1,-5.046265044040321,0A5.046265044040321,5.046265044040321,0,1,1,5.046265044040321,0" fill="#8c564b" transform="translate(-33.01593337813225,57.324851486464986)"><title>Person 643925</title></path><path d="M5.046265044040321,0A5.046265044040321,5.046265044040321,0,1,1,-5.046265044040321,0A5.046265044040321,5.046265044040321,0,1,1,5.046265044040321,0" fill="#8c564b" transform="translate(-69.28587379382013,34.49840636772994)"><title>Person 649553</title></path><path d="M5.046265044040321,0A5.046265044040321,5.046265044040321,0,1,1,-5.046265044040321,0A5.046265044040321,5.046265044040321,0,1,1,5.046265044040321,0" fill="#7f7f7f" transform="translate(26.510732483675763,-89.90237167468527)"><title>Person 476124</title></path><path d="M5.046265044040321,0A5.046265044040321,5.046265044040321,0,1,1,-5.046265044040321,0A5.046265044040321,5.046265044040321,0,1,1,5.046265044040321,0" fill="#7f7f7f" transform="translate(113.76051747855011,33.20326247154164)"><title>Person 477769</title></path><path d="M5.046265044040321,0A5.046265044040321,5.046265044040321,0,1,1,-5.046265044040321,0A5.046265044040321,5.046265044040321,0,1,1,5.046265044040321,0" fill="#7f7f7f" transform="translate(-72.69028640211896,-87.40118457017948)"><title>Person 479204</title></path><path d="M5.046265044040321,0A5.046265044040321,5.046265044040321,0,1,1,-5.046265044040321,0A5.046265044040321,5.046265044040321,0,1,1,5.046265044040321,0" fill="#7f7f7f" transform="translate(90.78292149112433,-78.20760697542495)"><title>Person 480268</title></path><path d="M5.046265044040321,0A5.046265044040321,5.046265044040321,0,1,1,-5.046265044040321,0A5.046265044040321,5.046265044040321,0,1,1,5.046265044040321,0" fill="#7f7f7f" transform="translate(82.2112030580336,48.374966857112945)"><title>Person 480375</title></path><path d="M5.046265044040321,0A5.046265044040321,5.046265044040321,0,1,1,-5.046265044040321,0A5.046265044040321,5.046265044040321,0,1,1,5.046265044040321,0" fill="#7f7f7f" transform="translate(-3.3326666445324142,-98.39654625414454)"><title>Person 492937</title></path><path d="M5.046265044040321,0A5.046265044040321,5.046265044040321,0,1,1,-5.046265044040321,0A5.046265044040321,5.046265044040321,0,1,1,5.046265044040321,0" fill="#7f7f7f" transform="translate(119.256507171503,-3.4369357250476678)"><title>Person 500192</title></path><path d="M5.046265044040321,0A5.046265044040321,5.046265044040321,0,1,1,-5.046265044040321,0A5.046265044040321,5.046265044040321,0,1,1,5.046265044040321,0" fill="#7f7f7f" transform="translate(52.19136185479265,86.64860157255744)"><title>Person 510483</title></path><path d="M5.046265044040321,0A5.046265044040321,5.046265044040321,0,1,1,-5.046265044040321,0A5.046265044040321,5.046265044040321,0,1,1,5.046265044040321,0" fill="#7f7f7f" transform="translate(53.634980980707475,-74.50194289366696)"><title>Person 513182</title></path><path d="M5.046265044040321,0A5.046265044040321,5.046265044040321,0,1,1,-5.046265044040321,0A5.046265044040321,5.046265044040321,0,1,1,5.046265044040321,0" fill="#7f7f7f" transform="translate(93.11884661178867,9.319359110008252)"><title>Person 463126</title></path><path d="M5.046265044040321,0A5.046265044040321,5.046265044040321,0,1,1,-5.046265044040321,0A5.046265044040321,5.046265044040321,0,1,1,5.046265044040321,0" fill="#7f7f7f" transform="translate(-47.45450972171946,-102.96962881145707)"><title>Person 516694</title></path><path d="M5.046265044040321,0A5.046265044040321,5.046265044040321,0,1,1,-5.046265044040321,0A5.046265044040321,5.046265044040321,0,1,1,5.046265044040321,0" fill="#7f7f7f" transform="translate(80.11696617891964,-53.14020164273732)"><title>Person 545850</title></path><path d="M5.046265044040321,0A5.046265044040321,5.046265044040321,0,1,1,-5.046265044040321,0A5.046265044040321,5.046265044040321,0,1,1,5.046265044040321,0" fill="#7f7f7f" transform="translate(78.21752017626335,90.08988152819786)"><title>Person 558277</title></path><path d="M5.046265044040321,0A5.046265044040321,5.046265044040321,0,1,1,-5.046265044040321,0A5.046265044040321,5.046265044040321,0,1,1,5.046265044040321,0" fill="#7f7f7f" transform="translate(25.15774128677135,-116.8616040046643)"><title>Person 561312</title></path><path d="M5.046265044040321,0A5.046265044040321,5.046265044040321,0,1,1,-5.046265044040321,0A5.046265044040321,5.046265044040321,0,1,1,5.046265044040321,0" fill="#7f7f7f" transform="translate(91.42393410169734,-23.626653966627934)"><title>Person 562598</title></path><path d="M5.046265044040321,0A5.046265044040321,5.046265044040321,0,1,1,-5.046265044040321,0A5.046265044040321,5.046265044040321,0,1,1,5.046265044040321,0" fill="#7f7f7f" transform="translate(11.981340830091819,116.94622916834146)"><title>Person 573206</title></path><path d="M5.046265044040321,0A5.046265044040321,5.046265044040321,0,1,1,-5.046265044040321,0A5.046265044040321,5.046265044040321,0,1,1,5.046265044040321,0" fill="#8c564b" transform="translate(-44.56838455019628,82.77606771339782)"><title>Person 584811</title></path><path d="M5.046265044040321,0A5.046265044040321,5.046265044040321,0,1,1,-5.046265044040321,0A5.046265044040321,5.046265044040321,0,1,1,5.046265044040321,0" fill="#7f7f7f" transform="translate(100.70980188514432,66.60526384506147)"><title>Person 598220</title></path><path d="M5.046265044040321,0A5.046265044040321,5.046265044040321,0,1,1,-5.046265044040321,0A5.046265044040321,5.046265044040321,0,1,1,5.046265044040321,0" fill="#7f7f7f" transform="translate(-22.18917058060986,-116.0396440167787)"><title>Person 617074</title></path><path d="M5.046265044040321,0A5.046265044040321,5.046265044040321,0,1,1,-5.046265044040321,0A5.046265044040321,5.046265044040321,0,1,1,5.046265044040321,0" fill="#7f7f7f" transform="translate(113.45329284885564,-41.71445925205194)"><title>Person 634283</title></path><path d="M5.046265044040321,0A5.046265044040321,5.046265044040321,0,1,1,-5.046265044040321,0A5.046265044040321,5.046265044040321,0,1,1,5.046265044040321,0" fill="#7f7f7f" transform="translate(42.242284506535285,113.04018716665337)"><title>Person 645393</title></path><path d="M5.046265044040321,0A5.046265044040321,5.046265044040321,0,1,1,-5.046265044040321,0A5.046265044040321,5.046265044040321,0,1,1,5.046265044040321,0" fill="#7f7f7f" transform="translate(63.741919246747464,-100.90518460659497)"><title>Person 655636</title></path><path d="M5.046265044040321,0A5.046265044040321,5.046265044040321,0,1,1,-5.046265044040321,0A5.046265044040321,5.046265044040321,0,1,1,5.046265044040321,0" fill="#7f7f7f" transform="translate(3.9162205300003357,-13.407053053481695)"><title>Person 534034</title></path><path d="M5.046265044040321,0A5.046265044040321,5.046265044040321,0,1,1,-5.046265044040321,0A5.046265044040321,5.046265044040321,0,1,1,5.046265044040321,0" fill="#7f7f7f" transform="translate(3.1874215150323106,-27.10598670945947)"><title>Person 629627</title></path><path d="M5.046265044040321,0A5.046265044040321,5.046265044040321,0,1,1,-5.046265044040321,0A5.046265044040321,5.046265044040321,0,1,1,5.046265044040321,0" fill="#7f7f7f" transform="translate(10.0068778498769,59.22978715137016)"><title>Person 464459</title></path><path d="M5.046265044040321,0A5.046265044040321,5.046265044040321,0,1,1,-5.046265044040321,0A5.046265044040321,5.046265044040321,0,1,1,5.046265044040321,0" fill="#7f7f7f" transform="translate(-46.41896080646215,-37.63406044390834)"><title>Person 538892</title></path><path d="M5.046265044040321,0A5.046265044040321,5.046265044040321,0,1,1,-5.046265044040321,0A5.046265044040321,5.046265044040321,0,1,1,5.046265044040321,0" fill="#7f7f7f" transform="translate(-17.41522513197456,-42.93430937290414)"><title>Person 542965</title></path><path d="M5.046265044040321,0A5.046265044040321,5.046265044040321,0,1,1,-5.046265044040321,0A5.046265044040321,5.046265044040321,0,1,1,5.046265044040321,0" fill="#7f7f7f" transform="translate(32.24970961521505,41.46298189780335)"><title>Person 568093</title></path><path d="M5.046265044040321,0A5.046265044040321,5.046265044040321,0,1,1,-5.046265044040321,0A5.046265044040321,5.046265044040321,0,1,1,5.046265044040321,0" fill="#7f7f7f" transform="translate(-32.42564438639405,-43.54707299509469)"><title>Person 572391</title></path><path d="M5.046265044040321,0A5.046265044040321,5.046265044040321,0,1,1,-5.046265044040321,0A5.046265044040321,5.046265044040321,0,1,1,5.046265044040321,0" fill="#7f7f7f" transform="translate(17.54815449669587,-11.865373002870594)"><title>Person 585212</title></path><path d="M5.046265044040321,0A5.046265044040321,5.046265044040321,0,1,1,-5.046265044040321,0A5.046265044040321,5.046265044040321,0,1,1,5.046265044040321,0" fill="#7f7f7f" transform="translate(42.57160917135296,16.70234520557791)"><title>Person 598006</title></path><path d="M5.046265044040321,0A5.046265044040321,5.046265044040321,0,1,1,-5.046265044040321,0A5.046265044040321,5.046265044040321,0,1,1,5.046265044040321,0" fill="#7f7f7f" transform="translate(14.993190622996767,-25.607248607704914)"><title>Person 599441</title></path><path d="M5.046265044040321,0A5.046265044040321,5.046265044040321,0,1,1,-5.046265044040321,0A5.046265044040321,5.046265044040321,0,1,1,5.046265044040321,0" fill="#7f7f7f" transform="translate(34.170040001853565,10.67272087631223)"><title>Person 612711</title></path><path d="M5.046265044040321,0A5.046265044040321,5.046265044040321,0,1,1,-5.046265044040321,0A5.046265044040321,5.046265044040321,0,1,1,5.046265044040321,0" fill="#7f7f7f" transform="translate(23.04197715351478,51.93796921583637)"><title>Person 635665</title></path><path d="M5.046265044040321,0A5.046265044040321,5.046265044040321,0,1,1,-5.046265044040321,0A5.046265044040321,5.046265044040321,0,1,1,5.046265044040321,0" fill="#7f7f7f" transform="translate(24.366137251530347,3.9777520441181276)"><title>Person 643411</title></path><path d="M-6,-2L-2,-2L-2,-6L2,-6L2,-2L6,-2L6,2L2,2L2,6L-2,6L-2,2L-6,2Z" fill="#7f7f7f" transform="translate(-47.3228149558527,-1.780149689356879)"><title>Product 482264</title></path><path d="M0,-8.441862787462423L1.8953162830083747,-2.6086790655073533L8.028688613685706,-2.6086790655073537L3.0666861653386652,0.9964267372834953L4.962002448347041,6.829610459238564L6.661338147750939e-16,3.2245046564477153L-4.9620024483470395,6.829610459238565L-3.0666861653386652,0.9964267372834958L-8.028688613685707,-2.608679065507352L-1.8953162830083754,-2.608679065507353Z" fill="#d62728" transform="translate(-8.006652525296026,20.836643907851442)"><title>Country 625756</title></path><path d="M0,-8.441862787462423L1.8953162830083747,-2.6086790655073533L8.028688613685706,-2.6086790655073537L3.0666861653386652,0.9964267372834953L4.962002448347041,6.829610459238564L6.661338147750939e-16,3.2245046564477153L-4.9620024483470395,6.829610459238565L-3.0666861653386652,0.9964267372834958L-8.028688613685707,-2.608679065507352L-1.8953162830083754,-2.608679065507353Z" fill="#ff7f0e" transform="translate(45.329742308073406,-25.961150498019958)"><title>Country 657173</title></path><path d="M0,-8.441862787462423L1.8953162830083747,-2.6086790655073533L8.028688613685706,-2.6086790655073537L3.0666861653386652,0.9964267372834953L4.962002448347041,6.829610459238564L6.661338147750939e-16,3.2245046564477153L-4.9620024483470395,6.829610459238565L-3.0666861653386652,0.9964267372834958L-8.028688613685707,-2.608679065507352L-1.8953162830083754,-2.608679065507353Z" fill="#2ca02c" transform="translate(16.025457713445185,17.98026144195717)"><title>Country 499467</title></path><path d="M0,-8.441862787462423L1.8953162830083747,-2.6086790655073533L8.028688613685706,-2.6086790655073537L3.0666861653386652,0.9964267372834953L4.962002448347041,6.829610459238564L6.661338147750939e-16,3.2245046564477153L-4.9620024483470395,6.829610459238565L-3.0666861653386652,0.9964267372834958L-8.028688613685707,-2.608679065507352L-1.8953162830083754,-2.608679065507353Z" fill="#9467bd" transform="translate(-26.247735262204824,-8.382379015343307)"><title>Country 509607</title></path><path d="M0,-8.441862787462423L1.8953162830083747,-2.6086790655073533L8.028688613685706,-2.6086790655073537L3.0666861653386652,0.9964267372834953L4.962002448347041,6.829610459238564L6.661338147750939e-16,3.2245046564477153L-4.9620024483470395,6.829610459238565L-3.0666861653386652,0.9964267372834958L-8.028688613685707,-2.608679065507352L-1.8953162830083754,-2.608679065507353Z" fill="#1f77b4" transform="translate(-3.4115485854241934,38.2038745410977)"><title>Country 561157</title></path><path d="M0,-8.441862787462423L1.8953162830083747,-2.6086790655073533L8.028688613685706,-2.6086790655073537L3.0666861653386652,0.9964267372834953L4.962002448347041,6.829610459238564L6.661338147750939e-16,3.2245046564477153L-4.9620024483470395,6.829610459238565L-3.0666861653386652,0.9964267372834958L-8.028688613685707,-2.608679065507352L-1.8953162830083754,-2.608679065507353Z" fill="#8c564b" transform="translate(-55.211353489048044,68.77677864479098)"><title>Country 616453</title></path><path d="M-4.47213595499958,-4.47213595499958h8.94427190999916v8.94427190999916h-8.94427190999916Z" fill="#7f7f7f" transform="translate(-22.783200686034192,106.5619192001508)"><title>Document 593870</title></path><path d="M5.046265044040321,0A5.046265044040321,5.046265044040321,0,1,1,-5.046265044040321,0A5.046265044040321,5.046265044040321,0,1,1,5.046265044040321,0" fill="#7f7f7f" transform="translate(-33.02315116743067,9.093161739270618)"><title>Person 570847</title></path></g></svg>