<svg width="300" height="300" viewBox="-150,-150,300,300"><text x="-150" y="-130" font-family="sans-serif" font-size="12px" text-anchor="start">CGCS-Template</text><g stroke="#999" stroke-opacity="0.6"><line stroke-width="1" x1="-88.58981082991036" y1="35.461515112949094" x2="-108.95104942185867" y2="45.19507977617134"></line><line stroke-width="2.23606797749979" x1="-88.58981082991036" y1="35.461515112949094" x2="-80.73997185532623" y2="13.70428144025292"></line><line stroke-width="2" x1="-88.58981082991036" y1="35.461515112949094" x2="-65.55274881811432" y2="33.46867080966642"></line><line stroke-width="2.6457513110645907" x1="-88.58981082991036" y1="35.461515112949094" x2="-108.95104942185867" y2="45.19507977617134"></line><line stroke-width="2.6457513110645907" x1="-88.58981082991036" y1="35.461515112949094" x2="-80.73997185532623" y2="13.70428144025292"></line><line stroke-width="2.23606797749979" x1="-88.58981082991036" y1="35.461515112949094" x2="-65.55274881811432" y2="33.46867080966642"></line><line stroke-width="1.4142135623730951" x1="-88.58981082991036" y1="35.461515112949094" x2="-103.37485769949464" y2="-4.2711662116789135"></line><line stroke-width="1" x1="-88.58981082991036" y1="35.461515112949094" x2="-110.85548956037523" y2="26.34002886138973"></line><line stroke-width="1.4142135623730951" x1="-88.58981082991036" y1="35.461515112949094" x2="-76.45189368750133" y2="-4.468243262061669"></line><line stroke-width="1.4142135623730951" x1="-88.58981082991036" y1="35.461515112949094" x2="-100.68335819212626" y2="13.516447855751153"></line><line stroke-width="1" x1="-88.58981082991036" y1="35.461515112949094" x2="-89.99258379156637" y2="52.54979052180648"></line><line stroke-width="1.4142135623730951" x1="-88.58981082991036" y1="35.461515112949094" x2="-122.09258368554545" y2="5.455354043692549"></line><line stroke-width="2" x1="-108.95104942185867" y1="45.19507977617134" x2="-88.58981082991036" y2="35.461515112949094"></line><line stroke-width="2.6457513110645907" x1="-108.95104942185867" y1="45.19507977617134" x2="-80.73997185532623" y2="13.70428144025292"></line><line stroke-width="1.4142135623730951" x1="-108.95104942185867" y1="45.19507977617134" x2="-65.55274881811432" y2="33.46867080966642"></line><line stroke-width="1" x1="-108.95104942185867" y1="45.19507977617134" x2="-122.09258368554545" y2="5.455354043692549"></line><line stroke-width="2.6457513110645907" x1="-108.95104942185867" y1="45.19507977617134" x2="-88.58981082991036" y2="35.461515112949094"></line><line stroke-width="2.449489742783178" x1="-108.95104942185867" y1="45.19507977617134" x2="-80.73997185532623" y2="13.70428144025292"></line><line stroke-width="2" x1="-108.95104942185867" y1="45.19507977617134" x2="-65.55274881811432" y2="33.46867080966642"></line><line stroke-width="1" x1="-108.95104942185867" y1="45.19507977617134" x2="-103.37485769949464" y2="-4.2711662116789135"></line><line stroke-width="1" x1="-108.95104942185867" y1="45.19507977617134" x2="-110.85548956037523" y2="26.34002886138973"></line><line stroke-width="1" x1="-108.95104942185867" y1="45.19507977617134" x2="-100.68335819212626" y2="13.516447855751153"></line><line stroke-width="1" x1="-108.95104942185867" y1="45.19507977617134" x2="-122.09258368554545" y2="5.455354043692549"></line><line stroke-width="1.4142135623730951" x1="-108.95104942185867" y1="45.19507977617134" x2="-94.41207591924352" y2="-17.458137197744303"></line><line stroke-width="2.23606797749979" x1="-80.73997185532623" y1="13.70428144025292" x2="-88.58981082991036" y2="35.461515112949094"></line><line stroke-width="2.449489742783178" x1="-80.73997185532623" y1="13.70428144025292" x2="-108.95104942185867" y2="45.19507977617134"></line><line stroke-width="2.6457513110645907" x1="-80.73997185532623" y1="13.70428144025292" x2="-65.55274881811432" y2="33.46867080966642"></line><line stroke-width="1" x1="-80.73997185532623" y1="13.70428144025292" x2="-103.37485769949464" y2="-4.2711662116789135"></line><line stroke-width="2" x1="-80.73997185532623" y1="13.70428144025292" x2="-110.85548956037523" y2="26.34002886138973"></line><line stroke-width="1" x1="-80.73997185532623" y1="13.70428144025292" x2="-76.45189368750133" y2="-4.468243262061669"></line><line stroke-width="1" x1="-80.73997185532623" y1="13.70428144025292" x2="-100.68335819212626" y2="13.516447855751153"></line><line stroke-width="1" x1="-80.73997185532623" y1="13.70428144025292" x2="-122.09258368554545" y2="5.455354043692549"></line><line stroke-width="2" x1="-80.73997185532623" y1="13.70428144025292" x2="-94.41207591924352" y2="-17.458137197744303"></line><line stroke-width="2.23606797749979" x1="-80.73997185532623" y1="13.70428144025292" x2="-88.58981082991036" y2="35.461515112949094"></line><line stroke-width="1.7320508075688772" x1="-80.73997185532623" y1="13.70428144025292" x2="-108.95104942185867" y2="45.19507977617134"></line><line stroke-width="1.4142135623730951" x1="-80.73997185532623" y1="13.70428144025292" x2="-65.55274881811432" y2="33.46867080966642"></line><line stroke-width="1" x1="-41.10913687420702" y1="25.498380230645626" x2="-32.02032299364566" y2="53.513771797297004"></line><line stroke-width="3" x1="-41.10913687420702" y1="25.498380230645626" x2="-76.45189368750133" y2="-4.468243262061669"></line><line stroke-width="2.23606797749979" x1="-41.10913687420702" y1="25.498380230645626" x2="-35.436750880270324" y2="-5.386458792810982"></line><line stroke-width="3.872983346207417" x1="-41.10913687420702" y1="25.498380230645626" x2="-49.113526906673556" y2="-9.512440663675124"></line><line stroke-width="2" x1="-32.02032299364566" y1="53.513771797297004" x2="-45.06483944058672" y2="78.01011181698927"></line><line stroke-width="2" x1="-32.02032299364566" y1="53.513771797297004" x2="-41.10913687420702" y2="25.498380230645626"></line><line stroke-width="1.4142135623730951" x1="-32.02032299364566" y1="53.513771797297004" x2="-65.55274881811432" y2="33.46867080966642"></line><line stroke-width="1.4142135623730951" x1="-32.02032299364566" y1="53.513771797297004" x2="-61.84121032079321" y2="66.38286790020068"></line><line stroke-width="1.7320508075688772" x1="-32.02032299364566" y1="53.513771797297004" x2="-45.06483944058672" y2="78.01011181698927"></line><line stroke-width="1.7320508075688772" x1="-32.02032299364566" y1="53.513771797297004" x2="-41.10913687420702" y2="25.498380230645626"></line><line stroke-width="1.4142135623730951" x1="-32.02032299364566" y1="53.513771797297004" x2="-65.55274881811432" y2="33.46867080966642"></line><line stroke-width="1.7320508075688772" x1="-32.02032299364566" y1="53.513771797297004" x2="-61.84121032079321" y2="66.38286790020068"></line><line stroke-width="1.7320508075688772" x1="-65.55274881811432" y1="33.46867080966642" x2="-45.06483944058672" y2="78.01011181698927"></line><line stroke-width="1.4142135623730951" x1="-65.55274881811432" y1="33.46867080966642" x2="-88.58981082991036" y2="35.461515112949094"></line><line stroke-width="2.23606797749979" x1="-65.55274881811432" y1="33.46867080966642" x2="-108.95104942185867" y2="45.19507977617134"></line><line stroke-width="1.7320508075688772" x1="-65.55274881811432" y1="33.46867080966642" x2="-80.73997185532623" y2="13.70428144025292"></line><line stroke-width="2.449489742783178" x1="-65.55274881811432" y1="33.46867080966642" x2="-41.10913687420702" y2="25.498380230645626"></line><line stroke-width="1" x1="-65.55274881811432" y1="33.46867080966642" x2="-32.02032299364566" y2="53.513771797297004"></line><line stroke-width="1.7320508075688772" x1="-65.55274881811432" y1="33.46867080966642" x2="-103.37485769949464" y2="-4.2711662116789135"></line><line stroke-width="1.4142135623730951" x1="-65.55274881811432" y1="33.46867080966642" x2="-110.85548956037523" y2="26.34002886138973"></line><line stroke-width="2.23606797749979" x1="-65.55274881811432" y1="33.46867080966642" x2="-100.68335819212626" y2="13.516447855751153"></line><line stroke-width="1.7320508075688772" x1="-65.55274881811432" y1="33.46867080966642" x2="-89.99258379156637" y2="52.54979052180648"></line><line stroke-width="2" x1="-65.55274881811432" y1="33.46867080966642" x2="-94.41207591924352" y2="-17.458137197744303"></line><line stroke-width="2.23606797749979" x1="-65.55274881811432" y1="33.46867080966642" x2="-61.84121032079321" y2="66.38286790020068"></line><line stroke-width="1.7320508075688772" x1="-65.55274881811432" y1="33.46867080966642" x2="-45.06483944058672" y2="78.01011181698927"></line><line stroke-width="2.23606797749979" x1="-65.55274881811432" y1="33.46867080966642" x2="-88.58981082991036" y2="35.461515112949094"></line><line stroke-width="2.449489742783178" x1="-65.55274881811432" y1="33.46867080966642" x2="-108.95104942185867" y2="45.19507977617134"></line><line stroke-width="2.449489742783178" x1="-65.55274881811432" y1="33.46867080966642" x2="-80.73997185532623" y2="13.70428144025292"></line><line stroke-width="1.7320508075688772" x1="-65.55274881811432" y1="33.46867080966642" x2="-41.10913687420702" y2="25.498380230645626"></line><line stroke-width="1.4142135623730951" x1="-65.55274881811432" y1="33.46867080966642" x2="-32.02032299364566" y2="53.513771797297004"></line><line stroke-width="1.7320508075688772" x1="-65.55274881811432" y1="33.46867080966642" x2="-103.37485769949464" y2="-4.2711662116789135"></line><line stroke-width="2.23606797749979" x1="-65.55274881811432" y1="33.46867080966642" x2="-110.85548956037523" y2="26.34002886138973"></line><line stroke-width="2.449489742783178" x1="-65.55274881811432" y1="33.46867080966642" x2="-76.45189368750133" y2="-4.468243262061669"></line><line stroke-width="2.6457513110645907" x1="-65.55274881811432" y1="33.46867080966642" x2="-100.68335819212626" y2="13.516447855751153"></line><line stroke-width="2.6457513110645907" x1="-65.55274881811432" y1="33.46867080966642" x2="-89.99258379156637" y2="52.54979052180648"></line><line stroke-width="3" x1="-65.55274881811432" y1="33.46867080966642" x2="-122.09258368554545" y2="5.455354043692549"></line><line stroke-width="2.8284271247461903" x1="-65.55274881811432" y1="33.46867080966642" x2="-94.41207591924352" y2="-17.458137197744303"></line><line stroke-width="2.23606797749979" x1="-65.55274881811432" y1="33.46867080966642" x2="-61.84121032079321" y2="66.38286790020068"></line><line stroke-width="1.7320508075688772" x1="-103.37485769949464" y1="-4.2711662116789135" x2="-65.55274881811432" y2="33.46867080966642"></line><line stroke-width="2" x1="-103.37485769949464" y1="-4.2711662116789135" x2="-110.85548956037523" y2="26.34002886138973"></line><line stroke-width="2" x1="-103.37485769949464" y1="-4.2711662116789135" x2="-76.45189368750133" y2="-4.468243262061669"></line><line stroke-width="1" x1="-103.37485769949464" y1="-4.2711662116789135" x2="-122.09258368554545" y2="5.455354043692549"></line><line stroke-width="2" x1="-103.37485769949464" y1="-4.2711662116789135" x2="-94.41207591924352" y2="-17.458137197744303"></line><line stroke-width="1" x1="-103.37485769949464" y1="-4.2711662116789135" x2="-88.58981082991036" y2="35.461515112949094"></line><line stroke-width="1" x1="-103.37485769949464" y1="-4.2711662116789135" x2="-80.73997185532623" y2="13.70428144025292"></line><line stroke-width="1" x1="-103.37485769949464" y1="-4.2711662116789135" x2="-65.55274881811432" y2="33.46867080966642"></line><line stroke-width="2.23606797749979" x1="-103.37485769949464" y1="-4.2711662116789135" x2="-110.85548956037523" y2="26.34002886138973"></line><line stroke-width="1" x1="-103.37485769949464" y1="-4.2711662116789135" x2="-76.45189368750133" y2="-4.468243262061669"></line><line stroke-width="1" x1="-103.37485769949464" y1="-4.2711662116789135" x2="-122.09258368554545" y2="5.455354043692549"></line><line stroke-width="1" x1="-110.85548956037523" y1="26.34002886138973" x2="-65.55274881811432" y2="33.46867080966642"></line><line stroke-width="1.7320508075688772" x1="-110.85548956037523" y1="26.34002886138973" x2="-103.37485769949464" y2="-4.2711662116789135"></line><line stroke-width="2" x1="-110.85548956037523" y1="26.34002886138973" x2="-76.45189368750133" y2="-4.468243262061669"></line><line stroke-width="1" x1="-110.85548956037523" y1="26.34002886138973" x2="-100.68335819212626" y2="13.516447855751153"></line><line stroke-width="1.7320508075688772" x1="-110.85548956037523" y1="26.34002886138973" x2="-122.09258368554545" y2="5.455354043692549"></line><line stroke-width="1.7320508075688772" x1="-110.85548956037523" y1="26.34002886138973" x2="-94.41207591924352" y2="-17.458137197744303"></line><line stroke-width="4.123105625617661" x1="-76.45189368750133" y1="-4.468243262061669" x2="-41.10913687420702" y2="25.498380230645626"></line><line stroke-width="1.4142135623730951" x1="-76.45189368750133" y1="-4.468243262061669" x2="-65.55274881811432" y2="33.46867080966642"></line><line stroke-width="1" x1="-76.45189368750133" y1="-4.468243262061669" x2="-103.37485769949464" y2="-4.2711662116789135"></line><line stroke-width="1" x1="-76.45189368750133" y1="-4.468243262061669" x2="-110.85548956037523" y2="26.34002886138973"></line><line stroke-width="1" x1="-76.45189368750133" y1="-4.468243262061669" x2="-100.68335819212626" y2="13.516447855751153"></line><line stroke-width="2.449489742783178" x1="-76.45189368750133" y1="-4.468243262061669" x2="-122.09258368554545" y2="5.455354043692549"></line><line stroke-width="2.23606797749979" x1="-76.45189368750133" y1="-4.468243262061669" x2="-94.41207591924352" y2="-17.458137197744303"></line><line stroke-width="2.23606797749979" x1="-76.45189368750133" y1="-4.468243262061669" x2="-49.113526906673556" y2="-9.512440663675124"></line><line stroke-width="1.4142135623730951" x1="-76.45189368750133" y1="-4.468243262061669" x2="-88.58981082991036" y2="35.461515112949094"></line><line stroke-width="1.4142135623730951" x1="-76.45189368750133" y1="-4.468243262061669" x2="-110.85548956037523" y2="26.34002886138973"></line><line stroke-width="1" x1="-76.45189368750133" y1="-4.468243262061669" x2="-100.68335819212626" y2="13.516447855751153"></line><line stroke-width="1.4142135623730951" x1="-76.45189368750133" y1="-4.468243262061669" x2="-89.99258379156637" y2="52.54979052180648"></line><line stroke-width="1" x1="-76.45189368750133" y1="-4.468243262061669" x2="-122.09258368554545" y2="5.455354043692549"></line><line stroke-width="1" x1="-76.45189368750133" y1="-4.468243262061669" x2="-94.41207591924352" y2="-17.458137197744303"></line><line stroke-width="1" x1="-100.68335819212626" y1="13.516447855751153" x2="-108.95104942185867" y2="45.19507977617134"></line><line stroke-width="1" x1="-100.68335819212626" y1="13.516447855751153" x2="-80.73997185532623" y2="13.70428144025292"></line><line stroke-width="2.6457513110645907" x1="-100.68335819212626" y1="13.516447855751153" x2="-65.55274881811432" y2="33.46867080966642"></line><line stroke-width="1" x1="-100.68335819212626" y1="13.516447855751153" x2="-76.45189368750133" y2="-4.468243262061669"></line><line stroke-width="3.1622776601683795" x1="-100.68335819212626" y1="13.516447855751153" x2="-89.99258379156637" y2="52.54979052180648"></line><line stroke-width="1" x1="-100.68335819212626" y1="13.516447855751153" x2="-122.09258368554545" y2="5.455354043692549"></line><line stroke-width="1.7320508075688772" x1="-100.68335819212626" y1="13.516447855751153" x2="-108.95104942185867" y2="45.19507977617134"></line><line stroke-width="1" x1="-100.68335819212626" y1="13.516447855751153" x2="-80.73997185532623" y2="13.70428144025292"></line><line stroke-width="1.4142135623730951" x1="-100.68335819212626" y1="13.516447855751153" x2="-65.55274881811432" y2="33.46867080966642"></line><line stroke-width="1.7320508075688772" x1="-100.68335819212626" y1="13.516447855751153" x2="-103.37485769949464" y2="-4.2711662116789135"></line><line stroke-width="1.4142135623730951" x1="-100.68335819212626" y1="13.516447855751153" x2="-110.85548956037523" y2="26.34002886138973"></line><line stroke-width="1" x1="-100.68335819212626" y1="13.516447855751153" x2="-76.45189368750133" y2="-4.468243262061669"></line><line stroke-width="1" x1="-100.68335819212626" y1="13.516447855751153" x2="-122.09258368554545" y2="5.455354043692549"></line><line stroke-width="1.4142135623730951" x1="-100.68335819212626" y1="13.516447855751153" x2="-94.41207591924352" y2="-17.458137197744303"></line><line stroke-width="1.4142135623730951" x1="-89.99258379156637" y1="52.54979052180648" x2="-88.58981082991036" y2="35.461515112949094"></line><line stroke-width="1.4142135623730951" x1="-89.99258379156637" y1="52.54979052180648" x2="-108.95104942185867" y2="45.19507977617134"></line><line stroke-width="1" x1="-89.99258379156637" y1="52.54979052180648" x2="-80.73997185532623" y2="13.70428144025292"></line><line stroke-width="1.4142135623730951" x1="-89.99258379156637" y1="52.54979052180648" x2="-65.55274881811432" y2="33.46867080966642"></line><line stroke-width="1.7320508075688772" x1="-89.99258379156637" y1="52.54979052180648" x2="-103.37485769949464" y2="-4.2711662116789135"></line><line stroke-width="1" x1="-89.99258379156637" y1="52.54979052180648" x2="-110.85548956037523" y2="26.34002886138973"></line><line stroke-width="1" x1="-89.99258379156637" y1="52.54979052180648" x2="-122.09258368554545" y2="5.455354043692549"></line><line stroke-width="1" x1="-89.99258379156637" y1="52.54979052180648" x2="-94.41207591924352" y2="-17.458137197744303"></line><line stroke-width="1.7320508075688772" x1="-89.99258379156637" y1="52.54979052180648" x2="-65.55274881811432" y2="33.46867080966642"></line><line stroke-width="1.7320508075688772" x1="-89.99258379156637" y1="52.54979052180648" x2="-100.68335819212626" y2="13.516447855751153"></line><line stroke-width="1.7320508075688772" x1="-122.09258368554545" y1="5.455354043692549" x2="-88.58981082991036" y2="35.461515112949094"></line><line stroke-width="1.4142135623730951" x1="-122.09258368554545" y1="5.455354043692549" x2="-108.95104942185867" y2="45.19507977617134"></line><line stroke-width="1.4142135623730951" x1="-122.09258368554545" y1="5.455354043692549" x2="-80.73997185532623" y2="13.70428144025292"></line><line stroke-width="1.4142135623730951" x1="-122.09258368554545" y1="5.455354043692549" x2="-65.55274881811432" y2="33.46867080966642"></line><line stroke-width="1.7320508075688772" x1="-122.09258368554545" y1="5.455354043692549" x2="-103.37485769949464" y2="-4.2711662116789135"></line><line stroke-width="1.7320508075688772" x1="-122.09258368554545" y1="5.455354043692549" x2="-76.45189368750133" y2="-4.468243262061669"></line><line stroke-width="1.7320508075688772" x1="-122.09258368554545" y1="5.455354043692549" x2="-100.68335819212626" y2="13.516447855751153"></line><line stroke-width="2.6457513110645907" x1="-122.09258368554545" y1="5.455354043692549" x2="-94.41207591924352" y2="-17.458137197744303"></line><line stroke-width="1" x1="-122.09258368554545" y1="5.455354043692549" x2="-80.73997185532623" y2="13.70428144025292"></line><line stroke-width="1.4142135623730951" x1="-122.09258368554545" y1="5.455354043692549" x2="-103.37485769949464" y2="-4.2711662116789135"></line><line stroke-width="1.4142135623730951" x1="-122.09258368554545" y1="5.455354043692549" x2="-110.85548956037523" y2="26.34002886138973"></line><line stroke-width="1" x1="-122.09258368554545" y1="5.455354043692549" x2="-76.45189368750133" y2="-4.468243262061669"></line><line stroke-width="1" x1="-122.09258368554545" y1="5.455354043692549" x2="-100.68335819212626" y2="13.516447855751153"></line><line stroke-width="1" x1="-94.41207591924352" y1="-17.458137197744303" x2="-108.95104942185867" y2="45.19507977617134"></line><line stroke-width="3" x1="-94.41207591924352" y1="-17.458137197744303" x2="-65.55274881811432" y2="33.46867080966642"></line><line stroke-width="1.4142135623730951" x1="-94.41207591924352" y1="-17.458137197744303" x2="-103.37485769949464" y2="-4.2711662116789135"></line><line stroke-width="2.449489742783178" x1="-94.41207591924352" y1="-17.458137197744303" x2="-110.85548956037523" y2="26.34002886138973"></line><line stroke-width="1.7320508075688772" x1="-94.41207591924352" y1="-17.458137197744303" x2="-76.45189368750133" y2="-4.468243262061669"></line><line stroke-width="1" x1="-94.41207591924352" y1="-17.458137197744303" x2="-100.68335819212626" y2="13.516447855751153"></line><line stroke-width="3.3166247903554" x1="-94.41207591924352" y1="-17.458137197744303" x2="-122.09258368554545" y2="5.455354043692549"></line><line stroke-width="1.4142135623730951" x1="-94.41207591924352" y1="-17.458137197744303" x2="-88.58981082991036" y2="35.461515112949094"></line><line stroke-width="1.7320508075688772" x1="-94.41207591924352" y1="-17.458137197744303" x2="-80.73997185532623" y2="13.70428144025292"></line><line stroke-width="2.23606797749979" x1="-94.41207591924352" y1="-17.458137197744303" x2="-65.55274881811432" y2="33.46867080966642"></line><line stroke-width="1.4142135623730951" x1="-94.41207591924352" y1="-17.458137197744303" x2="-103.37485769949464" y2="-4.2711662116789135"></line><line stroke-width="1" x1="-94.41207591924352" y1="-17.458137197744303" x2="-110.85548956037523" y2="26.34002886138973"></line><line stroke-width="1.4142135623730951" x1="-94.41207591924352" y1="-17.458137197744303" x2="-76.45189368750133" y2="-4.468243262061669"></line><line stroke-width="2" x1="-94.41207591924352" y1="-17.458137197744303" x2="-100.68335819212626" y2="13.516447855751153"></line><line stroke-width="2.8284271247461903" x1="-94.41207591924352" y1="-17.458137197744303" x2="-122.09258368554545" y2="5.455354043692549"></line><line stroke-width="1" x1="-61.84121032079321" y1="66.38286790020068" x2="-45.06483944058672" y2="78.01011181698927"></line><line stroke-width="1" x1="-61.84121032079321" y1="66.38286790020068" x2="-41.10913687420702" y2="25.498380230645626"></line><line stroke-width="1.7320508075688772" x1="-61.84121032079321" y1="66.38286790020068" x2="-65.55274881811432" y2="33.46867080966642"></line><line stroke-width="2" x1="-61.84121032079321" y1="66.38286790020068" x2="-45.06483944058672" y2="78.01011181698927"></line><line stroke-width="1.4142135623730951" x1="-61.84121032079321" y1="66.38286790020068" x2="-41.10913687420702" y2="25.498380230645626"></line><line stroke-width="2" x1="-61.84121032079321" y1="66.38286790020068" x2="-32.02032299364566" y2="53.513771797297004"></line><line stroke-width="1.4142135623730951" x1="-61.84121032079321" y1="66.38286790020068" x2="-65.55274881811432" y2="33.46867080966642"></line><line stroke-width="4.69041575982343" x1="-49.113526906673556" y1="-9.512440663675124" x2="-41.10913687420702" y2="25.498380230645626"></line><line stroke-width="1.7320508075688772" x1="-49.113526906673556" y1="-9.512440663675124" x2="-76.45189368750133" y2="-4.468243262061669"></line></g><g stroke="#fff" stroke-width="1.5"><path d="M5.046265044040321,0A5.046265044040321,5.046265044040321,0,1,1,-5.046265044040321,0A5.046265044040321,5.046265044040321,0,1,1,5.046265044040321,0" fill="#8c564b" transform="translate(-45.06483944058672,78.01011181698927)"><title>Person 0</title></path><path d="M5.046265044040321,0A5.046265044040321,5.046265044040321,0,1,1,-5.046265044040321,0A5.046265044040321,5.046265044040321,0,1,1,5.046265044040321,0" fill="#8c564b" transform="translate(-65.55274881811432,33.46867080966642)"><title>Person 41</title></path><path d="M5.046265044040321,0A5.046265044040321,5.046265044040321,0,1,1,-5.046265044040321,0A5.046265044040321,5.046265044040321,0,1,1,5.046265044040321,0" fill="#8c564b" transform="translate(-80.73997185532623,13.70428144025292)"><title>Person 37</title></path><path d="M5.046265044040321,0A5.046265044040321,5.046265044040321,0,1,1,-5.046265044040321,0A5.046265044040321,5.046265044040321,0,1,1,5.046265044040321,0" fill="#8c564b" transform="translate(-108.95104942185867,45.19507977617134)"><title>Person 34</title></path><path d="M5.046265044040321,0A5.046265044040321,5.046265044040321,0,1,1,-5.046265044040321,0A5.046265044040321,5.046265044040321,0,1,1,5.046265044040321,0" fill="#8c564b" transform="translate(-88.58981082991036,35.461515112949094)"><title>Person 27</title></path><path d="M5.046265044040321,0A5.046265044040321,5.046265044040321,0,1,1,-5.046265044040321,0A5.046265044040321,5.046265044040321,0,1,1,5.046265044040321,0" fill="#8c564b" transform="translate(-32.02032299364566,53.513771797297004)"><title>Person 40</title></path><path d="M5.046265044040321,0A5.046265044040321,5.046265044040321,0,1,1,-5.046265044040321,0A5.046265044040321,5.046265044040321,0,1,1,5.046265044040321,0" fill="#8c564b" transform="translate(-61.84121032079321,66.38286790020068)"><title>Person 65</title></path><path d="M5.046265044040321,0A5.046265044040321,5.046265044040321,0,1,1,-5.046265044040321,0A5.046265044040321,5.046265044040321,0,1,1,5.046265044040321,0" fill="#7f7f7f" transform="translate(-49.113526906673556,-9.512440663675124)"><title>Person 67</title></path><path d="M5.046265044040321,0A5.046265044040321,5.046265044040321,0,1,1,-5.046265044040321,0A5.046265044040321,5.046265044040321,0,1,1,5.046265044040321,0" fill="#d62728" transform="translate(-76.45189368750133,-4.468243262061669)"><title>Person 47</title></path><path d="M5.046265044040321,0A5.046265044040321,5.046265044040321,0,1,1,-5.046265044040321,0A5.046265044040321,5.046265044040321,0,1,1,5.046265044040321,0" fill="#8c564b" transform="translate(-41.10913687420702,25.498380230645626)"><title>Person 39</title></path><path d="M5.046265044040321,0A5.046265044040321,5.046265044040321,0,1,1,-5.046265044040321,0A5.046265044040321,5.046265044040321,0,1,1,5.046265044040321,0" fill="#7f7f7f" transform="translate(39.13922711552447,-36.349933492424476)"><title>Person 78</title></path><path d="M5.046265044040321,0A5.046265044040321,5.046265044040321,0,1,1,-5.046265044040321,0A5.046265044040321,5.046265044040321,0,1,1,5.046265044040321,0" fill="#7f7f7f" transform="translate(22.16278391373284,-36.24783839212109)"><title>Person 80</title></path><path d="M5.046265044040321,0A5.046265044040321,5.046265044040321,0,1,1,-5.046265044040321,0A5.046265044040321,5.046265044040321,0,1,1,5.046265044040321,0" fill="#d62728" transform="translate(-103.37485769949464,-4.2711662116789135)"><title>Person 43</title></path><path d="M5.046265044040321,0A5.046265044040321,5.046265044040321,0,1,1,-5.046265044040321,0A5.046265044040321,5.046265044040321,0,1,1,5.046265044040321,0" fill="#1f77b4" transform="translate(-89.99258379156637,52.54979052180648)"><title>Person 57</title></path><path d="M5.046265044040321,0A5.046265044040321,5.046265044040321,0,1,1,-5.046265044040321,0A5.046265044040321,5.046265044040321,0,1,1,5.046265044040321,0" fill="#9467bd" transform="translate(-122.09258368554545,5.455354043692549)"><title>Person 58</title></path><path d="M5.046265044040321,0A5.046265044040321,5.046265044040321,0,1,1,-5.046265044040321,0A5.046265044040321,5.046265044040321,0,1,1,5.046265044040321,0" fill="#9467bd" transform="translate(-94.41207591924352,-17.458137197744303)"><title>Person 63</title></path><path d="M5.046265044040321,0A5.046265044040321,5.046265044040321,0,1,1,-5.046265044040321,0A5.046265044040321,5.046265044040321,0,1,1,5.046265044040321,0" fill="#7f7f7f" transform="translate(26.155143808383045,-22.82077464974821)"><title>Person 77</title></path><path d="M5.046265044040321,0A5.046265044040321,5.046265044040321,0,1,1,-5.046265044040321,0A5.046265044040321,5.046265044040321,0,1,1,5.046265044040321,0" fill="#1f77b4" transform="translate(-100.68335819212626,13.516447855751153)"><title>Person 56</title></path><path d="M5.046265044040321,0A5.046265044040321,5.046265044040321,0,1,1,-5.046265044040321,0A5.046265044040321,5.046265044040321,0,1,1,5.046265044040321,0" fill="#7f7f7f" transform="translate(40.36833036702969,-21.48000387738274)"><title>Person 79</title></path><path d="M5.046265044040321,0A5.046265044040321,5.046265044040321,0,1,1,-5.046265044040321,0A5.046265044040321,5.046265044040321,0,1,1,5.046265044040321,0" fill="#d62728" transform="translate(-110.85548956037523,26.34002886138973)"><title>Person 45</title></path><path d="M5.046265044040321,0A5.046265044040321,5.046265044040321,0,1,1,-5.046265044040321,0A5.046265044040321,5.046265044040321,0,1,1,5.046265044040321,0" fill="#7f7f7f" transform="translate(20.594634879208748,46.10824119500429)"><title>Person 82</title></path><path d="M5.046265044040321,0A5.046265044040321,5.046265044040321,0,1,1,-5.046265044040321,0A5.046265044040321,5.046265044040321,0,1,1,5.046265044040321,0" fill="#7f7f7f" transform="translate(4.723182233144339,51.112021595862686)"><title>Person 83</title></path><path d="M5.046265044040321,0A5.046265044040321,5.046265044040321,0,1,1,-5.046265044040321,0A5.046265044040321,5.046265044040321,0,1,1,5.046265044040321,0" fill="#7f7f7f" transform="translate(34.09692550578035,34.323982706307156)"><title>Person 84</title></path><path d="M5.046265044040321,0A5.046265044040321,5.046265044040321,0,1,1,-5.046265044040321,0A5.046265044040321,5.046265044040321,0,1,1,5.046265044040321,0" fill="#7f7f7f" transform="translate(1.1906842306788712,-44.65759949450189)"><title>Person 73</title></path><path d="M5.046265044040321,0A5.046265044040321,5.046265044040321,0,1,1,-5.046265044040321,0A5.046265044040321,5.046265044040321,0,1,1,5.046265044040321,0" fill="#7f7f7f" transform="translate(-8.800266367170648,-54.714584665461494)"><title>Person 75</title></path><path d="M5.046265044040321,0A5.046265044040321,5.046265044040321,0,1,1,-5.046265044040321,0A5.046265044040321,5.046265044040321,0,1,1,5.046265044040321,0" fill="#7f7f7f" transform="translate(-19.9258928064168,-47.91324771901837)"><title>Person 74</title></path><path d="M5.046265044040321,0A5.046265044040321,5.046265044040321,0,1,1,-5.046265044040321,0A5.046265044040321,5.046265044040321,0,1,1,5.046265044040321,0" fill="#7f7f7f" transform="translate(33.442730816873954,8.295883835179172)"><title>Person 87</title></path><path d="M5.046265044040321,0A5.046265044040321,5.046265044040321,0,1,1,-5.046265044040321,0A5.046265044040321,5.046265044040321,0,1,1,5.046265044040321,0" fill="#7f7f7f" transform="translate(20.729534954617673,0.3398929093290235)"><title>Person 85</title></path><path d="M5.046265044040321,0A5.046265044040321,5.046265044040321,0,1,1,-5.046265044040321,0A5.046265044040321,5.046265044040321,0,1,1,5.046265044040321,0" fill="#7f7f7f" transform="translate(23.039034187536807,18.070667512121485)"><title>Person 86</title></path><path d="M5.046265044040321,0A5.046265044040321,5.046265044040321,0,1,1,-5.046265044040321,0A5.046265044040321,5.046265044040321,0,1,1,5.046265044040321,0" fill="#7f7f7f" transform="translate(94.10480864207618,29.507197730515827)"><title>Person 2</title></path><path d="M5.046265044040321,0A5.046265044040321,5.046265044040321,0,1,1,-5.046265044040321,0A5.046265044040321,5.046265044040321,0,1,1,5.046265044040321,0" fill="#7f7f7f" transform="translate(-92.69575147816667,-77.3699964772061)"><title>Person 29</title></path><path d="M5.046265044040321,0A5.046265044040321,5.046265044040321,0,1,1,-5.046265044040321,0A5.046265044040321,5.046265044040321,0,1,1,5.046265044040321,0" fill="#7f7f7f" transform="translate(85.24724797557208,-69.69200393770234)"><title>Person 31</title></path><path d="M5.046265044040321,0A5.046265044040321,5.046265044040321,0,1,1,-5.046265044040321,0A5.046265044040321,5.046265044040321,0,1,1,5.046265044040321,0" fill="#7f7f7f" transform="translate(80.0187475435335,91.1155097592299)"><title>Person 33</title></path><path d="M5.046265044040321,0A5.046265044040321,5.046265044040321,0,1,1,-5.046265044040321,0A5.046265044040321,5.046265044040321,0,1,1,5.046265044040321,0" fill="#7f7f7f" transform="translate(-25.74186836419847,-105.10961833276032)"><title>Person 35</title></path><path d="M5.046265044040321,0A5.046265044040321,5.046265044040321,0,1,1,-5.046265044040321,0A5.046265044040321,5.046265044040321,0,1,1,5.046265044040321,0" fill="#7f7f7f" transform="translate(101.90223630125529,-6.417733892869777)"><title>Person 36</title></path><path d="M5.046265044040321,0A5.046265044040321,5.046265044040321,0,1,1,-5.046265044040321,0A5.046265044040321,5.046265044040321,0,1,1,5.046265044040321,0" fill="#7f7f7f" transform="translate(14.801427879196872,111.78545424517962)"><title>Person 38</title></path><path d="M5.046265044040321,0A5.046265044040321,5.046265044040321,0,1,1,-5.046265044040321,0A5.046265044040321,5.046265044040321,0,1,1,5.046265044040321,0" fill="#7f7f7f" transform="translate(49.24681263534347,-106.24319849942835)"><title>Person 42</title></path><path d="M5.046265044040321,0A5.046265044040321,5.046265044040321,0,1,1,-5.046265044040321,0A5.046265044040321,5.046265044040321,0,1,1,5.046265044040321,0" fill="#7f7f7f" transform="translate(105.74306607133336,58.2232642746685)"><title>Person 44</title></path><path d="M5.046265044040321,0A5.046265044040321,5.046265044040321,0,1,1,-5.046265044040321,0A5.046265044040321,5.046265044040321,0,1,1,5.046265044040321,0" fill="#7f7f7f" transform="translate(-61.72082182010553,-82.44625484688284)"><title>Person 46</title></path><path d="M5.046265044040321,0A5.046265044040321,5.046265044040321,0,1,1,-5.046265044040321,0A5.046265044040321,5.046265044040321,0,1,1,5.046265044040321,0" fill="#7f7f7f" transform="translate(103.20639591358906,-51.85461305152751)"><title>Person 48</title></path><path d="M5.046265044040321,0A5.046265044040321,5.046265044040321,0,1,1,-5.046265044040321,0A5.046265044040321,5.046265044040321,0,1,1,5.046265044040321,0" fill="#7f7f7f" transform="translate(51.48653102183955,84.44745522560243)"><title>Person 49</title></path><path d="M5.046265044040321,0A5.046265044040321,5.046265044040321,0,1,1,-5.046265044040321,0A5.046265044040321,5.046265044040321,0,1,1,5.046265044040321,0" fill="#7f7f7f" transform="translate(-2.8361076882506246,-115.97462720752749)"><title>Person 52</title></path><path d="M5.046265044040321,0A5.046265044040321,5.046265044040321,0,1,1,-5.046265044040321,0A5.046265044040321,5.046265044040321,0,1,1,5.046265044040321,0" fill="#7f7f7f" transform="translate(120.34783170231945,17.102551069679716)"><title>Person 53</title></path><path d="M5.046265044040321,0A5.046265044040321,5.046265044040321,0,1,1,-5.046265044040321,0A5.046265044040321,5.046265044040321,0,1,1,5.046265044040321,0" fill="#7f7f7f" transform="translate(-23.842735160138954,121.68265431474637)"><title>Person 54</title></path><path d="M5.046265044040321,0A5.046265044040321,5.046265044040321,0,1,1,-5.046265044040321,0A5.046265044040321,5.046265044040321,0,1,1,5.046265044040321,0" fill="#7f7f7f" transform="translate(72.33517406111827,-92.14349740170493)"><title>Person 55</title></path><path d="M5.046265044040321,0A5.046265044040321,5.046265044040321,0,1,1,-5.046265044040321,0A5.046265044040321,5.046265044040321,0,1,1,5.046265044040321,0" fill="#7f7f7f" transform="translate(77.38000091436379,59.3005528804242)"><title>Person 59</title></path><path d="M5.046265044040321,0A5.046265044040321,5.046265044040321,0,1,1,-5.046265044040321,0A5.046265044040321,5.046265044040321,0,1,1,5.046265044040321,0" fill="#7f7f7f" transform="translate(-53.6274177535786,-108.8331451333889)"><title>Person 60</title></path><path d="M5.046265044040321,0A5.046265044040321,5.046265044040321,0,1,1,-5.046265044040321,0A5.046265044040321,5.046265044040321,0,1,1,5.046265044040321,0" fill="#7f7f7f" transform="translate(117.28264971840125,-27.756406121761138)"><title>Person 61</title></path><path d="M5.046265044040321,0A5.046265044040321,5.046265044040321,0,1,1,-5.046265044040321,0A5.046265044040321,5.046265044040321,0,1,1,5.046265044040321,0" fill="#7f7f7f" transform="translate(42.89888393410731,110.61646675901054)"><title>Person 62</title></path><path d="M5.046265044040321,0A5.046265044040321,5.046265044040321,0,1,1,-5.046265044040321,0A5.046265044040321,5.046265044040321,0,1,1,5.046265044040321,0" fill="#7f7f7f" transform="translate(22.453840832247618,-112.29224436493695)"><title>Person 64</title></path><path d="M-4.47213595499958,-4.47213595499958h8.94427190999916v8.94427190999916h-8.94427190999916Z" fill="#7f7f7f" transform="translate(-18.58364682505362,97.10003236178994)"><title>Document -99</title></path><path d="M5.046265044040321,0A5.046265044040321,5.046265044040321,0,1,1,-5.046265044040321,0A5.046265044040321,5.046265044040321,0,1,1,5.046265044040321,0" fill="#7f7f7f" transform="translate(-35.436750880270324,-5.386458792810982)"><title>Person 66</title></path><path d="M-6,-2L-2,-2L-2,-6L2,-6L2,-2L6,-2L6,2L2,2L2,6L-2,6L-2,2L-6,2Z" fill="#7f7f7f" transform="translate(-56.322725012045446,-27.14604040204801)"><title>Product 657187</title></path><path d="M0,-8.441862787462423L1.8953162830083747,-2.6086790655073533L8.028688613685706,-2.6086790655073537L3.0666861653386652,0.9964267372834953L4.962002448347041,6.829610459238564L6.661338147750939e-16,3.2245046564477153L-4.9620024483470395,6.829610459238565L-3.0666861653386652,0.9964267372834958L-8.028688613685707,-2.608679065507352L-1.8953162830083754,-2.608679065507353Z" fill="#ff7f0e" transform="translate(63.33696118667552,-8.681132585779897)"><title>Country 81</title></path><path d="M0,-8.441862787462423L1.8953162830083747,-2.6086790655073533L8.028688613685706,-2.6086790655073537L3.0666861653386652,0.9964267372834953L4.962002448347041,6.829610459238564L6.661338147750939e-16,3.2245046564477153L-4.9620024483470395,6.829610459238565L-3.0666861653386652,0.9964267372834958L-8.028688613685707,-2.608679065507352L-1.8953162830083754,-2.608679065507353Z" fill="#d62728" transform="translate(-5.028791903955869,-14.732090388944933)"><title>Country 70</title></path><path d="M0,-8.441862787462423L1.8953162830083747,-2.6086790655073533L8.028688613685706,-2.6086790655073537L3.0666861653386652,0.9964267372834953L4.962002448347041,6.829610459238564L6.661338147750939e-16,3.2245046564477153L-4.9620024483470395,6.829610459238565L-3.0666861653386652,0.9964267372834958L-8.028688613685707,-2.608679065507352L-1.8953162830083754,-2.608679065507353Z" fill="#9467bd" transform="translate(1.1785009625041873,14.57388093067935)"><title>Country 69</title></path><path d="M0,-8.441862787462423L1.8953162830083747,-2.6086790655073533L8.028688613685706,-2.6086790655073537L3.0666861653386652,0.9964267372834953L4.962002448347041,6.829610459238564L6.661338147750939e-16,3.2245046564477153L-4.9620024483470395,6.829610459238565L-3.0666861653386652,0.9964267372834958L-8.028688613685707,-2.608679065507352L-1.8953162830083754,-2.608679065507353Z" fill="#2ca02c" transform="translate(25.27599185009491,-67.23174350117793)"><title>Country 76</title></path><path d="M0,-8.441862787462423L1.8953162830083747,-2.6086790655073533L8.028688613685706,-2.6086790655073537L3.0666861653386652,0.9964267372834953L4.962002448347041,6.829610459238564L6.661338147750939e-16,3.2245046564477153L-4.9620024483470395,6.829610459238565L-3.0666861653386652,0.9964267372834958L-8.028688613685707,-2.608679065507352L-1.8953162830083754,-2.608679065507353Z" fill="#1f77b4" transform="translate(-16.278394028863485,-1.8075844083837012)"><title>Country 71</title></path><path d="M0,-8.441862787462423L1.8953162830083747,-2.6086790655073533L8.028688613685706,-2.6086790655073537L3.0666861653386652,0.9964267372834953L4.962002448347041,6.829610459238564L6.661338147750939e-16,3.2245046564477153L-4.9620024483470395,6.829610459238565L-3.0666861653386652,0.9964267372834958L-8.028688613685707,-2.608679065507352L-1.8953162830083754,-2.608679065507353Z" fill="#8c564b" transform="translate(-11.18622422914953,36.17108897855771)"><title>Country 72</title></path></g></svg>