<svg width="300" height="300" viewBox="-150,-150,300,300"><text x="-150" y="-130" font-family="sans-serif" font-size="12px" text-anchor="start">Q2-Seed3</text><g stroke="#999" stroke-opacity="0.6"><line stroke-width="1" x1="72.3343088612714" y1="-35.63163901114259" x2="63.74086860375621" y2="17.673095815523833"></line><line stroke-width="1" x1="72.3343088612714" y1="-35.63163901114259" x2="49.81583424693418" y2="-45.89764086698715"></line><line stroke-width="3.1622776601683795" x1="72.3343088612714" y1="-35.63163901114259" x2="39.19300286174052" y2="-20.622736279634346"></line><line stroke-width="2.23606797749979" x1="68.60041374216297" y1="-51.43677540959694" x2="39.19300286174052" y2="-20.622736279634346"></line><line stroke-width="1" x1="27.19626531435516" y1="-63.79776473881526" x2="-7.925962674047124" y2="-95.05375435610098"></line><line stroke-width="2.23606797749979" x1="27.19626531435516" y1="-63.79776473881526" x2="39.19300286174052" y2="-20.622736279634346"></line><line stroke-width="2.23606797749979" x1="-1.7839511223191953" y1="1.9668930474743695" x2="-16.309192452921007" y2="26.644587597785513"></line><line stroke-width="2.23606797749979" x1="-1.7839511223191953" y1="1.9668930474743695" x2="31.18422874753657" y2="7.333654248227142"></line><line stroke-width="1" x1="-65.95447511942648" y1="-30.601156123646515" x2="-53.43227584766748" y2="18.60041358297689"></line><line stroke-width="2.23606797749979" x1="18.448680132323233" y1="58.22547456958666" x2="-16.309192452921007" y2="26.644587597785513"></line><line stroke-width="4.47213595499958" x1="18.448680132323233" y1="58.22547456958666" x2="-0.020874342393557354" y2="23.58633556928024"></line><line stroke-width="2.23606797749979" x1="18.448680132323233" y1="58.22547456958666" x2="14.03716231410681" y2="8.491503459291199"></line><line stroke-width="1" x1="-7.715444767433738" y1="82.03043448011837" x2="-4.549291499773704" y2="44.7702313550831"></line><line stroke-width="1" x1="83.98009467298732" y1="-5.77501045503185" x2="72.3343088612714" y2="-35.63163901114259"></line><line stroke-width="2.23606797749979" x1="83.98009467298732" y1="-5.77501045503185" x2="36.22672367726524" y2="-5.535967549523224"></line><line stroke-width="1" x1="3.583117899776062" y1="-31.421626071868918" x2="-35.722950017990634" y2="-73.88187217444404"></line><line stroke-width="1" x1="3.583117899776062" y1="-31.421626071868918" x2="49.81583424693418" y2="-45.89764086698715"></line><line stroke-width="3.872983346207417" x1="3.583117899776062" y1="-31.421626071868918" x2="39.19300286174052" y2="-20.622736279634346"></line><line stroke-width="3.1622776601683795" x1="3.583117899776062" y1="-31.421626071868918" x2="-16.309192452921007" y2="26.644587597785513"></line><line stroke-width="2.23606797749979" x1="3.583117899776062" y1="-31.421626071868918" x2="-0.020874342393557354" y2="23.58633556928024"></line><line stroke-width="2.23606797749979" x1="3.583117899776062" y1="-31.421626071868918" x2="31.18422874753657" y2="7.333654248227142"></line><line stroke-width="2.23606797749979" x1="3.583117899776062" y1="-31.421626071868918" x2="14.03716231410681" y2="8.491503459291199"></line><line stroke-width="1" x1="-47.96457974362466" y1="-33.556859394930505" x2="7.28638019984334" y2="-53.055362376878875"></line><line stroke-width="1" x1="-47.96457974362466" y1="-33.556859394930505" x2="-82.7989695891373" y2="6.2129655504279135"></line><line stroke-width="1" x1="-35.722950017990634" y1="-73.88187217444404" x2="-6.5698035014312" y2="-43.03079398869684"></line><line stroke-width="1" x1="-35.722950017990634" y1="-73.88187217444404" x2="-65.95447511942648" y2="-30.601156123646515"></line><line stroke-width="1" x1="-35.722950017990634" y1="-73.88187217444404" x2="7.28638019984334" y2="-53.055362376878875"></line><line stroke-width="1" x1="7.28638019984334" y1="-53.055362376878875" x2="72.3343088612714" y2="-35.63163901114259"></line><line stroke-width="1" x1="7.28638019984334" y1="-53.055362376878875" x2="-4.549291499773704" y2="44.7702313550831"></line><line stroke-width="1" x1="7.28638019984334" y1="-53.055362376878875" x2="0.579865679406557" y2="-14.644365830264915"></line><line stroke-width="1" x1="7.28638019984334" y1="-53.055362376878875" x2="-6.5698035014312" y2="-43.03079398869684"></line><line stroke-width="1" x1="7.28638019984334" y1="-53.055362376878875" x2="-25.884015623960305" y2="-33.11051688650371"></line><line stroke-width="1" x1="7.28638019984334" y1="-53.055362376878875" x2="13.304454879219906" y2="-17.088017633072475"></line><line stroke-width="1" x1="7.28638019984334" y1="-53.055362376878875" x2="14.329145967166824" y2="-88.9714744206723"></line><line stroke-width="1.4142135623730951" x1="7.28638019984334" y1="-53.055362376878875" x2="-4.549291499773704" y2="44.7702313550831"></line><line stroke-width="1.4142135623730951" x1="7.28638019984334" y1="-53.055362376878875" x2="-25.884015623960305" y2="-33.11051688650371"></line><line stroke-width="3.1622776601683795" x1="7.28638019984334" y1="-53.055362376878875" x2="36.22672367726524" y2="-5.535967549523224"></line><line stroke-width="3.1622776601683795" x1="7.28638019984334" y1="-53.055362376878875" x2="39.19300286174052" y2="-20.622736279634346"></line><line stroke-width="2.23606797749979" x1="7.28638019984334" y1="-53.055362376878875" x2="31.18422874753657" y2="7.333654248227142"></line><line stroke-width="2.23606797749979" x1="7.28638019984334" y1="-53.055362376878875" x2="14.03716231410681" y2="8.491503459291199"></line><line stroke-width="2.23606797749979" x1="19.094771268264726" y1="-43.48238764660269" x2="36.22672367726524" y2="-5.535967549523224"></line><line stroke-width="2.23606797749979" x1="19.094771268264726" y1="-43.48238764660269" x2="39.19300286174052" y2="-20.622736279634346"></line><line stroke-width="2.23606797749979" x1="19.094771268264726" y1="-43.48238764660269" x2="31.18422874753657" y2="7.333654248227142"></line><line stroke-width="2.23606797749979" x1="-17.811560414735247" y1="10.9119747664425" x2="36.22672367726524" y2="-5.535967549523224"></line><line stroke-width="3.1622776601683795" x1="-17.811560414735247" y1="10.9119747664425" x2="39.19300286174052" y2="-20.622736279634346"></line><line stroke-width="2.23606797749979" x1="-17.811560414735247" y1="10.9119747664425" x2="-16.309192452921007" y2="26.644587597785513"></line><line stroke-width="2.23606797749979" x1="-17.811560414735247" y1="10.9119747664425" x2="31.18422874753657" y2="7.333654248227142"></line><line stroke-width="1" x1="29.14335090314186" y1="-34.80607414988399" x2="-1.7839511223191953" y2="1.9668930474743695"></line><line stroke-width="1" x1="29.14335090314186" y1="-34.80607414988399" x2="7.28638019984334" y2="-53.055362376878875"></line><line stroke-width="1" x1="29.14335090314186" y1="-34.80607414988399" x2="-6.5698035014312" y2="-43.03079398869684"></line><line stroke-width="1" x1="29.14335090314186" y1="-34.80607414988399" x2="-6.5698035014312" y2="-43.03079398869684"></line><line stroke-width="2.23606797749979" x1="29.14335090314186" y1="-34.80607414988399" x2="36.22672367726524" y2="-5.535967549523224"></line><line stroke-width="2.23606797749979" x1="29.14335090314186" y1="-34.80607414988399" x2="39.19300286174052" y2="-20.622736279634346"></line><line stroke-width="2.23606797749979" x1="29.14335090314186" y1="-34.80607414988399" x2="-16.309192452921007" y2="26.644587597785513"></line><line stroke-width="2.23606797749979" x1="29.14335090314186" y1="-34.80607414988399" x2="31.18422874753657" y2="7.333654248227142"></line><line stroke-width="1" x1="-54.71988333922589" y1="61.55868666604239" x2="-106.34130666313179" y2="52.77718495019465"></line><line stroke-width="1" x1="-36.8989418831864" y1="-59.031586027126515" x2="-16.260199103362204" y2="-19.704962973927646"></line><line stroke-width="1" x1="-36.8989418831864" y1="-59.031586027126515" x2="-6.5698035014312" y2="-43.03079398869684"></line><line stroke-width="1" x1="27.967217004434993" y1="26.100036239285032" x2="7.28638019984334" y2="-53.055362376878875"></line><line stroke-width="2.23606797749979" x1="27.967217004434993" y1="26.100036239285032" x2="36.22672367726524" y2="-5.535967549523224"></line><line stroke-width="2.23606797749979" x1="27.967217004434993" y1="26.100036239285032" x2="-16.309192452921007" y2="26.644587597785513"></line><line stroke-width="2.23606797749979" x1="27.967217004434993" y1="26.100036239285032" x2="-0.020874342393557354" y2="23.58633556928024"></line><line stroke-width="2.23606797749979" x1="27.967217004434993" y1="26.100036239285032" x2="31.18422874753657" y2="7.333654248227142"></line><line stroke-width="2.23606797749979" x1="14.616251368343923" y1="36.31143902595567" x2="36.22672367726524" y2="-5.535967549523224"></line><line stroke-width="3.1622776601683795" x1="14.616251368343923" y1="36.31143902595567" x2="39.19300286174052" y2="-20.622736279634346"></line><line stroke-width="2.23606797749979" x1="14.616251368343923" y1="36.31143902595567" x2="-16.309192452921007" y2="26.644587597785513"></line><line stroke-width="2.23606797749979" x1="14.616251368343923" y1="36.31143902595567" x2="-0.020874342393557354" y2="23.58633556928024"></line><line stroke-width="2.23606797749979" x1="14.616251368343923" y1="36.31143902595567" x2="31.18422874753657" y2="7.333654248227142"></line><line stroke-width="2.23606797749979" x1="-53.43227584766748" y1="18.60041358297689" x2="-81.78266155432266" y2="53.29718194241219"></line><line stroke-width="1" x1="-53.43227584766748" y1="18.60041358297689" x2="-62.661942132374904" y2="41.95169696750383"></line><line stroke-width="1" x1="-53.43227584766748" y1="18.60041358297689" x2="-82.95626501598687" y2="29.923645793536476"></line><line stroke-width="1" x1="-53.43227584766748" y1="18.60041358297689" x2="14.616251368343923" y2="36.31143902595567"></line><line stroke-width="1" x1="-53.43227584766748" y1="18.60041358297689" x2="-81.78266155432266" y2="53.29718194241219"></line><line stroke-width="1.4142135623730951" x1="-53.43227584766748" y1="18.60041358297689" x2="-110.65185869862471" y2="27.90063925745227"></line><line stroke-width="1.4142135623730951" x1="-53.43227584766748" y1="18.60041358297689" x2="-82.7989695891373" y2="6.2129655504279135"></line><line stroke-width="1.4142135623730951" x1="-53.43227584766748" y1="18.60041358297689" x2="-62.661942132374904" y2="41.95169696750383"></line><line stroke-width="1" x1="-53.43227584766748" y1="18.60041358297689" x2="-82.95626501598687" y2="29.923645793536476"></line><line stroke-width="2.23606797749979" x1="-53.43227584766748" y1="18.60041358297689" x2="36.22672367726524" y2="-5.535967549523224"></line><line stroke-width="2.23606797749979" x1="-53.43227584766748" y1="18.60041358297689" x2="39.19300286174052" y2="-20.622736279634346"></line><line stroke-width="3.1622776601683795" x1="-53.43227584766748" y1="18.60041358297689" x2="-16.309192452921007" y2="26.644587597785513"></line><line stroke-width="2.23606797749979" x1="-53.43227584766748" y1="18.60041358297689" x2="-0.020874342393557354" y2="23.58633556928024"></line><line stroke-width="3.1622776601683795" x1="-53.43227584766748" y1="18.60041358297689" x2="31.18422874753657" y2="7.333654248227142"></line><line stroke-width="2.23606797749979" x1="-53.43227584766748" y1="18.60041358297689" x2="14.03716231410681" y2="8.491503459291199"></line><line stroke-width="1" x1="-81.78266155432266" y1="53.29718194241219" x2="-17.811560414735247" y2="10.9119747664425"></line><line stroke-width="1.7320508075688772" x1="-81.78266155432266" y1="53.29718194241219" x2="-53.43227584766748" y2="18.60041358297689"></line><line stroke-width="2.449489742783178" x1="-81.78266155432266" y1="53.29718194241219" x2="-62.661942132374904" y2="41.95169696750383"></line><line stroke-width="1" x1="-81.78266155432266" y1="53.29718194241219" x2="-106.34130666313179" y2="52.77718495019465"></line><line stroke-width="1" x1="-81.78266155432266" y1="53.29718194241219" x2="-82.95626501598687" y2="29.923645793536476"></line><line stroke-width="1.4142135623730951" x1="-81.78266155432266" y1="53.29718194241219" x2="-53.43227584766748" y2="18.60041358297689"></line><line stroke-width="1.4142135623730951" x1="-81.78266155432266" y1="53.29718194241219" x2="-110.65185869862471" y2="27.90063925745227"></line><line stroke-width="1" x1="-81.78266155432266" y1="53.29718194241219" x2="-62.661942132374904" y2="41.95169696750383"></line><line stroke-width="2" x1="-81.78266155432266" y1="53.29718194241219" x2="-82.95626501598687" y2="29.923645793536476"></line><line stroke-width="1.7320508075688772" x1="-81.78266155432266" y1="53.29718194241219" x2="-104.23621307450784" y2="5.47874711797502"></line><line stroke-width="1" x1="-16.913868633978566" y1="-7.50652872461455" x2="3.583117899776062" y2="-31.421626071868918"></line><line stroke-width="1" x1="-16.913868633978566" y1="-7.50652872461455" x2="7.28638019984334" y2="-53.055362376878875"></line><line stroke-width="1" x1="-16.913868633978566" y1="-7.50652872461455" x2="19.094771268264726" y2="-43.48238764660269"></line><line stroke-width="3.1622776601683795" x1="-16.913868633978566" y1="-7.50652872461455" x2="36.22672367726524" y2="-5.535967549523224"></line><line stroke-width="2.23606797749979" x1="-16.913868633978566" y1="-7.50652872461455" x2="39.19300286174052" y2="-20.622736279634346"></line><line stroke-width="2.23606797749979" x1="-16.913868633978566" y1="-7.50652872461455" x2="-16.309192452921007" y2="26.644587597785513"></line><line stroke-width="2.23606797749979" x1="-16.913868633978566" y1="-7.50652872461455" x2="31.18422874753657" y2="7.333654248227142"></line><line stroke-width="1" x1="-28.57832996127038" y1="43.66105077355519" x2="-82.7989695891373" y2="6.2129655504279135"></line><line stroke-width="1" x1="-39.02044532555984" y1="-6.334275674085116" x2="-53.43227584766748" y2="18.60041358297689"></line><line stroke-width="1" x1="-39.02044532555984" y1="-6.334275674085116" x2="-35.722950017990634" y2="-73.88187217444404"></line><line stroke-width="1" x1="-39.02044532555984" y1="-6.334275674085116" x2="-16.913868633978566" y2="-7.50652872461455"></line><line stroke-width="3.872983346207417" x1="-39.02044532555984" y1="-6.334275674085116" x2="-16.309192452921007" y2="26.644587597785513"></line><line stroke-width="2.23606797749979" x1="-39.02044532555984" y1="-6.334275674085116" x2="-0.020874342393557354" y2="23.58633556928024"></line><line stroke-width="2.23606797749979" x1="-39.02044532555984" y1="-6.334275674085116" x2="31.18422874753657" y2="7.333654248227142"></line><line stroke-width="2.23606797749979" x1="-39.02044532555984" y1="-6.334275674085116" x2="14.03716231410681" y2="8.491503459291199"></line><line stroke-width="1" x1="-4.549291499773704" y1="44.7702313550831" x2="27.967217004434993" y2="26.100036239285032"></line><line stroke-width="1.4142135623730951" x1="-4.549291499773704" y1="44.7702313550831" x2="-28.57832996127038" y2="43.66105077355519"></line><line stroke-width="1" x1="-4.549291499773704" y1="44.7702313550831" x2="43.563275217783" y2="35.63206871592453"></line><line stroke-width="1" x1="-4.549291499773704" y1="44.7702313550831" x2="63.74086860375621" y2="17.673095815523833"></line><line stroke-width="1" x1="-4.549291499773704" y1="44.7702313550831" x2="18.448680132323233" y2="58.22547456958666"></line><line stroke-width="1" x1="-4.549291499773704" y1="44.7702313550831" x2="-54.71988333922589" y2="61.55868666604239"></line><line stroke-width="1" x1="-4.549291499773704" y1="44.7702313550831" x2="-4.549291499773704" y2="44.7702313550831"></line><line stroke-width="1.4142135623730951" x1="-4.549291499773704" y1="44.7702313550831" x2="-25.884015623960305" y2="-33.11051688650371"></line><line stroke-width="3.872983346207417" x1="-4.549291499773704" y1="44.7702313550831" x2="36.22672367726524" y2="-5.535967549523224"></line><line stroke-width="3.872983346207417" x1="-4.549291499773704" y1="44.7702313550831" x2="-16.309192452921007" y2="26.644587597785513"></line><line stroke-width="3.872983346207417" x1="-4.549291499773704" y1="44.7702313550831" x2="31.18422874753657" y2="7.333654248227142"></line><line stroke-width="1" x1="-110.65185869862471" y1="27.90063925745227" x2="-106.34130666313179" y2="52.77718495019465"></line><line stroke-width="2.23606797749979" x1="-110.65185869862471" y1="27.90063925745227" x2="-104.23621307450784" y2="5.47874711797502"></line><line stroke-width="1.4142135623730951" x1="-110.65185869862471" y1="27.90063925745227" x2="-53.43227584766748" y2="18.60041358297689"></line><line stroke-width="1" x1="-110.65185869862471" y1="27.90063925745227" x2="-82.7989695891373" y2="6.2129655504279135"></line><line stroke-width="1" x1="-110.65185869862471" y1="27.90063925745227" x2="-62.661942132374904" y2="41.95169696750383"></line><line stroke-width="2.6457513110645907" x1="-110.65185869862471" y1="27.90063925745227" x2="-106.34130666313179" y2="52.77718495019465"></line><line stroke-width="1.4142135623730951" x1="-110.65185869862471" y1="27.90063925745227" x2="-82.95626501598687" y2="29.923645793536476"></line><line stroke-width="2.6457513110645907" x1="-110.65185869862471" y1="27.90063925745227" x2="-104.23621307450784" y2="5.47874711797502"></line><line stroke-width="1" x1="-82.7989695891373" y1="6.2129655504279135" x2="-81.78266155432266" y2="53.29718194241219"></line><line stroke-width="1.4142135623730951" x1="-82.7989695891373" y1="6.2129655504279135" x2="-110.65185869862471" y2="27.90063925745227"></line><line stroke-width="1" x1="-82.7989695891373" y1="6.2129655504279135" x2="-62.661942132374904" y2="41.95169696750383"></line><line stroke-width="1.4142135623730951" x1="-82.7989695891373" y1="6.2129655504279135" x2="-106.34130666313179" y2="52.77718495019465"></line><line stroke-width="1" x1="-82.7989695891373" y1="6.2129655504279135" x2="-104.23621307450784" y2="5.47874711797502"></line><line stroke-width="1.7320508075688772" x1="-82.7989695891373" y1="6.2129655504279135" x2="-82.95626501598687" y2="29.923645793536476"></line><line stroke-width="3.1622776601683795" x1="0.579865679406557" y1="-14.644365830264915" x2="39.19300286174052" y2="-20.622736279634346"></line><line stroke-width="3.1622776601683795" x1="0.579865679406557" y1="-14.644365830264915" x2="-16.309192452921007" y2="26.644587597785513"></line><line stroke-width="2.23606797749979" x1="0.579865679406557" y1="-14.644365830264915" x2="-0.020874342393557354" y2="23.58633556928024"></line><line stroke-width="2.23606797749979" x1="0.579865679406557" y1="-14.644365830264915" x2="31.18422874753657" y2="7.333654248227142"></line><line stroke-width="3.1622776601683795" x1="0.579865679406557" y1="-14.644365830264915" x2="14.03716231410681" y2="8.491503459291199"></line><line stroke-width="1" x1="39.999804987139775" y1="53.9034681707866" x2="61.10703055990651" y2="81.95155744495109"></line><line stroke-width="3.1622776601683795" x1="39.999804987139775" y1="53.9034681707866" x2="36.22672367726524" y2="-5.535967549523224"></line><line stroke-width="2.23606797749979" x1="39.999804987139775" y1="53.9034681707866" x2="-16.309192452921007" y2="26.644587597785513"></line><line stroke-width="3.1622776601683795" x1="39.999804987139775" y1="53.9034681707866" x2="31.18422874753657" y2="7.333654248227142"></line><line stroke-width="3.872983346207417" x1="39.999804987139775" y1="53.9034681707866" x2="14.03716231410681" y2="8.491503459291199"></line><line stroke-width="1" x1="8.774733049941707" y1="67.17229329194102" x2="39.999804987139775" y2="53.9034681707866"></line><line stroke-width="1" x1="8.774733049941707" y1="67.17229329194102" x2="-28.57832996127038" y2="43.66105077355519"></line><line stroke-width="2" x1="8.774733049941707" y1="67.17229329194102" x2="39.999804987139775" y2="53.9034681707866"></line><line stroke-width="3.1622776601683795" x1="8.774733049941707" y1="67.17229329194102" x2="-16.309192452921007" y2="26.644587597785513"></line><line stroke-width="2.23606797749979" x1="8.774733049941707" y1="67.17229329194102" x2="31.18422874753657" y2="7.333654248227142"></line><line stroke-width="1" x1="-62.661942132374904" y1="41.95169696750383" x2="-1.7839511223191953" y2="1.9668930474743695"></line><line stroke-width="1" x1="-62.661942132374904" y1="41.95169696750383" x2="-64.21048590095512" y2="77.88999219677535"></line><line stroke-width="2" x1="-62.661942132374904" y1="41.95169696750383" x2="-53.43227584766748" y2="18.60041358297689"></line><line stroke-width="1.7320508075688772" x1="-62.661942132374904" y1="41.95169696750383" x2="-81.78266155432266" y2="53.29718194241219"></line><line stroke-width="1" x1="-62.661942132374904" y1="41.95169696750383" x2="-16.913868633978566" y2="-7.50652872461455"></line><line stroke-width="1" x1="-62.661942132374904" y1="41.95169696750383" x2="-82.95626501598687" y2="29.923645793536476"></line><line stroke-width="1" x1="50.72843702058399" y1="12.150771364414599" x2="27.19626531435516" y2="-63.79776473881526"></line><line stroke-width="1" x1="50.72843702058399" y1="12.150771364414599" x2="-28.57832996127038" y2="43.66105077355519"></line><line stroke-width="2.23606797749979" x1="50.72843702058399" y1="12.150771364414599" x2="36.22672367726524" y2="-5.535967549523224"></line><line stroke-width="3.1622776601683795" x1="50.72843702058399" y1="12.150771364414599" x2="39.19300286174052" y2="-20.622736279634346"></line><line stroke-width="2.23606797749979" x1="50.72843702058399" y1="12.150771364414599" x2="-0.020874342393557354" y2="23.58633556928024"></line><line stroke-width="3.872983346207417" x1="50.72843702058399" y1="12.150771364414599" x2="31.18422874753657" y2="7.333654248227142"></line><line stroke-width="3.1622776601683795" x1="50.72843702058399" y1="12.150771364414599" x2="14.03716231410681" y2="8.491503459291199"></line><line stroke-width="1" x1="71.3713278848376" y1="40.136990354836925" x2="63.74086860375621" y2="17.673095815523833"></line><line stroke-width="2.23606797749979" x1="71.3713278848376" y1="40.136990354836925" x2="31.18422874753657" y2="7.333654248227142"></line><line stroke-width="2.23606797749979" x1="-16.260199103362204" y1="-19.704962973927646" x2="39.19300286174052" y2="-20.622736279634346"></line><line stroke-width="5.477225575051661" x1="-16.260199103362204" y1="-19.704962973927646" x2="-16.309192452921007" y2="26.644587597785513"></line><line stroke-width="4.47213595499958" x1="-16.260199103362204" y1="-19.704962973927646" x2="-0.020874342393557354" y2="23.58633556928024"></line><line stroke-width="1" x1="49.81583424693418" y1="-45.89764086698715" x2="27.19626531435516" y2="-63.79776473881526"></line><line stroke-width="1" x1="49.81583424693418" y1="-45.89764086698715" x2="-1.7839511223191953" y2="1.9668930474743695"></line><line stroke-width="1" x1="49.81583424693418" y1="-45.89764086698715" x2="71.74944913403363" y2="-16.30853746371662"></line><line stroke-width="1" x1="49.81583424693418" y1="-45.89764086698715" x2="7.28638019984334" y2="-53.055362376878875"></line><line stroke-width="1" x1="49.81583424693418" y1="-45.89764086698715" x2="83.84589257081525" y2="-59.49075234632923"></line><line stroke-width="3.872983346207417" x1="49.81583424693418" y1="-45.89764086698715" x2="36.22672367726524" y2="-5.535967549523224"></line><line stroke-width="3.872983346207417" x1="49.81583424693418" y1="-45.89764086698715" x2="39.19300286174052" y2="-20.622736279634346"></line><line stroke-width="3.872983346207417" x1="49.81583424693418" y1="-45.89764086698715" x2="31.18422874753657" y2="7.333654248227142"></line><line stroke-width="3.872983346207417" x1="49.81583424693418" y1="-45.89764086698715" x2="14.03716231410681" y2="8.491503459291199"></line><line stroke-width="3.872983346207417" x1="43.563275217783" y1="35.63206871592453" x2="39.19300286174052" y2="-20.622736279634346"></line><line stroke-width="2.23606797749979" x1="43.563275217783" y1="35.63206871592453" x2="-0.020874342393557354" y2="23.58633556928024"></line><line stroke-width="2.23606797749979" x1="43.563275217783" y1="35.63206871592453" x2="31.18422874753657" y2="7.333654248227142"></line><line stroke-width="2.23606797749979" x1="43.563275217783" y1="35.63206871592453" x2="14.03716231410681" y2="8.491503459291199"></line><line stroke-width="2" x1="-106.34130666313179" y1="52.77718495019465" x2="-110.65185869862471" y2="27.90063925745227"></line><line stroke-width="2.6457513110645907" x1="-106.34130666313179" y1="52.77718495019465" x2="-104.23621307450784" y2="5.47874711797502"></line><line stroke-width="1.4142135623730951" x1="-106.34130666313179" y1="52.77718495019465" x2="-81.78266155432266" y2="53.29718194241219"></line><line stroke-width="2.6457513110645907" x1="-106.34130666313179" y1="52.77718495019465" x2="-110.65185869862471" y2="27.90063925745227"></line><line stroke-width="1" x1="-106.34130666313179" y1="52.77718495019465" x2="-62.661942132374904" y2="41.95169696750383"></line><line stroke-width="1" x1="-106.34130666313179" y1="52.77718495019465" x2="-82.95626501598687" y2="29.923645793536476"></line><line stroke-width="2.449489742783178" x1="-106.34130666313179" y1="52.77718495019465" x2="-104.23621307450784" y2="5.47874711797502"></line><line stroke-width="1.7320508075688772" x1="71.74944913403363" y1="-16.30853746371662" x2="49.81583424693418" y2="-45.89764086698715"></line><line stroke-width="1" x1="71.74944913403363" y1="-16.30853746371662" x2="68.60041374216297" y2="-51.43677540959694"></line><line stroke-width="3.872983346207417" x1="71.74944913403363" y1="-16.30853746371662" x2="36.22672367726524" y2="-5.535967549523224"></line><line stroke-width="3.872983346207417" x1="71.74944913403363" y1="-16.30853746371662" x2="39.19300286174052" y2="-20.622736279634346"></line><line stroke-width="3.872983346207417" x1="71.74944913403363" y1="-16.30853746371662" x2="31.18422874753657" y2="7.333654248227142"></line><line stroke-width="3.872983346207417" x1="71.74944913403363" y1="-16.30853746371662" x2="14.03716231410681" y2="8.491503459291199"></line><line stroke-width="2.23606797749979" x1="-6.5698035014312" y1="-43.03079398869684" x2="36.22672367726524" y2="-5.535967549523224"></line><line stroke-width="4.47213595499958" x1="-6.5698035014312" y1="-43.03079398869684" x2="39.19300286174052" y2="-20.622736279634346"></line><line stroke-width="3.1622776601683795" x1="-6.5698035014312" y1="-43.03079398869684" x2="-16.309192452921007" y2="26.644587597785513"></line><line stroke-width="2.23606797749979" x1="-6.5698035014312" y1="-43.03079398869684" x2="31.18422874753657" y2="7.333654248227142"></line><line stroke-width="3.872983346207417" x1="-6.5698035014312" y1="-43.03079398869684" x2="14.03716231410681" y2="8.491503459291199"></line><line stroke-width="1" x1="-82.95626501598687" y1="29.923645793536476" x2="-53.43227584766748" y2="18.60041358297689"></line><line stroke-width="1" x1="-82.95626501598687" y1="29.923645793536476" x2="-4.549291499773704" y2="44.7702313550831"></line><line stroke-width="3.1622776601683795" x1="-82.95626501598687" y1="29.923645793536476" x2="-82.7989695891373" y2="6.2129655504279135"></line><line stroke-width="1" x1="-82.95626501598687" y1="29.923645793536476" x2="-106.34130666313179" y2="52.77718495019465"></line><line stroke-width="1" x1="-82.95626501598687" y1="29.923645793536476" x2="-104.23621307450784" y2="5.47874711797502"></line><line stroke-width="1" x1="-82.95626501598687" y1="29.923645793536476" x2="-53.43227584766748" y2="18.60041358297689"></line><line stroke-width="1.4142135623730951" x1="-82.95626501598687" y1="29.923645793536476" x2="-81.78266155432266" y2="53.29718194241219"></line><line stroke-width="1.4142135623730951" x1="-82.95626501598687" y1="29.923645793536476" x2="-62.661942132374904" y2="41.95169696750383"></line><line stroke-width="1.7320508075688772" x1="-82.95626501598687" y1="29.923645793536476" x2="-106.34130666313179" y2="52.77718495019465"></line><line stroke-width="1" x1="-82.95626501598687" y1="29.923645793536476" x2="-104.23621307450784" y2="5.47874711797502"></line><line stroke-width="2.23606797749979" x1="-82.95626501598687" y1="29.923645793536476" x2="14.03716231410681" y2="8.491503459291199"></line><line stroke-width="1" x1="-104.23621307450784" y1="5.47874711797502" x2="-53.43227584766748" y2="18.60041358297689"></line><line stroke-width="2" x1="-104.23621307450784" y1="5.47874711797502" x2="-81.78266155432266" y2="53.29718194241219"></line><line stroke-width="2.23606797749979" x1="-104.23621307450784" y1="5.47874711797502" x2="-110.65185869862471" y2="27.90063925745227"></line><line stroke-width="2" x1="-104.23621307450784" y1="5.47874711797502" x2="-62.661942132374904" y2="41.95169696750383"></line><line stroke-width="2.449489742783178" x1="-104.23621307450784" y1="5.47874711797502" x2="-106.34130666313179" y2="52.77718495019465"></line><line stroke-width="1" x1="-104.23621307450784" y1="5.47874711797502" x2="-82.95626501598687" y2="29.923645793536476"></line><line stroke-width="1" x1="-104.23621307450784" y1="5.47874711797502" x2="-25.884015623960305" y2="-33.11051688650371"></line><line stroke-width="2.23606797749979" x1="-104.23621307450784" y1="5.47874711797502" x2="-110.65185869862471" y2="27.90063925745227"></line><line stroke-width="1.7320508075688772" x1="-104.23621307450784" y1="5.47874711797502" x2="-106.34130666313179" y2="52.77718495019465"></line><line stroke-width="1" x1="-25.884015623960305" y1="-33.11051688650371" x2="19.094771268264726" y2="-43.48238764660269"></line><line stroke-width="1" x1="-25.884015623960305" y1="-33.11051688650371" x2="-56.928988940462" y2="-56.180553165691286"></line><line stroke-width="1" x1="-25.884015623960305" y1="-33.11051688650371" x2="27.19626531435516" y2="-63.79776473881526"></line><line stroke-width="1" x1="-25.884015623960305" y1="-33.11051688650371" x2="-39.02044532555984" y2="-6.334275674085116"></line><line stroke-width="3.872983346207417" x1="-25.884015623960305" y1="-33.11051688650371" x2="36.22672367726524" y2="-5.535967549523224"></line><line stroke-width="3.1622776601683795" x1="-25.884015623960305" y1="-33.11051688650371" x2="39.19300286174052" y2="-20.622736279634346"></line><line stroke-width="2.23606797749979" x1="-25.884015623960305" y1="-33.11051688650371" x2="-16.309192452921007" y2="26.644587597785513"></line><line stroke-width="2.23606797749979" x1="-25.884015623960305" y1="-33.11051688650371" x2="-0.020874342393557354" y2="23.58633556928024"></line><line stroke-width="4.47213595499958" x1="-25.884015623960305" y1="-33.11051688650371" x2="14.03716231410681" y2="8.491503459291199"></line><line stroke-width="2.23606797749979" x1="13.304454879219906" y1="-17.088017633072475" x2="36.22672367726524" y2="-5.535967549523224"></line><line stroke-width="2.23606797749979" x1="13.304454879219906" y1="-17.088017633072475" x2="39.19300286174052" y2="-20.622736279634346"></line><line stroke-width="2.23606797749979" x1="13.304454879219906" y1="-17.088017633072475" x2="-16.309192452921007" y2="26.644587597785513"></line><line stroke-width="3.872983346207417" x1="13.304454879219906" y1="-17.088017633072475" x2="31.18422874753657" y2="7.333654248227142"></line><line stroke-width="2.23606797749979" x1="63.74086860375621" y1="17.673095815523833" x2="36.22672367726524" y2="-5.535967549523224"></line><line stroke-width="2.23606797749979" x1="63.74086860375621" y1="17.673095815523833" x2="39.19300286174052" y2="-20.622736279634346"></line><line stroke-width="2.23606797749979" x1="63.74086860375621" y1="17.673095815523833" x2="-0.020874342393557354" y2="23.58633556928024"></line><line stroke-width="2.23606797749979" x1="63.74086860375621" y1="17.673095815523833" x2="31.18422874753657" y2="7.333654248227142"></line><line stroke-width="2.23606797749979" x1="63.74086860375621" y1="17.673095815523833" x2="14.03716231410681" y2="8.491503459291199"></line><line stroke-width="1" x1="-7.925962674047124" y1="-95.05375435610098" x2="-35.722950017990634" y2="-73.88187217444404"></line><line stroke-width="1" x1="-7.925962674047124" y1="-95.05375435610098" x2="-35.722950017990634" y2="-73.88187217444404"></line><line stroke-width="1" x1="-7.925962674047124" y1="-95.05375435610098" x2="7.28638019984334" y2="-53.055362376878875"></line></g><g stroke="#fff" stroke-width="1.5"><path d="M5.046265044040321,0A5.046265044040321,5.046265044040321,0,1,1,-5.046265044040321,0A5.046265044040321,5.046265044040321,0,1,1,5.046265044040321,0" fill="#2ca02c" transform="translate(72.3343088612714,-35.63163901114259)"><title>Person 457699</title></path><path d="M5.046265044040321,0A5.046265044040321,5.046265044040321,0,1,1,-5.046265044040321,0A5.046265044040321,5.046265044040321,0,1,1,5.046265044040321,0" fill="#9467bd" transform="translate(27.19626531435516,-63.79776473881526)"><title>Person 460534</title></path><path d="M5.046265044040321,0A5.046265044040321,5.046265044040321,0,1,1,-5.046265044040321,0A5.046265044040321,5.046265044040321,0,1,1,5.046265044040321,0" fill="#8c564b" transform="translate(-7.715444767433738,82.03043448011837)"><title>Person 476124</title></path><path d="M5.046265044040321,0A5.046265044040321,5.046265044040321,0,1,1,-5.046265044040321,0A5.046265044040321,5.046265044040321,0,1,1,5.046265044040321,0" fill="#7f7f7f" transform="translate(83.98009467298732,-5.77501045503185)"><title>Person 477769</title></path><path d="M5.046265044040321,0A5.046265044040321,5.046265044040321,0,1,1,-5.046265044040321,0A5.046265044040321,5.046265044040321,0,1,1,5.046265044040321,0" fill="#1f77b4" transform="translate(3.583117899776062,-31.421626071868918)"><title>Person 479204</title></path><path d="M5.046265044040321,0A5.046265044040321,5.046265044040321,0,1,1,-5.046265044040321,0A5.046265044040321,5.046265044040321,0,1,1,5.046265044040321,0" fill="#8c564b" transform="translate(-47.96457974362466,-33.556859394930505)"><title>Person 480268</title></path><path d="M5.046265044040321,0A5.046265044040321,5.046265044040321,0,1,1,-5.046265044040321,0A5.046265044040321,5.046265044040321,0,1,1,5.046265044040321,0" fill="#8c564b" transform="translate(-35.722950017990634,-73.88187217444404)"><title>Person 480375</title></path><path d="M5.046265044040321,0A5.046265044040321,5.046265044040321,0,1,1,-5.046265044040321,0A5.046265044040321,5.046265044040321,0,1,1,5.046265044040321,0" fill="#2ca02c" transform="translate(7.28638019984334,-53.055362376878875)"><title>Person 494508</title></path><path d="M5.046265044040321,0A5.046265044040321,5.046265044040321,0,1,1,-5.046265044040321,0A5.046265044040321,5.046265044040321,0,1,1,5.046265044040321,0" fill="#8c564b" transform="translate(29.14335090314186,-34.80607414988399)"><title>Person 500192</title></path><path d="M5.046265044040321,0A5.046265044040321,5.046265044040321,0,1,1,-5.046265044040321,0A5.046265044040321,5.046265044040321,0,1,1,5.046265044040321,0" fill="#9467bd" transform="translate(-54.71988333922589,61.55868666604239)"><title>Person 508913</title></path><path d="M5.046265044040321,0A5.046265044040321,5.046265044040321,0,1,1,-5.046265044040321,0A5.046265044040321,5.046265044040321,0,1,1,5.046265044040321,0" fill="#d62728" transform="translate(-65.95447511942648,-30.601156123646515)"><title>Person 463126</title></path><path d="M5.046265044040321,0A5.046265044040321,5.046265044040321,0,1,1,-5.046265044040321,0A5.046265044040321,5.046265044040321,0,1,1,5.046265044040321,0" fill="#8c564b" transform="translate(-36.8989418831864,-59.031586027126515)"><title>Person 516694</title></path><path d="M5.046265044040321,0A5.046265044040321,5.046265044040321,0,1,1,-5.046265044040321,0A5.046265044040321,5.046265044040321,0,1,1,5.046265044040321,0" fill="#d62728" transform="translate(27.967217004434993,26.100036239285032)"><title>Person 534237</title></path><path d="M5.046265044040321,0A5.046265044040321,5.046265044040321,0,1,1,-5.046265044040321,0A5.046265044040321,5.046265044040321,0,1,1,5.046265044040321,0" fill="#d62728" transform="translate(-53.43227584766748,18.60041358297689)"><title>Person 546999</title></path><path d="M5.046265044040321,0A5.046265044040321,5.046265044040321,0,1,1,-5.046265044040321,0A5.046265044040321,5.046265044040321,0,1,1,5.046265044040321,0" fill="#9467bd" transform="translate(-81.78266155432266,53.29718194241219)"><title>Person 551810</title></path><path d="M5.046265044040321,0A5.046265044040321,5.046265044040321,0,1,1,-5.046265044040321,0A5.046265044040321,5.046265044040321,0,1,1,5.046265044040321,0" fill="#d62728" transform="translate(-16.913868633978566,-7.50652872461455)"><title>Person 559042</title></path><path d="M5.046265044040321,0A5.046265044040321,5.046265044040321,0,1,1,-5.046265044040321,0A5.046265044040321,5.046265044040321,0,1,1,5.046265044040321,0" fill="#d62728" transform="translate(-28.57832996127038,43.66105077355519)"><title>Person 561312</title></path><path d="M5.046265044040321,0A5.046265044040321,5.046265044040321,0,1,1,-5.046265044040321,0A5.046265044040321,5.046265044040321,0,1,1,5.046265044040321,0" fill="#d62728" transform="translate(-39.02044532555984,-6.334275674085116)"><title>Person 566386</title></path><path d="M5.046265044040321,0A5.046265044040321,5.046265044040321,0,1,1,-5.046265044040321,0A5.046265044040321,5.046265044040321,0,1,1,5.046265044040321,0" fill="#1f77b4" transform="translate(-4.549291499773704,44.7702313550831)"><title>Person 568093</title></path><path d="M5.046265044040321,0A5.046265044040321,5.046265044040321,0,1,1,-5.046265044040321,0A5.046265044040321,5.046265044040321,0,1,1,5.046265044040321,0" fill="#8c564b" transform="translate(-110.65185869862471,27.90063925745227)"><title>Person 572500</title></path><path d="M5.046265044040321,0A5.046265044040321,5.046265044040321,0,1,1,-5.046265044040321,0A5.046265044040321,5.046265044040321,0,1,1,5.046265044040321,0" fill="#1f77b4" transform="translate(-82.7989695891373,6.2129655504279135)"><title>Person 581406</title></path><path d="M5.046265044040321,0A5.046265044040321,5.046265044040321,0,1,1,-5.046265044040321,0A5.046265044040321,5.046265044040321,0,1,1,5.046265044040321,0" fill="#8c564b" transform="translate(8.774733049941707,67.17229329194102)"><title>Person 593266</title></path><path d="M5.046265044040321,0A5.046265044040321,5.046265044040321,0,1,1,-5.046265044040321,0A5.046265044040321,5.046265044040321,0,1,1,5.046265044040321,0" fill="#d62728" transform="translate(-62.661942132374904,41.95169696750383)"><title>Person 594766</title></path><path d="M5.046265044040321,0A5.046265044040321,5.046265044040321,0,1,1,-5.046265044040321,0A5.046265044040321,5.046265044040321,0,1,1,5.046265044040321,0" fill="#9467bd" transform="translate(50.72843702058399,12.150771364414599)"><title>Person 595539</title></path><path d="M5.046265044040321,0A5.046265044040321,5.046265044040321,0,1,1,-5.046265044040321,0A5.046265044040321,5.046265044040321,0,1,1,5.046265044040321,0" fill="#9467bd" transform="translate(71.3713278848376,40.136990354836925)"><title>Person 597992</title></path><path d="M5.046265044040321,0A5.046265044040321,5.046265044040321,0,1,1,-5.046265044040321,0A5.046265044040321,5.046265044040321,0,1,1,5.046265044040321,0" fill="#9467bd" transform="translate(49.81583424693418,-45.89764086698715)"><title>Person 599441</title></path><path d="M5.046265044040321,0A5.046265044040321,5.046265044040321,0,1,1,-5.046265044040321,0A5.046265044040321,5.046265044040321,0,1,1,5.046265044040321,0" fill="#8c564b" transform="translate(-106.34130666313179,52.77718495019465)"><title>Person 615605</title></path><path d="M5.046265044040321,0A5.046265044040321,5.046265044040321,0,1,1,-5.046265044040321,0A5.046265044040321,5.046265044040321,0,1,1,5.046265044040321,0" fill="#9467bd" transform="translate(71.74944913403363,-16.30853746371662)"><title>Person 629627</title></path><path d="M5.046265044040321,0A5.046265044040321,5.046265044040321,0,1,1,-5.046265044040321,0A5.046265044040321,5.046265044040321,0,1,1,5.046265044040321,0" fill="#1f77b4" transform="translate(-82.95626501598687,29.923645793536476)"><title>Person 636990</title></path><path d="M5.046265044040321,0A5.046265044040321,5.046265044040321,0,1,1,-5.046265044040321,0A5.046265044040321,5.046265044040321,0,1,1,5.046265044040321,0" fill="#8c564b" transform="translate(-104.23621307450784,5.47874711797502)"><title>Person 638752</title></path><path d="M5.046265044040321,0A5.046265044040321,5.046265044040321,0,1,1,-5.046265044040321,0A5.046265044040321,5.046265044040321,0,1,1,5.046265044040321,0" fill="#d62728" transform="translate(-25.884015623960305,-33.11051688650371)"><title>Person 645393</title></path><path d="M5.046265044040321,0A5.046265044040321,5.046265044040321,0,1,1,-5.046265044040321,0A5.046265044040321,5.046265044040321,0,1,1,5.046265044040321,0" fill="#1f77b4" transform="translate(-7.925962674047124,-95.05375435610098)"><title>Person 655636</title></path><path d="M5.046265044040321,0A5.046265044040321,5.046265044040321,0,1,1,-5.046265044040321,0A5.046265044040321,5.046265044040321,0,1,1,5.046265044040321,0" fill="#9467bd" transform="translate(68.60041374216297,-51.43677540959694)"><title>Person 459811</title></path><path d="M5.046265044040321,0A5.046265044040321,5.046265044040321,0,1,1,-5.046265044040321,0A5.046265044040321,5.046265044040321,0,1,1,5.046265044040321,0" fill="#9467bd" transform="translate(-64.21048590095512,77.88999219677535)"><title>Person 482973</title></path><path d="M5.046265044040321,0A5.046265044040321,5.046265044040321,0,1,1,-5.046265044040321,0A5.046265044040321,5.046265044040321,0,1,1,5.046265044040321,0" fill="#2ca02c" transform="translate(19.094771268264726,-43.48238764660269)"><title>Person 494556</title></path><path d="M5.046265044040321,0A5.046265044040321,5.046265044040321,0,1,1,-5.046265044040321,0A5.046265044040321,5.046265044040321,0,1,1,5.046265044040321,0" fill="#7f7f7f" transform="translate(-17.811560414735247,10.9119747664425)"><title>Person 497185</title></path><path d="M5.046265044040321,0A5.046265044040321,5.046265044040321,0,1,1,-5.046265044040321,0A5.046265044040321,5.046265044040321,0,1,1,5.046265044040321,0" fill="#1f77b4" transform="translate(-1.7839511223191953,1.9668930474743695)"><title>Person 463038</title></path><path d="M5.046265044040321,0A5.046265044040321,5.046265044040321,0,1,1,-5.046265044040321,0A5.046265044040321,5.046265044040321,0,1,1,5.046265044040321,0" fill="#8c564b" transform="translate(18.448680132323233,58.22547456958666)"><title>Person 463884</title></path><path d="M5.046265044040321,0A5.046265044040321,5.046265044040321,0,1,1,-5.046265044040321,0A5.046265044040321,5.046265044040321,0,1,1,5.046265044040321,0" fill="#8c564b" transform="translate(14.616251368343923,36.31143902595567)"><title>Person 536715</title></path><path d="M5.046265044040321,0A5.046265044040321,5.046265044040321,0,1,1,-5.046265044040321,0A5.046265044040321,5.046265044040321,0,1,1,5.046265044040321,0" fill="#8c564b" transform="translate(83.84589257081525,-59.49075234632923)"><title>Person 545850</title></path><path d="M5.046265044040321,0A5.046265044040321,5.046265044040321,0,1,1,-5.046265044040321,0A5.046265044040321,5.046265044040321,0,1,1,5.046265044040321,0" fill="#9467bd" transform="translate(14.329145967166824,-88.9714744206723)"><title>Person 558277</title></path><path d="M5.046265044040321,0A5.046265044040321,5.046265044040321,0,1,1,-5.046265044040321,0A5.046265044040321,5.046265044040321,0,1,1,5.046265044040321,0" fill="#7f7f7f" transform="translate(0.579865679406557,-14.644365830264915)"><title>Person 583251</title></path><path d="M5.046265044040321,0A5.046265044040321,5.046265044040321,0,1,1,-5.046265044040321,0A5.046265044040321,5.046265044040321,0,1,1,5.046265044040321,0" fill="#8c564b" transform="translate(39.999804987139775,53.9034681707866)"><title>Person 584811</title></path><path d="M5.046265044040321,0A5.046265044040321,5.046265044040321,0,1,1,-5.046265044040321,0A5.046265044040321,5.046265044040321,0,1,1,5.046265044040321,0" fill="#d62728" transform="translate(-16.260199103362204,-19.704962973927646)"><title>Person 598220</title></path><path d="M5.046265044040321,0A5.046265044040321,5.046265044040321,0,1,1,-5.046265044040321,0A5.046265044040321,5.046265044040321,0,1,1,5.046265044040321,0" fill="#7f7f7f" transform="translate(-56.928988940462,-56.180553165691286)"><title>Person 600329</title></path><path d="M5.046265044040321,0A5.046265044040321,5.046265044040321,0,1,1,-5.046265044040321,0A5.046265044040321,5.046265044040321,0,1,1,5.046265044040321,0" fill="#7f7f7f" transform="translate(43.563275217783,35.63206871592453)"><title>Person 612378</title></path><path d="M5.046265044040321,0A5.046265044040321,5.046265044040321,0,1,1,-5.046265044040321,0A5.046265044040321,5.046265044040321,0,1,1,5.046265044040321,0" fill="#d62728" transform="translate(-6.5698035014312,-43.03079398869684)"><title>Person 634283</title></path><path d="M5.046265044040321,0A5.046265044040321,5.046265044040321,0,1,1,-5.046265044040321,0A5.046265044040321,5.046265044040321,0,1,1,5.046265044040321,0" fill="#7f7f7f" transform="translate(13.304454879219906,-17.088017633072475)"><title>Person 648781</title></path><path d="M5.046265044040321,0A5.046265044040321,5.046265044040321,0,1,1,-5.046265044040321,0A5.046265044040321,5.046265044040321,0,1,1,5.046265044040321,0" fill="#9467bd" transform="translate(63.74086860375621,17.673095815523833)"><title>Person 652002</title></path><path d="M0,-8.441862787462423L1.8953162830083747,-2.6086790655073533L8.028688613685706,-2.6086790655073537L3.0666861653386652,0.9964267372834953L4.962002448347041,6.829610459238564L6.661338147750939e-16,3.2245046564477153L-4.9620024483470395,6.829610459238565L-3.0666861653386652,0.9964267372834958L-8.028688613685707,-2.608679065507352L-1.8953162830083754,-2.608679065507353Z" fill="#9467bd" transform="translate(39.19300286174052,-20.622736279634346)"><title>Country 509607</title></path><path d="M0,-8.441862787462423L1.8953162830083747,-2.6086790655073533L8.028688613685706,-2.6086790655073537L3.0666861653386652,0.9964267372834953L4.962002448347041,6.829610459238564L6.661338147750939e-16,3.2245046564477153L-4.9620024483470395,6.829610459238565L-3.0666861653386652,0.9964267372834958L-8.028688613685707,-2.608679065507352L-1.8953162830083754,-2.608679065507353Z" fill="#2ca02c" transform="translate(36.22672367726524,-5.535967549523224)"><title>Country 499467</title></path><path d="M0,-8.441862787462423L1.8953162830083747,-2.6086790655073533L8.028688613685706,-2.6086790655073537L3.0666861653386652,0.9964267372834953L4.962002448347041,6.829610459238564L6.661338147750939e-16,3.2245046564477153L-4.9620024483470395,6.829610459238565L-3.0666861653386652,0.9964267372834958L-8.028688613685707,-2.608679065507352L-1.8953162830083754,-2.608679065507353Z" fill="#8c564b" transform="translate(-0.020874342393557354,23.58633556928024)"><title>Country 616453</title></path><path d="M0,-8.441862787462423L1.8953162830083747,-2.6086790655073533L8.028688613685706,-2.6086790655073537L3.0666861653386652,0.9964267372834953L4.962002448347041,6.829610459238564L6.661338147750939e-16,3.2245046564477153L-4.9620024483470395,6.829610459238565L-3.0666861653386652,0.9964267372834958L-8.028688613685707,-2.608679065507352L-1.8953162830083754,-2.608679065507353Z" fill="#d62728" transform="translate(31.18422874753657,7.333654248227142)"><title>Country 625756</title></path><path d="M0,-8.441862787462423L1.8953162830083747,-2.6086790655073533L8.028688613685706,-2.6086790655073537L3.0666861653386652,0.9964267372834953L4.962002448347041,6.829610459238564L6.661338147750939e-16,3.2245046564477153L-4.9620024483470395,6.829610459238565L-3.0666861653386652,0.9964267372834958L-8.028688613685707,-2.608679065507352L-1.8953162830083754,-2.608679065507353Z" fill="#1f77b4" transform="translate(-16.309192452921007,26.644587597785513)"><title>Country 561157</title></path><path d="M0,-8.441862787462423L1.8953162830083747,-2.6086790655073533L8.028688613685706,-2.6086790655073537L3.0666861653386652,0.9964267372834953L4.962002448347041,6.829610459238564L6.661338147750939e-16,3.2245046564477153L-4.9620024483470395,6.829610459238565L-3.0666861653386652,0.9964267372834958L-8.028688613685707,-2.608679065507352L-1.8953162830083754,-2.608679065507353Z" fill="#ff7f0e" transform="translate(14.03716231410681,8.491503459291199)"><title>Country 657173</title></path><path d="M-4.47213595499958,-4.47213595499958h8.94427190999916v8.94427190999916h-8.94427190999916Z" fill="#7f7f7f" transform="translate(61.10703055990651,81.95155744495109)"><title>Document 593870</title></path></g></svg>