<svg xmlns="http://www.w3.org/2000/svg" width="300" height="300" viewBox="-150,-150,300,300"><text x="-150" y="-130" font-family="sans-serif" font-size="12px" text-anchor="start"></text><g stroke="#999999" stroke-opacity="0.6"><line stroke-width="2.23607px" x1="-12.725779706872798" y1="-70.23618379221055" x2="20.66406160352446" y2="-79.90154446150027" stroke="#999999"></line><line stroke-width="2.23607px" x1="-12.725779706872798" y1="-70.23618379221055" x2="-16.567154055941742" y2="-22.113314193077834" stroke="#999999"></line><line stroke-width="2.23607px" x1="-12.725779706872798" y1="-70.23618379221055" x2="-25.24166517848543" y2="-35.9833078076702" stroke="#999999"></line><line stroke-width="1.73205px" x1="-120.38387756601072" y1="11.442974151603911" x2="-84.81443760626492" y2="7.352010488716468" stroke="#999999"></line><line stroke-width="2.64575px" x1="-120.38387756601072" y1="11.442974151603911" x2="-93.85331282215851" y2="24.83139029228827" stroke="#999999"></line><line stroke-width="1.73205px" x1="-120.38387756601072" y1="11.442974151603911" x2="-104.59231598233146" y2="5.418503997849502" stroke="#999999"></line><line stroke-width="1" x1="-120.38387756601072" y1="11.442974151603911" x2="-83.85104149039482" y2="-30.254892435334096" stroke="#999999"></line><line stroke-width="1.73205px" x1="-120.38387756601072" y1="11.442974151603911" x2="-88.43531442426936" y2="43.430405593759666" stroke="#999999"></line><line stroke-width="1.41421px" x1="-120.38387756601072" y1="11.442974151603911" x2="-101.74469091919649" y2="-28.136025538849367" stroke="#999999"></line><line stroke-width="1.73205px" x1="-120.38387756601072" y1="11.442974151603911" x2="-115.97198568459015" y2="-12.086865003290386" stroke="#999999"></line><line stroke-width="1.41421px" x1="-120.38387756601072" y1="11.442974151603911" x2="-73.60582803958499" y2="-11.92736102676023" stroke="#999999"></line><line stroke-width="1.41421px" x1="-120.38387756601072" y1="11.442974151603911" x2="-66.27470133911608" y2="14.303811335630202" stroke="#999999"></line><line stroke-width="1" x1="-120.38387756601072" y1="11.442974151603911" x2="-84.81443760626492" y2="7.352010488716468" stroke="#999999"></line><line stroke-width="1.41421px" x1="-120.38387756601072" y1="11.442974151603911" x2="-110.81526821038192" y2="33.837846744107345" stroke="#999999"></line><line stroke-width="1.41421px" x1="-120.38387756601072" y1="11.442974151603911" x2="-88.43531442426936" y2="43.430405593759666" stroke="#999999"></line><line stroke-width="1" x1="-120.38387756601072" y1="11.442974151603911" x2="-115.97198568459015" y2="-12.086865003290386" stroke="#999999"></line><line stroke-width="1" x1="-120.38387756601072" y1="11.442974151603911" x2="-73.60582803958499" y2="-11.92736102676023" stroke="#999999"></line><line stroke-width="2.23607px" x1="10.748165877200632" y1="-37.10297478701998" x2="20.66406160352446" y2="-79.90154446150027" stroke="#999999"></line><line stroke-width="2.23607px" x1="10.748165877200632" y1="-37.10297478701998" x2="-7.197357342946085" y2="-5.15006905223518" stroke="#999999"></line><line stroke-width="2.23607px" x1="10.748165877200632" y1="-37.10297478701998" x2="-25.24166517848543" y2="-35.9833078076702" stroke="#999999"></line><line stroke-width="2.23607px" x1="10.748165877200632" y1="-37.10297478701998" x2="54.39286484034367" y2="-26.54225849692546" stroke="#999999"></line><line stroke-width="2.23607px" x1="-6.824605661119471" y1="28.877223972966902" x2="-7.197357342946085" y2="-5.15006905223518" stroke="#999999"></line><line stroke-width="2.23607px" x1="7.915717643227215" y1="26.502220796208537" x2="-7.197357342946085" y2="-5.15006905223518" stroke="#999999"></line><line stroke-width="2.44949px" x1="-84.81443760626492" y1="7.352010488716468" x2="-120.38387756601072" y2="11.442974151603911" stroke="#999999"></line><line stroke-width="2.23607px" x1="-84.81443760626492" y1="7.352010488716468" x2="-93.85331282215851" y2="24.83139029228827" stroke="#999999"></line><line stroke-width="4.12311px" x1="-84.81443760626492" y1="7.352010488716468" x2="-48.027335401266136" y2="-7.815008258778925" stroke="#999999"></line><line stroke-width="1" x1="-84.81443760626492" y1="7.352010488716468" x2="-110.81526821038192" y2="33.837846744107345" stroke="#999999"></line><line stroke-width="2.23607px" x1="-84.81443760626492" y1="7.352010488716468" x2="-83.85104149039482" y2="-30.254892435334096" stroke="#999999"></line><line stroke-width="1" x1="-84.81443760626492" y1="7.352010488716468" x2="-88.43531442426936" y2="43.430405593759666" stroke="#999999"></line><line stroke-width="1" x1="-84.81443760626492" y1="7.352010488716468" x2="-115.97198568459015" y2="-12.086865003290386" stroke="#999999"></line><line stroke-width="1.41421px" x1="-84.81443760626492" y1="7.352010488716468" x2="-66.27470133911608" y2="14.303811335630202" stroke="#999999"></line><line stroke-width="1" x1="-84.81443760626492" y1="7.352010488716468" x2="-120.38387756601072" y2="11.442974151603911" stroke="#999999"></line><line stroke-width="1" x1="-84.81443760626492" y1="7.352010488716468" x2="-93.85331282215851" y2="24.83139029228827" stroke="#999999"></line><line stroke-width="1.41421px" x1="-84.81443760626492" y1="7.352010488716468" x2="-104.59231598233146" y2="5.418503997849502" stroke="#999999"></line><line stroke-width="1.41421px" x1="-84.81443760626492" y1="7.352010488716468" x2="-90.88258059979314" y2="-12.075408960626895" stroke="#999999"></line><line stroke-width="1.41421px" x1="-84.81443760626492" y1="7.352010488716468" x2="-110.81526821038192" y2="33.837846744107345" stroke="#999999"></line><line stroke-width="1" x1="-84.81443760626492" y1="7.352010488716468" x2="-115.97198568459015" y2="-12.086865003290386" stroke="#999999"></line><line stroke-width="1" x1="-84.81443760626492" y1="7.352010488716468" x2="-66.27470133911608" y2="14.303811335630202" stroke="#999999"></line><line stroke-width="3.31662px" x1="-93.85331282215851" y1="24.83139029228827" x2="-120.38387756601072" y2="11.442974151603911" stroke="#999999"></line><line stroke-width="1.73205px" x1="-93.85331282215851" y1="24.83139029228827" x2="-84.81443760626492" y2="7.352010488716468" stroke="#999999"></line><line stroke-width="2.44949px" x1="-93.85331282215851" y1="24.83139029228827" x2="-110.81526821038192" y2="33.837846744107345" stroke="#999999"></line><line stroke-width="1.41421px" x1="-93.85331282215851" y1="24.83139029228827" x2="-88.43531442426936" y2="43.430405593759666" stroke="#999999"></line><line stroke-width="1" x1="-93.85331282215851" y1="24.83139029228827" x2="-101.74469091919649" y2="-28.136025538849367" stroke="#999999"></line><line stroke-width="1" x1="-93.85331282215851" y1="24.83139029228827" x2="-115.97198568459015" y2="-12.086865003290386" stroke="#999999"></line><line stroke-width="3px" x1="-93.85331282215851" y1="24.83139029228827" x2="-66.27470133911608" y2="14.303811335630202" stroke="#999999"></line><line stroke-width="2.82843px" x1="-93.85331282215851" y1="24.83139029228827" x2="-120.38387756601072" y2="11.442974151603911" stroke="#999999"></line><line stroke-width="1.41421px" x1="-93.85331282215851" y1="24.83139029228827" x2="-84.81443760626492" y2="7.352010488716468" stroke="#999999"></line><line stroke-width="1.41421px" x1="-93.85331282215851" y1="24.83139029228827" x2="-104.59231598233146" y2="5.418503997849502" stroke="#999999"></line><line stroke-width="1" x1="-93.85331282215851" y1="24.83139029228827" x2="-110.81526821038192" y2="33.837846744107345" stroke="#999999"></line><line stroke-width="1" x1="-93.85331282215851" y1="24.83139029228827" x2="-83.85104149039482" y2="-30.254892435334096" stroke="#999999"></line><line stroke-width="1.41421px" x1="-93.85331282215851" y1="24.83139029228827" x2="-88.43531442426936" y2="43.430405593759666" stroke="#999999"></line><line stroke-width="2px" x1="-93.85331282215851" y1="24.83139029228827" x2="-115.97198568459015" y2="-12.086865003290386" stroke="#999999"></line><line stroke-width="1.73205px" x1="-93.85331282215851" y1="24.83139029228827" x2="-73.60582803958499" y2="-11.92736102676023" stroke="#999999"></line><line stroke-width="2.23607px" x1="-93.85331282215851" y1="24.83139029228827" x2="-66.27470133911608" y2="14.303811335630202" stroke="#999999"></line><line stroke-width="2.23607px" x1="-4.95776009557383" y1="-60.444780603339886" x2="20.66406160352446" y2="-79.90154446150027" stroke="#999999"></line><line stroke-width="2.23607px" x1="-4.95776009557383" y1="-60.444780603339886" x2="-16.567154055941742" y2="-22.113314193077834" stroke="#999999"></line><line stroke-width="2.23607px" x1="-4.95776009557383" y1="-60.444780603339886" x2="-25.24166517848543" y2="-35.9833078076702" stroke="#999999"></line><line stroke-width="3px" x1="-48.027335401266136" y1="-7.815008258778925" x2="-57.70391552788872" y2="-46.5516032744612" stroke="#999999"></line><line stroke-width="3px" x1="-48.027335401266136" y1="-7.815008258778925" x2="-84.81443760626492" y2="7.352010488716468" stroke="#999999"></line><line stroke-width="3.87298px" x1="-48.027335401266136" y1="-7.815008258778925" x2="-83.85104149039482" y2="-30.254892435334096" stroke="#999999"></line><line stroke-width="1" x1="-48.027335401266136" y1="-7.815008258778925" x2="-32.14636945459137" y2="17.27523131193544" stroke="#999999"></line><line stroke-width="2.23607px" x1="-48.027335401266136" y1="-7.815008258778925" x2="-7.197357342946085" y2="-5.15006905223518" stroke="#999999"></line><line stroke-width="2.23607px" x1="-48.027335401266136" y1="-7.815008258778925" x2="-16.567154055941742" y2="-22.113314193077834" stroke="#999999"></line><line stroke-width="2.23607px" x1="-48.027335401266136" y1="-7.815008258778925" x2="-45.8402480714681" y2="35.203748965065486" stroke="#999999"></line><line stroke-width="2.23607px" x1="-48.027335401266136" y1="-7.815008258778925" x2="-25.24166517848543" y2="-35.9833078076702" stroke="#999999"></line><line stroke-width="2.23607px" x1="19.636794679629574" y1="17.994536270265538" x2="-7.197357342946085" y2="-5.15006905223518" stroke="#999999"></line><line stroke-width="1" x1="-104.59231598233146" y1="5.418503997849502" x2="-101.74469091919649" y2="-28.136025538849367" stroke="#999999"></line><line stroke-width="2.23607px" x1="-104.59231598233146" y1="5.418503997849502" x2="-73.60582803958499" y2="-11.92736102676023" stroke="#999999"></line><line stroke-width="2px" x1="-104.59231598233146" y1="5.418503997849502" x2="-66.27470133911608" y2="14.303811335630202" stroke="#999999"></line><line stroke-width="1.41421px" x1="-104.59231598233146" y1="5.418503997849502" x2="-120.38387756601072" y2="11.442974151603911" stroke="#999999"></line><line stroke-width="1.41421px" x1="-104.59231598233146" y1="5.418503997849502" x2="-84.81443760626492" y2="7.352010488716468" stroke="#999999"></line><line stroke-width="1" x1="-104.59231598233146" y1="5.418503997849502" x2="-90.88258059979314" y2="-12.075408960626895" stroke="#999999"></line><line stroke-width="1" x1="-104.59231598233146" y1="5.418503997849502" x2="-110.81526821038192" y2="33.837846744107345" stroke="#999999"></line><line stroke-width="1.41421px" x1="-104.59231598233146" y1="5.418503997849502" x2="-88.43531442426936" y2="43.430405593759666" stroke="#999999"></line><line stroke-width="2.64575px" x1="-104.59231598233146" y1="5.418503997849502" x2="-101.74469091919649" y2="-28.136025538849367" stroke="#999999"></line><line stroke-width="1.41421px" x1="-104.59231598233146" y1="5.418503997849502" x2="-115.97198568459015" y2="-12.086865003290386" stroke="#999999"></line><line stroke-width="2.64575px" x1="-104.59231598233146" y1="5.418503997849502" x2="-73.60582803958499" y2="-11.92736102676023" stroke="#999999"></line><line stroke-width="2.23607px" x1="-104.59231598233146" y1="5.418503997849502" x2="-66.27470133911608" y2="14.303811335630202" stroke="#999999"></line><line stroke-width="1" x1="-90.88258059979314" y1="-12.075408960626895" x2="-120.38387756601072" y2="11.442974151603911" stroke="#999999"></line><line stroke-width="1" x1="-90.88258059979314" y1="-12.075408960626895" x2="-93.85331282215851" y2="24.83139029228827" stroke="#999999"></line><line stroke-width="1.41421px" x1="-90.88258059979314" y1="-12.075408960626895" x2="-104.59231598233146" y2="5.418503997849502" stroke="#999999"></line><line stroke-width="1" x1="-90.88258059979314" y1="-12.075408960626895" x2="-110.81526821038192" y2="33.837846744107345" stroke="#999999"></line><line stroke-width="1.73205px" x1="-90.88258059979314" y1="-12.075408960626895" x2="-88.43531442426936" y2="43.430405593759666" stroke="#999999"></line><line stroke-width="1.41421px" x1="-90.88258059979314" y1="-12.075408960626895" x2="-101.74469091919649" y2="-28.136025538849367" stroke="#999999"></line><line stroke-width="1" x1="-90.88258059979314" y1="-12.075408960626895" x2="-73.60582803958499" y2="-11.92736102676023" stroke="#999999"></line><line stroke-width="1.41421px" x1="-90.88258059979314" y1="-12.075408960626895" x2="-66.27470133911608" y2="14.303811335630202" stroke="#999999"></line><line stroke-width="1.73205px" x1="-90.88258059979314" y1="-12.075408960626895" x2="-115.97198568459015" y2="-12.086865003290386" stroke="#999999"></line><line stroke-width="1.73205px" x1="-90.88258059979314" y1="-12.075408960626895" x2="-66.27470133911608" y2="14.303811335630202" stroke="#999999"></line><line stroke-width="1" x1="-35.094954244451365" y1="50.86966018941947" x2="-32.5994231767128" y2="81.89255168032771" stroke="#999999"></line><line stroke-width="2.23607px" x1="12.249459930449785" y1="-49.49519272070035" x2="20.66406160352446" y2="-79.90154446150027" stroke="#999999"></line><line stroke-width="2.23607px" x1="12.249459930449785" y1="-49.49519272070035" x2="-7.197357342946085" y2="-5.15006905223518" stroke="#999999"></line><line stroke-width="2.23607px" x1="12.249459930449785" y1="-49.49519272070035" x2="-25.24166517848543" y2="-35.9833078076702" stroke="#999999"></line><line stroke-width="2.23607px" x1="12.249459930449785" y1="-49.49519272070035" x2="54.39286484034367" y2="-26.54225849692546" stroke="#999999"></line><line stroke-width="1" x1="-58.93014352975106" y1="45.24924934108534" x2="-48.027335401266136" y2="-7.815008258778925" stroke="#999999"></line><line stroke-width="1" x1="-58.93014352975106" y1="45.24924934108534" x2="-35.094954244451365" y2="50.86966018941947" stroke="#999999"></line><line stroke-width="1.73205px" x1="-58.93014352975106" y1="45.24924934108534" x2="-66.27470133911608" y2="14.303811335630202" stroke="#999999"></line><line stroke-width="1.41421px" x1="-58.93014352975106" y1="45.24924934108534" x2="-48.027335401266136" y2="-7.815008258778925" stroke="#999999"></line><line stroke-width="2px" x1="-58.93014352975106" y1="45.24924934108534" x2="-35.094954244451365" y2="50.86966018941947" stroke="#999999"></line><line stroke-width="2px" x1="-58.93014352975106" y1="45.24924934108534" x2="-32.14636945459137" y2="17.27523131193544" stroke="#999999"></line><line stroke-width="1.41421px" x1="-58.93014352975106" y1="45.24924934108534" x2="-66.27470133911608" y2="14.303811335630202" stroke="#999999"></line><line stroke-width="1.73205px" x1="-110.81526821038192" y1="33.837846744107345" x2="-120.38387756601072" y2="11.442974151603911" stroke="#999999"></line><line stroke-width="2px" x1="-110.81526821038192" y1="33.837846744107345" x2="-84.81443760626492" y2="7.352010488716468" stroke="#999999"></line><line stroke-width="1.73205px" x1="-110.81526821038192" y1="33.837846744107345" x2="-93.85331282215851" y2="24.83139029228827" stroke="#999999"></line><line stroke-width="1.73205px" x1="-110.81526821038192" y1="33.837846744107345" x2="-88.43531442426936" y2="43.430405593759666" stroke="#999999"></line><line stroke-width="1" x1="-110.81526821038192" y1="33.837846744107345" x2="-115.97198568459015" y2="-12.086865003290386" stroke="#999999"></line><line stroke-width="1" x1="-110.81526821038192" y1="33.837846744107345" x2="-66.27470133911608" y2="14.303811335630202" stroke="#999999"></line><line stroke-width="1.73205px" x1="-83.85104149039482" y1="-30.254892435334096" x2="-84.81443760626492" y2="7.352010488716468" stroke="#999999"></line><line stroke-width="4.69042px" x1="-83.85104149039482" y1="-30.254892435334096" x2="-48.027335401266136" y2="-7.815008258778925" stroke="#999999"></line><line stroke-width="1" x1="-83.85104149039482" y1="-30.254892435334096" x2="-73.60582803958499" y2="-11.92736102676023" stroke="#999999"></line><line stroke-width="3px" x1="-83.85104149039482" y1="-30.254892435334096" x2="-57.70391552788872" y2="-46.5516032744612" stroke="#999999"></line><line stroke-width="2.23607px" x1="29.003104141819158" y1="-2.7049931995447234" x2="-16.567154055941742" y2="-22.113314193077834" stroke="#999999"></line><line stroke-width="2.23607px" x1="29.003104141819158" y1="-2.7049931995447234" x2="54.39286484034367" y2="-26.54225849692546" stroke="#999999"></line><line stroke-width="2.23607px" x1="26.223829237500446" y1="-48.794834269704545" x2="20.66406160352446" y2="-79.90154446150027" stroke="#999999"></line><line stroke-width="2.23607px" x1="26.223829237500446" y1="-48.794834269704545" x2="-7.197357342946085" y2="-5.15006905223518" stroke="#999999"></line><line stroke-width="2.23607px" x1="26.223829237500446" y1="-48.794834269704545" x2="-25.24166517848543" y2="-35.9833078076702" stroke="#999999"></line><line stroke-width="2.23607px" x1="26.223829237500446" y1="-48.794834269704545" x2="54.39286484034367" y2="-26.54225849692546" stroke="#999999"></line><line stroke-width="1" x1="-88.43531442426936" y1="43.430405593759666" x2="-120.38387756601072" y2="11.442974151603911" stroke="#999999"></line><line stroke-width="2px" x1="-88.43531442426936" y1="43.430405593759666" x2="-84.81443760626492" y2="7.352010488716468" stroke="#999999"></line><line stroke-width="2px" x1="-88.43531442426936" y1="43.430405593759666" x2="-93.85331282215851" y2="24.83139029228827" stroke="#999999"></line><line stroke-width="2px" x1="-88.43531442426936" y1="43.430405593759666" x2="-110.81526821038192" y2="33.837846744107345" stroke="#999999"></line><line stroke-width="1.73205px" x1="-88.43531442426936" y1="43.430405593759666" x2="-66.27470133911608" y2="14.303811335630202" stroke="#999999"></line><line stroke-width="1" x1="-88.43531442426936" y1="43.430405593759666" x2="-120.38387756601072" y2="11.442974151603911" stroke="#999999"></line><line stroke-width="1" x1="-88.43531442426936" y1="43.430405593759666" x2="-84.81443760626492" y2="7.352010488716468" stroke="#999999"></line><line stroke-width="1" x1="-88.43531442426936" y1="43.430405593759666" x2="-104.59231598233146" y2="5.418503997849502" stroke="#999999"></line><line stroke-width="2.23607px" x1="-88.43531442426936" y1="43.430405593759666" x2="-110.81526821038192" y2="33.837846744107345" stroke="#999999"></line><line stroke-width="1" x1="-88.43531442426936" y1="43.430405593759666" x2="-73.60582803958499" y2="-11.92736102676023" stroke="#999999"></line><line stroke-width="1" x1="-88.43531442426936" y1="43.430405593759666" x2="-66.27470133911608" y2="14.303811335630202" stroke="#999999"></line><line stroke-width="2.23607px" x1="20.127517046329146" y1="-9.339961030767789" x2="-16.567154055941742" y2="-22.113314193077834" stroke="#999999"></line><line stroke-width="2.23607px" x1="20.127517046329146" y1="-9.339961030767789" x2="54.39286484034367" y2="-26.54225849692546" stroke="#999999"></line><line stroke-width="1" x1="-101.74469091919649" y1="-28.136025538849367" x2="-120.38387756601072" y2="11.442974151603911" stroke="#999999"></line><line stroke-width="2px" x1="-101.74469091919649" y1="-28.136025538849367" x2="-104.59231598233146" y2="5.418503997849502" stroke="#999999"></line><line stroke-width="2.64575px" x1="-101.74469091919649" y1="-28.136025538849367" x2="-73.60582803958499" y2="-11.92736102676023" stroke="#999999"></line><line stroke-width="1.41421px" x1="-101.74469091919649" y1="-28.136025538849367" x2="-66.27470133911608" y2="14.303811335630202" stroke="#999999"></line><line stroke-width="1" x1="-101.74469091919649" y1="-28.136025538849367" x2="-120.38387756601072" y2="11.442974151603911" stroke="#999999"></line><line stroke-width="1.41421px" x1="-101.74469091919649" y1="-28.136025538849367" x2="-93.85331282215851" y2="24.83139029228827" stroke="#999999"></line><line stroke-width="2.64575px" x1="-101.74469091919649" y1="-28.136025538849367" x2="-104.59231598233146" y2="5.418503997849502" stroke="#999999"></line><line stroke-width="1" x1="-101.74469091919649" y1="-28.136025538849367" x2="-110.81526821038192" y2="33.837846744107345" stroke="#999999"></line><line stroke-width="1" x1="-101.74469091919649" y1="-28.136025538849367" x2="-88.43531442426936" y2="43.430405593759666" stroke="#999999"></line><line stroke-width="1" x1="-101.74469091919649" y1="-28.136025538849367" x2="-115.97198568459015" y2="-12.086865003290386" stroke="#999999"></line><line stroke-width="2.44949px" x1="-101.74469091919649" y1="-28.136025538849367" x2="-73.60582803958499" y2="-11.92736102676023" stroke="#999999"></line><line stroke-width="2px" x1="-101.74469091919649" y1="-28.136025538849367" x2="-66.27470133911608" y2="14.303811335630202" stroke="#999999"></line><line stroke-width="2.64575px" x1="25.03454657644013" y1="-36.96706648262496" x2="20.66406160352446" y2="-79.90154446150027" stroke="#999999"></line><line stroke-width="2.23607px" x1="25.03454657644013" y1="-36.96706648262496" x2="-7.197357342946085" y2="-5.15006905223518" stroke="#999999"></line><line stroke-width="2.23607px" x1="25.03454657644013" y1="-36.96706648262496" x2="-25.24166517848543" y2="-35.9833078076702" stroke="#999999"></line><line stroke-width="2.23607px" x1="25.03454657644013" y1="-36.96706648262496" x2="54.39286484034367" y2="-26.54225849692546" stroke="#999999"></line><line stroke-width="2.23607px" x1="-24.166936253433835" y1="-67.79586819120772" x2="20.66406160352446" y2="-79.90154446150027" stroke="#999999"></line><line stroke-width="2.23607px" x1="-24.166936253433835" y1="-67.79586819120772" x2="-16.567154055941742" y2="-22.113314193077834" stroke="#999999"></line><line stroke-width="2.23607px" x1="-24.166936253433835" y1="-67.79586819120772" x2="-25.24166517848543" y2="-35.9833078076702" stroke="#999999"></line><line stroke-width="1" x1="-115.97198568459015" y1="-12.086865003290386" x2="-120.38387756601072" y2="11.442974151603911" stroke="#999999"></line><line stroke-width="1" x1="-115.97198568459015" y1="-12.086865003290386" x2="-84.81443760626492" y2="7.352010488716468" stroke="#999999"></line><line stroke-width="3.16228px" x1="-115.97198568459015" y1="-12.086865003290386" x2="-90.88258059979314" y2="-12.075408960626895" stroke="#999999"></line><line stroke-width="1" x1="-115.97198568459015" y1="-12.086865003290386" x2="-101.74469091919649" y2="-28.136025538849367" stroke="#999999"></line><line stroke-width="1" x1="-115.97198568459015" y1="-12.086865003290386" x2="-73.60582803958499" y2="-11.92736102676023" stroke="#999999"></line><line stroke-width="2.64575px" x1="-115.97198568459015" y1="-12.086865003290386" x2="-66.27470133911608" y2="14.303811335630202" stroke="#999999"></line><line stroke-width="1" x1="-115.97198568459015" y1="-12.086865003290386" x2="-120.38387756601072" y2="11.442974151603911" stroke="#999999"></line><line stroke-width="1" x1="-115.97198568459015" y1="-12.086865003290386" x2="-84.81443760626492" y2="7.352010488716468" stroke="#999999"></line><line stroke-width="1.41421px" x1="-115.97198568459015" y1="-12.086865003290386" x2="-93.85331282215851" y2="24.83139029228827" stroke="#999999"></line><line stroke-width="1.41421px" x1="-115.97198568459015" y1="-12.086865003290386" x2="-110.81526821038192" y2="33.837846744107345" stroke="#999999"></line><line stroke-width="1.73205px" x1="-115.97198568459015" y1="-12.086865003290386" x2="-88.43531442426936" y2="43.430405593759666" stroke="#999999"></line><line stroke-width="1.73205px" x1="-115.97198568459015" y1="-12.086865003290386" x2="-101.74469091919649" y2="-28.136025538849367" stroke="#999999"></line><line stroke-width="1" x1="-115.97198568459015" y1="-12.086865003290386" x2="-73.60582803958499" y2="-11.92736102676023" stroke="#999999"></line><line stroke-width="1.41421px" x1="-115.97198568459015" y1="-12.086865003290386" x2="-66.27470133911608" y2="14.303811335630202" stroke="#999999"></line><line stroke-width="1" x1="-73.60582803958499" y1="-11.92736102676023" x2="-120.38387756601072" y2="11.442974151603911" stroke="#999999"></line><line stroke-width="1" x1="-73.60582803958499" y1="-11.92736102676023" x2="-84.81443760626492" y2="7.352010488716468" stroke="#999999"></line><line stroke-width="2px" x1="-73.60582803958499" y1="-11.92736102676023" x2="-93.85331282215851" y2="24.83139029228827" stroke="#999999"></line><line stroke-width="2.23607px" x1="-73.60582803958499" y1="-11.92736102676023" x2="-104.59231598233146" y2="5.418503997849502" stroke="#999999"></line><line stroke-width="2px" x1="-73.60582803958499" y1="-11.92736102676023" x2="-110.81526821038192" y2="33.837846744107345" stroke="#999999"></line><line stroke-width="1" x1="-73.60582803958499" y1="-11.92736102676023" x2="-88.43531442426936" y2="43.430405593759666" stroke="#999999"></line><line stroke-width="2.44949px" x1="-73.60582803958499" y1="-11.92736102676023" x2="-101.74469091919649" y2="-28.136025538849367" stroke="#999999"></line><line stroke-width="1" x1="-73.60582803958499" y1="-11.92736102676023" x2="-115.97198568459015" y2="-12.086865003290386" stroke="#999999"></line><line stroke-width="2.64575px" x1="-73.60582803958499" y1="-11.92736102676023" x2="-66.27470133911608" y2="14.303811335630202" stroke="#999999"></line><line stroke-width="2.23607px" x1="-73.60582803958499" y1="-11.92736102676023" x2="-104.59231598233146" y2="5.418503997849502" stroke="#999999"></line><line stroke-width="1.73205px" x1="-73.60582803958499" y1="-11.92736102676023" x2="-101.74469091919649" y2="-28.136025538849367" stroke="#999999"></line><line stroke-width="1.41421px" x1="-73.60582803958499" y1="-11.92736102676023" x2="-66.27470133911608" y2="14.303811335630202" stroke="#999999"></line><line stroke-width="2.23607px" x1="24.106299017226032" y1="-20.554326789338955" x2="-16.567154055941742" y2="-22.113314193077834" stroke="#999999"></line><line stroke-width="2.23607px" x1="24.106299017226032" y1="-20.554326789338955" x2="54.39286484034367" y2="-26.54225849692546" stroke="#999999"></line><line stroke-width="2.23607px" x1="-32.14636945459137" y1="17.27523131193544" x2="-48.027335401266136" y2="-7.815008258778925" stroke="#999999"></line><line stroke-width="2px" x1="-32.14636945459137" y1="17.27523131193544" x2="-35.094954244451365" y2="50.86966018941947" stroke="#999999"></line><line stroke-width="1.41421px" x1="-32.14636945459137" y1="17.27523131193544" x2="-58.93014352975106" y2="45.24924934108534" stroke="#999999"></line><line stroke-width="1" x1="-32.14636945459137" y1="17.27523131193544" x2="-73.60582803958499" y2="-11.92736102676023" stroke="#999999"></line><line stroke-width="1.41421px" x1="-32.14636945459137" y1="17.27523131193544" x2="-66.27470133911608" y2="14.303811335630202" stroke="#999999"></line><line stroke-width="1.73205px" x1="-32.14636945459137" y1="17.27523131193544" x2="-48.027335401266136" y2="-7.815008258778925" stroke="#999999"></line><line stroke-width="1.73205px" x1="-32.14636945459137" y1="17.27523131193544" x2="-35.094954244451365" y2="50.86966018941947" stroke="#999999"></line><line stroke-width="1.73205px" x1="-32.14636945459137" y1="17.27523131193544" x2="-58.93014352975106" y2="45.24924934108534" stroke="#999999"></line><line stroke-width="1.41421px" x1="-32.14636945459137" y1="17.27523131193544" x2="-66.27470133911608" y2="14.303811335630202" stroke="#999999"></line><line stroke-width="2.23607px" x1="-32.14636945459137" y1="17.27523131193544" x2="-7.197357342946085" y2="-5.15006905223518" stroke="#999999"></line><line stroke-width="2.23607px" x1="-32.14636945459137" y1="17.27523131193544" x2="-16.567154055941742" y2="-22.113314193077834" stroke="#999999"></line><line stroke-width="2.23607px" x1="-32.14636945459137" y1="17.27523131193544" x2="-45.8402480714681" y2="35.203748965065486" stroke="#999999"></line><line stroke-width="2.23607px" x1="-32.14636945459137" y1="17.27523131193544" x2="-25.24166517848543" y2="-35.9833078076702" stroke="#999999"></line><line stroke-width="2px" x1="-66.27470133911608" y1="14.303811335630202" x2="-93.85331282215851" y2="24.83139029228827" stroke="#999999"></line><line stroke-width="2.44949px" x1="-66.27470133911608" y1="14.303811335630202" x2="-48.027335401266136" y2="-7.815008258778925" stroke="#999999"></line><line stroke-width="1.41421px" x1="-66.27470133911608" y1="14.303811335630202" x2="-104.59231598233146" y2="5.418503997849502" stroke="#999999"></line><line stroke-width="1.73205px" x1="-66.27470133911608" y1="14.303811335630202" x2="-90.88258059979314" y2="-12.075408960626895" stroke="#999999"></line><line stroke-width="1.73205px" x1="-66.27470133911608" y1="14.303811335630202" x2="-35.094954244451365" y2="50.86966018941947" stroke="#999999"></line><line stroke-width="2.23607px" x1="-66.27470133911608" y1="14.303811335630202" x2="-58.93014352975106" y2="45.24924934108534" stroke="#999999"></line><line stroke-width="1.41421px" x1="-66.27470133911608" y1="14.303811335630202" x2="-110.81526821038192" y2="33.837846744107345" stroke="#999999"></line><line stroke-width="1.73205px" x1="-66.27470133911608" y1="14.303811335630202" x2="-88.43531442426936" y2="43.430405593759666" stroke="#999999"></line><line stroke-width="2.23607px" x1="-66.27470133911608" y1="14.303811335630202" x2="-101.74469091919649" y2="-28.136025538849367" stroke="#999999"></line><line stroke-width="2.23607px" x1="-66.27470133911608" y1="14.303811335630202" x2="-115.97198568459015" y2="-12.086865003290386" stroke="#999999"></line><line stroke-width="1.73205px" x1="-66.27470133911608" y1="14.303811335630202" x2="-73.60582803958499" y2="-11.92736102676023" stroke="#999999"></line><line stroke-width="1" x1="-66.27470133911608" y1="14.303811335630202" x2="-32.14636945459137" y2="17.27523131193544" stroke="#999999"></line><line stroke-width="3px" x1="-66.27470133911608" y1="14.303811335630202" x2="-120.38387756601072" y2="11.442974151603911" stroke="#999999"></line><line stroke-width="2.44949px" x1="-66.27470133911608" y1="14.303811335630202" x2="-84.81443760626492" y2="7.352010488716468" stroke="#999999"></line><line stroke-width="2.82843px" x1="-66.27470133911608" y1="14.303811335630202" x2="-93.85331282215851" y2="24.83139029228827" stroke="#999999"></line><line stroke-width="1.73205px" x1="-66.27470133911608" y1="14.303811335630202" x2="-48.027335401266136" y2="-7.815008258778925" stroke="#999999"></line><line stroke-width="2.23607px" x1="-66.27470133911608" y1="14.303811335630202" x2="-104.59231598233146" y2="5.418503997849502" stroke="#999999"></line><line stroke-width="2.64575px" x1="-66.27470133911608" y1="14.303811335630202" x2="-90.88258059979314" y2="-12.075408960626895" stroke="#999999"></line><line stroke-width="1.73205px" x1="-66.27470133911608" y1="14.303811335630202" x2="-35.094954244451365" y2="50.86966018941947" stroke="#999999"></line><line stroke-width="2.23607px" x1="-66.27470133911608" y1="14.303811335630202" x2="-58.93014352975106" y2="45.24924934108534" stroke="#999999"></line><line stroke-width="2.23607px" x1="-66.27470133911608" y1="14.303811335630202" x2="-110.81526821038192" y2="33.837846744107345" stroke="#999999"></line><line stroke-width="1.73205px" x1="-66.27470133911608" y1="14.303811335630202" x2="-88.43531442426936" y2="43.430405593759666" stroke="#999999"></line><line stroke-width="2.44949px" x1="-66.27470133911608" y1="14.303811335630202" x2="-101.74469091919649" y2="-28.136025538849367" stroke="#999999"></line><line stroke-width="2.64575px" x1="-66.27470133911608" y1="14.303811335630202" x2="-115.97198568459015" y2="-12.086865003290386" stroke="#999999"></line><line stroke-width="2.44949px" x1="-66.27470133911608" y1="14.303811335630202" x2="-73.60582803958499" y2="-11.92736102676023" stroke="#999999"></line><line stroke-width="1.41421px" x1="-66.27470133911608" y1="14.303811335630202" x2="-32.14636945459137" y2="17.27523131193544" stroke="#999999"></line><line stroke-width="2.23607px" x1="-66.27470133911608" y1="14.303811335630202" x2="-7.197357342946085" y2="-5.15006905223518" stroke="#999999"></line><line stroke-width="2.23607px" x1="-66.27470133911608" y1="14.303811335630202" x2="-16.567154055941742" y2="-22.113314193077834" stroke="#999999"></line><line stroke-width="2.23607px" x1="-66.27470133911608" y1="14.303811335630202" x2="-45.8402480714681" y2="35.203748965065486" stroke="#999999"></line><line stroke-width="2.82843px" x1="-66.27470133911608" y1="14.303811335630202" x2="-25.24166517848543" y2="-35.9833078076702" stroke="#999999"></line></g><g stroke="#ffffff" stroke-width="1.5px"><path d="M5.046265044040321,0A5.046265044040321,5.046265044040321,0,1,1,-5.046265044040321,0A5.046265044040321,5.046265044040321,0,1,1,5.046265044040321,0" fill="#9467bd" transform="translate(-120.38387756601072,11.442974151603911)" stroke="#ffffff" stroke-width="1.5px"><title>Person 519424</title></path><path d="M5.046265044040321,0A5.046265044040321,5.046265044040321,0,1,1,-5.046265044040321,0A5.046265044040321,5.046265044040321,0,1,1,5.046265044040321,0" fill="#d62728" transform="translate(-84.81443760626492,7.352010488716468)" stroke="#ffffff" stroke-width="1.5px"><title>Person 546999</title></path><path d="M5.046265044040321,0A5.046265044040321,5.046265044040321,0,1,1,-5.046265044040321,0A5.046265044040321,5.046265044040321,0,1,1,5.046265044040321,0" fill="#9467bd" transform="translate(-93.85331282215851,24.83139029228827)" stroke="#ffffff" stroke-width="1.5px"><title>Person 551810</title></path><path d="M5.046265044040321,0A5.046265044040321,5.046265044040321,0,1,1,-5.046265044040321,0A5.046265044040321,5.046265044040321,0,1,1,5.046265044040321,0" fill="#8c564b" transform="translate(-48.027335401266136,-7.815008258778925)" stroke="#ffffff" stroke-width="1.5px"><title>Person 570284</title></path><path d="M5.046265044040321,0A5.046265044040321,5.046265044040321,0,1,1,-5.046265044040321,0A5.046265044040321,5.046265044040321,0,1,1,5.046265044040321,0" fill="#8c564b" transform="translate(-104.59231598233146,5.418503997849502)" stroke="#ffffff" stroke-width="1.5px"><title>Person 572500</title></path><path d="M5.046265044040321,0A5.046265044040321,5.046265044040321,0,1,1,-5.046265044040321,0A5.046265044040321,5.046265044040321,0,1,1,5.046265044040321,0" fill="#1f77b4" transform="translate(-90.88258059979314,-12.075408960626895)" stroke="#ffffff" stroke-width="1.5px"><title>Person 581406</title></path><path d="M5.046265044040321,0A5.046265044040321,5.046265044040321,0,1,1,-5.046265044040321,0A5.046265044040321,5.046265044040321,0,1,1,5.046265044040321,0" fill="#8c564b" transform="translate(-58.93014352975106,45.24924934108534)" stroke="#ffffff" stroke-width="1.5px"><title>Person 593266</title></path><path d="M5.046265044040321,0A5.046265044040321,5.046265044040321,0,1,1,-5.046265044040321,0A5.046265044040321,5.046265044040321,0,1,1,5.046265044040321,0" fill="#d62728" transform="translate(-110.81526821038192,33.837846744107345)" stroke="#ffffff" stroke-width="1.5px"><title>Person 594766</title></path><path d="M5.046265044040321,0A5.046265044040321,5.046265044040321,0,1,1,-5.046265044040321,0A5.046265044040321,5.046265044040321,0,1,1,5.046265044040321,0" fill="#9467bd" transform="translate(-83.85104149039482,-30.254892435334096)" stroke="#ffffff" stroke-width="1.5px"><title>Person 595104</title></path><path d="M5.046265044040321,0A5.046265044040321,5.046265044040321,0,1,1,-5.046265044040321,0A5.046265044040321,5.046265044040321,0,1,1,5.046265044040321,0" fill="#d62728" transform="translate(-88.43531442426936,43.430405593759666)" stroke="#ffffff" stroke-width="1.5px"><title>Person 604223</title></path><path d="M5.046265044040321,0A5.046265044040321,5.046265044040321,0,1,1,-5.046265044040321,0A5.046265044040321,5.046265044040321,0,1,1,5.046265044040321,0" fill="#8c564b" transform="translate(-101.74469091919649,-28.136025538849367)" stroke="#ffffff" stroke-width="1.5px"><title>Person 615605</title></path><path d="M5.046265044040321,0A5.046265044040321,5.046265044040321,0,1,1,-5.046265044040321,0A5.046265044040321,5.046265044040321,0,1,1,5.046265044040321,0" fill="#1f77b4" transform="translate(-115.97198568459015,-12.086865003290386)" stroke="#ffffff" stroke-width="1.5px"><title>Person 636990</title></path><path d="M5.046265044040321,0A5.046265044040321,5.046265044040321,0,1,1,-5.046265044040321,0A5.046265044040321,5.046265044040321,0,1,1,5.046265044040321,0" fill="#8c564b" transform="translate(-73.60582803958499,-11.92736102676023)" stroke="#ffffff" stroke-width="1.5px"><title>Person 638752</title></path><path d="M5.046265044040321,0A5.046265044040321,5.046265044040321,0,1,1,-5.046265044040321,0A5.046265044040321,5.046265044040321,0,1,1,5.046265044040321,0" fill="#8c564b" transform="translate(-32.14636945459137,17.27523131193544)" stroke="#ffffff" stroke-width="1.5px"><title>Person 643925</title></path><path d="M5.046265044040321,0A5.046265044040321,5.046265044040321,0,1,1,-5.046265044040321,0A5.046265044040321,5.046265044040321,0,1,1,5.046265044040321,0" fill="#8c564b" transform="translate(-66.27470133911608,14.303811335630202)" stroke="#ffffff" stroke-width="1.5px"><title>Person 649553</title></path><path d="M5.046265044040321,0A5.046265044040321,5.046265044040321,0,1,1,-5.046265044040321,0A5.046265044040321,5.046265044040321,0,1,1,5.046265044040321,0" fill="#1f77b4" transform="translate(96.39269574061015,1.0697107443387357)" stroke="#ffffff" stroke-width="1.5px"><title>Person 476124</title></path><path d="M5.046265044040321,0A5.046265044040321,5.046265044040321,0,1,1,-5.046265044040321,0A5.046265044040321,5.046265044040321,0,1,1,5.046265044040321,0" fill="#1f77b4" transform="translate(63.900463331407884,97.12044720353771)" stroke="#ffffff" stroke-width="1.5px"><title>Person 477769</title></path><path d="M5.046265044040321,0A5.046265044040321,5.046265044040321,0,1,1,-5.046265044040321,0A5.046265044040321,5.046265044040321,0,1,1,5.046265044040321,0" fill="#1f77b4" transform="translate(-11.146031486304011,-119.25777824924687)" stroke="#ffffff" stroke-width="1.5px"><title>Person 479204</title></path><path d="M5.046265044040321,0A5.046265044040321,5.046265044040321,0,1,1,-5.046265044040321,0A5.046265044040321,5.046265044040321,0,1,1,5.046265044040321,0" fill="#1f77b4" transform="translate(119.15968307304499,-16.075926139924256)" stroke="#ffffff" stroke-width="1.5px"><title>Person 480268</title></path><path d="M5.046265044040321,0A5.046265044040321,5.046265044040321,0,1,1,-5.046265044040321,0A5.046265044040321,5.046265044040321,0,1,1,5.046265044040321,0" fill="#1f77b4" transform="translate(2.5853938390285798,117.94357761954595)" stroke="#ffffff" stroke-width="1.5px"><title>Person 480375</title></path><path d="M5.046265044040321,0A5.046265044040321,5.046265044040321,0,1,1,-5.046265044040321,0A5.046265044040321,5.046265044040321,0,1,1,5.046265044040321,0" fill="#1f77b4" transform="translate(80.31481169288023,-80.26690735662346)" stroke="#ffffff" stroke-width="1.5px"><title>Person 492937</title></path><path d="M5.046265044040321,0A5.046265044040321,5.046265044040321,0,1,1,-5.046265044040321,0A5.046265044040321,5.046265044040321,0,1,1,5.046265044040321,0" fill="#1f77b4" transform="translate(63.67538940737071,53.09849801104325)" stroke="#ffffff" stroke-width="1.5px"><title>Person 500192</title></path><path d="M5.046265044040321,0A5.046265044040321,5.046265044040321,0,1,1,-5.046265044040321,0A5.046265044040321,5.046265044040321,0,1,1,5.046265044040321,0" fill="#1f77b4" transform="translate(-57.294017310686506,103.78877993972681)" stroke="#ffffff" stroke-width="1.5px"><title>Person 510483</title></path><path d="M5.046265044040321,0A5.046265044040321,5.046265044040321,0,1,1,-5.046265044040321,0A5.046265044040321,5.046265044040321,0,1,1,5.046265044040321,0" fill="#1f77b4" transform="translate(81.48282893966962,28.533186918757753)" stroke="#ffffff" stroke-width="1.5px"><title>Person 513182</title></path><path d="M5.046265044040321,0A5.046265044040321,5.046265044040321,0,1,1,-5.046265044040321,0A5.046265044040321,5.046265044040321,0,1,1,5.046265044040321,0" fill="#1f77b4" transform="translate(42.01392054555169,74.21476882947461)" stroke="#ffffff" stroke-width="1.5px"><title>Person 463126</title></path><path d="M5.046265044040321,0A5.046265044040321,5.046265044040321,0,1,1,-5.046265044040321,0A5.046265044040321,5.046265044040321,0,1,1,5.046265044040321,0" fill="#1f77b4" transform="translate(28.745147457106032,-116.56768689047229)" stroke="#ffffff" stroke-width="1.5px"><title>Person 516694</title></path><path d="M5.046265044040321,0A5.046265044040321,5.046265044040321,0,1,1,-5.046265044040321,0A5.046265044040321,5.046265044040321,0,1,1,5.046265044040321,0" fill="#1f77b4" transform="translate(115.977057193877,25.503244233458243)" stroke="#ffffff" stroke-width="1.5px"><title>Person 545850</title></path><path d="M5.046265044040321,0A5.046265044040321,5.046265044040321,0,1,1,-5.046265044040321,0A5.046265044040321,5.046265044040321,0,1,1,5.046265044040321,0" fill="#1f77b4" transform="translate(14.404755904847422,84.92139550153551)" stroke="#ffffff" stroke-width="1.5px"><title>Person 558277</title></path><path d="M5.046265044040321,0A5.046265044040321,5.046265044040321,0,1,1,-5.046265044040321,0A5.046265044040321,5.046265044040321,0,1,1,5.046265044040321,0" fill="#1f77b4" transform="translate(100.76496127192245,-37.15086711428147)" stroke="#ffffff" stroke-width="1.5px"><title>Person 561312</title></path><path d="M5.046265044040321,0A5.046265044040321,5.046265044040321,0,1,1,-5.046265044040321,0A5.046265044040321,5.046265044040321,0,1,1,5.046265044040321,0" fill="#1f77b4" transform="translate(85.0267820552333,77.5582224620937)" stroke="#ffffff" stroke-width="1.5px"><title>Person 562598</title></path><path d="M5.046265044040321,0A5.046265044040321,5.046265044040321,0,1,1,-5.046265044040321,0A5.046265044040321,5.046265044040321,0,1,1,5.046265044040321,0" fill="#1f77b4" transform="translate(-51.89177410022783,-106.45506817340703)" stroke="#ffffff" stroke-width="1.5px"><title>Person 573206</title></path><path d="M5.046265044040321,0A5.046265044040321,5.046265044040321,0,1,1,-5.046265044040321,0A5.046265044040321,5.046265044040321,0,1,1,5.046265044040321,0" fill="#8c564b" transform="translate(-35.094954244451365,50.86966018941947)" stroke="#ffffff" stroke-width="1.5px"><title>Person 584811</title></path><path d="M5.046265044040321,0A5.046265044040321,5.046265044040321,0,1,1,-5.046265044040321,0A5.046265044040321,5.046265044040321,0,1,1,5.046265044040321,0" fill="#1f77b4" transform="translate(35.26666179574228,112.86674333346879)" stroke="#ffffff" stroke-width="1.5px"><title>Person 598220</title></path><path d="M5.046265044040321,0A5.046265044040321,5.046265044040321,0,1,1,-5.046265044040321,0A5.046265044040321,5.046265044040321,0,1,1,5.046265044040321,0" fill="#1f77b4" transform="translate(62.67335424073281,-100.37253530351127)" stroke="#ffffff" stroke-width="1.5px"><title>Person 617074</title></path><path d="M5.046265044040321,0A5.046265044040321,5.046265044040321,0,1,1,-5.046265044040321,0A5.046265044040321,5.046265044040321,0,1,1,5.046265044040321,0" fill="#1f77b4" transform="translate(102.32266088239427,54.5037395874387)" stroke="#ffffff" stroke-width="1.5px"><title>Person 634283</title></path><path d="M5.046265044040321,0A5.046265044040321,5.046265044040321,0,1,1,-5.046265044040321,0A5.046265044040321,5.046265044040321,0,1,1,5.046265044040321,0" fill="#1f77b4" transform="translate(-23.9936889506046,110.58924252263456)" stroke="#ffffff" stroke-width="1.5px"><title>Person 645393</title></path><path d="M5.046265044040321,0A5.046265044040321,5.046265044040321,0,1,1,-5.046265044040321,0A5.046265044040321,5.046265044040321,0,1,1,5.046265044040321,0" fill="#1f77b4" transform="translate(99.39769772087179,-62.55844501360295)" stroke="#ffffff" stroke-width="1.5px"><title>Person 655636</title></path><path d="M5.046265044040321,0A5.046265044040321,5.046265044040321,0,1,1,-5.046265044040321,0A5.046265044040321,5.046265044040321,0,1,1,5.046265044040321,0" fill="#1f77b4" transform="translate(10.748165877200632,-37.10297478701998)" stroke="#ffffff" stroke-width="1.5px"><title>Person 534034</title></path><path d="M5.046265044040321,0A5.046265044040321,5.046265044040321,0,1,1,-5.046265044040321,0A5.046265044040321,5.046265044040321,0,1,1,5.046265044040321,0" fill="#1f77b4" transform="translate(25.03454657644013,-36.96706648262496)" stroke="#ffffff" stroke-width="1.5px"><title>Person 629627</title></path><path d="M5.046265044040321,0A5.046265044040321,5.046265044040321,0,1,1,-5.046265044040321,0A5.046265044040321,5.046265044040321,0,1,1,5.046265044040321,0" fill="#1f77b4" transform="translate(-12.725779706872798,-70.23618379221055)" stroke="#ffffff" stroke-width="1.5px"><title>Person 464459</title></path><path d="M5.046265044040321,0A5.046265044040321,5.046265044040321,0,1,1,-5.046265044040321,0A5.046265044040321,5.046265044040321,0,1,1,5.046265044040321,0" fill="#1f77b4" transform="translate(-6.824605661119471,28.877223972966902)" stroke="#ffffff" stroke-width="1.5px"><title>Person 538892</title></path><path d="M5.046265044040321,0A5.046265044040321,5.046265044040321,0,1,1,-5.046265044040321,0A5.046265044040321,5.046265044040321,0,1,1,5.046265044040321,0" fill="#1f77b4" transform="translate(7.915717643227215,26.502220796208537)" stroke="#ffffff" stroke-width="1.5px"><title>Person 542965</title></path><path d="M5.046265044040321,0A5.046265044040321,5.046265044040321,0,1,1,-5.046265044040321,0A5.046265044040321,5.046265044040321,0,1,1,5.046265044040321,0" fill="#1f77b4" transform="translate(-4.95776009557383,-60.444780603339886)" stroke="#ffffff" stroke-width="1.5px"><title>Person 568093</title></path><path d="M5.046265044040321,0A5.046265044040321,5.046265044040321,0,1,1,-5.046265044040321,0A5.046265044040321,5.046265044040321,0,1,1,5.046265044040321,0" fill="#1f77b4" transform="translate(19.636794679629574,17.994536270265538)" stroke="#ffffff" stroke-width="1.5px"><title>Person 572391</title></path><path d="M5.046265044040321,0A5.046265044040321,5.046265044040321,0,1,1,-5.046265044040321,0A5.046265044040321,5.046265044040321,0,1,1,5.046265044040321,0" fill="#1f77b4" transform="translate(12.249459930449785,-49.49519272070035)" stroke="#ffffff" stroke-width="1.5px"><title>Person 585212</title></path><path d="M5.046265044040321,0A5.046265044040321,5.046265044040321,0,1,1,-5.046265044040321,0A5.046265044040321,5.046265044040321,0,1,1,5.046265044040321,0" fill="#1f77b4" transform="translate(29.003104141819158,-2.7049931995447234)" stroke="#ffffff" stroke-width="1.5px"><title>Person 598006</title></path><path d="M5.046265044040321,0A5.046265044040321,5.046265044040321,0,1,1,-5.046265044040321,0A5.046265044040321,5.046265044040321,0,1,1,5.046265044040321,0" fill="#1f77b4" transform="translate(26.223829237500446,-48.794834269704545)" stroke="#ffffff" stroke-width="1.5px"><title>Person 599441</title></path><path d="M5.046265044040321,0A5.046265044040321,5.046265044040321,0,1,1,-5.046265044040321,0A5.046265044040321,5.046265044040321,0,1,1,5.046265044040321,0" fill="#1f77b4" transform="translate(20.127517046329146,-9.339961030767789)" stroke="#ffffff" stroke-width="1.5px"><title>Person 612711</title></path><path d="M5.046265044040321,0A5.046265044040321,5.046265044040321,0,1,1,-5.046265044040321,0A5.046265044040321,5.046265044040321,0,1,1,5.046265044040321,0" fill="#1f77b4" transform="translate(-24.166936253433835,-67.79586819120772)" stroke="#ffffff" stroke-width="1.5px"><title>Person 635665</title></path><path d="M5.046265044040321,0A5.046265044040321,5.046265044040321,0,1,1,-5.046265044040321,0A5.046265044040321,5.046265044040321,0,1,1,5.046265044040321,0" fill="#1f77b4" transform="translate(24.106299017226032,-20.554326789338955)" stroke="#ffffff" stroke-width="1.5px"><title>Person 643411</title></path><path d="M-6,-2L-2,-2L-2,-6L2,-6L2,-2L6,-2L6,2L2,2L2,6L-2,6L-2,2L-6,2Z" fill="#ff7f0e" transform="translate(-57.70391552788872,-46.5516032744612)" stroke="#ffffff" stroke-width="1.5px"><title>Product 482264</title></path><path d="M-4.47213595499958,-4.47213595499958h8.94427190999916v8.94427190999916h-8.94427190999916Z" fill="#d62728" transform="translate(-25.24166517848543,-35.9833078076702)" stroke="#ffffff" stroke-width="1.5px"><title>Country 625756</title></path><path d="M-4.47213595499958,-4.47213595499958h8.94427190999916v8.94427190999916h-8.94427190999916Z" fill="#ff7f0e" transform="translate(54.39286484034367,-26.54225849692546)" stroke="#ffffff" stroke-width="1.5px"><title>Country 657173</title></path><path d="M-4.47213595499958,-4.47213595499958h8.94427190999916v8.94427190999916h-8.94427190999916Z" fill="#2ca02c" transform="translate(20.66406160352446,-79.90154446150027)" stroke="#ffffff" stroke-width="1.5px"><title>Country 499467</title></path><path d="M-4.47213595499958,-4.47213595499958h8.94427190999916v8.94427190999916h-8.94427190999916Z" fill="#9467bd" transform="translate(-7.197357342946085,-5.15006905223518)" stroke="#ffffff" stroke-width="1.5px"><title>Country 509607</title></path><path d="M-4.47213595499958,-4.47213595499958h8.94427190999916v8.94427190999916h-8.94427190999916Z" fill="#1f77b4" transform="translate(-16.567154055941742,-22.113314193077834)" stroke="#ffffff" stroke-width="1.5px"><title>Country 561157</title></path><path d="M-4.47213595499958,-4.47213595499958h8.94427190999916v8.94427190999916h-8.94427190999916Z" fill="#8c564b" transform="translate(-45.8402480714681,35.203748965065486)" stroke="#ffffff" stroke-width="1.5px"><title>Country 616453</title></path><path d="M0,-8.323582900575635L4.805622828269509,0L0,8.323582900575635L-4.805622828269509,0Z" fill="#2ca02c" transform="translate(-32.5994231767128,81.89255168032771)" stroke="#ffffff" stroke-width="1.5px"><title>Document 593870</title></path></g></svg>