<svg width="300" height="300" viewBox="-150,-150,300,300"><text x="-150" y="-130" font-family="sans-serif" font-size="12px" text-anchor="start">Q3-demographics_matched_with_node66</text><g stroke="#999" stroke-opacity="0.6"><line stroke-width="1" x1="-8.23964103631843" y1="35.24310391022059" x2="6.10241479683545" y2="-2.25058034574255"></line><line stroke-width="1" x1="-8.23964103631843" y1="35.24310391022059" x2="-17.200151604633373" y2="10.182574111018084"></line><line stroke-width="1" x1="-8.23964103631843" y1="35.24310391022059" x2="-18.292294779612785" y2="-7.4743511695899345"></line><line stroke-width="1.7320508075688772" x1="-104.32265316352535" y1="53.74178890493718" x2="-83.30437432820587" y2="63.68572349222644"></line><line stroke-width="2.6457513110645907" x1="-104.32265316352535" y1="53.74178890493718" x2="-66.58015704154387" y2="33.53371207058031"></line><line stroke-width="1.7320508075688772" x1="-104.32265316352535" y1="53.74178890493718" x2="-117.47045629983477" y2="11.910428048683896"></line><line stroke-width="1" x1="-104.32265316352535" y1="53.74178890493718" x2="-55.11446658552769" y2="58.26940974008486"></line><line stroke-width="1.7320508075688772" x1="-104.32265316352535" y1="53.74178890493718" x2="-115.55671780840714" y2="33.333869177678054"></line><line stroke-width="1.4142135623730951" x1="-104.32265316352535" y1="53.74178890493718" x2="-102.98580681897697" y2="-2.751253824775071"></line><line stroke-width="1.7320508075688772" x1="-104.32265316352535" y1="53.74178890493718" x2="-75.72326838848116" y2="47.13742891157334"></line><line stroke-width="1.4142135623730951" x1="-104.32265316352535" y1="53.74178890493718" x2="-79.18801736706473" y2="18.74679072597462"></line><line stroke-width="1.4142135623730951" x1="-104.32265316352535" y1="53.74178890493718" x2="-77.51305791159969" y2="-1.8250302564682621"></line><line stroke-width="1" x1="-104.32265316352535" y1="53.74178890493718" x2="-83.30437432820587" y2="63.68572349222644"></line><line stroke-width="1.4142135623730951" x1="-104.32265316352535" y1="53.74178890493718" x2="-98.48300672406815" y2="19.501475048699106"></line><line stroke-width="1.4142135623730951" x1="-104.32265316352535" y1="53.74178890493718" x2="-115.55671780840714" y2="33.333869177678054"></line><line stroke-width="1" x1="-104.32265316352535" y1="53.74178890493718" x2="-75.72326838848116" y2="47.13742891157334"></line><line stroke-width="1" x1="-104.32265316352535" y1="53.74178890493718" x2="-79.18801736706473" y2="18.74679072597462"></line><line stroke-width="1" x1="1.2403272919259964" y1="-36.36133646705643" x2="6.10241479683545" y2="-2.25058034574255"></line><line stroke-width="1" x1="1.2403272919259964" y1="-36.36133646705643" x2="-30.199043979974054" y2="-38.76450789542166"></line><line stroke-width="1" x1="1.2403272919259964" y1="-36.36133646705643" x2="-18.292294779612785" y2="-7.4743511695899345"></line><line stroke-width="1" x1="1.2403272919259964" y1="-36.36133646705643" x2="47.546327446549114" y2="-25.34020824121025"></line><line stroke-width="1" x1="-49.59805473080734" y1="-66.1084432512442" x2="-30.199043979974054" y2="-38.76450789542166"></line><line stroke-width="1" x1="-14.429839379841917" y1="-68.84719515074052" x2="-30.199043979974054" y2="-38.76450789542166"></line><line stroke-width="2.449489742783178" x1="-83.30437432820587" y1="63.68572349222644" x2="-104.32265316352535" y2="53.74178890493718"></line><line stroke-width="2.23606797749979" x1="-83.30437432820587" y1="63.68572349222644" x2="-66.58015704154387" y2="33.53371207058031"></line><line stroke-width="4.123105625617661" x1="-83.30437432820587" y1="63.68572349222644" x2="-51.30486814858872" y2="12.321702597976952"></line><line stroke-width="1" x1="-83.30437432820587" y1="63.68572349222644" x2="-98.48300672406815" y2="19.501475048699106"></line><line stroke-width="2.23606797749979" x1="-83.30437432820587" y1="63.68572349222644" x2="-55.11446658552769" y2="58.26940974008486"></line><line stroke-width="1" x1="-83.30437432820587" y1="63.68572349222644" x2="-115.55671780840714" y2="33.333869177678054"></line><line stroke-width="1" x1="-83.30437432820587" y1="63.68572349222644" x2="-75.72326838848116" y2="47.13742891157334"></line><line stroke-width="1.4142135623730951" x1="-83.30437432820587" y1="63.68572349222644" x2="-77.51305791159969" y2="-1.8250302564682621"></line><line stroke-width="1" x1="-83.30437432820587" y1="63.68572349222644" x2="-104.32265316352535" y2="53.74178890493718"></line><line stroke-width="1" x1="-83.30437432820587" y1="63.68572349222644" x2="-66.58015704154387" y2="33.53371207058031"></line><line stroke-width="1.4142135623730951" x1="-83.30437432820587" y1="63.68572349222644" x2="-117.47045629983477" y2="11.910428048683896"></line><line stroke-width="1.4142135623730951" x1="-83.30437432820587" y1="63.68572349222644" x2="-94.30118239830105" y2="34.74834467493328"></line><line stroke-width="1.4142135623730951" x1="-83.30437432820587" y1="63.68572349222644" x2="-98.48300672406815" y2="19.501475048699106"></line><line stroke-width="1" x1="-83.30437432820587" y1="63.68572349222644" x2="-75.72326838848116" y2="47.13742891157334"></line><line stroke-width="1" x1="-83.30437432820587" y1="63.68572349222644" x2="-77.51305791159969" y2="-1.8250302564682621"></line><line stroke-width="3.3166247903554" x1="-66.58015704154387" y1="33.53371207058031" x2="-104.32265316352535" y2="53.74178890493718"></line><line stroke-width="1.7320508075688772" x1="-66.58015704154387" y1="33.53371207058031" x2="-83.30437432820587" y2="63.68572349222644"></line><line stroke-width="2.449489742783178" x1="-66.58015704154387" y1="33.53371207058031" x2="-98.48300672406815" y2="19.501475048699106"></line><line stroke-width="1.4142135623730951" x1="-66.58015704154387" y1="33.53371207058031" x2="-115.55671780840714" y2="33.333869177678054"></line><line stroke-width="1" x1="-66.58015704154387" y1="33.53371207058031" x2="-102.98580681897697" y2="-2.751253824775071"></line><line stroke-width="1" x1="-66.58015704154387" y1="33.53371207058031" x2="-75.72326838848116" y2="47.13742891157334"></line><line stroke-width="3" x1="-66.58015704154387" y1="33.53371207058031" x2="-77.51305791159969" y2="-1.8250302564682621"></line><line stroke-width="2.8284271247461903" x1="-66.58015704154387" y1="33.53371207058031" x2="-104.32265316352535" y2="53.74178890493718"></line><line stroke-width="1.4142135623730951" x1="-66.58015704154387" y1="33.53371207058031" x2="-83.30437432820587" y2="63.68572349222644"></line><line stroke-width="1.4142135623730951" x1="-66.58015704154387" y1="33.53371207058031" x2="-117.47045629983477" y2="11.910428048683896"></line><line stroke-width="1" x1="-66.58015704154387" y1="33.53371207058031" x2="-98.48300672406815" y2="19.501475048699106"></line><line stroke-width="1" x1="-66.58015704154387" y1="33.53371207058031" x2="-55.11446658552769" y2="58.26940974008486"></line><line stroke-width="1.4142135623730951" x1="-66.58015704154387" y1="33.53371207058031" x2="-115.55671780840714" y2="33.333869177678054"></line><line stroke-width="2" x1="-66.58015704154387" y1="33.53371207058031" x2="-75.72326838848116" y2="47.13742891157334"></line><line stroke-width="1.7320508075688772" x1="-66.58015704154387" y1="33.53371207058031" x2="-79.18801736706473" y2="18.74679072597462"></line><line stroke-width="2.23606797749979" x1="-66.58015704154387" y1="33.53371207058031" x2="-77.51305791159969" y2="-1.8250302564682621"></line><line stroke-width="1" x1="14.519316275403293" y1="25.12327248468165" x2="6.10241479683545" y2="-2.25058034574255"></line><line stroke-width="1" x1="14.519316275403293" y1="25.12327248468165" x2="-17.200151604633373" y2="10.182574111018084"></line><line stroke-width="1" x1="14.519316275403293" y1="25.12327248468165" x2="-18.292294779612785" y2="-7.4743511695899345"></line><line stroke-width="3" x1="-51.30486814858872" y1="12.321702597976952" x2="-83.30437432820587" y2="63.68572349222644"></line><line stroke-width="2.23606797749979" x1="-51.30486814858872" y1="12.321702597976952" x2="-35.52075634867738" y2="43.02175563843523"></line><line stroke-width="3.872983346207417" x1="-51.30486814858872" y1="12.321702597976952" x2="-55.11446658552769" y2="58.26940974008486"></line><line stroke-width="1" x1="-51.30486814858872" y1="12.321702597976952" x2="-58.489106295492256" y2="-27.46202220469466"></line><line stroke-width="1" x1="-51.30486814858872" y1="12.321702597976952" x2="-30.199043979974054" y2="-38.76450789542166"></line><line stroke-width="1" x1="-51.30486814858872" y1="12.321702597976952" x2="-17.200151604633373" y2="10.182574111018084"></line><line stroke-width="1" x1="-51.30486814858872" y1="12.321702597976952" x2="-41.7957459134453" y2="-11.999411232784885"></line><line stroke-width="1" x1="-51.30486814858872" y1="12.321702597976952" x2="-18.292294779612785" y2="-7.4743511695899345"></line><line stroke-width="1" x1="-32.187763070282145" y1="-72.40339918451362" x2="-30.199043979974054" y2="-38.76450789542166"></line><line stroke-width="1" x1="-117.47045629983477" y1="11.910428048683896" x2="-102.98580681897697" y2="-2.751253824775071"></line><line stroke-width="2.23606797749979" x1="-117.47045629983477" y1="11.910428048683896" x2="-79.18801736706473" y2="18.74679072597462"></line><line stroke-width="2" x1="-117.47045629983477" y1="11.910428048683896" x2="-77.51305791159969" y2="-1.8250302564682621"></line><line stroke-width="1.4142135623730951" x1="-117.47045629983477" y1="11.910428048683896" x2="-104.32265316352535" y2="53.74178890493718"></line><line stroke-width="1.4142135623730951" x1="-117.47045629983477" y1="11.910428048683896" x2="-83.30437432820587" y2="63.68572349222644"></line><line stroke-width="1" x1="-117.47045629983477" y1="11.910428048683896" x2="-94.30118239830105" y2="34.74834467493328"></line><line stroke-width="1" x1="-117.47045629983477" y1="11.910428048683896" x2="-98.48300672406815" y2="19.501475048699106"></line><line stroke-width="1.4142135623730951" x1="-117.47045629983477" y1="11.910428048683896" x2="-115.55671780840714" y2="33.333869177678054"></line><line stroke-width="2.6457513110645907" x1="-117.47045629983477" y1="11.910428048683896" x2="-102.98580681897697" y2="-2.751253824775071"></line><line stroke-width="1.4142135623730951" x1="-117.47045629983477" y1="11.910428048683896" x2="-75.72326838848116" y2="47.13742891157334"></line><line stroke-width="2.6457513110645907" x1="-117.47045629983477" y1="11.910428048683896" x2="-79.18801736706473" y2="18.74679072597462"></line><line stroke-width="2.23606797749979" x1="-117.47045629983477" y1="11.910428048683896" x2="-77.51305791159969" y2="-1.8250302564682621"></line><line stroke-width="1" x1="-94.30118239830105" y1="34.74834467493328" x2="-104.32265316352535" y2="53.74178890493718"></line><line stroke-width="1" x1="-94.30118239830105" y1="34.74834467493328" x2="-66.58015704154387" y2="33.53371207058031"></line><line stroke-width="1.4142135623730951" x1="-94.30118239830105" y1="34.74834467493328" x2="-117.47045629983477" y2="11.910428048683896"></line><line stroke-width="1" x1="-94.30118239830105" y1="34.74834467493328" x2="-98.48300672406815" y2="19.501475048699106"></line><line stroke-width="1.7320508075688772" x1="-94.30118239830105" y1="34.74834467493328" x2="-115.55671780840714" y2="33.333869177678054"></line><line stroke-width="1.4142135623730951" x1="-94.30118239830105" y1="34.74834467493328" x2="-102.98580681897697" y2="-2.751253824775071"></line><line stroke-width="1" x1="-94.30118239830105" y1="34.74834467493328" x2="-79.18801736706473" y2="18.74679072597462"></line><line stroke-width="1.4142135623730951" x1="-94.30118239830105" y1="34.74834467493328" x2="-77.51305791159969" y2="-1.8250302564682621"></line><line stroke-width="1.7320508075688772" x1="-94.30118239830105" y1="34.74834467493328" x2="-75.72326838848116" y2="47.13742891157334"></line><line stroke-width="1.7320508075688772" x1="-94.30118239830105" y1="34.74834467493328" x2="-77.51305791159969" y2="-1.8250302564682621"></line><line stroke-width="1" x1="12.317885901498565" y1="-27.79245073944994" x2="6.10241479683545" y2="-2.25058034574255"></line><line stroke-width="1" x1="12.317885901498565" y1="-27.79245073944994" x2="-30.199043979974054" y2="-38.76450789542166"></line><line stroke-width="1" x1="12.317885901498565" y1="-27.79245073944994" x2="-18.292294779612785" y2="-7.4743511695899345"></line><line stroke-width="1" x1="12.317885901498565" y1="-27.79245073944994" x2="47.546327446549114" y2="-25.34020824121025"></line><line stroke-width="1" x1="-77.15178373962884" y1="-38.97306709060611" x2="-51.30486814858872" y2="12.321702597976952"></line><line stroke-width="1" x1="-77.15178373962884" y1="-38.97306709060611" x2="-98.08063824827613" y2="-34.77162730416408"></line><line stroke-width="1.7320508075688772" x1="-77.15178373962884" y1="-38.97306709060611" x2="-77.51305791159969" y2="-1.8250302564682621"></line><line stroke-width="1.4142135623730951" x1="-77.15178373962884" y1="-38.97306709060611" x2="-51.30486814858872" y2="12.321702597976952"></line><line stroke-width="2" x1="-77.15178373962884" y1="-38.97306709060611" x2="-98.08063824827613" y2="-34.77162730416408"></line><line stroke-width="2" x1="-77.15178373962884" y1="-38.97306709060611" x2="-58.489106295492256" y2="-27.46202220469466"></line><line stroke-width="1.4142135623730951" x1="-77.15178373962884" y1="-38.97306709060611" x2="-77.51305791159969" y2="-1.8250302564682621"></line><line stroke-width="1.7320508075688772" x1="-98.48300672406815" y1="19.501475048699106" x2="-104.32265316352535" y2="53.74178890493718"></line><line stroke-width="2" x1="-98.48300672406815" y1="19.501475048699106" x2="-83.30437432820587" y2="63.68572349222644"></line><line stroke-width="1.7320508075688772" x1="-98.48300672406815" y1="19.501475048699106" x2="-66.58015704154387" y2="33.53371207058031"></line><line stroke-width="1.7320508075688772" x1="-98.48300672406815" y1="19.501475048699106" x2="-115.55671780840714" y2="33.333869177678054"></line><line stroke-width="1" x1="-98.48300672406815" y1="19.501475048699106" x2="-75.72326838848116" y2="47.13742891157334"></line><line stroke-width="1" x1="-98.48300672406815" y1="19.501475048699106" x2="-77.51305791159969" y2="-1.8250302564682621"></line><line stroke-width="1.7320508075688772" x1="-55.11446658552769" y1="58.26940974008486" x2="-83.30437432820587" y2="63.68572349222644"></line><line stroke-width="4.69041575982343" x1="-55.11446658552769" y1="58.26940974008486" x2="-51.30486814858872" y2="12.321702597976952"></line><line stroke-width="1" x1="-55.11446658552769" y1="58.26940974008486" x2="-79.18801736706473" y2="18.74679072597462"></line><line stroke-width="1" x1="32.54949758594152" y1="12.945246272182771" x2="-17.200151604633373" y2="10.182574111018084"></line><line stroke-width="1" x1="32.54949758594152" y1="12.945246272182771" x2="47.546327446549114" y2="-25.34020824121025"></line><line stroke-width="1" x1="18.903376071994895" y1="-38.84120469906155" x2="6.10241479683545" y2="-2.25058034574255"></line><line stroke-width="1" x1="18.903376071994895" y1="-38.84120469906155" x2="-30.199043979974054" y2="-38.76450789542166"></line><line stroke-width="1" x1="18.903376071994895" y1="-38.84120469906155" x2="-18.292294779612785" y2="-7.4743511695899345"></line><line stroke-width="1" x1="18.903376071994895" y1="-38.84120469906155" x2="47.546327446549114" y2="-25.34020824121025"></line><line stroke-width="1" x1="-115.55671780840714" y1="33.333869177678054" x2="-104.32265316352535" y2="53.74178890493718"></line><line stroke-width="2" x1="-115.55671780840714" y1="33.333869177678054" x2="-83.30437432820587" y2="63.68572349222644"></line><line stroke-width="2" x1="-115.55671780840714" y1="33.333869177678054" x2="-66.58015704154387" y2="33.53371207058031"></line><line stroke-width="2" x1="-115.55671780840714" y1="33.333869177678054" x2="-98.48300672406815" y2="19.501475048699106"></line><line stroke-width="1.7320508075688772" x1="-115.55671780840714" y1="33.333869177678054" x2="-77.51305791159969" y2="-1.8250302564682621"></line><line stroke-width="1" x1="-115.55671780840714" y1="33.333869177678054" x2="-104.32265316352535" y2="53.74178890493718"></line><line stroke-width="1" x1="-115.55671780840714" y1="33.333869177678054" x2="-83.30437432820587" y2="63.68572349222644"></line><line stroke-width="1" x1="-115.55671780840714" y1="33.333869177678054" x2="-117.47045629983477" y2="11.910428048683896"></line><line stroke-width="2.23606797749979" x1="-115.55671780840714" y1="33.333869177678054" x2="-98.48300672406815" y2="19.501475048699106"></line><line stroke-width="1" x1="-115.55671780840714" y1="33.333869177678054" x2="-79.18801736706473" y2="18.74679072597462"></line><line stroke-width="1" x1="-115.55671780840714" y1="33.333869177678054" x2="-77.51305791159969" y2="-1.8250302564682621"></line><line stroke-width="1" x1="27.499460476832212" y1="3.7015467548187977" x2="-17.200151604633373" y2="10.182574111018084"></line><line stroke-width="1" x1="27.499460476832212" y1="3.7015467548187977" x2="47.546327446549114" y2="-25.34020824121025"></line><line stroke-width="1" x1="-102.98580681897697" y1="-2.751253824775071" x2="-104.32265316352535" y2="53.74178890493718"></line><line stroke-width="2" x1="-102.98580681897697" y1="-2.751253824775071" x2="-117.47045629983477" y2="11.910428048683896"></line><line stroke-width="2.6457513110645907" x1="-102.98580681897697" y1="-2.751253824775071" x2="-79.18801736706473" y2="18.74679072597462"></line><line stroke-width="1.4142135623730951" x1="-102.98580681897697" y1="-2.751253824775071" x2="-77.51305791159969" y2="-1.8250302564682621"></line><line stroke-width="1" x1="-102.98580681897697" y1="-2.751253824775071" x2="-104.32265316352535" y2="53.74178890493718"></line><line stroke-width="1.4142135623730951" x1="-102.98580681897697" y1="-2.751253824775071" x2="-66.58015704154387" y2="33.53371207058031"></line><line stroke-width="2.6457513110645907" x1="-102.98580681897697" y1="-2.751253824775071" x2="-117.47045629983477" y2="11.910428048683896"></line><line stroke-width="1" x1="-102.98580681897697" y1="-2.751253824775071" x2="-98.48300672406815" y2="19.501475048699106"></line><line stroke-width="1" x1="-102.98580681897697" y1="-2.751253824775071" x2="-115.55671780840714" y2="33.333869177678054"></line><line stroke-width="1" x1="-102.98580681897697" y1="-2.751253824775071" x2="-75.72326838848116" y2="47.13742891157334"></line><line stroke-width="2.449489742783178" x1="-102.98580681897697" y1="-2.751253824775071" x2="-79.18801736706473" y2="18.74679072597462"></line><line stroke-width="2" x1="-102.98580681897697" y1="-2.751253824775071" x2="-77.51305791159969" y2="-1.8250302564682621"></line><line stroke-width="1.4142135623730951" x1="8.840296426898101" y1="-47.56009609494981" x2="6.10241479683545" y2="-2.25058034574255"></line><line stroke-width="1" x1="8.840296426898101" y1="-47.56009609494981" x2="-30.199043979974054" y2="-38.76450789542166"></line><line stroke-width="1" x1="8.840296426898101" y1="-47.56009609494981" x2="-18.292294779612785" y2="-7.4743511695899345"></line><line stroke-width="1" x1="8.840296426898101" y1="-47.56009609494981" x2="47.546327446549114" y2="-25.34020824121025"></line><line stroke-width="1" x1="4.791393164212803" y1="33.26750734288395" x2="6.10241479683545" y2="-2.25058034574255"></line><line stroke-width="1" x1="4.791393164212803" y1="33.26750734288395" x2="-17.200151604633373" y2="10.182574111018084"></line><line stroke-width="1" x1="4.791393164212803" y1="33.26750734288395" x2="-18.292294779612785" y2="-7.4743511695899345"></line><line stroke-width="1" x1="-75.72326838848116" y1="47.13742891157334" x2="-104.32265316352535" y2="53.74178890493718"></line><line stroke-width="1" x1="-75.72326838848116" y1="47.13742891157334" x2="-83.30437432820587" y2="63.68572349222644"></line><line stroke-width="3.1622776601683795" x1="-75.72326838848116" y1="47.13742891157334" x2="-94.30118239830105" y2="34.74834467493328"></line><line stroke-width="1" x1="-75.72326838848116" y1="47.13742891157334" x2="-102.98580681897697" y2="-2.751253824775071"></line><line stroke-width="1" x1="-75.72326838848116" y1="47.13742891157334" x2="-79.18801736706473" y2="18.74679072597462"></line><line stroke-width="2.6457513110645907" x1="-75.72326838848116" y1="47.13742891157334" x2="-77.51305791159969" y2="-1.8250302564682621"></line><line stroke-width="1" x1="-75.72326838848116" y1="47.13742891157334" x2="-104.32265316352535" y2="53.74178890493718"></line><line stroke-width="1" x1="-75.72326838848116" y1="47.13742891157334" x2="-83.30437432820587" y2="63.68572349222644"></line><line stroke-width="1.4142135623730951" x1="-75.72326838848116" y1="47.13742891157334" x2="-66.58015704154387" y2="33.53371207058031"></line><line stroke-width="1.4142135623730951" x1="-75.72326838848116" y1="47.13742891157334" x2="-98.48300672406815" y2="19.501475048699106"></line><line stroke-width="1.7320508075688772" x1="-75.72326838848116" y1="47.13742891157334" x2="-115.55671780840714" y2="33.333869177678054"></line><line stroke-width="1.7320508075688772" x1="-75.72326838848116" y1="47.13742891157334" x2="-102.98580681897697" y2="-2.751253824775071"></line><line stroke-width="1" x1="-75.72326838848116" y1="47.13742891157334" x2="-79.18801736706473" y2="18.74679072597462"></line><line stroke-width="1.4142135623730951" x1="-75.72326838848116" y1="47.13742891157334" x2="-77.51305791159969" y2="-1.8250302564682621"></line><line stroke-width="1" x1="-79.18801736706473" y1="18.74679072597462" x2="-104.32265316352535" y2="53.74178890493718"></line><line stroke-width="1" x1="-79.18801736706473" y1="18.74679072597462" x2="-83.30437432820587" y2="63.68572349222644"></line><line stroke-width="2" x1="-79.18801736706473" y1="18.74679072597462" x2="-66.58015704154387" y2="33.53371207058031"></line><line stroke-width="2.23606797749979" x1="-79.18801736706473" y1="18.74679072597462" x2="-117.47045629983477" y2="11.910428048683896"></line><line stroke-width="2" x1="-79.18801736706473" y1="18.74679072597462" x2="-98.48300672406815" y2="19.501475048699106"></line><line stroke-width="1" x1="-79.18801736706473" y1="18.74679072597462" x2="-115.55671780840714" y2="33.333869177678054"></line><line stroke-width="2.449489742783178" x1="-79.18801736706473" y1="18.74679072597462" x2="-102.98580681897697" y2="-2.751253824775071"></line><line stroke-width="1" x1="-79.18801736706473" y1="18.74679072597462" x2="-75.72326838848116" y2="47.13742891157334"></line><line stroke-width="2.6457513110645907" x1="-79.18801736706473" y1="18.74679072597462" x2="-77.51305791159969" y2="-1.8250302564682621"></line><line stroke-width="2.23606797749979" x1="-79.18801736706473" y1="18.74679072597462" x2="-117.47045629983477" y2="11.910428048683896"></line><line stroke-width="1.7320508075688772" x1="-79.18801736706473" y1="18.74679072597462" x2="-102.98580681897697" y2="-2.751253824775071"></line><line stroke-width="1.4142135623730951" x1="-79.18801736706473" y1="18.74679072597462" x2="-77.51305791159969" y2="-1.8250302564682621"></line><line stroke-width="1" x1="21.159084801708968" y1="-7.152776720587424" x2="-17.200151604633373" y2="10.182574111018084"></line><line stroke-width="1" x1="21.159084801708968" y1="-7.152776720587424" x2="47.546327446549114" y2="-25.34020824121025"></line><line stroke-width="2" x1="-58.489106295492256" y1="-27.46202220469466" x2="-51.30486814858872" y2="12.321702597976952"></line><line stroke-width="2" x1="-58.489106295492256" y1="-27.46202220469466" x2="-98.08063824827613" y2="-34.77162730416408"></line><line stroke-width="1.4142135623730951" x1="-58.489106295492256" y1="-27.46202220469466" x2="-77.15178373962884" y2="-38.97306709060611"></line><line stroke-width="1" x1="-58.489106295492256" y1="-27.46202220469466" x2="-79.18801736706473" y2="18.74679072597462"></line><line stroke-width="1.4142135623730951" x1="-58.489106295492256" y1="-27.46202220469466" x2="-77.51305791159969" y2="-1.8250302564682621"></line><line stroke-width="1.7320508075688772" x1="-58.489106295492256" y1="-27.46202220469466" x2="-51.30486814858872" y2="12.321702597976952"></line><line stroke-width="1.7320508075688772" x1="-58.489106295492256" y1="-27.46202220469466" x2="-98.08063824827613" y2="-34.77162730416408"></line><line stroke-width="1.7320508075688772" x1="-58.489106295492256" y1="-27.46202220469466" x2="-77.15178373962884" y2="-38.97306709060611"></line><line stroke-width="1.4142135623730951" x1="-58.489106295492256" y1="-27.46202220469466" x2="-77.51305791159969" y2="-1.8250302564682621"></line><line stroke-width="1" x1="-58.489106295492256" y1="-27.46202220469466" x2="-30.199043979974054" y2="-38.76450789542166"></line><line stroke-width="1" x1="-58.489106295492256" y1="-27.46202220469466" x2="-17.200151604633373" y2="10.182574111018084"></line><line stroke-width="1" x1="-58.489106295492256" y1="-27.46202220469466" x2="-41.7957459134453" y2="-11.999411232784885"></line><line stroke-width="1" x1="-58.489106295492256" y1="-27.46202220469466" x2="-18.292294779612785" y2="-7.4743511695899345"></line><line stroke-width="2" x1="-77.51305791159969" y1="-1.8250302564682621" x2="-66.58015704154387" y2="33.53371207058031"></line><line stroke-width="2.449489742783178" x1="-77.51305791159969" y1="-1.8250302564682621" x2="-51.30486814858872" y2="12.321702597976952"></line><line stroke-width="1.4142135623730951" x1="-77.51305791159969" y1="-1.8250302564682621" x2="-117.47045629983477" y2="11.910428048683896"></line><line stroke-width="1.7320508075688772" x1="-77.51305791159969" y1="-1.8250302564682621" x2="-94.30118239830105" y2="34.74834467493328"></line><line stroke-width="1.7320508075688772" x1="-77.51305791159969" y1="-1.8250302564682621" x2="-98.08063824827613" y2="-34.77162730416408"></line><line stroke-width="2.23606797749979" x1="-77.51305791159969" y1="-1.8250302564682621" x2="-77.15178373962884" y2="-38.97306709060611"></line><line stroke-width="1.4142135623730951" x1="-77.51305791159969" y1="-1.8250302564682621" x2="-98.48300672406815" y2="19.501475048699106"></line><line stroke-width="1.7320508075688772" x1="-77.51305791159969" y1="-1.8250302564682621" x2="-115.55671780840714" y2="33.333869177678054"></line><line stroke-width="2.23606797749979" x1="-77.51305791159969" y1="-1.8250302564682621" x2="-102.98580681897697" y2="-2.751253824775071"></line><line stroke-width="2.23606797749979" x1="-77.51305791159969" y1="-1.8250302564682621" x2="-75.72326838848116" y2="47.13742891157334"></line><line stroke-width="1.7320508075688772" x1="-77.51305791159969" y1="-1.8250302564682621" x2="-79.18801736706473" y2="18.74679072597462"></line><line stroke-width="1" x1="-77.51305791159969" y1="-1.8250302564682621" x2="-58.489106295492256" y2="-27.46202220469466"></line><line stroke-width="3" x1="-77.51305791159969" y1="-1.8250302564682621" x2="-104.32265316352535" y2="53.74178890493718"></line><line stroke-width="2.449489742783178" x1="-77.51305791159969" y1="-1.8250302564682621" x2="-83.30437432820587" y2="63.68572349222644"></line><line stroke-width="2.8284271247461903" x1="-77.51305791159969" y1="-1.8250302564682621" x2="-66.58015704154387" y2="33.53371207058031"></line><line stroke-width="1.7320508075688772" x1="-77.51305791159969" y1="-1.8250302564682621" x2="-51.30486814858872" y2="12.321702597976952"></line><line stroke-width="2.23606797749979" x1="-77.51305791159969" y1="-1.8250302564682621" x2="-117.47045629983477" y2="11.910428048683896"></line><line stroke-width="2.6457513110645907" x1="-77.51305791159969" y1="-1.8250302564682621" x2="-94.30118239830105" y2="34.74834467493328"></line><line stroke-width="1.7320508075688772" x1="-77.51305791159969" y1="-1.8250302564682621" x2="-98.08063824827613" y2="-34.77162730416408"></line><line stroke-width="2.23606797749979" x1="-77.51305791159969" y1="-1.8250302564682621" x2="-77.15178373962884" y2="-38.97306709060611"></line><line stroke-width="2.23606797749979" x1="-77.51305791159969" y1="-1.8250302564682621" x2="-98.48300672406815" y2="19.501475048699106"></line><line stroke-width="1.7320508075688772" x1="-77.51305791159969" y1="-1.8250302564682621" x2="-115.55671780840714" y2="33.333869177678054"></line><line stroke-width="2.449489742783178" x1="-77.51305791159969" y1="-1.8250302564682621" x2="-102.98580681897697" y2="-2.751253824775071"></line><line stroke-width="2.6457513110645907" x1="-77.51305791159969" y1="-1.8250302564682621" x2="-75.72326838848116" y2="47.13742891157334"></line><line stroke-width="2.449489742783178" x1="-77.51305791159969" y1="-1.8250302564682621" x2="-79.18801736706473" y2="18.74679072597462"></line><line stroke-width="1.4142135623730951" x1="-77.51305791159969" y1="-1.8250302564682621" x2="-58.489106295492256" y2="-27.46202220469466"></line><line stroke-width="1" x1="-77.51305791159969" y1="-1.8250302564682621" x2="-30.199043979974054" y2="-38.76450789542166"></line><line stroke-width="1" x1="-77.51305791159969" y1="-1.8250302564682621" x2="-17.200151604633373" y2="10.182574111018084"></line><line stroke-width="1" x1="-77.51305791159969" y1="-1.8250302564682621" x2="-41.7957459134453" y2="-11.999411232784885"></line><line stroke-width="1.4142135623730951" x1="-77.51305791159969" y1="-1.8250302564682621" x2="-18.292294779612785" y2="-7.4743511695899345"></line></g><g stroke="#fff" stroke-width="1.5"><path d="M5.046265044040321,0A5.046265044040321,5.046265044040321,0,1,1,-5.046265044040321,0A5.046265044040321,5.046265044040321,0,1,1,5.046265044040321,0" fill="#9467bd" transform="translate(-104.32265316352535,53.74178890493718)"><title>Person 519424</title></path><path d="M5.046265044040321,0A5.046265044040321,5.046265044040321,0,1,1,-5.046265044040321,0A5.046265044040321,5.046265044040321,0,1,1,5.046265044040321,0" fill="#d62728" transform="translate(-83.30437432820587,63.68572349222644)"><title>Person 546999</title></path><path d="M5.046265044040321,0A5.046265044040321,5.046265044040321,0,1,1,-5.046265044040321,0A5.046265044040321,5.046265044040321,0,1,1,5.046265044040321,0" fill="#9467bd" transform="translate(-66.58015704154387,33.53371207058031)"><title>Person 551810</title></path><path d="M5.046265044040321,0A5.046265044040321,5.046265044040321,0,1,1,-5.046265044040321,0A5.046265044040321,5.046265044040321,0,1,1,5.046265044040321,0" fill="#8c564b" transform="translate(-51.30486814858872,12.321702597976952)"><title>Person 570284</title></path><path d="M5.046265044040321,0A5.046265044040321,5.046265044040321,0,1,1,-5.046265044040321,0A5.046265044040321,5.046265044040321,0,1,1,5.046265044040321,0" fill="#8c564b" transform="translate(-117.47045629983477,11.910428048683896)"><title>Person 572500</title></path><path d="M5.046265044040321,0A5.046265044040321,5.046265044040321,0,1,1,-5.046265044040321,0A5.046265044040321,5.046265044040321,0,1,1,5.046265044040321,0" fill="#1f77b4" transform="translate(-94.30118239830105,34.74834467493328)"><title>Person 581406</title></path><path d="M5.046265044040321,0A5.046265044040321,5.046265044040321,0,1,1,-5.046265044040321,0A5.046265044040321,5.046265044040321,0,1,1,5.046265044040321,0" fill="#8c564b" transform="translate(-77.15178373962884,-38.97306709060611)"><title>Person 593266</title></path><path d="M5.046265044040321,0A5.046265044040321,5.046265044040321,0,1,1,-5.046265044040321,0A5.046265044040321,5.046265044040321,0,1,1,5.046265044040321,0" fill="#d62728" transform="translate(-98.48300672406815,19.501475048699106)"><title>Person 594766</title></path><path d="M5.046265044040321,0A5.046265044040321,5.046265044040321,0,1,1,-5.046265044040321,0A5.046265044040321,5.046265044040321,0,1,1,5.046265044040321,0" fill="#9467bd" transform="translate(-55.11446658552769,58.26940974008486)"><title>Person 595104</title></path><path d="M5.046265044040321,0A5.046265044040321,5.046265044040321,0,1,1,-5.046265044040321,0A5.046265044040321,5.046265044040321,0,1,1,5.046265044040321,0" fill="#d62728" transform="translate(-115.55671780840714,33.333869177678054)"><title>Person 604223</title></path><path d="M5.046265044040321,0A5.046265044040321,5.046265044040321,0,1,1,-5.046265044040321,0A5.046265044040321,5.046265044040321,0,1,1,5.046265044040321,0" fill="#8c564b" transform="translate(-102.98580681897697,-2.751253824775071)"><title>Person 615605</title></path><path d="M5.046265044040321,0A5.046265044040321,5.046265044040321,0,1,1,-5.046265044040321,0A5.046265044040321,5.046265044040321,0,1,1,5.046265044040321,0" fill="#1f77b4" transform="translate(-75.72326838848116,47.13742891157334)"><title>Person 636990</title></path><path d="M5.046265044040321,0A5.046265044040321,5.046265044040321,0,1,1,-5.046265044040321,0A5.046265044040321,5.046265044040321,0,1,1,5.046265044040321,0" fill="#8c564b" transform="translate(-79.18801736706473,18.74679072597462)"><title>Person 638752</title></path><path d="M5.046265044040321,0A5.046265044040321,5.046265044040321,0,1,1,-5.046265044040321,0A5.046265044040321,5.046265044040321,0,1,1,5.046265044040321,0" fill="#8c564b" transform="translate(-58.489106295492256,-27.46202220469466)"><title>Person 643925</title></path><path d="M5.046265044040321,0A5.046265044040321,5.046265044040321,0,1,1,-5.046265044040321,0A5.046265044040321,5.046265044040321,0,1,1,5.046265044040321,0" fill="#8c564b" transform="translate(-77.51305791159969,-1.8250302564682621)"><title>Person 649553</title></path><path d="M5.046265044040321,0A5.046265044040321,5.046265044040321,0,1,1,-5.046265044040321,0A5.046265044040321,5.046265044040321,0,1,1,5.046265044040321,0" fill="#7f7f7f" transform="translate(69.30181630540136,-64.04648057631275)"><title>Person 476124</title></path><path d="M5.046265044040321,0A5.046265044040321,5.046265044040321,0,1,1,-5.046265044040321,0A5.046265044040321,5.046265044040321,0,1,1,5.046265044040321,0" fill="#7f7f7f" transform="translate(101.12728698016636,64.49267298060434)"><title>Person 477769</title></path><path d="M5.046265044040321,0A5.046265044040321,5.046265044040321,0,1,1,-5.046265044040321,0A5.046265044040321,5.046265044040321,0,1,1,5.046265044040321,0" fill="#7f7f7f" transform="translate(-36.12198158845525,-115.67829946242009)"><title>Person 479204</title></path><path d="M5.046265044040321,0A5.046265044040321,5.046265044040321,0,1,1,-5.046265044040321,0A5.046265044040321,5.046265044040321,0,1,1,5.046265044040321,0" fill="#7f7f7f" transform="translate(110.57271793526422,-45.61314692476876)"><title>Person 480268</title></path><path d="M5.046265044040321,0A5.046265044040321,5.046265044040321,0,1,1,-5.046265044040321,0A5.046265044040321,5.046265044040321,0,1,1,5.046265044040321,0" fill="#7f7f7f" transform="translate(49.821979156089775,74.01514422427398)"><title>Person 480375</title></path><path d="M5.046265044040321,0A5.046265044040321,5.046265044040321,0,1,1,-5.046265044040321,0A5.046265044040321,5.046265044040321,0,1,1,5.046265044040321,0" fill="#7f7f7f" transform="translate(39.96090313797957,-94.28818665518462)"><title>Person 492937</title></path><path d="M5.046265044040321,0A5.046265044040321,5.046265044040321,0,1,1,-5.046265044040321,0A5.046265044040321,5.046265044040321,0,1,1,5.046265044040321,0" fill="#7f7f7f" transform="translate(115.66964280476283,31.955928690842807)"><title>Person 500192</title></path><path d="M5.046265044040321,0A5.046265044040321,5.046265044040321,0,1,1,-5.046265044040321,0A5.046265044040321,5.046265044040321,0,1,1,5.046265044040321,0" fill="#7f7f7f" transform="translate(8.057880853845058,119.52819128689524)"><title>Person 510483</title></path><path d="M5.046265044040321,0A5.046265044040321,5.046265044040321,0,1,1,-5.046265044040321,0A5.046265044040321,5.046265044040321,0,1,1,5.046265044040321,0" fill="#7f7f7f" transform="translate(88.63412825624312,-32.52405006927934)"><title>Person 513182</title></path><path d="M5.046265044040321,0A5.046265044040321,5.046265044040321,0,1,1,-5.046265044040321,0A5.046265044040321,5.046265044040321,0,1,1,5.046265044040321,0" fill="#7f7f7f" transform="translate(72.63988354467783,56.80915075653869)"><title>Person 463126</title></path><path d="M5.046265044040321,0A5.046265044040321,5.046265044040321,0,1,1,-5.046265044040321,0A5.046265044040321,5.046265044040321,0,1,1,5.046265044040321,0" fill="#7f7f7f" transform="translate(-3.0312906087593725,-117.44205111884305)"><title>Person 516694</title></path><path d="M5.046265044040321,0A5.046265044040321,5.046265044040321,0,1,1,-5.046265044040321,0A5.046265044040321,5.046265044040321,0,1,1,5.046265044040321,0" fill="#7f7f7f" transform="translate(119.15104908877916,-9.146810583162583)"><title>Person 545850</title></path><path d="M5.046265044040321,0A5.046265044040321,5.046265044040321,0,1,1,-5.046265044040321,0A5.046265044040321,5.046265044040321,0,1,1,5.046265044040321,0" fill="#7f7f7f" transform="translate(45.076985007022806,110.87132259773875)"><title>Person 558277</title></path><path d="M5.046265044040321,0A5.046265044040321,5.046265044040321,0,1,1,-5.046265044040321,0A5.046265044040321,5.046265044040321,0,1,1,5.046265044040321,0" fill="#7f7f7f" transform="translate(66.6996542352385,-97.68818213301783)"><title>Person 561312</title></path><path d="M5.046265044040321,0A5.046265044040321,5.046265044040321,0,1,1,-5.046265044040321,0A5.046265044040321,5.046265044040321,0,1,1,5.046265044040321,0" fill="#7f7f7f" transform="translate(84.51738880286379,31.343637411199886)"><title>Person 562598</title></path><path d="M5.046265044040321,0A5.046265044040321,5.046265044040321,0,1,1,-5.046265044040321,0A5.046265044040321,5.046265044040321,0,1,1,5.046265044040321,0" fill="#7f7f7f" transform="translate(-36.014159901852366,111.48850728990816)"><title>Person 573206</title></path><path d="M5.046265044040321,0A5.046265044040321,5.046265044040321,0,1,1,-5.046265044040321,0A5.046265044040321,5.046265044040321,0,1,1,5.046265044040321,0" fill="#8c564b" transform="translate(-98.08063824827613,-34.77162730416408)"><title>Person 584811</title></path><path d="M5.046265044040321,0A5.046265044040321,5.046265044040321,0,1,1,-5.046265044040321,0A5.046265044040321,5.046265044040321,0,1,1,5.046265044040321,0" fill="#7f7f7f" transform="translate(74.64784512310219,91.94323133199987)"><title>Person 598220</title></path><path d="M5.046265044040321,0A5.046265044040321,5.046265044040321,0,1,1,-5.046265044040321,0A5.046265044040321,5.046265044040321,0,1,1,5.046265044040321,0" fill="#7f7f7f" transform="translate(24.261140383687927,-114.97423705510269)"><title>Person 617074</title></path><path d="M5.046265044040321,0A5.046265044040321,5.046265044040321,0,1,1,-5.046265044040321,0A5.046265044040321,5.046265044040321,0,1,1,5.046265044040321,0" fill="#7f7f7f" transform="translate(93.87954114508229,3.6162653999566183)"><title>Person 634283</title></path><path d="M5.046265044040321,0A5.046265044040321,5.046265044040321,0,1,1,-5.046265044040321,0A5.046265044040321,5.046265044040321,0,1,1,5.046265044040321,0" fill="#7f7f7f" transform="translate(23.500709580895823,87.86285447721546)"><title>Person 645393</title></path><path d="M5.046265044040321,0A5.046265044040321,5.046265044040321,0,1,1,-5.046265044040321,0A5.046265044040321,5.046265044040321,0,1,1,5.046265044040321,0" fill="#7f7f7f" transform="translate(93.65922223457976,-76.57099739393057)"><title>Person 655636</title></path><path d="M5.046265044040321,0A5.046265044040321,5.046265044040321,0,1,1,-5.046265044040321,0A5.046265044040321,5.046265044040321,0,1,1,5.046265044040321,0" fill="#7f7f7f" transform="translate(1.2403272919259964,-36.36133646705643)"><title>Person 534034</title></path><path d="M5.046265044040321,0A5.046265044040321,5.046265044040321,0,1,1,-5.046265044040321,0A5.046265044040321,5.046265044040321,0,1,1,5.046265044040321,0" fill="#7f7f7f" transform="translate(8.840296426898101,-47.56009609494981)"><title>Person 629627</title></path><path d="M5.046265044040321,0A5.046265044040321,5.046265044040321,0,1,1,-5.046265044040321,0A5.046265044040321,5.046265044040321,0,1,1,5.046265044040321,0" fill="#7f7f7f" transform="translate(-8.23964103631843,35.24310391022059)"><title>Person 464459</title></path><path d="M5.046265044040321,0A5.046265044040321,5.046265044040321,0,1,1,-5.046265044040321,0A5.046265044040321,5.046265044040321,0,1,1,5.046265044040321,0" fill="#7f7f7f" transform="translate(-49.59805473080734,-66.1084432512442)"><title>Person 538892</title></path><path d="M5.046265044040321,0A5.046265044040321,5.046265044040321,0,1,1,-5.046265044040321,0A5.046265044040321,5.046265044040321,0,1,1,5.046265044040321,0" fill="#7f7f7f" transform="translate(-14.429839379841917,-68.84719515074052)"><title>Person 542965</title></path><path d="M5.046265044040321,0A5.046265044040321,5.046265044040321,0,1,1,-5.046265044040321,0A5.046265044040321,5.046265044040321,0,1,1,5.046265044040321,0" fill="#7f7f7f" transform="translate(14.519316275403293,25.12327248468165)"><title>Person 568093</title></path><path d="M5.046265044040321,0A5.046265044040321,5.046265044040321,0,1,1,-5.046265044040321,0A5.046265044040321,5.046265044040321,0,1,1,5.046265044040321,0" fill="#7f7f7f" transform="translate(-32.187763070282145,-72.40339918451362)"><title>Person 572391</title></path><path d="M5.046265044040321,0A5.046265044040321,5.046265044040321,0,1,1,-5.046265044040321,0A5.046265044040321,5.046265044040321,0,1,1,5.046265044040321,0" fill="#7f7f7f" transform="translate(12.317885901498565,-27.79245073944994)"><title>Person 585212</title></path><path d="M5.046265044040321,0A5.046265044040321,5.046265044040321,0,1,1,-5.046265044040321,0A5.046265044040321,5.046265044040321,0,1,1,5.046265044040321,0" fill="#7f7f7f" transform="translate(32.54949758594152,12.945246272182771)"><title>Person 598006</title></path><path d="M5.046265044040321,0A5.046265044040321,5.046265044040321,0,1,1,-5.046265044040321,0A5.046265044040321,5.046265044040321,0,1,1,5.046265044040321,0" fill="#7f7f7f" transform="translate(18.903376071994895,-38.84120469906155)"><title>Person 599441</title></path><path d="M5.046265044040321,0A5.046265044040321,5.046265044040321,0,1,1,-5.046265044040321,0A5.046265044040321,5.046265044040321,0,1,1,5.046265044040321,0" fill="#7f7f7f" transform="translate(27.499460476832212,3.7015467548187977)"><title>Person 612711</title></path><path d="M5.046265044040321,0A5.046265044040321,5.046265044040321,0,1,1,-5.046265044040321,0A5.046265044040321,5.046265044040321,0,1,1,5.046265044040321,0" fill="#7f7f7f" transform="translate(4.791393164212803,33.26750734288395)"><title>Person 635665</title></path><path d="M5.046265044040321,0A5.046265044040321,5.046265044040321,0,1,1,-5.046265044040321,0A5.046265044040321,5.046265044040321,0,1,1,5.046265044040321,0" fill="#7f7f7f" transform="translate(21.159084801708968,-7.152776720587424)"><title>Person 643411</title></path><path d="M-6,-2L-2,-2L-2,-6L2,-6L2,-2L6,-2L6,2L2,2L2,6L-2,6L-2,2L-6,2Z" fill="#7f7f7f" transform="translate(-9.906965164788161,98.29390754035373)"><title>Product 482264</title></path><path d="M0,-8.441862787462423L1.8953162830083747,-2.6086790655073533L8.028688613685706,-2.6086790655073537L3.0666861653386652,0.9964267372834953L4.962002448347041,6.829610459238564L6.661338147750939e-16,3.2245046564477153L-4.9620024483470395,6.829610459238565L-3.0666861653386652,0.9964267372834958L-8.028688613685707,-2.608679065507352L-1.8953162830083754,-2.608679065507353Z" fill="#d62728" transform="translate(-18.292294779612785,-7.4743511695899345)"><title>Country 625756</title></path><path d="M0,-8.441862787462423L1.8953162830083747,-2.6086790655073533L8.028688613685706,-2.6086790655073537L3.0666861653386652,0.9964267372834953L4.962002448347041,6.829610459238564L6.661338147750939e-16,3.2245046564477153L-4.9620024483470395,6.829610459238565L-3.0666861653386652,0.9964267372834958L-8.028688613685707,-2.608679065507352L-1.8953162830083754,-2.608679065507353Z" fill="#ff7f0e" transform="translate(47.546327446549114,-25.34020824121025)"><title>Country 657173</title></path><path d="M0,-8.441862787462423L1.8953162830083747,-2.6086790655073533L8.028688613685706,-2.6086790655073537L3.0666861653386652,0.9964267372834953L4.962002448347041,6.829610459238564L6.661338147750939e-16,3.2245046564477153L-4.9620024483470395,6.829610459238565L-3.0666861653386652,0.9964267372834958L-8.028688613685707,-2.608679065507352L-1.8953162830083754,-2.608679065507353Z" fill="#2ca02c" transform="translate(6.10241479683545,-2.25058034574255)"><title>Country 499467</title></path><path d="M0,-8.441862787462423L1.8953162830083747,-2.6086790655073533L8.028688613685706,-2.6086790655073537L3.0666861653386652,0.9964267372834953L4.962002448347041,6.829610459238564L6.661338147750939e-16,3.2245046564477153L-4.9620024483470395,6.829610459238565L-3.0666861653386652,0.9964267372834958L-8.028688613685707,-2.608679065507352L-1.8953162830083754,-2.608679065507353Z" fill="#9467bd" transform="translate(-30.199043979974054,-38.76450789542166)"><title>Country 509607</title></path><path d="M0,-8.441862787462423L1.8953162830083747,-2.6086790655073533L8.028688613685706,-2.6086790655073537L3.0666861653386652,0.9964267372834953L4.962002448347041,6.829610459238564L6.661338147750939e-16,3.2245046564477153L-4.9620024483470395,6.829610459238565L-3.0666861653386652,0.9964267372834958L-8.028688613685707,-2.608679065507352L-1.8953162830083754,-2.608679065507353Z" fill="#1f77b4" transform="translate(-17.200151604633373,10.182574111018084)"><title>Country 561157</title></path><path d="M0,-8.441862787462423L1.8953162830083747,-2.6086790655073533L8.028688613685706,-2.6086790655073537L3.0666861653386652,0.9964267372834953L4.962002448347041,6.829610459238564L6.661338147750939e-16,3.2245046564477153L-4.9620024483470395,6.829610459238565L-3.0666861653386652,0.9964267372834958L-8.028688613685707,-2.608679065507352L-1.8953162830083754,-2.608679065507353Z" fill="#8c564b" transform="translate(-41.7957459134453,-11.999411232784885)"><title>Country 616453</title></path><path d="M-4.47213595499958,-4.47213595499958h8.94427190999916v8.94427190999916h-8.94427190999916Z" fill="#7f7f7f" transform="translate(-76.27456273702408,-96.88698476032012)"><title>Document 593870</title></path><path d="M5.046265044040321,0A5.046265044040321,5.046265044040321,0,1,1,-5.046265044040321,0A5.046265044040321,5.046265044040321,0,1,1,5.046265044040321,0" fill="#7f7f7f" transform="translate(-35.52075634867738,43.02175563843523)"><title>Person 570847</title></path></g></svg>