<svg width="300" height="300" viewBox="-150,-150,300,300"><text x="-150" y="-130" font-family="sans-serif" font-size="12px" text-anchor="start">CGCS-Template</text><g stroke="#999" stroke-opacity="0.6"><line stroke-width="1" x1="-90.07106593834239" y1="27.97165197416991" x2="-112.83414606183423" y2="36.47581143833481"></line><line stroke-width="2.23606797749979" x1="-90.07106593834239" y1="27.97165197416991" x2="-76.33865552675161" y2="5.055938801312155"></line><line stroke-width="2" x1="-90.07106593834239" y1="27.97165197416991" x2="-69.38749041453988" y2="31.52694366017717"></line><line stroke-width="2.6457513110645907" x1="-90.07106593834239" y1="27.97165197416991" x2="-112.83414606183423" y2="36.47581143833481"></line><line stroke-width="2.6457513110645907" x1="-90.07106593834239" y1="27.97165197416991" x2="-76.33865552675161" y2="5.055938801312155"></line><line stroke-width="2.23606797749979" x1="-90.07106593834239" y1="27.97165197416991" x2="-69.38749041453988" y2="31.52694366017717"></line><line stroke-width="1.4142135623730951" x1="-90.07106593834239" y1="27.97165197416991" x2="-90.49136228739998" y2="-4.186722821544381"></line><line stroke-width="1" x1="-90.07106593834239" y1="27.97165197416991" x2="-116.73900359324746" y2="15.054274043074685"></line><line stroke-width="1.4142135623730951" x1="-90.07106593834239" y1="27.97165197416991" x2="-83.51733937962273" y2="-23.656825162466287"></line><line stroke-width="1.4142135623730951" x1="-90.07106593834239" y1="27.97165197416991" x2="-99.16773337090841" y2="11.613106704814037"></line><line stroke-width="1" x1="-90.07106593834239" y1="27.97165197416991" x2="-95.80514637258302" y2="45.93999366804011"></line><line stroke-width="1.4142135623730951" x1="-90.07106593834239" y1="27.97165197416991" x2="-120.61430866829136" y2="-5.729456961864514"></line><line stroke-width="2" x1="-112.83414606183423" y1="36.47581143833481" x2="-90.07106593834239" y2="27.97165197416991"></line><line stroke-width="2.6457513110645907" x1="-112.83414606183423" y1="36.47581143833481" x2="-76.33865552675161" y2="5.055938801312155"></line><line stroke-width="1.4142135623730951" x1="-112.83414606183423" y1="36.47581143833481" x2="-69.38749041453988" y2="31.52694366017717"></line><line stroke-width="1" x1="-112.83414606183423" y1="36.47581143833481" x2="-120.61430866829136" y2="-5.729456961864514"></line><line stroke-width="2.6457513110645907" x1="-112.83414606183423" y1="36.47581143833481" x2="-90.07106593834239" y2="27.97165197416991"></line><line stroke-width="2.449489742783178" x1="-112.83414606183423" y1="36.47581143833481" x2="-76.33865552675161" y2="5.055938801312155"></line><line stroke-width="2" x1="-112.83414606183423" y1="36.47581143833481" x2="-69.38749041453988" y2="31.52694366017717"></line><line stroke-width="1" x1="-112.83414606183423" y1="36.47581143833481" x2="-90.49136228739998" y2="-4.186722821544381"></line><line stroke-width="1" x1="-112.83414606183423" y1="36.47581143833481" x2="-116.73900359324746" y2="15.054274043074685"></line><line stroke-width="1" x1="-112.83414606183423" y1="36.47581143833481" x2="-99.16773337090841" y2="11.613106704814037"></line><line stroke-width="1" x1="-112.83414606183423" y1="36.47581143833481" x2="-120.61430866829136" y2="-5.729456961864514"></line><line stroke-width="1.4142135623730951" x1="-112.83414606183423" y1="36.47581143833481" x2="-105.13469348810268" y2="-19.0059478375644"></line><line stroke-width="2.23606797749979" x1="-76.33865552675161" y1="5.055938801312155" x2="-90.07106593834239" y2="27.97165197416991"></line><line stroke-width="2.449489742783178" x1="-76.33865552675161" y1="5.055938801312155" x2="-112.83414606183423" y2="36.47581143833481"></line><line stroke-width="2.6457513110645907" x1="-76.33865552675161" y1="5.055938801312155" x2="-69.38749041453988" y2="31.52694366017717"></line><line stroke-width="1" x1="-76.33865552675161" y1="5.055938801312155" x2="-90.49136228739998" y2="-4.186722821544381"></line><line stroke-width="2" x1="-76.33865552675161" y1="5.055938801312155" x2="-116.73900359324746" y2="15.054274043074685"></line><line stroke-width="1" x1="-76.33865552675161" y1="5.055938801312155" x2="-83.51733937962273" y2="-23.656825162466287"></line><line stroke-width="1" x1="-76.33865552675161" y1="5.055938801312155" x2="-99.16773337090841" y2="11.613106704814037"></line><line stroke-width="1" x1="-76.33865552675161" y1="5.055938801312155" x2="-120.61430866829136" y2="-5.729456961864514"></line><line stroke-width="2" x1="-76.33865552675161" y1="5.055938801312155" x2="-105.13469348810268" y2="-19.0059478375644"></line><line stroke-width="2.23606797749979" x1="-76.33865552675161" y1="5.055938801312155" x2="-90.07106593834239" y2="27.97165197416991"></line><line stroke-width="1.7320508075688772" x1="-76.33865552675161" y1="5.055938801312155" x2="-112.83414606183423" y2="36.47581143833481"></line><line stroke-width="1.4142135623730951" x1="-76.33865552675161" y1="5.055938801312155" x2="-69.38749041453988" y2="31.52694366017717"></line><line stroke-width="1" x1="-49.75151195361297" y1="16.953258401409787" x2="-39.29821818130874" y2="51.55033747838481"></line><line stroke-width="3" x1="-49.75151195361297" y1="16.953258401409787" x2="-83.51733937962273" y2="-23.656825162466287"></line><line stroke-width="2.23606797749979" x1="-49.75151195361297" y1="16.953258401409787" x2="-46.98316689397501" y2="-14.501059223290177"></line><line stroke-width="3.872983346207417" x1="-49.75151195361297" y1="16.953258401409787" x2="-54.94527174773122" y2="-25.61985169447675"></line><line stroke-width="1" x1="-49.75151195361297" y1="16.953258401409787" x2="-5.802276543994213" y2="19.161232132194485"></line><line stroke-width="1" x1="-49.75151195361297" y1="16.953258401409787" x2="-11.233346601224389" y2="-5.759215944751122"></line><line stroke-width="1" x1="-49.75151195361297" y1="16.953258401409787" x2="-23.64105354773127" y2="3.1340479842273927"></line><line stroke-width="1" x1="-49.75151195361297" y1="16.953258401409787" x2="-20.744954273505883" y2="35.91350302929292"></line><line stroke-width="2" x1="-39.29821818130874" y1="51.55033747838481" x2="-50.14457020089941" y2="76.95203530076883"></line><line stroke-width="2" x1="-39.29821818130874" y1="51.55033747838481" x2="-49.75151195361297" y2="16.953258401409787"></line><line stroke-width="1.4142135623730951" x1="-39.29821818130874" y1="51.55033747838481" x2="-69.38749041453988" y2="31.52694366017717"></line><line stroke-width="1.4142135623730951" x1="-39.29821818130874" y1="51.55033747838481" x2="-68.30795634196583" y2="64.11831040798663"></line><line stroke-width="1.7320508075688772" x1="-39.29821818130874" y1="51.55033747838481" x2="-50.14457020089941" y2="76.95203530076883"></line><line stroke-width="1.7320508075688772" x1="-39.29821818130874" y1="51.55033747838481" x2="-49.75151195361297" y2="16.953258401409787"></line><line stroke-width="1.4142135623730951" x1="-39.29821818130874" y1="51.55033747838481" x2="-69.38749041453988" y2="31.52694366017717"></line><line stroke-width="1.7320508075688772" x1="-39.29821818130874" y1="51.55033747838481" x2="-68.30795634196583" y2="64.11831040798663"></line><line stroke-width="1" x1="-39.29821818130874" y1="51.55033747838481" x2="-5.802276543994213" y2="19.161232132194485"></line><line stroke-width="1" x1="-39.29821818130874" y1="51.55033747838481" x2="-11.233346601224389" y2="-5.759215944751122"></line><line stroke-width="1" x1="-39.29821818130874" y1="51.55033747838481" x2="-23.64105354773127" y2="3.1340479842273927"></line><line stroke-width="1" x1="-39.29821818130874" y1="51.55033747838481" x2="-20.744954273505883" y2="35.91350302929292"></line><line stroke-width="1.7320508075688772" x1="-69.38749041453988" y1="31.52694366017717" x2="-50.14457020089941" y2="76.95203530076883"></line><line stroke-width="1.4142135623730951" x1="-69.38749041453988" y1="31.52694366017717" x2="-90.07106593834239" y2="27.97165197416991"></line><line stroke-width="2.23606797749979" x1="-69.38749041453988" y1="31.52694366017717" x2="-112.83414606183423" y2="36.47581143833481"></line><line stroke-width="1.7320508075688772" x1="-69.38749041453988" y1="31.52694366017717" x2="-76.33865552675161" y2="5.055938801312155"></line><line stroke-width="2.449489742783178" x1="-69.38749041453988" y1="31.52694366017717" x2="-49.75151195361297" y2="16.953258401409787"></line><line stroke-width="1" x1="-69.38749041453988" y1="31.52694366017717" x2="-39.29821818130874" y2="51.55033747838481"></line><line stroke-width="1.7320508075688772" x1="-69.38749041453988" y1="31.52694366017717" x2="-90.49136228739998" y2="-4.186722821544381"></line><line stroke-width="1.4142135623730951" x1="-69.38749041453988" y1="31.52694366017717" x2="-116.73900359324746" y2="15.054274043074685"></line><line stroke-width="2.23606797749979" x1="-69.38749041453988" y1="31.52694366017717" x2="-99.16773337090841" y2="11.613106704814037"></line><line stroke-width="1.7320508075688772" x1="-69.38749041453988" y1="31.52694366017717" x2="-95.80514637258302" y2="45.93999366804011"></line><line stroke-width="2" x1="-69.38749041453988" y1="31.52694366017717" x2="-105.13469348810268" y2="-19.0059478375644"></line><line stroke-width="2.23606797749979" x1="-69.38749041453988" y1="31.52694366017717" x2="-68.30795634196583" y2="64.11831040798663"></line><line stroke-width="1.7320508075688772" x1="-69.38749041453988" y1="31.52694366017717" x2="-50.14457020089941" y2="76.95203530076883"></line><line stroke-width="2.23606797749979" x1="-69.38749041453988" y1="31.52694366017717" x2="-90.07106593834239" y2="27.97165197416991"></line><line stroke-width="2.449489742783178" x1="-69.38749041453988" y1="31.52694366017717" x2="-112.83414606183423" y2="36.47581143833481"></line><line stroke-width="2.449489742783178" x1="-69.38749041453988" y1="31.52694366017717" x2="-76.33865552675161" y2="5.055938801312155"></line><line stroke-width="1.7320508075688772" x1="-69.38749041453988" y1="31.52694366017717" x2="-49.75151195361297" y2="16.953258401409787"></line><line stroke-width="1.4142135623730951" x1="-69.38749041453988" y1="31.52694366017717" x2="-39.29821818130874" y2="51.55033747838481"></line><line stroke-width="1.7320508075688772" x1="-69.38749041453988" y1="31.52694366017717" x2="-90.49136228739998" y2="-4.186722821544381"></line><line stroke-width="2.23606797749979" x1="-69.38749041453988" y1="31.52694366017717" x2="-116.73900359324746" y2="15.054274043074685"></line><line stroke-width="2.449489742783178" x1="-69.38749041453988" y1="31.52694366017717" x2="-83.51733937962273" y2="-23.656825162466287"></line><line stroke-width="2.6457513110645907" x1="-69.38749041453988" y1="31.52694366017717" x2="-99.16773337090841" y2="11.613106704814037"></line><line stroke-width="2.6457513110645907" x1="-69.38749041453988" y1="31.52694366017717" x2="-95.80514637258302" y2="45.93999366804011"></line><line stroke-width="3" x1="-69.38749041453988" y1="31.52694366017717" x2="-120.61430866829136" y2="-5.729456961864514"></line><line stroke-width="2.8284271247461903" x1="-69.38749041453988" y1="31.52694366017717" x2="-105.13469348810268" y2="-19.0059478375644"></line><line stroke-width="2.23606797749979" x1="-69.38749041453988" y1="31.52694366017717" x2="-68.30795634196583" y2="64.11831040798663"></line><line stroke-width="1" x1="-69.38749041453988" y1="31.52694366017717" x2="-5.802276543994213" y2="19.161232132194485"></line><line stroke-width="1" x1="-69.38749041453988" y1="31.52694366017717" x2="-11.233346601224389" y2="-5.759215944751122"></line><line stroke-width="1" x1="-69.38749041453988" y1="31.52694366017717" x2="-23.64105354773127" y2="3.1340479842273927"></line><line stroke-width="1" x1="-69.38749041453988" y1="31.52694366017717" x2="-20.744954273505883" y2="35.91350302929292"></line><line stroke-width="1.7320508075688772" x1="-90.49136228739998" y1="-4.186722821544381" x2="-69.38749041453988" y2="31.52694366017717"></line><line stroke-width="2" x1="-90.49136228739998" y1="-4.186722821544381" x2="-116.73900359324746" y2="15.054274043074685"></line><line stroke-width="2" x1="-90.49136228739998" y1="-4.186722821544381" x2="-83.51733937962273" y2="-23.656825162466287"></line><line stroke-width="1" x1="-90.49136228739998" y1="-4.186722821544381" x2="-120.61430866829136" y2="-5.729456961864514"></line><line stroke-width="2" x1="-90.49136228739998" y1="-4.186722821544381" x2="-105.13469348810268" y2="-19.0059478375644"></line><line stroke-width="1" x1="-90.49136228739998" y1="-4.186722821544381" x2="-90.07106593834239" y2="27.97165197416991"></line><line stroke-width="1" x1="-90.49136228739998" y1="-4.186722821544381" x2="-76.33865552675161" y2="5.055938801312155"></line><line stroke-width="1" x1="-90.49136228739998" y1="-4.186722821544381" x2="-69.38749041453988" y2="31.52694366017717"></line><line stroke-width="2.23606797749979" x1="-90.49136228739998" y1="-4.186722821544381" x2="-116.73900359324746" y2="15.054274043074685"></line><line stroke-width="1" x1="-90.49136228739998" y1="-4.186722821544381" x2="-83.51733937962273" y2="-23.656825162466287"></line><line stroke-width="1" x1="-90.49136228739998" y1="-4.186722821544381" x2="-120.61430866829136" y2="-5.729456961864514"></line><line stroke-width="1" x1="-116.73900359324746" y1="15.054274043074685" x2="-69.38749041453988" y2="31.52694366017717"></line><line stroke-width="1.7320508075688772" x1="-116.73900359324746" y1="15.054274043074685" x2="-90.49136228739998" y2="-4.186722821544381"></line><line stroke-width="2" x1="-116.73900359324746" y1="15.054274043074685" x2="-83.51733937962273" y2="-23.656825162466287"></line><line stroke-width="1" x1="-116.73900359324746" y1="15.054274043074685" x2="-99.16773337090841" y2="11.613106704814037"></line><line stroke-width="1.7320508075688772" x1="-116.73900359324746" y1="15.054274043074685" x2="-120.61430866829136" y2="-5.729456961864514"></line><line stroke-width="1.7320508075688772" x1="-116.73900359324746" y1="15.054274043074685" x2="-105.13469348810268" y2="-19.0059478375644"></line><line stroke-width="4.123105625617661" x1="-83.51733937962273" y1="-23.656825162466287" x2="-49.75151195361297" y2="16.953258401409787"></line><line stroke-width="1.4142135623730951" x1="-83.51733937962273" y1="-23.656825162466287" x2="-69.38749041453988" y2="31.52694366017717"></line><line stroke-width="1" x1="-83.51733937962273" y1="-23.656825162466287" x2="-90.49136228739998" y2="-4.186722821544381"></line><line stroke-width="1" x1="-83.51733937962273" y1="-23.656825162466287" x2="-116.73900359324746" y2="15.054274043074685"></line><line stroke-width="1" x1="-83.51733937962273" y1="-23.656825162466287" x2="-99.16773337090841" y2="11.613106704814037"></line><line stroke-width="2.449489742783178" x1="-83.51733937962273" y1="-23.656825162466287" x2="-120.61430866829136" y2="-5.729456961864514"></line><line stroke-width="2.23606797749979" x1="-83.51733937962273" y1="-23.656825162466287" x2="-105.13469348810268" y2="-19.0059478375644"></line><line stroke-width="2.23606797749979" x1="-83.51733937962273" y1="-23.656825162466287" x2="-54.94527174773122" y2="-25.61985169447675"></line><line stroke-width="1.4142135623730951" x1="-83.51733937962273" y1="-23.656825162466287" x2="-90.07106593834239" y2="27.97165197416991"></line><line stroke-width="1.4142135623730951" x1="-83.51733937962273" y1="-23.656825162466287" x2="-116.73900359324746" y2="15.054274043074685"></line><line stroke-width="1" x1="-83.51733937962273" y1="-23.656825162466287" x2="-99.16773337090841" y2="11.613106704814037"></line><line stroke-width="1.4142135623730951" x1="-83.51733937962273" y1="-23.656825162466287" x2="-95.80514637258302" y2="45.93999366804011"></line><line stroke-width="1" x1="-83.51733937962273" y1="-23.656825162466287" x2="-120.61430866829136" y2="-5.729456961864514"></line><line stroke-width="1" x1="-83.51733937962273" y1="-23.656825162466287" x2="-105.13469348810268" y2="-19.0059478375644"></line><line stroke-width="1" x1="-99.16773337090841" y1="11.613106704814037" x2="-112.83414606183423" y2="36.47581143833481"></line><line stroke-width="1" x1="-99.16773337090841" y1="11.613106704814037" x2="-76.33865552675161" y2="5.055938801312155"></line><line stroke-width="2.6457513110645907" x1="-99.16773337090841" y1="11.613106704814037" x2="-69.38749041453988" y2="31.52694366017717"></line><line stroke-width="1" x1="-99.16773337090841" y1="11.613106704814037" x2="-83.51733937962273" y2="-23.656825162466287"></line><line stroke-width="3.1622776601683795" x1="-99.16773337090841" y1="11.613106704814037" x2="-95.80514637258302" y2="45.93999366804011"></line><line stroke-width="1" x1="-99.16773337090841" y1="11.613106704814037" x2="-120.61430866829136" y2="-5.729456961864514"></line><line stroke-width="1.7320508075688772" x1="-99.16773337090841" y1="11.613106704814037" x2="-112.83414606183423" y2="36.47581143833481"></line><line stroke-width="1" x1="-99.16773337090841" y1="11.613106704814037" x2="-76.33865552675161" y2="5.055938801312155"></line><line stroke-width="1.4142135623730951" x1="-99.16773337090841" y1="11.613106704814037" x2="-69.38749041453988" y2="31.52694366017717"></line><line stroke-width="1.7320508075688772" x1="-99.16773337090841" y1="11.613106704814037" x2="-90.49136228739998" y2="-4.186722821544381"></line><line stroke-width="1.4142135623730951" x1="-99.16773337090841" y1="11.613106704814037" x2="-116.73900359324746" y2="15.054274043074685"></line><line stroke-width="1" x1="-99.16773337090841" y1="11.613106704814037" x2="-83.51733937962273" y2="-23.656825162466287"></line><line stroke-width="1" x1="-99.16773337090841" y1="11.613106704814037" x2="-120.61430866829136" y2="-5.729456961864514"></line><line stroke-width="1.4142135623730951" x1="-99.16773337090841" y1="11.613106704814037" x2="-105.13469348810268" y2="-19.0059478375644"></line><line stroke-width="1.4142135623730951" x1="-95.80514637258302" y1="45.93999366804011" x2="-90.07106593834239" y2="27.97165197416991"></line><line stroke-width="1.4142135623730951" x1="-95.80514637258302" y1="45.93999366804011" x2="-112.83414606183423" y2="36.47581143833481"></line><line stroke-width="1" x1="-95.80514637258302" y1="45.93999366804011" x2="-76.33865552675161" y2="5.055938801312155"></line><line stroke-width="1.4142135623730951" x1="-95.80514637258302" y1="45.93999366804011" x2="-69.38749041453988" y2="31.52694366017717"></line><line stroke-width="1.7320508075688772" x1="-95.80514637258302" y1="45.93999366804011" x2="-90.49136228739998" y2="-4.186722821544381"></line><line stroke-width="1" x1="-95.80514637258302" y1="45.93999366804011" x2="-116.73900359324746" y2="15.054274043074685"></line><line stroke-width="1" x1="-95.80514637258302" y1="45.93999366804011" x2="-120.61430866829136" y2="-5.729456961864514"></line><line stroke-width="1" x1="-95.80514637258302" y1="45.93999366804011" x2="-105.13469348810268" y2="-19.0059478375644"></line><line stroke-width="1.7320508075688772" x1="-95.80514637258302" y1="45.93999366804011" x2="-69.38749041453988" y2="31.52694366017717"></line><line stroke-width="1.7320508075688772" x1="-95.80514637258302" y1="45.93999366804011" x2="-99.16773337090841" y2="11.613106704814037"></line><line stroke-width="1.7320508075688772" x1="-120.61430866829136" y1="-5.729456961864514" x2="-90.07106593834239" y2="27.97165197416991"></line><line stroke-width="1.4142135623730951" x1="-120.61430866829136" y1="-5.729456961864514" x2="-112.83414606183423" y2="36.47581143833481"></line><line stroke-width="1.4142135623730951" x1="-120.61430866829136" y1="-5.729456961864514" x2="-76.33865552675161" y2="5.055938801312155"></line><line stroke-width="1.4142135623730951" x1="-120.61430866829136" y1="-5.729456961864514" x2="-69.38749041453988" y2="31.52694366017717"></line><line stroke-width="1.7320508075688772" x1="-120.61430866829136" y1="-5.729456961864514" x2="-90.49136228739998" y2="-4.186722821544381"></line><line stroke-width="1.7320508075688772" x1="-120.61430866829136" y1="-5.729456961864514" x2="-83.51733937962273" y2="-23.656825162466287"></line><line stroke-width="1.7320508075688772" x1="-120.61430866829136" y1="-5.729456961864514" x2="-99.16773337090841" y2="11.613106704814037"></line><line stroke-width="2.6457513110645907" x1="-120.61430866829136" y1="-5.729456961864514" x2="-105.13469348810268" y2="-19.0059478375644"></line><line stroke-width="1" x1="-120.61430866829136" y1="-5.729456961864514" x2="-76.33865552675161" y2="5.055938801312155"></line><line stroke-width="1.4142135623730951" x1="-120.61430866829136" y1="-5.729456961864514" x2="-90.49136228739998" y2="-4.186722821544381"></line><line stroke-width="1.4142135623730951" x1="-120.61430866829136" y1="-5.729456961864514" x2="-116.73900359324746" y2="15.054274043074685"></line><line stroke-width="1" x1="-120.61430866829136" y1="-5.729456961864514" x2="-83.51733937962273" y2="-23.656825162466287"></line><line stroke-width="1" x1="-120.61430866829136" y1="-5.729456961864514" x2="-99.16773337090841" y2="11.613106704814037"></line><line stroke-width="1" x1="-105.13469348810268" y1="-19.0059478375644" x2="-112.83414606183423" y2="36.47581143833481"></line><line stroke-width="3" x1="-105.13469348810268" y1="-19.0059478375644" x2="-69.38749041453988" y2="31.52694366017717"></line><line stroke-width="1.4142135623730951" x1="-105.13469348810268" y1="-19.0059478375644" x2="-90.49136228739998" y2="-4.186722821544381"></line><line stroke-width="2.449489742783178" x1="-105.13469348810268" y1="-19.0059478375644" x2="-116.73900359324746" y2="15.054274043074685"></line><line stroke-width="1.7320508075688772" x1="-105.13469348810268" y1="-19.0059478375644" x2="-83.51733937962273" y2="-23.656825162466287"></line><line stroke-width="1" x1="-105.13469348810268" y1="-19.0059478375644" x2="-99.16773337090841" y2="11.613106704814037"></line><line stroke-width="3.3166247903554" x1="-105.13469348810268" y1="-19.0059478375644" x2="-120.61430866829136" y2="-5.729456961864514"></line><line stroke-width="1.4142135623730951" x1="-105.13469348810268" y1="-19.0059478375644" x2="-90.07106593834239" y2="27.97165197416991"></line><line stroke-width="1.7320508075688772" x1="-105.13469348810268" y1="-19.0059478375644" x2="-76.33865552675161" y2="5.055938801312155"></line><line stroke-width="2.23606797749979" x1="-105.13469348810268" y1="-19.0059478375644" x2="-69.38749041453988" y2="31.52694366017717"></line><line stroke-width="1.4142135623730951" x1="-105.13469348810268" y1="-19.0059478375644" x2="-90.49136228739998" y2="-4.186722821544381"></line><line stroke-width="1" x1="-105.13469348810268" y1="-19.0059478375644" x2="-116.73900359324746" y2="15.054274043074685"></line><line stroke-width="1.4142135623730951" x1="-105.13469348810268" y1="-19.0059478375644" x2="-83.51733937962273" y2="-23.656825162466287"></line><line stroke-width="2" x1="-105.13469348810268" y1="-19.0059478375644" x2="-99.16773337090841" y2="11.613106704814037"></line><line stroke-width="2.8284271247461903" x1="-105.13469348810268" y1="-19.0059478375644" x2="-120.61430866829136" y2="-5.729456961864514"></line><line stroke-width="1" x1="-68.30795634196583" y1="64.11831040798663" x2="-50.14457020089941" y2="76.95203530076883"></line><line stroke-width="1" x1="-68.30795634196583" y1="64.11831040798663" x2="-49.75151195361297" y2="16.953258401409787"></line><line stroke-width="1.7320508075688772" x1="-68.30795634196583" y1="64.11831040798663" x2="-69.38749041453988" y2="31.52694366017717"></line><line stroke-width="2" x1="-68.30795634196583" y1="64.11831040798663" x2="-50.14457020089941" y2="76.95203530076883"></line><line stroke-width="1.4142135623730951" x1="-68.30795634196583" y1="64.11831040798663" x2="-49.75151195361297" y2="16.953258401409787"></line><line stroke-width="2" x1="-68.30795634196583" y1="64.11831040798663" x2="-39.29821818130874" y2="51.55033747838481"></line><line stroke-width="1.4142135623730951" x1="-68.30795634196583" y1="64.11831040798663" x2="-69.38749041453988" y2="31.52694366017717"></line><line stroke-width="4.69041575982343" x1="-54.94527174773122" y1="-25.61985169447675" x2="-49.75151195361297" y2="16.953258401409787"></line><line stroke-width="1.7320508075688772" x1="-54.94527174773122" y1="-25.61985169447675" x2="-83.51733937962273" y2="-23.656825162466287"></line><line stroke-width="1" x1="-0.3762252447742513" y1="-33.846649203919156" x2="-11.233346601224389" y2="-5.759215944751122"></line><line stroke-width="1" x1="-0.3762252447742513" y1="-33.846649203919156" x2="-23.64105354773127" y2="3.1340479842273927"></line><line stroke-width="1" x1="-0.3762252447742513" y1="-33.846649203919156" x2="24.67144258995605" y2="-55.16857684983857"></line><line stroke-width="1" x1="-19.878753024609853" y1="-41.011279318136104" x2="-11.233346601224389" y2="-5.759215944751122"></line><line stroke-width="1" x1="-19.878753024609853" y1="-41.011279318136104" x2="-23.64105354773127" y2="3.1340479842273927"></line><line stroke-width="1" x1="-19.878753024609853" y1="-41.011279318136104" x2="24.67144258995605" y2="-55.16857684983857"></line><line stroke-width="1" x1="-8.790968536634205" y1="-43.55732467786945" x2="-11.233346601224389" y2="-5.759215944751122"></line><line stroke-width="1" x1="-8.790968536634205" y1="-43.55732467786945" x2="-23.64105354773127" y2="3.1340479842273927"></line><line stroke-width="1" x1="-8.790968536634205" y1="-43.55732467786945" x2="24.67144258995605" y2="-55.16857684983857"></line><line stroke-width="1" x1="18.277283013761327" y1="-16.08785457997195" x2="-5.802276543994213" y2="19.161232132194485"></line><line stroke-width="1" x1="18.277283013761327" y1="-16.08785457997195" x2="-11.233346601224389" y2="-5.759215944751122"></line><line stroke-width="1" x1="18.277283013761327" y1="-16.08785457997195" x2="24.67144258995605" y2="-55.16857684983857"></line><line stroke-width="1" x1="18.277283013761327" y1="-16.08785457997195" x2="55.567363746168894" y2="4.106750034061638"></line><line stroke-width="1" x1="36.01497242486734" y1="-20.26410278538338" x2="-5.802276543994213" y2="19.161232132194485"></line><line stroke-width="1" x1="36.01497242486734" y1="-20.26410278538338" x2="-11.233346601224389" y2="-5.759215944751122"></line><line stroke-width="1" x1="36.01497242486734" y1="-20.26410278538338" x2="24.67144258995605" y2="-55.16857684983857"></line><line stroke-width="1" x1="36.01497242486734" y1="-20.26410278538338" x2="55.567363746168894" y2="4.106750034061638"></line><line stroke-width="1" x1="30.79202481177461" y1="-8.02532955420853" x2="-5.802276543994213" y2="19.161232132194485"></line><line stroke-width="1" x1="30.79202481177461" y1="-8.02532955420853" x2="-11.233346601224389" y2="-5.759215944751122"></line><line stroke-width="1" x1="30.79202481177461" y1="-8.02532955420853" x2="24.67144258995605" y2="-55.16857684983857"></line><line stroke-width="1" x1="30.79202481177461" y1="-8.02532955420853" x2="55.567363746168894" y2="4.106750034061638"></line><line stroke-width="1" x1="23.89329997263551" y1="-26.340766161987943" x2="-5.802276543994213" y2="19.161232132194485"></line><line stroke-width="1" x1="23.89329997263551" y1="-26.340766161987943" x2="-11.233346601224389" y2="-5.759215944751122"></line><line stroke-width="1" x1="23.89329997263551" y1="-26.340766161987943" x2="24.67144258995605" y2="-55.16857684983857"></line><line stroke-width="1" x1="23.89329997263551" y1="-26.340766161987943" x2="55.567363746168894" y2="4.106750034061638"></line><line stroke-width="1" x1="9.246995266995684" y1="51.23369946633625" x2="-5.802276543994213" y2="19.161232132194485"></line><line stroke-width="1" x1="-6.7218395116797165" y1="54.2430467486243" x2="-5.802276543994213" y2="19.161232132194485"></line><line stroke-width="1" x1="23.343950309321485" y1="41.388830556215936" x2="-5.802276543994213" y2="19.161232132194485"></line><line stroke-width="1" x1="15.256879988971129" y1="6.939623671414209" x2="-11.233346601224389" y2="-5.759215944751122"></line><line stroke-width="1" x1="15.256879988971129" y1="6.939623671414209" x2="-23.64105354773127" y2="3.1340479842273927"></line><line stroke-width="1" x1="15.256879988971129" y1="6.939623671414209" x2="-20.744954273505883" y2="35.91350302929292"></line><line stroke-width="1" x1="15.256879988971129" y1="6.939623671414209" x2="55.567363746168894" y2="4.106750034061638"></line><line stroke-width="1" x1="13.049743597163836" y1="24.12884286770218" x2="-11.233346601224389" y2="-5.759215944751122"></line><line stroke-width="1" x1="13.049743597163836" y1="24.12884286770218" x2="-23.64105354773127" y2="3.1340479842273927"></line><line stroke-width="1" x1="13.049743597163836" y1="24.12884286770218" x2="-20.744954273505883" y2="35.91350302929292"></line><line stroke-width="1" x1="13.049743597163836" y1="24.12884286770218" x2="55.567363746168894" y2="4.106750034061638"></line><line stroke-width="1" x1="23.23423785349623" y1="18.012222629483315" x2="-11.233346601224389" y2="-5.759215944751122"></line><line stroke-width="1" x1="23.23423785349623" y1="18.012222629483315" x2="-23.64105354773127" y2="3.1340479842273927"></line><line stroke-width="1" x1="23.23423785349623" y1="18.012222629483315" x2="-20.744954273505883" y2="35.91350302929292"></line><line stroke-width="1" x1="23.23423785349623" y1="18.012222629483315" x2="55.567363746168894" y2="4.106750034061638"></line></g><g stroke="#fff" stroke-width="1.5"><path d="M5.046265044040321,0A5.046265044040321,5.046265044040321,0,1,1,-5.046265044040321,0A5.046265044040321,5.046265044040321,0,1,1,5.046265044040321,0" fill="#8c564b" transform="translate(-50.14457020089941,76.95203530076883)"><title>Person 0</title></path><path d="M5.046265044040321,0A5.046265044040321,5.046265044040321,0,1,1,-5.046265044040321,0A5.046265044040321,5.046265044040321,0,1,1,5.046265044040321,0" fill="#8c564b" transform="translate(-69.38749041453988,31.52694366017717)"><title>Person 41</title></path><path d="M5.046265044040321,0A5.046265044040321,5.046265044040321,0,1,1,-5.046265044040321,0A5.046265044040321,5.046265044040321,0,1,1,5.046265044040321,0" fill="#8c564b" transform="translate(-76.33865552675161,5.055938801312155)"><title>Person 37</title></path><path d="M5.046265044040321,0A5.046265044040321,5.046265044040321,0,1,1,-5.046265044040321,0A5.046265044040321,5.046265044040321,0,1,1,5.046265044040321,0" fill="#8c564b" transform="translate(-112.83414606183423,36.47581143833481)"><title>Person 34</title></path><path d="M5.046265044040321,0A5.046265044040321,5.046265044040321,0,1,1,-5.046265044040321,0A5.046265044040321,5.046265044040321,0,1,1,5.046265044040321,0" fill="#8c564b" transform="translate(-90.07106593834239,27.97165197416991)"><title>Person 27</title></path><path d="M5.046265044040321,0A5.046265044040321,5.046265044040321,0,1,1,-5.046265044040321,0A5.046265044040321,5.046265044040321,0,1,1,5.046265044040321,0" fill="#8c564b" transform="translate(-39.29821818130874,51.55033747838481)"><title>Person 40</title></path><path d="M5.046265044040321,0A5.046265044040321,5.046265044040321,0,1,1,-5.046265044040321,0A5.046265044040321,5.046265044040321,0,1,1,5.046265044040321,0" fill="#8c564b" transform="translate(-68.30795634196583,64.11831040798663)"><title>Person 65</title></path><path d="M5.046265044040321,0A5.046265044040321,5.046265044040321,0,1,1,-5.046265044040321,0A5.046265044040321,5.046265044040321,0,1,1,5.046265044040321,0" fill="#7f7f7f" transform="translate(-54.94527174773122,-25.61985169447675)"><title>Person 67</title></path><path d="M5.046265044040321,0A5.046265044040321,5.046265044040321,0,1,1,-5.046265044040321,0A5.046265044040321,5.046265044040321,0,1,1,5.046265044040321,0" fill="#d62728" transform="translate(-83.51733937962273,-23.656825162466287)"><title>Person 47</title></path><path d="M5.046265044040321,0A5.046265044040321,5.046265044040321,0,1,1,-5.046265044040321,0A5.046265044040321,5.046265044040321,0,1,1,5.046265044040321,0" fill="#8c564b" transform="translate(-49.75151195361297,16.953258401409787)"><title>Person 39</title></path><path d="M5.046265044040321,0A5.046265044040321,5.046265044040321,0,1,1,-5.046265044040321,0A5.046265044040321,5.046265044040321,0,1,1,5.046265044040321,0" fill="#7f7f7f" transform="translate(36.01497242486734,-20.26410278538338)"><title>Person 78</title></path><path d="M5.046265044040321,0A5.046265044040321,5.046265044040321,0,1,1,-5.046265044040321,0A5.046265044040321,5.046265044040321,0,1,1,5.046265044040321,0" fill="#7f7f7f" transform="translate(23.89329997263551,-26.340766161987943)"><title>Person 80</title></path><path d="M5.046265044040321,0A5.046265044040321,5.046265044040321,0,1,1,-5.046265044040321,0A5.046265044040321,5.046265044040321,0,1,1,5.046265044040321,0" fill="#d62728" transform="translate(-90.49136228739998,-4.186722821544381)"><title>Person 43</title></path><path d="M5.046265044040321,0A5.046265044040321,5.046265044040321,0,1,1,-5.046265044040321,0A5.046265044040321,5.046265044040321,0,1,1,5.046265044040321,0" fill="#1f77b4" transform="translate(-95.80514637258302,45.93999366804011)"><title>Person 57</title></path><path d="M5.046265044040321,0A5.046265044040321,5.046265044040321,0,1,1,-5.046265044040321,0A5.046265044040321,5.046265044040321,0,1,1,5.046265044040321,0" fill="#9467bd" transform="translate(-120.61430866829136,-5.729456961864514)"><title>Person 58</title></path><path d="M5.046265044040321,0A5.046265044040321,5.046265044040321,0,1,1,-5.046265044040321,0A5.046265044040321,5.046265044040321,0,1,1,5.046265044040321,0" fill="#9467bd" transform="translate(-105.13469348810268,-19.0059478375644)"><title>Person 63</title></path><path d="M5.046265044040321,0A5.046265044040321,5.046265044040321,0,1,1,-5.046265044040321,0A5.046265044040321,5.046265044040321,0,1,1,5.046265044040321,0" fill="#7f7f7f" transform="translate(18.277283013761327,-16.08785457997195)"><title>Person 77</title></path><path d="M5.046265044040321,0A5.046265044040321,5.046265044040321,0,1,1,-5.046265044040321,0A5.046265044040321,5.046265044040321,0,1,1,5.046265044040321,0" fill="#1f77b4" transform="translate(-99.16773337090841,11.613106704814037)"><title>Person 56</title></path><path d="M5.046265044040321,0A5.046265044040321,5.046265044040321,0,1,1,-5.046265044040321,0A5.046265044040321,5.046265044040321,0,1,1,5.046265044040321,0" fill="#7f7f7f" transform="translate(30.79202481177461,-8.02532955420853)"><title>Person 79</title></path><path d="M5.046265044040321,0A5.046265044040321,5.046265044040321,0,1,1,-5.046265044040321,0A5.046265044040321,5.046265044040321,0,1,1,5.046265044040321,0" fill="#d62728" transform="translate(-116.73900359324746,15.054274043074685)"><title>Person 45</title></path><path d="M5.046265044040321,0A5.046265044040321,5.046265044040321,0,1,1,-5.046265044040321,0A5.046265044040321,5.046265044040321,0,1,1,5.046265044040321,0" fill="#7f7f7f" transform="translate(9.246995266995684,51.23369946633625)"><title>Person 82</title></path><path d="M5.046265044040321,0A5.046265044040321,5.046265044040321,0,1,1,-5.046265044040321,0A5.046265044040321,5.046265044040321,0,1,1,5.046265044040321,0" fill="#7f7f7f" transform="translate(-6.7218395116797165,54.2430467486243)"><title>Person 83</title></path><path d="M5.046265044040321,0A5.046265044040321,5.046265044040321,0,1,1,-5.046265044040321,0A5.046265044040321,5.046265044040321,0,1,1,5.046265044040321,0" fill="#7f7f7f" transform="translate(23.343950309321485,41.388830556215936)"><title>Person 84</title></path><path d="M5.046265044040321,0A5.046265044040321,5.046265044040321,0,1,1,-5.046265044040321,0A5.046265044040321,5.046265044040321,0,1,1,5.046265044040321,0" fill="#7f7f7f" transform="translate(-0.3762252447742513,-33.846649203919156)"><title>Person 73</title></path><path d="M5.046265044040321,0A5.046265044040321,5.046265044040321,0,1,1,-5.046265044040321,0A5.046265044040321,5.046265044040321,0,1,1,5.046265044040321,0" fill="#7f7f7f" transform="translate(-8.790968536634205,-43.55732467786945)"><title>Person 75</title></path><path d="M5.046265044040321,0A5.046265044040321,5.046265044040321,0,1,1,-5.046265044040321,0A5.046265044040321,5.046265044040321,0,1,1,5.046265044040321,0" fill="#7f7f7f" transform="translate(-19.878753024609853,-41.011279318136104)"><title>Person 74</title></path><path d="M5.046265044040321,0A5.046265044040321,5.046265044040321,0,1,1,-5.046265044040321,0A5.046265044040321,5.046265044040321,0,1,1,5.046265044040321,0" fill="#7f7f7f" transform="translate(23.23423785349623,18.012222629483315)"><title>Person 87</title></path><path d="M5.046265044040321,0A5.046265044040321,5.046265044040321,0,1,1,-5.046265044040321,0A5.046265044040321,5.046265044040321,0,1,1,5.046265044040321,0" fill="#7f7f7f" transform="translate(15.256879988971129,6.939623671414209)"><title>Person 85</title></path><path d="M5.046265044040321,0A5.046265044040321,5.046265044040321,0,1,1,-5.046265044040321,0A5.046265044040321,5.046265044040321,0,1,1,5.046265044040321,0" fill="#7f7f7f" transform="translate(13.049743597163836,24.12884286770218)"><title>Person 86</title></path><path d="M5.046265044040321,0A5.046265044040321,5.046265044040321,0,1,1,-5.046265044040321,0A5.046265044040321,5.046265044040321,0,1,1,5.046265044040321,0" fill="#7f7f7f" transform="translate(93.56861662781668,27.15358985025759)"><title>Person 2</title></path><path d="M5.046265044040321,0A5.046265044040321,5.046265044040321,0,1,1,-5.046265044040321,0A5.046265044040321,5.046265044040321,0,1,1,5.046265044040321,0" fill="#7f7f7f" transform="translate(-87.52633121008516,-84.26899810579033)"><title>Person 29</title></path><path d="M5.046265044040321,0A5.046265044040321,5.046265044040321,0,1,1,-5.046265044040321,0A5.046265044040321,5.046265044040321,0,1,1,5.046265044040321,0" fill="#7f7f7f" transform="translate(80.02695278947913,-58.92343282528225)"><title>Person 31</title></path><path d="M5.046265044040321,0A5.046265044040321,5.046265044040321,0,1,1,-5.046265044040321,0A5.046265044040321,5.046265044040321,0,1,1,5.046265044040321,0" fill="#7f7f7f" transform="translate(82.29438484430449,89.03712944358665)"><title>Person 33</title></path><path d="M5.046265044040321,0A5.046265044040321,5.046265044040321,0,1,1,-5.046265044040321,0A5.046265044040321,5.046265044040321,0,1,1,5.046265044040321,0" fill="#7f7f7f" transform="translate(-1.916987138196149,-95.56574770452808)"><title>Person 35</title></path><path d="M5.046265044040321,0A5.046265044040321,5.046265044040321,0,1,1,-5.046265044040321,0A5.046265044040321,5.046265044040321,0,1,1,5.046265044040321,0" fill="#7f7f7f" transform="translate(94.82493306530756,-12.24231409119334)"><title>Person 36</title></path><path d="M5.046265044040321,0A5.046265044040321,5.046265044040321,0,1,1,-5.046265044040321,0A5.046265044040321,5.046265044040321,0,1,1,5.046265044040321,0" fill="#7f7f7f" transform="translate(19.079624372217836,101.73409401085226)"><title>Person 38</title></path><path d="M5.046265044040321,0A5.046265044040321,5.046265044040321,0,1,1,-5.046265044040321,0A5.046265044040321,5.046265044040321,0,1,1,5.046265044040321,0" fill="#7f7f7f" transform="translate(56.316811788992545,-96.33454985161636)"><title>Person 42</title></path><path d="M5.046265044040321,0A5.046265044040321,5.046265044040321,0,1,1,-5.046265044040321,0A5.046265044040321,5.046265044040321,0,1,1,5.046265044040321,0" fill="#7f7f7f" transform="translate(107.09169484175466,55.41300054630564)"><title>Person 44</title></path><path d="M5.046265044040321,0A5.046265044040321,5.046265044040321,0,1,1,-5.046265044040321,0A5.046265044040321,5.046265044040321,0,1,1,5.046265044040321,0" fill="#7f7f7f" transform="translate(-47.60229667571114,-106.3610115097934)"><title>Person 46</title></path><path d="M5.046265044040321,0A5.046265044040321,5.046265044040321,0,1,1,-5.046265044040321,0A5.046265044040321,5.046265044040321,0,1,1,5.046265044040321,0" fill="#7f7f7f" transform="translate(106.52040152389212,-51.829034848755576)"><title>Person 48</title></path><path d="M5.046265044040321,0A5.046265044040321,5.046265044040321,0,1,1,-5.046265044040321,0A5.046265044040321,5.046265044040321,0,1,1,5.046265044040321,0" fill="#7f7f7f" transform="translate(55.00644618170774,83.95206388503233)"><title>Person 49</title></path><path d="M5.046265044040321,0A5.046265044040321,5.046265044040321,0,1,1,-5.046265044040321,0A5.046265044040321,5.046265044040321,0,1,1,5.046265044040321,0" fill="#7f7f7f" transform="translate(14.141405623284642,-120.20837291985855)"><title>Person 52</title></path><path d="M5.046265044040321,0A5.046265044040321,5.046265044040321,0,1,1,-5.046265044040321,0A5.046265044040321,5.046265044040321,0,1,1,5.046265044040321,0" fill="#7f7f7f" transform="translate(118.93929012454153,14.805673438626966)"><title>Person 53</title></path><path d="M5.046265044040321,0A5.046265044040321,5.046265044040321,0,1,1,-5.046265044040321,0A5.046265044040321,5.046265044040321,0,1,1,5.046265044040321,0" fill="#7f7f7f" transform="translate(-2.3648925883469776,118.423958534028)"><title>Person 54</title></path><path d="M5.046265044040321,0A5.046265044040321,5.046265044040321,0,1,1,-5.046265044040321,0A5.046265044040321,5.046265044040321,0,1,1,5.046265044040321,0" fill="#7f7f7f" transform="translate(80.68700681364896,-86.87295916995082)"><title>Person 55</title></path><path d="M5.046265044040321,0A5.046265044040321,5.046265044040321,0,1,1,-5.046265044040321,0A5.046265044040321,5.046265044040321,0,1,1,5.046265044040321,0" fill="#7f7f7f" transform="translate(78.20991648925175,56.55226381989465)"><title>Person 59</title></path><path d="M5.046265044040321,0A5.046265044040321,5.046265044040321,0,1,1,-5.046265044040321,0A5.046265044040321,5.046265044040321,0,1,1,5.046265044040321,0" fill="#7f7f7f" transform="translate(-22.224862989090305,-117.3542088518993)"><title>Person 60</title></path><path d="M5.046265044040321,0A5.046265044040321,5.046265044040321,0,1,1,-5.046265044040321,0A5.046265044040321,5.046265044040321,0,1,1,5.046265044040321,0" fill="#7f7f7f" transform="translate(117.93525609651633,-22.985597644783873)"><title>Person 61</title></path><path d="M5.046265044040321,0A5.046265044040321,5.046265044040321,0,1,1,-5.046265044040321,0A5.046265044040321,5.046265044040321,0,1,1,5.046265044040321,0" fill="#7f7f7f" transform="translate(44.56315950222797,112.58491791818484)"><title>Person 62</title></path><path d="M5.046265044040321,0A5.046265044040321,5.046265044040321,0,1,1,-5.046265044040321,0A5.046265044040321,5.046265044040321,0,1,1,5.046265044040321,0" fill="#7f7f7f" transform="translate(33.26899575089911,-100.4631141987728)"><title>Person 64</title></path><path d="M-4.47213595499958,-4.47213595499958h8.94427190999916v8.94427190999916h-8.94427190999916Z" fill="#7f7f7f" transform="translate(-31.75256292967704,112.57479144945577)"><title>Document -99</title></path><path d="M5.046265044040321,0A5.046265044040321,5.046265044040321,0,1,1,-5.046265044040321,0A5.046265044040321,5.046265044040321,0,1,1,5.046265044040321,0" fill="#7f7f7f" transform="translate(-46.98316689397501,-14.501059223290177)"><title>Person 66</title></path><path d="M-6,-2L-2,-2L-2,-6L2,-6L2,-2L6,-2L6,2L2,2L2,6L-2,6L-2,2L-6,2Z" fill="#7f7f7f" transform="translate(-58.20134673400668,-82.82908576775915)"><title>Product 657187</title></path><path d="M0,-8.441862787462423L1.8953162830083747,-2.6086790655073533L8.028688613685706,-2.6086790655073537L3.0666861653386652,0.9964267372834953L4.962002448347041,6.829610459238564L6.661338147750939e-16,3.2245046564477153L-4.9620024483470395,6.829610459238565L-3.0666861653386652,0.9964267372834958L-8.028688613685707,-2.608679065507352L-1.8953162830083754,-2.608679065507353Z" fill="#ff7f0e" transform="translate(55.567363746168894,4.106750034061638)"><title>Country 81</title></path><path d="M0,-8.441862787462423L1.8953162830083747,-2.6086790655073533L8.028688613685706,-2.6086790655073537L3.0666861653386652,0.9964267372834953L4.962002448347041,6.829610459238564L6.661338147750939e-16,3.2245046564477153L-4.9620024483470395,6.829610459238565L-3.0666861653386652,0.9964267372834958L-8.028688613685707,-2.608679065507352L-1.8953162830083754,-2.608679065507353Z" fill="#d62728" transform="translate(-11.233346601224389,-5.759215944751122)"><title>Country 70</title></path><path d="M0,-8.441862787462423L1.8953162830083747,-2.6086790655073533L8.028688613685706,-2.6086790655073537L3.0666861653386652,0.9964267372834953L4.962002448347041,6.829610459238564L6.661338147750939e-16,3.2245046564477153L-4.9620024483470395,6.829610459238565L-3.0666861653386652,0.9964267372834958L-8.028688613685707,-2.608679065507352L-1.8953162830083754,-2.608679065507353Z" fill="#9467bd" transform="translate(-5.802276543994213,19.161232132194485)"><title>Country 69</title></path><path d="M0,-8.441862787462423L1.8953162830083747,-2.6086790655073533L8.028688613685706,-2.6086790655073537L3.0666861653386652,0.9964267372834953L4.962002448347041,6.829610459238564L6.661338147750939e-16,3.2245046564477153L-4.9620024483470395,6.829610459238565L-3.0666861653386652,0.9964267372834958L-8.028688613685707,-2.608679065507352L-1.8953162830083754,-2.608679065507353Z" fill="#2ca02c" transform="translate(24.67144258995605,-55.16857684983857)"><title>Country 76</title></path><path d="M0,-8.441862787462423L1.8953162830083747,-2.6086790655073533L8.028688613685706,-2.6086790655073537L3.0666861653386652,0.9964267372834953L4.962002448347041,6.829610459238564L6.661338147750939e-16,3.2245046564477153L-4.9620024483470395,6.829610459238565L-3.0666861653386652,0.9964267372834958L-8.028688613685707,-2.608679065507352L-1.8953162830083754,-2.608679065507353Z" fill="#1f77b4" transform="translate(-23.64105354773127,3.1340479842273927)"><title>Country 71</title></path><path d="M0,-8.441862787462423L1.8953162830083747,-2.6086790655073533L8.028688613685706,-2.6086790655073537L3.0666861653386652,0.9964267372834953L4.962002448347041,6.829610459238564L6.661338147750939e-16,3.2245046564477153L-4.9620024483470395,6.829610459238565L-3.0666861653386652,0.9964267372834958L-8.028688613685707,-2.608679065507352L-1.8953162830083754,-2.608679065507353Z" fill="#8c564b" transform="translate(-20.744954273505883,35.91350302929292)"><title>Country 72</title></path></g></svg>