<svg width="300" height="300" viewBox="-150,-150,300,300"><text x="-150" y="-130" font-family="sans-serif" font-size="12px" text-anchor="start">Q4-matched_nodes_intra</text><g stroke="#999" stroke-opacity="0.6"><line stroke-width="4.47213595499958" x1="47.426350149094304" y1="-48.98869361317469" x2="-5.548517257260893" y2="-47.08369673200616"></line><line stroke-width="5" x1="47.426350149094304" y1="-48.98869361317469" x2="61.32045596316662" y2="-4.069028153280473"></line><line stroke-width="4.47213595499958" x1="47.426350149094304" y1="-48.98869361317469" x2="52.67293400334217" y2="-12.337536608439846"></line><line stroke-width="5" x1="47.426350149094304" y1="-48.98869361317469" x2="5.2555154350143205" y2="-54.17189131897759"></line><line stroke-width="2.23606797749979" x1="-33.83447277886645" y1="-36.6416904305811" x2="-5.548517257260893" y2="-47.08369673200616"></line><line stroke-width="3.872983346207417" x1="33.73136663309495" y1="20.46617208286402" x2="61.32045596316662" y2="-4.069028153280473"></line><line stroke-width="3.1622776601683795" x1="33.73136663309495" y1="20.46617208286402" x2="52.67293400334217" y2="-12.337536608439846"></line><line stroke-width="2.23606797749979" x1="33.73136663309495" y1="20.46617208286402" x2="1.5924905665860738" y2="28.28873481736284"></line><line stroke-width="2.23606797749979" x1="33.73136663309495" y1="20.46617208286402" x2="5.2555154350143205" y2="-54.17189131897759"></line><line stroke-width="2.23606797749979" x1="33.73136663309495" y1="20.46617208286402" x2="12.055157127589585" y2="39.94580659290132"></line><line stroke-width="2.23606797749979" x1="51.5754269690603" y1="-58.35551331914815" x2="-5.548517257260893" y2="-47.08369673200616"></line><line stroke-width="2.23606797749979" x1="51.5754269690603" y1="-58.35551331914815" x2="61.32045596316662" y2="-4.069028153280473"></line><line stroke-width="2.23606797749979" x1="51.5754269690603" y1="-58.35551331914815" x2="52.67293400334217" y2="-12.337536608439846"></line><line stroke-width="2.23606797749979" x1="51.5754269690603" y1="-58.35551331914815" x2="5.2555154350143205" y2="-54.17189131897759"></line><line stroke-width="3.1622776601683795" x1="-25.337941299037272" y1="2.8885231360264516" x2="1.5924905665860738" y2="28.28873481736284"></line><line stroke-width="2.23606797749979" x1="-25.337941299037272" y1="2.8885231360264516" x2="5.2555154350143205" y2="-54.17189131897759"></line><line stroke-width="2.23606797749979" x1="-25.337941299037272" y1="2.8885231360264516" x2="12.055157127589585" y2="39.94580659290132"></line><line stroke-width="3.872983346207417" x1="-13.7789553799388" y1="14.07312888735504" x2="-5.548517257260893" y2="-47.08369673200616"></line><line stroke-width="2.23606797749979" x1="-13.7789553799388" y1="14.07312888735504" x2="61.32045596316662" y2="-4.069028153280473"></line><line stroke-width="2.23606797749979" x1="-13.7789553799388" y1="14.07312888735504" x2="52.67293400334217" y2="-12.337536608439846"></line><line stroke-width="5" x1="-13.7789553799388" y1="14.07312888735504" x2="1.5924905665860738" y2="28.28873481736284"></line><line stroke-width="2.23606797749979" x1="-13.7789553799388" y1="14.07312888735504" x2="12.055157127589585" y2="39.94580659290132"></line><line stroke-width="3.872983346207417" x1="6.949376466451187" y1="3.965138701777315" x2="-5.548517257260893" y2="-47.08369673200616"></line><line stroke-width="3.872983346207417" x1="6.949376466451187" y1="3.965138701777315" x2="61.32045596316662" y2="-4.069028153280473"></line><line stroke-width="3.1622776601683795" x1="6.949376466451187" y1="3.965138701777315" x2="52.67293400334217" y2="-12.337536608439846"></line><line stroke-width="2.23606797749979" x1="6.949376466451187" y1="3.965138701777315" x2="1.5924905665860738" y2="28.28873481736284"></line><line stroke-width="4.47213595499958" x1="6.949376466451187" y1="3.965138701777315" x2="5.2555154350143205" y2="-54.17189131897759"></line><line stroke-width="4.47213595499958" x1="6.949376466451187" y1="3.965138701777315" x2="12.055157127589585" y2="39.94580659290132"></line><line stroke-width="3.872983346207417" x1="82.79380103377282" y1="18.246598627133135" x2="61.32045596316662" y2="-4.069028153280473"></line><line stroke-width="5" x1="49.77530198359216" y1="-31.877130010795153" x2="61.32045596316662" y2="-4.069028153280473"></line><line stroke-width="3.1622776601683795" x1="49.77530198359216" y1="-31.877130010795153" x2="52.67293400334217" y2="-12.337536608439846"></line><line stroke-width="2.23606797749979" x1="49.77530198359216" y1="-31.877130010795153" x2="1.5924905665860738" y2="28.28873481736284"></line><line stroke-width="3.1622776601683795" x1="49.77530198359216" y1="-31.877130010795153" x2="5.2555154350143205" y2="-54.17189131897759"></line><line stroke-width="2.23606797749979" x1="-10.93395043839743" y1="-1.473656569231183" x2="-5.548517257260893" y2="-47.08369673200616"></line><line stroke-width="2.23606797749979" x1="-10.93395043839743" y1="-1.473656569231183" x2="61.32045596316662" y2="-4.069028153280473"></line><line stroke-width="3.1622776601683795" x1="-10.93395043839743" y1="-1.473656569231183" x2="52.67293400334217" y2="-12.337536608439846"></line><line stroke-width="2.23606797749979" x1="-10.93395043839743" y1="-1.473656569231183" x2="1.5924905665860738" y2="28.28873481736284"></line><line stroke-width="3.1622776601683795" x1="-10.93395043839743" y1="-1.473656569231183" x2="5.2555154350143205" y2="-54.17189131897759"></line><line stroke-width="2.23606797749979" x1="-10.93395043839743" y1="-1.473656569231183" x2="12.055157127589585" y2="39.94580659290132"></line><line stroke-width="2.23606797749979" x1="5.598651546060934" y1="75.53574840275566" x2="12.055157127589585" y2="39.94580659290132"></line><line stroke-width="3.872983346207417" x1="30.706351129217694" y1="-68.77616286086945" x2="-5.548517257260893" y2="-47.08369673200616"></line><line stroke-width="3.872983346207417" x1="30.706351129217694" y1="-68.77616286086945" x2="52.67293400334217" y2="-12.337536608439846"></line><line stroke-width="3.872983346207417" x1="30.706351129217694" y1="-68.77616286086945" x2="5.2555154350143205" y2="-54.17189131897759"></line><line stroke-width="3.872983346207417" x1="16.982681351682942" y1="-34.30798002110005" x2="61.32045596316662" y2="-4.069028153280473"></line><line stroke-width="3.3166247903554" x1="16.982681351682942" y1="-34.30798002110005" x2="52.67293400334217" y2="-12.337536608439846"></line><line stroke-width="3.4641016151377544" x1="16.982681351682942" y1="-34.30798002110005" x2="1.5924905665860738" y2="28.28873481736284"></line><line stroke-width="3.4641016151377544" x1="16.982681351682942" y1="-34.30798002110005" x2="5.2555154350143205" y2="-54.17189131897759"></line><line stroke-width="2.23606797749979" x1="20.36529328154362" y1="10.005423743546602" x2="-5.548517257260893" y2="-47.08369673200616"></line><line stroke-width="4.47213595499958" x1="20.36529328154362" y1="10.005423743546602" x2="61.32045596316662" y2="-4.069028153280473"></line><line stroke-width="2.23606797749979" x1="20.36529328154362" y1="10.005423743546602" x2="1.5924905665860738" y2="28.28873481736284"></line><line stroke-width="2.23606797749979" x1="20.36529328154362" y1="10.005423743546602" x2="12.055157127589585" y2="39.94580659290132"></line><line stroke-width="3.1622776601683795" x1="-30.416890735651865" y1="-22.043718363249504" x2="-5.548517257260893" y2="-47.08369673200616"></line><line stroke-width="5" x1="-30.416890735651865" y1="-22.043718363249504" x2="1.5924905665860738" y2="28.28873481736284"></line><line stroke-width="4.47213595499958" x1="-30.416890735651865" y1="-22.043718363249504" x2="5.2555154350143205" y2="-54.17189131897759"></line><line stroke-width="3.1622776601683795" x1="7.27174514605853" y1="-20.085309463647715" x2="-5.548517257260893" y2="-47.08369673200616"></line><line stroke-width="2.23606797749979" x1="7.27174514605853" y1="-20.085309463647715" x2="52.67293400334217" y2="-12.337536608439846"></line><line stroke-width="3.1622776601683795" x1="7.27174514605853" y1="-20.085309463647715" x2="5.2555154350143205" y2="-54.17189131897759"></line><line stroke-width="3.872983346207417" x1="7.27174514605853" y1="-20.085309463647715" x2="12.055157127589585" y2="39.94580659290132"></line><line stroke-width="3.872983346207417" x1="10.686817127867338" y1="-7.079054074956254" x2="-5.548517257260893" y2="-47.08369673200616"></line><line stroke-width="5" x1="10.686817127867338" y1="-7.079054074956254" x2="61.32045596316662" y2="-4.069028153280473"></line><line stroke-width="2.23606797749979" x1="10.686817127867338" y1="-7.079054074956254" x2="1.5924905665860738" y2="28.28873481736284"></line><line stroke-width="3.872983346207417" x1="10.686817127867338" y1="-7.079054074956254" x2="5.2555154350143205" y2="-54.17189131897759"></line><line stroke-width="3.872983346207417" x1="10.686817127867338" y1="-7.079054074956254" x2="12.055157127589585" y2="39.94580659290132"></line><line stroke-width="3.1622776601683795" x1="35.73288621539257" y1="-56.702226130162614" x2="52.67293400334217" y2="-12.337536608439846"></line><line stroke-width="2.23606797749979" x1="35.73288621539257" y1="-56.702226130162614" x2="5.2555154350143205" y2="-54.17189131897759"></line><line stroke-width="2.8284271247461903" x1="43.940034684042544" y1="46.187021670097415" x2="52.67293400334217" y2="-12.337536608439846"></line><line stroke-width="2.8284271247461903" x1="43.940034684042544" y1="46.187021670097415" x2="12.055157127589585" y2="39.94580659290132"></line><line stroke-width="2.23606797749979" x1="61.56920795772714" y1="27.484227064611638" x2="61.32045596316662" y2="-4.069028153280473"></line><line stroke-width="5.477225575051661" x1="61.56920795772714" y1="27.484227064611638" x2="52.67293400334217" y2="-12.337536608439846"></line><line stroke-width="4.47213595499958" x1="61.56920795772714" y1="27.484227064611638" x2="1.5924905665860738" y2="28.28873481736284"></line><line stroke-width="3.872983346207417" x1="35.39341619046142" y1="-15.487942875457012" x2="-5.548517257260893" y2="-47.08369673200616"></line><line stroke-width="3.872983346207417" x1="35.39341619046142" y1="-15.487942875457012" x2="61.32045596316662" y2="-4.069028153280473"></line><line stroke-width="3.872983346207417" x1="35.39341619046142" y1="-15.487942875457012" x2="5.2555154350143205" y2="-54.17189131897759"></line><line stroke-width="3.872983346207417" x1="35.39341619046142" y1="-15.487942875457012" x2="12.055157127589585" y2="39.94580659290132"></line><line stroke-width="2.8284271247461903" x1="47.70600382452197" y1="27.98029930262324" x2="52.67293400334217" y2="-12.337536608439846"></line><line stroke-width="2.449489742783178" x1="47.70600382452197" y1="27.98029930262324" x2="12.055157127589585" y2="39.94580659290132"></line><line stroke-width="3.872983346207417" x1="23.42144506801707" y1="-19.571674848465413" x2="-5.548517257260893" y2="-47.08369673200616"></line><line stroke-width="3.872983346207417" x1="23.42144506801707" y1="-19.571674848465413" x2="61.32045596316662" y2="-4.069028153280473"></line><line stroke-width="3.872983346207417" x1="23.42144506801707" y1="-19.571674848465413" x2="5.2555154350143205" y2="-54.17189131897759"></line><line stroke-width="3.872983346207417" x1="23.42144506801707" y1="-19.571674848465413" x2="12.055157127589585" y2="39.94580659290132"></line><line stroke-width="2.23606797749979" x1="33.18056368469936" y1="-32.61907488147211" x2="-5.548517257260893" y2="-47.08369673200616"></line><line stroke-width="4.47213595499958" x1="33.18056368469936" y1="-32.61907488147211" x2="61.32045596316662" y2="-4.069028153280473"></line><line stroke-width="3.1622776601683795" x1="33.18056368469936" y1="-32.61907488147211" x2="52.67293400334217" y2="-12.337536608439846"></line><line stroke-width="2.23606797749979" x1="33.18056368469936" y1="-32.61907488147211" x2="5.2555154350143205" y2="-54.17189131897759"></line><line stroke-width="3.872983346207417" x1="33.18056368469936" y1="-32.61907488147211" x2="12.055157127589585" y2="39.94580659290132"></line><line stroke-width="4.47213595499958" x1="-8.351323783237952" y1="-23.544056894003756" x2="-5.548517257260893" y2="-47.08369673200616"></line><line stroke-width="3.872983346207417" x1="-8.351323783237952" y1="-23.544056894003756" x2="52.67293400334217" y2="-12.337536608439846"></line><line stroke-width="2.23606797749979" x1="-8.351323783237952" y1="-23.544056894003756" x2="1.5924905665860738" y2="28.28873481736284"></line><line stroke-width="4.47213595499958" x1="-8.351323783237952" y1="-23.544056894003756" x2="5.2555154350143205" y2="-54.17189131897759"></line><line stroke-width="2.23606797749979" x1="-27.607956908725985" y1="45.85169617868657" x2="12.055157127589585" y2="39.94580659290132"></line><line stroke-width="2.23606797749979" x1="55.007001425030694" y1="42.117673401853914" x2="61.32045596316662" y2="-4.069028153280473"></line><line stroke-width="2.8284271247461903" x1="55.007001425030694" y1="42.117673401853914" x2="52.67293400334217" y2="-12.337536608439846"></line><line stroke-width="3.3166247903554" x1="55.007001425030694" y1="42.117673401853914" x2="1.5924905665860738" y2="28.28873481736284"></line><line stroke-width="3.7416573867739413" x1="55.007001425030694" y1="42.117673401853914" x2="12.055157127589585" y2="39.94580659290132"></line><line stroke-width="5.196152422706632" x1="26.384471867395852" y1="-2.2577597847512805" x2="61.32045596316662" y2="-4.069028153280473"></line><line stroke-width="5.196152422706632" x1="26.384471867395852" y1="-2.2577597847512805" x2="52.67293400334217" y2="-12.337536608439846"></line><line stroke-width="5" x1="26.384471867395852" y1="-2.2577597847512805" x2="1.5924905665860738" y2="28.28873481736284"></line><line stroke-width="4.69041575982343" x1="26.384471867395852" y1="-2.2577597847512805" x2="5.2555154350143205" y2="-54.17189131897759"></line><line stroke-width="2.23606797749979" x1="26.384471867395852" y1="-2.2577597847512805" x2="12.055157127589585" y2="39.94580659290132"></line><line stroke-width="3.872983346207417" x1="35.640334080881686" y1="8.593751124976668" x2="-5.548517257260893" y2="-47.08369673200616"></line><line stroke-width="3.1622776601683795" x1="35.640334080881686" y1="8.593751124976668" x2="61.32045596316662" y2="-4.069028153280473"></line><line stroke-width="2.23606797749979" x1="35.640334080881686" y1="8.593751124976668" x2="52.67293400334217" y2="-12.337536608439846"></line><line stroke-width="2.23606797749979" x1="35.640334080881686" y1="8.593751124976668" x2="1.5924905665860738" y2="28.28873481736284"></line><line stroke-width="4.47213595499958" x1="35.640334080881686" y1="8.593751124976668" x2="12.055157127589585" y2="39.94580659290132"></line><line stroke-width="2.23606797749979" x1="-16.195085075589425" y1="-13.411178875448103" x2="-5.548517257260893" y2="-47.08369673200616"></line><line stroke-width="3.4641016151377544" x1="-16.195085075589425" y1="-13.411178875448103" x2="61.32045596316662" y2="-4.069028153280473"></line><line stroke-width="3.4641016151377544" x1="-16.195085075589425" y1="-13.411178875448103" x2="52.67293400334217" y2="-12.337536608439846"></line><line stroke-width="3.872983346207417" x1="-16.195085075589425" y1="-13.411178875448103" x2="1.5924905665860738" y2="28.28873481736284"></line><line stroke-width="4.47213595499958" x1="-16.195085075589425" y1="-13.411178875448103" x2="5.2555154350143205" y2="-54.17189131897759"></line></g><g stroke="#fff" stroke-width="1.5"><path d="M5.046265044040321,0A5.046265044040321,5.046265044040321,0,1,1,-5.046265044040321,0A5.046265044040321,5.046265044040321,0,1,1,5.046265044040321,0" fill="#8c564b" transform="translate(90.51021016889209,-47.183578565597266)"><title>Person 476124</title></path><path d="M5.046265044040321,0A5.046265044040321,5.046265044040321,0,1,1,-5.046265044040321,0A5.046265044040321,5.046265044040321,0,1,1,5.046265044040321,0" fill="#8c564b" transform="translate(-33.83447277886645,-36.6416904305811)"><title>Person 477769</title></path><path d="M5.046265044040321,0A5.046265044040321,5.046265044040321,0,1,1,-5.046265044040321,0A5.046265044040321,5.046265044040321,0,1,1,5.046265044040321,0" fill="#1f77b4" transform="translate(33.73136663309495,20.46617208286402)"><title>Person 479204</title></path><path d="M5.046265044040321,0A5.046265044040321,5.046265044040321,0,1,1,-5.046265044040321,0A5.046265044040321,5.046265044040321,0,1,1,5.046265044040321,0" fill="#8c564b" transform="translate(-95.25454099425879,-49.137498529011694)"><title>Person 480268</title></path><path d="M5.046265044040321,0A5.046265044040321,5.046265044040321,0,1,1,-5.046265044040321,0A5.046265044040321,5.046265044040321,0,1,1,5.046265044040321,0" fill="#8c564b" transform="translate(-8.258065318812067,100.93653533726527)"><title>Person 480375</title></path><path d="M5.046265044040321,0A5.046265044040321,5.046265044040321,0,1,1,-5.046265044040321,0A5.046265044040321,5.046265044040321,0,1,1,5.046265044040321,0" fill="#8c564b" transform="translate(51.5754269690603,-58.35551331914815)"><title>Person 500192</title></path><path d="M5.046265044040321,0A5.046265044040321,5.046265044040321,0,1,1,-5.046265044040321,0A5.046265044040321,5.046265044040321,0,1,1,5.046265044040321,0" fill="#7f7f7f" transform="translate(-25.337941299037272,2.8885231360264516)"><title>Person 510483</title></path><path d="M5.046265044040321,0A5.046265044040321,5.046265044040321,0,1,1,-5.046265044040321,0A5.046265044040321,5.046265044040321,0,1,1,5.046265044040321,0" fill="#9467bd" transform="translate(-11.149776908599799,55.22239968842719)"><title>Person 513182</title></path><path d="M5.046265044040321,0A5.046265044040321,5.046265044040321,0,1,1,-5.046265044040321,0A5.046265044040321,5.046265044040321,0,1,1,5.046265044040321,0" fill="#d62728" transform="translate(-35.86508034238548,74.92013010674518)"><title>Person 463126</title></path><path d="M5.046265044040321,0A5.046265044040321,5.046265044040321,0,1,1,-5.046265044040321,0A5.046265044040321,5.046265044040321,0,1,1,5.046265044040321,0" fill="#8c564b" transform="translate(95.50650486654817,-11.506186817751235)"><title>Person 516694</title></path><path d="M5.046265044040321,0A5.046265044040321,5.046265044040321,0,1,1,-5.046265044040321,0A5.046265044040321,5.046265044040321,0,1,1,5.046265044040321,0" fill="#9467bd" transform="translate(-13.7789553799388,14.07312888735504)"><title>Person 519424</title></path><path d="M5.046265044040321,0A5.046265044040321,5.046265044040321,0,1,1,-5.046265044040321,0A5.046265044040321,5.046265044040321,0,1,1,5.046265044040321,0" fill="#9467bd" transform="translate(6.949376466451187,3.965138701777315)"><title>Person 534034</title></path><path d="M5.046265044040321,0A5.046265044040321,5.046265044040321,0,1,1,-5.046265044040321,0A5.046265044040321,5.046265044040321,0,1,1,5.046265044040321,0" fill="#1f77b4" transform="translate(47.426350149094304,-48.98869361317469)"><title>Person 464459</title></path><path d="M5.046265044040321,0A5.046265044040321,5.046265044040321,0,1,1,-5.046265044040321,0A5.046265044040321,5.046265044040321,0,1,1,5.046265044040321,0" fill="#2ca02c" transform="translate(82.79380103377282,18.246598627133135)"><title>Person 538892</title></path><path d="M5.046265044040321,0A5.046265044040321,5.046265044040321,0,1,1,-5.046265044040321,0A5.046265044040321,5.046265044040321,0,1,1,5.046265044040321,0" fill="#2ca02c" transform="translate(49.77530198359216,-31.877130010795153)"><title>Person 542965</title></path><path d="M5.046265044040321,0A5.046265044040321,5.046265044040321,0,1,1,-5.046265044040321,0A5.046265044040321,5.046265044040321,0,1,1,5.046265044040321,0" fill="#d62728" transform="translate(-10.93395043839743,-1.473656569231183)"><title>Person 546999</title></path><path d="M5.046265044040321,0A5.046265044040321,5.046265044040321,0,1,1,-5.046265044040321,0A5.046265044040321,5.046265044040321,0,1,1,5.046265044040321,0" fill="#9467bd" transform="translate(-87.30708759811314,-14.119672911891842)"><title>Person 551810</title></path><path d="M5.046265044040321,0A5.046265044040321,5.046265044040321,0,1,1,-5.046265044040321,0A5.046265044040321,5.046265044040321,0,1,1,5.046265044040321,0" fill="#d62728" transform="translate(1.7048580721476176,-95.05248431179086)"><title>Person 561312</title></path><path d="M5.046265044040321,0A5.046265044040321,5.046265044040321,0,1,1,-5.046265044040321,0A5.046265044040321,5.046265044040321,0,1,1,5.046265044040321,0" fill="#7f7f7f" transform="translate(5.598651546060934,75.53574840275566)"><title>Person 562598</title></path><path d="M5.046265044040321,0A5.046265044040321,5.046265044040321,0,1,1,-5.046265044040321,0A5.046265044040321,5.046265044040321,0,1,1,5.046265044040321,0" fill="#1f77b4" transform="translate(30.706351129217694,-68.77616286086945)"><title>Person 568093</title></path><path d="M5.046265044040321,0A5.046265044040321,5.046265044040321,0,1,1,-5.046265044040321,0A5.046265044040321,5.046265044040321,0,1,1,5.046265044040321,0" fill="#8c564b" transform="translate(16.982681351682942,-34.30798002110005)"><title>Person 570284</title></path><path d="M5.046265044040321,0A5.046265044040321,5.046265044040321,0,1,1,-5.046265044040321,0A5.046265044040321,5.046265044040321,0,1,1,5.046265044040321,0" fill="#2ca02c" transform="translate(20.36529328154362,10.005423743546602)"><title>Person 572391</title></path><path d="M5.046265044040321,0A5.046265044040321,5.046265044040321,0,1,1,-5.046265044040321,0A5.046265044040321,5.046265044040321,0,1,1,5.046265044040321,0" fill="#8c564b" transform="translate(-95.68530201948228,26.707478720655093)"><title>Person 572500</title></path><path d="M5.046265044040321,0A5.046265044040321,5.046265044040321,0,1,1,-5.046265044040321,0A5.046265044040321,5.046265044040321,0,1,1,5.046265044040321,0" fill="#7f7f7f" transform="translate(-30.416890735651865,-22.043718363249504)"><title>Person 573206</title></path><path d="M5.046265044040321,0A5.046265044040321,5.046265044040321,0,1,1,-5.046265044040321,0A5.046265044040321,5.046265044040321,0,1,1,5.046265044040321,0" fill="#1f77b4" transform="translate(-70.00700744390512,-18.22949502327866)"><title>Person 581406</title></path><path d="M5.046265044040321,0A5.046265044040321,5.046265044040321,0,1,1,-5.046265044040321,0A5.046265044040321,5.046265044040321,0,1,1,5.046265044040321,0" fill="#8c564b" transform="translate(7.27174514605853,-20.085309463647715)"><title>Person 584811</title></path><path d="M5.046265044040321,0A5.046265044040321,5.046265044040321,0,1,1,-5.046265044040321,0A5.046265044040321,5.046265044040321,0,1,1,5.046265044040321,0" fill="#9467bd" transform="translate(10.686817127867338,-7.079054074956254)"><title>Person 585212</title></path><path d="M5.046265044040321,0A5.046265044040321,5.046265044040321,0,1,1,-5.046265044040321,0A5.046265044040321,5.046265044040321,0,1,1,5.046265044040321,0" fill="#8c564b" transform="translate(35.73288621539257,-56.702226130162614)"><title>Person 593266</title></path><path d="M5.046265044040321,0A5.046265044040321,5.046265044040321,0,1,1,-5.046265044040321,0A5.046265044040321,5.046265044040321,0,1,1,5.046265044040321,0" fill="#d62728" transform="translate(-69.8104028440338,20.780413496115653)"><title>Person 594766</title></path><path d="M5.046265044040321,0A5.046265044040321,5.046265044040321,0,1,1,-5.046265044040321,0A5.046265044040321,5.046265044040321,0,1,1,5.046265044040321,0" fill="#9467bd" transform="translate(-50.770179046997434,-59.81513062812152)"><title>Person 595104</title></path><path d="M5.046265044040321,0A5.046265044040321,5.046265044040321,0,1,1,-5.046265044040321,0A5.046265044040321,5.046265044040321,0,1,1,5.046265044040321,0" fill="#8c564b" transform="translate(43.940034684042544,46.187021670097415)"><title>Person 598006</title></path><path d="M5.046265044040321,0A5.046265044040321,5.046265044040321,0,1,1,-5.046265044040321,0A5.046265044040321,5.046265044040321,0,1,1,5.046265044040321,0" fill="#d62728" transform="translate(61.56920795772714,27.484227064611638)"><title>Person 598220</title></path><path d="M5.046265044040321,0A5.046265044040321,5.046265044040321,0,1,1,-5.046265044040321,0A5.046265044040321,5.046265044040321,0,1,1,5.046265044040321,0" fill="#9467bd" transform="translate(35.39341619046142,-15.487942875457012)"><title>Person 599441</title></path><path d="M5.046265044040321,0A5.046265044040321,5.046265044040321,0,1,1,-5.046265044040321,0A5.046265044040321,5.046265044040321,0,1,1,5.046265044040321,0" fill="#d62728" transform="translate(-90.31072097465157,5.308922352687818)"><title>Person 604223</title></path><path d="M5.046265044040321,0A5.046265044040321,5.046265044040321,0,1,1,-5.046265044040321,0A5.046265044040321,5.046265044040321,0,1,1,5.046265044040321,0" fill="#8c564b" transform="translate(47.70600382452197,27.98029930262324)"><title>Person 612711</title></path><path d="M5.046265044040321,0A5.046265044040321,5.046265044040321,0,1,1,-5.046265044040321,0A5.046265044040321,5.046265044040321,0,1,1,5.046265044040321,0" fill="#8c564b" transform="translate(-60.488228781166065,53.7896682981394)"><title>Person 615605</title></path><path d="M5.046265044040321,0A5.046265044040321,5.046265044040321,0,1,1,-5.046265044040321,0A5.046265044040321,5.046265044040321,0,1,1,5.046265044040321,0" fill="#9467bd" transform="translate(23.42144506801707,-19.571674848465413)"><title>Person 629627</title></path><path d="M5.046265044040321,0A5.046265044040321,5.046265044040321,0,1,1,-5.046265044040321,0A5.046265044040321,5.046265044040321,0,1,1,5.046265044040321,0" fill="#d62728" transform="translate(33.18056368469936,-32.61907488147211)"><title>Person 634283</title></path><path d="M5.046265044040321,0A5.046265044040321,5.046265044040321,0,1,1,-5.046265044040321,0A5.046265044040321,5.046265044040321,0,1,1,5.046265044040321,0" fill="#1f77b4" transform="translate(-8.351323783237952,-23.544056894003756)"><title>Person 635665</title></path><path d="M5.046265044040321,0A5.046265044040321,5.046265044040321,0,1,1,-5.046265044040321,0A5.046265044040321,5.046265044040321,0,1,1,5.046265044040321,0" fill="#1f77b4" transform="translate(-27.607956908725985,45.85169617868657)"><title>Person 636990</title></path><path d="M5.046265044040321,0A5.046265044040321,5.046265044040321,0,1,1,-5.046265044040321,0A5.046265044040321,5.046265044040321,0,1,1,5.046265044040321,0" fill="#8c564b" transform="translate(-78.6187316662512,43.029013032840524)"><title>Person 638752</title></path><path d="M5.046265044040321,0A5.046265044040321,5.046265044040321,0,1,1,-5.046265044040321,0A5.046265044040321,5.046265044040321,0,1,1,5.046265044040321,0" fill="#8c564b" transform="translate(55.007001425030694,42.117673401853914)"><title>Person 643411</title></path><path d="M5.046265044040321,0A5.046265044040321,5.046265044040321,0,1,1,-5.046265044040321,0A5.046265044040321,5.046265044040321,0,1,1,5.046265044040321,0" fill="#8c564b" transform="translate(26.384471867395852,-2.2577597847512805)"><title>Person 643925</title></path><path d="M5.046265044040321,0A5.046265044040321,5.046265044040321,0,1,1,-5.046265044040321,0A5.046265044040321,5.046265044040321,0,1,1,5.046265044040321,0" fill="#d62728" transform="translate(35.640334080881686,8.593751124976668)"><title>Person 645393</title></path><path d="M5.046265044040321,0A5.046265044040321,5.046265044040321,0,1,1,-5.046265044040321,0A5.046265044040321,5.046265044040321,0,1,1,5.046265044040321,0" fill="#8c564b" transform="translate(-16.195085075589425,-13.411178875448103)"><title>Person 649553</title></path><path d="M5.046265044040321,0A5.046265044040321,5.046265044040321,0,1,1,-5.046265044040321,0A5.046265044040321,5.046265044040321,0,1,1,5.046265044040321,0" fill="#1f77b4" transform="translate(24.48224842039536,80.54845153911012)"><title>Person 655636</title></path><path d="M0,-8.441862787462423L1.8953162830083747,-2.6086790655073533L8.028688613685706,-2.6086790655073537L3.0666861653386652,0.9964267372834953L4.962002448347041,6.829610459238564L6.661338147750939e-16,3.2245046564477153L-4.9620024483470395,6.829610459238565L-3.0666861653386652,0.9964267372834958L-8.028688613685707,-2.608679065507352L-1.8953162830083754,-2.608679065507353Z" fill="#2ca02c" transform="translate(-5.548517257260893,-47.08369673200616)"><title>Country 499467</title></path><path d="M0,-8.441862787462423L1.8953162830083747,-2.6086790655073533L8.028688613685706,-2.6086790655073537L3.0666861653386652,0.9964267372834953L4.962002448347041,6.829610459238564L6.661338147750939e-16,3.2245046564477153L-4.9620024483470395,6.829610459238565L-3.0666861653386652,0.9964267372834958L-8.028688613685707,-2.608679065507352L-1.8953162830083754,-2.608679065507353Z" fill="#9467bd" transform="translate(61.32045596316662,-4.069028153280473)"><title>Country 509607</title></path><path d="M0,-8.441862787462423L1.8953162830083747,-2.6086790655073533L8.028688613685706,-2.6086790655073537L3.0666861653386652,0.9964267372834953L4.962002448347041,6.829610459238564L6.661338147750939e-16,3.2245046564477153L-4.9620024483470395,6.829610459238565L-3.0666861653386652,0.9964267372834958L-8.028688613685707,-2.608679065507352L-1.8953162830083754,-2.608679065507353Z" fill="#8c564b" transform="translate(1.5924905665860738,28.28873481736284)"><title>Country 616453</title></path><path d="M0,-8.441862787462423L1.8953162830083747,-2.6086790655073533L8.028688613685706,-2.6086790655073537L3.0666861653386652,0.9964267372834953L4.962002448347041,6.829610459238564L6.661338147750939e-16,3.2245046564477153L-4.9620024483470395,6.829610459238565L-3.0666861653386652,0.9964267372834958L-8.028688613685707,-2.608679065507352L-1.8953162830083754,-2.608679065507353Z" fill="#d62728" transform="translate(5.2555154350143205,-54.17189131897759)"><title>Country 625756</title></path><path d="M0,-8.441862787462423L1.8953162830083747,-2.6086790655073533L8.028688613685706,-2.6086790655073537L3.0666861653386652,0.9964267372834953L4.962002448347041,6.829610459238564L6.661338147750939e-16,3.2245046564477153L-4.9620024483470395,6.829610459238565L-3.0666861653386652,0.9964267372834958L-8.028688613685707,-2.608679065507352L-1.8953162830083754,-2.608679065507353Z" fill="#1f77b4" transform="translate(52.67293400334217,-12.337536608439846)"><title>Country 561157</title></path><path d="M0,-8.441862787462423L1.8953162830083747,-2.6086790655073533L8.028688613685706,-2.6086790655073537L3.0666861653386652,0.9964267372834953L4.962002448347041,6.829610459238564L6.661338147750939e-16,3.2245046564477153L-4.9620024483470395,6.829610459238565L-3.0666861653386652,0.9964267372834958L-8.028688613685707,-2.608679065507352L-1.8953162830083754,-2.608679065507353Z" fill="#ff7f0e" transform="translate(12.055157127589585,39.94580659290132)"><title>Country 657173</title></path><path d="M-6,-2L-2,-2L-2,-6L2,-6L2,-2L6,-2L6,2L2,2L2,6L-2,6L-2,2L-6,2Z" fill="#7f7f7f" transform="translate(-16.88591627603597,-75.43240263480453)"><title>Product 482264</title></path><path d="M5.046265044040321,0A5.046265044040321,5.046265044040321,0,1,1,-5.046265044040321,0A5.046265044040321,5.046265044040321,0,1,1,5.046265044040321,0" fill="#8c564b" transform="translate(85.84300020934691,40.510506800276325)"><title>Person 545850</title></path></g></svg>