<svg width="300" height="300" viewBox="-150,-150,300,300"><text x="-150" y="-130" font-family="sans-serif" font-size="12px" text-anchor="start">Q3-no_moon_intra</text><g stroke="#999" stroke-opacity="0.6"><line stroke-width="1.7320508075688772" x1="-30.516043011376603" y1="5.38762657108011" x2="-27.004306275974425" y2="-20.42064279326563"></line><line stroke-width="2.6457513110645907" x1="-30.516043011376603" y1="5.38762657108011" x2="-26.048026309557976" y2="26.650504891648637"></line><line stroke-width="1.7320508075688772" x1="-30.516043011376603" y1="5.38762657108011" x2="-19.98042473138427" y2="43.48710725371237"></line><line stroke-width="1" x1="-30.516043011376603" y1="5.38762657108011" x2="-4.679079664368412" y2="-23.178641198196598"></line><line stroke-width="1.7320508075688772" x1="-30.516043011376603" y1="5.38762657108011" x2="-45.05205036423708" y2="22.771300152714264"></line><line stroke-width="1.4142135623730951" x1="-30.516043011376603" y1="5.38762657108011" x2="5.8325151411273035" y2="43.95996759777155"></line><line stroke-width="1.7320508075688772" x1="-30.516043011376603" y1="5.38762657108011" x2="-1.0643834685929288" y2="-6.371293481030563"></line><line stroke-width="1.4142135623730951" x1="-30.516043011376603" y1="5.38762657108011" x2="-2.5974163305098124" y2="25.708918941246722"></line><line stroke-width="1.4142135623730951" x1="-30.516043011376603" y1="5.38762657108011" x2="11.04606345549328" y2="12.558381144557703"></line><line stroke-width="1" x1="-30.516043011376603" y1="5.38762657108011" x2="-27.004306275974425" y2="-20.42064279326563"></line><line stroke-width="1.4142135623730951" x1="-30.516043011376603" y1="5.38762657108011" x2="-43.52225808576172" y2="-4.215909408620968"></line><line stroke-width="1.4142135623730951" x1="-30.516043011376603" y1="5.38762657108011" x2="-45.05205036423708" y2="22.771300152714264"></line><line stroke-width="1" x1="-30.516043011376603" y1="5.38762657108011" x2="-1.0643834685929288" y2="-6.371293481030563"></line><line stroke-width="1" x1="-30.516043011376603" y1="5.38762657108011" x2="-2.5974163305098124" y2="25.708918941246722"></line><line stroke-width="2.449489742783178" x1="-27.004306275974425" y1="-20.42064279326563" x2="-30.516043011376603" y2="5.38762657108011"></line><line stroke-width="2.23606797749979" x1="-27.004306275974425" y1="-20.42064279326563" x2="-26.048026309557976" y2="26.650504891648637"></line><line stroke-width="4.123105625617661" x1="-27.004306275974425" y1="-20.42064279326563" x2="22.744307310124515" y2="-19.146905690827754"></line><line stroke-width="1" x1="-27.004306275974425" y1="-20.42064279326563" x2="-43.52225808576172" y2="-4.215909408620968"></line><line stroke-width="2.23606797749979" x1="-27.004306275974425" y1="-20.42064279326563" x2="-4.679079664368412" y2="-23.178641198196598"></line><line stroke-width="1" x1="-27.004306275974425" y1="-20.42064279326563" x2="-45.05205036423708" y2="22.771300152714264"></line><line stroke-width="1" x1="-27.004306275974425" y1="-20.42064279326563" x2="-1.0643834685929288" y2="-6.371293481030563"></line><line stroke-width="1.4142135623730951" x1="-27.004306275974425" y1="-20.42064279326563" x2="11.04606345549328" y2="12.558381144557703"></line><line stroke-width="1" x1="-27.004306275974425" y1="-20.42064279326563" x2="-30.516043011376603" y2="5.38762657108011"></line><line stroke-width="1" x1="-27.004306275974425" y1="-20.42064279326563" x2="-26.048026309557976" y2="26.650504891648637"></line><line stroke-width="1.4142135623730951" x1="-27.004306275974425" y1="-20.42064279326563" x2="-19.98042473138427" y2="43.48710725371237"></line><line stroke-width="1.4142135623730951" x1="-27.004306275974425" y1="-20.42064279326563" x2="-15.592882372815065" y2="7.543159186140528"></line><line stroke-width="1.4142135623730951" x1="-27.004306275974425" y1="-20.42064279326563" x2="-43.52225808576172" y2="-4.215909408620968"></line><line stroke-width="1" x1="-27.004306275974425" y1="-20.42064279326563" x2="-1.0643834685929288" y2="-6.371293481030563"></line><line stroke-width="1" x1="-27.004306275974425" y1="-20.42064279326563" x2="11.04606345549328" y2="12.558381144557703"></line><line stroke-width="3.3166247903554" x1="-26.048026309557976" y1="26.650504891648637" x2="-30.516043011376603" y2="5.38762657108011"></line><line stroke-width="1.7320508075688772" x1="-26.048026309557976" y1="26.650504891648637" x2="-27.004306275974425" y2="-20.42064279326563"></line><line stroke-width="2.449489742783178" x1="-26.048026309557976" y1="26.650504891648637" x2="-43.52225808576172" y2="-4.215909408620968"></line><line stroke-width="1.4142135623730951" x1="-26.048026309557976" y1="26.650504891648637" x2="-45.05205036423708" y2="22.771300152714264"></line><line stroke-width="1" x1="-26.048026309557976" y1="26.650504891648637" x2="5.8325151411273035" y2="43.95996759777155"></line><line stroke-width="1" x1="-26.048026309557976" y1="26.650504891648637" x2="-1.0643834685929288" y2="-6.371293481030563"></line><line stroke-width="3" x1="-26.048026309557976" y1="26.650504891648637" x2="11.04606345549328" y2="12.558381144557703"></line><line stroke-width="2.8284271247461903" x1="-26.048026309557976" y1="26.650504891648637" x2="-30.516043011376603" y2="5.38762657108011"></line><line stroke-width="1.4142135623730951" x1="-26.048026309557976" y1="26.650504891648637" x2="-27.004306275974425" y2="-20.42064279326563"></line><line stroke-width="1.4142135623730951" x1="-26.048026309557976" y1="26.650504891648637" x2="-19.98042473138427" y2="43.48710725371237"></line><line stroke-width="1" x1="-26.048026309557976" y1="26.650504891648637" x2="-43.52225808576172" y2="-4.215909408620968"></line><line stroke-width="1" x1="-26.048026309557976" y1="26.650504891648637" x2="-4.679079664368412" y2="-23.178641198196598"></line><line stroke-width="1.4142135623730951" x1="-26.048026309557976" y1="26.650504891648637" x2="-45.05205036423708" y2="22.771300152714264"></line><line stroke-width="2" x1="-26.048026309557976" y1="26.650504891648637" x2="-1.0643834685929288" y2="-6.371293481030563"></line><line stroke-width="1.7320508075688772" x1="-26.048026309557976" y1="26.650504891648637" x2="-2.5974163305098124" y2="25.708918941246722"></line><line stroke-width="2.23606797749979" x1="-26.048026309557976" y1="26.650504891648637" x2="11.04606345549328" y2="12.558381144557703"></line><line stroke-width="3" x1="22.744307310124515" y1="-19.146905690827754" x2="11.411620552501466" y2="-50.40747542778284"></line><line stroke-width="3" x1="22.744307310124515" y1="-19.146905690827754" x2="-27.004306275974425" y2="-20.42064279326563"></line><line stroke-width="3.872983346207417" x1="22.744307310124515" y1="-19.146905690827754" x2="-4.679079664368412" y2="-23.178641198196598"></line><line stroke-width="1" x1="22.744307310124515" y1="-19.146905690827754" x2="38.29112222390212" y2="24.24116668425746"></line><line stroke-width="1" x1="-19.98042473138427" y1="43.48710725371237" x2="5.8325151411273035" y2="43.95996759777155"></line><line stroke-width="2.23606797749979" x1="-19.98042473138427" y1="43.48710725371237" x2="-2.5974163305098124" y2="25.708918941246722"></line><line stroke-width="2" x1="-19.98042473138427" y1="43.48710725371237" x2="11.04606345549328" y2="12.558381144557703"></line><line stroke-width="1.4142135623730951" x1="-19.98042473138427" y1="43.48710725371237" x2="-30.516043011376603" y2="5.38762657108011"></line><line stroke-width="1.4142135623730951" x1="-19.98042473138427" y1="43.48710725371237" x2="-27.004306275974425" y2="-20.42064279326563"></line><line stroke-width="1" x1="-19.98042473138427" y1="43.48710725371237" x2="-15.592882372815065" y2="7.543159186140528"></line><line stroke-width="1" x1="-19.98042473138427" y1="43.48710725371237" x2="-43.52225808576172" y2="-4.215909408620968"></line><line stroke-width="1.4142135623730951" x1="-19.98042473138427" y1="43.48710725371237" x2="-45.05205036423708" y2="22.771300152714264"></line><line stroke-width="2.6457513110645907" x1="-19.98042473138427" y1="43.48710725371237" x2="5.8325151411273035" y2="43.95996759777155"></line><line stroke-width="1.4142135623730951" x1="-19.98042473138427" y1="43.48710725371237" x2="-1.0643834685929288" y2="-6.371293481030563"></line><line stroke-width="2.6457513110645907" x1="-19.98042473138427" y1="43.48710725371237" x2="-2.5974163305098124" y2="25.708918941246722"></line><line stroke-width="2.23606797749979" x1="-19.98042473138427" y1="43.48710725371237" x2="11.04606345549328" y2="12.558381144557703"></line><line stroke-width="1" x1="-15.592882372815065" y1="7.543159186140528" x2="-30.516043011376603" y2="5.38762657108011"></line><line stroke-width="1" x1="-15.592882372815065" y1="7.543159186140528" x2="-26.048026309557976" y2="26.650504891648637"></line><line stroke-width="1.4142135623730951" x1="-15.592882372815065" y1="7.543159186140528" x2="-19.98042473138427" y2="43.48710725371237"></line><line stroke-width="1" x1="-15.592882372815065" y1="7.543159186140528" x2="-43.52225808576172" y2="-4.215909408620968"></line><line stroke-width="1.7320508075688772" x1="-15.592882372815065" y1="7.543159186140528" x2="-45.05205036423708" y2="22.771300152714264"></line><line stroke-width="1.4142135623730951" x1="-15.592882372815065" y1="7.543159186140528" x2="5.8325151411273035" y2="43.95996759777155"></line><line stroke-width="1" x1="-15.592882372815065" y1="7.543159186140528" x2="-2.5974163305098124" y2="25.708918941246722"></line><line stroke-width="1.4142135623730951" x1="-15.592882372815065" y1="7.543159186140528" x2="11.04606345549328" y2="12.558381144557703"></line><line stroke-width="1.7320508075688772" x1="-15.592882372815065" y1="7.543159186140528" x2="-1.0643834685929288" y2="-6.371293481030563"></line><line stroke-width="1.7320508075688772" x1="-15.592882372815065" y1="7.543159186140528" x2="11.04606345549328" y2="12.558381144557703"></line><line stroke-width="1" x1="50.64211579243399" y1="5.678929013660562" x2="22.744307310124515" y2="-19.146905690827754"></line><line stroke-width="1" x1="50.64211579243399" y1="5.678929013660562" x2="39.16844724492626" y2="-12.577275293789622"></line><line stroke-width="1.7320508075688772" x1="50.64211579243399" y1="5.678929013660562" x2="11.04606345549328" y2="12.558381144557703"></line><line stroke-width="1.4142135623730951" x1="50.64211579243399" y1="5.678929013660562" x2="22.744307310124515" y2="-19.146905690827754"></line><line stroke-width="2" x1="50.64211579243399" y1="5.678929013660562" x2="39.16844724492626" y2="-12.577275293789622"></line><line stroke-width="2" x1="50.64211579243399" y1="5.678929013660562" x2="38.29112222390212" y2="24.24116668425746"></line><line stroke-width="1.4142135623730951" x1="50.64211579243399" y1="5.678929013660562" x2="11.04606345549328" y2="12.558381144557703"></line><line stroke-width="1.7320508075688772" x1="-43.52225808576172" y1="-4.215909408620968" x2="-30.516043011376603" y2="5.38762657108011"></line><line stroke-width="2" x1="-43.52225808576172" y1="-4.215909408620968" x2="-27.004306275974425" y2="-20.42064279326563"></line><line stroke-width="1.7320508075688772" x1="-43.52225808576172" y1="-4.215909408620968" x2="-26.048026309557976" y2="26.650504891648637"></line><line stroke-width="1.7320508075688772" x1="-43.52225808576172" y1="-4.215909408620968" x2="-45.05205036423708" y2="22.771300152714264"></line><line stroke-width="1" x1="-43.52225808576172" y1="-4.215909408620968" x2="-1.0643834685929288" y2="-6.371293481030563"></line><line stroke-width="1" x1="-43.52225808576172" y1="-4.215909408620968" x2="11.04606345549328" y2="12.558381144557703"></line><line stroke-width="1.7320508075688772" x1="-4.679079664368412" y1="-23.178641198196598" x2="-27.004306275974425" y2="-20.42064279326563"></line><line stroke-width="4.69041575982343" x1="-4.679079664368412" y1="-23.178641198196598" x2="22.744307310124515" y2="-19.146905690827754"></line><line stroke-width="1" x1="-4.679079664368412" y1="-23.178641198196598" x2="-2.5974163305098124" y2="25.708918941246722"></line><line stroke-width="3" x1="-4.679079664368412" y1="-23.178641198196598" x2="11.411620552501466" y2="-50.40747542778284"></line><line stroke-width="1" x1="-45.05205036423708" y1="22.771300152714264" x2="-30.516043011376603" y2="5.38762657108011"></line><line stroke-width="2" x1="-45.05205036423708" y1="22.771300152714264" x2="-27.004306275974425" y2="-20.42064279326563"></line><line stroke-width="2" x1="-45.05205036423708" y1="22.771300152714264" x2="-26.048026309557976" y2="26.650504891648637"></line><line stroke-width="2" x1="-45.05205036423708" y1="22.771300152714264" x2="-43.52225808576172" y2="-4.215909408620968"></line><line stroke-width="1.7320508075688772" x1="-45.05205036423708" y1="22.771300152714264" x2="11.04606345549328" y2="12.558381144557703"></line><line stroke-width="1" x1="-45.05205036423708" y1="22.771300152714264" x2="-30.516043011376603" y2="5.38762657108011"></line><line stroke-width="1" x1="-45.05205036423708" y1="22.771300152714264" x2="-27.004306275974425" y2="-20.42064279326563"></line><line stroke-width="1" x1="-45.05205036423708" y1="22.771300152714264" x2="-19.98042473138427" y2="43.48710725371237"></line><line stroke-width="2.23606797749979" x1="-45.05205036423708" y1="22.771300152714264" x2="-43.52225808576172" y2="-4.215909408620968"></line><line stroke-width="1" x1="-45.05205036423708" y1="22.771300152714264" x2="-2.5974163305098124" y2="25.708918941246722"></line><line stroke-width="1" x1="-45.05205036423708" y1="22.771300152714264" x2="11.04606345549328" y2="12.558381144557703"></line><line stroke-width="1" x1="5.8325151411273035" y1="43.95996759777155" x2="-30.516043011376603" y2="5.38762657108011"></line><line stroke-width="2" x1="5.8325151411273035" y1="43.95996759777155" x2="-19.98042473138427" y2="43.48710725371237"></line><line stroke-width="2.6457513110645907" x1="5.8325151411273035" y1="43.95996759777155" x2="-2.5974163305098124" y2="25.708918941246722"></line><line stroke-width="1.4142135623730951" x1="5.8325151411273035" y1="43.95996759777155" x2="11.04606345549328" y2="12.558381144557703"></line><line stroke-width="1" x1="5.8325151411273035" y1="43.95996759777155" x2="-30.516043011376603" y2="5.38762657108011"></line><line stroke-width="1.4142135623730951" x1="5.8325151411273035" y1="43.95996759777155" x2="-26.048026309557976" y2="26.650504891648637"></line><line stroke-width="2.6457513110645907" x1="5.8325151411273035" y1="43.95996759777155" x2="-19.98042473138427" y2="43.48710725371237"></line><line stroke-width="1" x1="5.8325151411273035" y1="43.95996759777155" x2="-43.52225808576172" y2="-4.215909408620968"></line><line stroke-width="1" x1="5.8325151411273035" y1="43.95996759777155" x2="-45.05205036423708" y2="22.771300152714264"></line><line stroke-width="1" x1="5.8325151411273035" y1="43.95996759777155" x2="-1.0643834685929288" y2="-6.371293481030563"></line><line stroke-width="2.449489742783178" x1="5.8325151411273035" y1="43.95996759777155" x2="-2.5974163305098124" y2="25.708918941246722"></line><line stroke-width="2" x1="5.8325151411273035" y1="43.95996759777155" x2="11.04606345549328" y2="12.558381144557703"></line><line stroke-width="1" x1="-1.0643834685929288" y1="-6.371293481030563" x2="-30.516043011376603" y2="5.38762657108011"></line><line stroke-width="1" x1="-1.0643834685929288" y1="-6.371293481030563" x2="-27.004306275974425" y2="-20.42064279326563"></line><line stroke-width="3.1622776601683795" x1="-1.0643834685929288" y1="-6.371293481030563" x2="-15.592882372815065" y2="7.543159186140528"></line><line stroke-width="1" x1="-1.0643834685929288" y1="-6.371293481030563" x2="5.8325151411273035" y2="43.95996759777155"></line><line stroke-width="1" x1="-1.0643834685929288" y1="-6.371293481030563" x2="-2.5974163305098124" y2="25.708918941246722"></line><line stroke-width="2.6457513110645907" x1="-1.0643834685929288" y1="-6.371293481030563" x2="11.04606345549328" y2="12.558381144557703"></line><line stroke-width="1" x1="-1.0643834685929288" y1="-6.371293481030563" x2="-30.516043011376603" y2="5.38762657108011"></line><line stroke-width="1" x1="-1.0643834685929288" y1="-6.371293481030563" x2="-27.004306275974425" y2="-20.42064279326563"></line><line stroke-width="1.4142135623730951" x1="-1.0643834685929288" y1="-6.371293481030563" x2="-26.048026309557976" y2="26.650504891648637"></line><line stroke-width="1.4142135623730951" x1="-1.0643834685929288" y1="-6.371293481030563" x2="-43.52225808576172" y2="-4.215909408620968"></line><line stroke-width="1.7320508075688772" x1="-1.0643834685929288" y1="-6.371293481030563" x2="-45.05205036423708" y2="22.771300152714264"></line><line stroke-width="1.7320508075688772" x1="-1.0643834685929288" y1="-6.371293481030563" x2="5.8325151411273035" y2="43.95996759777155"></line><line stroke-width="1" x1="-1.0643834685929288" y1="-6.371293481030563" x2="-2.5974163305098124" y2="25.708918941246722"></line><line stroke-width="1.4142135623730951" x1="-1.0643834685929288" y1="-6.371293481030563" x2="11.04606345549328" y2="12.558381144557703"></line><line stroke-width="1" x1="-2.5974163305098124" y1="25.708918941246722" x2="-30.516043011376603" y2="5.38762657108011"></line><line stroke-width="1" x1="-2.5974163305098124" y1="25.708918941246722" x2="-27.004306275974425" y2="-20.42064279326563"></line><line stroke-width="2" x1="-2.5974163305098124" y1="25.708918941246722" x2="-26.048026309557976" y2="26.650504891648637"></line><line stroke-width="2.23606797749979" x1="-2.5974163305098124" y1="25.708918941246722" x2="-19.98042473138427" y2="43.48710725371237"></line><line stroke-width="2" x1="-2.5974163305098124" y1="25.708918941246722" x2="-43.52225808576172" y2="-4.215909408620968"></line><line stroke-width="1" x1="-2.5974163305098124" y1="25.708918941246722" x2="-45.05205036423708" y2="22.771300152714264"></line><line stroke-width="2.449489742783178" x1="-2.5974163305098124" y1="25.708918941246722" x2="5.8325151411273035" y2="43.95996759777155"></line><line stroke-width="1" x1="-2.5974163305098124" y1="25.708918941246722" x2="-1.0643834685929288" y2="-6.371293481030563"></line><line stroke-width="2.6457513110645907" x1="-2.5974163305098124" y1="25.708918941246722" x2="11.04606345549328" y2="12.558381144557703"></line><line stroke-width="2.23606797749979" x1="-2.5974163305098124" y1="25.708918941246722" x2="-19.98042473138427" y2="43.48710725371237"></line><line stroke-width="1.7320508075688772" x1="-2.5974163305098124" y1="25.708918941246722" x2="5.8325151411273035" y2="43.95996759777155"></line><line stroke-width="1.4142135623730951" x1="-2.5974163305098124" y1="25.708918941246722" x2="11.04606345549328" y2="12.558381144557703"></line><line stroke-width="2.23606797749979" x1="38.29112222390212" y1="24.24116668425746" x2="22.744307310124515" y2="-19.146905690827754"></line><line stroke-width="2" x1="38.29112222390212" y1="24.24116668425746" x2="39.16844724492626" y2="-12.577275293789622"></line><line stroke-width="1.4142135623730951" x1="38.29112222390212" y1="24.24116668425746" x2="50.64211579243399" y2="5.678929013660562"></line><line stroke-width="1" x1="38.29112222390212" y1="24.24116668425746" x2="-2.5974163305098124" y2="25.708918941246722"></line><line stroke-width="1.4142135623730951" x1="38.29112222390212" y1="24.24116668425746" x2="11.04606345549328" y2="12.558381144557703"></line><line stroke-width="1.7320508075688772" x1="38.29112222390212" y1="24.24116668425746" x2="22.744307310124515" y2="-19.146905690827754"></line><line stroke-width="1.7320508075688772" x1="38.29112222390212" y1="24.24116668425746" x2="39.16844724492626" y2="-12.577275293789622"></line><line stroke-width="1.7320508075688772" x1="38.29112222390212" y1="24.24116668425746" x2="50.64211579243399" y2="5.678929013660562"></line><line stroke-width="1.4142135623730951" x1="38.29112222390212" y1="24.24116668425746" x2="11.04606345549328" y2="12.558381144557703"></line><line stroke-width="2" x1="11.04606345549328" y1="12.558381144557703" x2="-26.048026309557976" y2="26.650504891648637"></line><line stroke-width="2.449489742783178" x1="11.04606345549328" y1="12.558381144557703" x2="22.744307310124515" y2="-19.146905690827754"></line><line stroke-width="1.4142135623730951" x1="11.04606345549328" y1="12.558381144557703" x2="-19.98042473138427" y2="43.48710725371237"></line><line stroke-width="1.7320508075688772" x1="11.04606345549328" y1="12.558381144557703" x2="-15.592882372815065" y2="7.543159186140528"></line><line stroke-width="1.7320508075688772" x1="11.04606345549328" y1="12.558381144557703" x2="39.16844724492626" y2="-12.577275293789622"></line><line stroke-width="2.23606797749979" x1="11.04606345549328" y1="12.558381144557703" x2="50.64211579243399" y2="5.678929013660562"></line><line stroke-width="1.4142135623730951" x1="11.04606345549328" y1="12.558381144557703" x2="-43.52225808576172" y2="-4.215909408620968"></line><line stroke-width="1.7320508075688772" x1="11.04606345549328" y1="12.558381144557703" x2="-45.05205036423708" y2="22.771300152714264"></line><line stroke-width="2.23606797749979" x1="11.04606345549328" y1="12.558381144557703" x2="5.8325151411273035" y2="43.95996759777155"></line><line stroke-width="2.23606797749979" x1="11.04606345549328" y1="12.558381144557703" x2="-1.0643834685929288" y2="-6.371293481030563"></line><line stroke-width="1.7320508075688772" x1="11.04606345549328" y1="12.558381144557703" x2="-2.5974163305098124" y2="25.708918941246722"></line><line stroke-width="1" x1="11.04606345549328" y1="12.558381144557703" x2="38.29112222390212" y2="24.24116668425746"></line><line stroke-width="3" x1="11.04606345549328" y1="12.558381144557703" x2="-30.516043011376603" y2="5.38762657108011"></line><line stroke-width="2.449489742783178" x1="11.04606345549328" y1="12.558381144557703" x2="-27.004306275974425" y2="-20.42064279326563"></line><line stroke-width="2.8284271247461903" x1="11.04606345549328" y1="12.558381144557703" x2="-26.048026309557976" y2="26.650504891648637"></line><line stroke-width="1.7320508075688772" x1="11.04606345549328" y1="12.558381144557703" x2="22.744307310124515" y2="-19.146905690827754"></line><line stroke-width="2.23606797749979" x1="11.04606345549328" y1="12.558381144557703" x2="-19.98042473138427" y2="43.48710725371237"></line><line stroke-width="2.6457513110645907" x1="11.04606345549328" y1="12.558381144557703" x2="-15.592882372815065" y2="7.543159186140528"></line><line stroke-width="1.7320508075688772" x1="11.04606345549328" y1="12.558381144557703" x2="39.16844724492626" y2="-12.577275293789622"></line><line stroke-width="2.23606797749979" x1="11.04606345549328" y1="12.558381144557703" x2="50.64211579243399" y2="5.678929013660562"></line><line stroke-width="2.23606797749979" x1="11.04606345549328" y1="12.558381144557703" x2="-43.52225808576172" y2="-4.215909408620968"></line><line stroke-width="1.7320508075688772" x1="11.04606345549328" y1="12.558381144557703" x2="-45.05205036423708" y2="22.771300152714264"></line><line stroke-width="2.449489742783178" x1="11.04606345549328" y1="12.558381144557703" x2="5.8325151411273035" y2="43.95996759777155"></line><line stroke-width="2.6457513110645907" x1="11.04606345549328" y1="12.558381144557703" x2="-1.0643834685929288" y2="-6.371293481030563"></line><line stroke-width="2.449489742783178" x1="11.04606345549328" y1="12.558381144557703" x2="-2.5974163305098124" y2="25.708918941246722"></line><line stroke-width="1.4142135623730951" x1="11.04606345549328" y1="12.558381144557703" x2="38.29112222390212" y2="24.24116668425746"></line></g><g stroke="#fff" stroke-width="1.5"><path d="M5.046265044040321,0A5.046265044040321,5.046265044040321,0,1,1,-5.046265044040321,0A5.046265044040321,5.046265044040321,0,1,1,5.046265044040321,0" fill="#9467bd" transform="translate(-30.516043011376603,5.38762657108011)"><title>Person 519424</title></path><path d="M5.046265044040321,0A5.046265044040321,5.046265044040321,0,1,1,-5.046265044040321,0A5.046265044040321,5.046265044040321,0,1,1,5.046265044040321,0" fill="#d62728" transform="translate(-27.004306275974425,-20.42064279326563)"><title>Person 546999</title></path><path d="M5.046265044040321,0A5.046265044040321,5.046265044040321,0,1,1,-5.046265044040321,0A5.046265044040321,5.046265044040321,0,1,1,5.046265044040321,0" fill="#9467bd" transform="translate(-26.048026309557976,26.650504891648637)"><title>Person 551810</title></path><path d="M5.046265044040321,0A5.046265044040321,5.046265044040321,0,1,1,-5.046265044040321,0A5.046265044040321,5.046265044040321,0,1,1,5.046265044040321,0" fill="#8c564b" transform="translate(22.744307310124515,-19.146905690827754)"><title>Person 570284</title></path><path d="M5.046265044040321,0A5.046265044040321,5.046265044040321,0,1,1,-5.046265044040321,0A5.046265044040321,5.046265044040321,0,1,1,5.046265044040321,0" fill="#8c564b" transform="translate(-19.98042473138427,43.48710725371237)"><title>Person 572500</title></path><path d="M5.046265044040321,0A5.046265044040321,5.046265044040321,0,1,1,-5.046265044040321,0A5.046265044040321,5.046265044040321,0,1,1,5.046265044040321,0" fill="#1f77b4" transform="translate(-15.592882372815065,7.543159186140528)"><title>Person 581406</title></path><path d="M5.046265044040321,0A5.046265044040321,5.046265044040321,0,1,1,-5.046265044040321,0A5.046265044040321,5.046265044040321,0,1,1,5.046265044040321,0" fill="#8c564b" transform="translate(50.64211579243399,5.678929013660562)"><title>Person 593266</title></path><path d="M5.046265044040321,0A5.046265044040321,5.046265044040321,0,1,1,-5.046265044040321,0A5.046265044040321,5.046265044040321,0,1,1,5.046265044040321,0" fill="#d62728" transform="translate(-43.52225808576172,-4.215909408620968)"><title>Person 594766</title></path><path d="M5.046265044040321,0A5.046265044040321,5.046265044040321,0,1,1,-5.046265044040321,0A5.046265044040321,5.046265044040321,0,1,1,5.046265044040321,0" fill="#9467bd" transform="translate(-4.679079664368412,-23.178641198196598)"><title>Person 595104</title></path><path d="M5.046265044040321,0A5.046265044040321,5.046265044040321,0,1,1,-5.046265044040321,0A5.046265044040321,5.046265044040321,0,1,1,5.046265044040321,0" fill="#d62728" transform="translate(-45.05205036423708,22.771300152714264)"><title>Person 604223</title></path><path d="M5.046265044040321,0A5.046265044040321,5.046265044040321,0,1,1,-5.046265044040321,0A5.046265044040321,5.046265044040321,0,1,1,5.046265044040321,0" fill="#8c564b" transform="translate(5.8325151411273035,43.95996759777155)"><title>Person 615605</title></path><path d="M5.046265044040321,0A5.046265044040321,5.046265044040321,0,1,1,-5.046265044040321,0A5.046265044040321,5.046265044040321,0,1,1,5.046265044040321,0" fill="#1f77b4" transform="translate(-1.0643834685929288,-6.371293481030563)"><title>Person 636990</title></path><path d="M5.046265044040321,0A5.046265044040321,5.046265044040321,0,1,1,-5.046265044040321,0A5.046265044040321,5.046265044040321,0,1,1,5.046265044040321,0" fill="#8c564b" transform="translate(-2.5974163305098124,25.708918941246722)"><title>Person 638752</title></path><path d="M5.046265044040321,0A5.046265044040321,5.046265044040321,0,1,1,-5.046265044040321,0A5.046265044040321,5.046265044040321,0,1,1,5.046265044040321,0" fill="#8c564b" transform="translate(38.29112222390212,24.24116668425746)"><title>Person 643925</title></path><path d="M5.046265044040321,0A5.046265044040321,5.046265044040321,0,1,1,-5.046265044040321,0A5.046265044040321,5.046265044040321,0,1,1,5.046265044040321,0" fill="#8c564b" transform="translate(11.04606345549328,12.558381144557703)"><title>Person 649553</title></path><path d="M-6,-2L-2,-2L-2,-6L2,-6L2,-2L6,-2L6,2L2,2L2,6L-2,6L-2,2L-6,2Z" fill="#7f7f7f" transform="translate(11.411620552501466,-50.40747542778284)"><title>Product 482264</title></path><path d="M5.046265044040321,0A5.046265044040321,5.046265044040321,0,1,1,-5.046265044040321,0A5.046265044040321,5.046265044040321,0,1,1,5.046265044040321,0" fill="#8c564b" transform="translate(39.16844724492626,-12.577275293789622)"><title>Person 584811</title></path></g></svg>