<svg width="300" height="300" viewBox="-150,-150,300,300"><text x="-150" y="-130" font-family="sans-serif" font-size="12px" text-anchor="start">Q3-demographics_matched_with_node66</text><g stroke="#999" stroke-opacity="0.6"><line stroke-width="1.7320508075688772" x1="-111.16857921383678" y1="41.46253537638852" x2="-92.54762187634809" y2="54.44161127131354"></line><line stroke-width="2.6457513110645907" x1="-111.16857921383678" y1="41.46253537638852" x2="-68.95576752798684" y2="28.2911351359304"></line><line stroke-width="1.7320508075688772" x1="-111.16857921383678" y1="41.46253537638852" x2="-116.01052884458404" y2="-4.071268607187655"></line><line stroke-width="1" x1="-111.16857921383678" y1="41.46253537638852" x2="-64.51499175635742" y2="57.19032740594174"></line><line stroke-width="1.7320508075688772" x1="-111.16857921383678" y1="41.46253537638852" x2="-119.04630901717248" y2="18.038951078181146"></line><line stroke-width="1.4142135623730951" x1="-111.16857921383678" y1="41.46253537638852" x2="-97.61703284183264" y2="-14.608658795396057"></line><line stroke-width="1.7320508075688772" x1="-111.16857921383678" y1="41.46253537638852" x2="-80.5608119291264" y2="40.33395312979257"></line><line stroke-width="1.4142135623730951" x1="-111.16857921383678" y1="41.46253537638852" x2="-82.2915735080918" y2="14.35513464725797"></line><line stroke-width="1.4142135623730951" x1="-111.16857921383678" y1="41.46253537638852" x2="-74.04262363618501" y2="-4.508562301967776"></line><line stroke-width="1" x1="-111.16857921383678" y1="41.46253537638852" x2="-92.54762187634809" y2="54.44161127131354"></line><line stroke-width="1.4142135623730951" x1="-111.16857921383678" y1="41.46253537638852" x2="-99.68812848316844" y2="8.007503075869664"></line><line stroke-width="1.4142135623730951" x1="-111.16857921383678" y1="41.46253537638852" x2="-119.04630901717248" y2="18.038951078181146"></line><line stroke-width="1" x1="-111.16857921383678" y1="41.46253537638852" x2="-80.5608119291264" y2="40.33395312979257"></line><line stroke-width="1" x1="-111.16857921383678" y1="41.46253537638852" x2="-82.2915735080918" y2="14.35513464725797"></line><line stroke-width="2.449489742783178" x1="-92.54762187634809" y1="54.44161127131354" x2="-111.16857921383678" y2="41.46253537638852"></line><line stroke-width="2.23606797749979" x1="-92.54762187634809" y1="54.44161127131354" x2="-68.95576752798684" y2="28.2911351359304"></line><line stroke-width="4.123105625617661" x1="-92.54762187634809" y1="54.44161127131354" x2="-48.833916177686326" y2="15.44794004494773"></line><line stroke-width="1" x1="-92.54762187634809" y1="54.44161127131354" x2="-99.68812848316844" y2="8.007503075869664"></line><line stroke-width="2.23606797749979" x1="-92.54762187634809" y1="54.44161127131354" x2="-64.51499175635742" y2="57.19032740594174"></line><line stroke-width="1" x1="-92.54762187634809" y1="54.44161127131354" x2="-119.04630901717248" y2="18.038951078181146"></line><line stroke-width="1" x1="-92.54762187634809" y1="54.44161127131354" x2="-80.5608119291264" y2="40.33395312979257"></line><line stroke-width="1.4142135623730951" x1="-92.54762187634809" y1="54.44161127131354" x2="-74.04262363618501" y2="-4.508562301967776"></line><line stroke-width="1" x1="-92.54762187634809" y1="54.44161127131354" x2="-111.16857921383678" y2="41.46253537638852"></line><line stroke-width="1" x1="-92.54762187634809" y1="54.44161127131354" x2="-68.95576752798684" y2="28.2911351359304"></line><line stroke-width="1.4142135623730951" x1="-92.54762187634809" y1="54.44161127131354" x2="-116.01052884458404" y2="-4.071268607187655"></line><line stroke-width="1.4142135623730951" x1="-92.54762187634809" y1="54.44161127131354" x2="-99.89930382317296" y2="25.02943503872143"></line><line stroke-width="1.4142135623730951" x1="-92.54762187634809" y1="54.44161127131354" x2="-99.68812848316844" y2="8.007503075869664"></line><line stroke-width="1" x1="-92.54762187634809" y1="54.44161127131354" x2="-80.5608119291264" y2="40.33395312979257"></line><line stroke-width="1" x1="-92.54762187634809" y1="54.44161127131354" x2="-74.04262363618501" y2="-4.508562301967776"></line><line stroke-width="3.3166247903554" x1="-68.95576752798684" y1="28.2911351359304" x2="-111.16857921383678" y2="41.46253537638852"></line><line stroke-width="1.7320508075688772" x1="-68.95576752798684" y1="28.2911351359304" x2="-92.54762187634809" y2="54.44161127131354"></line><line stroke-width="2.449489742783178" x1="-68.95576752798684" y1="28.2911351359304" x2="-99.68812848316844" y2="8.007503075869664"></line><line stroke-width="1.4142135623730951" x1="-68.95576752798684" y1="28.2911351359304" x2="-119.04630901717248" y2="18.038951078181146"></line><line stroke-width="1" x1="-68.95576752798684" y1="28.2911351359304" x2="-97.61703284183264" y2="-14.608658795396057"></line><line stroke-width="1" x1="-68.95576752798684" y1="28.2911351359304" x2="-80.5608119291264" y2="40.33395312979257"></line><line stroke-width="3" x1="-68.95576752798684" y1="28.2911351359304" x2="-74.04262363618501" y2="-4.508562301967776"></line><line stroke-width="2.8284271247461903" x1="-68.95576752798684" y1="28.2911351359304" x2="-111.16857921383678" y2="41.46253537638852"></line><line stroke-width="1.4142135623730951" x1="-68.95576752798684" y1="28.2911351359304" x2="-92.54762187634809" y2="54.44161127131354"></line><line stroke-width="1.4142135623730951" x1="-68.95576752798684" y1="28.2911351359304" x2="-116.01052884458404" y2="-4.071268607187655"></line><line stroke-width="1" x1="-68.95576752798684" y1="28.2911351359304" x2="-99.68812848316844" y2="8.007503075869664"></line><line stroke-width="1" x1="-68.95576752798684" y1="28.2911351359304" x2="-64.51499175635742" y2="57.19032740594174"></line><line stroke-width="1.4142135623730951" x1="-68.95576752798684" y1="28.2911351359304" x2="-119.04630901717248" y2="18.038951078181146"></line><line stroke-width="2" x1="-68.95576752798684" y1="28.2911351359304" x2="-80.5608119291264" y2="40.33395312979257"></line><line stroke-width="1.7320508075688772" x1="-68.95576752798684" y1="28.2911351359304" x2="-82.2915735080918" y2="14.35513464725797"></line><line stroke-width="2.23606797749979" x1="-68.95576752798684" y1="28.2911351359304" x2="-74.04262363618501" y2="-4.508562301967776"></line><line stroke-width="3" x1="-48.833916177686326" y1="15.44794004494773" x2="-92.54762187634809" y2="54.44161127131354"></line><line stroke-width="2.23606797749979" x1="-48.833916177686326" y1="15.44794004494773" x2="-36.59091242098128" y2="46.50023992208618"></line><line stroke-width="3.872983346207417" x1="-48.833916177686326" y1="15.44794004494773" x2="-64.51499175635742" y2="57.19032740594174"></line><line stroke-width="1" x1="-48.833916177686326" y1="15.44794004494773" x2="-62.849750065587756" y2="-26.992285020561084"></line><line stroke-width="1" x1="-116.01052884458404" y1="-4.071268607187655" x2="-97.61703284183264" y2="-14.608658795396057"></line><line stroke-width="2.23606797749979" x1="-116.01052884458404" y1="-4.071268607187655" x2="-82.2915735080918" y2="14.35513464725797"></line><line stroke-width="2" x1="-116.01052884458404" y1="-4.071268607187655" x2="-74.04262363618501" y2="-4.508562301967776"></line><line stroke-width="1.4142135623730951" x1="-116.01052884458404" y1="-4.071268607187655" x2="-111.16857921383678" y2="41.46253537638852"></line><line stroke-width="1.4142135623730951" x1="-116.01052884458404" y1="-4.071268607187655" x2="-92.54762187634809" y2="54.44161127131354"></line><line stroke-width="1" x1="-116.01052884458404" y1="-4.071268607187655" x2="-99.89930382317296" y2="25.02943503872143"></line><line stroke-width="1" x1="-116.01052884458404" y1="-4.071268607187655" x2="-99.68812848316844" y2="8.007503075869664"></line><line stroke-width="1.4142135623730951" x1="-116.01052884458404" y1="-4.071268607187655" x2="-119.04630901717248" y2="18.038951078181146"></line><line stroke-width="2.6457513110645907" x1="-116.01052884458404" y1="-4.071268607187655" x2="-97.61703284183264" y2="-14.608658795396057"></line><line stroke-width="1.4142135623730951" x1="-116.01052884458404" y1="-4.071268607187655" x2="-80.5608119291264" y2="40.33395312979257"></line><line stroke-width="2.6457513110645907" x1="-116.01052884458404" y1="-4.071268607187655" x2="-82.2915735080918" y2="14.35513464725797"></line><line stroke-width="2.23606797749979" x1="-116.01052884458404" y1="-4.071268607187655" x2="-74.04262363618501" y2="-4.508562301967776"></line><line stroke-width="1" x1="-99.89930382317296" y1="25.02943503872143" x2="-111.16857921383678" y2="41.46253537638852"></line><line stroke-width="1" x1="-99.89930382317296" y1="25.02943503872143" x2="-68.95576752798684" y2="28.2911351359304"></line><line stroke-width="1.4142135623730951" x1="-99.89930382317296" y1="25.02943503872143" x2="-116.01052884458404" y2="-4.071268607187655"></line><line stroke-width="1" x1="-99.89930382317296" y1="25.02943503872143" x2="-99.68812848316844" y2="8.007503075869664"></line><line stroke-width="1.7320508075688772" x1="-99.89930382317296" y1="25.02943503872143" x2="-119.04630901717248" y2="18.038951078181146"></line><line stroke-width="1.4142135623730951" x1="-99.89930382317296" y1="25.02943503872143" x2="-97.61703284183264" y2="-14.608658795396057"></line><line stroke-width="1" x1="-99.89930382317296" y1="25.02943503872143" x2="-82.2915735080918" y2="14.35513464725797"></line><line stroke-width="1.4142135623730951" x1="-99.89930382317296" y1="25.02943503872143" x2="-74.04262363618501" y2="-4.508562301967776"></line><line stroke-width="1.7320508075688772" x1="-99.89930382317296" y1="25.02943503872143" x2="-80.5608119291264" y2="40.33395312979257"></line><line stroke-width="1.7320508075688772" x1="-99.89930382317296" y1="25.02943503872143" x2="-74.04262363618501" y2="-4.508562301967776"></line><line stroke-width="1" x1="-48.03682334451413" y1="-35.03635702748989" x2="-48.833916177686326" y2="15.44794004494773"></line><line stroke-width="1" x1="-48.03682334451413" y1="-35.03635702748989" x2="-81.15062102056677" y2="-46.646498396170216"></line><line stroke-width="1.7320508075688772" x1="-48.03682334451413" y1="-35.03635702748989" x2="-74.04262363618501" y2="-4.508562301967776"></line><line stroke-width="1.4142135623730951" x1="-48.03682334451413" y1="-35.03635702748989" x2="-48.833916177686326" y2="15.44794004494773"></line><line stroke-width="2" x1="-48.03682334451413" y1="-35.03635702748989" x2="-81.15062102056677" y2="-46.646498396170216"></line><line stroke-width="2" x1="-48.03682334451413" y1="-35.03635702748989" x2="-62.849750065587756" y2="-26.992285020561084"></line><line stroke-width="1.4142135623730951" x1="-48.03682334451413" y1="-35.03635702748989" x2="-74.04262363618501" y2="-4.508562301967776"></line><line stroke-width="1.7320508075688772" x1="-99.68812848316844" y1="8.007503075869664" x2="-111.16857921383678" y2="41.46253537638852"></line><line stroke-width="2" x1="-99.68812848316844" y1="8.007503075869664" x2="-92.54762187634809" y2="54.44161127131354"></line><line stroke-width="1.7320508075688772" x1="-99.68812848316844" y1="8.007503075869664" x2="-68.95576752798684" y2="28.2911351359304"></line><line stroke-width="1.7320508075688772" x1="-99.68812848316844" y1="8.007503075869664" x2="-119.04630901717248" y2="18.038951078181146"></line><line stroke-width="1" x1="-99.68812848316844" y1="8.007503075869664" x2="-80.5608119291264" y2="40.33395312979257"></line><line stroke-width="1" x1="-99.68812848316844" y1="8.007503075869664" x2="-74.04262363618501" y2="-4.508562301967776"></line><line stroke-width="1.7320508075688772" x1="-64.51499175635742" y1="57.19032740594174" x2="-92.54762187634809" y2="54.44161127131354"></line><line stroke-width="4.69041575982343" x1="-64.51499175635742" y1="57.19032740594174" x2="-48.833916177686326" y2="15.44794004494773"></line><line stroke-width="1" x1="-64.51499175635742" y1="57.19032740594174" x2="-82.2915735080918" y2="14.35513464725797"></line><line stroke-width="1" x1="-119.04630901717248" y1="18.038951078181146" x2="-111.16857921383678" y2="41.46253537638852"></line><line stroke-width="2" x1="-119.04630901717248" y1="18.038951078181146" x2="-92.54762187634809" y2="54.44161127131354"></line><line stroke-width="2" x1="-119.04630901717248" y1="18.038951078181146" x2="-68.95576752798684" y2="28.2911351359304"></line><line stroke-width="2" x1="-119.04630901717248" y1="18.038951078181146" x2="-99.68812848316844" y2="8.007503075869664"></line><line stroke-width="1.7320508075688772" x1="-119.04630901717248" y1="18.038951078181146" x2="-74.04262363618501" y2="-4.508562301967776"></line><line stroke-width="1" x1="-119.04630901717248" y1="18.038951078181146" x2="-111.16857921383678" y2="41.46253537638852"></line><line stroke-width="1" x1="-119.04630901717248" y1="18.038951078181146" x2="-92.54762187634809" y2="54.44161127131354"></line><line stroke-width="1" x1="-119.04630901717248" y1="18.038951078181146" x2="-116.01052884458404" y2="-4.071268607187655"></line><line stroke-width="2.23606797749979" x1="-119.04630901717248" y1="18.038951078181146" x2="-99.68812848316844" y2="8.007503075869664"></line><line stroke-width="1" x1="-119.04630901717248" y1="18.038951078181146" x2="-82.2915735080918" y2="14.35513464725797"></line><line stroke-width="1" x1="-119.04630901717248" y1="18.038951078181146" x2="-74.04262363618501" y2="-4.508562301967776"></line><line stroke-width="1" x1="-97.61703284183264" y1="-14.608658795396057" x2="-111.16857921383678" y2="41.46253537638852"></line><line stroke-width="2" x1="-97.61703284183264" y1="-14.608658795396057" x2="-116.01052884458404" y2="-4.071268607187655"></line><line stroke-width="2.6457513110645907" x1="-97.61703284183264" y1="-14.608658795396057" x2="-82.2915735080918" y2="14.35513464725797"></line><line stroke-width="1.4142135623730951" x1="-97.61703284183264" y1="-14.608658795396057" x2="-74.04262363618501" y2="-4.508562301967776"></line><line stroke-width="1" x1="-97.61703284183264" y1="-14.608658795396057" x2="-111.16857921383678" y2="41.46253537638852"></line><line stroke-width="1.4142135623730951" x1="-97.61703284183264" y1="-14.608658795396057" x2="-68.95576752798684" y2="28.2911351359304"></line><line stroke-width="2.6457513110645907" x1="-97.61703284183264" y1="-14.608658795396057" x2="-116.01052884458404" y2="-4.071268607187655"></line><line stroke-width="1" x1="-97.61703284183264" y1="-14.608658795396057" x2="-99.68812848316844" y2="8.007503075869664"></line><line stroke-width="1" x1="-97.61703284183264" y1="-14.608658795396057" x2="-119.04630901717248" y2="18.038951078181146"></line><line stroke-width="1" x1="-97.61703284183264" y1="-14.608658795396057" x2="-80.5608119291264" y2="40.33395312979257"></line><line stroke-width="2.449489742783178" x1="-97.61703284183264" y1="-14.608658795396057" x2="-82.2915735080918" y2="14.35513464725797"></line><line stroke-width="2" x1="-97.61703284183264" y1="-14.608658795396057" x2="-74.04262363618501" y2="-4.508562301967776"></line><line stroke-width="1" x1="-80.5608119291264" y1="40.33395312979257" x2="-111.16857921383678" y2="41.46253537638852"></line><line stroke-width="1" x1="-80.5608119291264" y1="40.33395312979257" x2="-92.54762187634809" y2="54.44161127131354"></line><line stroke-width="3.1622776601683795" x1="-80.5608119291264" y1="40.33395312979257" x2="-99.89930382317296" y2="25.02943503872143"></line><line stroke-width="1" x1="-80.5608119291264" y1="40.33395312979257" x2="-97.61703284183264" y2="-14.608658795396057"></line><line stroke-width="1" x1="-80.5608119291264" y1="40.33395312979257" x2="-82.2915735080918" y2="14.35513464725797"></line><line stroke-width="2.6457513110645907" x1="-80.5608119291264" y1="40.33395312979257" x2="-74.04262363618501" y2="-4.508562301967776"></line><line stroke-width="1" x1="-80.5608119291264" y1="40.33395312979257" x2="-111.16857921383678" y2="41.46253537638852"></line><line stroke-width="1" x1="-80.5608119291264" y1="40.33395312979257" x2="-92.54762187634809" y2="54.44161127131354"></line><line stroke-width="1.4142135623730951" x1="-80.5608119291264" y1="40.33395312979257" x2="-68.95576752798684" y2="28.2911351359304"></line><line stroke-width="1.4142135623730951" x1="-80.5608119291264" y1="40.33395312979257" x2="-99.68812848316844" y2="8.007503075869664"></line><line stroke-width="1.7320508075688772" x1="-80.5608119291264" y1="40.33395312979257" x2="-119.04630901717248" y2="18.038951078181146"></line><line stroke-width="1.7320508075688772" x1="-80.5608119291264" y1="40.33395312979257" x2="-97.61703284183264" y2="-14.608658795396057"></line><line stroke-width="1" x1="-80.5608119291264" y1="40.33395312979257" x2="-82.2915735080918" y2="14.35513464725797"></line><line stroke-width="1.4142135623730951" x1="-80.5608119291264" y1="40.33395312979257" x2="-74.04262363618501" y2="-4.508562301967776"></line><line stroke-width="1" x1="-82.2915735080918" y1="14.35513464725797" x2="-111.16857921383678" y2="41.46253537638852"></line><line stroke-width="1" x1="-82.2915735080918" y1="14.35513464725797" x2="-92.54762187634809" y2="54.44161127131354"></line><line stroke-width="2" x1="-82.2915735080918" y1="14.35513464725797" x2="-68.95576752798684" y2="28.2911351359304"></line><line stroke-width="2.23606797749979" x1="-82.2915735080918" y1="14.35513464725797" x2="-116.01052884458404" y2="-4.071268607187655"></line><line stroke-width="2" x1="-82.2915735080918" y1="14.35513464725797" x2="-99.68812848316844" y2="8.007503075869664"></line><line stroke-width="1" x1="-82.2915735080918" y1="14.35513464725797" x2="-119.04630901717248" y2="18.038951078181146"></line><line stroke-width="2.449489742783178" x1="-82.2915735080918" y1="14.35513464725797" x2="-97.61703284183264" y2="-14.608658795396057"></line><line stroke-width="1" x1="-82.2915735080918" y1="14.35513464725797" x2="-80.5608119291264" y2="40.33395312979257"></line><line stroke-width="2.6457513110645907" x1="-82.2915735080918" y1="14.35513464725797" x2="-74.04262363618501" y2="-4.508562301967776"></line><line stroke-width="2.23606797749979" x1="-82.2915735080918" y1="14.35513464725797" x2="-116.01052884458404" y2="-4.071268607187655"></line><line stroke-width="1.7320508075688772" x1="-82.2915735080918" y1="14.35513464725797" x2="-97.61703284183264" y2="-14.608658795396057"></line><line stroke-width="1.4142135623730951" x1="-82.2915735080918" y1="14.35513464725797" x2="-74.04262363618501" y2="-4.508562301967776"></line><line stroke-width="2" x1="-62.849750065587756" y1="-26.992285020561084" x2="-48.833916177686326" y2="15.44794004494773"></line><line stroke-width="2" x1="-62.849750065587756" y1="-26.992285020561084" x2="-81.15062102056677" y2="-46.646498396170216"></line><line stroke-width="1.4142135623730951" x1="-62.849750065587756" y1="-26.992285020561084" x2="-48.03682334451413" y2="-35.03635702748989"></line><line stroke-width="1" x1="-62.849750065587756" y1="-26.992285020561084" x2="-82.2915735080918" y2="14.35513464725797"></line><line stroke-width="1.4142135623730951" x1="-62.849750065587756" y1="-26.992285020561084" x2="-74.04262363618501" y2="-4.508562301967776"></line><line stroke-width="1.7320508075688772" x1="-62.849750065587756" y1="-26.992285020561084" x2="-48.833916177686326" y2="15.44794004494773"></line><line stroke-width="1.7320508075688772" x1="-62.849750065587756" y1="-26.992285020561084" x2="-81.15062102056677" y2="-46.646498396170216"></line><line stroke-width="1.7320508075688772" x1="-62.849750065587756" y1="-26.992285020561084" x2="-48.03682334451413" y2="-35.03635702748989"></line><line stroke-width="1.4142135623730951" x1="-62.849750065587756" y1="-26.992285020561084" x2="-74.04262363618501" y2="-4.508562301967776"></line><line stroke-width="2" x1="-74.04262363618501" y1="-4.508562301967776" x2="-68.95576752798684" y2="28.2911351359304"></line><line stroke-width="2.449489742783178" x1="-74.04262363618501" y1="-4.508562301967776" x2="-48.833916177686326" y2="15.44794004494773"></line><line stroke-width="1.4142135623730951" x1="-74.04262363618501" y1="-4.508562301967776" x2="-116.01052884458404" y2="-4.071268607187655"></line><line stroke-width="1.7320508075688772" x1="-74.04262363618501" y1="-4.508562301967776" x2="-99.89930382317296" y2="25.02943503872143"></line><line stroke-width="1.7320508075688772" x1="-74.04262363618501" y1="-4.508562301967776" x2="-81.15062102056677" y2="-46.646498396170216"></line><line stroke-width="2.23606797749979" x1="-74.04262363618501" y1="-4.508562301967776" x2="-48.03682334451413" y2="-35.03635702748989"></line><line stroke-width="1.4142135623730951" x1="-74.04262363618501" y1="-4.508562301967776" x2="-99.68812848316844" y2="8.007503075869664"></line><line stroke-width="1.7320508075688772" x1="-74.04262363618501" y1="-4.508562301967776" x2="-119.04630901717248" y2="18.038951078181146"></line><line stroke-width="2.23606797749979" x1="-74.04262363618501" y1="-4.508562301967776" x2="-97.61703284183264" y2="-14.608658795396057"></line><line stroke-width="2.23606797749979" x1="-74.04262363618501" y1="-4.508562301967776" x2="-80.5608119291264" y2="40.33395312979257"></line><line stroke-width="1.7320508075688772" x1="-74.04262363618501" y1="-4.508562301967776" x2="-82.2915735080918" y2="14.35513464725797"></line><line stroke-width="1" x1="-74.04262363618501" y1="-4.508562301967776" x2="-62.849750065587756" y2="-26.992285020561084"></line><line stroke-width="3" x1="-74.04262363618501" y1="-4.508562301967776" x2="-111.16857921383678" y2="41.46253537638852"></line><line stroke-width="2.449489742783178" x1="-74.04262363618501" y1="-4.508562301967776" x2="-92.54762187634809" y2="54.44161127131354"></line><line stroke-width="2.8284271247461903" x1="-74.04262363618501" y1="-4.508562301967776" x2="-68.95576752798684" y2="28.2911351359304"></line><line stroke-width="1.7320508075688772" x1="-74.04262363618501" y1="-4.508562301967776" x2="-48.833916177686326" y2="15.44794004494773"></line><line stroke-width="2.23606797749979" x1="-74.04262363618501" y1="-4.508562301967776" x2="-116.01052884458404" y2="-4.071268607187655"></line><line stroke-width="2.6457513110645907" x1="-74.04262363618501" y1="-4.508562301967776" x2="-99.89930382317296" y2="25.02943503872143"></line><line stroke-width="1.7320508075688772" x1="-74.04262363618501" y1="-4.508562301967776" x2="-81.15062102056677" y2="-46.646498396170216"></line><line stroke-width="2.23606797749979" x1="-74.04262363618501" y1="-4.508562301967776" x2="-48.03682334451413" y2="-35.03635702748989"></line><line stroke-width="2.23606797749979" x1="-74.04262363618501" y1="-4.508562301967776" x2="-99.68812848316844" y2="8.007503075869664"></line><line stroke-width="1.7320508075688772" x1="-74.04262363618501" y1="-4.508562301967776" x2="-119.04630901717248" y2="18.038951078181146"></line><line stroke-width="2.449489742783178" x1="-74.04262363618501" y1="-4.508562301967776" x2="-97.61703284183264" y2="-14.608658795396057"></line><line stroke-width="2.6457513110645907" x1="-74.04262363618501" y1="-4.508562301967776" x2="-80.5608119291264" y2="40.33395312979257"></line><line stroke-width="2.449489742783178" x1="-74.04262363618501" y1="-4.508562301967776" x2="-82.2915735080918" y2="14.35513464725797"></line><line stroke-width="1.4142135623730951" x1="-74.04262363618501" y1="-4.508562301967776" x2="-62.849750065587756" y2="-26.992285020561084"></line></g><g stroke="#fff" stroke-width="1.5"><path d="M5.046265044040321,0A5.046265044040321,5.046265044040321,0,1,1,-5.046265044040321,0A5.046265044040321,5.046265044040321,0,1,1,5.046265044040321,0" fill="#9467bd" transform="translate(-111.16857921383678,41.46253537638852)"><title>Person 519424</title></path><path d="M5.046265044040321,0A5.046265044040321,5.046265044040321,0,1,1,-5.046265044040321,0A5.046265044040321,5.046265044040321,0,1,1,5.046265044040321,0" fill="#d62728" transform="translate(-92.54762187634809,54.44161127131354)"><title>Person 546999</title></path><path d="M5.046265044040321,0A5.046265044040321,5.046265044040321,0,1,1,-5.046265044040321,0A5.046265044040321,5.046265044040321,0,1,1,5.046265044040321,0" fill="#9467bd" transform="translate(-68.95576752798684,28.2911351359304)"><title>Person 551810</title></path><path d="M5.046265044040321,0A5.046265044040321,5.046265044040321,0,1,1,-5.046265044040321,0A5.046265044040321,5.046265044040321,0,1,1,5.046265044040321,0" fill="#8c564b" transform="translate(-48.833916177686326,15.44794004494773)"><title>Person 570284</title></path><path d="M5.046265044040321,0A5.046265044040321,5.046265044040321,0,1,1,-5.046265044040321,0A5.046265044040321,5.046265044040321,0,1,1,5.046265044040321,0" fill="#8c564b" transform="translate(-116.01052884458404,-4.071268607187655)"><title>Person 572500</title></path><path d="M5.046265044040321,0A5.046265044040321,5.046265044040321,0,1,1,-5.046265044040321,0A5.046265044040321,5.046265044040321,0,1,1,5.046265044040321,0" fill="#1f77b4" transform="translate(-99.89930382317296,25.02943503872143)"><title>Person 581406</title></path><path d="M5.046265044040321,0A5.046265044040321,5.046265044040321,0,1,1,-5.046265044040321,0A5.046265044040321,5.046265044040321,0,1,1,5.046265044040321,0" fill="#8c564b" transform="translate(-48.03682334451413,-35.03635702748989)"><title>Person 593266</title></path><path d="M5.046265044040321,0A5.046265044040321,5.046265044040321,0,1,1,-5.046265044040321,0A5.046265044040321,5.046265044040321,0,1,1,5.046265044040321,0" fill="#d62728" transform="translate(-99.68812848316844,8.007503075869664)"><title>Person 594766</title></path><path d="M5.046265044040321,0A5.046265044040321,5.046265044040321,0,1,1,-5.046265044040321,0A5.046265044040321,5.046265044040321,0,1,1,5.046265044040321,0" fill="#9467bd" transform="translate(-64.51499175635742,57.19032740594174)"><title>Person 595104</title></path><path d="M5.046265044040321,0A5.046265044040321,5.046265044040321,0,1,1,-5.046265044040321,0A5.046265044040321,5.046265044040321,0,1,1,5.046265044040321,0" fill="#d62728" transform="translate(-119.04630901717248,18.038951078181146)"><title>Person 604223</title></path><path d="M5.046265044040321,0A5.046265044040321,5.046265044040321,0,1,1,-5.046265044040321,0A5.046265044040321,5.046265044040321,0,1,1,5.046265044040321,0" fill="#8c564b" transform="translate(-97.61703284183264,-14.608658795396057)"><title>Person 615605</title></path><path d="M5.046265044040321,0A5.046265044040321,5.046265044040321,0,1,1,-5.046265044040321,0A5.046265044040321,5.046265044040321,0,1,1,5.046265044040321,0" fill="#1f77b4" transform="translate(-80.5608119291264,40.33395312979257)"><title>Person 636990</title></path><path d="M5.046265044040321,0A5.046265044040321,5.046265044040321,0,1,1,-5.046265044040321,0A5.046265044040321,5.046265044040321,0,1,1,5.046265044040321,0" fill="#8c564b" transform="translate(-82.2915735080918,14.35513464725797)"><title>Person 638752</title></path><path d="M5.046265044040321,0A5.046265044040321,5.046265044040321,0,1,1,-5.046265044040321,0A5.046265044040321,5.046265044040321,0,1,1,5.046265044040321,0" fill="#8c564b" transform="translate(-62.849750065587756,-26.992285020561084)"><title>Person 643925</title></path><path d="M5.046265044040321,0A5.046265044040321,5.046265044040321,0,1,1,-5.046265044040321,0A5.046265044040321,5.046265044040321,0,1,1,5.046265044040321,0" fill="#8c564b" transform="translate(-74.04262363618501,-4.508562301967776)"><title>Person 649553</title></path><path d="M5.046265044040321,0A5.046265044040321,5.046265044040321,0,1,1,-5.046265044040321,0A5.046265044040321,5.046265044040321,0,1,1,5.046265044040321,0" fill="#7f7f7f" transform="translate(66.70623224251368,-69.74389131142307)"><title>Person 476124</title></path><path d="M5.046265044040321,0A5.046265044040321,5.046265044040321,0,1,1,-5.046265044040321,0A5.046265044040321,5.046265044040321,0,1,1,5.046265044040321,0" fill="#7f7f7f" transform="translate(101.86445934479015,66.14816851032478)"><title>Person 477769</title></path><path d="M5.046265044040321,0A5.046265044040321,5.046265044040321,0,1,1,-5.046265044040321,0A5.046265044040321,5.046265044040321,0,1,1,5.046265044040321,0" fill="#7f7f7f" transform="translate(-56.89258843741515,-106.71455079835009)"><title>Person 479204</title></path><path d="M5.046265044040321,0A5.046265044040321,5.046265044040321,0,1,1,-5.046265044040321,0A5.046265044040321,5.046265044040321,0,1,1,5.046265044040321,0" fill="#7f7f7f" transform="translate(110.43292454793433,-51.24670274340408)"><title>Person 480268</title></path><path d="M5.046265044040321,0A5.046265044040321,5.046265044040321,0,1,1,-5.046265044040321,0A5.046265044040321,5.046265044040321,0,1,1,5.046265044040321,0" fill="#7f7f7f" transform="translate(44.52982963490455,82.8101546965484)"><title>Person 480375</title></path><path d="M5.046265044040321,0A5.046265044040321,5.046265044040321,0,1,1,-5.046265044040321,0A5.046265044040321,5.046265044040321,0,1,1,5.046265044040321,0" fill="#7f7f7f" transform="translate(32.71785459002468,-106.03405219133137)"><title>Person 492937</title></path><path d="M5.046265044040321,0A5.046265044040321,5.046265044040321,0,1,1,-5.046265044040321,0A5.046265044040321,5.046265044040321,0,1,1,5.046265044040321,0" fill="#7f7f7f" transform="translate(118.50618260341629,26.555509733288336)"><title>Person 500192</title></path><path d="M5.046265044040321,0A5.046265044040321,5.046265044040321,0,1,1,-5.046265044040321,0A5.046265044040321,5.046265044040321,0,1,1,5.046265044040321,0" fill="#7f7f7f" transform="translate(-10.007219599541578,116.81540100309866)"><title>Person 510483</title></path><path d="M5.046265044040321,0A5.046265044040321,5.046265044040321,0,1,1,-5.046265044040321,0A5.046265044040321,5.046265044040321,0,1,1,5.046265044040321,0" fill="#7f7f7f" transform="translate(88.97944608929117,-37.33339172291933)"><title>Person 513182</title></path><path d="M5.046265044040321,0A5.046265044040321,5.046265044040321,0,1,1,-5.046265044040321,0A5.046265044040321,5.046265044040321,0,1,1,5.046265044040321,0" fill="#7f7f7f" transform="translate(73.24515654373873,66.5651103970662)"><title>Person 463126</title></path><path d="M5.046265044040321,0A5.046265044040321,5.046265044040321,0,1,1,-5.046265044040321,0A5.046265044040321,5.046265044040321,0,1,1,5.046265044040321,0" fill="#7f7f7f" transform="translate(-23.588138082351676,-116.36800744078131)"><title>Person 516694</title></path><path d="M5.046265044040321,0A5.046265044040321,5.046265044040321,0,1,1,-5.046265044040321,0A5.046265044040321,5.046265044040321,0,1,1,5.046265044040321,0" fill="#7f7f7f" transform="translate(117.53669166480219,-15.809353748174875)"><title>Person 545850</title></path><path d="M5.046265044040321,0A5.046265044040321,5.046265044040321,0,1,1,-5.046265044040321,0A5.046265044040321,5.046265044040321,0,1,1,5.046265044040321,0" fill="#7f7f7f" transform="translate(33.82763955301221,114.7231667418536)"><title>Person 558277</title></path><path d="M5.046265044040321,0A5.046265044040321,5.046265044040321,0,1,1,-5.046265044040321,0A5.046265044040321,5.046265044040321,0,1,1,5.046265044040321,0" fill="#7f7f7f" transform="translate(59.60343995102522,-102.67930387210183)"><title>Person 561312</title></path><path d="M5.046265044040321,0A5.046265044040321,5.046265044040321,0,1,1,-5.046265044040321,0A5.046265044040321,5.046265044040321,0,1,1,5.046265044040321,0" fill="#7f7f7f" transform="translate(90.23392859194563,38.268243677023754)"><title>Person 562598</title></path><path d="M5.046265044040321,0A5.046265044040321,5.046265044040321,0,1,1,-5.046265044040321,0A5.046265044040321,5.046265044040321,0,1,1,5.046265044040321,0" fill="#7f7f7f" transform="translate(-39.67817476469827,108.42323366230589)"><title>Person 573206</title></path><path d="M5.046265044040321,0A5.046265044040321,5.046265044040321,0,1,1,-5.046265044040321,0A5.046265044040321,5.046265044040321,0,1,1,5.046265044040321,0" fill="#8c564b" transform="translate(-81.15062102056677,-46.646498396170216)"><title>Person 584811</title></path><path d="M5.046265044040321,0A5.046265044040321,5.046265044040321,0,1,1,-5.046265044040321,0A5.046265044040321,5.046265044040321,0,1,1,5.046265044040321,0" fill="#7f7f7f" transform="translate(67.771199671486,98.17485743922548)"><title>Person 598220</title></path><path d="M5.046265044040321,0A5.046265044040321,5.046265044040321,0,1,1,-5.046265044040321,0A5.046265044040321,5.046265044040321,0,1,1,5.046265044040321,0" fill="#7f7f7f" transform="translate(7.463923783084747,-117.81573288938165)"><title>Person 617074</title></path><path d="M5.046265044040321,0A5.046265044040321,5.046265044040321,0,1,1,-5.046265044040321,0A5.046265044040321,5.046265044040321,0,1,1,5.046265044040321,0" fill="#7f7f7f" transform="translate(97.83841828494283,4.382631092142398)"><title>Person 634283</title></path><path d="M5.046265044040321,0A5.046265044040321,5.046265044040321,0,1,1,-5.046265044040321,0A5.046265044040321,5.046265044040321,0,1,1,5.046265044040321,0" fill="#7f7f7f" transform="translate(10.553171951249292,96.71437809644219)"><title>Person 645393</title></path><path d="M5.046265044040321,0A5.046265044040321,5.046265044040321,0,1,1,-5.046265044040321,0A5.046265044040321,5.046265044040321,0,1,1,5.046265044040321,0" fill="#7f7f7f" transform="translate(88.9544451934325,-84.2107522568367)"><title>Person 655636</title></path><path d="M5.046265044040321,0A5.046265044040321,5.046265044040321,0,1,1,-5.046265044040321,0A5.046265044040321,5.046265044040321,0,1,1,5.046265044040321,0" fill="#7f7f7f" transform="translate(11.423220909591027,-33.30411023186796)"><title>Person 534034</title></path><path d="M5.046265044040321,0A5.046265044040321,5.046265044040321,0,1,1,-5.046265044040321,0A5.046265044040321,5.046265044040321,0,1,1,5.046265044040321,0" fill="#7f7f7f" transform="translate(20.812837373738603,-44.880075797799215)"><title>Person 629627</title></path><path d="M5.046265044040321,0A5.046265044040321,5.046265044040321,0,1,1,-5.046265044040321,0A5.046265044040321,5.046265044040321,0,1,1,5.046265044040321,0" fill="#7f7f7f" transform="translate(-6.809252001832621,38.28540675552158)"><title>Person 464459</title></path><path d="M5.046265044040321,0A5.046265044040321,5.046265044040321,0,1,1,-5.046265044040321,0A5.046265044040321,5.046265044040321,0,1,1,5.046265044040321,0" fill="#7f7f7f" transform="translate(-36.447678573963906,-69.68073264331723)"><title>Person 538892</title></path><path d="M5.046265044040321,0A5.046265044040321,5.046265044040321,0,1,1,-5.046265044040321,0A5.046265044040321,5.046265044040321,0,1,1,5.046265044040321,0" fill="#7f7f7f" transform="translate(0.7936976755909926,-67.48515214570884)"><title>Person 542965</title></path><path d="M5.046265044040321,0A5.046265044040321,5.046265044040321,0,1,1,-5.046265044040321,0A5.046265044040321,5.046265044040321,0,1,1,5.046265044040321,0" fill="#7f7f7f" transform="translate(17.195277490742512,32.520978843706665)"><title>Person 568093</title></path><path d="M5.046265044040321,0A5.046265044040321,5.046265044040321,0,1,1,-5.046265044040321,0A5.046265044040321,5.046265044040321,0,1,1,5.046265044040321,0" fill="#7f7f7f" transform="translate(-17.093814731564134,-73.83802159048696)"><title>Person 572391</title></path><path d="M5.046265044040321,0A5.046265044040321,5.046265044040321,0,1,1,-5.046265044040321,0A5.046265044040321,5.046265044040321,0,1,1,5.046265044040321,0" fill="#7f7f7f" transform="translate(23.005140382294698,-22.40573812317453)"><title>Person 585212</title></path><path d="M5.046265044040321,0A5.046265044040321,5.046265044040321,0,1,1,-5.046265044040321,0A5.046265044040321,5.046265044040321,0,1,1,5.046265044040321,0" fill="#7f7f7f" transform="translate(38.57696746816239,23.37867567050154)"><title>Person 598006</title></path><path d="M5.046265044040321,0A5.046265044040321,5.046265044040321,0,1,1,-5.046265044040321,0A5.046265044040321,5.046265044040321,0,1,1,5.046265044040321,0" fill="#7f7f7f" transform="translate(30.98611181732275,-34.44990960015423)"><title>Person 599441</title></path><path d="M5.046265044040321,0A5.046265044040321,5.046265044040321,0,1,1,-5.046265044040321,0A5.046265044040321,5.046265044040321,0,1,1,5.046265044040321,0" fill="#7f7f7f" transform="translate(34.94288213112299,12.39863416842285)"><title>Person 612711</title></path><path d="M5.046265044040321,0A5.046265044040321,5.046265044040321,0,1,1,-5.046265044040321,0A5.046265044040321,5.046265044040321,0,1,1,5.046265044040321,0" fill="#7f7f7f" transform="translate(6.604111235955815,38.9786204816064)"><title>Person 635665</title></path><path d="M5.046265044040321,0A5.046265044040321,5.046265044040321,0,1,1,-5.046265044040321,0A5.046265044040321,5.046265044040321,0,1,1,5.046265044040321,0" fill="#7f7f7f" transform="translate(29.734313575154484,0.7072010815486085)"><title>Person 643411</title></path><path d="M-6,-2L-2,-2L-2,-6L2,-6L2,-2L6,-2L6,2L2,2L2,6L-2,6L-2,2L-6,2Z" fill="#7f7f7f" transform="translate(-33.241533538147394,66.8544754071934)"><title>Product 482264</title></path><path d="M0,-8.441862787462423L1.8953162830083747,-2.6086790655073533L8.028688613685706,-2.6086790655073537L3.0666861653386652,0.9964267372834953L4.962002448347041,6.829610459238564L6.661338147750939e-16,3.2245046564477153L-4.9620024483470395,6.829610459238565L-3.0666861653386652,0.9964267372834958L-8.028688613685707,-2.608679065507352L-1.8953162830083754,-2.608679065507353Z" fill="#d62728" transform="translate(-12.847936560879013,-6.205676498225123)"><title>Country 625756</title></path><path d="M0,-8.441862787462423L1.8953162830083747,-2.6086790655073533L8.028688613685706,-2.6086790655073537L3.0666861653386652,0.9964267372834953L4.962002448347041,6.829610459238564L6.661338147750939e-16,3.2245046564477153L-4.9620024483470395,6.829610459238565L-3.0666861653386652,0.9964267372834958L-8.028688613685707,-2.608679065507352L-1.8953162830083754,-2.608679065507353Z" fill="#ff7f0e" transform="translate(58.01353735332005,-15.82227845849305)"><title>Country 657173</title></path><path d="M0,-8.441862787462423L1.8953162830083747,-2.6086790655073533L8.028688613685706,-2.6086790655073537L3.0666861653386652,0.9964267372834953L4.962002448347041,6.829610459238564L6.661338147750939e-16,3.2245046564477153L-4.9620024483470395,6.829610459238565L-3.0666861653386652,0.9964267372834958L-8.028688613685707,-2.608679065507352L-1.8953162830083754,-2.608679065507353Z" fill="#2ca02c" transform="translate(12.969766760439047,1.679966841522745)"><title>Country 499467</title></path><path d="M0,-8.441862787462423L1.8953162830083747,-2.6086790655073533L8.028688613685706,-2.6086790655073537L3.0666861653386652,0.9964267372834953L4.962002448347041,6.829610459238564L6.661338147750939e-16,3.2245046564477153L-4.9620024483470395,6.829610459238565L-3.0666861653386652,0.9964267372834958L-8.028688613685707,-2.608679065507352L-1.8953162830083754,-2.608679065507353Z" fill="#9467bd" transform="translate(-20.510990559906254,-39.59988151399137)"><title>Country 509607</title></path><path d="M0,-8.441862787462423L1.8953162830083747,-2.6086790655073533L8.028688613685706,-2.6086790655073537L3.0666861653386652,0.9964267372834953L4.962002448347041,6.829610459238564L6.661338147750939e-16,3.2245046564477153L-4.9620024483470395,6.829610459238565L-3.0666861653386652,0.9964267372834958L-8.028688613685707,-2.608679065507352L-1.8953162830083754,-2.608679065507353Z" fill="#1f77b4" transform="translate(-13.531587004997997,13.333778400674927)"><title>Country 561157</title></path><path d="M0,-8.441862787462423L1.8953162830083747,-2.6086790655073533L8.028688613685706,-2.6086790655073537L3.0666861653386652,0.9964267372834953L4.962002448347041,6.829610459238564L6.661338147750939e-16,3.2245046564477153L-4.9620024483470395,6.829610459238565L-3.0666861653386652,0.9964267372834958L-8.028688613685707,-2.608679065507352L-1.8953162830083754,-2.608679065507353Z" fill="#8c564b" transform="translate(-39.77301656267542,-12.711546341178794)"><title>Country 616453</title></path><path d="M-4.47213595499958,-4.47213595499958h8.94427190999916v8.94427190999916h-8.94427190999916Z" fill="#7f7f7f" transform="translate(-82.94615329728495,-79.045982971856)"><title>Document 593870</title></path><path d="M5.046265044040321,0A5.046265044040321,5.046265044040321,0,1,1,-5.046265044040321,0A5.046265044040321,5.046265044040321,0,1,1,5.046265044040321,0" fill="#7f7f7f" transform="translate(-36.59091242098128,46.50023992208618)"><title>Person 570847</title></path></g></svg>