<svg width="300" height="300" viewBox="-150,-150,300,300"><text x="-150" y="-130" font-family="sans-serif" font-size="12px" text-anchor="start">Q3-demographics_matched_with_node66</text><g stroke="#999" stroke-opacity="0.6"><line stroke-width="1" x1="23.460429129906935" y1="35.41348264048559" x2="42.263601376914345" y2="-2.199459810271504"></line><line stroke-width="1" x1="23.460429129906935" y1="35.41348264048559" x2="25.47267152978485" y2="11.526276908300831"></line><line stroke-width="1" x1="23.460429129906935" y1="35.41348264048559" x2="10.460097192438946" y2="-1.2400285049099078"></line><line stroke-width="1.7320508075688772" x1="-91.03052341090432" y1="34.140722736092" x2="-78.02360113375431" y2="48.30645575736442"></line><line stroke-width="2.6457513110645907" x1="-91.03052341090432" y1="34.140722736092" x2="-73.05113385440734" y2="-4.729683862106473"></line><line stroke-width="1.7320508075688772" x1="-91.03052341090432" y1="34.140722736092" x2="-102.71195889778687" y2="-2.2931702610590743"></line><line stroke-width="1" x1="-91.03052341090432" y1="34.140722736092" x2="-53.44670584843224" y2="49.31367577323219"></line><line stroke-width="1.7320508075688772" x1="-91.03052341090432" y1="34.140722736092" x2="-105.8160396646366" y2="19.671496713220336"></line><line stroke-width="1.4142135623730951" x1="-91.03052341090432" y1="34.140722736092" x2="-69.76633461105075" y2="-21.69766247406343"></line><line stroke-width="1.7320508075688772" x1="-91.03052341090432" y1="34.140722736092" x2="-64.85744310862529" y2="29.802366108513315"></line><line stroke-width="1.4142135623730951" x1="-91.03052341090432" y1="34.140722736092" x2="-85.27194377678242" y2="14.815579927907942"></line><line stroke-width="1.4142135623730951" x1="-91.03052341090432" y1="34.140722736092" x2="-48.736927316012" y2="10.79966571765212"></line><line stroke-width="1" x1="-91.03052341090432" y1="34.140722736092" x2="-78.02360113375431" y2="48.30645575736442"></line><line stroke-width="1.4142135623730951" x1="-91.03052341090432" y1="34.140722736092" x2="-90.929496752985" y2="-10.268892735876843"></line><line stroke-width="1.4142135623730951" x1="-91.03052341090432" y1="34.140722736092" x2="-105.8160396646366" y2="19.671496713220336"></line><line stroke-width="1" x1="-91.03052341090432" y1="34.140722736092" x2="-64.85744310862529" y2="29.802366108513315"></line><line stroke-width="1" x1="-91.03052341090432" y1="34.140722736092" x2="-85.27194377678242" y2="14.815579927907942"></line><line stroke-width="1" x1="34.324579379072" y1="-28.38175374033486" x2="42.263601376914345" y2="-2.199459810271504"></line><line stroke-width="1" x1="34.324579379072" y1="-28.38175374033486" x2="-9.64720045890643" y2="-20.42101326153736"></line><line stroke-width="1" x1="34.324579379072" y1="-28.38175374033486" x2="10.460097192438946" y2="-1.2400285049099078"></line><line stroke-width="1" x1="34.324579379072" y1="-28.38175374033486" x2="62.63619198616237" y2="-47.25734027697187"></line><line stroke-width="1" x1="-35.62053040333676" y1="-42.76647745716965" x2="-9.64720045890643" y2="-20.42101326153736"></line><line stroke-width="1" x1="-7.2390511246771" y1="-54.80208863610312" x2="-9.64720045890643" y2="-20.42101326153736"></line><line stroke-width="2.449489742783178" x1="-78.02360113375431" y1="48.30645575736442" x2="-91.03052341090432" y2="34.140722736092"></line><line stroke-width="2.23606797749979" x1="-78.02360113375431" y1="48.30645575736442" x2="-73.05113385440734" y2="-4.729683862106473"></line><line stroke-width="4.123105625617661" x1="-78.02360113375431" y1="48.30645575736442" x2="-11.360226174477534" y2="48.178459946690964"></line><line stroke-width="1" x1="-78.02360113375431" y1="48.30645575736442" x2="-90.929496752985" y2="-10.268892735876843"></line><line stroke-width="2.23606797749979" x1="-78.02360113375431" y1="48.30645575736442" x2="-53.44670584843224" y2="49.31367577323219"></line><line stroke-width="1" x1="-78.02360113375431" y1="48.30645575736442" x2="-105.8160396646366" y2="19.671496713220336"></line><line stroke-width="1" x1="-78.02360113375431" y1="48.30645575736442" x2="-64.85744310862529" y2="29.802366108513315"></line><line stroke-width="1.4142135623730951" x1="-78.02360113375431" y1="48.30645575736442" x2="-48.736927316012" y2="10.79966571765212"></line><line stroke-width="1" x1="-78.02360113375431" y1="48.30645575736442" x2="-91.03052341090432" y2="34.140722736092"></line><line stroke-width="1" x1="-78.02360113375431" y1="48.30645575736442" x2="-73.05113385440734" y2="-4.729683862106473"></line><line stroke-width="1.4142135623730951" x1="-78.02360113375431" y1="48.30645575736442" x2="-102.71195889778687" y2="-2.2931702610590743"></line><line stroke-width="1.4142135623730951" x1="-78.02360113375431" y1="48.30645575736442" x2="-70.5254475616791" y2="7.5000390599503595"></line><line stroke-width="1.4142135623730951" x1="-78.02360113375431" y1="48.30645575736442" x2="-90.929496752985" y2="-10.268892735876843"></line><line stroke-width="1" x1="-78.02360113375431" y1="48.30645575736442" x2="-64.85744310862529" y2="29.802366108513315"></line><line stroke-width="1" x1="-78.02360113375431" y1="48.30645575736442" x2="-48.736927316012" y2="10.79966571765212"></line><line stroke-width="3.3166247903554" x1="-73.05113385440734" y1="-4.729683862106473" x2="-91.03052341090432" y2="34.140722736092"></line><line stroke-width="1.7320508075688772" x1="-73.05113385440734" y1="-4.729683862106473" x2="-78.02360113375431" y2="48.30645575736442"></line><line stroke-width="2.449489742783178" x1="-73.05113385440734" y1="-4.729683862106473" x2="-90.929496752985" y2="-10.268892735876843"></line><line stroke-width="1.4142135623730951" x1="-73.05113385440734" y1="-4.729683862106473" x2="-105.8160396646366" y2="19.671496713220336"></line><line stroke-width="1" x1="-73.05113385440734" y1="-4.729683862106473" x2="-69.76633461105075" y2="-21.69766247406343"></line><line stroke-width="1" x1="-73.05113385440734" y1="-4.729683862106473" x2="-64.85744310862529" y2="29.802366108513315"></line><line stroke-width="3" x1="-73.05113385440734" y1="-4.729683862106473" x2="-48.736927316012" y2="10.79966571765212"></line><line stroke-width="2.8284271247461903" x1="-73.05113385440734" y1="-4.729683862106473" x2="-91.03052341090432" y2="34.140722736092"></line><line stroke-width="1.4142135623730951" x1="-73.05113385440734" y1="-4.729683862106473" x2="-78.02360113375431" y2="48.30645575736442"></line><line stroke-width="1.4142135623730951" x1="-73.05113385440734" y1="-4.729683862106473" x2="-102.71195889778687" y2="-2.2931702610590743"></line><line stroke-width="1" x1="-73.05113385440734" y1="-4.729683862106473" x2="-90.929496752985" y2="-10.268892735876843"></line><line stroke-width="1" x1="-73.05113385440734" y1="-4.729683862106473" x2="-53.44670584843224" y2="49.31367577323219"></line><line stroke-width="1.4142135623730951" x1="-73.05113385440734" y1="-4.729683862106473" x2="-105.8160396646366" y2="19.671496713220336"></line><line stroke-width="2" x1="-73.05113385440734" y1="-4.729683862106473" x2="-64.85744310862529" y2="29.802366108513315"></line><line stroke-width="1.7320508075688772" x1="-73.05113385440734" y1="-4.729683862106473" x2="-85.27194377678242" y2="14.815579927907942"></line><line stroke-width="2.23606797749979" x1="-73.05113385440734" y1="-4.729683862106473" x2="-48.736927316012" y2="10.79966571765212"></line><line stroke-width="1" x1="51.83803876350593" y1="27.062688913127136" x2="42.263601376914345" y2="-2.199459810271504"></line><line stroke-width="1" x1="51.83803876350593" y1="27.062688913127136" x2="25.47267152978485" y2="11.526276908300831"></line><line stroke-width="1" x1="51.83803876350593" y1="27.062688913127136" x2="10.460097192438946" y2="-1.2400285049099078"></line><line stroke-width="3" x1="-11.360226174477534" y1="48.178459946690964" x2="-28.113370500083484" y2="77.20107653167987"></line><line stroke-width="3" x1="-11.360226174477534" y1="48.178459946690964" x2="-78.02360113375431" y2="48.30645575736442"></line><line stroke-width="2.23606797749979" x1="-11.360226174477534" y1="48.178459946690964" x2="11.705685486396042" y2="72.86238037960258"></line><line stroke-width="3.872983346207417" x1="-11.360226174477534" y1="48.178459946690964" x2="-53.44670584843224" y2="49.31367577323219"></line><line stroke-width="1" x1="-11.360226174477534" y1="48.178459946690964" x2="-16.632802803054222" y2="21.801730090506666"></line><line stroke-width="1" x1="-11.360226174477534" y1="48.178459946690964" x2="-9.64720045890643" y2="-20.42101326153736"></line><line stroke-width="1" x1="-11.360226174477534" y1="48.178459946690964" x2="25.47267152978485" y2="11.526276908300831"></line><line stroke-width="1" x1="-11.360226174477534" y1="48.178459946690964" x2="-37.26363826335248" y2="52.550536811739214"></line><line stroke-width="1" x1="-11.360226174477534" y1="48.178459946690964" x2="10.460097192438946" y2="-1.2400285049099078"></line><line stroke-width="1" x1="-22.923630219294818" y1="-52.44255947768028" x2="-9.64720045890643" y2="-20.42101326153736"></line><line stroke-width="1" x1="-102.71195889778687" y1="-2.2931702610590743" x2="-69.76633461105075" y2="-21.69766247406343"></line><line stroke-width="2.23606797749979" x1="-102.71195889778687" y1="-2.2931702610590743" x2="-85.27194377678242" y2="14.815579927907942"></line><line stroke-width="2" x1="-102.71195889778687" y1="-2.2931702610590743" x2="-48.736927316012" y2="10.79966571765212"></line><line stroke-width="1.4142135623730951" x1="-102.71195889778687" y1="-2.2931702610590743" x2="-91.03052341090432" y2="34.140722736092"></line><line stroke-width="1.4142135623730951" x1="-102.71195889778687" y1="-2.2931702610590743" x2="-78.02360113375431" y2="48.30645575736442"></line><line stroke-width="1" x1="-102.71195889778687" y1="-2.2931702610590743" x2="-70.5254475616791" y2="7.5000390599503595"></line><line stroke-width="1" x1="-102.71195889778687" y1="-2.2931702610590743" x2="-90.929496752985" y2="-10.268892735876843"></line><line stroke-width="1.4142135623730951" x1="-102.71195889778687" y1="-2.2931702610590743" x2="-105.8160396646366" y2="19.671496713220336"></line><line stroke-width="2.6457513110645907" x1="-102.71195889778687" y1="-2.2931702610590743" x2="-69.76633461105075" y2="-21.69766247406343"></line><line stroke-width="1.4142135623730951" x1="-102.71195889778687" y1="-2.2931702610590743" x2="-64.85744310862529" y2="29.802366108513315"></line><line stroke-width="2.6457513110645907" x1="-102.71195889778687" y1="-2.2931702610590743" x2="-85.27194377678242" y2="14.815579927907942"></line><line stroke-width="2.23606797749979" x1="-102.71195889778687" y1="-2.2931702610590743" x2="-48.736927316012" y2="10.79966571765212"></line><line stroke-width="1" x1="-70.5254475616791" y1="7.5000390599503595" x2="-91.03052341090432" y2="34.140722736092"></line><line stroke-width="1" x1="-70.5254475616791" y1="7.5000390599503595" x2="-73.05113385440734" y2="-4.729683862106473"></line><line stroke-width="1.4142135623730951" x1="-70.5254475616791" y1="7.5000390599503595" x2="-102.71195889778687" y2="-2.2931702610590743"></line><line stroke-width="1" x1="-70.5254475616791" y1="7.5000390599503595" x2="-90.929496752985" y2="-10.268892735876843"></line><line stroke-width="1.7320508075688772" x1="-70.5254475616791" y1="7.5000390599503595" x2="-105.8160396646366" y2="19.671496713220336"></line><line stroke-width="1.4142135623730951" x1="-70.5254475616791" y1="7.5000390599503595" x2="-69.76633461105075" y2="-21.69766247406343"></line><line stroke-width="1" x1="-70.5254475616791" y1="7.5000390599503595" x2="-85.27194377678242" y2="14.815579927907942"></line><line stroke-width="1.4142135623730951" x1="-70.5254475616791" y1="7.5000390599503595" x2="-48.736927316012" y2="10.79966571765212"></line><line stroke-width="1.7320508075688772" x1="-70.5254475616791" y1="7.5000390599503595" x2="-64.85744310862529" y2="29.802366108513315"></line><line stroke-width="1.7320508075688772" x1="-70.5254475616791" y1="7.5000390599503595" x2="-48.736927316012" y2="10.79966571765212"></line><line stroke-width="1" x1="-24.242529358978643" y1="-2.0789214819435324" x2="3.117830103647303" y2="14.426350915148756"></line><line stroke-width="1" x1="31.924912814569613" y1="-42.379441607646235" x2="42.263601376914345" y2="-2.199459810271504"></line><line stroke-width="1" x1="31.924912814569613" y1="-42.379441607646235" x2="-9.64720045890643" y2="-20.42101326153736"></line><line stroke-width="1" x1="31.924912814569613" y1="-42.379441607646235" x2="10.460097192438946" y2="-1.2400285049099078"></line><line stroke-width="1" x1="31.924912814569613" y1="-42.379441607646235" x2="62.63619198616237" y2="-47.25734027697187"></line><line stroke-width="1" x1="-31.463690395276487" y1="39.62447049768776" x2="-11.360226174477534" y2="48.178459946690964"></line><line stroke-width="1" x1="-31.463690395276487" y1="39.62447049768776" x2="-24.242529358978643" y2="-2.0789214819435324"></line><line stroke-width="1.7320508075688772" x1="-31.463690395276487" y1="39.62447049768776" x2="-48.736927316012" y2="10.79966571765212"></line><line stroke-width="1.4142135623730951" x1="-31.463690395276487" y1="39.62447049768776" x2="-11.360226174477534" y2="48.178459946690964"></line><line stroke-width="2" x1="-31.463690395276487" y1="39.62447049768776" x2="-24.242529358978643" y2="-2.0789214819435324"></line><line stroke-width="2" x1="-31.463690395276487" y1="39.62447049768776" x2="-16.632802803054222" y2="21.801730090506666"></line><line stroke-width="1.4142135623730951" x1="-31.463690395276487" y1="39.62447049768776" x2="-48.736927316012" y2="10.79966571765212"></line><line stroke-width="1.7320508075688772" x1="-90.929496752985" y1="-10.268892735876843" x2="-91.03052341090432" y2="34.140722736092"></line><line stroke-width="2" x1="-90.929496752985" y1="-10.268892735876843" x2="-78.02360113375431" y2="48.30645575736442"></line><line stroke-width="1.7320508075688772" x1="-90.929496752985" y1="-10.268892735876843" x2="-73.05113385440734" y2="-4.729683862106473"></line><line stroke-width="1.7320508075688772" x1="-90.929496752985" y1="-10.268892735876843" x2="-105.8160396646366" y2="19.671496713220336"></line><line stroke-width="1" x1="-90.929496752985" y1="-10.268892735876843" x2="-64.85744310862529" y2="29.802366108513315"></line><line stroke-width="1" x1="-90.929496752985" y1="-10.268892735876843" x2="-48.736927316012" y2="10.79966571765212"></line><line stroke-width="1.7320508075688772" x1="-53.44670584843224" y1="49.31367577323219" x2="-78.02360113375431" y2="48.30645575736442"></line><line stroke-width="4.69041575982343" x1="-53.44670584843224" y1="49.31367577323219" x2="-11.360226174477534" y2="48.178459946690964"></line><line stroke-width="1" x1="-53.44670584843224" y1="49.31367577323219" x2="-85.27194377678242" y2="14.815579927907942"></line><line stroke-width="3" x1="-53.44670584843224" y1="49.31367577323219" x2="-28.113370500083484" y2="77.20107653167987"></line><line stroke-width="1" x1="66.8841486536945" y1="-2.8574866102844805" x2="25.47267152978485" y2="11.526276908300831"></line><line stroke-width="1" x1="66.8841486536945" y1="-2.8574866102844805" x2="62.63619198616237" y2="-47.25734027697187"></line><line stroke-width="1" x1="19.591255632033977" y1="-46.209731623414065" x2="42.263601376914345" y2="-2.199459810271504"></line><line stroke-width="1" x1="19.591255632033977" y1="-46.209731623414065" x2="-9.64720045890643" y2="-20.42101326153736"></line><line stroke-width="1" x1="19.591255632033977" y1="-46.209731623414065" x2="10.460097192438946" y2="-1.2400285049099078"></line><line stroke-width="1" x1="19.591255632033977" y1="-46.209731623414065" x2="62.63619198616237" y2="-47.25734027697187"></line><line stroke-width="1" x1="-105.8160396646366" y1="19.671496713220336" x2="-91.03052341090432" y2="34.140722736092"></line><line stroke-width="2" x1="-105.8160396646366" y1="19.671496713220336" x2="-78.02360113375431" y2="48.30645575736442"></line><line stroke-width="2" x1="-105.8160396646366" y1="19.671496713220336" x2="-73.05113385440734" y2="-4.729683862106473"></line><line stroke-width="2" x1="-105.8160396646366" y1="19.671496713220336" x2="-90.929496752985" y2="-10.268892735876843"></line><line stroke-width="1.7320508075688772" x1="-105.8160396646366" y1="19.671496713220336" x2="-48.736927316012" y2="10.79966571765212"></line><line stroke-width="1" x1="-105.8160396646366" y1="19.671496713220336" x2="-91.03052341090432" y2="34.140722736092"></line><line stroke-width="1" x1="-105.8160396646366" y1="19.671496713220336" x2="-78.02360113375431" y2="48.30645575736442"></line><line stroke-width="1" x1="-105.8160396646366" y1="19.671496713220336" x2="-102.71195889778687" y2="-2.2931702610590743"></line><line stroke-width="2.23606797749979" x1="-105.8160396646366" y1="19.671496713220336" x2="-90.929496752985" y2="-10.268892735876843"></line><line stroke-width="1" x1="-105.8160396646366" y1="19.671496713220336" x2="-85.27194377678242" y2="14.815579927907942"></line><line stroke-width="1" x1="-105.8160396646366" y1="19.671496713220336" x2="-48.736927316012" y2="10.79966571765212"></line><line stroke-width="1" x1="68.29436175456607" y1="-13.668970391329763" x2="25.47267152978485" y2="11.526276908300831"></line><line stroke-width="1" x1="68.29436175456607" y1="-13.668970391329763" x2="62.63619198616237" y2="-47.25734027697187"></line><line stroke-width="1" x1="-69.76633461105075" y1="-21.69766247406343" x2="-91.03052341090432" y2="34.140722736092"></line><line stroke-width="2" x1="-69.76633461105075" y1="-21.69766247406343" x2="-102.71195889778687" y2="-2.2931702610590743"></line><line stroke-width="2.6457513110645907" x1="-69.76633461105075" y1="-21.69766247406343" x2="-85.27194377678242" y2="14.815579927907942"></line><line stroke-width="1.4142135623730951" x1="-69.76633461105075" y1="-21.69766247406343" x2="-48.736927316012" y2="10.79966571765212"></line><line stroke-width="1" x1="-69.76633461105075" y1="-21.69766247406343" x2="-91.03052341090432" y2="34.140722736092"></line><line stroke-width="1.4142135623730951" x1="-69.76633461105075" y1="-21.69766247406343" x2="-73.05113385440734" y2="-4.729683862106473"></line><line stroke-width="2.6457513110645907" x1="-69.76633461105075" y1="-21.69766247406343" x2="-102.71195889778687" y2="-2.2931702610590743"></line><line stroke-width="1" x1="-69.76633461105075" y1="-21.69766247406343" x2="-90.929496752985" y2="-10.268892735876843"></line><line stroke-width="1" x1="-69.76633461105075" y1="-21.69766247406343" x2="-105.8160396646366" y2="19.671496713220336"></line><line stroke-width="1" x1="-69.76633461105075" y1="-21.69766247406343" x2="-64.85744310862529" y2="29.802366108513315"></line><line stroke-width="2.449489742783178" x1="-69.76633461105075" y1="-21.69766247406343" x2="-85.27194377678242" y2="14.815579927907942"></line><line stroke-width="2" x1="-69.76633461105075" y1="-21.69766247406343" x2="-48.736927316012" y2="10.79966571765212"></line><line stroke-width="1.4142135623730951" x1="20.76854333227512" y1="-32.54049988165786" x2="42.263601376914345" y2="-2.199459810271504"></line><line stroke-width="1" x1="20.76854333227512" y1="-32.54049988165786" x2="-9.64720045890643" y2="-20.42101326153736"></line><line stroke-width="1" x1="20.76854333227512" y1="-32.54049988165786" x2="10.460097192438946" y2="-1.2400285049099078"></line><line stroke-width="1" x1="20.76854333227512" y1="-32.54049988165786" x2="62.63619198616237" y2="-47.25734027697187"></line><line stroke-width="1" x1="38.9588069508534" y1="35.38730602782639" x2="42.263601376914345" y2="-2.199459810271504"></line><line stroke-width="1" x1="38.9588069508534" y1="35.38730602782639" x2="25.47267152978485" y2="11.526276908300831"></line><line stroke-width="1" x1="38.9588069508534" y1="35.38730602782639" x2="10.460097192438946" y2="-1.2400285049099078"></line><line stroke-width="1" x1="-64.85744310862529" y1="29.802366108513315" x2="-91.03052341090432" y2="34.140722736092"></line><line stroke-width="1" x1="-64.85744310862529" y1="29.802366108513315" x2="-78.02360113375431" y2="48.30645575736442"></line><line stroke-width="3.1622776601683795" x1="-64.85744310862529" y1="29.802366108513315" x2="-70.5254475616791" y2="7.5000390599503595"></line><line stroke-width="1" x1="-64.85744310862529" y1="29.802366108513315" x2="-69.76633461105075" y2="-21.69766247406343"></line><line stroke-width="1" x1="-64.85744310862529" y1="29.802366108513315" x2="-85.27194377678242" y2="14.815579927907942"></line><line stroke-width="2.6457513110645907" x1="-64.85744310862529" y1="29.802366108513315" x2="-48.736927316012" y2="10.79966571765212"></line><line stroke-width="1" x1="-64.85744310862529" y1="29.802366108513315" x2="-91.03052341090432" y2="34.140722736092"></line><line stroke-width="1" x1="-64.85744310862529" y1="29.802366108513315" x2="-78.02360113375431" y2="48.30645575736442"></line><line stroke-width="1.4142135623730951" x1="-64.85744310862529" y1="29.802366108513315" x2="-73.05113385440734" y2="-4.729683862106473"></line><line stroke-width="1.4142135623730951" x1="-64.85744310862529" y1="29.802366108513315" x2="-90.929496752985" y2="-10.268892735876843"></line><line stroke-width="1.7320508075688772" x1="-64.85744310862529" y1="29.802366108513315" x2="-105.8160396646366" y2="19.671496713220336"></line><line stroke-width="1.7320508075688772" x1="-64.85744310862529" y1="29.802366108513315" x2="-69.76633461105075" y2="-21.69766247406343"></line><line stroke-width="1" x1="-64.85744310862529" y1="29.802366108513315" x2="-85.27194377678242" y2="14.815579927907942"></line><line stroke-width="1.4142135623730951" x1="-64.85744310862529" y1="29.802366108513315" x2="-48.736927316012" y2="10.79966571765212"></line><line stroke-width="1" x1="-85.27194377678242" y1="14.815579927907942" x2="-91.03052341090432" y2="34.140722736092"></line><line stroke-width="1" x1="-85.27194377678242" y1="14.815579927907942" x2="-78.02360113375431" y2="48.30645575736442"></line><line stroke-width="2" x1="-85.27194377678242" y1="14.815579927907942" x2="-73.05113385440734" y2="-4.729683862106473"></line><line stroke-width="2.23606797749979" x1="-85.27194377678242" y1="14.815579927907942" x2="-102.71195889778687" y2="-2.2931702610590743"></line><line stroke-width="2" x1="-85.27194377678242" y1="14.815579927907942" x2="-90.929496752985" y2="-10.268892735876843"></line><line stroke-width="1" x1="-85.27194377678242" y1="14.815579927907942" x2="-105.8160396646366" y2="19.671496713220336"></line><line stroke-width="2.449489742783178" x1="-85.27194377678242" y1="14.815579927907942" x2="-69.76633461105075" y2="-21.69766247406343"></line><line stroke-width="1" x1="-85.27194377678242" y1="14.815579927907942" x2="-64.85744310862529" y2="29.802366108513315"></line><line stroke-width="2.6457513110645907" x1="-85.27194377678242" y1="14.815579927907942" x2="-48.736927316012" y2="10.79966571765212"></line><line stroke-width="2.23606797749979" x1="-85.27194377678242" y1="14.815579927907942" x2="-102.71195889778687" y2="-2.2931702610590743"></line><line stroke-width="1.7320508075688772" x1="-85.27194377678242" y1="14.815579927907942" x2="-69.76633461105075" y2="-21.69766247406343"></line><line stroke-width="1.4142135623730951" x1="-85.27194377678242" y1="14.815579927907942" x2="-48.736927316012" y2="10.79966571765212"></line><line stroke-width="1" x1="55.177862477707414" y1="-15.67247771700145" x2="25.47267152978485" y2="11.526276908300831"></line><line stroke-width="1" x1="55.177862477707414" y1="-15.67247771700145" x2="62.63619198616237" y2="-47.25734027697187"></line><line stroke-width="2" x1="-16.632802803054222" y1="21.801730090506666" x2="-11.360226174477534" y2="48.178459946690964"></line><line stroke-width="2" x1="-16.632802803054222" y1="21.801730090506666" x2="-24.242529358978643" y2="-2.0789214819435324"></line><line stroke-width="1.4142135623730951" x1="-16.632802803054222" y1="21.801730090506666" x2="-31.463690395276487" y2="39.62447049768776"></line><line stroke-width="1" x1="-16.632802803054222" y1="21.801730090506666" x2="-85.27194377678242" y2="14.815579927907942"></line><line stroke-width="1.4142135623730951" x1="-16.632802803054222" y1="21.801730090506666" x2="-48.736927316012" y2="10.79966571765212"></line><line stroke-width="1.7320508075688772" x1="-16.632802803054222" y1="21.801730090506666" x2="-11.360226174477534" y2="48.178459946690964"></line><line stroke-width="1.7320508075688772" x1="-16.632802803054222" y1="21.801730090506666" x2="-24.242529358978643" y2="-2.0789214819435324"></line><line stroke-width="1.7320508075688772" x1="-16.632802803054222" y1="21.801730090506666" x2="-31.463690395276487" y2="39.62447049768776"></line><line stroke-width="1.4142135623730951" x1="-16.632802803054222" y1="21.801730090506666" x2="-48.736927316012" y2="10.79966571765212"></line><line stroke-width="1" x1="-16.632802803054222" y1="21.801730090506666" x2="-9.64720045890643" y2="-20.42101326153736"></line><line stroke-width="1" x1="-16.632802803054222" y1="21.801730090506666" x2="25.47267152978485" y2="11.526276908300831"></line><line stroke-width="1" x1="-16.632802803054222" y1="21.801730090506666" x2="-37.26363826335248" y2="52.550536811739214"></line><line stroke-width="1" x1="-16.632802803054222" y1="21.801730090506666" x2="10.460097192438946" y2="-1.2400285049099078"></line><line stroke-width="2" x1="-48.736927316012" y1="10.79966571765212" x2="-73.05113385440734" y2="-4.729683862106473"></line><line stroke-width="2.449489742783178" x1="-48.736927316012" y1="10.79966571765212" x2="-11.360226174477534" y2="48.178459946690964"></line><line stroke-width="1.4142135623730951" x1="-48.736927316012" y1="10.79966571765212" x2="-102.71195889778687" y2="-2.2931702610590743"></line><line stroke-width="1.7320508075688772" x1="-48.736927316012" y1="10.79966571765212" x2="-70.5254475616791" y2="7.5000390599503595"></line><line stroke-width="1.7320508075688772" x1="-48.736927316012" y1="10.79966571765212" x2="-24.242529358978643" y2="-2.0789214819435324"></line><line stroke-width="2.23606797749979" x1="-48.736927316012" y1="10.79966571765212" x2="-31.463690395276487" y2="39.62447049768776"></line><line stroke-width="1.4142135623730951" x1="-48.736927316012" y1="10.79966571765212" x2="-90.929496752985" y2="-10.268892735876843"></line><line stroke-width="1.7320508075688772" x1="-48.736927316012" y1="10.79966571765212" x2="-105.8160396646366" y2="19.671496713220336"></line><line stroke-width="2.23606797749979" x1="-48.736927316012" y1="10.79966571765212" x2="-69.76633461105075" y2="-21.69766247406343"></line><line stroke-width="2.23606797749979" x1="-48.736927316012" y1="10.79966571765212" x2="-64.85744310862529" y2="29.802366108513315"></line><line stroke-width="1.7320508075688772" x1="-48.736927316012" y1="10.79966571765212" x2="-85.27194377678242" y2="14.815579927907942"></line><line stroke-width="1" x1="-48.736927316012" y1="10.79966571765212" x2="-16.632802803054222" y2="21.801730090506666"></line><line stroke-width="3" x1="-48.736927316012" y1="10.79966571765212" x2="-91.03052341090432" y2="34.140722736092"></line><line stroke-width="2.449489742783178" x1="-48.736927316012" y1="10.79966571765212" x2="-78.02360113375431" y2="48.30645575736442"></line><line stroke-width="2.8284271247461903" x1="-48.736927316012" y1="10.79966571765212" x2="-73.05113385440734" y2="-4.729683862106473"></line><line stroke-width="1.7320508075688772" x1="-48.736927316012" y1="10.79966571765212" x2="-11.360226174477534" y2="48.178459946690964"></line><line stroke-width="2.23606797749979" x1="-48.736927316012" y1="10.79966571765212" x2="-102.71195889778687" y2="-2.2931702610590743"></line><line stroke-width="2.6457513110645907" x1="-48.736927316012" y1="10.79966571765212" x2="-70.5254475616791" y2="7.5000390599503595"></line><line stroke-width="1.7320508075688772" x1="-48.736927316012" y1="10.79966571765212" x2="-24.242529358978643" y2="-2.0789214819435324"></line><line stroke-width="2.23606797749979" x1="-48.736927316012" y1="10.79966571765212" x2="-31.463690395276487" y2="39.62447049768776"></line><line stroke-width="2.23606797749979" x1="-48.736927316012" y1="10.79966571765212" x2="-90.929496752985" y2="-10.268892735876843"></line><line stroke-width="1.7320508075688772" x1="-48.736927316012" y1="10.79966571765212" x2="-105.8160396646366" y2="19.671496713220336"></line><line stroke-width="2.449489742783178" x1="-48.736927316012" y1="10.79966571765212" x2="-69.76633461105075" y2="-21.69766247406343"></line><line stroke-width="2.6457513110645907" x1="-48.736927316012" y1="10.79966571765212" x2="-64.85744310862529" y2="29.802366108513315"></line><line stroke-width="2.449489742783178" x1="-48.736927316012" y1="10.79966571765212" x2="-85.27194377678242" y2="14.815579927907942"></line><line stroke-width="1.4142135623730951" x1="-48.736927316012" y1="10.79966571765212" x2="-16.632802803054222" y2="21.801730090506666"></line><line stroke-width="1" x1="-48.736927316012" y1="10.79966571765212" x2="-9.64720045890643" y2="-20.42101326153736"></line><line stroke-width="1" x1="-48.736927316012" y1="10.79966571765212" x2="25.47267152978485" y2="11.526276908300831"></line><line stroke-width="1" x1="-48.736927316012" y1="10.79966571765212" x2="-37.26363826335248" y2="52.550536811739214"></line><line stroke-width="1.4142135623730951" x1="-48.736927316012" y1="10.79966571765212" x2="10.460097192438946" y2="-1.2400285049099078"></line></g><g stroke="#fff" stroke-width="1.5"><path d="M5.046265044040321,0A5.046265044040321,5.046265044040321,0,1,1,-5.046265044040321,0A5.046265044040321,5.046265044040321,0,1,1,5.046265044040321,0" fill="#9467bd" transform="translate(-91.03052341090432,34.140722736092)"><title>Person 519424</title></path><path d="M5.046265044040321,0A5.046265044040321,5.046265044040321,0,1,1,-5.046265044040321,0A5.046265044040321,5.046265044040321,0,1,1,5.046265044040321,0" fill="#d62728" transform="translate(-78.02360113375431,48.30645575736442)"><title>Person 546999</title></path><path d="M5.046265044040321,0A5.046265044040321,5.046265044040321,0,1,1,-5.046265044040321,0A5.046265044040321,5.046265044040321,0,1,1,5.046265044040321,0" fill="#9467bd" transform="translate(-73.05113385440734,-4.729683862106473)"><title>Person 551810</title></path><path d="M5.046265044040321,0A5.046265044040321,5.046265044040321,0,1,1,-5.046265044040321,0A5.046265044040321,5.046265044040321,0,1,1,5.046265044040321,0" fill="#8c564b" transform="translate(-11.360226174477534,48.178459946690964)"><title>Person 570284</title></path><path d="M5.046265044040321,0A5.046265044040321,5.046265044040321,0,1,1,-5.046265044040321,0A5.046265044040321,5.046265044040321,0,1,1,5.046265044040321,0" fill="#8c564b" transform="translate(-102.71195889778687,-2.2931702610590743)"><title>Person 572500</title></path><path d="M5.046265044040321,0A5.046265044040321,5.046265044040321,0,1,1,-5.046265044040321,0A5.046265044040321,5.046265044040321,0,1,1,5.046265044040321,0" fill="#1f77b4" transform="translate(-70.5254475616791,7.5000390599503595)"><title>Person 581406</title></path><path d="M5.046265044040321,0A5.046265044040321,5.046265044040321,0,1,1,-5.046265044040321,0A5.046265044040321,5.046265044040321,0,1,1,5.046265044040321,0" fill="#8c564b" transform="translate(-31.463690395276487,39.62447049768776)"><title>Person 593266</title></path><path d="M5.046265044040321,0A5.046265044040321,5.046265044040321,0,1,1,-5.046265044040321,0A5.046265044040321,5.046265044040321,0,1,1,5.046265044040321,0" fill="#d62728" transform="translate(-90.929496752985,-10.268892735876843)"><title>Person 594766</title></path><path d="M5.046265044040321,0A5.046265044040321,5.046265044040321,0,1,1,-5.046265044040321,0A5.046265044040321,5.046265044040321,0,1,1,5.046265044040321,0" fill="#9467bd" transform="translate(-53.44670584843224,49.31367577323219)"><title>Person 595104</title></path><path d="M5.046265044040321,0A5.046265044040321,5.046265044040321,0,1,1,-5.046265044040321,0A5.046265044040321,5.046265044040321,0,1,1,5.046265044040321,0" fill="#d62728" transform="translate(-105.8160396646366,19.671496713220336)"><title>Person 604223</title></path><path d="M5.046265044040321,0A5.046265044040321,5.046265044040321,0,1,1,-5.046265044040321,0A5.046265044040321,5.046265044040321,0,1,1,5.046265044040321,0" fill="#8c564b" transform="translate(-69.76633461105075,-21.69766247406343)"><title>Person 615605</title></path><path d="M5.046265044040321,0A5.046265044040321,5.046265044040321,0,1,1,-5.046265044040321,0A5.046265044040321,5.046265044040321,0,1,1,5.046265044040321,0" fill="#1f77b4" transform="translate(-64.85744310862529,29.802366108513315)"><title>Person 636990</title></path><path d="M5.046265044040321,0A5.046265044040321,5.046265044040321,0,1,1,-5.046265044040321,0A5.046265044040321,5.046265044040321,0,1,1,5.046265044040321,0" fill="#8c564b" transform="translate(-85.27194377678242,14.815579927907942)"><title>Person 638752</title></path><path d="M5.046265044040321,0A5.046265044040321,5.046265044040321,0,1,1,-5.046265044040321,0A5.046265044040321,5.046265044040321,0,1,1,5.046265044040321,0" fill="#8c564b" transform="translate(-16.632802803054222,21.801730090506666)"><title>Person 643925</title></path><path d="M5.046265044040321,0A5.046265044040321,5.046265044040321,0,1,1,-5.046265044040321,0A5.046265044040321,5.046265044040321,0,1,1,5.046265044040321,0" fill="#8c564b" transform="translate(-48.736927316012,10.79966571765212)"><title>Person 649553</title></path><path d="M5.046265044040321,0A5.046265044040321,5.046265044040321,0,1,1,-5.046265044040321,0A5.046265044040321,5.046265044040321,0,1,1,5.046265044040321,0" fill="#7f7f7f" transform="translate(8.651910004432244,-104.35484125387782)"><title>Person 476124</title></path><path d="M5.046265044040321,0A5.046265044040321,5.046265044040321,0,1,1,-5.046265044040321,0A5.046265044040321,5.046265044040321,0,1,1,5.046265044040321,0" fill="#7f7f7f" transform="translate(95.93920487813703,66.00730780629821)"><title>Person 477769</title></path><path d="M5.046265044040321,0A5.046265044040321,5.046265044040321,0,1,1,-5.046265044040321,0A5.046265044040321,5.046265044040321,0,1,1,5.046265044040321,0" fill="#7f7f7f" transform="translate(-116.31919818746569,-47.32659124428121)"><title>Person 479204</title></path><path d="M5.046265044040321,0A5.046265044040321,5.046265044040321,0,1,1,-5.046265044040321,0A5.046265044040321,5.046265044040321,0,1,1,5.046265044040321,0" fill="#7f7f7f" transform="translate(81.18064319758955,-86.26113577784436)"><title>Person 480268</title></path><path d="M5.046265044040321,0A5.046265044040321,5.046265044040321,0,1,1,-5.046265044040321,0A5.046265044040321,5.046265044040321,0,1,1,5.046265044040321,0" fill="#7f7f7f" transform="translate(23.229985335244354,112.97345112364076)"><title>Person 480375</title></path><path d="M5.046265044040321,0A5.046265044040321,5.046265044040321,0,1,1,-5.046265044040321,0A5.046265044040321,5.046265044040321,0,1,1,5.046265044040321,0" fill="#7f7f7f" transform="translate(-40.60218583309083,-105.49605200676967)"><title>Person 492937</title></path><path d="M5.046265044040321,0A5.046265044040321,5.046265044040321,0,1,1,-5.046265044040321,0A5.046265044040321,5.046265044040321,0,1,1,5.046265044040321,0" fill="#7f7f7f" transform="translate(117.78756899996733,9.941271660418222)"><title>Person 500192</title></path><path d="M5.046265044040321,0A5.046265044040321,5.046265044040321,0,1,1,-5.046265044040321,0A5.046265044040321,5.046265044040321,0,1,1,5.046265044040321,0" fill="#7f7f7f" transform="translate(-81.24613914949073,95.79561168569172)"><title>Person 510483</title></path><path d="M5.046265044040321,0A5.046265044040321,5.046265044040321,0,1,1,-5.046265044040321,0A5.046265044040321,5.046265044040321,0,1,1,5.046265044040321,0" fill="#7f7f7f" transform="translate(56.81028562489992,-101.30043018053541)"><title>Person 513182</title></path><path d="M5.046265044040321,0A5.046265044040321,5.046265044040321,0,1,1,-5.046265044040321,0A5.046265044040321,5.046265044040321,0,1,1,5.046265044040321,0" fill="#7f7f7f" transform="translate(74.68771060748294,85.23738794125788)"><title>Person 463126</title></path><path d="M5.046265044040321,0A5.046265044040321,5.046265044040321,0,1,1,-5.046265044040321,0A5.046265044040321,5.046265044040321,0,1,1,5.046265044040321,0" fill="#7f7f7f" transform="translate(-89.64575258520004,-75.72588458212859)"><title>Person 516694</title></path><path d="M5.046265044040321,0A5.046265044040321,5.046265044040321,0,1,1,-5.046265044040321,0A5.046265044040321,5.046265044040321,0,1,1,5.046265044040321,0" fill="#7f7f7f" transform="translate(103.32741449396912,-59.679994605454574)"><title>Person 545850</title></path><path d="M5.046265044040321,0A5.046265044040321,5.046265044040321,0,1,1,-5.046265044040321,0A5.046265044040321,5.046265044040321,0,1,1,5.046265044040321,0" fill="#7f7f7f" transform="translate(-7.659613933188639,118.16423932585808)"><title>Person 558277</title></path><path d="M5.046265044040321,0A5.046265044040321,5.046265044040321,0,1,1,-5.046265044040321,0A5.046265044040321,5.046265044040321,0,1,1,5.046265044040321,0" fill="#7f7f7f" transform="translate(-15.65381986682937,-114.53742616557167)"><title>Person 561312</title></path><path d="M5.046265044040321,0A5.046265044040321,5.046265044040321,0,1,1,-5.046265044040321,0A5.046265044040321,5.046265044040321,0,1,1,5.046265044040321,0" fill="#7f7f7f" transform="translate(108.02737233142562,39.199489971441466)"><title>Person 562598</title></path><path d="M5.046265044040321,0A5.046265044040321,5.046265044040321,0,1,1,-5.046265044040321,0A5.046265044040321,5.046265044040321,0,1,1,5.046265044040321,0" fill="#7f7f7f" transform="translate(-127.95545405658967,44.0849078175367)"><title>Person 573206</title></path><path d="M5.046265044040321,0A5.046265044040321,5.046265044040321,0,1,1,-5.046265044040321,0A5.046265044040321,5.046265044040321,0,1,1,5.046265044040321,0" fill="#8c564b" transform="translate(-24.242529358978643,-2.0789214819435324)"><title>Person 584811</title></path><path d="M5.046265044040321,0A5.046265044040321,5.046265044040321,0,1,1,-5.046265044040321,0A5.046265044040321,5.046265044040321,0,1,1,5.046265044040321,0" fill="#7f7f7f" transform="translate(51.870364285310934,103.8140265595247)"><title>Person 598220</title></path><path d="M5.046265044040321,0A5.046265044040321,5.046265044040321,0,1,1,-5.046265044040321,0A5.046265044040321,5.046265044040321,0,1,1,5.046265044040321,0" fill="#7f7f7f" transform="translate(-66.34553059586086,-94.72936007659031)"><title>Person 617074</title></path><path d="M5.046265044040321,0A5.046265044040321,5.046265044040321,0,1,1,-5.046265044040321,0A5.046265044040321,5.046265044040321,0,1,1,5.046265044040321,0" fill="#7f7f7f" transform="translate(117.77129745030541,-25.332380944788817)"><title>Person 634283</title></path><path d="M5.046265044040321,0A5.046265044040321,5.046265044040321,0,1,1,-5.046265044040321,0A5.046265044040321,5.046265044040321,0,1,1,5.046265044040321,0" fill="#7f7f7f" transform="translate(-44.19672443109803,113.61972276693672)"><title>Person 645393</title></path><path d="M5.046265044040321,0A5.046265044040321,5.046265044040321,0,1,1,-5.046265044040321,0A5.046265044040321,5.046265044040321,0,1,1,5.046265044040321,0" fill="#7f7f7f" transform="translate(31.436236557707588,-115.47967450394538)"><title>Person 655636</title></path><path d="M5.046265044040321,0A5.046265044040321,5.046265044040321,0,1,1,-5.046265044040321,0A5.046265044040321,5.046265044040321,0,1,1,5.046265044040321,0" fill="#7f7f7f" transform="translate(34.324579379072,-28.38175374033486)"><title>Person 534034</title></path><path d="M5.046265044040321,0A5.046265044040321,5.046265044040321,0,1,1,-5.046265044040321,0A5.046265044040321,5.046265044040321,0,1,1,5.046265044040321,0" fill="#7f7f7f" transform="translate(20.76854333227512,-32.54049988165786)"><title>Person 629627</title></path><path d="M5.046265044040321,0A5.046265044040321,5.046265044040321,0,1,1,-5.046265044040321,0A5.046265044040321,5.046265044040321,0,1,1,5.046265044040321,0" fill="#7f7f7f" transform="translate(23.460429129906935,35.41348264048559)"><title>Person 464459</title></path><path d="M5.046265044040321,0A5.046265044040321,5.046265044040321,0,1,1,-5.046265044040321,0A5.046265044040321,5.046265044040321,0,1,1,5.046265044040321,0" fill="#7f7f7f" transform="translate(-35.62053040333676,-42.76647745716965)"><title>Person 538892</title></path><path d="M5.046265044040321,0A5.046265044040321,5.046265044040321,0,1,1,-5.046265044040321,0A5.046265044040321,5.046265044040321,0,1,1,5.046265044040321,0" fill="#7f7f7f" transform="translate(-7.2390511246771,-54.80208863610312)"><title>Person 542965</title></path><path d="M5.046265044040321,0A5.046265044040321,5.046265044040321,0,1,1,-5.046265044040321,0A5.046265044040321,5.046265044040321,0,1,1,5.046265044040321,0" fill="#7f7f7f" transform="translate(51.83803876350593,27.062688913127136)"><title>Person 568093</title></path><path d="M5.046265044040321,0A5.046265044040321,5.046265044040321,0,1,1,-5.046265044040321,0A5.046265044040321,5.046265044040321,0,1,1,5.046265044040321,0" fill="#7f7f7f" transform="translate(-22.923630219294818,-52.44255947768028)"><title>Person 572391</title></path><path d="M5.046265044040321,0A5.046265044040321,5.046265044040321,0,1,1,-5.046265044040321,0A5.046265044040321,5.046265044040321,0,1,1,5.046265044040321,0" fill="#7f7f7f" transform="translate(31.924912814569613,-42.379441607646235)"><title>Person 585212</title></path><path d="M5.046265044040321,0A5.046265044040321,5.046265044040321,0,1,1,-5.046265044040321,0A5.046265044040321,5.046265044040321,0,1,1,5.046265044040321,0" fill="#7f7f7f" transform="translate(66.8841486536945,-2.8574866102844805)"><title>Person 598006</title></path><path d="M5.046265044040321,0A5.046265044040321,5.046265044040321,0,1,1,-5.046265044040321,0A5.046265044040321,5.046265044040321,0,1,1,5.046265044040321,0" fill="#7f7f7f" transform="translate(19.591255632033977,-46.209731623414065)"><title>Person 599441</title></path><path d="M5.046265044040321,0A5.046265044040321,5.046265044040321,0,1,1,-5.046265044040321,0A5.046265044040321,5.046265044040321,0,1,1,5.046265044040321,0" fill="#7f7f7f" transform="translate(68.29436175456607,-13.668970391329763)"><title>Person 612711</title></path><path d="M5.046265044040321,0A5.046265044040321,5.046265044040321,0,1,1,-5.046265044040321,0A5.046265044040321,5.046265044040321,0,1,1,5.046265044040321,0" fill="#7f7f7f" transform="translate(38.9588069508534,35.38730602782639)"><title>Person 635665</title></path><path d="M5.046265044040321,0A5.046265044040321,5.046265044040321,0,1,1,-5.046265044040321,0A5.046265044040321,5.046265044040321,0,1,1,5.046265044040321,0" fill="#7f7f7f" transform="translate(55.177862477707414,-15.67247771700145)"><title>Person 643411</title></path><path d="M-6,-2L-2,-2L-2,-6L2,-6L2,-2L6,-2L6,2L2,2L2,6L-2,6L-2,2L-6,2Z" fill="#7f7f7f" transform="translate(-28.113370500083484,77.20107653167987)"><title>Product 482264</title></path><path d="M0,-8.441862787462423L1.8953162830083747,-2.6086790655073533L8.028688613685706,-2.6086790655073537L3.0666861653386652,0.9964267372834953L4.962002448347041,6.829610459238564L6.661338147750939e-16,3.2245046564477153L-4.9620024483470395,6.829610459238565L-3.0666861653386652,0.9964267372834958L-8.028688613685707,-2.608679065507352L-1.8953162830083754,-2.608679065507353Z" fill="#d62728" transform="translate(10.460097192438946,-1.2400285049099078)"><title>Country 625756</title></path><path d="M0,-8.441862787462423L1.8953162830083747,-2.6086790655073533L8.028688613685706,-2.6086790655073537L3.0666861653386652,0.9964267372834953L4.962002448347041,6.829610459238564L6.661338147750939e-16,3.2245046564477153L-4.9620024483470395,6.829610459238565L-3.0666861653386652,0.9964267372834958L-8.028688613685707,-2.608679065507352L-1.8953162830083754,-2.608679065507353Z" fill="#ff7f0e" transform="translate(62.63619198616237,-47.25734027697187)"><title>Country 657173</title></path><path d="M0,-8.441862787462423L1.8953162830083747,-2.6086790655073533L8.028688613685706,-2.6086790655073537L3.0666861653386652,0.9964267372834953L4.962002448347041,6.829610459238564L6.661338147750939e-16,3.2245046564477153L-4.9620024483470395,6.829610459238565L-3.0666861653386652,0.9964267372834958L-8.028688613685707,-2.608679065507352L-1.8953162830083754,-2.608679065507353Z" fill="#2ca02c" transform="translate(42.263601376914345,-2.199459810271504)"><title>Country 499467</title></path><path d="M0,-8.441862787462423L1.8953162830083747,-2.6086790655073533L8.028688613685706,-2.6086790655073537L3.0666861653386652,0.9964267372834953L4.962002448347041,6.829610459238564L6.661338147750939e-16,3.2245046564477153L-4.9620024483470395,6.829610459238565L-3.0666861653386652,0.9964267372834958L-8.028688613685707,-2.608679065507352L-1.8953162830083754,-2.608679065507353Z" fill="#9467bd" transform="translate(-9.64720045890643,-20.42101326153736)"><title>Country 509607</title></path><path d="M0,-8.441862787462423L1.8953162830083747,-2.6086790655073533L8.028688613685706,-2.6086790655073537L3.0666861653386652,0.9964267372834953L4.962002448347041,6.829610459238564L6.661338147750939e-16,3.2245046564477153L-4.9620024483470395,6.829610459238565L-3.0666861653386652,0.9964267372834958L-8.028688613685707,-2.608679065507352L-1.8953162830083754,-2.608679065507353Z" fill="#1f77b4" transform="translate(25.47267152978485,11.526276908300831)"><title>Country 561157</title></path><path d="M0,-8.441862787462423L1.8953162830083747,-2.6086790655073533L8.028688613685706,-2.6086790655073537L3.0666861653386652,0.9964267372834953L4.962002448347041,6.829610459238564L6.661338147750939e-16,3.2245046564477153L-4.9620024483470395,6.829610459238565L-3.0666861653386652,0.9964267372834958L-8.028688613685707,-2.608679065507352L-1.8953162830083754,-2.608679065507353Z" fill="#8c564b" transform="translate(-37.26363826335248,52.550536811739214)"><title>Country 616453</title></path><path d="M-4.47213595499958,-4.47213595499958h8.94427190999916v8.94427190999916h-8.94427190999916Z" fill="#7f7f7f" transform="translate(3.117830103647303,14.426350915148756)"><title>Document 593870</title></path><path d="M5.046265044040321,0A5.046265044040321,5.046265044040321,0,1,1,-5.046265044040321,0A5.046265044040321,5.046265044040321,0,1,1,5.046265044040321,0" fill="#7f7f7f" transform="translate(11.705685486396042,72.86238037960258)"><title>Person 570847</title></path></g></svg>