<svg width="300" height="300" viewBox="-150,-150,300,300"><text x="-150" y="-130" font-family="sans-serif" font-size="12px" text-anchor="start">Q4-matched_nodes_intra</text><g stroke="#999" stroke-opacity="0.6"><line stroke-width="1" x1="54.37639996576403" y1="-41.97780421179721" x2="-2.536592569818195" y2="-72.06653012555176"></line><line stroke-width="1" x1="54.37639996576403" y1="-41.97780421179721" x2="38.99878106985226" y2="-72.88912926020451"></line><line stroke-width="4.47213595499958" x1="20.003813148355757" y1="14.548625620760275" x2="-8.598695574558233" y2="-5.035312776523463"></line><line stroke-width="5" x1="20.003813148355757" y1="14.548625620760275" x2="34.77665953349959" y2="-25.151173837272893"></line><line stroke-width="4.47213595499958" x1="20.003813148355757" y1="14.548625620760275" x2="20.247062843990342" y2="-19.920530961952778"></line><line stroke-width="5" x1="20.003813148355757" y1="14.548625620760275" x2="9.402191964079789" y2="-19.98397674399521"></line><line stroke-width="1" x1="-38.652071288630474" y1="33.950101603112216" x2="-13.294406642054513" y2="-16.281890365468374"></line><line stroke-width="1" x1="-38.652071288630474" y1="33.950101603112216" x2="-46.83081049002004" y2="6.340326634113792"></line><line stroke-width="2.23606797749979" x1="-17.5403252489699" y1="46.15628255340459" x2="-8.598695574558233" y2="-5.035312776523463"></line><line stroke-width="1" x1="15.22629161449113" y1="28.40121262225237" x2="77.59746404774279" y2="22.047438732626"></line><line stroke-width="1" x1="15.22629161449113" y1="28.40121262225237" x2="40.22997837757187" y2="43.19245330691288"></line><line stroke-width="3.872983346207417" x1="15.22629161449113" y1="28.40121262225237" x2="34.77665953349959" y2="-25.151173837272893"></line><line stroke-width="3.1622776601683795" x1="15.22629161449113" y1="28.40121262225237" x2="20.247062843990342" y2="-19.920530961952778"></line><line stroke-width="2.23606797749979" x1="15.22629161449113" y1="28.40121262225237" x2="-8.01486640411948" y2="-29.04952538838719"></line><line stroke-width="2.23606797749979" x1="15.22629161449113" y1="28.40121262225237" x2="9.402191964079789" y2="-19.98397674399521"></line><line stroke-width="2.23606797749979" x1="15.22629161449113" y1="28.40121262225237" x2="-21.044382248392303" y2="7.871919821851519"></line><line stroke-width="1" x1="-50.619060764243756" y1="-52.402502197050275" x2="-57.0014896606309" y2="-79.93206350901586"></line><line stroke-width="1" x1="77.59746404774279" y1="22.047438732626" x2="44.01222525005368" y2="19.997645756731313"></line><line stroke-width="1" x1="77.59746404774279" y1="22.047438732626" x2="54.37639996576403" y2="-41.97780421179721"></line><line stroke-width="1" x1="55.43415993167722" y1="-10.90608630045542" x2="44.01222525005368" y2="19.997645756731313"></line><line stroke-width="1" x1="55.43415993167722" y1="-10.90608630045542" x2="44.01222525005368" y2="19.997645756731313"></line><line stroke-width="2.23606797749979" x1="55.43415993167722" y1="-10.90608630045542" x2="-8.598695574558233" y2="-5.035312776523463"></line><line stroke-width="2.23606797749979" x1="55.43415993167722" y1="-10.90608630045542" x2="34.77665953349959" y2="-25.151173837272893"></line><line stroke-width="2.23606797749979" x1="55.43415993167722" y1="-10.90608630045542" x2="20.247062843990342" y2="-19.920530961952778"></line><line stroke-width="2.23606797749979" x1="55.43415993167722" y1="-10.90608630045542" x2="9.402191964079789" y2="-19.98397674399521"></line><line stroke-width="3.1622776601683795" x1="-47.72424965904981" y1="-4.781040021644727" x2="-8.01486640411948" y2="-29.04952538838719"></line><line stroke-width="2.23606797749979" x1="-47.72424965904981" y1="-4.781040021644727" x2="9.402191964079789" y2="-19.98397674399521"></line><line stroke-width="2.23606797749979" x1="-47.72424965904981" y1="-4.781040021644727" x2="-21.044382248392303" y2="7.871919821851519"></line><line stroke-width="1" x1="-2.0199244079270504" y1="30.62222957156114" x2="29.399624362046968" y2="32.64560328457815"></line><line stroke-width="1" x1="64.7526995183046" y1="48.07664958526199" x2="39.26416121822598" y2="5.532962227427189"></line><line stroke-width="1" x1="64.7526995183046" y1="48.07664958526199" x2="44.01222525005368" y2="19.997645756731313"></line><line stroke-width="1.7320508075688772" x1="-35.24296125846951" y1="-72.52139898110592" x2="-2.536592569818195" y2="-72.06653012555176"></line><line stroke-width="2.6457513110645907" x1="-35.24296125846951" y1="-72.52139898110592" x2="-9.997244307929702" y2="-111.69612358260052"></line><line stroke-width="1.7320508075688772" x1="-35.24296125846951" y1="-72.52139898110592" x2="-73.23863906523876" y2="-89.16780169200094"></line><line stroke-width="1" x1="-35.24296125846951" y1="-72.52139898110592" x2="15.731745763495626" y2="-42.85720973754051"></line><line stroke-width="1.7320508075688772" x1="-35.24296125846951" y1="-72.52139898110592" x2="-48.16853921185888" y2="-109.52248336046036"></line><line stroke-width="1.4142135623730951" x1="-35.24296125846951" y1="-72.52139898110592" x2="-50.41082920683675" y2="-94.84944740032928"></line><line stroke-width="1.7320508075688772" x1="-35.24296125846951" y1="-72.52139898110592" x2="-7.470575220850114" y2="-91.69241380103135"></line><line stroke-width="1.4142135623730951" x1="-35.24296125846951" y1="-72.52139898110592" x2="-64.60259568992711" y2="-62.85342711263991"></line><line stroke-width="1.4142135623730951" x1="-35.24296125846951" y1="-72.52139898110592" x2="-20.194196167352604" y2="-80.16818624894267"></line><line stroke-width="1" x1="-35.24296125846951" y1="-72.52139898110592" x2="-2.536592569818195" y2="-72.06653012555176"></line><line stroke-width="1.4142135623730951" x1="-35.24296125846951" y1="-72.52139898110592" x2="-29.110212757932224" y2="-114.2599116971025"></line><line stroke-width="1.4142135623730951" x1="-35.24296125846951" y1="-72.52139898110592" x2="-48.16853921185888" y2="-109.52248336046036"></line><line stroke-width="1" x1="-35.24296125846951" y1="-72.52139898110592" x2="-7.470575220850114" y2="-91.69241380103135"></line><line stroke-width="1" x1="-35.24296125846951" y1="-72.52139898110592" x2="-64.60259568992711" y2="-62.85342711263991"></line><line stroke-width="3.872983346207417" x1="-35.24296125846951" y1="-72.52139898110592" x2="-8.598695574558233" y2="-5.035312776523463"></line><line stroke-width="2.23606797749979" x1="-35.24296125846951" y1="-72.52139898110592" x2="34.77665953349959" y2="-25.151173837272893"></line><line stroke-width="2.23606797749979" x1="-35.24296125846951" y1="-72.52139898110592" x2="20.247062843990342" y2="-19.920530961952778"></line><line stroke-width="5" x1="-35.24296125846951" y1="-72.52139898110592" x2="-8.01486640411948" y2="-29.04952538838719"></line><line stroke-width="2.23606797749979" x1="-35.24296125846951" y1="-72.52139898110592" x2="-21.044382248392303" y2="7.871919821851519"></line><line stroke-width="1" x1="29.399624362046968" y1="32.64560328457815" x2="60.43629913100297" y2="-2.786384672973305"></line><line stroke-width="1.4142135623730951" x1="29.399624362046968" y1="32.64560328457815" x2="55.65365602603024" y2="16.808126009214195"></line><line stroke-width="1" x1="29.399624362046968" y1="32.64560328457815" x2="-1.184009965734196" y2="64.3407941521858"></line><line stroke-width="3.872983346207417" x1="29.399624362046968" y1="32.64560328457815" x2="-8.598695574558233" y2="-5.035312776523463"></line><line stroke-width="3.872983346207417" x1="29.399624362046968" y1="32.64560328457815" x2="34.77665953349959" y2="-25.151173837272893"></line><line stroke-width="3.1622776601683795" x1="29.399624362046968" y1="32.64560328457815" x2="20.247062843990342" y2="-19.920530961952778"></line><line stroke-width="2.23606797749979" x1="29.399624362046968" y1="32.64560328457815" x2="-8.01486640411948" y2="-29.04952538838719"></line><line stroke-width="4.47213595499958" x1="29.399624362046968" y1="32.64560328457815" x2="9.402191964079789" y2="-19.98397674399521"></line><line stroke-width="4.47213595499958" x1="29.399624362046968" y1="32.64560328457815" x2="-21.044382248392303" y2="7.871919821851519"></line><line stroke-width="1" x1="-13.294406642054513" y1="-16.281890365468374" x2="40.22997837757187" y2="43.19245330691288"></line><line stroke-width="1.4142135623730951" x1="-13.294406642054513" y1="-16.281890365468374" x2="-13.499466031371265" y2="15.887981338476541"></line><line stroke-width="1.7320508075688772" x1="-13.294406642054513" y1="-16.281890365468374" x2="1.1714436297934208" y2="6.3382034073107185"></line><line stroke-width="1.4142135623730951" x1="-13.294406642054513" y1="-16.281890365468374" x2="-50.41082920683675" y2="-94.84944740032928"></line><line stroke-width="3.872983346207417" x1="-13.294406642054513" y1="-16.281890365468374" x2="34.77665953349959" y2="-25.151173837272893"></line><line stroke-width="5" x1="-13.499466031371265" y1="15.887981338476541" x2="34.77665953349959" y2="-25.151173837272893"></line><line stroke-width="3.1622776601683795" x1="-13.499466031371265" y1="15.887981338476541" x2="20.247062843990342" y2="-19.920530961952778"></line><line stroke-width="2.23606797749979" x1="-13.499466031371265" y1="15.887981338476541" x2="-8.01486640411948" y2="-29.04952538838719"></line><line stroke-width="3.1622776601683795" x1="-13.499466031371265" y1="15.887981338476541" x2="9.402191964079789" y2="-19.98397674399521"></line><line stroke-width="2.449489742783178" x1="-2.536592569818195" y1="-72.06653012555176" x2="-35.24296125846951" y2="-72.52139898110592"></line><line stroke-width="2.23606797749979" x1="-2.536592569818195" y1="-72.06653012555176" x2="-9.997244307929702" y2="-111.69612358260052"></line><line stroke-width="4.123105625617661" x1="-2.536592569818195" y1="-72.06653012555176" x2="38.99878106985226" y2="-72.88912926020451"></line><line stroke-width="1" x1="-2.536592569818195" y1="-72.06653012555176" x2="-29.110212757932224" y2="-114.2599116971025"></line><line stroke-width="2.23606797749979" x1="-2.536592569818195" y1="-72.06653012555176" x2="15.731745763495626" y2="-42.85720973754051"></line><line stroke-width="1" x1="-2.536592569818195" y1="-72.06653012555176" x2="-48.16853921185888" y2="-109.52248336046036"></line><line stroke-width="1" x1="-2.536592569818195" y1="-72.06653012555176" x2="-7.470575220850114" y2="-91.69241380103135"></line><line stroke-width="1.4142135623730951" x1="-2.536592569818195" y1="-72.06653012555176" x2="-20.194196167352604" y2="-80.16818624894267"></line><line stroke-width="1" x1="-2.536592569818195" y1="-72.06653012555176" x2="-35.24296125846951" y2="-72.52139898110592"></line><line stroke-width="1" x1="-2.536592569818195" y1="-72.06653012555176" x2="-9.997244307929702" y2="-111.69612358260052"></line><line stroke-width="1.4142135623730951" x1="-2.536592569818195" y1="-72.06653012555176" x2="-73.23863906523876" y2="-89.16780169200094"></line><line stroke-width="1.4142135623730951" x1="-2.536592569818195" y1="-72.06653012555176" x2="-57.0014896606309" y2="-79.93206350901586"></line><line stroke-width="1.4142135623730951" x1="-2.536592569818195" y1="-72.06653012555176" x2="-29.110212757932224" y2="-114.2599116971025"></line><line stroke-width="1" x1="-2.536592569818195" y1="-72.06653012555176" x2="-7.470575220850114" y2="-91.69241380103135"></line><line stroke-width="1" x1="-2.536592569818195" y1="-72.06653012555176" x2="-20.194196167352604" y2="-80.16818624894267"></line><line stroke-width="2.23606797749979" x1="-2.536592569818195" y1="-72.06653012555176" x2="-8.598695574558233" y2="-5.035312776523463"></line><line stroke-width="2.23606797749979" x1="-2.536592569818195" y1="-72.06653012555176" x2="34.77665953349959" y2="-25.151173837272893"></line><line stroke-width="3.1622776601683795" x1="-2.536592569818195" y1="-72.06653012555176" x2="20.247062843990342" y2="-19.920530961952778"></line><line stroke-width="2.23606797749979" x1="-2.536592569818195" y1="-72.06653012555176" x2="-8.01486640411948" y2="-29.04952538838719"></line><line stroke-width="3.1622776601683795" x1="-2.536592569818195" y1="-72.06653012555176" x2="9.402191964079789" y2="-19.98397674399521"></line><line stroke-width="2.23606797749979" x1="-2.536592569818195" y1="-72.06653012555176" x2="-21.044382248392303" y2="7.871919821851519"></line><line stroke-width="3.3166247903554" x1="-9.997244307929702" y1="-111.69612358260052" x2="-35.24296125846951" y2="-72.52139898110592"></line><line stroke-width="1.7320508075688772" x1="-9.997244307929702" y1="-111.69612358260052" x2="-2.536592569818195" y2="-72.06653012555176"></line><line stroke-width="2.449489742783178" x1="-9.997244307929702" y1="-111.69612358260052" x2="-29.110212757932224" y2="-114.2599116971025"></line><line stroke-width="1.4142135623730951" x1="-9.997244307929702" y1="-111.69612358260052" x2="-48.16853921185888" y2="-109.52248336046036"></line><line stroke-width="1" x1="-9.997244307929702" y1="-111.69612358260052" x2="-50.41082920683675" y2="-94.84944740032928"></line><line stroke-width="1" x1="-9.997244307929702" y1="-111.69612358260052" x2="-7.470575220850114" y2="-91.69241380103135"></line><line stroke-width="3" x1="-9.997244307929702" y1="-111.69612358260052" x2="-20.194196167352604" y2="-80.16818624894267"></line><line stroke-width="2.8284271247461903" x1="-9.997244307929702" y1="-111.69612358260052" x2="-35.24296125846951" y2="-72.52139898110592"></line><line stroke-width="1.4142135623730951" x1="-9.997244307929702" y1="-111.69612358260052" x2="-2.536592569818195" y2="-72.06653012555176"></line><line stroke-width="1.4142135623730951" x1="-9.997244307929702" y1="-111.69612358260052" x2="-73.23863906523876" y2="-89.16780169200094"></line><line stroke-width="1" x1="-9.997244307929702" y1="-111.69612358260052" x2="-29.110212757932224" y2="-114.2599116971025"></line><line stroke-width="1" x1="-9.997244307929702" y1="-111.69612358260052" x2="15.731745763495626" y2="-42.85720973754051"></line><line stroke-width="1.4142135623730951" x1="-9.997244307929702" y1="-111.69612358260052" x2="-48.16853921185888" y2="-109.52248336046036"></line><line stroke-width="2" x1="-9.997244307929702" y1="-111.69612358260052" x2="-7.470575220850114" y2="-91.69241380103135"></line><line stroke-width="1.7320508075688772" x1="-9.997244307929702" y1="-111.69612358260052" x2="-64.60259568992711" y2="-62.85342711263991"></line><line stroke-width="2.23606797749979" x1="-9.997244307929702" y1="-111.69612358260052" x2="-20.194196167352604" y2="-80.16818624894267"></line><line stroke-width="1" x1="-30.946536895437806" y1="-49.714949259402346" x2="-57.0014896606309" y2="-79.93206350901586"></line><line stroke-width="2.23606797749979" x1="-53.245788206253195" y1="33.728010806897956" x2="-21.044382248392303" y2="7.871919821851519"></line><line stroke-width="1" x1="-46.83081049002004" y1="6.340326634113792" x2="20.003813148355757" y2="14.548625620760275"></line><line stroke-width="1.4142135623730951" x1="-46.83081049002004" y1="6.340326634113792" x2="-30.946536895437806" y2="-49.714949259402346"></line><line stroke-width="1" x1="-46.83081049002004" y1="6.340326634113792" x2="15.731745763495626" y2="-42.85720973754051"></line><line stroke-width="1.4142135623730951" x1="-46.83081049002004" y1="6.340326634113792" x2="-46.522856882728114" y2="-29.124751215370875"></line><line stroke-width="1" x1="-46.83081049002004" y1="6.340326634113792" x2="-46.83081049002004" y2="6.340326634113792"></line><line stroke-width="1" x1="-46.83081049002004" y1="6.340326634113792" x2="1.1714436297934208" y2="6.3382034073107185"></line><line stroke-width="1.4142135623730951" x1="-46.83081049002004" y1="6.340326634113792" x2="-30.835666368577176" y2="-25.240278616225527"></line><line stroke-width="3.872983346207417" x1="-46.83081049002004" y1="6.340326634113792" x2="-8.598695574558233" y2="-5.035312776523463"></line><line stroke-width="3.872983346207417" x1="-46.83081049002004" y1="6.340326634113792" x2="20.247062843990342" y2="-19.920530961952778"></line><line stroke-width="3.872983346207417" x1="-46.83081049002004" y1="6.340326634113792" x2="9.402191964079789" y2="-19.98397674399521"></line><line stroke-width="3" x1="38.99878106985226" y1="-72.88912926020451" x2="62.64498196569818" y2="-57.31613129375514"></line><line stroke-width="3" x1="38.99878106985226" y1="-72.88912926020451" x2="-2.536592569818195" y2="-72.06653012555176"></line><line stroke-width="3.872983346207417" x1="38.99878106985226" y1="-72.88912926020451" x2="15.731745763495626" y2="-42.85720973754051"></line><line stroke-width="1" x1="38.99878106985226" y1="-72.88912926020451" x2="16.517443132570712" y2="-60.16609443997262"></line><line stroke-width="3.872983346207417" x1="38.99878106985226" y1="-72.88912926020451" x2="34.77665953349959" y2="-25.151173837272893"></line><line stroke-width="3.3166247903554" x1="38.99878106985226" y1="-72.88912926020451" x2="20.247062843990342" y2="-19.920530961952778"></line><line stroke-width="3.4641016151377544" x1="38.99878106985226" y1="-72.88912926020451" x2="-8.01486640411948" y2="-29.04952538838719"></line><line stroke-width="3.4641016151377544" x1="38.99878106985226" y1="-72.88912926020451" x2="9.402191964079789" y2="-19.98397674399521"></line><line stroke-width="1" x1="1.1714436297934208" y1="6.3382034073107185" x2="-2.536592569818195" y2="-72.06653012555176"></line><line stroke-width="2.23606797749979" x1="1.1714436297934208" y1="6.3382034073107185" x2="-8.598695574558233" y2="-5.035312776523463"></line><line stroke-width="4.47213595499958" x1="1.1714436297934208" y1="6.3382034073107185" x2="34.77665953349959" y2="-25.151173837272893"></line><line stroke-width="2.23606797749979" x1="1.1714436297934208" y1="6.3382034073107185" x2="-8.01486640411948" y2="-29.04952538838719"></line><line stroke-width="2.23606797749979" x1="1.1714436297934208" y1="6.3382034073107185" x2="-21.044382248392303" y2="7.871919821851519"></line><line stroke-width="1" x1="-73.23863906523876" y1="-89.16780169200094" x2="-50.41082920683675" y2="-94.84944740032928"></line><line stroke-width="2.23606797749979" x1="-73.23863906523876" y1="-89.16780169200094" x2="-64.60259568992711" y2="-62.85342711263991"></line><line stroke-width="2" x1="-73.23863906523876" y1="-89.16780169200094" x2="-20.194196167352604" y2="-80.16818624894267"></line><line stroke-width="1.4142135623730951" x1="-73.23863906523876" y1="-89.16780169200094" x2="-35.24296125846951" y2="-72.52139898110592"></line><line stroke-width="1.4142135623730951" x1="-73.23863906523876" y1="-89.16780169200094" x2="-2.536592569818195" y2="-72.06653012555176"></line><line stroke-width="1" x1="-73.23863906523876" y1="-89.16780169200094" x2="-57.0014896606309" y2="-79.93206350901586"></line><line stroke-width="1" x1="-73.23863906523876" y1="-89.16780169200094" x2="-29.110212757932224" y2="-114.2599116971025"></line><line stroke-width="1.4142135623730951" x1="-73.23863906523876" y1="-89.16780169200094" x2="-48.16853921185888" y2="-109.52248336046036"></line><line stroke-width="2.6457513110645907" x1="-73.23863906523876" y1="-89.16780169200094" x2="-50.41082920683675" y2="-94.84944740032928"></line><line stroke-width="1.4142135623730951" x1="-73.23863906523876" y1="-89.16780169200094" x2="-7.470575220850114" y2="-91.69241380103135"></line><line stroke-width="2.6457513110645907" x1="-73.23863906523876" y1="-89.16780169200094" x2="-64.60259568992711" y2="-62.85342711263991"></line><line stroke-width="2.23606797749979" x1="-73.23863906523876" y1="-89.16780169200094" x2="-20.194196167352604" y2="-80.16818624894267"></line><line stroke-width="3.1622776601683795" x1="-42.39759435463935" y1="-13.33089427335668" x2="-8.598695574558233" y2="-5.035312776523463"></line><line stroke-width="5" x1="-42.39759435463935" y1="-13.33089427335668" x2="-8.01486640411948" y2="-29.04952538838719"></line><line stroke-width="4.47213595499958" x1="-42.39759435463935" y1="-13.33089427335668" x2="9.402191964079789" y2="-19.98397674399521"></line><line stroke-width="1" x1="-57.0014896606309" y1="-79.93206350901586" x2="-35.24296125846951" y2="-72.52139898110592"></line><line stroke-width="1" x1="-57.0014896606309" y1="-79.93206350901586" x2="-9.997244307929702" y2="-111.69612358260052"></line><line stroke-width="1.4142135623730951" x1="-57.0014896606309" y1="-79.93206350901586" x2="-73.23863906523876" y2="-89.16780169200094"></line><line stroke-width="1" x1="-57.0014896606309" y1="-79.93206350901586" x2="-29.110212757932224" y2="-114.2599116971025"></line><line stroke-width="1.7320508075688772" x1="-57.0014896606309" y1="-79.93206350901586" x2="-48.16853921185888" y2="-109.52248336046036"></line><line stroke-width="1.4142135623730951" x1="-57.0014896606309" y1="-79.93206350901586" x2="-50.41082920683675" y2="-94.84944740032928"></line><line stroke-width="1" x1="-57.0014896606309" y1="-79.93206350901586" x2="-64.60259568992711" y2="-62.85342711263991"></line><line stroke-width="1.4142135623730951" x1="-57.0014896606309" y1="-79.93206350901586" x2="-20.194196167352604" y2="-80.16818624894267"></line><line stroke-width="1.7320508075688772" x1="-57.0014896606309" y1="-79.93206350901586" x2="-7.470575220850114" y2="-91.69241380103135"></line><line stroke-width="1.7320508075688772" x1="-57.0014896606309" y1="-79.93206350901586" x2="-20.194196167352604" y2="-80.16818624894267"></line><line stroke-width="1" x1="-3.6975682832768175" y1="-46.192078491225736" x2="19.208088864989126" y2="45.19793908347908"></line><line stroke-width="3.1622776601683795" x1="-3.6975682832768175" y1="-46.192078491225736" x2="-8.598695574558233" y2="-5.035312776523463"></line><line stroke-width="2.23606797749979" x1="-3.6975682832768175" y1="-46.192078491225736" x2="20.247062843990342" y2="-19.920530961952778"></line><line stroke-width="3.1622776601683795" x1="-3.6975682832768175" y1="-46.192078491225736" x2="9.402191964079789" y2="-19.98397674399521"></line><line stroke-width="3.872983346207417" x1="-3.6975682832768175" y1="-46.192078491225736" x2="-21.044382248392303" y2="7.871919821851519"></line><line stroke-width="1" x1="60.43629913100297" y1="-2.786384672973305" x2="1.1714436297934208" y2="6.3382034073107185"></line><line stroke-width="1" x1="60.43629913100297" y1="-2.786384672973305" x2="-7.470575220850114" y2="-91.69241380103135"></line><line stroke-width="1" x1="60.43629913100297" y1="-2.786384672973305" x2="20.003813148355757" y2="14.548625620760275"></line><line stroke-width="1.4142135623730951" x1="60.43629913100297" y1="-2.786384672973305" x2="29.399624362046968" y2="32.64560328457815"></line><line stroke-width="1.4142135623730951" x1="60.43629913100297" y1="-2.786384672973305" x2="40.22997837757187" y2="43.19245330691288"></line><line stroke-width="1.7320508075688772" x1="60.43629913100297" y1="-2.786384672973305" x2="55.65365602603024" y2="16.808126009214195"></line><line stroke-width="3.872983346207417" x1="60.43629913100297" y1="-2.786384672973305" x2="-8.598695574558233" y2="-5.035312776523463"></line><line stroke-width="5" x1="60.43629913100297" y1="-2.786384672973305" x2="34.77665953349959" y2="-25.151173837272893"></line><line stroke-width="2.23606797749979" x1="60.43629913100297" y1="-2.786384672973305" x2="-8.01486640411948" y2="-29.04952538838719"></line><line stroke-width="3.872983346207417" x1="60.43629913100297" y1="-2.786384672973305" x2="9.402191964079789" y2="-19.98397674399521"></line><line stroke-width="3.872983346207417" x1="60.43629913100297" y1="-2.786384672973305" x2="-21.044382248392303" y2="7.871919821851519"></line><line stroke-width="1" x1="19.26988467497365" y1="-86.7280162724171" x2="38.99878106985226" y2="-72.88912926020451"></line><line stroke-width="1" x1="19.26988467497365" y1="-86.7280162724171" x2="-3.6975682832768175" y2="-46.192078491225736"></line><line stroke-width="1.7320508075688772" x1="19.26988467497365" y1="-86.7280162724171" x2="-20.194196167352604" y2="-80.16818624894267"></line><line stroke-width="1" x1="19.26988467497365" y1="-86.7280162724171" x2="-30.946536895437806" y2="-49.714949259402346"></line><line stroke-width="1.4142135623730951" x1="19.26988467497365" y1="-86.7280162724171" x2="38.99878106985226" y2="-72.88912926020451"></line><line stroke-width="2" x1="19.26988467497365" y1="-86.7280162724171" x2="-3.6975682832768175" y2="-46.192078491225736"></line><line stroke-width="2" x1="19.26988467497365" y1="-86.7280162724171" x2="16.517443132570712" y2="-60.16609443997262"></line><line stroke-width="1.4142135623730951" x1="19.26988467497365" y1="-86.7280162724171" x2="-20.194196167352604" y2="-80.16818624894267"></line><line stroke-width="3.1622776601683795" x1="19.26988467497365" y1="-86.7280162724171" x2="20.247062843990342" y2="-19.920530961952778"></line><line stroke-width="2.23606797749979" x1="19.26988467497365" y1="-86.7280162724171" x2="9.402191964079789" y2="-19.98397674399521"></line><line stroke-width="1.7320508075688772" x1="-29.110212757932224" y1="-114.2599116971025" x2="-35.24296125846951" y2="-72.52139898110592"></line><line stroke-width="2" x1="-29.110212757932224" y1="-114.2599116971025" x2="-2.536592569818195" y2="-72.06653012555176"></line><line stroke-width="1.7320508075688772" x1="-29.110212757932224" y1="-114.2599116971025" x2="-9.997244307929702" y2="-111.69612358260052"></line><line stroke-width="1.7320508075688772" x1="-29.110212757932224" y1="-114.2599116971025" x2="-48.16853921185888" y2="-109.52248336046036"></line><line stroke-width="1" x1="-29.110212757932224" y1="-114.2599116971025" x2="-7.470575220850114" y2="-91.69241380103135"></line><line stroke-width="1" x1="-29.110212757932224" y1="-114.2599116971025" x2="-20.194196167352604" y2="-80.16818624894267"></line><line stroke-width="1" x1="15.731745763495626" y1="-42.85720973754051" x2="-2.0199244079270504" y2="30.62222957156114"></line><line stroke-width="1.7320508075688772" x1="15.731745763495626" y1="-42.85720973754051" x2="-2.536592569818195" y2="-72.06653012555176"></line><line stroke-width="4.69041575982343" x1="15.731745763495626" y1="-42.85720973754051" x2="38.99878106985226" y2="-72.88912926020451"></line><line stroke-width="1" x1="15.731745763495626" y1="-42.85720973754051" x2="-64.60259568992711" y2="-62.85342711263991"></line><line stroke-width="1" x1="15.731745763495626" y1="-42.85720973754051" x2="44.01222525005368" y2="19.997645756731313"></line><line stroke-width="3" x1="15.731745763495626" y1="-42.85720973754051" x2="62.64498196569818" y2="-57.31613129375514"></line><line stroke-width="1" x1="-1.184009965734196" y1="64.3407941521858" x2="15.22629161449113" y2="28.40121262225237"></line><line stroke-width="1" x1="-1.184009965734196" y1="64.3407941521858" x2="-2.0199244079270504" y2="30.62222957156114"></line><line stroke-width="1.4142135623730951" x1="-1.184009965734196" y1="64.3407941521858" x2="19.208088864989126" y2="45.19793908347908"></line><line stroke-width="1.7320508075688772" x1="-1.184009965734196" y1="64.3407941521858" x2="12.63466576822691" y2="3.3865038564224808"></line><line stroke-width="2.8284271247461903" x1="-1.184009965734196" y1="64.3407941521858" x2="20.247062843990342" y2="-19.920530961952778"></line><line stroke-width="2.8284271247461903" x1="-1.184009965734196" y1="64.3407941521858" x2="-21.044382248392303" y2="7.871919821851519"></line><line stroke-width="2.23606797749979" x1="39.26416121822598" y1="5.532962227427189" x2="34.77665953349959" y2="-25.151173837272893"></line><line stroke-width="5.477225575051661" x1="39.26416121822598" y1="5.532962227427189" x2="20.247062843990342" y2="-19.920530961952778"></line><line stroke-width="4.47213595499958" x1="39.26416121822598" y1="5.532962227427189" x2="-8.01486640411948" y2="-29.04952538838719"></line><line stroke-width="1.4142135623730951" x1="40.22997837757187" y1="43.19245330691288" x2="29.399624362046968" y2="32.64560328457815"></line><line stroke-width="1.4142135623730951" x1="40.22997837757187" y1="43.19245330691288" x2="60.43629913100297" y2="-2.786384672973305"></line><line stroke-width="1" x1="40.22997837757187" y1="43.19245330691288" x2="15.731745763495626" y2="-42.85720973754051"></line><line stroke-width="1" x1="40.22997837757187" y1="43.19245330691288" x2="55.65365602603024" y2="16.808126009214195"></line><line stroke-width="1" x1="40.22997837757187" y1="43.19245330691288" x2="36.5824878461455" y2="79.63466230204645"></line><line stroke-width="1" x1="40.22997837757187" y1="43.19245330691288" x2="-1.184009965734196" y2="64.3407941521858"></line><line stroke-width="3.872983346207417" x1="40.22997837757187" y1="43.19245330691288" x2="-8.598695574558233" y2="-5.035312776523463"></line><line stroke-width="3.872983346207417" x1="40.22997837757187" y1="43.19245330691288" x2="34.77665953349959" y2="-25.151173837272893"></line><line stroke-width="3.872983346207417" x1="40.22997837757187" y1="43.19245330691288" x2="9.402191964079789" y2="-19.98397674399521"></line><line stroke-width="3.872983346207417" x1="40.22997837757187" y1="43.19245330691288" x2="-21.044382248392303" y2="7.871919821851519"></line><line stroke-width="1" x1="-48.16853921185888" y1="-109.52248336046036" x2="-35.24296125846951" y2="-72.52139898110592"></line><line stroke-width="2" x1="-48.16853921185888" y1="-109.52248336046036" x2="-2.536592569818195" y2="-72.06653012555176"></line><line stroke-width="2" x1="-48.16853921185888" y1="-109.52248336046036" x2="-9.997244307929702" y2="-111.69612358260052"></line><line stroke-width="2" x1="-48.16853921185888" y1="-109.52248336046036" x2="-29.110212757932224" y2="-114.2599116971025"></line><line stroke-width="1.7320508075688772" x1="-48.16853921185888" y1="-109.52248336046036" x2="-20.194196167352604" y2="-80.16818624894267"></line><line stroke-width="1" x1="-48.16853921185888" y1="-109.52248336046036" x2="-35.24296125846951" y2="-72.52139898110592"></line><line stroke-width="1" x1="-48.16853921185888" y1="-109.52248336046036" x2="-2.536592569818195" y2="-72.06653012555176"></line><line stroke-width="1" x1="-48.16853921185888" y1="-109.52248336046036" x2="-73.23863906523876" y2="-89.16780169200094"></line><line stroke-width="2.23606797749979" x1="-48.16853921185888" y1="-109.52248336046036" x2="-29.110212757932224" y2="-114.2599116971025"></line><line stroke-width="1" x1="-48.16853921185888" y1="-109.52248336046036" x2="-64.60259568992711" y2="-62.85342711263991"></line><line stroke-width="1" x1="-48.16853921185888" y1="-109.52248336046036" x2="-20.194196167352604" y2="-80.16818624894267"></line><line stroke-width="1" x1="19.208088864989126" y1="45.19793908347908" x2="55.43415993167722" y2="-10.90608630045542"></line><line stroke-width="1.7320508075688772" x1="19.208088864989126" y1="45.19793908347908" x2="-1.184009965734196" y2="64.3407941521858"></line><line stroke-width="1" x1="19.208088864989126" y1="45.19793908347908" x2="12.63466576822691" y2="3.3865038564224808"></line><line stroke-width="1" x1="19.208088864989126" y1="45.19793908347908" x2="-17.5403252489699" y2="46.15628255340459"></line><line stroke-width="1.4142135623730951" x1="19.208088864989126" y1="45.19793908347908" x2="36.5824878461455" y2="79.63466230204645"></line><line stroke-width="2.8284271247461903" x1="19.208088864989126" y1="45.19793908347908" x2="20.247062843990342" y2="-19.920530961952778"></line><line stroke-width="2.449489742783178" x1="19.208088864989126" y1="45.19793908347908" x2="-21.044382248392303" y2="7.871919821851519"></line><line stroke-width="1" x1="-50.41082920683675" y1="-94.84944740032928" x2="-35.24296125846951" y2="-72.52139898110592"></line><line stroke-width="2" x1="-50.41082920683675" y1="-94.84944740032928" x2="-73.23863906523876" y2="-89.16780169200094"></line><line stroke-width="2.6457513110645907" x1="-50.41082920683675" y1="-94.84944740032928" x2="-64.60259568992711" y2="-62.85342711263991"></line><line stroke-width="1.4142135623730951" x1="-50.41082920683675" y1="-94.84944740032928" x2="-20.194196167352604" y2="-80.16818624894267"></line><line stroke-width="1" x1="-50.41082920683675" y1="-94.84944740032928" x2="-35.24296125846951" y2="-72.52139898110592"></line><line stroke-width="1.4142135623730951" x1="-50.41082920683675" y1="-94.84944740032928" x2="-9.997244307929702" y2="-111.69612358260052"></line><line stroke-width="2.6457513110645907" x1="-50.41082920683675" y1="-94.84944740032928" x2="-73.23863906523876" y2="-89.16780169200094"></line><line stroke-width="1" x1="-50.41082920683675" y1="-94.84944740032928" x2="-29.110212757932224" y2="-114.2599116971025"></line><line stroke-width="1" x1="-50.41082920683675" y1="-94.84944740032928" x2="-48.16853921185888" y2="-109.52248336046036"></line><line stroke-width="1" x1="-50.41082920683675" y1="-94.84944740032928" x2="-7.470575220850114" y2="-91.69241380103135"></line><line stroke-width="2.449489742783178" x1="-50.41082920683675" y1="-94.84944740032928" x2="-64.60259568992711" y2="-62.85342711263991"></line><line stroke-width="2" x1="-50.41082920683675" y1="-94.84944740032928" x2="-20.194196167352604" y2="-80.16818624894267"></line><line stroke-width="1.4142135623730951" x1="55.65365602603024" y1="16.808126009214195" x2="29.399624362046968" y2="32.64560328457815"></line><line stroke-width="1.4142135623730951" x1="55.65365602603024" y1="16.808126009214195" x2="60.43629913100297" y2="-2.786384672973305"></line><line stroke-width="1.7320508075688772" x1="55.65365602603024" y1="16.808126009214195" x2="40.22997837757187" y2="43.19245330691288"></line><line stroke-width="1" x1="55.65365602603024" y1="16.808126009214195" x2="19.208088864989126" y2="45.19793908347908"></line><line stroke-width="3.872983346207417" x1="55.65365602603024" y1="16.808126009214195" x2="-8.598695574558233" y2="-5.035312776523463"></line><line stroke-width="3.872983346207417" x1="55.65365602603024" y1="16.808126009214195" x2="34.77665953349959" y2="-25.151173837272893"></line><line stroke-width="3.872983346207417" x1="55.65365602603024" y1="16.808126009214195" x2="9.402191964079789" y2="-19.98397674399521"></line><line stroke-width="3.872983346207417" x1="55.65365602603024" y1="16.808126009214195" x2="-21.044382248392303" y2="7.871919821851519"></line><line stroke-width="2.23606797749979" x1="44.01222525005368" y1="19.997645756731313" x2="-8.598695574558233" y2="-5.035312776523463"></line><line stroke-width="4.47213595499958" x1="44.01222525005368" y1="19.997645756731313" x2="34.77665953349959" y2="-25.151173837272893"></line><line stroke-width="3.1622776601683795" x1="44.01222525005368" y1="19.997645756731313" x2="20.247062843990342" y2="-19.920530961952778"></line><line stroke-width="2.23606797749979" x1="44.01222525005368" y1="19.997645756731313" x2="9.402191964079789" y2="-19.98397674399521"></line><line stroke-width="3.872983346207417" x1="44.01222525005368" y1="19.997645756731313" x2="-21.044382248392303" y2="7.871919821851519"></line><line stroke-width="1" x1="-46.522856882728114" y1="-29.124751215370875" x2="-46.83081049002004" y2="6.340326634113792"></line><line stroke-width="1" x1="-46.522856882728114" y1="-29.124751215370875" x2="-64.60259568992711" y2="-62.85342711263991"></line><line stroke-width="4.47213595499958" x1="-46.522856882728114" y1="-29.124751215370875" x2="-8.598695574558233" y2="-5.035312776523463"></line><line stroke-width="3.872983346207417" x1="-46.522856882728114" y1="-29.124751215370875" x2="20.247062843990342" y2="-19.920530961952778"></line><line stroke-width="2.23606797749979" x1="-46.522856882728114" y1="-29.124751215370875" x2="-8.01486640411948" y2="-29.04952538838719"></line><line stroke-width="4.47213595499958" x1="-46.522856882728114" y1="-29.124751215370875" x2="9.402191964079789" y2="-19.98397674399521"></line><line stroke-width="1" x1="-7.470575220850114" y1="-91.69241380103135" x2="-35.24296125846951" y2="-72.52139898110592"></line><line stroke-width="1" x1="-7.470575220850114" y1="-91.69241380103135" x2="-2.536592569818195" y2="-72.06653012555176"></line><line stroke-width="1" x1="-7.470575220850114" y1="-91.69241380103135" x2="-46.83081049002004" y2="6.340326634113792"></line><line stroke-width="3.1622776601683795" x1="-7.470575220850114" y1="-91.69241380103135" x2="-57.0014896606309" y2="-79.93206350901586"></line><line stroke-width="1" x1="-7.470575220850114" y1="-91.69241380103135" x2="-50.41082920683675" y2="-94.84944740032928"></line><line stroke-width="1" x1="-7.470575220850114" y1="-91.69241380103135" x2="-64.60259568992711" y2="-62.85342711263991"></line><line stroke-width="2.6457513110645907" x1="-7.470575220850114" y1="-91.69241380103135" x2="-20.194196167352604" y2="-80.16818624894267"></line><line stroke-width="1" x1="-7.470575220850114" y1="-91.69241380103135" x2="-35.24296125846951" y2="-72.52139898110592"></line><line stroke-width="1" x1="-7.470575220850114" y1="-91.69241380103135" x2="-2.536592569818195" y2="-72.06653012555176"></line><line stroke-width="1.4142135623730951" x1="-7.470575220850114" y1="-91.69241380103135" x2="-9.997244307929702" y2="-111.69612358260052"></line><line stroke-width="1.4142135623730951" x1="-7.470575220850114" y1="-91.69241380103135" x2="-29.110212757932224" y2="-114.2599116971025"></line><line stroke-width="1.7320508075688772" x1="-7.470575220850114" y1="-91.69241380103135" x2="-48.16853921185888" y2="-109.52248336046036"></line><line stroke-width="1.7320508075688772" x1="-7.470575220850114" y1="-91.69241380103135" x2="-50.41082920683675" y2="-94.84944740032928"></line><line stroke-width="1" x1="-7.470575220850114" y1="-91.69241380103135" x2="-64.60259568992711" y2="-62.85342711263991"></line><line stroke-width="1.4142135623730951" x1="-7.470575220850114" y1="-91.69241380103135" x2="-20.194196167352604" y2="-80.16818624894267"></line><line stroke-width="2.23606797749979" x1="-7.470575220850114" y1="-91.69241380103135" x2="-21.044382248392303" y2="7.871919821851519"></line><line stroke-width="1" x1="-64.60259568992711" y1="-62.85342711263991" x2="-35.24296125846951" y2="-72.52139898110592"></line><line stroke-width="1" x1="-64.60259568992711" y1="-62.85342711263991" x2="-2.536592569818195" y2="-72.06653012555176"></line><line stroke-width="2" x1="-64.60259568992711" y1="-62.85342711263991" x2="-9.997244307929702" y2="-111.69612358260052"></line><line stroke-width="2.23606797749979" x1="-64.60259568992711" y1="-62.85342711263991" x2="-73.23863906523876" y2="-89.16780169200094"></line><line stroke-width="2" x1="-64.60259568992711" y1="-62.85342711263991" x2="-29.110212757932224" y2="-114.2599116971025"></line><line stroke-width="1" x1="-64.60259568992711" y1="-62.85342711263991" x2="-48.16853921185888" y2="-109.52248336046036"></line><line stroke-width="2.449489742783178" x1="-64.60259568992711" y1="-62.85342711263991" x2="-50.41082920683675" y2="-94.84944740032928"></line><line stroke-width="1" x1="-64.60259568992711" y1="-62.85342711263991" x2="-7.470575220850114" y2="-91.69241380103135"></line><line stroke-width="1" x1="-64.60259568992711" y1="-62.85342711263991" x2="-30.835666368577176" y2="-25.240278616225527"></line><line stroke-width="2.6457513110645907" x1="-64.60259568992711" y1="-62.85342711263991" x2="-20.194196167352604" y2="-80.16818624894267"></line><line stroke-width="2.23606797749979" x1="-64.60259568992711" y1="-62.85342711263991" x2="-73.23863906523876" y2="-89.16780169200094"></line><line stroke-width="1.7320508075688772" x1="-64.60259568992711" y1="-62.85342711263991" x2="-50.41082920683675" y2="-94.84944740032928"></line><line stroke-width="1.4142135623730951" x1="-64.60259568992711" y1="-62.85342711263991" x2="-20.194196167352604" y2="-80.16818624894267"></line><line stroke-width="1" x1="12.63466576822691" y1="3.3865038564224808" x2="19.208088864989126" y2="45.19793908347908"></line><line stroke-width="1" x1="12.63466576822691" y1="3.3865038564224808" x2="-20.194196167352604" y2="-80.16818624894267"></line><line stroke-width="1" x1="12.63466576822691" y1="3.3865038564224808" x2="19.208088864989126" y2="45.19793908347908"></line><line stroke-width="2.23606797749979" x1="12.63466576822691" y1="3.3865038564224808" x2="34.77665953349959" y2="-25.151173837272893"></line><line stroke-width="2.8284271247461903" x1="12.63466576822691" y1="3.3865038564224808" x2="20.247062843990342" y2="-19.920530961952778"></line><line stroke-width="3.3166247903554" x1="12.63466576822691" y1="3.3865038564224808" x2="-8.01486640411948" y2="-29.04952538838719"></line><line stroke-width="3.7416573867739413" x1="12.63466576822691" y1="3.3865038564224808" x2="-21.044382248392303" y2="7.871919821851519"></line><line stroke-width="2.23606797749979" x1="16.517443132570712" y1="-60.16609443997262" x2="38.99878106985226" y2="-72.88912926020451"></line><line stroke-width="2" x1="16.517443132570712" y1="-60.16609443997262" x2="-3.6975682832768175" y2="-46.192078491225736"></line><line stroke-width="1.4142135623730951" x1="16.517443132570712" y1="-60.16609443997262" x2="19.26988467497365" y2="-86.7280162724171"></line><line stroke-width="1" x1="16.517443132570712" y1="-60.16609443997262" x2="-64.60259568992711" y2="-62.85342711263991"></line><line stroke-width="1.4142135623730951" x1="16.517443132570712" y1="-60.16609443997262" x2="-20.194196167352604" y2="-80.16818624894267"></line><line stroke-width="1.7320508075688772" x1="16.517443132570712" y1="-60.16609443997262" x2="38.99878106985226" y2="-72.88912926020451"></line><line stroke-width="1.7320508075688772" x1="16.517443132570712" y1="-60.16609443997262" x2="-3.6975682832768175" y2="-46.192078491225736"></line><line stroke-width="1.7320508075688772" x1="16.517443132570712" y1="-60.16609443997262" x2="19.26988467497365" y2="-86.7280162724171"></line><line stroke-width="1.4142135623730951" x1="16.517443132570712" y1="-60.16609443997262" x2="19.208088864989126" y2="45.19793908347908"></line><line stroke-width="1" x1="16.517443132570712" y1="-60.16609443997262" x2="-46.522856882728114" y2="-29.124751215370875"></line><line stroke-width="1.4142135623730951" x1="16.517443132570712" y1="-60.16609443997262" x2="-20.194196167352604" y2="-80.16818624894267"></line><line stroke-width="5.196152422706632" x1="16.517443132570712" y1="-60.16609443997262" x2="34.77665953349959" y2="-25.151173837272893"></line><line stroke-width="5.196152422706632" x1="16.517443132570712" y1="-60.16609443997262" x2="20.247062843990342" y2="-19.920530961952778"></line><line stroke-width="5" x1="16.517443132570712" y1="-60.16609443997262" x2="-8.01486640411948" y2="-29.04952538838719"></line><line stroke-width="4.69041575982343" x1="16.517443132570712" y1="-60.16609443997262" x2="9.402191964079789" y2="-19.98397674399521"></line><line stroke-width="2.23606797749979" x1="16.517443132570712" y1="-60.16609443997262" x2="-21.044382248392303" y2="7.871919821851519"></line><line stroke-width="1" x1="-30.835666368577176" y1="-25.240278616225527" x2="38.99878106985226" y2="-72.88912926020451"></line><line stroke-width="1" x1="-30.835666368577176" y1="-25.240278616225527" x2="-13.499466031371265" y2="15.887981338476541"></line><line stroke-width="1" x1="-30.835666368577176" y1="-25.240278616225527" x2="1.1714436297934208" y2="6.3382034073107185"></line><line stroke-width="3.872983346207417" x1="-30.835666368577176" y1="-25.240278616225527" x2="-8.598695574558233" y2="-5.035312776523463"></line><line stroke-width="3.1622776601683795" x1="-30.835666368577176" y1="-25.240278616225527" x2="34.77665953349959" y2="-25.151173837272893"></line><line stroke-width="2.23606797749979" x1="-30.835666368577176" y1="-25.240278616225527" x2="20.247062843990342" y2="-19.920530961952778"></line><line stroke-width="2.23606797749979" x1="-30.835666368577176" y1="-25.240278616225527" x2="-8.01486640411948" y2="-29.04952538838719"></line><line stroke-width="4.47213595499958" x1="-30.835666368577176" y1="-25.240278616225527" x2="-21.044382248392303" y2="7.871919821851519"></line><line stroke-width="2" x1="-20.194196167352604" y1="-80.16818624894267" x2="-9.997244307929702" y2="-111.69612358260052"></line><line stroke-width="2.449489742783178" x1="-20.194196167352604" y1="-80.16818624894267" x2="38.99878106985226" y2="-72.88912926020451"></line><line stroke-width="1.4142135623730951" x1="-20.194196167352604" y1="-80.16818624894267" x2="-73.23863906523876" y2="-89.16780169200094"></line><line stroke-width="1.7320508075688772" x1="-20.194196167352604" y1="-80.16818624894267" x2="-57.0014896606309" y2="-79.93206350901586"></line><line stroke-width="1.7320508075688772" x1="-20.194196167352604" y1="-80.16818624894267" x2="-3.6975682832768175" y2="-46.192078491225736"></line><line stroke-width="2.23606797749979" x1="-20.194196167352604" y1="-80.16818624894267" x2="19.26988467497365" y2="-86.7280162724171"></line><line stroke-width="1.4142135623730951" x1="-20.194196167352604" y1="-80.16818624894267" x2="-29.110212757932224" y2="-114.2599116971025"></line><line stroke-width="1.7320508075688772" x1="-20.194196167352604" y1="-80.16818624894267" x2="-48.16853921185888" y2="-109.52248336046036"></line><line stroke-width="2.23606797749979" x1="-20.194196167352604" y1="-80.16818624894267" x2="-50.41082920683675" y2="-94.84944740032928"></line><line stroke-width="2.23606797749979" x1="-20.194196167352604" y1="-80.16818624894267" x2="-7.470575220850114" y2="-91.69241380103135"></line><line stroke-width="1.7320508075688772" x1="-20.194196167352604" y1="-80.16818624894267" x2="-64.60259568992711" y2="-62.85342711263991"></line><line stroke-width="1" x1="-20.194196167352604" y1="-80.16818624894267" x2="16.517443132570712" y2="-60.16609443997262"></line><line stroke-width="3" x1="-20.194196167352604" y1="-80.16818624894267" x2="-35.24296125846951" y2="-72.52139898110592"></line><line stroke-width="2.449489742783178" x1="-20.194196167352604" y1="-80.16818624894267" x2="-2.536592569818195" y2="-72.06653012555176"></line><line stroke-width="2.8284271247461903" x1="-20.194196167352604" y1="-80.16818624894267" x2="-9.997244307929702" y2="-111.69612358260052"></line><line stroke-width="1.7320508075688772" x1="-20.194196167352604" y1="-80.16818624894267" x2="38.99878106985226" y2="-72.88912926020451"></line><line stroke-width="2.23606797749979" x1="-20.194196167352604" y1="-80.16818624894267" x2="-73.23863906523876" y2="-89.16780169200094"></line><line stroke-width="2.6457513110645907" x1="-20.194196167352604" y1="-80.16818624894267" x2="-57.0014896606309" y2="-79.93206350901586"></line><line stroke-width="1.7320508075688772" x1="-20.194196167352604" y1="-80.16818624894267" x2="-3.6975682832768175" y2="-46.192078491225736"></line><line stroke-width="2.23606797749979" x1="-20.194196167352604" y1="-80.16818624894267" x2="19.26988467497365" y2="-86.7280162724171"></line><line stroke-width="2.23606797749979" x1="-20.194196167352604" y1="-80.16818624894267" x2="-29.110212757932224" y2="-114.2599116971025"></line><line stroke-width="1.7320508075688772" x1="-20.194196167352604" y1="-80.16818624894267" x2="-48.16853921185888" y2="-109.52248336046036"></line><line stroke-width="2.449489742783178" x1="-20.194196167352604" y1="-80.16818624894267" x2="-50.41082920683675" y2="-94.84944740032928"></line><line stroke-width="2.6457513110645907" x1="-20.194196167352604" y1="-80.16818624894267" x2="-7.470575220850114" y2="-91.69241380103135"></line><line stroke-width="2.449489742783178" x1="-20.194196167352604" y1="-80.16818624894267" x2="-64.60259568992711" y2="-62.85342711263991"></line><line stroke-width="1.4142135623730951" x1="-20.194196167352604" y1="-80.16818624894267" x2="16.517443132570712" y2="-60.16609443997262"></line><line stroke-width="2.23606797749979" x1="-20.194196167352604" y1="-80.16818624894267" x2="-8.598695574558233" y2="-5.035312776523463"></line><line stroke-width="3.4641016151377544" x1="-20.194196167352604" y1="-80.16818624894267" x2="34.77665953349959" y2="-25.151173837272893"></line><line stroke-width="3.4641016151377544" x1="-20.194196167352604" y1="-80.16818624894267" x2="20.247062843990342" y2="-19.920530961952778"></line><line stroke-width="3.872983346207417" x1="-20.194196167352604" y1="-80.16818624894267" x2="-8.01486640411948" y2="-29.04952538838719"></line><line stroke-width="4.47213595499958" x1="-20.194196167352604" y1="-80.16818624894267" x2="9.402191964079789" y2="-19.98397674399521"></line><line stroke-width="1" x1="103.86718165111826" y1="13.426406584299691" x2="77.59746404774279" y2="22.047438732626"></line><line stroke-width="1" x1="103.86718165111826" y1="13.426406584299691" x2="77.59746404774279" y2="22.047438732626"></line><line stroke-width="1" x1="103.86718165111826" y1="13.426406584299691" x2="60.43629913100297" y2="-2.786384672973305"></line></g><g stroke="#fff" stroke-width="1.5"><path d="M5.046265044040321,0A5.046265044040321,5.046265044040321,0,1,1,-5.046265044040321,0A5.046265044040321,5.046265044040321,0,1,1,5.046265044040321,0" fill="#8c564b" transform="translate(-38.652071288630474,33.950101603112216)"><title>Person 476124</title></path><path d="M5.046265044040321,0A5.046265044040321,5.046265044040321,0,1,1,-5.046265044040321,0A5.046265044040321,5.046265044040321,0,1,1,5.046265044040321,0" fill="#8c564b" transform="translate(-17.5403252489699,46.15628255340459)"><title>Person 477769</title></path><path d="M5.046265044040321,0A5.046265044040321,5.046265044040321,0,1,1,-5.046265044040321,0A5.046265044040321,5.046265044040321,0,1,1,5.046265044040321,0" fill="#1f77b4" transform="translate(15.22629161449113,28.40121262225237)"><title>Person 479204</title></path><path d="M5.046265044040321,0A5.046265044040321,5.046265044040321,0,1,1,-5.046265044040321,0A5.046265044040321,5.046265044040321,0,1,1,5.046265044040321,0" fill="#8c564b" transform="translate(-50.619060764243756,-52.402502197050275)"><title>Person 480268</title></path><path d="M5.046265044040321,0A5.046265044040321,5.046265044040321,0,1,1,-5.046265044040321,0A5.046265044040321,5.046265044040321,0,1,1,5.046265044040321,0" fill="#8c564b" transform="translate(77.59746404774279,22.047438732626)"><title>Person 480375</title></path><path d="M5.046265044040321,0A5.046265044040321,5.046265044040321,0,1,1,-5.046265044040321,0A5.046265044040321,5.046265044040321,0,1,1,5.046265044040321,0" fill="#8c564b" transform="translate(55.43415993167722,-10.90608630045542)"><title>Person 500192</title></path><path d="M5.046265044040321,0A5.046265044040321,5.046265044040321,0,1,1,-5.046265044040321,0A5.046265044040321,5.046265044040321,0,1,1,5.046265044040321,0" fill="#7f7f7f" transform="translate(-47.72424965904981,-4.781040021644727)"><title>Person 510483</title></path><path d="M5.046265044040321,0A5.046265044040321,5.046265044040321,0,1,1,-5.046265044040321,0A5.046265044040321,5.046265044040321,0,1,1,5.046265044040321,0" fill="#9467bd" transform="translate(-2.0199244079270504,30.62222957156114)"><title>Person 513182</title></path><path d="M5.046265044040321,0A5.046265044040321,5.046265044040321,0,1,1,-5.046265044040321,0A5.046265044040321,5.046265044040321,0,1,1,5.046265044040321,0" fill="#d62728" transform="translate(54.37639996576403,-41.97780421179721)"><title>Person 463126</title></path><path d="M5.046265044040321,0A5.046265044040321,5.046265044040321,0,1,1,-5.046265044040321,0A5.046265044040321,5.046265044040321,0,1,1,5.046265044040321,0" fill="#8c564b" transform="translate(64.7526995183046,48.07664958526199)"><title>Person 516694</title></path><path d="M5.046265044040321,0A5.046265044040321,5.046265044040321,0,1,1,-5.046265044040321,0A5.046265044040321,5.046265044040321,0,1,1,5.046265044040321,0" fill="#9467bd" transform="translate(-35.24296125846951,-72.52139898110592)"><title>Person 519424</title></path><path d="M5.046265044040321,0A5.046265044040321,5.046265044040321,0,1,1,-5.046265044040321,0A5.046265044040321,5.046265044040321,0,1,1,5.046265044040321,0" fill="#9467bd" transform="translate(29.399624362046968,32.64560328457815)"><title>Person 534034</title></path><path d="M5.046265044040321,0A5.046265044040321,5.046265044040321,0,1,1,-5.046265044040321,0A5.046265044040321,5.046265044040321,0,1,1,5.046265044040321,0" fill="#1f77b4" transform="translate(20.003813148355757,14.548625620760275)"><title>Person 464459</title></path><path d="M5.046265044040321,0A5.046265044040321,5.046265044040321,0,1,1,-5.046265044040321,0A5.046265044040321,5.046265044040321,0,1,1,5.046265044040321,0" fill="#2ca02c" transform="translate(-13.294406642054513,-16.281890365468374)"><title>Person 538892</title></path><path d="M5.046265044040321,0A5.046265044040321,5.046265044040321,0,1,1,-5.046265044040321,0A5.046265044040321,5.046265044040321,0,1,1,5.046265044040321,0" fill="#2ca02c" transform="translate(-13.499466031371265,15.887981338476541)"><title>Person 542965</title></path><path d="M5.046265044040321,0A5.046265044040321,5.046265044040321,0,1,1,-5.046265044040321,0A5.046265044040321,5.046265044040321,0,1,1,5.046265044040321,0" fill="#d62728" transform="translate(-2.536592569818195,-72.06653012555176)"><title>Person 546999</title></path><path d="M5.046265044040321,0A5.046265044040321,5.046265044040321,0,1,1,-5.046265044040321,0A5.046265044040321,5.046265044040321,0,1,1,5.046265044040321,0" fill="#9467bd" transform="translate(-9.997244307929702,-111.69612358260052)"><title>Person 551810</title></path><path d="M5.046265044040321,0A5.046265044040321,5.046265044040321,0,1,1,-5.046265044040321,0A5.046265044040321,5.046265044040321,0,1,1,5.046265044040321,0" fill="#d62728" transform="translate(-30.946536895437806,-49.714949259402346)"><title>Person 561312</title></path><path d="M5.046265044040321,0A5.046265044040321,5.046265044040321,0,1,1,-5.046265044040321,0A5.046265044040321,5.046265044040321,0,1,1,5.046265044040321,0" fill="#7f7f7f" transform="translate(-53.245788206253195,33.728010806897956)"><title>Person 562598</title></path><path d="M5.046265044040321,0A5.046265044040321,5.046265044040321,0,1,1,-5.046265044040321,0A5.046265044040321,5.046265044040321,0,1,1,5.046265044040321,0" fill="#1f77b4" transform="translate(-46.83081049002004,6.340326634113792)"><title>Person 568093</title></path><path d="M5.046265044040321,0A5.046265044040321,5.046265044040321,0,1,1,-5.046265044040321,0A5.046265044040321,5.046265044040321,0,1,1,5.046265044040321,0" fill="#8c564b" transform="translate(38.99878106985226,-72.88912926020451)"><title>Person 570284</title></path><path d="M5.046265044040321,0A5.046265044040321,5.046265044040321,0,1,1,-5.046265044040321,0A5.046265044040321,5.046265044040321,0,1,1,5.046265044040321,0" fill="#2ca02c" transform="translate(1.1714436297934208,6.3382034073107185)"><title>Person 572391</title></path><path d="M5.046265044040321,0A5.046265044040321,5.046265044040321,0,1,1,-5.046265044040321,0A5.046265044040321,5.046265044040321,0,1,1,5.046265044040321,0" fill="#8c564b" transform="translate(-73.23863906523876,-89.16780169200094)"><title>Person 572500</title></path><path d="M5.046265044040321,0A5.046265044040321,5.046265044040321,0,1,1,-5.046265044040321,0A5.046265044040321,5.046265044040321,0,1,1,5.046265044040321,0" fill="#7f7f7f" transform="translate(-42.39759435463935,-13.33089427335668)"><title>Person 573206</title></path><path d="M5.046265044040321,0A5.046265044040321,5.046265044040321,0,1,1,-5.046265044040321,0A5.046265044040321,5.046265044040321,0,1,1,5.046265044040321,0" fill="#1f77b4" transform="translate(-57.0014896606309,-79.93206350901586)"><title>Person 581406</title></path><path d="M5.046265044040321,0A5.046265044040321,5.046265044040321,0,1,1,-5.046265044040321,0A5.046265044040321,5.046265044040321,0,1,1,5.046265044040321,0" fill="#8c564b" transform="translate(-3.6975682832768175,-46.192078491225736)"><title>Person 584811</title></path><path d="M5.046265044040321,0A5.046265044040321,5.046265044040321,0,1,1,-5.046265044040321,0A5.046265044040321,5.046265044040321,0,1,1,5.046265044040321,0" fill="#9467bd" transform="translate(60.43629913100297,-2.786384672973305)"><title>Person 585212</title></path><path d="M5.046265044040321,0A5.046265044040321,5.046265044040321,0,1,1,-5.046265044040321,0A5.046265044040321,5.046265044040321,0,1,1,5.046265044040321,0" fill="#8c564b" transform="translate(19.26988467497365,-86.7280162724171)"><title>Person 593266</title></path><path d="M5.046265044040321,0A5.046265044040321,5.046265044040321,0,1,1,-5.046265044040321,0A5.046265044040321,5.046265044040321,0,1,1,5.046265044040321,0" fill="#d62728" transform="translate(-29.110212757932224,-114.2599116971025)"><title>Person 594766</title></path><path d="M5.046265044040321,0A5.046265044040321,5.046265044040321,0,1,1,-5.046265044040321,0A5.046265044040321,5.046265044040321,0,1,1,5.046265044040321,0" fill="#9467bd" transform="translate(15.731745763495626,-42.85720973754051)"><title>Person 595104</title></path><path d="M5.046265044040321,0A5.046265044040321,5.046265044040321,0,1,1,-5.046265044040321,0A5.046265044040321,5.046265044040321,0,1,1,5.046265044040321,0" fill="#8c564b" transform="translate(-1.184009965734196,64.3407941521858)"><title>Person 598006</title></path><path d="M5.046265044040321,0A5.046265044040321,5.046265044040321,0,1,1,-5.046265044040321,0A5.046265044040321,5.046265044040321,0,1,1,5.046265044040321,0" fill="#d62728" transform="translate(39.26416121822598,5.532962227427189)"><title>Person 598220</title></path><path d="M5.046265044040321,0A5.046265044040321,5.046265044040321,0,1,1,-5.046265044040321,0A5.046265044040321,5.046265044040321,0,1,1,5.046265044040321,0" fill="#9467bd" transform="translate(40.22997837757187,43.19245330691288)"><title>Person 599441</title></path><path d="M5.046265044040321,0A5.046265044040321,5.046265044040321,0,1,1,-5.046265044040321,0A5.046265044040321,5.046265044040321,0,1,1,5.046265044040321,0" fill="#d62728" transform="translate(-48.16853921185888,-109.52248336046036)"><title>Person 604223</title></path><path d="M5.046265044040321,0A5.046265044040321,5.046265044040321,0,1,1,-5.046265044040321,0A5.046265044040321,5.046265044040321,0,1,1,5.046265044040321,0" fill="#8c564b" transform="translate(19.208088864989126,45.19793908347908)"><title>Person 612711</title></path><path d="M5.046265044040321,0A5.046265044040321,5.046265044040321,0,1,1,-5.046265044040321,0A5.046265044040321,5.046265044040321,0,1,1,5.046265044040321,0" fill="#8c564b" transform="translate(-50.41082920683675,-94.84944740032928)"><title>Person 615605</title></path><path d="M5.046265044040321,0A5.046265044040321,5.046265044040321,0,1,1,-5.046265044040321,0A5.046265044040321,5.046265044040321,0,1,1,5.046265044040321,0" fill="#9467bd" transform="translate(55.65365602603024,16.808126009214195)"><title>Person 629627</title></path><path d="M5.046265044040321,0A5.046265044040321,5.046265044040321,0,1,1,-5.046265044040321,0A5.046265044040321,5.046265044040321,0,1,1,5.046265044040321,0" fill="#d62728" transform="translate(44.01222525005368,19.997645756731313)"><title>Person 634283</title></path><path d="M5.046265044040321,0A5.046265044040321,5.046265044040321,0,1,1,-5.046265044040321,0A5.046265044040321,5.046265044040321,0,1,1,5.046265044040321,0" fill="#1f77b4" transform="translate(-46.522856882728114,-29.124751215370875)"><title>Person 635665</title></path><path d="M5.046265044040321,0A5.046265044040321,5.046265044040321,0,1,1,-5.046265044040321,0A5.046265044040321,5.046265044040321,0,1,1,5.046265044040321,0" fill="#1f77b4" transform="translate(-7.470575220850114,-91.69241380103135)"><title>Person 636990</title></path><path d="M5.046265044040321,0A5.046265044040321,5.046265044040321,0,1,1,-5.046265044040321,0A5.046265044040321,5.046265044040321,0,1,1,5.046265044040321,0" fill="#8c564b" transform="translate(-64.60259568992711,-62.85342711263991)"><title>Person 638752</title></path><path d="M5.046265044040321,0A5.046265044040321,5.046265044040321,0,1,1,-5.046265044040321,0A5.046265044040321,5.046265044040321,0,1,1,5.046265044040321,0" fill="#8c564b" transform="translate(12.63466576822691,3.3865038564224808)"><title>Person 643411</title></path><path d="M5.046265044040321,0A5.046265044040321,5.046265044040321,0,1,1,-5.046265044040321,0A5.046265044040321,5.046265044040321,0,1,1,5.046265044040321,0" fill="#8c564b" transform="translate(16.517443132570712,-60.16609443997262)"><title>Person 643925</title></path><path d="M5.046265044040321,0A5.046265044040321,5.046265044040321,0,1,1,-5.046265044040321,0A5.046265044040321,5.046265044040321,0,1,1,5.046265044040321,0" fill="#d62728" transform="translate(-30.835666368577176,-25.240278616225527)"><title>Person 645393</title></path><path d="M5.046265044040321,0A5.046265044040321,5.046265044040321,0,1,1,-5.046265044040321,0A5.046265044040321,5.046265044040321,0,1,1,5.046265044040321,0" fill="#8c564b" transform="translate(-20.194196167352604,-80.16818624894267)"><title>Person 649553</title></path><path d="M5.046265044040321,0A5.046265044040321,5.046265044040321,0,1,1,-5.046265044040321,0A5.046265044040321,5.046265044040321,0,1,1,5.046265044040321,0" fill="#1f77b4" transform="translate(103.86718165111826,13.426406584299691)"><title>Person 655636</title></path><path d="M0,-8.441862787462423L1.8953162830083747,-2.6086790655073533L8.028688613685706,-2.6086790655073537L3.0666861653386652,0.9964267372834953L4.962002448347041,6.829610459238564L6.661338147750939e-16,3.2245046564477153L-4.9620024483470395,6.829610459238565L-3.0666861653386652,0.9964267372834958L-8.028688613685707,-2.608679065507352L-1.8953162830083754,-2.608679065507353Z" fill="#2ca02c" transform="translate(-8.598695574558233,-5.035312776523463)"><title>Country 499467</title></path><path d="M0,-8.441862787462423L1.8953162830083747,-2.6086790655073533L8.028688613685706,-2.6086790655073537L3.0666861653386652,0.9964267372834953L4.962002448347041,6.829610459238564L6.661338147750939e-16,3.2245046564477153L-4.9620024483470395,6.829610459238565L-3.0666861653386652,0.9964267372834958L-8.028688613685707,-2.608679065507352L-1.8953162830083754,-2.608679065507353Z" fill="#9467bd" transform="translate(34.77665953349959,-25.151173837272893)"><title>Country 509607</title></path><path d="M0,-8.441862787462423L1.8953162830083747,-2.6086790655073533L8.028688613685706,-2.6086790655073537L3.0666861653386652,0.9964267372834953L4.962002448347041,6.829610459238564L6.661338147750939e-16,3.2245046564477153L-4.9620024483470395,6.829610459238565L-3.0666861653386652,0.9964267372834958L-8.028688613685707,-2.608679065507352L-1.8953162830083754,-2.608679065507353Z" fill="#8c564b" transform="translate(-8.01486640411948,-29.04952538838719)"><title>Country 616453</title></path><path d="M0,-8.441862787462423L1.8953162830083747,-2.6086790655073533L8.028688613685706,-2.6086790655073537L3.0666861653386652,0.9964267372834953L4.962002448347041,6.829610459238564L6.661338147750939e-16,3.2245046564477153L-4.9620024483470395,6.829610459238565L-3.0666861653386652,0.9964267372834958L-8.028688613685707,-2.608679065507352L-1.8953162830083754,-2.608679065507353Z" fill="#d62728" transform="translate(9.402191964079789,-19.98397674399521)"><title>Country 625756</title></path><path d="M0,-8.441862787462423L1.8953162830083747,-2.6086790655073533L8.028688613685706,-2.6086790655073537L3.0666861653386652,0.9964267372834953L4.962002448347041,6.829610459238564L6.661338147750939e-16,3.2245046564477153L-4.9620024483470395,6.829610459238565L-3.0666861653386652,0.9964267372834958L-8.028688613685707,-2.608679065507352L-1.8953162830083754,-2.608679065507353Z" fill="#1f77b4" transform="translate(20.247062843990342,-19.920530961952778)"><title>Country 561157</title></path><path d="M0,-8.441862787462423L1.8953162830083747,-2.6086790655073533L8.028688613685706,-2.6086790655073537L3.0666861653386652,0.9964267372834953L4.962002448347041,6.829610459238564L6.661338147750939e-16,3.2245046564477153L-4.9620024483470395,6.829610459238565L-3.0666861653386652,0.9964267372834958L-8.028688613685707,-2.608679065507352L-1.8953162830083754,-2.608679065507353Z" fill="#ff7f0e" transform="translate(-21.044382248392303,7.871919821851519)"><title>Country 657173</title></path><path d="M-6,-2L-2,-2L-2,-6L2,-6L2,-2L6,-2L6,2L2,2L2,6L-2,6L-2,2L-6,2Z" fill="#7f7f7f" transform="translate(62.64498196569818,-57.31613129375514)"><title>Product 482264</title></path><path d="M5.046265044040321,0A5.046265044040321,5.046265044040321,0,1,1,-5.046265044040321,0A5.046265044040321,5.046265044040321,0,1,1,5.046265044040321,0" fill="#8c564b" transform="translate(36.5824878461455,79.63466230204645)"><title>Person 545850</title></path></g></svg>