<svg width="300" height="300" viewBox="-150,-150,300,300"><text x="-150" y="-130" font-family="sans-serif" font-size="12px" text-anchor="start">Q2-Seed1</text><g stroke="#999" stroke-opacity="0.6"><line stroke-width="1" x1="42.971195821803924" y1="-43.9043505476956" x2="-0.29187625787084026" y2="25.259264260293467"></line><line stroke-width="2.23606797749979" x1="42.971195821803924" y1="-43.9043505476956" x2="2.7468493952409996" y2="-13.781099202532932"></line><line stroke-width="1" x1="-2.2802094197545824" y1="-79.66251545826877" x2="-25.98795829071883" y2="-35.03495123161001"></line><line stroke-width="1" x1="-2.2802094197545824" y1="-79.66251545826877" x2="-7.5644943186115094" y2="-61.414246239331575"></line><line stroke-width="3.1622776601683795" x1="-2.2802094197545824" y1="-79.66251545826877" x2="2.7468493952409996" y2="-13.781099202532932"></line><line stroke-width="1" x1="-40.28711464473196" y1="48.04884739117412" x2="-0.29187625787084026" y2="25.259264260293467"></line><line stroke-width="1" x1="-40.28711464473196" y1="48.04884739117412" x2="-102.46481191586956" y2="8.22133253090582"></line><line stroke-width="1" x1="-40.28711464473196" y1="48.04884739117412" x2="-0.19588921622709213" y2="54.573414133736726"></line><line stroke-width="2.23606797749979" x1="-40.28711464473196" y1="48.04884739117412" x2="2.7468493952409996" y2="-13.781099202532932"></line><line stroke-width="1" x1="2.2148032526040184" y1="70.05866212509262" x2="-40.28711464473196" y2="48.04884739117412"></line><line stroke-width="2.23606797749979" x1="2.2148032526040184" y1="70.05866212509262" x2="16.073845771415435" y2="30.156878582487842"></line><line stroke-width="2.23606797749979" x1="2.2148032526040184" y1="70.05866212509262" x2="-23.30655840806249" y2="61.320852757091636"></line><line stroke-width="2.23606797749979" x1="2.2148032526040184" y1="70.05866212509262" x2="-4.910282291278663" y2="4.142737299675929"></line><line stroke-width="1" x1="5.387906643842784" y1="14.354921860010473" x2="-59.198905874155756" y2="17.835092475614132"></line><line stroke-width="1" x1="-73.70761328657761" y1="-45.06766939288963" x2="-48.24652642901956" y2="-18.90720312296409"></line><line stroke-width="1" x1="25.601142166916873" y1="-77.52443853543912" x2="-2.2802094197545824" y2="-79.66251545826877"></line><line stroke-width="1" x1="25.601142166916873" y1="-77.52443853543912" x2="42.971195821803924" y2="-43.9043505476956"></line><line stroke-width="2.23606797749979" x1="25.601142166916873" y1="-77.52443853543912" x2="-3.6526993363904308" y2="-28.578143878048216"></line><line stroke-width="1" x1="27.395577981659265" y1="9.42103721963285" x2="67.46507491659847" y2="2.1386610832774364"></line><line stroke-width="1" x1="27.395577981659265" y1="9.42103721963285" x2="-7.5644943186115094" y2="-61.414246239331575"></line><line stroke-width="3.872983346207417" x1="27.395577981659265" y1="9.42103721963285" x2="2.7468493952409996" y2="-13.781099202532932"></line><line stroke-width="3.1622776601683795" x1="27.395577981659265" y1="9.42103721963285" x2="16.073845771415435" y2="30.156878582487842"></line><line stroke-width="2.23606797749979" x1="27.395577981659265" y1="9.42103721963285" x2="-23.30655840806249" y2="61.320852757091636"></line><line stroke-width="2.23606797749979" x1="27.395577981659265" y1="9.42103721963285" x2="16.06879511510998" y2="-6.8746234446762156"></line><line stroke-width="2.23606797749979" x1="27.395577981659265" y1="9.42103721963285" x2="-4.910282291278663" y2="4.142737299675929"></line><line stroke-width="1" x1="-41.90752667874511" y1="-33.581066581224256" x2="21.270305964720816" y2="-42.748817920240654"></line><line stroke-width="1" x1="-41.90752667874511" y1="-33.581066581224256" x2="-81.2766590737937" y2="9.798603309689671"></line><line stroke-width="1" x1="67.46507491659847" y1="2.1386610832774364" x2="59.47017009397681" y2="-14.591906344151413"></line><line stroke-width="1" x1="67.46507491659847" y1="2.1386610832774364" x2="5.387906643842784" y2="14.354921860010473"></line><line stroke-width="1" x1="67.46507491659847" y1="2.1386610832774364" x2="21.270305964720816" y2="-42.748817920240654"></line><line stroke-width="1" x1="21.270305964720816" y1="-42.748817920240654" x2="-2.2802094197545824" y2="-79.66251545826877"></line><line stroke-width="1" x1="21.270305964720816" y1="-42.748817920240654" x2="-48.24652642901956" y2="-18.90720312296409"></line><line stroke-width="1" x1="21.270305964720816" y1="-42.748817920240654" x2="59.47017009397681" y2="-14.591906344151413"></line><line stroke-width="1" x1="21.270305964720816" y1="-42.748817920240654" x2="-27.27088318095924" y2="-1.2343248091220396"></line><line stroke-width="1" x1="21.270305964720816" y1="-42.748817920240654" x2="52.363652432990214" y2="-74.73227052349976"></line><line stroke-width="1.4142135623730951" x1="21.270305964720816" y1="-42.748817920240654" x2="-48.24652642901956" y2="-18.90720312296409"></line><line stroke-width="1.4142135623730951" x1="21.270305964720816" y1="-42.748817920240654" x2="-27.27088318095924" y2="-1.2343248091220396"></line><line stroke-width="3.1622776601683795" x1="21.270305964720816" y1="-42.748817920240654" x2="-3.6526993363904308" y2="-28.578143878048216"></line><line stroke-width="3.1622776601683795" x1="21.270305964720816" y1="-42.748817920240654" x2="2.7468493952409996" y2="-13.781099202532932"></line><line stroke-width="2.23606797749979" x1="21.270305964720816" y1="-42.748817920240654" x2="16.06879511510998" y2="-6.8746234446762156"></line><line stroke-width="2.23606797749979" x1="21.270305964720816" y1="-42.748817920240654" x2="-4.910282291278663" y2="4.142737299675929"></line><line stroke-width="2.23606797749979" x1="-24.279580013842086" y1="-49.94658651565747" x2="-3.6526993363904308" y2="-28.578143878048216"></line><line stroke-width="2.23606797749979" x1="-24.279580013842086" y1="-49.94658651565747" x2="2.7468493952409996" y2="-13.781099202532932"></line><line stroke-width="2.23606797749979" x1="-24.279580013842086" y1="-49.94658651565747" x2="16.06879511510998" y2="-6.8746234446762156"></line><line stroke-width="2.23606797749979" x1="-39.46888898832806" y1="0.5177289609540626" x2="-3.6526993363904308" y2="-28.578143878048216"></line><line stroke-width="3.1622776601683795" x1="-39.46888898832806" y1="0.5177289609540626" x2="2.7468493952409996" y2="-13.781099202532932"></line><line stroke-width="2.23606797749979" x1="-39.46888898832806" y1="0.5177289609540626" x2="16.073845771415435" y2="30.156878582487842"></line><line stroke-width="2.23606797749979" x1="-39.46888898832806" y1="0.5177289609540626" x2="16.06879511510998" y2="-6.8746234446762156"></line><line stroke-width="1" x1="45.07478879501895" y1="-28.91578353445636" x2="21.270305964720816" y2="-42.748817920240654"></line><line stroke-width="1" x1="45.07478879501895" y1="-28.91578353445636" x2="59.47017009397681" y2="-14.591906344151413"></line><line stroke-width="1" x1="45.07478879501895" y1="-28.91578353445636" x2="59.47017009397681" y2="-14.591906344151413"></line><line stroke-width="2.23606797749979" x1="45.07478879501895" y1="-28.91578353445636" x2="-3.6526993363904308" y2="-28.578143878048216"></line><line stroke-width="2.23606797749979" x1="45.07478879501895" y1="-28.91578353445636" x2="2.7468493952409996" y2="-13.781099202532932"></line><line stroke-width="2.23606797749979" x1="45.07478879501895" y1="-28.91578353445636" x2="16.073845771415435" y2="30.156878582487842"></line><line stroke-width="2.23606797749979" x1="45.07478879501895" y1="-28.91578353445636" x2="16.06879511510998" y2="-6.8746234446762156"></line><line stroke-width="3.1622776601683795" x1="20.616821194349377" y1="55.4321630279083" x2="16.073845771415435" y2="30.156878582487842"></line><line stroke-width="2.23606797749979" x1="20.616821194349377" y1="55.4321630279083" x2="-23.30655840806249" y2="61.320852757091636"></line><line stroke-width="3.1622776601683795" x1="20.616821194349377" y1="55.4321630279083" x2="16.06879511510998" y2="-6.8746234446762156"></line><line stroke-width="3.1622776601683795" x1="20.616821194349377" y1="55.4321630279083" x2="-4.910282291278663" y2="4.142737299675929"></line><line stroke-width="1" x1="74.50936796464468" y1="30.677003469257013" x2="33.240135932049895" y2="51.27061719914774"></line><line stroke-width="1" x1="74.50936796464468" y1="30.677003469257013" x2="59.47017009397681" y2="-14.591906344151413"></line><line stroke-width="1.7320508075688772" x1="-70.00981205843439" y1="37.97497972714468" x2="-59.198905874155756" y2="17.835092475614132"></line><line stroke-width="2.6457513110645907" x1="-70.00981205843439" y1="37.97497972714468" x2="-102.46481191586956" y2="8.22133253090582"></line><line stroke-width="1.7320508075688772" x1="-70.00981205843439" y1="37.97497972714468" x2="-84.24110811097138" y2="59.10652559685502"></line><line stroke-width="1.4142135623730951" x1="-70.00981205843439" y1="37.97497972714468" x2="-119.43144077098108" y2="25.39846954524628"></line><line stroke-width="1.7320508075688772" x1="-70.00981205843439" y1="37.97497972714468" x2="-94.21190396037" y2="-8.813487393792382"></line><line stroke-width="1.4142135623730951" x1="-70.00981205843439" y1="37.97497972714468" x2="-103.5021834830527" y2="41.210778199841315"></line><line stroke-width="1" x1="-70.00981205843439" y1="37.97497972714468" x2="-59.198905874155756" y2="17.835092475614132"></line><line stroke-width="1.4142135623730951" x1="-70.00981205843439" y1="37.97497972714468" x2="-92.20936769346183" y2="28.41420265018625"></line><line stroke-width="1" x1="-70.00981205843439" y1="37.97497972714468" x2="-94.21190396037" y2="-8.813487393792382"></line><line stroke-width="1" x1="-70.00981205843439" y1="37.97497972714468" x2="-103.5021834830527" y2="41.210778199841315"></line><line stroke-width="3.872983346207417" x1="-70.00981205843439" y1="37.97497972714468" x2="-3.6526993363904308" y2="-28.578143878048216"></line><line stroke-width="2.23606797749979" x1="-70.00981205843439" y1="37.97497972714468" x2="2.7468493952409996" y2="-13.781099202532932"></line><line stroke-width="2.23606797749979" x1="-70.00981205843439" y1="37.97497972714468" x2="16.073845771415435" y2="30.156878582487842"></line><line stroke-width="5" x1="-70.00981205843439" y1="37.97497972714468" x2="-23.30655840806249" y2="61.320852757091636"></line><line stroke-width="2.23606797749979" x1="-70.00981205843439" y1="37.97497972714468" x2="-4.910282291278663" y2="4.142737299675929"></line><line stroke-width="2.23606797749979" x1="-22.1958235557764" y1="15.59829523238289" x2="-3.6526993363904308" y2="-28.578143878048216"></line><line stroke-width="3.1622776601683795" x1="-22.1958235557764" y1="15.59829523238289" x2="2.7468493952409996" y2="-13.781099202532932"></line><line stroke-width="2.23606797749979" x1="-22.1958235557764" y1="15.59829523238289" x2="16.073845771415435" y2="30.156878582487842"></line><line stroke-width="2.23606797749979" x1="-22.1958235557764" y1="15.59829523238289" x2="-23.30655840806249" y2="61.320852757091636"></line><line stroke-width="2.23606797749979" x1="-22.1958235557764" y1="15.59829523238289" x2="16.06879511510998" y2="-6.8746234446762156"></line><line stroke-width="2.23606797749979" x1="44.524664416469776" y1="-1.178653516117811" x2="2.7468493952409996" y2="-13.781099202532932"></line><line stroke-width="3.1622776601683795" x1="44.524664416469776" y1="-1.178653516117811" x2="16.073845771415435" y2="30.156878582487842"></line><line stroke-width="2.23606797749979" x1="44.524664416469776" y1="-1.178653516117811" x2="16.06879511510998" y2="-6.8746234446762156"></line><line stroke-width="2.449489742783178" x1="-59.198905874155756" y1="17.835092475614132" x2="-70.00981205843439" y2="37.97497972714468"></line><line stroke-width="2.23606797749979" x1="-59.198905874155756" y1="17.835092475614132" x2="-102.46481191586956" y2="8.22133253090582"></line><line stroke-width="1" x1="-59.198905874155756" y1="17.835092475614132" x2="-92.20936769346183" y2="28.41420265018625"></line><line stroke-width="1" x1="-59.198905874155756" y1="17.835092475614132" x2="-94.21190396037" y2="-8.813487393792382"></line><line stroke-width="1" x1="-59.198905874155756" y1="17.835092475614132" x2="-70.00981205843439" y2="37.97497972714468"></line><line stroke-width="1" x1="-59.198905874155756" y1="17.835092475614132" x2="-22.1958235557764" y2="15.59829523238289"></line><line stroke-width="1" x1="-59.198905874155756" y1="17.835092475614132" x2="-102.46481191586956" y2="8.22133253090582"></line><line stroke-width="1.4142135623730951" x1="-59.198905874155756" y1="17.835092475614132" x2="-84.24110811097138" y2="59.10652559685502"></line><line stroke-width="1.4142135623730951" x1="-59.198905874155756" y1="17.835092475614132" x2="-81.2766590737937" y2="9.798603309689671"></line><line stroke-width="1.4142135623730951" x1="-59.198905874155756" y1="17.835092475614132" x2="-92.20936769346183" y2="28.41420265018625"></line><line stroke-width="1" x1="-59.198905874155756" y1="17.835092475614132" x2="-94.21190396037" y2="-8.813487393792382"></line><line stroke-width="2.23606797749979" x1="-59.198905874155756" y1="17.835092475614132" x2="-3.6526993363904308" y2="-28.578143878048216"></line><line stroke-width="2.23606797749979" x1="-59.198905874155756" y1="17.835092475614132" x2="2.7468493952409996" y2="-13.781099202532932"></line><line stroke-width="3.1622776601683795" x1="-59.198905874155756" y1="17.835092475614132" x2="16.073845771415435" y2="30.156878582487842"></line><line stroke-width="2.23606797749979" x1="-59.198905874155756" y1="17.835092475614132" x2="-23.30655840806249" y2="61.320852757091636"></line><line stroke-width="3.1622776601683795" x1="-59.198905874155756" y1="17.835092475614132" x2="16.06879511510998" y2="-6.8746234446762156"></line><line stroke-width="2.23606797749979" x1="-59.198905874155756" y1="17.835092475614132" x2="-4.910282291278663" y2="4.142737299675929"></line><line stroke-width="1" x1="39.84846956465454" y1="19.27089797945854" x2="20.616821194349377" y2="55.4321630279083"></line><line stroke-width="2.23606797749979" x1="39.84846956465454" y1="19.27089797945854" x2="-3.6526993363904308" y2="-28.578143878048216"></line><line stroke-width="2.23606797749979" x1="39.84846956465454" y1="19.27089797945854" x2="2.7468493952409996" y2="-13.781099202532932"></line><line stroke-width="3.1622776601683795" x1="39.84846956465454" y1="19.27089797945854" x2="16.073845771415435" y2="30.156878582487842"></line><line stroke-width="2.23606797749979" x1="39.84846956465454" y1="19.27089797945854" x2="16.06879511510998" y2="-6.8746234446762156"></line><line stroke-width="1" x1="-102.46481191586956" y1="8.22133253090582" x2="-39.46888898832806" y2="0.5177289609540626"></line><line stroke-width="3.3166247903554" x1="-102.46481191586956" y1="8.22133253090582" x2="-70.00981205843439" y2="37.97497972714468"></line><line stroke-width="1.7320508075688772" x1="-102.46481191586956" y1="8.22133253090582" x2="-59.198905874155756" y2="17.835092475614132"></line><line stroke-width="2.449489742783178" x1="-102.46481191586956" y1="8.22133253090582" x2="-92.20936769346183" y2="28.41420265018625"></line><line stroke-width="1" x1="-102.46481191586956" y1="8.22133253090582" x2="-119.43144077098108" y2="25.39846954524628"></line><line stroke-width="1" x1="-102.46481191586956" y1="8.22133253090582" x2="-94.21190396037" y2="-8.813487393792382"></line><line stroke-width="2.8284271247461903" x1="-102.46481191586956" y1="8.22133253090582" x2="-70.00981205843439" y2="37.97497972714468"></line><line stroke-width="1.4142135623730951" x1="-102.46481191586956" y1="8.22133253090582" x2="-59.198905874155756" y2="17.835092475614132"></line><line stroke-width="1.4142135623730951" x1="-102.46481191586956" y1="8.22133253090582" x2="-84.24110811097138" y2="59.10652559685502"></line><line stroke-width="1" x1="-102.46481191586956" y1="8.22133253090582" x2="-92.20936769346183" y2="28.41420265018625"></line><line stroke-width="2" x1="-102.46481191586956" y1="8.22133253090582" x2="-94.21190396037" y2="-8.813487393792382"></line><line stroke-width="1.7320508075688772" x1="-102.46481191586956" y1="8.22133253090582" x2="-103.5021834830527" y2="41.210778199841315"></line><line stroke-width="1" x1="52.363652432990214" y1="-74.73227052349976" x2="42.971195821803924" y2="-43.9043505476956"></line><line stroke-width="1" x1="-25.108413520741518" y1="-13.039739843599808" x2="27.395577981659265" y2="9.42103721963285"></line><line stroke-width="1" x1="-25.108413520741518" y1="-13.039739843599808" x2="21.270305964720816" y2="-42.748817920240654"></line><line stroke-width="1" x1="-25.108413520741518" y1="-13.039739843599808" x2="-24.279580013842086" y2="-49.94658651565747"></line><line stroke-width="3.1622776601683795" x1="-25.108413520741518" y1="-13.039739843599808" x2="-3.6526993363904308" y2="-28.578143878048216"></line><line stroke-width="2.23606797749979" x1="-25.108413520741518" y1="-13.039739843599808" x2="2.7468493952409996" y2="-13.781099202532932"></line><line stroke-width="2.23606797749979" x1="-25.108413520741518" y1="-13.039739843599808" x2="16.073845771415435" y2="30.156878582487842"></line><line stroke-width="2.23606797749979" x1="-25.108413520741518" y1="-13.039739843599808" x2="16.06879511510998" y2="-6.8746234446762156"></line><line stroke-width="1" x1="-36.67524854642574" y1="32.25266098528605" x2="-81.2766590737937" y2="9.798603309689671"></line><line stroke-width="1" x1="-2.92288503025813" y1="40.13263276504246" x2="-59.198905874155756" y2="17.835092475614132"></line><line stroke-width="1" x1="-2.92288503025813" y1="40.13263276504246" x2="67.46507491659847" y2="2.1386610832774364"></line><line stroke-width="1" x1="-2.92288503025813" y1="40.13263276504246" x2="-25.108413520741518" y2="-13.039739843599808"></line><line stroke-width="3.872983346207417" x1="-2.92288503025813" y1="40.13263276504246" x2="16.073845771415435" y2="30.156878582487842"></line><line stroke-width="2.23606797749979" x1="-2.92288503025813" y1="40.13263276504246" x2="-23.30655840806249" y2="61.320852757091636"></line><line stroke-width="2.23606797749979" x1="-2.92288503025813" y1="40.13263276504246" x2="16.06879511510998" y2="-6.8746234446762156"></line><line stroke-width="2.23606797749979" x1="-2.92288503025813" y1="40.13263276504246" x2="-4.910282291278663" y2="4.142737299675929"></line><line stroke-width="1.4142135623730951" x1="-48.24652642901956" y1="-18.90720312296409" x2="-36.67524854642574" y2="32.25266098528605"></line><line stroke-width="1" x1="-48.24652642901956" y1="-18.90720312296409" x2="-21.14287756924677" y2="26.73203952586662"></line><line stroke-width="1" x1="-48.24652642901956" y1="-18.90720312296409" x2="-25.98795829071883" y2="-35.03495123161001"></line><line stroke-width="1" x1="-48.24652642901956" y1="-18.90720312296409" x2="-48.24652642901956" y2="-18.90720312296409"></line><line stroke-width="1.4142135623730951" x1="-48.24652642901956" y1="-18.90720312296409" x2="-27.27088318095924" y2="-1.2343248091220396"></line><line stroke-width="3.872983346207417" x1="-48.24652642901956" y1="-18.90720312296409" x2="-3.6526993363904308" y2="-28.578143878048216"></line><line stroke-width="3.872983346207417" x1="-48.24652642901956" y1="-18.90720312296409" x2="16.073845771415435" y2="30.156878582487842"></line><line stroke-width="3.872983346207417" x1="-48.24652642901956" y1="-18.90720312296409" x2="16.06879511510998" y2="-6.8746234446762156"></line><line stroke-width="1" x1="-84.24110811097138" y1="59.10652559685502" x2="-119.43144077098108" y2="25.39846954524628"></line><line stroke-width="2.23606797749979" x1="-84.24110811097138" y1="59.10652559685502" x2="-103.5021834830527" y2="41.210778199841315"></line><line stroke-width="1.4142135623730951" x1="-84.24110811097138" y1="59.10652559685502" x2="-70.00981205843439" y2="37.97497972714468"></line><line stroke-width="1.4142135623730951" x1="-84.24110811097138" y1="59.10652559685502" x2="-59.198905874155756" y2="17.835092475614132"></line><line stroke-width="1" x1="-84.24110811097138" y1="59.10652559685502" x2="-81.2766590737937" y2="9.798603309689671"></line><line stroke-width="1" x1="-84.24110811097138" y1="59.10652559685502" x2="-92.20936769346183" y2="28.41420265018625"></line><line stroke-width="2.6457513110645907" x1="-84.24110811097138" y1="59.10652559685502" x2="-119.43144077098108" y2="25.39846954524628"></line><line stroke-width="1.4142135623730951" x1="-84.24110811097138" y1="59.10652559685502" x2="-94.21190396037" y2="-8.813487393792382"></line><line stroke-width="2.6457513110645907" x1="-84.24110811097138" y1="59.10652559685502" x2="-103.5021834830527" y2="41.210778199841315"></line><line stroke-width="1" x1="-81.2766590737937" y1="9.798603309689671" x2="-70.00981205843439" y2="37.97497972714468"></line><line stroke-width="1" x1="-81.2766590737937" y1="9.798603309689671" x2="-102.46481191586956" y2="8.22133253090582"></line><line stroke-width="1.4142135623730951" x1="-81.2766590737937" y1="9.798603309689671" x2="-84.24110811097138" y2="59.10652559685502"></line><line stroke-width="1" x1="-81.2766590737937" y1="9.798603309689671" x2="-92.20936769346183" y2="28.41420265018625"></line><line stroke-width="1.4142135623730951" x1="-81.2766590737937" y1="9.798603309689671" x2="-119.43144077098108" y2="25.39846954524628"></line><line stroke-width="1" x1="-81.2766590737937" y1="9.798603309689671" x2="-103.5021834830527" y2="41.210778199841315"></line><line stroke-width="1.7320508075688772" x1="-81.2766590737937" y1="9.798603309689671" x2="-94.21190396037" y2="-8.813487393792382"></line><line stroke-width="1" x1="54.971326197706496" y1="14.13567540491526" x2="92.51685056794646" y2="12.432875622887396"></line><line stroke-width="3.1622776601683795" x1="54.971326197706496" y1="14.13567540491526" x2="-3.6526993363904308" y2="-28.578143878048216"></line><line stroke-width="2.23606797749979" x1="54.971326197706496" y1="14.13567540491526" x2="16.073845771415435" y2="30.156878582487842"></line><line stroke-width="3.1622776601683795" x1="54.971326197706496" y1="14.13567540491526" x2="16.06879511510998" y2="-6.8746234446762156"></line><line stroke-width="3.872983346207417" x1="54.971326197706496" y1="14.13567540491526" x2="-4.910282291278663" y2="4.142737299675929"></line><line stroke-width="1" x1="45.253031494714044" y1="45.09455620463288" x2="54.971326197706496" y2="14.13567540491526"></line><line stroke-width="1" x1="45.253031494714044" y1="45.09455620463288" x2="-36.67524854642574" y2="32.25266098528605"></line><line stroke-width="2" x1="45.253031494714044" y1="45.09455620463288" x2="54.971326197706496" y2="14.13567540491526"></line><line stroke-width="3.1622776601683795" x1="45.253031494714044" y1="45.09455620463288" x2="16.073845771415435" y2="30.156878582487842"></line><line stroke-width="2.23606797749979" x1="45.253031494714044" y1="45.09455620463288" x2="16.06879511510998" y2="-6.8746234446762156"></line><line stroke-width="1" x1="-92.20936769346183" y1="28.41420265018625" x2="-101.33330866428064" y2="62.41959340956063"></line><line stroke-width="1.7320508075688772" x1="-92.20936769346183" y1="28.41420265018625" x2="-70.00981205843439" y2="37.97497972714468"></line><line stroke-width="2" x1="-92.20936769346183" y1="28.41420265018625" x2="-59.198905874155756" y2="17.835092475614132"></line><line stroke-width="1.7320508075688772" x1="-92.20936769346183" y1="28.41420265018625" x2="-102.46481191586956" y2="8.22133253090582"></line><line stroke-width="1" x1="-92.20936769346183" y1="28.41420265018625" x2="-25.108413520741518" y2="-13.039739843599808"></line><line stroke-width="1" x1="-92.20936769346183" y1="28.41420265018625" x2="-94.21190396037" y2="-8.813487393792382"></line><line stroke-width="1" x1="5.199557314478519" y1="-50.500820299576716" x2="-25.98795829071883" y2="-35.03495123161001"></line><line stroke-width="2.23606797749979" x1="5.199557314478519" y1="-50.500820299576716" x2="16.06879511510998" y2="-6.8746234446762156"></line><line stroke-width="2.23606797749979" x1="33.240135932049895" y1="51.27061719914774" x2="2.7468493952409996" y2="-13.781099202532932"></line><line stroke-width="5.477225575051661" x1="33.240135932049895" y1="51.27061719914774" x2="16.073845771415435" y2="30.156878582487842"></line><line stroke-width="4.47213595499958" x1="33.240135932049895" y1="51.27061719914774" x2="-23.30655840806249" y2="61.320852757091636"></line><line stroke-width="1" x1="-7.5644943186115094" y1="-61.414246239331575" x2="23.460687170216975" y2="-54.463833083379804"></line><line stroke-width="1" x1="-7.5644943186115094" y1="-61.414246239331575" x2="21.270305964720816" y2="-42.748817920240654"></line><line stroke-width="1" x1="-7.5644943186115094" y1="-61.414246239331575" x2="-22.066257146104537" y2="-94.7595876132881"></line><line stroke-width="3.872983346207417" x1="-7.5644943186115094" y1="-61.414246239331575" x2="-3.6526993363904308" y2="-28.578143878048216"></line><line stroke-width="3.872983346207417" x1="-7.5644943186115094" y1="-61.414246239331575" x2="2.7468493952409996" y2="-13.781099202532932"></line><line stroke-width="3.872983346207417" x1="-7.5644943186115094" y1="-61.414246239331575" x2="16.06879511510998" y2="-6.8746234446762156"></line><line stroke-width="3.872983346207417" x1="-7.5644943186115094" y1="-61.414246239331575" x2="-4.910282291278663" y2="4.142737299675929"></line><line stroke-width="1" x1="9.553626017241543" y1="-31.175757955219417" x2="42.971195821803924" y2="-43.9043505476956"></line><line stroke-width="3.872983346207417" x1="-21.14287756924677" y1="26.73203952586662" x2="2.7468493952409996" y2="-13.781099202532932"></line><line stroke-width="2.23606797749979" x1="-21.14287756924677" y1="26.73203952586662" x2="-23.30655840806249" y2="61.320852757091636"></line><line stroke-width="2.23606797749979" x1="-21.14287756924677" y1="26.73203952586662" x2="16.06879511510998" y2="-6.8746234446762156"></line><line stroke-width="2.23606797749979" x1="-21.14287756924677" y1="26.73203952586662" x2="-4.910282291278663" y2="4.142737299675929"></line><line stroke-width="1" x1="-119.43144077098108" y1="25.39846954524628" x2="-70.00981205843439" y2="37.97497972714468"></line><line stroke-width="2" x1="-119.43144077098108" y1="25.39846954524628" x2="-84.24110811097138" y2="59.10652559685502"></line><line stroke-width="2.6457513110645907" x1="-119.43144077098108" y1="25.39846954524628" x2="-103.5021834830527" y2="41.210778199841315"></line><line stroke-width="1" x1="-119.43144077098108" y1="25.39846954524628" x2="-70.00981205843439" y2="37.97497972714468"></line><line stroke-width="1.4142135623730951" x1="-119.43144077098108" y1="25.39846954524628" x2="-102.46481191586956" y2="8.22133253090582"></line><line stroke-width="2.6457513110645907" x1="-119.43144077098108" y1="25.39846954524628" x2="-84.24110811097138" y2="59.10652559685502"></line><line stroke-width="1" x1="-119.43144077098108" y1="25.39846954524628" x2="-92.20936769346183" y2="28.41420265018625"></line><line stroke-width="1" x1="-119.43144077098108" y1="25.39846954524628" x2="-94.21190396037" y2="-8.813487393792382"></line><line stroke-width="2.449489742783178" x1="-119.43144077098108" y1="25.39846954524628" x2="-103.5021834830527" y2="41.210778199841315"></line><line stroke-width="1.7320508075688772" x1="23.460687170216975" y1="-54.463833083379804" x2="-7.5644943186115094" y2="-61.414246239331575"></line><line stroke-width="3.872983346207417" x1="23.460687170216975" y1="-54.463833083379804" x2="-3.6526993363904308" y2="-28.578143878048216"></line><line stroke-width="3.872983346207417" x1="23.460687170216975" y1="-54.463833083379804" x2="2.7468493952409996" y2="-13.781099202532932"></line><line stroke-width="3.872983346207417" x1="23.460687170216975" y1="-54.463833083379804" x2="16.06879511510998" y2="-6.8746234446762156"></line><line stroke-width="3.872983346207417" x1="23.460687170216975" y1="-54.463833083379804" x2="-4.910282291278663" y2="4.142737299675929"></line><line stroke-width="2.23606797749979" x1="59.47017009397681" y1="-14.591906344151413" x2="-3.6526993363904308" y2="-28.578143878048216"></line><line stroke-width="4.47213595499958" x1="59.47017009397681" y1="-14.591906344151413" x2="2.7468493952409996" y2="-13.781099202532932"></line><line stroke-width="3.1622776601683795" x1="59.47017009397681" y1="-14.591906344151413" x2="16.073845771415435" y2="30.156878582487842"></line><line stroke-width="2.23606797749979" x1="59.47017009397681" y1="-14.591906344151413" x2="16.06879511510998" y2="-6.8746234446762156"></line><line stroke-width="3.872983346207417" x1="59.47017009397681" y1="-14.591906344151413" x2="-4.910282291278663" y2="4.142737299675929"></line><line stroke-width="1" x1="-0.29187625787084026" y1="25.259264260293467" x2="39.84846956465454" y2="19.27089797945854"></line><line stroke-width="1" x1="-0.29187625787084026" y1="25.259264260293467" x2="-36.67524854642574" y2="32.25266098528605"></line><line stroke-width="1" x1="-0.29187625787084026" y1="25.259264260293467" x2="-48.24652642901956" y2="-18.90720312296409"></line><line stroke-width="3.1622776601683795" x1="-0.29187625787084026" y1="25.259264260293467" x2="2.7468493952409996" y2="-13.781099202532932"></line><line stroke-width="2.23606797749979" x1="-0.29187625787084026" y1="25.259264260293467" x2="-23.30655840806249" y2="61.320852757091636"></line><line stroke-width="2.23606797749979" x1="-0.29187625787084026" y1="25.259264260293467" x2="16.06879511510998" y2="-6.8746234446762156"></line><line stroke-width="1" x1="-94.21190396037" y1="-8.813487393792382" x2="-70.00981205843439" y2="37.97497972714468"></line><line stroke-width="1" x1="-94.21190396037" y1="-8.813487393792382" x2="-59.198905874155756" y2="17.835092475614132"></line><line stroke-width="1" x1="-94.21190396037" y1="-8.813487393792382" x2="-48.24652642901956" y2="-18.90720312296409"></line><line stroke-width="3.1622776601683795" x1="-94.21190396037" y1="-8.813487393792382" x2="-81.2766590737937" y2="9.798603309689671"></line><line stroke-width="1" x1="-94.21190396037" y1="-8.813487393792382" x2="-119.43144077098108" y2="25.39846954524628"></line><line stroke-width="1" x1="-94.21190396037" y1="-8.813487393792382" x2="-103.5021834830527" y2="41.210778199841315"></line><line stroke-width="1" x1="-94.21190396037" y1="-8.813487393792382" x2="-70.00981205843439" y2="37.97497972714468"></line><line stroke-width="1" x1="-94.21190396037" y1="-8.813487393792382" x2="-59.198905874155756" y2="17.835092475614132"></line><line stroke-width="1.4142135623730951" x1="-94.21190396037" y1="-8.813487393792382" x2="-102.46481191586956" y2="8.22133253090582"></line><line stroke-width="1.4142135623730951" x1="-94.21190396037" y1="-8.813487393792382" x2="-92.20936769346183" y2="28.41420265018625"></line><line stroke-width="1.7320508075688772" x1="-94.21190396037" y1="-8.813487393792382" x2="-119.43144077098108" y2="25.39846954524628"></line><line stroke-width="1" x1="-94.21190396037" y1="-8.813487393792382" x2="-103.5021834830527" y2="41.210778199841315"></line><line stroke-width="2.23606797749979" x1="-94.21190396037" y1="-8.813487393792382" x2="-4.910282291278663" y2="4.142737299675929"></line><line stroke-width="1" x1="-103.5021834830527" y1="41.210778199841315" x2="-70.00981205843439" y2="37.97497972714468"></line><line stroke-width="1" x1="-103.5021834830527" y1="41.210778199841315" x2="-59.198905874155756" y2="17.835092475614132"></line><line stroke-width="2" x1="-103.5021834830527" y1="41.210778199841315" x2="-102.46481191586956" y2="8.22133253090582"></line><line stroke-width="2.23606797749979" x1="-103.5021834830527" y1="41.210778199841315" x2="-84.24110811097138" y2="59.10652559685502"></line><line stroke-width="2" x1="-103.5021834830527" y1="41.210778199841315" x2="-92.20936769346183" y2="28.41420265018625"></line><line stroke-width="2.449489742783178" x1="-103.5021834830527" y1="41.210778199841315" x2="-119.43144077098108" y2="25.39846954524628"></line><line stroke-width="1" x1="-103.5021834830527" y1="41.210778199841315" x2="-94.21190396037" y2="-8.813487393792382"></line><line stroke-width="1" x1="-103.5021834830527" y1="41.210778199841315" x2="-27.27088318095924" y2="-1.2343248091220396"></line><line stroke-width="2.23606797749979" x1="-103.5021834830527" y1="41.210778199841315" x2="-84.24110811097138" y2="59.10652559685502"></line><line stroke-width="1.7320508075688772" x1="-103.5021834830527" y1="41.210778199841315" x2="-119.43144077098108" y2="25.39846954524628"></line><line stroke-width="1" x1="-27.27088318095924" y1="-1.2343248091220396" x2="-24.279580013842086" y2="-49.94658651565747"></line><line stroke-width="1" x1="-27.27088318095924" y1="-1.2343248091220396" x2="9.553626017241543" y2="-31.175757955219417"></line><line stroke-width="1" x1="-27.27088318095924" y1="-1.2343248091220396" x2="-2.92288503025813" y2="40.13263276504246"></line><line stroke-width="3.872983346207417" x1="-27.27088318095924" y1="-1.2343248091220396" x2="-3.6526993363904308" y2="-28.578143878048216"></line><line stroke-width="3.1622776601683795" x1="-27.27088318095924" y1="-1.2343248091220396" x2="2.7468493952409996" y2="-13.781099202532932"></line><line stroke-width="2.23606797749979" x1="-27.27088318095924" y1="-1.2343248091220396" x2="16.073845771415435" y2="30.156878582487842"></line><line stroke-width="2.23606797749979" x1="-27.27088318095924" y1="-1.2343248091220396" x2="-23.30655840806249" y2="61.320852757091636"></line><line stroke-width="4.47213595499958" x1="-27.27088318095924" y1="-1.2343248091220396" x2="-4.910282291278663" y2="4.142737299675929"></line><line stroke-width="1" x1="-0.19588921622709213" y1="54.573414133736726" x2="-40.28711464473196" y2="48.04884739117412"></line><line stroke-width="2.23606797749979" x1="-0.19588921622709213" y1="54.573414133736726" x2="-23.30655840806249" y2="61.320852757091636"></line><line stroke-width="2.23606797749979" x1="-0.19588921622709213" y1="54.573414133736726" x2="16.06879511510998" y2="-6.8746234446762156"></line><line stroke-width="2.23606797749979" x1="-0.19588921622709213" y1="54.573414133736726" x2="-4.910282291278663" y2="4.142737299675929"></line><line stroke-width="2.23606797749979" x1="-25.98795829071883" y1="-35.03495123161001" x2="-3.6526993363904308" y2="-28.578143878048216"></line><line stroke-width="2.23606797749979" x1="-25.98795829071883" y1="-35.03495123161001" x2="2.7468493952409996" y2="-13.781099202532932"></line><line stroke-width="2.23606797749979" x1="-25.98795829071883" y1="-35.03495123161001" x2="-23.30655840806249" y2="61.320852757091636"></line><line stroke-width="2.23606797749979" x1="-25.98795829071883" y1="-35.03495123161001" x2="16.06879511510998" y2="-6.8746234446762156"></line><line stroke-width="2.23606797749979" x1="-25.98795829071883" y1="-35.03495123161001" x2="-4.910282291278663" y2="4.142737299675929"></line><line stroke-width="1" x1="75.12764071133019" y1="-35.59754058545872" x2="67.46507491659847" y2="2.1386610832774364"></line><line stroke-width="1" x1="75.12764071133019" y1="-35.59754058545872" x2="67.46507491659847" y2="2.1386610832774364"></line><line stroke-width="1" x1="75.12764071133019" y1="-35.59754058545872" x2="21.270305964720816" y2="-42.748817920240654"></line></g><g stroke="#fff" stroke-width="1.5"><path d="M5.046265044040321,0A5.046265044040321,5.046265044040321,0,1,1,-5.046265044040321,0A5.046265044040321,5.046265044040321,0,1,1,5.046265044040321,0" fill="#9467bd" transform="translate(42.971195821803924,-43.9043505476956)"><title>Person 457397</title></path><path d="M5.046265044040321,0A5.046265044040321,5.046265044040321,0,1,1,-5.046265044040321,0A5.046265044040321,5.046265044040321,0,1,1,5.046265044040321,0" fill="#2ca02c" transform="translate(-2.2802094197545824,-79.66251545826877)"><title>Person 457699</title></path><path d="M5.046265044040321,0A5.046265044040321,5.046265044040321,0,1,1,-5.046265044040321,0A5.046265044040321,5.046265044040321,0,1,1,5.046265044040321,0" fill="#9467bd" transform="translate(-40.28711464473196,48.04884739117412)"><title>Person 459691</title></path><path d="M5.046265044040321,0A5.046265044040321,5.046265044040321,0,1,1,-5.046265044040321,0A5.046265044040321,5.046265044040321,0,1,1,5.046265044040321,0" fill="#d62728" transform="translate(2.2148032526040184,70.05866212509262)"><title>Person 461245</title></path><path d="M5.046265044040321,0A5.046265044040321,5.046265044040321,0,1,1,-5.046265044040321,0A5.046265044040321,5.046265044040321,0,1,1,5.046265044040321,0" fill="#8c564b" transform="translate(-73.70761328657761,-45.06766939288963)"><title>Person 476124</title></path><path d="M5.046265044040321,0A5.046265044040321,5.046265044040321,0,1,1,-5.046265044040321,0A5.046265044040321,5.046265044040321,0,1,1,5.046265044040321,0" fill="#8c564b" transform="translate(25.601142166916873,-77.52443853543912)"><title>Person 477769</title></path><path d="M5.046265044040321,0A5.046265044040321,5.046265044040321,0,1,1,-5.046265044040321,0A5.046265044040321,5.046265044040321,0,1,1,5.046265044040321,0" fill="#1f77b4" transform="translate(27.395577981659265,9.42103721963285)"><title>Person 479204</title></path><path d="M5.046265044040321,0A5.046265044040321,5.046265044040321,0,1,1,-5.046265044040321,0A5.046265044040321,5.046265044040321,0,1,1,5.046265044040321,0" fill="#8c564b" transform="translate(-41.90752667874511,-33.581066581224256)"><title>Person 480268</title></path><path d="M5.046265044040321,0A5.046265044040321,5.046265044040321,0,1,1,-5.046265044040321,0A5.046265044040321,5.046265044040321,0,1,1,5.046265044040321,0" fill="#8c564b" transform="translate(67.46507491659847,2.1386610832774364)"><title>Person 480375</title></path><path d="M5.046265044040321,0A5.046265044040321,5.046265044040321,0,1,1,-5.046265044040321,0A5.046265044040321,5.046265044040321,0,1,1,5.046265044040321,0" fill="#2ca02c" transform="translate(21.270305964720816,-42.748817920240654)"><title>Person 494508</title></path><path d="M5.046265044040321,0A5.046265044040321,5.046265044040321,0,1,1,-5.046265044040321,0A5.046265044040321,5.046265044040321,0,1,1,5.046265044040321,0" fill="#8c564b" transform="translate(45.07478879501895,-28.91578353445636)"><title>Person 500192</title></path><path d="M5.046265044040321,0A5.046265044040321,5.046265044040321,0,1,1,-5.046265044040321,0A5.046265044040321,5.046265044040321,0,1,1,5.046265044040321,0" fill="#d62728" transform="translate(5.387906643842784,14.354921860010473)"><title>Person 463126</title></path><path d="M5.046265044040321,0A5.046265044040321,5.046265044040321,0,1,1,-5.046265044040321,0A5.046265044040321,5.046265044040321,0,1,1,5.046265044040321,0" fill="#8c564b" transform="translate(74.50936796464468,30.677003469257013)"><title>Person 516694</title></path><path d="M5.046265044040321,0A5.046265044040321,5.046265044040321,0,1,1,-5.046265044040321,0A5.046265044040321,5.046265044040321,0,1,1,5.046265044040321,0" fill="#9467bd" transform="translate(-70.00981205843439,37.97497972714468)"><title>Person 519424</title></path><path d="M5.046265044040321,0A5.046265044040321,5.046265044040321,0,1,1,-5.046265044040321,0A5.046265044040321,5.046265044040321,0,1,1,5.046265044040321,0" fill="#d62728" transform="translate(-59.198905874155756,17.835092475614132)"><title>Person 546999</title></path><path d="M5.046265044040321,0A5.046265044040321,5.046265044040321,0,1,1,-5.046265044040321,0A5.046265044040321,5.046265044040321,0,1,1,5.046265044040321,0" fill="#2ca02c" transform="translate(39.84846956465454,19.27089797945854)"><title>Person 547661</title></path><path d="M5.046265044040321,0A5.046265044040321,5.046265044040321,0,1,1,-5.046265044040321,0A5.046265044040321,5.046265044040321,0,1,1,5.046265044040321,0" fill="#9467bd" transform="translate(-102.46481191586956,8.22133253090582)"><title>Person 551810</title></path><path d="M5.046265044040321,0A5.046265044040321,5.046265044040321,0,1,1,-5.046265044040321,0A5.046265044040321,5.046265044040321,0,1,1,5.046265044040321,0" fill="#9467bd" transform="translate(52.363652432990214,-74.73227052349976)"><title>Person 558277</title></path><path d="M5.046265044040321,0A5.046265044040321,5.046265044040321,0,1,1,-5.046265044040321,0A5.046265044040321,5.046265044040321,0,1,1,5.046265044040321,0" fill="#d62728" transform="translate(-25.108413520741518,-13.039739843599808)"><title>Person 559042</title></path><path d="M5.046265044040321,0A5.046265044040321,5.046265044040321,0,1,1,-5.046265044040321,0A5.046265044040321,5.046265044040321,0,1,1,5.046265044040321,0" fill="#d62728" transform="translate(-36.67524854642574,32.25266098528605)"><title>Person 561312</title></path><path d="M5.046265044040321,0A5.046265044040321,5.046265044040321,0,1,1,-5.046265044040321,0A5.046265044040321,5.046265044040321,0,1,1,5.046265044040321,0" fill="#d62728" transform="translate(-2.92288503025813,40.13263276504246)"><title>Person 566386</title></path><path d="M5.046265044040321,0A5.046265044040321,5.046265044040321,0,1,1,-5.046265044040321,0A5.046265044040321,5.046265044040321,0,1,1,5.046265044040321,0" fill="#1f77b4" transform="translate(-48.24652642901956,-18.90720312296409)"><title>Person 568093</title></path><path d="M5.046265044040321,0A5.046265044040321,5.046265044040321,0,1,1,-5.046265044040321,0A5.046265044040321,5.046265044040321,0,1,1,5.046265044040321,0" fill="#8c564b" transform="translate(-84.24110811097138,59.10652559685502)"><title>Person 572500</title></path><path d="M5.046265044040321,0A5.046265044040321,5.046265044040321,0,1,1,-5.046265044040321,0A5.046265044040321,5.046265044040321,0,1,1,5.046265044040321,0" fill="#1f77b4" transform="translate(-81.2766590737937,9.798603309689671)"><title>Person 581406</title></path><path d="M5.046265044040321,0A5.046265044040321,5.046265044040321,0,1,1,-5.046265044040321,0A5.046265044040321,5.046265044040321,0,1,1,5.046265044040321,0" fill="#8c564b" transform="translate(45.253031494714044,45.09455620463288)"><title>Person 593266</title></path><path d="M5.046265044040321,0A5.046265044040321,5.046265044040321,0,1,1,-5.046265044040321,0A5.046265044040321,5.046265044040321,0,1,1,5.046265044040321,0" fill="#d62728" transform="translate(-92.20936769346183,28.41420265018625)"><title>Person 594766</title></path><path d="M5.046265044040321,0A5.046265044040321,5.046265044040321,0,1,1,-5.046265044040321,0A5.046265044040321,5.046265044040321,0,1,1,5.046265044040321,0" fill="#9467bd" transform="translate(5.199557314478519,-50.500820299576716)"><title>Person 597992</title></path><path d="M5.046265044040321,0A5.046265044040321,5.046265044040321,0,1,1,-5.046265044040321,0A5.046265044040321,5.046265044040321,0,1,1,5.046265044040321,0" fill="#9467bd" transform="translate(-7.5644943186115094,-61.414246239331575)"><title>Person 599441</title></path><path d="M5.046265044040321,0A5.046265044040321,5.046265044040321,0,1,1,-5.046265044040321,0A5.046265044040321,5.046265044040321,0,1,1,5.046265044040321,0" fill="#1f77b4" transform="translate(9.553626017241543,-31.175757955219417)"><title>Person 600329</title></path><path d="M5.046265044040321,0A5.046265044040321,5.046265044040321,0,1,1,-5.046265044040321,0A5.046265044040321,5.046265044040321,0,1,1,5.046265044040321,0" fill="#8c564b" transform="translate(-119.43144077098108,25.39846954524628)"><title>Person 615605</title></path><path d="M5.046265044040321,0A5.046265044040321,5.046265044040321,0,1,1,-5.046265044040321,0A5.046265044040321,5.046265044040321,0,1,1,5.046265044040321,0" fill="#7f7f7f" transform="translate(23.460687170216975,-54.463833083379804)"><title>Person 629627</title></path><path d="M5.046265044040321,0A5.046265044040321,5.046265044040321,0,1,1,-5.046265044040321,0A5.046265044040321,5.046265044040321,0,1,1,5.046265044040321,0" fill="#8c564b" transform="translate(-0.29187625787084026,25.259264260293467)"><title>Person 634303</title></path><path d="M5.046265044040321,0A5.046265044040321,5.046265044040321,0,1,1,-5.046265044040321,0A5.046265044040321,5.046265044040321,0,1,1,5.046265044040321,0" fill="#1f77b4" transform="translate(-94.21190396037,-8.813487393792382)"><title>Person 636990</title></path><path d="M5.046265044040321,0A5.046265044040321,5.046265044040321,0,1,1,-5.046265044040321,0A5.046265044040321,5.046265044040321,0,1,1,5.046265044040321,0" fill="#8c564b" transform="translate(-103.5021834830527,41.210778199841315)"><title>Person 638752</title></path><path d="M5.046265044040321,0A5.046265044040321,5.046265044040321,0,1,1,-5.046265044040321,0A5.046265044040321,5.046265044040321,0,1,1,5.046265044040321,0" fill="#d62728" transform="translate(-27.27088318095924,-1.2343248091220396)"><title>Person 645393</title></path><path d="M5.046265044040321,0A5.046265044040321,5.046265044040321,0,1,1,-5.046265044040321,0A5.046265044040321,5.046265044040321,0,1,1,5.046265044040321,0" fill="#d62728" transform="translate(-0.19588921622709213,54.573414133736726)"><title>Person 646838</title></path><path d="M5.046265044040321,0A5.046265044040321,5.046265044040321,0,1,1,-5.046265044040321,0A5.046265044040321,5.046265044040321,0,1,1,5.046265044040321,0" fill="#1f77b4" transform="translate(75.12764071133019,-35.59754058545872)"><title>Person 655636</title></path><path d="M5.046265044040321,0A5.046265044040321,5.046265044040321,0,1,1,-5.046265044040321,0A5.046265044040321,5.046265044040321,0,1,1,5.046265044040321,0" fill="#9467bd" transform="translate(-101.33330866428064,62.41959340956063)"><title>Person 482973</title></path><path d="M5.046265044040321,0A5.046265044040321,5.046265044040321,0,1,1,-5.046265044040321,0A5.046265044040321,5.046265044040321,0,1,1,5.046265044040321,0" fill="#2ca02c" transform="translate(-24.279580013842086,-49.94658651565747)"><title>Person 494556</title></path><path d="M5.046265044040321,0A5.046265044040321,5.046265044040321,0,1,1,-5.046265044040321,0A5.046265044040321,5.046265044040321,0,1,1,5.046265044040321,0" fill="#7f7f7f" transform="translate(-39.46888898832806,0.5177289609540626)"><title>Person 497185</title></path><path d="M5.046265044040321,0A5.046265044040321,5.046265044040321,0,1,1,-5.046265044040321,0A5.046265044040321,5.046265044040321,0,1,1,5.046265044040321,0" fill="#7f7f7f" transform="translate(20.616821194349377,55.4321630279083)"><title>Person 508951</title></path><path d="M5.046265044040321,0A5.046265044040321,5.046265044040321,0,1,1,-5.046265044040321,0A5.046265044040321,5.046265044040321,0,1,1,5.046265044040321,0" fill="#8c564b" transform="translate(-22.1958235557764,15.59829523238289)"><title>Person 536715</title></path><path d="M5.046265044040321,0A5.046265044040321,5.046265044040321,0,1,1,-5.046265044040321,0A5.046265044040321,5.046265044040321,0,1,1,5.046265044040321,0" fill="#7f7f7f" transform="translate(44.524664416469776,-1.178653516117811)"><title>Person 536893</title></path><path d="M5.046265044040321,0A5.046265044040321,5.046265044040321,0,1,1,-5.046265044040321,0A5.046265044040321,5.046265044040321,0,1,1,5.046265044040321,0" fill="#8c564b" transform="translate(-22.066257146104537,-94.7595876132881)"><title>Person 545850</title></path><path d="M5.046265044040321,0A5.046265044040321,5.046265044040321,0,1,1,-5.046265044040321,0A5.046265044040321,5.046265044040321,0,1,1,5.046265044040321,0" fill="#8c564b" transform="translate(54.971326197706496,14.13567540491526)"><title>Person 584811</title></path><path d="M5.046265044040321,0A5.046265044040321,5.046265044040321,0,1,1,-5.046265044040321,0A5.046265044040321,5.046265044040321,0,1,1,5.046265044040321,0" fill="#d62728" transform="translate(33.240135932049895,51.27061719914774)"><title>Person 598220</title></path><path d="M5.046265044040321,0A5.046265044040321,5.046265044040321,0,1,1,-5.046265044040321,0A5.046265044040321,5.046265044040321,0,1,1,5.046265044040321,0" fill="#7f7f7f" transform="translate(-21.14287756924677,26.73203952586662)"><title>Person 612378</title></path><path d="M5.046265044040321,0A5.046265044040321,5.046265044040321,0,1,1,-5.046265044040321,0A5.046265044040321,5.046265044040321,0,1,1,5.046265044040321,0" fill="#d62728" transform="translate(59.47017009397681,-14.591906344151413)"><title>Person 634283</title></path><path d="M5.046265044040321,0A5.046265044040321,5.046265044040321,0,1,1,-5.046265044040321,0A5.046265044040321,5.046265044040321,0,1,1,5.046265044040321,0" fill="#9467bd" transform="translate(-25.98795829071883,-35.03495123161001)"><title>Person 652002</title></path><path d="M0,-8.441862787462423L1.8953162830083747,-2.6086790655073533L8.028688613685706,-2.6086790655073537L3.0666861653386652,0.9964267372834953L4.962002448347041,6.829610459238564L6.661338147750939e-16,3.2245046564477153L-4.9620024483470395,6.829610459238565L-3.0666861653386652,0.9964267372834958L-8.028688613685707,-2.608679065507352L-1.8953162830083754,-2.608679065507353Z" fill="#9467bd" transform="translate(2.7468493952409996,-13.781099202532932)"><title>Country 509607</title></path><path d="M0,-8.441862787462423L1.8953162830083747,-2.6086790655073533L8.028688613685706,-2.6086790655073537L3.0666861653386652,0.9964267372834953L4.962002448347041,6.829610459238564L6.661338147750939e-16,3.2245046564477153L-4.9620024483470395,6.829610459238565L-3.0666861653386652,0.9964267372834958L-8.028688613685707,-2.608679065507352L-1.8953162830083754,-2.608679065507353Z" fill="#1f77b4" transform="translate(16.073845771415435,30.156878582487842)"><title>Country 561157</title></path><path d="M0,-8.441862787462423L1.8953162830083747,-2.6086790655073533L8.028688613685706,-2.6086790655073537L3.0666861653386652,0.9964267372834953L4.962002448347041,6.829610459238564L6.661338147750939e-16,3.2245046564477153L-4.9620024483470395,6.829610459238565L-3.0666861653386652,0.9964267372834958L-8.028688613685707,-2.608679065507352L-1.8953162830083754,-2.608679065507353Z" fill="#8c564b" transform="translate(-23.30655840806249,61.320852757091636)"><title>Country 616453</title></path><path d="M0,-8.441862787462423L1.8953162830083747,-2.6086790655073533L8.028688613685706,-2.6086790655073537L3.0666861653386652,0.9964267372834953L4.962002448347041,6.829610459238564L6.661338147750939e-16,3.2245046564477153L-4.9620024483470395,6.829610459238565L-3.0666861653386652,0.9964267372834958L-8.028688613685707,-2.608679065507352L-1.8953162830083754,-2.608679065507353Z" fill="#ff7f0e" transform="translate(-4.910282291278663,4.142737299675929)"><title>Country 657173</title></path><path d="M0,-8.441862787462423L1.8953162830083747,-2.6086790655073533L8.028688613685706,-2.6086790655073537L3.0666861653386652,0.9964267372834953L4.962002448347041,6.829610459238564L6.661338147750939e-16,3.2245046564477153L-4.9620024483470395,6.829610459238565L-3.0666861653386652,0.9964267372834958L-8.028688613685707,-2.608679065507352L-1.8953162830083754,-2.608679065507353Z" fill="#2ca02c" transform="translate(-3.6526993363904308,-28.578143878048216)"><title>Country 499467</title></path><path d="M0,-8.441862787462423L1.8953162830083747,-2.6086790655073533L8.028688613685706,-2.6086790655073537L3.0666861653386652,0.9964267372834953L4.962002448347041,6.829610459238564L6.661338147750939e-16,3.2245046564477153L-4.9620024483470395,6.829610459238565L-3.0666861653386652,0.9964267372834958L-8.028688613685707,-2.608679065507352L-1.8953162830083754,-2.608679065507353Z" fill="#d62728" transform="translate(16.06879511510998,-6.8746234446762156)"><title>Country 625756</title></path><path d="M-4.47213595499958,-4.47213595499958h8.94427190999916v8.94427190999916h-8.94427190999916Z" fill="#7f7f7f" transform="translate(92.51685056794646,12.432875622887396)"><title>Document 593870</title></path></g></svg>