<svg width="300" height="300" viewBox="-150,-150,300,300"><text x="-150" y="-130" font-family="sans-serif" font-size="12px" text-anchor="start">Q4-matched_nodes_intra</text><g stroke="#999" stroke-opacity="0.6"><line stroke-width="1" x1="55.25755428220039" y1="-56.026064224184154" x2="-3.787816570001756" y2="-73.10693423863252"></line><line stroke-width="1" x1="55.25755428220039" y1="-56.026064224184154" x2="31.02440640775174" y2="-67.08529607394374"></line><line stroke-width="1" x1="-84.87510070162908" y1="21.550931059893838" x2="-51.583986645887634" y2="9.209603114357582"></line><line stroke-width="1" x1="-84.87510070162908" y1="21.550931059893838" x2="-61.05820755607742" y2="-9.016755465598093"></line><line stroke-width="1" x1="47.63277249968606" y1="33.18992443648131" x2="85.67140781419918" y2="-7.449653209012686"></line><line stroke-width="1" x1="47.63277249968606" y1="33.18992443648131" x2="4.8551322083934405" y2="53.630994697537766"></line><line stroke-width="1" x1="-96.13832481940503" y1="-64.53043366269021" x2="-63.16503577428744" y2="-78.2415128158032"></line><line stroke-width="1" x1="85.67140781419918" y1="-7.449653209012686" x2="57.635411192272116" y2="-5.320222607470841"></line><line stroke-width="1" x1="85.67140781419918" y1="-7.449653209012686" x2="55.25755428220039" y2="-56.026064224184154"></line><line stroke-width="1" x1="57.50710231253295" y1="21.729793688969217" x2="57.635411192272116" y2="-5.320222607470841"></line><line stroke-width="1" x1="57.50710231253295" y1="21.729793688969217" x2="57.635411192272116" y2="-5.320222607470841"></line><line stroke-width="1" x1="6.4705761104499615" y1="31.72640658914367" x2="28.56223658114477" y2="57.54771375406577"></line><line stroke-width="1" x1="98.1499276764567" y1="-4.732161787747475" x2="68.36142836116267" y2="-25.903288187804897"></line><line stroke-width="1" x1="98.1499276764567" y1="-4.732161787747475" x2="57.635411192272116" y2="-5.320222607470841"></line><line stroke-width="1.7320508075688772" x1="-48.54664100579798" y1="-46.83598960274833" x2="-3.787816570001756" y2="-73.10693423863252"></line><line stroke-width="2.6457513110645907" x1="-48.54664100579798" y1="-46.83598960274833" x2="-20.23212839225475" y2="-97.13816601581581"></line><line stroke-width="1.7320508075688772" x1="-48.54664100579798" y1="-46.83598960274833" x2="-62.51796974497139" y2="-95.5661634229969"></line><line stroke-width="1" x1="-48.54664100579798" y1="-46.83598960274833" x2="-5.796974511817041" y2="-35.17076815571712"></line><line stroke-width="1.7320508075688772" x1="-48.54664100579798" y1="-46.83598960274833" x2="-44.44884474192468" y2="-89.0336456240812"></line><line stroke-width="1.4142135623730951" x1="-48.54664100579798" y1="-46.83598960274833" x2="-76.2630565460961" y2="-66.40761103670607"></line><line stroke-width="1.7320508075688772" x1="-48.54664100579798" y1="-46.83598960274833" x2="-44.79787019436552" y2="-65.12897281832265"></line><line stroke-width="1.4142135623730951" x1="-48.54664100579798" y1="-46.83598960274833" x2="-68.31917662889437" y2="-48.174916275215196"></line><line stroke-width="1.4142135623730951" x1="-48.54664100579798" y1="-46.83598960274833" x2="-20.491408279910033" y2="-70.80131476159714"></line><line stroke-width="1" x1="-48.54664100579798" y1="-46.83598960274833" x2="-3.787816570001756" y2="-73.10693423863252"></line><line stroke-width="1.4142135623730951" x1="-48.54664100579798" y1="-46.83598960274833" x2="-36.65477378097381" y2="-107.03331438008796"></line><line stroke-width="1.4142135623730951" x1="-48.54664100579798" y1="-46.83598960274833" x2="-44.44884474192468" y2="-89.0336456240812"></line><line stroke-width="1" x1="-48.54664100579798" y1="-46.83598960274833" x2="-44.79787019436552" y2="-65.12897281832265"></line><line stroke-width="1" x1="-48.54664100579798" y1="-46.83598960274833" x2="-68.31917662889437" y2="-48.174916275215196"></line><line stroke-width="1" x1="28.56223658114477" y1="57.54771375406577" x2="28.97195320376423" y2="22.667673167657203"></line><line stroke-width="1.4142135623730951" x1="28.56223658114477" y1="57.54771375406577" x2="49.17052347499544" y2="59.010812807313954"></line><line stroke-width="1" x1="28.56223658114477" y1="57.54771375406577" x2="11.323238505166143" y2="72.22814347340415"></line><line stroke-width="1" x1="-51.583986645887634" y1="9.209603114357582" x2="4.8551322083934405" y2="53.630994697537766"></line><line stroke-width="1.4142135623730951" x1="-51.583986645887634" y1="9.209603114357582" x2="-19.462818857706853" y2="4.74955732790698"></line><line stroke-width="1.7320508075688772" x1="-51.583986645887634" y1="9.209603114357582" x2="-19.788225161283794" y2="-12.355700288260364"></line><line stroke-width="1.4142135623730951" x1="-51.583986645887634" y1="9.209603114357582" x2="-76.2630565460961" y2="-66.40761103670607"></line><line stroke-width="2.449489742783178" x1="-3.787816570001756" y1="-73.10693423863252" x2="-48.54664100579798" y2="-46.83598960274833"></line><line stroke-width="2.23606797749979" x1="-3.787816570001756" y1="-73.10693423863252" x2="-20.23212839225475" y2="-97.13816601581581"></line><line stroke-width="4.123105625617661" x1="-3.787816570001756" y1="-73.10693423863252" x2="31.02440640775174" y2="-67.08529607394374"></line><line stroke-width="1" x1="-3.787816570001756" y1="-73.10693423863252" x2="-36.65477378097381" y2="-107.03331438008796"></line><line stroke-width="2.23606797749979" x1="-3.787816570001756" y1="-73.10693423863252" x2="-5.796974511817041" y2="-35.17076815571712"></line><line stroke-width="1" x1="-3.787816570001756" y1="-73.10693423863252" x2="-44.44884474192468" y2="-89.0336456240812"></line><line stroke-width="1" x1="-3.787816570001756" y1="-73.10693423863252" x2="-44.79787019436552" y2="-65.12897281832265"></line><line stroke-width="1.4142135623730951" x1="-3.787816570001756" y1="-73.10693423863252" x2="-20.491408279910033" y2="-70.80131476159714"></line><line stroke-width="1" x1="-3.787816570001756" y1="-73.10693423863252" x2="-48.54664100579798" y2="-46.83598960274833"></line><line stroke-width="1" x1="-3.787816570001756" y1="-73.10693423863252" x2="-20.23212839225475" y2="-97.13816601581581"></line><line stroke-width="1.4142135623730951" x1="-3.787816570001756" y1="-73.10693423863252" x2="-62.51796974497139" y2="-95.5661634229969"></line><line stroke-width="1.4142135623730951" x1="-3.787816570001756" y1="-73.10693423863252" x2="-63.16503577428744" y2="-78.2415128158032"></line><line stroke-width="1.4142135623730951" x1="-3.787816570001756" y1="-73.10693423863252" x2="-36.65477378097381" y2="-107.03331438008796"></line><line stroke-width="1" x1="-3.787816570001756" y1="-73.10693423863252" x2="-44.79787019436552" y2="-65.12897281832265"></line><line stroke-width="1" x1="-3.787816570001756" y1="-73.10693423863252" x2="-20.491408279910033" y2="-70.80131476159714"></line><line stroke-width="3.3166247903554" x1="-20.23212839225475" y1="-97.13816601581581" x2="-48.54664100579798" y2="-46.83598960274833"></line><line stroke-width="1.7320508075688772" x1="-20.23212839225475" y1="-97.13816601581581" x2="-3.787816570001756" y2="-73.10693423863252"></line><line stroke-width="2.449489742783178" x1="-20.23212839225475" y1="-97.13816601581581" x2="-36.65477378097381" y2="-107.03331438008796"></line><line stroke-width="1.4142135623730951" x1="-20.23212839225475" y1="-97.13816601581581" x2="-44.44884474192468" y2="-89.0336456240812"></line><line stroke-width="1" x1="-20.23212839225475" y1="-97.13816601581581" x2="-76.2630565460961" y2="-66.40761103670607"></line><line stroke-width="1" x1="-20.23212839225475" y1="-97.13816601581581" x2="-44.79787019436552" y2="-65.12897281832265"></line><line stroke-width="3" x1="-20.23212839225475" y1="-97.13816601581581" x2="-20.491408279910033" y2="-70.80131476159714"></line><line stroke-width="2.8284271247461903" x1="-20.23212839225475" y1="-97.13816601581581" x2="-48.54664100579798" y2="-46.83598960274833"></line><line stroke-width="1.4142135623730951" x1="-20.23212839225475" y1="-97.13816601581581" x2="-3.787816570001756" y2="-73.10693423863252"></line><line stroke-width="1.4142135623730951" x1="-20.23212839225475" y1="-97.13816601581581" x2="-62.51796974497139" y2="-95.5661634229969"></line><line stroke-width="1" x1="-20.23212839225475" y1="-97.13816601581581" x2="-36.65477378097381" y2="-107.03331438008796"></line><line stroke-width="1" x1="-20.23212839225475" y1="-97.13816601581581" x2="-5.796974511817041" y2="-35.17076815571712"></line><line stroke-width="1.4142135623730951" x1="-20.23212839225475" y1="-97.13816601581581" x2="-44.44884474192468" y2="-89.0336456240812"></line><line stroke-width="2" x1="-20.23212839225475" y1="-97.13816601581581" x2="-44.79787019436552" y2="-65.12897281832265"></line><line stroke-width="1.7320508075688772" x1="-20.23212839225475" y1="-97.13816601581581" x2="-68.31917662889437" y2="-48.174916275215196"></line><line stroke-width="2.23606797749979" x1="-20.23212839225475" y1="-97.13816601581581" x2="-20.491408279910033" y2="-70.80131476159714"></line><line stroke-width="1" x1="-31.783994985625068" y1="-54.57202501149846" x2="-63.16503577428744" y2="-78.2415128158032"></line><line stroke-width="1" x1="-61.05820755607742" y1="-9.016755465598093" x2="-8.479495421758267" y2="0.7627421363912413"></line><line stroke-width="1.4142135623730951" x1="-61.05820755607742" y1="-9.016755465598093" x2="-31.783994985625068" y2="-54.57202501149846"></line><line stroke-width="1" x1="-61.05820755607742" y1="-9.016755465598093" x2="-5.796974511817041" y2="-35.17076815571712"></line><line stroke-width="1.4142135623730951" x1="-61.05820755607742" y1="-9.016755465598093" x2="-37.40894904082871" y2="-20.939121853759836"></line><line stroke-width="1" x1="-61.05820755607742" y1="-9.016755465598093" x2="-61.05820755607742" y2="-9.016755465598093"></line><line stroke-width="1" x1="-61.05820755607742" y1="-9.016755465598093" x2="-19.788225161283794" y2="-12.355700288260364"></line><line stroke-width="1.4142135623730951" x1="-61.05820755607742" y1="-9.016755465598093" x2="-23.51946008539541" y2="-31.536805916879892"></line><line stroke-width="3" x1="31.02440640775174" y1="-67.08529607394374" x2="-3.787816570001756" y2="-73.10693423863252"></line><line stroke-width="3.872983346207417" x1="31.02440640775174" y1="-67.08529607394374" x2="-5.796974511817041" y2="-35.17076815571712"></line><line stroke-width="1" x1="31.02440640775174" y1="-67.08529607394374" x2="6.833836997298004" y2="-51.41651422724392"></line><line stroke-width="1" x1="-19.788225161283794" y1="-12.355700288260364" x2="-3.787816570001756" y2="-73.10693423863252"></line><line stroke-width="1" x1="-62.51796974497139" y1="-95.5661634229969" x2="-76.2630565460961" y2="-66.40761103670607"></line><line stroke-width="2.23606797749979" x1="-62.51796974497139" y1="-95.5661634229969" x2="-68.31917662889437" y2="-48.174916275215196"></line><line stroke-width="2" x1="-62.51796974497139" y1="-95.5661634229969" x2="-20.491408279910033" y2="-70.80131476159714"></line><line stroke-width="1.4142135623730951" x1="-62.51796974497139" y1="-95.5661634229969" x2="-48.54664100579798" y2="-46.83598960274833"></line><line stroke-width="1.4142135623730951" x1="-62.51796974497139" y1="-95.5661634229969" x2="-3.787816570001756" y2="-73.10693423863252"></line><line stroke-width="1" x1="-62.51796974497139" y1="-95.5661634229969" x2="-63.16503577428744" y2="-78.2415128158032"></line><line stroke-width="1" x1="-62.51796974497139" y1="-95.5661634229969" x2="-36.65477378097381" y2="-107.03331438008796"></line><line stroke-width="1.4142135623730951" x1="-62.51796974497139" y1="-95.5661634229969" x2="-44.44884474192468" y2="-89.0336456240812"></line><line stroke-width="2.6457513110645907" x1="-62.51796974497139" y1="-95.5661634229969" x2="-76.2630565460961" y2="-66.40761103670607"></line><line stroke-width="1.4142135623730951" x1="-62.51796974497139" y1="-95.5661634229969" x2="-44.79787019436552" y2="-65.12897281832265"></line><line stroke-width="2.6457513110645907" x1="-62.51796974497139" y1="-95.5661634229969" x2="-68.31917662889437" y2="-48.174916275215196"></line><line stroke-width="2.23606797749979" x1="-62.51796974497139" y1="-95.5661634229969" x2="-20.491408279910033" y2="-70.80131476159714"></line><line stroke-width="1" x1="-63.16503577428744" y1="-78.2415128158032" x2="-48.54664100579798" y2="-46.83598960274833"></line><line stroke-width="1" x1="-63.16503577428744" y1="-78.2415128158032" x2="-20.23212839225475" y2="-97.13816601581581"></line><line stroke-width="1.4142135623730951" x1="-63.16503577428744" y1="-78.2415128158032" x2="-62.51796974497139" y2="-95.5661634229969"></line><line stroke-width="1" x1="-63.16503577428744" y1="-78.2415128158032" x2="-36.65477378097381" y2="-107.03331438008796"></line><line stroke-width="1.7320508075688772" x1="-63.16503577428744" y1="-78.2415128158032" x2="-44.44884474192468" y2="-89.0336456240812"></line><line stroke-width="1.4142135623730951" x1="-63.16503577428744" y1="-78.2415128158032" x2="-76.2630565460961" y2="-66.40761103670607"></line><line stroke-width="1" x1="-63.16503577428744" y1="-78.2415128158032" x2="-68.31917662889437" y2="-48.174916275215196"></line><line stroke-width="1.4142135623730951" x1="-63.16503577428744" y1="-78.2415128158032" x2="-20.491408279910033" y2="-70.80131476159714"></line><line stroke-width="1.7320508075688772" x1="-63.16503577428744" y1="-78.2415128158032" x2="-44.79787019436552" y2="-65.12897281832265"></line><line stroke-width="1.7320508075688772" x1="-63.16503577428744" y1="-78.2415128158032" x2="-20.491408279910033" y2="-70.80131476159714"></line><line stroke-width="1" x1="26.964492089546788" y1="-43.79875695645372" x2="30.81126802030395" y2="40.61007722201607"></line><line stroke-width="1" x1="28.97195320376423" y1="22.667673167657203" x2="-19.788225161283794" y2="-12.355700288260364"></line><line stroke-width="1" x1="28.97195320376423" y1="22.667673167657203" x2="-44.79787019436552" y2="-65.12897281832265"></line><line stroke-width="1" x1="28.97195320376423" y1="22.667673167657203" x2="-8.479495421758267" y2="0.7627421363912413"></line><line stroke-width="1.4142135623730951" x1="28.97195320376423" y1="22.667673167657203" x2="28.56223658114477" y2="57.54771375406577"></line><line stroke-width="1.4142135623730951" x1="28.97195320376423" y1="22.667673167657203" x2="4.8551322083934405" y2="53.630994697537766"></line><line stroke-width="1.7320508075688772" x1="28.97195320376423" y1="22.667673167657203" x2="49.17052347499544" y2="59.010812807313954"></line><line stroke-width="1" x1="16.865301015536197" y1="-84.08123396326312" x2="31.02440640775174" y2="-67.08529607394374"></line><line stroke-width="1" x1="16.865301015536197" y1="-84.08123396326312" x2="26.964492089546788" y2="-43.79875695645372"></line><line stroke-width="1.7320508075688772" x1="16.865301015536197" y1="-84.08123396326312" x2="-20.491408279910033" y2="-70.80131476159714"></line><line stroke-width="1" x1="16.865301015536197" y1="-84.08123396326312" x2="-31.783994985625068" y2="-54.57202501149846"></line><line stroke-width="1.4142135623730951" x1="16.865301015536197" y1="-84.08123396326312" x2="31.02440640775174" y2="-67.08529607394374"></line><line stroke-width="2" x1="16.865301015536197" y1="-84.08123396326312" x2="26.964492089546788" y2="-43.79875695645372"></line><line stroke-width="2" x1="16.865301015536197" y1="-84.08123396326312" x2="6.833836997298004" y2="-51.41651422724392"></line><line stroke-width="1.4142135623730951" x1="16.865301015536197" y1="-84.08123396326312" x2="-20.491408279910033" y2="-70.80131476159714"></line><line stroke-width="1.7320508075688772" x1="-36.65477378097381" y1="-107.03331438008796" x2="-48.54664100579798" y2="-46.83598960274833"></line><line stroke-width="2" x1="-36.65477378097381" y1="-107.03331438008796" x2="-3.787816570001756" y2="-73.10693423863252"></line><line stroke-width="1.7320508075688772" x1="-36.65477378097381" y1="-107.03331438008796" x2="-20.23212839225475" y2="-97.13816601581581"></line><line stroke-width="1.7320508075688772" x1="-36.65477378097381" y1="-107.03331438008796" x2="-44.44884474192468" y2="-89.0336456240812"></line><line stroke-width="1" x1="-36.65477378097381" y1="-107.03331438008796" x2="-44.79787019436552" y2="-65.12897281832265"></line><line stroke-width="1" x1="-36.65477378097381" y1="-107.03331438008796" x2="-20.491408279910033" y2="-70.80131476159714"></line><line stroke-width="1" x1="-5.796974511817041" y1="-35.17076815571712" x2="6.4705761104499615" y2="31.72640658914367"></line><line stroke-width="1.7320508075688772" x1="-5.796974511817041" y1="-35.17076815571712" x2="-3.787816570001756" y2="-73.10693423863252"></line><line stroke-width="4.69041575982343" x1="-5.796974511817041" y1="-35.17076815571712" x2="31.02440640775174" y2="-67.08529607394374"></line><line stroke-width="1" x1="-5.796974511817041" y1="-35.17076815571712" x2="-68.31917662889437" y2="-48.174916275215196"></line><line stroke-width="1" x1="-5.796974511817041" y1="-35.17076815571712" x2="57.635411192272116" y2="-5.320222607470841"></line><line stroke-width="1" x1="11.323238505166143" y1="72.22814347340415" x2="47.63277249968606" y2="33.18992443648131"></line><line stroke-width="1" x1="11.323238505166143" y1="72.22814347340415" x2="6.4705761104499615" y2="31.72640658914367"></line><line stroke-width="1.4142135623730951" x1="11.323238505166143" y1="72.22814347340415" x2="30.81126802030395" y2="40.61007722201607"></line><line stroke-width="1.7320508075688772" x1="11.323238505166143" y1="72.22814347340415" x2="14.903059593905455" y2="9.3386658782855"></line><line stroke-width="1.4142135623730951" x1="4.8551322083934405" y1="53.630994697537766" x2="28.56223658114477" y2="57.54771375406577"></line><line stroke-width="1.4142135623730951" x1="4.8551322083934405" y1="53.630994697537766" x2="28.97195320376423" y2="22.667673167657203"></line><line stroke-width="1" x1="4.8551322083934405" y1="53.630994697537766" x2="-5.796974511817041" y2="-35.17076815571712"></line><line stroke-width="1" x1="4.8551322083934405" y1="53.630994697537766" x2="49.17052347499544" y2="59.010812807313954"></line><line stroke-width="1" x1="4.8551322083934405" y1="53.630994697537766" x2="27.606531735200832" y2="82.92051761637978"></line><line stroke-width="1" x1="4.8551322083934405" y1="53.630994697537766" x2="11.323238505166143" y2="72.22814347340415"></line><line stroke-width="1" x1="-44.44884474192468" y1="-89.0336456240812" x2="-48.54664100579798" y2="-46.83598960274833"></line><line stroke-width="2" x1="-44.44884474192468" y1="-89.0336456240812" x2="-3.787816570001756" y2="-73.10693423863252"></line><line stroke-width="2" x1="-44.44884474192468" y1="-89.0336456240812" x2="-20.23212839225475" y2="-97.13816601581581"></line><line stroke-width="2" x1="-44.44884474192468" y1="-89.0336456240812" x2="-36.65477378097381" y2="-107.03331438008796"></line><line stroke-width="1.7320508075688772" x1="-44.44884474192468" y1="-89.0336456240812" x2="-20.491408279910033" y2="-70.80131476159714"></line><line stroke-width="1" x1="-44.44884474192468" y1="-89.0336456240812" x2="-48.54664100579798" y2="-46.83598960274833"></line><line stroke-width="1" x1="-44.44884474192468" y1="-89.0336456240812" x2="-3.787816570001756" y2="-73.10693423863252"></line><line stroke-width="1" x1="-44.44884474192468" y1="-89.0336456240812" x2="-62.51796974497139" y2="-95.5661634229969"></line><line stroke-width="2.23606797749979" x1="-44.44884474192468" y1="-89.0336456240812" x2="-36.65477378097381" y2="-107.03331438008796"></line><line stroke-width="1" x1="-44.44884474192468" y1="-89.0336456240812" x2="-68.31917662889437" y2="-48.174916275215196"></line><line stroke-width="1" x1="-44.44884474192468" y1="-89.0336456240812" x2="-20.491408279910033" y2="-70.80131476159714"></line><line stroke-width="1" x1="30.81126802030395" y1="40.61007722201607" x2="57.50710231253295" y2="21.729793688969217"></line><line stroke-width="1.7320508075688772" x1="30.81126802030395" y1="40.61007722201607" x2="11.323238505166143" y2="72.22814347340415"></line><line stroke-width="1" x1="30.81126802030395" y1="40.61007722201607" x2="14.903059593905455" y2="9.3386658782855"></line><line stroke-width="1" x1="30.81126802030395" y1="40.61007722201607" x2="-9.587957912405598" y2="60.079245158218505"></line><line stroke-width="1.4142135623730951" x1="30.81126802030395" y1="40.61007722201607" x2="27.606531735200832" y2="82.92051761637978"></line><line stroke-width="1" x1="-76.2630565460961" y1="-66.40761103670607" x2="-48.54664100579798" y2="-46.83598960274833"></line><line stroke-width="2" x1="-76.2630565460961" y1="-66.40761103670607" x2="-62.51796974497139" y2="-95.5661634229969"></line><line stroke-width="2.6457513110645907" x1="-76.2630565460961" y1="-66.40761103670607" x2="-68.31917662889437" y2="-48.174916275215196"></line><line stroke-width="1.4142135623730951" x1="-76.2630565460961" y1="-66.40761103670607" x2="-20.491408279910033" y2="-70.80131476159714"></line><line stroke-width="1" x1="-76.2630565460961" y1="-66.40761103670607" x2="-48.54664100579798" y2="-46.83598960274833"></line><line stroke-width="1.4142135623730951" x1="-76.2630565460961" y1="-66.40761103670607" x2="-20.23212839225475" y2="-97.13816601581581"></line><line stroke-width="2.6457513110645907" x1="-76.2630565460961" y1="-66.40761103670607" x2="-62.51796974497139" y2="-95.5661634229969"></line><line stroke-width="1" x1="-76.2630565460961" y1="-66.40761103670607" x2="-36.65477378097381" y2="-107.03331438008796"></line><line stroke-width="1" x1="-76.2630565460961" y1="-66.40761103670607" x2="-44.44884474192468" y2="-89.0336456240812"></line><line stroke-width="1" x1="-76.2630565460961" y1="-66.40761103670607" x2="-44.79787019436552" y2="-65.12897281832265"></line><line stroke-width="2.449489742783178" x1="-76.2630565460961" y1="-66.40761103670607" x2="-68.31917662889437" y2="-48.174916275215196"></line><line stroke-width="2" x1="-76.2630565460961" y1="-66.40761103670607" x2="-20.491408279910033" y2="-70.80131476159714"></line><line stroke-width="1.4142135623730951" x1="49.17052347499544" y1="59.010812807313954" x2="28.56223658114477" y2="57.54771375406577"></line><line stroke-width="1.4142135623730951" x1="49.17052347499544" y1="59.010812807313954" x2="28.97195320376423" y2="22.667673167657203"></line><line stroke-width="1.7320508075688772" x1="49.17052347499544" y1="59.010812807313954" x2="4.8551322083934405" y2="53.630994697537766"></line><line stroke-width="1" x1="49.17052347499544" y1="59.010812807313954" x2="30.81126802030395" y2="40.61007722201607"></line><line stroke-width="1" x1="-37.40894904082871" y1="-20.939121853759836" x2="-61.05820755607742" y2="-9.016755465598093"></line><line stroke-width="1" x1="-37.40894904082871" y1="-20.939121853759836" x2="-68.31917662889437" y2="-48.174916275215196"></line><line stroke-width="1" x1="-44.79787019436552" y1="-65.12897281832265" x2="-48.54664100579798" y2="-46.83598960274833"></line><line stroke-width="1" x1="-44.79787019436552" y1="-65.12897281832265" x2="-3.787816570001756" y2="-73.10693423863252"></line><line stroke-width="1" x1="-44.79787019436552" y1="-65.12897281832265" x2="-61.05820755607742" y2="-9.016755465598093"></line><line stroke-width="3.1622776601683795" x1="-44.79787019436552" y1="-65.12897281832265" x2="-63.16503577428744" y2="-78.2415128158032"></line><line stroke-width="1" x1="-44.79787019436552" y1="-65.12897281832265" x2="-76.2630565460961" y2="-66.40761103670607"></line><line stroke-width="1" x1="-44.79787019436552" y1="-65.12897281832265" x2="-68.31917662889437" y2="-48.174916275215196"></line><line stroke-width="2.6457513110645907" x1="-44.79787019436552" y1="-65.12897281832265" x2="-20.491408279910033" y2="-70.80131476159714"></line><line stroke-width="1" x1="-44.79787019436552" y1="-65.12897281832265" x2="-48.54664100579798" y2="-46.83598960274833"></line><line stroke-width="1" x1="-44.79787019436552" y1="-65.12897281832265" x2="-3.787816570001756" y2="-73.10693423863252"></line><line stroke-width="1.4142135623730951" x1="-44.79787019436552" y1="-65.12897281832265" x2="-20.23212839225475" y2="-97.13816601581581"></line><line stroke-width="1.4142135623730951" x1="-44.79787019436552" y1="-65.12897281832265" x2="-36.65477378097381" y2="-107.03331438008796"></line><line stroke-width="1.7320508075688772" x1="-44.79787019436552" y1="-65.12897281832265" x2="-44.44884474192468" y2="-89.0336456240812"></line><line stroke-width="1.7320508075688772" x1="-44.79787019436552" y1="-65.12897281832265" x2="-76.2630565460961" y2="-66.40761103670607"></line><line stroke-width="1" x1="-44.79787019436552" y1="-65.12897281832265" x2="-68.31917662889437" y2="-48.174916275215196"></line><line stroke-width="1.4142135623730951" x1="-44.79787019436552" y1="-65.12897281832265" x2="-20.491408279910033" y2="-70.80131476159714"></line><line stroke-width="1" x1="-68.31917662889437" y1="-48.174916275215196" x2="-48.54664100579798" y2="-46.83598960274833"></line><line stroke-width="1" x1="-68.31917662889437" y1="-48.174916275215196" x2="-3.787816570001756" y2="-73.10693423863252"></line><line stroke-width="2" x1="-68.31917662889437" y1="-48.174916275215196" x2="-20.23212839225475" y2="-97.13816601581581"></line><line stroke-width="2.23606797749979" x1="-68.31917662889437" y1="-48.174916275215196" x2="-62.51796974497139" y2="-95.5661634229969"></line><line stroke-width="2" x1="-68.31917662889437" y1="-48.174916275215196" x2="-36.65477378097381" y2="-107.03331438008796"></line><line stroke-width="1" x1="-68.31917662889437" y1="-48.174916275215196" x2="-44.44884474192468" y2="-89.0336456240812"></line><line stroke-width="2.449489742783178" x1="-68.31917662889437" y1="-48.174916275215196" x2="-76.2630565460961" y2="-66.40761103670607"></line><line stroke-width="1" x1="-68.31917662889437" y1="-48.174916275215196" x2="-44.79787019436552" y2="-65.12897281832265"></line><line stroke-width="1" x1="-68.31917662889437" y1="-48.174916275215196" x2="-23.51946008539541" y2="-31.536805916879892"></line><line stroke-width="2.6457513110645907" x1="-68.31917662889437" y1="-48.174916275215196" x2="-20.491408279910033" y2="-70.80131476159714"></line><line stroke-width="2.23606797749979" x1="-68.31917662889437" y1="-48.174916275215196" x2="-62.51796974497139" y2="-95.5661634229969"></line><line stroke-width="1.7320508075688772" x1="-68.31917662889437" y1="-48.174916275215196" x2="-76.2630565460961" y2="-66.40761103670607"></line><line stroke-width="1.4142135623730951" x1="-68.31917662889437" y1="-48.174916275215196" x2="-20.491408279910033" y2="-70.80131476159714"></line><line stroke-width="1" x1="14.903059593905455" y1="9.3386658782855" x2="30.81126802030395" y2="40.61007722201607"></line><line stroke-width="1" x1="14.903059593905455" y1="9.3386658782855" x2="-20.491408279910033" y2="-70.80131476159714"></line><line stroke-width="1" x1="14.903059593905455" y1="9.3386658782855" x2="30.81126802030395" y2="40.61007722201607"></line><line stroke-width="2.23606797749979" x1="6.833836997298004" y1="-51.41651422724392" x2="31.02440640775174" y2="-67.08529607394374"></line><line stroke-width="2" x1="6.833836997298004" y1="-51.41651422724392" x2="26.964492089546788" y2="-43.79875695645372"></line><line stroke-width="1.4142135623730951" x1="6.833836997298004" y1="-51.41651422724392" x2="16.865301015536197" y2="-84.08123396326312"></line><line stroke-width="1" x1="6.833836997298004" y1="-51.41651422724392" x2="-68.31917662889437" y2="-48.174916275215196"></line><line stroke-width="1.4142135623730951" x1="6.833836997298004" y1="-51.41651422724392" x2="-20.491408279910033" y2="-70.80131476159714"></line><line stroke-width="1.7320508075688772" x1="6.833836997298004" y1="-51.41651422724392" x2="31.02440640775174" y2="-67.08529607394374"></line><line stroke-width="1.7320508075688772" x1="6.833836997298004" y1="-51.41651422724392" x2="26.964492089546788" y2="-43.79875695645372"></line><line stroke-width="1.7320508075688772" x1="6.833836997298004" y1="-51.41651422724392" x2="16.865301015536197" y2="-84.08123396326312"></line><line stroke-width="1.4142135623730951" x1="6.833836997298004" y1="-51.41651422724392" x2="30.81126802030395" y2="40.61007722201607"></line><line stroke-width="1" x1="6.833836997298004" y1="-51.41651422724392" x2="-37.40894904082871" y2="-20.939121853759836"></line><line stroke-width="1.4142135623730951" x1="6.833836997298004" y1="-51.41651422724392" x2="-20.491408279910033" y2="-70.80131476159714"></line><line stroke-width="1" x1="-23.51946008539541" y1="-31.536805916879892" x2="31.02440640775174" y2="-67.08529607394374"></line><line stroke-width="1" x1="-23.51946008539541" y1="-31.536805916879892" x2="-19.462818857706853" y2="4.74955732790698"></line><line stroke-width="1" x1="-23.51946008539541" y1="-31.536805916879892" x2="-19.788225161283794" y2="-12.355700288260364"></line><line stroke-width="2" x1="-20.491408279910033" y1="-70.80131476159714" x2="-20.23212839225475" y2="-97.13816601581581"></line><line stroke-width="2.449489742783178" x1="-20.491408279910033" y1="-70.80131476159714" x2="31.02440640775174" y2="-67.08529607394374"></line><line stroke-width="1.4142135623730951" x1="-20.491408279910033" y1="-70.80131476159714" x2="-62.51796974497139" y2="-95.5661634229969"></line><line stroke-width="1.7320508075688772" x1="-20.491408279910033" y1="-70.80131476159714" x2="-63.16503577428744" y2="-78.2415128158032"></line><line stroke-width="1.7320508075688772" x1="-20.491408279910033" y1="-70.80131476159714" x2="26.964492089546788" y2="-43.79875695645372"></line><line stroke-width="2.23606797749979" x1="-20.491408279910033" y1="-70.80131476159714" x2="16.865301015536197" y2="-84.08123396326312"></line><line stroke-width="1.4142135623730951" x1="-20.491408279910033" y1="-70.80131476159714" x2="-36.65477378097381" y2="-107.03331438008796"></line><line stroke-width="1.7320508075688772" x1="-20.491408279910033" y1="-70.80131476159714" x2="-44.44884474192468" y2="-89.0336456240812"></line><line stroke-width="2.23606797749979" x1="-20.491408279910033" y1="-70.80131476159714" x2="-76.2630565460961" y2="-66.40761103670607"></line><line stroke-width="2.23606797749979" x1="-20.491408279910033" y1="-70.80131476159714" x2="-44.79787019436552" y2="-65.12897281832265"></line><line stroke-width="1.7320508075688772" x1="-20.491408279910033" y1="-70.80131476159714" x2="-68.31917662889437" y2="-48.174916275215196"></line><line stroke-width="1" x1="-20.491408279910033" y1="-70.80131476159714" x2="6.833836997298004" y2="-51.41651422724392"></line><line stroke-width="3" x1="-20.491408279910033" y1="-70.80131476159714" x2="-48.54664100579798" y2="-46.83598960274833"></line><line stroke-width="2.449489742783178" x1="-20.491408279910033" y1="-70.80131476159714" x2="-3.787816570001756" y2="-73.10693423863252"></line><line stroke-width="2.8284271247461903" x1="-20.491408279910033" y1="-70.80131476159714" x2="-20.23212839225475" y2="-97.13816601581581"></line><line stroke-width="1.7320508075688772" x1="-20.491408279910033" y1="-70.80131476159714" x2="31.02440640775174" y2="-67.08529607394374"></line><line stroke-width="2.23606797749979" x1="-20.491408279910033" y1="-70.80131476159714" x2="-62.51796974497139" y2="-95.5661634229969"></line><line stroke-width="2.6457513110645907" x1="-20.491408279910033" y1="-70.80131476159714" x2="-63.16503577428744" y2="-78.2415128158032"></line><line stroke-width="1.7320508075688772" x1="-20.491408279910033" y1="-70.80131476159714" x2="26.964492089546788" y2="-43.79875695645372"></line><line stroke-width="2.23606797749979" x1="-20.491408279910033" y1="-70.80131476159714" x2="16.865301015536197" y2="-84.08123396326312"></line><line stroke-width="2.23606797749979" x1="-20.491408279910033" y1="-70.80131476159714" x2="-36.65477378097381" y2="-107.03331438008796"></line><line stroke-width="1.7320508075688772" x1="-20.491408279910033" y1="-70.80131476159714" x2="-44.44884474192468" y2="-89.0336456240812"></line><line stroke-width="2.449489742783178" x1="-20.491408279910033" y1="-70.80131476159714" x2="-76.2630565460961" y2="-66.40761103670607"></line><line stroke-width="2.6457513110645907" x1="-20.491408279910033" y1="-70.80131476159714" x2="-44.79787019436552" y2="-65.12897281832265"></line><line stroke-width="2.449489742783178" x1="-20.491408279910033" y1="-70.80131476159714" x2="-68.31917662889437" y2="-48.174916275215196"></line><line stroke-width="1.4142135623730951" x1="-20.491408279910033" y1="-70.80131476159714" x2="6.833836997298004" y2="-51.41651422724392"></line><line stroke-width="1" x1="81.39404146333366" y1="27.811425830955603" x2="85.67140781419918" y2="-7.449653209012686"></line><line stroke-width="1" x1="81.39404146333366" y1="27.811425830955603" x2="85.67140781419918" y2="-7.449653209012686"></line><line stroke-width="1" x1="81.39404146333366" y1="27.811425830955603" x2="28.97195320376423" y2="22.667673167657203"></line></g><g stroke="#fff" stroke-width="1.5"><path d="M5.046265044040321,0A5.046265044040321,5.046265044040321,0,1,1,-5.046265044040321,0A5.046265044040321,5.046265044040321,0,1,1,5.046265044040321,0" fill="#8c564b" transform="translate(-84.87510070162908,21.550931059893838)"><title>Person 476124</title></path><path d="M5.046265044040321,0A5.046265044040321,5.046265044040321,0,1,1,-5.046265044040321,0A5.046265044040321,5.046265044040321,0,1,1,5.046265044040321,0" fill="#8c564b" transform="translate(-9.587957912405598,60.079245158218505)"><title>Person 477769</title></path><path d="M5.046265044040321,0A5.046265044040321,5.046265044040321,0,1,1,-5.046265044040321,0A5.046265044040321,5.046265044040321,0,1,1,5.046265044040321,0" fill="#1f77b4" transform="translate(47.63277249968606,33.18992443648131)"><title>Person 479204</title></path><path d="M5.046265044040321,0A5.046265044040321,5.046265044040321,0,1,1,-5.046265044040321,0A5.046265044040321,5.046265044040321,0,1,1,5.046265044040321,0" fill="#8c564b" transform="translate(-96.13832481940503,-64.53043366269021)"><title>Person 480268</title></path><path d="M5.046265044040321,0A5.046265044040321,5.046265044040321,0,1,1,-5.046265044040321,0A5.046265044040321,5.046265044040321,0,1,1,5.046265044040321,0" fill="#8c564b" transform="translate(85.67140781419918,-7.449653209012686)"><title>Person 480375</title></path><path d="M5.046265044040321,0A5.046265044040321,5.046265044040321,0,1,1,-5.046265044040321,0A5.046265044040321,5.046265044040321,0,1,1,5.046265044040321,0" fill="#8c564b" transform="translate(57.50710231253295,21.729793688969217)"><title>Person 500192</title></path><path d="M5.046265044040321,0A5.046265044040321,5.046265044040321,0,1,1,-5.046265044040321,0A5.046265044040321,5.046265044040321,0,1,1,5.046265044040321,0" fill="#7f7f7f" transform="translate(-27.1111609171656,28.12751337249359)"><title>Person 510483</title></path><path d="M5.046265044040321,0A5.046265044040321,5.046265044040321,0,1,1,-5.046265044040321,0A5.046265044040321,5.046265044040321,0,1,1,5.046265044040321,0" fill="#9467bd" transform="translate(6.4705761104499615,31.72640658914367)"><title>Person 513182</title></path><path d="M5.046265044040321,0A5.046265044040321,5.046265044040321,0,1,1,-5.046265044040321,0A5.046265044040321,5.046265044040321,0,1,1,5.046265044040321,0" fill="#d62728" transform="translate(55.25755428220039,-56.026064224184154)"><title>Person 463126</title></path><path d="M5.046265044040321,0A5.046265044040321,5.046265044040321,0,1,1,-5.046265044040321,0A5.046265044040321,5.046265044040321,0,1,1,5.046265044040321,0" fill="#8c564b" transform="translate(98.1499276764567,-4.732161787747475)"><title>Person 516694</title></path><path d="M5.046265044040321,0A5.046265044040321,5.046265044040321,0,1,1,-5.046265044040321,0A5.046265044040321,5.046265044040321,0,1,1,5.046265044040321,0" fill="#9467bd" transform="translate(-48.54664100579798,-46.83598960274833)"><title>Person 519424</title></path><path d="M5.046265044040321,0A5.046265044040321,5.046265044040321,0,1,1,-5.046265044040321,0A5.046265044040321,5.046265044040321,0,1,1,5.046265044040321,0" fill="#9467bd" transform="translate(28.56223658114477,57.54771375406577)"><title>Person 534034</title></path><path d="M5.046265044040321,0A5.046265044040321,5.046265044040321,0,1,1,-5.046265044040321,0A5.046265044040321,5.046265044040321,0,1,1,5.046265044040321,0" fill="#1f77b4" transform="translate(-8.479495421758267,0.7627421363912413)"><title>Person 464459</title></path><path d="M5.046265044040321,0A5.046265044040321,5.046265044040321,0,1,1,-5.046265044040321,0A5.046265044040321,5.046265044040321,0,1,1,5.046265044040321,0" fill="#2ca02c" transform="translate(-51.583986645887634,9.209603114357582)"><title>Person 538892</title></path><path d="M5.046265044040321,0A5.046265044040321,5.046265044040321,0,1,1,-5.046265044040321,0A5.046265044040321,5.046265044040321,0,1,1,5.046265044040321,0" fill="#2ca02c" transform="translate(-19.462818857706853,4.74955732790698)"><title>Person 542965</title></path><path d="M5.046265044040321,0A5.046265044040321,5.046265044040321,0,1,1,-5.046265044040321,0A5.046265044040321,5.046265044040321,0,1,1,5.046265044040321,0" fill="#d62728" transform="translate(-3.787816570001756,-73.10693423863252)"><title>Person 546999</title></path><path d="M5.046265044040321,0A5.046265044040321,5.046265044040321,0,1,1,-5.046265044040321,0A5.046265044040321,5.046265044040321,0,1,1,5.046265044040321,0" fill="#9467bd" transform="translate(-20.23212839225475,-97.13816601581581)"><title>Person 551810</title></path><path d="M5.046265044040321,0A5.046265044040321,5.046265044040321,0,1,1,-5.046265044040321,0A5.046265044040321,5.046265044040321,0,1,1,5.046265044040321,0" fill="#d62728" transform="translate(-31.783994985625068,-54.57202501149846)"><title>Person 561312</title></path><path d="M5.046265044040321,0A5.046265044040321,5.046265044040321,0,1,1,-5.046265044040321,0A5.046265044040321,5.046265044040321,0,1,1,5.046265044040321,0" fill="#7f7f7f" transform="translate(-32.370928441837165,50.96738871205174)"><title>Person 562598</title></path><path d="M5.046265044040321,0A5.046265044040321,5.046265044040321,0,1,1,-5.046265044040321,0A5.046265044040321,5.046265044040321,0,1,1,5.046265044040321,0" fill="#1f77b4" transform="translate(-61.05820755607742,-9.016755465598093)"><title>Person 568093</title></path><path d="M5.046265044040321,0A5.046265044040321,5.046265044040321,0,1,1,-5.046265044040321,0A5.046265044040321,5.046265044040321,0,1,1,5.046265044040321,0" fill="#8c564b" transform="translate(31.02440640775174,-67.08529607394374)"><title>Person 570284</title></path><path d="M5.046265044040321,0A5.046265044040321,5.046265044040321,0,1,1,-5.046265044040321,0A5.046265044040321,5.046265044040321,0,1,1,5.046265044040321,0" fill="#2ca02c" transform="translate(-19.788225161283794,-12.355700288260364)"><title>Person 572391</title></path><path d="M5.046265044040321,0A5.046265044040321,5.046265044040321,0,1,1,-5.046265044040321,0A5.046265044040321,5.046265044040321,0,1,1,5.046265044040321,0" fill="#8c564b" transform="translate(-62.51796974497139,-95.5661634229969)"><title>Person 572500</title></path><path d="M5.046265044040321,0A5.046265044040321,5.046265044040321,0,1,1,-5.046265044040321,0A5.046265044040321,5.046265044040321,0,1,1,5.046265044040321,0" fill="#7f7f7f" transform="translate(-7.615603640052412,34.901997791286)"><title>Person 573206</title></path><path d="M5.046265044040321,0A5.046265044040321,5.046265044040321,0,1,1,-5.046265044040321,0A5.046265044040321,5.046265044040321,0,1,1,5.046265044040321,0" fill="#1f77b4" transform="translate(-63.16503577428744,-78.2415128158032)"><title>Person 581406</title></path><path d="M5.046265044040321,0A5.046265044040321,5.046265044040321,0,1,1,-5.046265044040321,0A5.046265044040321,5.046265044040321,0,1,1,5.046265044040321,0" fill="#8c564b" transform="translate(26.964492089546788,-43.79875695645372)"><title>Person 584811</title></path><path d="M5.046265044040321,0A5.046265044040321,5.046265044040321,0,1,1,-5.046265044040321,0A5.046265044040321,5.046265044040321,0,1,1,5.046265044040321,0" fill="#9467bd" transform="translate(28.97195320376423,22.667673167657203)"><title>Person 585212</title></path><path d="M5.046265044040321,0A5.046265044040321,5.046265044040321,0,1,1,-5.046265044040321,0A5.046265044040321,5.046265044040321,0,1,1,5.046265044040321,0" fill="#8c564b" transform="translate(16.865301015536197,-84.08123396326312)"><title>Person 593266</title></path><path d="M5.046265044040321,0A5.046265044040321,5.046265044040321,0,1,1,-5.046265044040321,0A5.046265044040321,5.046265044040321,0,1,1,5.046265044040321,0" fill="#d62728" transform="translate(-36.65477378097381,-107.03331438008796)"><title>Person 594766</title></path><path d="M5.046265044040321,0A5.046265044040321,5.046265044040321,0,1,1,-5.046265044040321,0A5.046265044040321,5.046265044040321,0,1,1,5.046265044040321,0" fill="#9467bd" transform="translate(-5.796974511817041,-35.17076815571712)"><title>Person 595104</title></path><path d="M5.046265044040321,0A5.046265044040321,5.046265044040321,0,1,1,-5.046265044040321,0A5.046265044040321,5.046265044040321,0,1,1,5.046265044040321,0" fill="#8c564b" transform="translate(11.323238505166143,72.22814347340415)"><title>Person 598006</title></path><path d="M5.046265044040321,0A5.046265044040321,5.046265044040321,0,1,1,-5.046265044040321,0A5.046265044040321,5.046265044040321,0,1,1,5.046265044040321,0" fill="#d62728" transform="translate(68.36142836116267,-25.903288187804897)"><title>Person 598220</title></path><path d="M5.046265044040321,0A5.046265044040321,5.046265044040321,0,1,1,-5.046265044040321,0A5.046265044040321,5.046265044040321,0,1,1,5.046265044040321,0" fill="#9467bd" transform="translate(4.8551322083934405,53.630994697537766)"><title>Person 599441</title></path><path d="M5.046265044040321,0A5.046265044040321,5.046265044040321,0,1,1,-5.046265044040321,0A5.046265044040321,5.046265044040321,0,1,1,5.046265044040321,0" fill="#d62728" transform="translate(-44.44884474192468,-89.0336456240812)"><title>Person 604223</title></path><path d="M5.046265044040321,0A5.046265044040321,5.046265044040321,0,1,1,-5.046265044040321,0A5.046265044040321,5.046265044040321,0,1,1,5.046265044040321,0" fill="#8c564b" transform="translate(30.81126802030395,40.61007722201607)"><title>Person 612711</title></path><path d="M5.046265044040321,0A5.046265044040321,5.046265044040321,0,1,1,-5.046265044040321,0A5.046265044040321,5.046265044040321,0,1,1,5.046265044040321,0" fill="#8c564b" transform="translate(-76.2630565460961,-66.40761103670607)"><title>Person 615605</title></path><path d="M5.046265044040321,0A5.046265044040321,5.046265044040321,0,1,1,-5.046265044040321,0A5.046265044040321,5.046265044040321,0,1,1,5.046265044040321,0" fill="#9467bd" transform="translate(49.17052347499544,59.010812807313954)"><title>Person 629627</title></path><path d="M5.046265044040321,0A5.046265044040321,5.046265044040321,0,1,1,-5.046265044040321,0A5.046265044040321,5.046265044040321,0,1,1,5.046265044040321,0" fill="#d62728" transform="translate(57.635411192272116,-5.320222607470841)"><title>Person 634283</title></path><path d="M5.046265044040321,0A5.046265044040321,5.046265044040321,0,1,1,-5.046265044040321,0A5.046265044040321,5.046265044040321,0,1,1,5.046265044040321,0" fill="#1f77b4" transform="translate(-37.40894904082871,-20.939121853759836)"><title>Person 635665</title></path><path d="M5.046265044040321,0A5.046265044040321,5.046265044040321,0,1,1,-5.046265044040321,0A5.046265044040321,5.046265044040321,0,1,1,5.046265044040321,0" fill="#1f77b4" transform="translate(-44.79787019436552,-65.12897281832265)"><title>Person 636990</title></path><path d="M5.046265044040321,0A5.046265044040321,5.046265044040321,0,1,1,-5.046265044040321,0A5.046265044040321,5.046265044040321,0,1,1,5.046265044040321,0" fill="#8c564b" transform="translate(-68.31917662889437,-48.174916275215196)"><title>Person 638752</title></path><path d="M5.046265044040321,0A5.046265044040321,5.046265044040321,0,1,1,-5.046265044040321,0A5.046265044040321,5.046265044040321,0,1,1,5.046265044040321,0" fill="#8c564b" transform="translate(14.903059593905455,9.3386658782855)"><title>Person 643411</title></path><path d="M5.046265044040321,0A5.046265044040321,5.046265044040321,0,1,1,-5.046265044040321,0A5.046265044040321,5.046265044040321,0,1,1,5.046265044040321,0" fill="#8c564b" transform="translate(6.833836997298004,-51.41651422724392)"><title>Person 643925</title></path><path d="M5.046265044040321,0A5.046265044040321,5.046265044040321,0,1,1,-5.046265044040321,0A5.046265044040321,5.046265044040321,0,1,1,5.046265044040321,0" fill="#d62728" transform="translate(-23.51946008539541,-31.536805916879892)"><title>Person 645393</title></path><path d="M5.046265044040321,0A5.046265044040321,5.046265044040321,0,1,1,-5.046265044040321,0A5.046265044040321,5.046265044040321,0,1,1,5.046265044040321,0" fill="#8c564b" transform="translate(-20.491408279910033,-70.80131476159714)"><title>Person 649553</title></path><path d="M5.046265044040321,0A5.046265044040321,5.046265044040321,0,1,1,-5.046265044040321,0A5.046265044040321,5.046265044040321,0,1,1,5.046265044040321,0" fill="#1f77b4" transform="translate(81.39404146333366,27.811425830955603)"><title>Person 655636</title></path><path d="M0,-8.441862787462423L1.8953162830083747,-2.6086790655073533L8.028688613685706,-2.6086790655073537L3.0666861653386652,0.9964267372834953L4.962002448347041,6.829610459238564L6.661338147750939e-16,3.2245046564477153L-4.9620024483470395,6.829610459238565L-3.0666861653386652,0.9964267372834958L-8.028688613685707,-2.608679065507352L-1.8953162830083754,-2.608679065507353Z" fill="#2ca02c" transform="translate(-28.51645101527094,15.846006525776964)"><title>Country 499467</title></path><path d="M0,-8.441862787462423L1.8953162830083747,-2.6086790655073533L8.028688613685706,-2.6086790655073537L3.0666861653386652,0.9964267372834953L4.962002448347041,6.829610459238564L6.661338147750939e-16,3.2245046564477153L-4.9620024483470395,6.829610459238565L-3.0666861653386652,0.9964267372834958L-8.028688613685707,-2.608679065507352L-1.8953162830083754,-2.608679065507353Z" fill="#9467bd" transform="translate(34.80005654128558,-10.26870721313799)"><title>Country 509607</title></path><path d="M0,-8.441862787462423L1.8953162830083747,-2.6086790655073533L8.028688613685706,-2.6086790655073537L3.0666861653386652,0.9964267372834953L4.962002448347041,6.829610459238564L6.661338147750939e-16,3.2245046564477153L-4.9620024483470395,6.829610459238565L-3.0666861653386652,0.9964267372834958L-8.028688613685707,-2.608679065507352L-1.8953162830083754,-2.608679065507353Z" fill="#8c564b" transform="translate(8.769465369485971,-18.051187029047338)"><title>Country 616453</title></path><path d="M0,-8.441862787462423L1.8953162830083747,-2.6086790655073533L8.028688613685706,-2.6086790655073537L3.0666861653386652,0.9964267372834953L4.962002448347041,6.829610459238564L6.661338147750939e-16,3.2245046564477153L-4.9620024483470395,6.829610459238565L-3.0666861653386652,0.9964267372834958L-8.028688613685707,-2.608679065507352L-1.8953162830083754,-2.608679065507353Z" fill="#d62728" transform="translate(21.247506793545163,-4.090574243434024)"><title>Country 625756</title></path><path d="M0,-8.441862787462423L1.8953162830083747,-2.6086790655073533L8.028688613685706,-2.6086790655073537L3.0666861653386652,0.9964267372834953L4.962002448347041,6.829610459238564L6.661338147750939e-16,3.2245046564477153L-4.9620024483470395,6.829610459238565L-3.0666861653386652,0.9964267372834958L-8.028688613685707,-2.608679065507352L-1.8953162830083754,-2.608679065507353Z" fill="#1f77b4" transform="translate(26.7048807351146,-22.637089493771807)"><title>Country 561157</title></path><path d="M0,-8.441862787462423L1.8953162830083747,-2.6086790655073533L8.028688613685706,-2.6086790655073537L3.0666861653386652,0.9964267372834953L4.962002448347041,6.829610459238564L6.661338147750939e-16,3.2245046564477153L-4.9620024483470395,6.829610459238565L-3.0666861653386652,0.9964267372834958L-8.028688613685707,-2.608679065507352L-1.8953162830083754,-2.608679065507353Z" fill="#ff7f0e" transform="translate(-2.977958322752477,17.469755852517025)"><title>Country 657173</title></path><path d="M-6,-2L-2,-2L-2,-6L2,-6L2,-2L6,-2L6,2L2,2L2,6L-2,6L-2,2L-6,2Z" fill="#7f7f7f" transform="translate(69.79483667033205,-83.98638045856657)"><title>Product 482264</title></path><path d="M5.046265044040321,0A5.046265044040321,5.046265044040321,0,1,1,-5.046265044040321,0A5.046265044040321,5.046265044040321,0,1,1,5.046265044040321,0" fill="#8c564b" transform="translate(27.606531735200832,82.92051761637978)"><title>Person 545850</title></path></g></svg>