<svg xmlns="http://www.w3.org/2000/svg" width="300" height="300" viewBox="-150,-150,300,300"><text x="-150" y="-130" font-family="sans-serif" font-size="12px" text-anchor="start">CGCS-Template</text><g stroke="#999999" stroke-opacity="0.6"><line stroke-width="1" x1="-3.916128315952603" y1="66.56388168966215" x2="24.307013219228867" y2="81.81117059356774" stroke="#999999"></line><line stroke-width="1" x1="-82.22041723314798" y1="23.058340008014397" x2="-58.06120477109766" y2="60.52796601574071" stroke="#999999"></line><line stroke-width="2.23607px" x1="-82.22041723314798" y1="23.058340008014397" x2="-63.12279359749392" y2="13.050008067380904" stroke="#999999"></line><line stroke-width="2px" x1="-82.22041723314798" y1="23.058340008014397" x2="-42.542263031690375" y2="35.476063785213235" stroke="#999999"></line><line stroke-width="2.64575px" x1="-82.22041723314798" y1="23.058340008014397" x2="-58.06120477109766" y2="60.52796601574071" stroke="#999999"></line><line stroke-width="2.64575px" x1="-82.22041723314798" y1="23.058340008014397" x2="-63.12279359749392" y2="13.050008067380904" stroke="#999999"></line><line stroke-width="2.23607px" x1="-82.22041723314798" y1="23.058340008014397" x2="-42.542263031690375" y2="35.476063785213235" stroke="#999999"></line><line stroke-width="1.41421px" x1="-82.22041723314798" y1="23.058340008014397" x2="-101.52457819165596" y2="21.818821551846284" stroke="#999999"></line><line stroke-width="1" x1="-82.22041723314798" y1="23.058340008014397" x2="-78.15883367339681" y2="60.08110588690211" stroke="#999999"></line><line stroke-width="1.41421px" x1="-82.22041723314798" y1="23.058340008014397" x2="-62.545143389294815" y2="29.14426032779588" stroke="#999999"></line><line stroke-width="1.41421px" x1="-82.22041723314798" y1="23.058340008014397" x2="-92.70293897710577" y2="36.392855701497325" stroke="#999999"></line><line stroke-width="1" x1="-82.22041723314798" y1="23.058340008014397" x2="-68.25552533101983" y2="47.91878403524488" stroke="#999999"></line><line stroke-width="1.41421px" x1="-82.22041723314798" y1="23.058340008014397" x2="-97.58646441400253" y2="53.08884098020746" stroke="#999999"></line><line stroke-width="2px" x1="-58.06120477109766" y1="60.52796601574071" x2="-82.22041723314798" y2="23.058340008014397" stroke="#999999"></line><line stroke-width="2.64575px" x1="-58.06120477109766" y1="60.52796601574071" x2="-63.12279359749392" y2="13.050008067380904" stroke="#999999"></line><line stroke-width="1.41421px" x1="-58.06120477109766" y1="60.52796601574071" x2="-42.542263031690375" y2="35.476063785213235" stroke="#999999"></line><line stroke-width="1" x1="-58.06120477109766" y1="60.52796601574071" x2="-97.58646441400253" y2="53.08884098020746" stroke="#999999"></line><line stroke-width="2.64575px" x1="-58.06120477109766" y1="60.52796601574071" x2="-82.22041723314798" y2="23.058340008014397" stroke="#999999"></line><line stroke-width="2.44949px" x1="-58.06120477109766" y1="60.52796601574071" x2="-63.12279359749392" y2="13.050008067380904" stroke="#999999"></line><line stroke-width="2px" x1="-58.06120477109766" y1="60.52796601574071" x2="-42.542263031690375" y2="35.476063785213235" stroke="#999999"></line><line stroke-width="1" x1="-58.06120477109766" y1="60.52796601574071" x2="-101.52457819165596" y2="21.818821551846284" stroke="#999999"></line><line stroke-width="1" x1="-58.06120477109766" y1="60.52796601574071" x2="-78.15883367339681" y2="60.08110588690211" stroke="#999999"></line><line stroke-width="1" x1="-58.06120477109766" y1="60.52796601574071" x2="-92.70293897710577" y2="36.392855701497325" stroke="#999999"></line><line stroke-width="1" x1="-58.06120477109766" y1="60.52796601574071" x2="-97.58646441400253" y2="53.08884098020746" stroke="#999999"></line><line stroke-width="1.41421px" x1="-58.06120477109766" y1="60.52796601574071" x2="-84.22935331528038" y2="5.024232119331059" stroke="#999999"></line><line stroke-width="2.23607px" x1="-63.12279359749392" y1="13.050008067380904" x2="-82.22041723314798" y2="23.058340008014397" stroke="#999999"></line><line stroke-width="2.44949px" x1="-63.12279359749392" y1="13.050008067380904" x2="-58.06120477109766" y2="60.52796601574071" stroke="#999999"></line><line stroke-width="2.64575px" x1="-63.12279359749392" y1="13.050008067380904" x2="-42.542263031690375" y2="35.476063785213235" stroke="#999999"></line><line stroke-width="1" x1="-63.12279359749392" y1="13.050008067380904" x2="-101.52457819165596" y2="21.818821551846284" stroke="#999999"></line><line stroke-width="2px" x1="-63.12279359749392" y1="13.050008067380904" x2="-78.15883367339681" y2="60.08110588690211" stroke="#999999"></line><line stroke-width="1" x1="-63.12279359749392" y1="13.050008067380904" x2="-62.545143389294815" y2="29.14426032779588" stroke="#999999"></line><line stroke-width="1" x1="-63.12279359749392" y1="13.050008067380904" x2="-92.70293897710577" y2="36.392855701497325" stroke="#999999"></line><line stroke-width="1" x1="-63.12279359749392" y1="13.050008067380904" x2="-97.58646441400253" y2="53.08884098020746" stroke="#999999"></line><line stroke-width="2px" x1="-63.12279359749392" y1="13.050008067380904" x2="-84.22935331528038" y2="5.024232119331059" stroke="#999999"></line><line stroke-width="2.23607px" x1="-63.12279359749392" y1="13.050008067380904" x2="-82.22041723314798" y2="23.058340008014397" stroke="#999999"></line><line stroke-width="1.73205px" x1="-63.12279359749392" y1="13.050008067380904" x2="-58.06120477109766" y2="60.52796601574071" stroke="#999999"></line><line stroke-width="1.41421px" x1="-63.12279359749392" y1="13.050008067380904" x2="-42.542263031690375" y2="35.476063785213235" stroke="#999999"></line><line stroke-width="3px" x1="-23.192457667240067" y1="14.244387479369841" x2="-33.89591122493732" y2="-25.659538424370286" stroke="#999999"></line><line stroke-width="1" x1="-23.192457667240067" y1="14.244387479369841" x2="-8.321895989689823" y2="37.90195811887239" stroke="#999999"></line><line stroke-width="3px" x1="-23.192457667240067" y1="14.244387479369841" x2="-62.545143389294815" y2="29.14426032779588" stroke="#999999"></line><line stroke-width="2.23607px" x1="-23.192457667240067" y1="14.244387479369841" x2="-40.37459257404546" y2="-13.12848743867628" stroke="#999999"></line><line stroke-width="3.87298px" x1="-23.192457667240067" y1="14.244387479369841" x2="-55.986078324321745" y2="-6.212778637320171" stroke="#999999"></line><line stroke-width="1" x1="-23.192457667240067" y1="14.244387479369841" x2="26.17620040660285" y2="17.777061671821347" stroke="#999999"></line><line stroke-width="1" x1="-23.192457667240067" y1="14.244387479369841" x2="1.1960675260105433" y2="-23.581344709337323" stroke="#999999"></line><line stroke-width="1" x1="-23.192457667240067" y1="14.244387479369841" x2="-11.079919964144759" y2="-12.75944774716792" stroke="#999999"></line><line stroke-width="1" x1="-23.192457667240067" y1="14.244387479369841" x2="9.929010446631926" y2="31.84152520352825" stroke="#999999"></line><line stroke-width="2px" x1="-8.321895989689823" y1="37.90195811887239" x2="-3.916128315952603" y2="66.56388168966215" stroke="#999999"></line><line stroke-width="2px" x1="-8.321895989689823" y1="37.90195811887239" x2="-23.192457667240067" y2="14.244387479369841" stroke="#999999"></line><line stroke-width="1.41421px" x1="-8.321895989689823" y1="37.90195811887239" x2="-42.542263031690375" y2="35.476063785213235" stroke="#999999"></line><line stroke-width="1.41421px" x1="-8.321895989689823" y1="37.90195811887239" x2="-25.555084137863485" y2="63.10816792222126" stroke="#999999"></line><line stroke-width="1.73205px" x1="-8.321895989689823" y1="37.90195811887239" x2="-3.916128315952603" y2="66.56388168966215" stroke="#999999"></line><line stroke-width="1.73205px" x1="-8.321895989689823" y1="37.90195811887239" x2="-23.192457667240067" y2="14.244387479369841" stroke="#999999"></line><line stroke-width="1.41421px" x1="-8.321895989689823" y1="37.90195811887239" x2="-42.542263031690375" y2="35.476063785213235" stroke="#999999"></line><line stroke-width="1.73205px" x1="-8.321895989689823" y1="37.90195811887239" x2="-25.555084137863485" y2="63.10816792222126" stroke="#999999"></line><line stroke-width="1" x1="-8.321895989689823" y1="37.90195811887239" x2="26.17620040660285" y2="17.777061671821347" stroke="#999999"></line><line stroke-width="1" x1="-8.321895989689823" y1="37.90195811887239" x2="1.1960675260105433" y2="-23.581344709337323" stroke="#999999"></line><line stroke-width="1" x1="-8.321895989689823" y1="37.90195811887239" x2="-11.079919964144759" y2="-12.75944774716792" stroke="#999999"></line><line stroke-width="1" x1="-8.321895989689823" y1="37.90195811887239" x2="9.929010446631926" y2="31.84152520352825" stroke="#999999"></line><line stroke-width="1.73205px" x1="-42.542263031690375" y1="35.476063785213235" x2="-3.916128315952603" y2="66.56388168966215" stroke="#999999"></line><line stroke-width="1.41421px" x1="-42.542263031690375" y1="35.476063785213235" x2="-82.22041723314798" y2="23.058340008014397" stroke="#999999"></line><line stroke-width="2.23607px" x1="-42.542263031690375" y1="35.476063785213235" x2="-58.06120477109766" y2="60.52796601574071" stroke="#999999"></line><line stroke-width="1.73205px" x1="-42.542263031690375" y1="35.476063785213235" x2="-63.12279359749392" y2="13.050008067380904" stroke="#999999"></line><line stroke-width="2.44949px" x1="-42.542263031690375" y1="35.476063785213235" x2="-23.192457667240067" y2="14.244387479369841" stroke="#999999"></line><line stroke-width="1" x1="-42.542263031690375" y1="35.476063785213235" x2="-8.321895989689823" y2="37.90195811887239" stroke="#999999"></line><line stroke-width="1.73205px" x1="-42.542263031690375" y1="35.476063785213235" x2="-101.52457819165596" y2="21.818821551846284" stroke="#999999"></line><line stroke-width="1.41421px" x1="-42.542263031690375" y1="35.476063785213235" x2="-78.15883367339681" y2="60.08110588690211" stroke="#999999"></line><line stroke-width="2.23607px" x1="-42.542263031690375" y1="35.476063785213235" x2="-92.70293897710577" y2="36.392855701497325" stroke="#999999"></line><line stroke-width="1.73205px" x1="-42.542263031690375" y1="35.476063785213235" x2="-68.25552533101983" y2="47.91878403524488" stroke="#999999"></line><line stroke-width="2px" x1="-42.542263031690375" y1="35.476063785213235" x2="-84.22935331528038" y2="5.024232119331059" stroke="#999999"></line><line stroke-width="2.23607px" x1="-42.542263031690375" y1="35.476063785213235" x2="-25.555084137863485" y2="63.10816792222126" stroke="#999999"></line><line stroke-width="1.73205px" x1="-42.542263031690375" y1="35.476063785213235" x2="-3.916128315952603" y2="66.56388168966215" stroke="#999999"></line><line stroke-width="2.23607px" x1="-42.542263031690375" y1="35.476063785213235" x2="-82.22041723314798" y2="23.058340008014397" stroke="#999999"></line><line stroke-width="2.44949px" x1="-42.542263031690375" y1="35.476063785213235" x2="-58.06120477109766" y2="60.52796601574071" stroke="#999999"></line><line stroke-width="2.44949px" x1="-42.542263031690375" y1="35.476063785213235" x2="-63.12279359749392" y2="13.050008067380904" stroke="#999999"></line><line stroke-width="1.73205px" x1="-42.542263031690375" y1="35.476063785213235" x2="-23.192457667240067" y2="14.244387479369841" stroke="#999999"></line><line stroke-width="1.41421px" x1="-42.542263031690375" y1="35.476063785213235" x2="-8.321895989689823" y2="37.90195811887239" stroke="#999999"></line><line stroke-width="1.73205px" x1="-42.542263031690375" y1="35.476063785213235" x2="-101.52457819165596" y2="21.818821551846284" stroke="#999999"></line><line stroke-width="2.23607px" x1="-42.542263031690375" y1="35.476063785213235" x2="-78.15883367339681" y2="60.08110588690211" stroke="#999999"></line><line stroke-width="2.44949px" x1="-42.542263031690375" y1="35.476063785213235" x2="-62.545143389294815" y2="29.14426032779588" stroke="#999999"></line><line stroke-width="2.64575px" x1="-42.542263031690375" y1="35.476063785213235" x2="-92.70293897710577" y2="36.392855701497325" stroke="#999999"></line><line stroke-width="2.64575px" x1="-42.542263031690375" y1="35.476063785213235" x2="-68.25552533101983" y2="47.91878403524488" stroke="#999999"></line><line stroke-width="3px" x1="-42.542263031690375" y1="35.476063785213235" x2="-97.58646441400253" y2="53.08884098020746" stroke="#999999"></line><line stroke-width="2.82843px" x1="-42.542263031690375" y1="35.476063785213235" x2="-84.22935331528038" y2="5.024232119331059" stroke="#999999"></line><line stroke-width="2.23607px" x1="-42.542263031690375" y1="35.476063785213235" x2="-25.555084137863485" y2="63.10816792222126" stroke="#999999"></line><line stroke-width="1" x1="-42.542263031690375" y1="35.476063785213235" x2="26.17620040660285" y2="17.777061671821347" stroke="#999999"></line><line stroke-width="1" x1="-42.542263031690375" y1="35.476063785213235" x2="1.1960675260105433" y2="-23.581344709337323" stroke="#999999"></line><line stroke-width="1" x1="-42.542263031690375" y1="35.476063785213235" x2="-11.079919964144759" y2="-12.75944774716792" stroke="#999999"></line><line stroke-width="1" x1="-42.542263031690375" y1="35.476063785213235" x2="9.929010446631926" y2="31.84152520352825" stroke="#999999"></line><line stroke-width="1.73205px" x1="-101.52457819165596" y1="21.818821551846284" x2="-42.542263031690375" y2="35.476063785213235" stroke="#999999"></line><line stroke-width="2px" x1="-101.52457819165596" y1="21.818821551846284" x2="-78.15883367339681" y2="60.08110588690211" stroke="#999999"></line><line stroke-width="2px" x1="-101.52457819165596" y1="21.818821551846284" x2="-62.545143389294815" y2="29.14426032779588" stroke="#999999"></line><line stroke-width="1" x1="-101.52457819165596" y1="21.818821551846284" x2="-97.58646441400253" y2="53.08884098020746" stroke="#999999"></line><line stroke-width="2px" x1="-101.52457819165596" y1="21.818821551846284" x2="-84.22935331528038" y2="5.024232119331059" stroke="#999999"></line><line stroke-width="1" x1="-101.52457819165596" y1="21.818821551846284" x2="-82.22041723314798" y2="23.058340008014397" stroke="#999999"></line><line stroke-width="1" x1="-101.52457819165596" y1="21.818821551846284" x2="-63.12279359749392" y2="13.050008067380904" stroke="#999999"></line><line stroke-width="1" x1="-101.52457819165596" y1="21.818821551846284" x2="-42.542263031690375" y2="35.476063785213235" stroke="#999999"></line><line stroke-width="2.23607px" x1="-101.52457819165596" y1="21.818821551846284" x2="-78.15883367339681" y2="60.08110588690211" stroke="#999999"></line><line stroke-width="1" x1="-101.52457819165596" y1="21.818821551846284" x2="-62.545143389294815" y2="29.14426032779588" stroke="#999999"></line><line stroke-width="1" x1="-101.52457819165596" y1="21.818821551846284" x2="-97.58646441400253" y2="53.08884098020746" stroke="#999999"></line><line stroke-width="1" x1="-78.15883367339681" y1="60.08110588690211" x2="-42.542263031690375" y2="35.476063785213235" stroke="#999999"></line><line stroke-width="1.73205px" x1="-78.15883367339681" y1="60.08110588690211" x2="-101.52457819165596" y2="21.818821551846284" stroke="#999999"></line><line stroke-width="2px" x1="-78.15883367339681" y1="60.08110588690211" x2="-62.545143389294815" y2="29.14426032779588" stroke="#999999"></line><line stroke-width="1" x1="-78.15883367339681" y1="60.08110588690211" x2="-92.70293897710577" y2="36.392855701497325" stroke="#999999"></line><line stroke-width="1.73205px" x1="-78.15883367339681" y1="60.08110588690211" x2="-97.58646441400253" y2="53.08884098020746" stroke="#999999"></line><line stroke-width="1.73205px" x1="-78.15883367339681" y1="60.08110588690211" x2="-84.22935331528038" y2="5.024232119331059" stroke="#999999"></line><line stroke-width="4.12311px" x1="-62.545143389294815" y1="29.14426032779588" x2="-23.192457667240067" y2="14.244387479369841" stroke="#999999"></line><line stroke-width="1.41421px" x1="-62.545143389294815" y1="29.14426032779588" x2="-42.542263031690375" y2="35.476063785213235" stroke="#999999"></line><line stroke-width="1" x1="-62.545143389294815" y1="29.14426032779588" x2="-101.52457819165596" y2="21.818821551846284" stroke="#999999"></line><line stroke-width="1" x1="-62.545143389294815" y1="29.14426032779588" x2="-78.15883367339681" y2="60.08110588690211" stroke="#999999"></line><line stroke-width="1" x1="-62.545143389294815" y1="29.14426032779588" x2="-92.70293897710577" y2="36.392855701497325" stroke="#999999"></line><line stroke-width="2.44949px" x1="-62.545143389294815" y1="29.14426032779588" x2="-97.58646441400253" y2="53.08884098020746" stroke="#999999"></line><line stroke-width="2.23607px" x1="-62.545143389294815" y1="29.14426032779588" x2="-84.22935331528038" y2="5.024232119331059" stroke="#999999"></line><line stroke-width="2.23607px" x1="-62.545143389294815" y1="29.14426032779588" x2="-55.986078324321745" y2="-6.212778637320171" stroke="#999999"></line><line stroke-width="1.41421px" x1="-62.545143389294815" y1="29.14426032779588" x2="-82.22041723314798" y2="23.058340008014397" stroke="#999999"></line><line stroke-width="1.41421px" x1="-62.545143389294815" y1="29.14426032779588" x2="-78.15883367339681" y2="60.08110588690211" stroke="#999999"></line><line stroke-width="1" x1="-62.545143389294815" y1="29.14426032779588" x2="-92.70293897710577" y2="36.392855701497325" stroke="#999999"></line><line stroke-width="1.41421px" x1="-62.545143389294815" y1="29.14426032779588" x2="-68.25552533101983" y2="47.91878403524488" stroke="#999999"></line><line stroke-width="1" x1="-62.545143389294815" y1="29.14426032779588" x2="-97.58646441400253" y2="53.08884098020746" stroke="#999999"></line><line stroke-width="1" x1="-62.545143389294815" y1="29.14426032779588" x2="-84.22935331528038" y2="5.024232119331059" stroke="#999999"></line><line stroke-width="1" x1="-92.70293897710577" y1="36.392855701497325" x2="-58.06120477109766" y2="60.52796601574071" stroke="#999999"></line><line stroke-width="1" x1="-92.70293897710577" y1="36.392855701497325" x2="-63.12279359749392" y2="13.050008067380904" stroke="#999999"></line><line stroke-width="2.64575px" x1="-92.70293897710577" y1="36.392855701497325" x2="-42.542263031690375" y2="35.476063785213235" stroke="#999999"></line><line stroke-width="1" x1="-92.70293897710577" y1="36.392855701497325" x2="-62.545143389294815" y2="29.14426032779588" stroke="#999999"></line><line stroke-width="3.16228px" x1="-92.70293897710577" y1="36.392855701497325" x2="-68.25552533101983" y2="47.91878403524488" stroke="#999999"></line><line stroke-width="1" x1="-92.70293897710577" y1="36.392855701497325" x2="-97.58646441400253" y2="53.08884098020746" stroke="#999999"></line><line stroke-width="1.73205px" x1="-92.70293897710577" y1="36.392855701497325" x2="-58.06120477109766" y2="60.52796601574071" stroke="#999999"></line><line stroke-width="1" x1="-92.70293897710577" y1="36.392855701497325" x2="-63.12279359749392" y2="13.050008067380904" stroke="#999999"></line><line stroke-width="1.41421px" x1="-92.70293897710577" y1="36.392855701497325" x2="-42.542263031690375" y2="35.476063785213235" stroke="#999999"></line><line stroke-width="1.73205px" x1="-92.70293897710577" y1="36.392855701497325" x2="-101.52457819165596" y2="21.818821551846284" stroke="#999999"></line><line stroke-width="1.41421px" x1="-92.70293897710577" y1="36.392855701497325" x2="-78.15883367339681" y2="60.08110588690211" stroke="#999999"></line><line stroke-width="1" x1="-92.70293897710577" y1="36.392855701497325" x2="-62.545143389294815" y2="29.14426032779588" stroke="#999999"></line><line stroke-width="1" x1="-92.70293897710577" y1="36.392855701497325" x2="-97.58646441400253" y2="53.08884098020746" stroke="#999999"></line><line stroke-width="1.41421px" x1="-92.70293897710577" y1="36.392855701497325" x2="-84.22935331528038" y2="5.024232119331059" stroke="#999999"></line><line stroke-width="1.41421px" x1="-68.25552533101983" y1="47.91878403524488" x2="-82.22041723314798" y2="23.058340008014397" stroke="#999999"></line><line stroke-width="1.41421px" x1="-68.25552533101983" y1="47.91878403524488" x2="-58.06120477109766" y2="60.52796601574071" stroke="#999999"></line><line stroke-width="1" x1="-68.25552533101983" y1="47.91878403524488" x2="-63.12279359749392" y2="13.050008067380904" stroke="#999999"></line><line stroke-width="1.41421px" x1="-68.25552533101983" y1="47.91878403524488" x2="-42.542263031690375" y2="35.476063785213235" stroke="#999999"></line><line stroke-width="1.73205px" x1="-68.25552533101983" y1="47.91878403524488" x2="-101.52457819165596" y2="21.818821551846284" stroke="#999999"></line><line stroke-width="1" x1="-68.25552533101983" y1="47.91878403524488" x2="-78.15883367339681" y2="60.08110588690211" stroke="#999999"></line><line stroke-width="1" x1="-68.25552533101983" y1="47.91878403524488" x2="-97.58646441400253" y2="53.08884098020746" stroke="#999999"></line><line stroke-width="1" x1="-68.25552533101983" y1="47.91878403524488" x2="-84.22935331528038" y2="5.024232119331059" stroke="#999999"></line><line stroke-width="1.73205px" x1="-68.25552533101983" y1="47.91878403524488" x2="-42.542263031690375" y2="35.476063785213235" stroke="#999999"></line><line stroke-width="1.73205px" x1="-68.25552533101983" y1="47.91878403524488" x2="-92.70293897710577" y2="36.392855701497325" stroke="#999999"></line><line stroke-width="1.73205px" x1="-97.58646441400253" y1="53.08884098020746" x2="-82.22041723314798" y2="23.058340008014397" stroke="#999999"></line><line stroke-width="1.41421px" x1="-97.58646441400253" y1="53.08884098020746" x2="-58.06120477109766" y2="60.52796601574071" stroke="#999999"></line><line stroke-width="1.41421px" x1="-97.58646441400253" y1="53.08884098020746" x2="-63.12279359749392" y2="13.050008067380904" stroke="#999999"></line><line stroke-width="1.41421px" x1="-97.58646441400253" y1="53.08884098020746" x2="-42.542263031690375" y2="35.476063785213235" stroke="#999999"></line><line stroke-width="1.73205px" x1="-97.58646441400253" y1="53.08884098020746" x2="-101.52457819165596" y2="21.818821551846284" stroke="#999999"></line><line stroke-width="1.73205px" x1="-97.58646441400253" y1="53.08884098020746" x2="-62.545143389294815" y2="29.14426032779588" stroke="#999999"></line><line stroke-width="1.73205px" x1="-97.58646441400253" y1="53.08884098020746" x2="-92.70293897710577" y2="36.392855701497325" stroke="#999999"></line><line stroke-width="2.64575px" x1="-97.58646441400253" y1="53.08884098020746" x2="-84.22935331528038" y2="5.024232119331059" stroke="#999999"></line><line stroke-width="1" x1="-97.58646441400253" y1="53.08884098020746" x2="-63.12279359749392" y2="13.050008067380904" stroke="#999999"></line><line stroke-width="1.41421px" x1="-97.58646441400253" y1="53.08884098020746" x2="-101.52457819165596" y2="21.818821551846284" stroke="#999999"></line><line stroke-width="1.41421px" x1="-97.58646441400253" y1="53.08884098020746" x2="-78.15883367339681" y2="60.08110588690211" stroke="#999999"></line><line stroke-width="1" x1="-97.58646441400253" y1="53.08884098020746" x2="-62.545143389294815" y2="29.14426032779588" stroke="#999999"></line><line stroke-width="1" x1="-97.58646441400253" y1="53.08884098020746" x2="-92.70293897710577" y2="36.392855701497325" stroke="#999999"></line><line stroke-width="1" x1="-84.22935331528038" y1="5.024232119331059" x2="-58.06120477109766" y2="60.52796601574071" stroke="#999999"></line><line stroke-width="3px" x1="-84.22935331528038" y1="5.024232119331059" x2="-42.542263031690375" y2="35.476063785213235" stroke="#999999"></line><line stroke-width="1.41421px" x1="-84.22935331528038" y1="5.024232119331059" x2="-101.52457819165596" y2="21.818821551846284" stroke="#999999"></line><line stroke-width="2.44949px" x1="-84.22935331528038" y1="5.024232119331059" x2="-78.15883367339681" y2="60.08110588690211" stroke="#999999"></line><line stroke-width="1.73205px" x1="-84.22935331528038" y1="5.024232119331059" x2="-62.545143389294815" y2="29.14426032779588" stroke="#999999"></line><line stroke-width="1" x1="-84.22935331528038" y1="5.024232119331059" x2="-92.70293897710577" y2="36.392855701497325" stroke="#999999"></line><line stroke-width="3.31662px" x1="-84.22935331528038" y1="5.024232119331059" x2="-97.58646441400253" y2="53.08884098020746" stroke="#999999"></line><line stroke-width="1.41421px" x1="-84.22935331528038" y1="5.024232119331059" x2="-82.22041723314798" y2="23.058340008014397" stroke="#999999"></line><line stroke-width="1.73205px" x1="-84.22935331528038" y1="5.024232119331059" x2="-63.12279359749392" y2="13.050008067380904" stroke="#999999"></line><line stroke-width="2.23607px" x1="-84.22935331528038" y1="5.024232119331059" x2="-42.542263031690375" y2="35.476063785213235" stroke="#999999"></line><line stroke-width="1.41421px" x1="-84.22935331528038" y1="5.024232119331059" x2="-101.52457819165596" y2="21.818821551846284" stroke="#999999"></line><line stroke-width="1" x1="-84.22935331528038" y1="5.024232119331059" x2="-78.15883367339681" y2="60.08110588690211" stroke="#999999"></line><line stroke-width="1.41421px" x1="-84.22935331528038" y1="5.024232119331059" x2="-62.545143389294815" y2="29.14426032779588" stroke="#999999"></line><line stroke-width="2px" x1="-84.22935331528038" y1="5.024232119331059" x2="-92.70293897710577" y2="36.392855701497325" stroke="#999999"></line><line stroke-width="2.82843px" x1="-84.22935331528038" y1="5.024232119331059" x2="-97.58646441400253" y2="53.08884098020746" stroke="#999999"></line><line stroke-width="1" x1="-25.555084137863485" y1="63.10816792222126" x2="-3.916128315952603" y2="66.56388168966215" stroke="#999999"></line><line stroke-width="1" x1="-25.555084137863485" y1="63.10816792222126" x2="-23.192457667240067" y2="14.244387479369841" stroke="#999999"></line><line stroke-width="1.73205px" x1="-25.555084137863485" y1="63.10816792222126" x2="-42.542263031690375" y2="35.476063785213235" stroke="#999999"></line><line stroke-width="2px" x1="-25.555084137863485" y1="63.10816792222126" x2="-3.916128315952603" y2="66.56388168966215" stroke="#999999"></line><line stroke-width="1.41421px" x1="-25.555084137863485" y1="63.10816792222126" x2="-23.192457667240067" y2="14.244387479369841" stroke="#999999"></line><line stroke-width="2px" x1="-25.555084137863485" y1="63.10816792222126" x2="-8.321895989689823" y2="37.90195811887239" stroke="#999999"></line><line stroke-width="1.41421px" x1="-25.555084137863485" y1="63.10816792222126" x2="-42.542263031690375" y2="35.476063785213235" stroke="#999999"></line><line stroke-width="4.69042px" x1="-55.986078324321745" y1="-6.212778637320171" x2="-23.192457667240067" y2="14.244387479369841" stroke="#999999"></line><line stroke-width="1.73205px" x1="-55.986078324321745" y1="-6.212778637320171" x2="-62.545143389294815" y2="29.14426032779588" stroke="#999999"></line><line stroke-width="3px" x1="-55.986078324321745" y1="-6.212778637320171" x2="-33.89591122493732" y2="-25.659538424370286" stroke="#999999"></line><line stroke-width="1" x1="0.06329596226133716" y1="-56.478594229093" x2="1.1960675260105433" y2="-23.581344709337323" stroke="#999999"></line><line stroke-width="1" x1="0.06329596226133716" y1="-56.478594229093" x2="-11.079919964144759" y2="-12.75944774716792" stroke="#999999"></line><line stroke-width="1" x1="0.06329596226133716" y1="-56.478594229093" x2="25.2200289682868" y2="-66.93016160827304" stroke="#999999"></line><line stroke-width="1" x1="-18.958345162276668" y1="-51.91422885089351" x2="1.1960675260105433" y2="-23.581344709337323" stroke="#999999"></line><line stroke-width="1" x1="-18.958345162276668" y1="-51.91422885089351" x2="-11.079919964144759" y2="-12.75944774716792" stroke="#999999"></line><line stroke-width="1" x1="-18.958345162276668" y1="-51.91422885089351" x2="25.2200289682868" y2="-66.93016160827304" stroke="#999999"></line><line stroke-width="1" x1="-10.915755468731103" y1="-59.28297345285436" x2="1.1960675260105433" y2="-23.581344709337323" stroke="#999999"></line><line stroke-width="1" x1="-10.915755468731103" y1="-59.28297345285436" x2="-11.079919964144759" y2="-12.75944774716792" stroke="#999999"></line><line stroke-width="1" x1="-10.915755468731103" y1="-59.28297345285436" x2="25.2200289682868" y2="-66.93016160827304" stroke="#999999"></line><line stroke-width="1" x1="39.706949485502655" y1="-25.978274983648824" x2="26.17620040660285" y2="17.777061671821347" stroke="#999999"></line><line stroke-width="1" x1="39.706949485502655" y1="-25.978274983648824" x2="1.1960675260105433" y2="-23.581344709337323" stroke="#999999"></line><line stroke-width="1" x1="39.706949485502655" y1="-25.978274983648824" x2="25.2200289682868" y2="-66.93016160827304" stroke="#999999"></line><line stroke-width="1" x1="39.706949485502655" y1="-25.978274983648824" x2="67.92979735891093" y2="-12.255917640220252" stroke="#999999"></line><line stroke-width="1" x1="39.083556963666126" y1="-39.716983343113476" x2="26.17620040660285" y2="17.777061671821347" stroke="#999999"></line><line stroke-width="1" x1="39.083556963666126" y1="-39.716983343113476" x2="1.1960675260105433" y2="-23.581344709337323" stroke="#999999"></line><line stroke-width="1" x1="39.083556963666126" y1="-39.716983343113476" x2="25.2200289682868" y2="-66.93016160827304" stroke="#999999"></line><line stroke-width="1" x1="39.083556963666126" y1="-39.716983343113476" x2="67.92979735891093" y2="-12.255917640220252" stroke="#999999"></line><line stroke-width="1" x1="50.009359270244055" y1="-32.52826322324813" x2="26.17620040660285" y2="17.777061671821347" stroke="#999999"></line><line stroke-width="1" x1="50.009359270244055" y1="-32.52826322324813" x2="1.1960675260105433" y2="-23.581344709337323" stroke="#999999"></line><line stroke-width="1" x1="50.009359270244055" y1="-32.52826322324813" x2="25.2200289682868" y2="-66.93016160827304" stroke="#999999"></line><line stroke-width="1" x1="50.009359270244055" y1="-32.52826322324813" x2="67.92979735891093" y2="-12.255917640220252" stroke="#999999"></line><line stroke-width="1" x1="27.890067854771083" y1="-28.091161692323844" x2="26.17620040660285" y2="17.777061671821347" stroke="#999999"></line><line stroke-width="1" x1="27.890067854771083" y1="-28.091161692323844" x2="1.1960675260105433" y2="-23.581344709337323" stroke="#999999"></line><line stroke-width="1" x1="27.890067854771083" y1="-28.091161692323844" x2="25.2200289682868" y2="-66.93016160827304" stroke="#999999"></line><line stroke-width="1" x1="27.890067854771083" y1="-28.091161692323844" x2="67.92979735891093" y2="-12.255917640220252" stroke="#999999"></line><line stroke-width="1" x1="57.25295156568439" y1="34.5518967641079" x2="26.17620040660285" y2="17.777061671821347" stroke="#999999"></line><line stroke-width="1" x1="44.700246819743114" y1="47.2112271885001" x2="26.17620040660285" y2="17.777061671821347" stroke="#999999"></line><line stroke-width="1" x1="61.634935190602505" y1="18.627702494854127" x2="26.17620040660285" y2="17.777061671821347" stroke="#999999"></line><line stroke-width="1" x1="19.526559070509084" y1="-0.16093065889714878" x2="1.1960675260105433" y2="-23.581344709337323" stroke="#999999"></line><line stroke-width="1" x1="19.526559070509084" y1="-0.16093065889714878" x2="-11.079919964144759" y2="-12.75944774716792" stroke="#999999"></line><line stroke-width="1" x1="19.526559070509084" y1="-0.16093065889714878" x2="9.929010446631926" y2="31.84152520352825" stroke="#999999"></line><line stroke-width="1" x1="19.526559070509084" y1="-0.16093065889714878" x2="67.92979735891093" y2="-12.255917640220252" stroke="#999999"></line><line stroke-width="1" x1="32.89875072753162" y1="3.5478975491038116" x2="1.1960675260105433" y2="-23.581344709337323" stroke="#999999"></line><line stroke-width="1" x1="32.89875072753162" y1="3.5478975491038116" x2="-11.079919964144759" y2="-12.75944774716792" stroke="#999999"></line><line stroke-width="1" x1="32.89875072753162" y1="3.5478975491038116" x2="9.929010446631926" y2="31.84152520352825" stroke="#999999"></line><line stroke-width="1" x1="32.89875072753162" y1="3.5478975491038116" x2="67.92979735891093" y2="-12.255917640220252" stroke="#999999"></line><line stroke-width="1" x1="31.878883198773256" y1="-8.376762556415143" x2="1.1960675260105433" y2="-23.581344709337323" stroke="#999999"></line><line stroke-width="1" x1="31.878883198773256" y1="-8.376762556415143" x2="-11.079919964144759" y2="-12.75944774716792" stroke="#999999"></line><line stroke-width="1" x1="31.878883198773256" y1="-8.376762556415143" x2="9.929010446631926" y2="31.84152520352825" stroke="#999999"></line><line stroke-width="1" x1="31.878883198773256" y1="-8.376762556415143" x2="67.92979735891093" y2="-12.255917640220252" stroke="#999999"></line></g><g stroke="#ffffff" stroke-width="1.5px"><path d="M5.046265044040321,0A5.046265044040321,5.046265044040321,0,1,1,-5.046265044040321,0A5.046265044040321,5.046265044040321,0,1,1,5.046265044040321,0" fill="#8c564b" transform="translate(-3.916128315952603,66.56388168966215)" stroke="#ffffff" stroke-width="1.5px"><title>Person 0</title></path><path d="M5.046265044040321,0A5.046265044040321,5.046265044040321,0,1,1,-5.046265044040321,0A5.046265044040321,5.046265044040321,0,1,1,5.046265044040321,0" fill="#8c564b" transform="translate(-42.542263031690375,35.476063785213235)" stroke="#ffffff" stroke-width="1.5px"><title>Person 41</title></path><path d="M5.046265044040321,0A5.046265044040321,5.046265044040321,0,1,1,-5.046265044040321,0A5.046265044040321,5.046265044040321,0,1,1,5.046265044040321,0" fill="#8c564b" transform="translate(-63.12279359749392,13.050008067380904)" stroke="#ffffff" stroke-width="1.5px"><title>Person 37</title></path><path d="M5.046265044040321,0A5.046265044040321,5.046265044040321,0,1,1,-5.046265044040321,0A5.046265044040321,5.046265044040321,0,1,1,5.046265044040321,0" fill="#8c564b" transform="translate(-58.06120477109766,60.52796601574071)" stroke="#ffffff" stroke-width="1.5px"><title>Person 34</title></path><path d="M5.046265044040321,0A5.046265044040321,5.046265044040321,0,1,1,-5.046265044040321,0A5.046265044040321,5.046265044040321,0,1,1,5.046265044040321,0" fill="#8c564b" transform="translate(-82.22041723314798,23.058340008014397)" stroke="#ffffff" stroke-width="1.5px"><title>Person 27</title></path><path d="M5.046265044040321,0A5.046265044040321,5.046265044040321,0,1,1,-5.046265044040321,0A5.046265044040321,5.046265044040321,0,1,1,5.046265044040321,0" fill="#8c564b" transform="translate(-8.321895989689823,37.90195811887239)" stroke="#ffffff" stroke-width="1.5px"><title>Person 40</title></path><path d="M5.046265044040321,0A5.046265044040321,5.046265044040321,0,1,1,-5.046265044040321,0A5.046265044040321,5.046265044040321,0,1,1,5.046265044040321,0" fill="#8c564b" transform="translate(-25.555084137863485,63.10816792222126)" stroke="#ffffff" stroke-width="1.5px"><title>Person 65</title></path><path d="M5.046265044040321,0A5.046265044040321,5.046265044040321,0,1,1,-5.046265044040321,0A5.046265044040321,5.046265044040321,0,1,1,5.046265044040321,0" fill="#7f7f7f" transform="translate(-55.986078324321745,-6.212778637320171)" stroke="#ffffff" stroke-width="1.5px"><title>Person 67</title></path><path d="M5.046265044040321,0A5.046265044040321,5.046265044040321,0,1,1,-5.046265044040321,0A5.046265044040321,5.046265044040321,0,1,1,5.046265044040321,0" fill="#d62728" transform="translate(-62.545143389294815,29.14426032779588)" stroke="#ffffff" stroke-width="1.5px"><title>Person 47</title></path><path d="M5.046265044040321,0A5.046265044040321,5.046265044040321,0,1,1,-5.046265044040321,0A5.046265044040321,5.046265044040321,0,1,1,5.046265044040321,0" fill="#8c564b" transform="translate(-23.192457667240067,14.244387479369841)" stroke="#ffffff" stroke-width="1.5px"><title>Person 39</title></path><path d="M5.046265044040321,0A5.046265044040321,5.046265044040321,0,1,1,-5.046265044040321,0A5.046265044040321,5.046265044040321,0,1,1,5.046265044040321,0" fill="#7f7f7f" transform="translate(39.083556963666126,-39.716983343113476)" stroke="#ffffff" stroke-width="1.5px"><title>Person 78</title></path><path d="M5.046265044040321,0A5.046265044040321,5.046265044040321,0,1,1,-5.046265044040321,0A5.046265044040321,5.046265044040321,0,1,1,5.046265044040321,0" fill="#7f7f7f" transform="translate(27.890067854771083,-28.091161692323844)" stroke="#ffffff" stroke-width="1.5px"><title>Person 80</title></path><path d="M5.046265044040321,0A5.046265044040321,5.046265044040321,0,1,1,-5.046265044040321,0A5.046265044040321,5.046265044040321,0,1,1,5.046265044040321,0" fill="#d62728" transform="translate(-101.52457819165596,21.818821551846284)" stroke="#ffffff" stroke-width="1.5px"><title>Person 43</title></path><path d="M5.046265044040321,0A5.046265044040321,5.046265044040321,0,1,1,-5.046265044040321,0A5.046265044040321,5.046265044040321,0,1,1,5.046265044040321,0" fill="#1f77b4" transform="translate(-68.25552533101983,47.91878403524488)" stroke="#ffffff" stroke-width="1.5px"><title>Person 57</title></path><path d="M5.046265044040321,0A5.046265044040321,5.046265044040321,0,1,1,-5.046265044040321,0A5.046265044040321,5.046265044040321,0,1,1,5.046265044040321,0" fill="#9467bd" transform="translate(-97.58646441400253,53.08884098020746)" stroke="#ffffff" stroke-width="1.5px"><title>Person 58</title></path><path d="M5.046265044040321,0A5.046265044040321,5.046265044040321,0,1,1,-5.046265044040321,0A5.046265044040321,5.046265044040321,0,1,1,5.046265044040321,0" fill="#9467bd" transform="translate(-84.22935331528038,5.024232119331059)" stroke="#ffffff" stroke-width="1.5px"><title>Person 63</title></path><path d="M5.046265044040321,0A5.046265044040321,5.046265044040321,0,1,1,-5.046265044040321,0A5.046265044040321,5.046265044040321,0,1,1,5.046265044040321,0" fill="#7f7f7f" transform="translate(39.706949485502655,-25.978274983648824)" stroke="#ffffff" stroke-width="1.5px"><title>Person 77</title></path><path d="M5.046265044040321,0A5.046265044040321,5.046265044040321,0,1,1,-5.046265044040321,0A5.046265044040321,5.046265044040321,0,1,1,5.046265044040321,0" fill="#1f77b4" transform="translate(-92.70293897710577,36.392855701497325)" stroke="#ffffff" stroke-width="1.5px"><title>Person 56</title></path><path d="M5.046265044040321,0A5.046265044040321,5.046265044040321,0,1,1,-5.046265044040321,0A5.046265044040321,5.046265044040321,0,1,1,5.046265044040321,0" fill="#7f7f7f" transform="translate(50.009359270244055,-32.52826322324813)" stroke="#ffffff" stroke-width="1.5px"><title>Person 79</title></path><path d="M5.046265044040321,0A5.046265044040321,5.046265044040321,0,1,1,-5.046265044040321,0A5.046265044040321,5.046265044040321,0,1,1,5.046265044040321,0" fill="#d62728" transform="translate(-78.15883367339681,60.08110588690211)" stroke="#ffffff" stroke-width="1.5px"><title>Person 45</title></path><path d="M5.046265044040321,0A5.046265044040321,5.046265044040321,0,1,1,-5.046265044040321,0A5.046265044040321,5.046265044040321,0,1,1,5.046265044040321,0" fill="#7f7f7f" transform="translate(57.25295156568439,34.5518967641079)" stroke="#ffffff" stroke-width="1.5px"><title>Person 82</title></path><path d="M5.046265044040321,0A5.046265044040321,5.046265044040321,0,1,1,-5.046265044040321,0A5.046265044040321,5.046265044040321,0,1,1,5.046265044040321,0" fill="#7f7f7f" transform="translate(44.700246819743114,47.2112271885001)" stroke="#ffffff" stroke-width="1.5px"><title>Person 83</title></path><path d="M5.046265044040321,0A5.046265044040321,5.046265044040321,0,1,1,-5.046265044040321,0A5.046265044040321,5.046265044040321,0,1,1,5.046265044040321,0" fill="#7f7f7f" transform="translate(61.634935190602505,18.627702494854127)" stroke="#ffffff" stroke-width="1.5px"><title>Person 84</title></path><path d="M5.046265044040321,0A5.046265044040321,5.046265044040321,0,1,1,-5.046265044040321,0A5.046265044040321,5.046265044040321,0,1,1,5.046265044040321,0" fill="#7f7f7f" transform="translate(0.06329596226133716,-56.478594229093)" stroke="#ffffff" stroke-width="1.5px"><title>Person 73</title></path><path d="M5.046265044040321,0A5.046265044040321,5.046265044040321,0,1,1,-5.046265044040321,0A5.046265044040321,5.046265044040321,0,1,1,5.046265044040321,0" fill="#7f7f7f" transform="translate(-10.915755468731103,-59.28297345285436)" stroke="#ffffff" stroke-width="1.5px"><title>Person 75</title></path><path d="M5.046265044040321,0A5.046265044040321,5.046265044040321,0,1,1,-5.046265044040321,0A5.046265044040321,5.046265044040321,0,1,1,5.046265044040321,0" fill="#7f7f7f" transform="translate(-18.958345162276668,-51.91422885089351)" stroke="#ffffff" stroke-width="1.5px"><title>Person 74</title></path><path d="M5.046265044040321,0A5.046265044040321,5.046265044040321,0,1,1,-5.046265044040321,0A5.046265044040321,5.046265044040321,0,1,1,5.046265044040321,0" fill="#7f7f7f" transform="translate(31.878883198773256,-8.376762556415143)" stroke="#ffffff" stroke-width="1.5px"><title>Person 87</title></path><path d="M5.046265044040321,0A5.046265044040321,5.046265044040321,0,1,1,-5.046265044040321,0A5.046265044040321,5.046265044040321,0,1,1,5.046265044040321,0" fill="#7f7f7f" transform="translate(19.526559070509084,-0.16093065889714878)" stroke="#ffffff" stroke-width="1.5px"><title>Person 85</title></path><path d="M5.046265044040321,0A5.046265044040321,5.046265044040321,0,1,1,-5.046265044040321,0A5.046265044040321,5.046265044040321,0,1,1,5.046265044040321,0" fill="#7f7f7f" transform="translate(32.89875072753162,3.5478975491038116)" stroke="#ffffff" stroke-width="1.5px"><title>Person 86</title></path><path d="M5.046265044040321,0A5.046265044040321,5.046265044040321,0,1,1,-5.046265044040321,0A5.046265044040321,5.046265044040321,0,1,1,5.046265044040321,0" fill="#7f7f7f" transform="translate(107.60911003777566,47.812240897224974)" stroke="#ffffff" stroke-width="1.5px"><title>Person 2</title></path><path d="M5.046265044040321,0A5.046265044040321,5.046265044040321,0,1,1,-5.046265044040321,0A5.046265044040321,5.046265044040321,0,1,1,5.046265044040321,0" fill="#7f7f7f" transform="translate(-125.63588583589608,-13.563742393505105)" stroke="#ffffff" stroke-width="1.5px"><title>Person 29</title></path><path d="M5.046265044040321,0A5.046265044040321,5.046265044040321,0,1,1,-5.046265044040321,0A5.046265044040321,5.046265044040321,0,1,1,5.046265044040321,0" fill="#7f7f7f" transform="translate(69.7248353240788,-93.74515099440865)" stroke="#ffffff" stroke-width="1.5px"><title>Person 31</title></path><path d="M5.046265044040321,0A5.046265044040321,5.046265044040321,0,1,1,-5.046265044040321,0A5.046265044040321,5.046265044040321,0,1,1,5.046265044040321,0" fill="#7f7f7f" transform="translate(39.28015302866442,112.32996632529962)" stroke="#ffffff" stroke-width="1.5px"><title>Person 33</title></path><path d="M5.046265044040321,0A5.046265044040321,5.046265044040321,0,1,1,-5.046265044040321,0A5.046265044040321,5.046265044040321,0,1,1,5.046265044040321,0" fill="#7f7f7f" transform="translate(-69.76291465408545,-90.13679632181663)" stroke="#ffffff" stroke-width="1.5px"><title>Person 35</title></path><path d="M5.046265044040321,0A5.046265044040321,5.046265044040321,0,1,1,-5.046265044040321,0A5.046265044040321,5.046265044040321,0,1,1,5.046265044040321,0" fill="#7f7f7f" transform="translate(115.28759809156644,-20.260745654777438)" stroke="#ffffff" stroke-width="1.5px"><title>Person 36</title></path><path d="M5.046265044040321,0A5.046265044040321,5.046265044040321,0,1,1,-5.046265044040321,0A5.046265044040321,5.046265044040321,0,1,1,5.046265044040321,0" fill="#7f7f7f" transform="translate(-47.373351963420525,112.39134854147231)" stroke="#ffffff" stroke-width="1.5px"><title>Person 38</title></path><path d="M5.046265044040321,0A5.046265044040321,5.046265044040321,0,1,1,-5.046265044040321,0A5.046265044040321,5.046265044040321,0,1,1,5.046265044040321,0" fill="#7f7f7f" transform="translate(14.638412993999337,-115.03043664268361)" stroke="#ffffff" stroke-width="1.5px"><title>Person 42</title></path><path d="M5.046265044040321,0A5.046265044040321,5.046265044040321,0,1,1,-5.046265044040321,0A5.046265044040321,5.046265044040321,0,1,1,5.046265044040321,0" fill="#7f7f7f" transform="translate(90.18815946691906,75.29820786757088)" stroke="#ffffff" stroke-width="1.5px"><title>Person 44</title></path><path d="M5.046265044040321,0A5.046265044040321,5.046265044040321,0,1,1,-5.046265044040321,0A5.046265044040321,5.046265044040321,0,1,1,5.046265044040321,0" fill="#7f7f7f" transform="translate(-106.70545271546762,-47.20647932194417)" stroke="#ffffff" stroke-width="1.5px"><title>Person 46</title></path><path d="M5.046265044040321,0A5.046265044040321,5.046265044040321,0,1,1,-5.046265044040321,0A5.046265044040321,5.046265044040321,0,1,1,5.046265044040321,0" fill="#7f7f7f" transform="translate(89.76458746800735,-72.72143117211935)" stroke="#ffffff" stroke-width="1.5px"><title>Person 48</title></path><path d="M5.046265044040321,0A5.046265044040321,5.046265044040321,0,1,1,-5.046265044040321,0A5.046265044040321,5.046265044040321,0,1,1,5.046265044040321,0" fill="#7f7f7f" transform="translate(9.99644547303935,114.41996994799173)" stroke="#ffffff" stroke-width="1.5px"><title>Person 49</title></path><path d="M5.046265044040321,0A5.046265044040321,5.046265044040321,0,1,1,-5.046265044040321,0A5.046265044040321,5.046265044040321,0,1,1,5.046265044040321,0" fill="#7f7f7f" transform="translate(-45.89900438782697,-106.95196865608054)" stroke="#ffffff" stroke-width="1.5px"><title>Person 52</title></path><path d="M5.046265044040321,0A5.046265044040321,5.046265044040321,0,1,1,-5.046265044040321,0A5.046265044040321,5.046265044040321,0,1,1,5.046265044040321,0" fill="#7f7f7f" transform="translate(116.89632128068862,12.201985658231637)" stroke="#ffffff" stroke-width="1.5px"><title>Person 53</title></path><path d="M5.046265044040321,0A5.046265044040321,5.046265044040321,0,1,1,-5.046265044040321,0A5.046265044040321,5.046265044040321,0,1,1,5.046265044040321,0" fill="#7f7f7f" transform="translate(-96.45522374663558,92.26547743438466)" stroke="#ffffff" stroke-width="1.5px"><title>Person 54</title></path><path d="M5.046265044040321,0A5.046265044040321,5.046265044040321,0,1,1,-5.046265044040321,0A5.046265044040321,5.046265044040321,0,1,1,5.046265044040321,0" fill="#7f7f7f" transform="translate(44.142784296035884,-108.93850033654955)" stroke="#ffffff" stroke-width="1.5px"><title>Person 55</title></path><path d="M5.046265044040321,0A5.046265044040321,5.046265044040321,0,1,1,-5.046265044040321,0A5.046265044040321,5.046265044040321,0,1,1,5.046265044040321,0" fill="#7f7f7f" transform="translate(66.59530330280361,97.08704306826334)" stroke="#ffffff" stroke-width="1.5px"><title>Person 59</title></path><path d="M5.046265044040321,0A5.046265044040321,5.046265044040321,0,1,1,-5.046265044040321,0A5.046265044040321,5.046265044040321,0,1,1,5.046265044040321,0" fill="#7f7f7f" transform="translate(-91.05777309762428,-71.57311168173854)" stroke="#ffffff" stroke-width="1.5px"><title>Person 60</title></path><path d="M5.046265044040321,0A5.046265044040321,5.046265044040321,0,1,1,-5.046265044040321,0A5.046265044040321,5.046265044040321,0,1,1,5.046265044040321,0" fill="#7f7f7f" transform="translate(106.50803517261177,-49.86473638376172)" stroke="#ffffff" stroke-width="1.5px"><title>Person 61</title></path><path d="M5.046265044040321,0A5.046265044040321,5.046265044040321,0,1,1,-5.046265044040321,0A5.046265044040321,5.046265044040321,0,1,1,5.046265044040321,0" fill="#7f7f7f" transform="translate(-16.82956382433826,115.51428258451983)" stroke="#ffffff" stroke-width="1.5px"><title>Person 62</title></path><path d="M5.046265044040321,0A5.046265044040321,5.046265044040321,0,1,1,-5.046265044040321,0A5.046265044040321,5.046265044040321,0,1,1,5.046265044040321,0" fill="#7f7f7f" transform="translate(-16.276605818371777,-115.49729913557677)" stroke="#ffffff" stroke-width="1.5px"><title>Person 64</title></path><path d="M0,-8.323582900575635L4.805622828269509,0L0,8.323582900575635L-4.805622828269509,0Z" fill="#7f7f7f" transform="translate(24.307013219228867,81.81117059356774)" stroke="#ffffff" stroke-width="1.5px"><title>Document -99</title></path><path d="M5.046265044040321,0A5.046265044040321,5.046265044040321,0,1,1,-5.046265044040321,0A5.046265044040321,5.046265044040321,0,1,1,5.046265044040321,0" fill="#7f7f7f" transform="translate(-40.37459257404546,-13.12848743867628)" stroke="#ffffff" stroke-width="1.5px"><title>Person 66</title></path><path d="M-6,-2L-2,-2L-2,-6L2,-6L2,-2L6,-2L6,2L2,2L2,6L-2,6L-2,2L-6,2Z" fill="#7f7f7f" transform="translate(-33.89591122493732,-25.659538424370286)" stroke="#ffffff" stroke-width="1.5px"><title>Product 657187</title></path><path d="M-4.47213595499958,-4.47213595499958h8.94427190999916v8.94427190999916h-8.94427190999916Z" fill="#ff7f0e" transform="translate(67.92979735891093,-12.255917640220252)" stroke="#ffffff" stroke-width="1.5px"><title>Country 81</title></path><path d="M-4.47213595499958,-4.47213595499958h8.94427190999916v8.94427190999916h-8.94427190999916Z" fill="#d62728" transform="translate(1.1960675260105433,-23.581344709337323)" stroke="#ffffff" stroke-width="1.5px"><title>Country 70</title></path><path d="M-4.47213595499958,-4.47213595499958h8.94427190999916v8.94427190999916h-8.94427190999916Z" fill="#9467bd" transform="translate(26.17620040660285,17.777061671821347)" stroke="#ffffff" stroke-width="1.5px"><title>Country 69</title></path><path d="M-4.47213595499958,-4.47213595499958h8.94427190999916v8.94427190999916h-8.94427190999916Z" fill="#2ca02c" transform="translate(25.2200289682868,-66.93016160827304)" stroke="#ffffff" stroke-width="1.5px"><title>Country 76</title></path><path d="M-4.47213595499958,-4.47213595499958h8.94427190999916v8.94427190999916h-8.94427190999916Z" fill="#1f77b4" transform="translate(-11.079919964144759,-12.75944774716792)" stroke="#ffffff" stroke-width="1.5px"><title>Country 71</title></path><path d="M-4.47213595499958,-4.47213595499958h8.94427190999916v8.94427190999916h-8.94427190999916Z" fill="#8c564b" transform="translate(9.929010446631926,31.84152520352825)" stroke="#ffffff" stroke-width="1.5px"><title>Country 72</title></path></g></svg>