<svg class="marks" width="878" height="220" viewBox="0 0 878 220" version="1.1" xmlns="http://www.w3.org/2000/svg" xmlns:xlink="http://www.w3.org/1999/xlink"><rect width="878" height="220" fill="white"></rect><g fill="none" stroke-miterlimit="10" transform="translate(23,22)"><g class="mark-group role-frame root" role="graphics-object" aria-roledescription="group mark container"><g transform="translate(0,0)"><path class="background" aria-hidden="true" d="M0.5,0.5h850v176h-850Z" stroke="#ddd" stroke-opacity="0"></path><g><g class="mark-group role-axis" role="graphics-symbol" aria-roledescription="axis" aria-label="Y-axis for a discrete scale with 16 values: 39, 40, 41, 73, 74, ending with 87"><g transform="translate(-4.5,0.5)"><path class="background" aria-hidden="true" d="M0,0h0v0h0Z" pointer-events="none"></path><g><g class="mark-rule role-axis-grid" pointer-events="none"><line transform="translate(5,5)" x2="850" y2="0" stroke="#ddd" stroke-width="1" stroke-dasharray="6,6" opacity="1"></line><line transform="translate(5,16)" x2="850" y2="0" stroke="#ddd" stroke-width="1" stroke-dasharray="6,6" opacity="1"></line><line transform="translate(5,27)" x2="850" y2="0" stroke="#ddd" stroke-width="1" stroke-dasharray="6,6" opacity="1"></line><line transform="translate(5,38)" x2="850" y2="0" stroke="#ddd" stroke-width="1" stroke-dasharray="6,6" opacity="1"></line><line transform="translate(5,49)" x2="850" y2="0" stroke="#ddd" stroke-width="1" stroke-dasharray="6,6" opacity="1"></line><line transform="translate(5,60)" x2="850" y2="0" stroke="#ddd" stroke-width="1" stroke-dasharray="6,6" opacity="1"></line><line transform="translate(5,71)" x2="850" y2="0" stroke="#ddd" stroke-width="1" stroke-dasharray="6,6" opacity="1"></line><line transform="translate(5,82)" x2="850" y2="0" stroke="#ddd" stroke-width="1" stroke-dasharray="6,6" opacity="1"></line><line transform="translate(5,93)" x2="850" y2="0" stroke="#ddd" stroke-width="1" stroke-dasharray="6,6" opacity="1"></line><line transform="translate(5,104)" x2="850" y2="0" stroke="#ddd" stroke-width="1" stroke-dasharray="6,6" opacity="1"></line><line transform="translate(5,115)" x2="850" y2="0" stroke="#ddd" stroke-width="1" stroke-dasharray="6,6" opacity="1"></line><line transform="translate(5,126)" x2="850" y2="0" stroke="#ddd" stroke-width="1" stroke-dasharray="6,6" opacity="1"></line><line transform="translate(5,137)" x2="850" y2="0" stroke="#ddd" stroke-width="1" stroke-dasharray="6,6" opacity="1"></line><line transform="translate(5,148)" x2="850" y2="0" stroke="#ddd" stroke-width="1" stroke-dasharray="6,6" opacity="1"></line><line transform="translate(5,159)" x2="850" y2="0" stroke="#ddd" stroke-width="1" stroke-dasharray="6,6" opacity="1"></line><line transform="translate(5,170)" x2="850" y2="0" stroke="#ddd" stroke-width="1" stroke-dasharray="6,6" opacity="1"></line></g></g><path class="foreground" aria-hidden="true" d="" pointer-events="none" display="none"></path></g></g><g class="mark-group role-axis" role="graphics-symbol" aria-roledescription="axis" aria-label="X-axis for a time scale with values from Sunday, 17 May 1970, 7:26:46 AM to Monday, 28 December 1970, 9:26:46 PM"><g transform="translate(0.5,176.5)"><path class="background" aria-hidden="true" d="M0,0h0v0h0Z" pointer-events="none"></path><g><g class="mark-rule role-axis-tick" pointer-events="none"><line transform="translate(25,0)" x2="0" y2="5" stroke="#888" stroke-width="1" opacity="1"></line><line transform="translate(52,0)" x2="0" y2="5" stroke="#888" stroke-width="1" opacity="1"></line><line transform="translate(78,0)" x2="0" y2="5" stroke="#888" stroke-width="1" opacity="1"></line><line transform="translate(104,0)" x2="0" y2="5" stroke="#888" stroke-width="1" opacity="1"></line><line transform="translate(131,0)" x2="0" y2="5" stroke="#888" stroke-width="1" opacity="1"></line><line transform="translate(157,0)" x2="0" y2="5" stroke="#888" stroke-width="1" opacity="1"></line><line transform="translate(183,0)" x2="0" y2="5" stroke="#888" stroke-width="1" opacity="1"></line><line transform="translate(210,0)" x2="0" y2="5" stroke="#888" stroke-width="1" opacity="1"></line><line transform="translate(236,0)" x2="0" y2="5" stroke="#888" stroke-width="1" opacity="1"></line><line transform="translate(263,0)" x2="0" y2="5" stroke="#888" stroke-width="1" opacity="1"></line><line transform="translate(289,0)" x2="0" y2="5" stroke="#888" stroke-width="1" opacity="1"></line><line transform="translate(315,0)" x2="0" y2="5" stroke="#888" stroke-width="1" opacity="1"></line><line transform="translate(342,0)" x2="0" y2="5" stroke="#888" stroke-width="1" opacity="1"></line><line transform="translate(368,0)" x2="0" y2="5" stroke="#888" stroke-width="1" opacity="1"></line><line transform="translate(394,0)" x2="0" y2="5" stroke="#888" stroke-width="1" opacity="1"></line><line transform="translate(421,0)" x2="0" y2="5" stroke="#888" stroke-width="1" opacity="1"></line><line transform="translate(447,0)" x2="0" y2="5" stroke="#888" stroke-width="1" opacity="1"></line><line transform="translate(474,0)" x2="0" y2="5" stroke="#888" stroke-width="1" opacity="1"></line><line transform="translate(500,0)" x2="0" y2="5" stroke="#888" stroke-width="1" opacity="1"></line><line transform="translate(526,0)" x2="0" y2="5" stroke="#888" stroke-width="1" opacity="1"></line><line transform="translate(553,0)" x2="0" y2="5" stroke="#888" stroke-width="1" opacity="1"></line><line transform="translate(579,0)" x2="0" y2="5" stroke="#888" stroke-width="1" opacity="1"></line><line transform="translate(605,0)" x2="0" y2="5" stroke="#888" stroke-width="1" opacity="1"></line><line transform="translate(632,0)" x2="0" y2="5" stroke="#888" stroke-width="1" opacity="1"></line><line transform="translate(658,0)" x2="0" y2="5" stroke="#888" stroke-width="1" opacity="1"></line><line transform="translate(685,0)" x2="0" y2="5" stroke="#888" stroke-width="1" opacity="1"></line><line transform="translate(711,0)" x2="0" y2="5" stroke="#888" stroke-width="1" opacity="1"></line><line transform="translate(737,0)" x2="0" y2="5" stroke="#888" stroke-width="1" opacity="1"></line><line transform="translate(764,0)" x2="0" y2="5" stroke="#888" stroke-width="1" opacity="1"></line><line transform="translate(790,0)" x2="0" y2="5" stroke="#888" stroke-width="1" opacity="1"></line><line transform="translate(816,0)" x2="0" y2="5" stroke="#888" stroke-width="1" opacity="1"></line><line transform="translate(843,0)" x2="0" y2="5" stroke="#888" stroke-width="1" opacity="1"></line></g><g class="mark-text role-axis-label" pointer-events="none"><text text-anchor="middle" transform="translate(25.207019866190535,15)" font-family="sans-serif" font-size="10px" fill="#000" opacity="1">May 24</text><text text-anchor="middle" transform="translate(51.583081927513035,15)" font-family="sans-serif" font-size="10px" fill="#000" opacity="0">May 31</text><text text-anchor="middle" transform="translate(77.95914398883554,15)" font-family="sans-serif" font-size="10px" fill="#000" opacity="1">Jun 07</text><text text-anchor="middle" transform="translate(104.33520605015802,15)" font-family="sans-serif" font-size="10px" fill="#000" opacity="0">Jun 14</text><text text-anchor="middle" transform="translate(130.7112681114805,15)" font-family="sans-serif" font-size="10px" fill="#000" opacity="1">Jun 21</text><text text-anchor="middle" transform="translate(157.087330172803,15)" font-family="sans-serif" font-size="10px" fill="#000" opacity="0">Jun 28</text><text text-anchor="middle" transform="translate(183.4633922341255,15)" font-family="sans-serif" font-size="10px" fill="#000" opacity="1">Jul 05</text><text text-anchor="middle" transform="translate(209.83945429544804,15)" font-family="sans-serif" font-size="10px" fill="#000" opacity="0">Jul 12</text><text text-anchor="middle" transform="translate(236.2155163567705,15)" font-family="sans-serif" font-size="10px" fill="#000" opacity="1">Jul 19</text><text text-anchor="middle" transform="translate(262.59157841809304,15)" font-family="sans-serif" font-size="10px" fill="#000" opacity="0">Jul 26</text><text text-anchor="middle" transform="translate(288.96764047941554,15)" font-family="sans-serif" font-size="10px" fill="#000" opacity="1">Aug 02</text><text text-anchor="middle" transform="translate(315.343702540738,15)" font-family="sans-serif" font-size="10px" fill="#000" opacity="0">Aug 09</text><text text-anchor="middle" transform="translate(341.7197646020605,15)" font-family="sans-serif" font-size="10px" fill="#000" opacity="1">Aug 16</text><text text-anchor="middle" transform="translate(368.095826663383,15)" font-family="sans-serif" font-size="10px" fill="#000" opacity="0">Aug 23</text><text text-anchor="middle" transform="translate(394.4718887247055,15)" font-family="sans-serif" font-size="10px" fill="#000" opacity="1">Aug 30</text><text text-anchor="middle" transform="translate(420.847950786028,15)" font-family="sans-serif" font-size="10px" fill="#000" opacity="0">Sep 06</text><text text-anchor="middle" transform="translate(447.22401284735054,15)" font-family="sans-serif" font-size="10px" fill="#000" opacity="1">Sep 13</text><text text-anchor="middle" transform="translate(473.600074908673,15)" font-family="sans-serif" font-size="10px" fill="#000" opacity="0">Sep 20</text><text text-anchor="middle" transform="translate(499.97613696999554,15)" font-family="sans-serif" font-size="10px" fill="#000" opacity="1">Sep 27</text><text text-anchor="middle" transform="translate(526.3521990313179,15)" font-family="sans-serif" font-size="10px" fill="#000" opacity="0">Oct 04</text><text text-anchor="middle" transform="translate(552.7282610926405,15)" font-family="sans-serif" font-size="10px" fill="#000" opacity="1">Oct 11</text><text text-anchor="middle" transform="translate(579.1043231539629,15)" font-family="sans-serif" font-size="10px" fill="#000" opacity="0">Oct 18</text><text text-anchor="middle" transform="translate(605.4803852152855,15)" font-family="sans-serif" font-size="10px" fill="#000" opacity="1">Oct 25</text><text text-anchor="middle" transform="translate(631.8564472766079,15)" font-family="sans-serif" font-size="10px" fill="#000" opacity="0">November</text><text text-anchor="middle" transform="translate(658.2325093379304,15)" font-family="sans-serif" font-size="10px" fill="#000" opacity="1">Nov 08</text><text text-anchor="middle" transform="translate(684.6085713992529,15)" font-family="sans-serif" font-size="10px" fill="#000" opacity="0">Nov 15</text><text text-anchor="middle" transform="translate(710.9846334605754,15)" font-family="sans-serif" font-size="10px" fill="#000" opacity="1">Nov 22</text><text text-anchor="middle" transform="translate(737.3606955218979,15)" font-family="sans-serif" font-size="10px" fill="#000" opacity="0">Nov 29</text><text text-anchor="middle" transform="translate(763.7367575832204,15)" font-family="sans-serif" font-size="10px" fill="#000" opacity="1">Dec 06</text><text text-anchor="middle" transform="translate(790.112819644543,15)" font-family="sans-serif" font-size="10px" fill="#000" opacity="0">Dec 13</text><text text-anchor="middle" transform="translate(816.4888817058654,15)" font-family="sans-serif" font-size="10px" fill="#000" opacity="1">Dec 20</text><text text-anchor="middle" transform="translate(842.864943767188,15)" font-family="sans-serif" font-size="10px" fill="#000" opacity="0">Dec 27</text></g><g class="mark-rule role-axis-domain" pointer-events="none"><line transform="translate(0,0)" x2="850" y2="0" stroke="#888" stroke-width="1" opacity="1"></line></g></g><path class="foreground" aria-hidden="true" d="" pointer-events="none" display="none"></path></g></g><g class="mark-group role-axis" role="graphics-symbol" aria-roledescription="axis" aria-label="Y-axis for a discrete scale with 16 values: 39, 40, 41, 73, 74, ending with 87"><g transform="translate(-4.5,0.5)"><path class="background" aria-hidden="true" d="M0,0h0v0h0Z" pointer-events="none"></path><g><g class="mark-text role-axis-label" pointer-events="none"><text text-anchor="end" transform="translate(-2,7.999999999999997)" font-family="sans-serif" font-size="9px" fill="#000" opacity="1">39</text><text text-anchor="end" transform="translate(-2,18.999999999999996)" font-family="sans-serif" font-size="9px" fill="#000" opacity="1">40</text><text text-anchor="end" transform="translate(-2,29.999999999999996)" font-family="sans-serif" font-size="9px" fill="#000" opacity="1">41</text><text text-anchor="end" transform="translate(-2,41)" font-family="sans-serif" font-size="9px" fill="#000" opacity="1">73</text><text text-anchor="end" transform="translate(-2,52)" font-family="sans-serif" font-size="9px" fill="#000" opacity="1">74</text><text text-anchor="end" transform="translate(-2,63)" font-family="sans-serif" font-size="9px" fill="#000" opacity="1">75</text><text text-anchor="end" transform="translate(-2,74)" font-family="sans-serif" font-size="9px" fill="#000" opacity="1">77</text><text text-anchor="end" transform="translate(-2,85)" font-family="sans-serif" font-size="9px" fill="#000" opacity="1">78</text><text text-anchor="end" transform="translate(-2,96)" font-family="sans-serif" font-size="9px" fill="#000" opacity="1">79</text><text text-anchor="end" transform="translate(-2,107)" font-family="sans-serif" font-size="9px" fill="#000" opacity="1">80</text><text text-anchor="end" transform="translate(-2,118)" font-family="sans-serif" font-size="9px" fill="#000" opacity="1">82</text><text text-anchor="end" transform="translate(-2,129)" font-family="sans-serif" font-size="9px" fill="#000" opacity="1">83</text><text text-anchor="end" transform="translate(-2,140)" font-family="sans-serif" font-size="9px" fill="#000" opacity="1">84</text><text text-anchor="end" transform="translate(-2,151)" font-family="sans-serif" font-size="9px" fill="#000" opacity="1">85</text><text text-anchor="end" transform="translate(-2,162)" font-family="sans-serif" font-size="9px" fill="#000" opacity="1">86</text><text text-anchor="end" transform="translate(-2,173)" font-family="sans-serif" font-size="9px" fill="#000" opacity="1">87</text></g></g><path class="foreground" aria-hidden="true" d="" pointer-events="none" display="none"></path></g></g><g class="mark-rect role-mark layer_0_marks" role="graphics-symbol" aria-roledescription="rect mark container"><path d="M0,79h7.536017731806428v7h-7.536017731806428Z" fill="#f58518" opacity="0.9"></path><path d="M22.608053195419284,101h3.7680088659032123v7h-3.7680088659032123Z" fill="#72b7b2" opacity="0.9"></path><path d="M22.608053195419284,101h11.30402659770964v7h-11.30402659770964Z" fill="#f58518" opacity="0.9"></path><path d="M30.144070927225712,68h3.7680088659032123v7h-3.7680088659032123Z" fill="#72b7b2" opacity="0.9"></path><path d="M37.680088659032144,90h3.7680088659032123v7h-3.7680088659032123Z" fill="#f58518" opacity="0.9"></path><path d="M64.05615072035464,90h11.304026597709651v7h-11.304026597709651Z" fill="#72b7b2" opacity="0.9"></path><path d="M71.59216845216106,68h7.536017731806439v7h-7.536017731806439Z" fill="#f58518" opacity="0.9"></path><path d="M97.96823051348356,79h15.072035463612863v7h-15.072035463612863Z" fill="#72b7b2" opacity="0.9"></path><path d="M135.6483191725157,79h3.7680088659032265v7h-3.7680088659032265Z" fill="#54a24b" opacity="0.9"></path><path d="M143.18433690432212,90h11.304026597709651v7h-11.304026597709651Z" fill="#54a24b" opacity="0.9"></path><path d="M165.79239009974143,101h11.304026597709623v7h-11.304026597709623Z" fill="#e45756" opacity="0.9"></path><path d="M169.56039896564462,68h3.7680088659032265v7h-3.7680088659032265Z" fill="#e45756" opacity="0.9"></path><path d="M169.56039896564462,79h15.072035463612849v7h-15.072035463612849Z" fill="#e45756" opacity="0.9"></path><path d="M169.56039896564462,68h15.072035463612849v7h-15.072035463612849Z" fill="#54a24b" opacity="0.9"></path><path d="M177.09641669745105,90h7.5360177318064245v7h-7.5360177318064245Z" fill="#e45756" opacity="0.9"></path><path d="M177.09641669745105,101h18.840044329516076v7h-18.840044329516076Z" fill="#54a24b" opacity="0.9"></path><path d="M222.31252308828965,112h18.840044329516047v7h-18.840044329516047Z" fill="#54a24b" opacity="0.9"></path><path d="M252.45659401551535,123h3.768008865903198v7h-3.768008865903198Z" fill="#54a24b" opacity="0.9"></path><path d="M256.22460288141855,134h3.768008865903255v7h-3.768008865903255Z" fill="#54a24b" opacity="0.9"></path><path d="M271.2966383450314,35h11.304026597709651v7h-11.304026597709651Z" fill="#72b7b2" opacity="0.9"></path><path d="M301.44070927225715,57h18.840044329516047v7h-18.840044329516047Z" fill="#72b7b2" opacity="0.9"></path><path d="M308.97672700406355,57h15.072035463612849v7h-15.072035463612849Z" fill="#e45756" opacity="0.9"></path><path d="M324.0487624676764,35h15.072035463612849v7h-15.072035463612849Z" fill="#e45756" opacity="0.9"></path><path d="M342.8888067971925,46h3.768008865903198v7h-3.768008865903198Z" fill="#72b7b2" opacity="0.9"></path><path d="M346.6568156630957,46h3.768008865903198v7h-3.768008865903198Z" fill="#e45756" opacity="0.9"></path><path d="M437.08902844477274,46h7.536017731806567v7h-7.536017731806567Z" fill="#4c78a8" opacity="0.9"></path><path d="M440.85703731067605,57h3.768008865903255v7h-3.768008865903255Z" fill="#4c78a8" opacity="0.9"></path><path d="M444.6250461765793,35h7.536017731806396v7h-7.536017731806396Z" fill="#4c78a8" opacity="0.9"></path><path d="M538.8252678241596,1.9999999999999973h11.304026597709708v7h-11.304026597709708Z" fill="#72b7b2" opacity="0.9"></path><path d="M557.6653121536757,12.999999999999996h11.304026597709594v7h-11.304026597709594Z" fill="#72b7b2" opacity="0.9"></path><path d="M565.2013298854821,12.999999999999996h3.768008865903198v7h-3.768008865903198Z" fill="#54a24b" opacity="0.9"></path><path d="M565.2013298854821,23.999999999999996h11.304026597709594v7h-11.304026597709594Z" fill="#72b7b2" opacity="0.9"></path><path d="M584.0413742149981,1.9999999999999973h7.53601773180651v7h-7.53601773180651Z" fill="#54a24b" opacity="0.9"></path><path d="M587.8093830809014,23.999999999999996h11.304026597709594v7h-11.304026597709594Z" fill="#54a24b" opacity="0.9"></path><path d="M648.0975249353528,12.999999999999996h22.608053195419302v7h-22.608053195419302Z" fill="#4c78a8" opacity="0.9"></path><path d="M648.0975249353528,12.999999999999996h11.304026597709594v7h-11.304026597709594Z" fill="#eeca3b" opacity="0.9"></path><path d="M651.865533801256,23.999999999999996h15.072035463612792v7h-15.072035463612792Z" fill="#4c78a8" opacity="0.9"></path><path d="M663.1695603989657,1.9999999999999973h3.7680088659030844v7h-3.7680088659030844Z" fill="#4c78a8" opacity="0.9"></path><path d="M666.9375692648688,23.999999999999996h22.608053195419302v7h-22.608053195419302Z" fill="#eeca3b" opacity="0.9"></path><path d="M670.7055781307721,1.9999999999999973h11.304026597709594v7h-11.304026597709594Z" fill="#eeca3b" opacity="0.9"></path><path d="M700.8496490579978,167h7.536017731806396v7h-7.536017731806396Z" fill="#4c78a8" opacity="0.9"></path><path d="M712.1536756557074,145h3.7680088659033117v7h-3.7680088659033117Z" fill="#f58518" opacity="0.9"></path><path d="M742.2977465829331,145h15.072035463612906v7h-15.072035463612906Z" fill="#4c78a8" opacity="0.9"></path><path d="M768.6738086442557,156h18.84004432951599v7h-18.84004432951599Z" fill="#4c78a8" opacity="0.9"></path><path d="M795.0498707055781,156h11.304026597709708v7h-11.304026597709708Z" fill="#f58518" opacity="0.9"></path><path d="M795.0498707055781,167h7.536017731806396v7h-7.536017731806396Z" fill="#f58518" opacity="0.9"></path><path d="M797.247875877355,167h3.768008865903198v7h-3.768008865903198Z" fill="#eeca3b" opacity="0.9"></path><path d="M812.3199113409679,156h7.536017731806396v7h-7.536017731806396Z" fill="#72b7b2" opacity="0.9"></path><path d="M819.8559290727743,167h3.768008865903198v7h-3.768008865903198Z" fill="#72b7b2" opacity="0.9"></path><path d="M823.6239379386775,145h3.768008865903198v7h-3.768008865903198Z" fill="#72b7b2" opacity="0.9"></path><path d="M831.1599556704839,145h11.304026597709708v7h-11.304026597709708Z" fill="#eeca3b" opacity="0.9"></path><path d="M838.6959734022903,156h11.304026597709708v7h-11.304026597709708Z" fill="#eeca3b" opacity="0.9"></path></g><g class="mark-symbol role-mark layer_1_marks" role="graphics-symbol" aria-roledescription="symbol mark container"><path transform="translate(0,82.5)" d="M2.23606797749979,0A2.23606797749979,2.23606797749979,0,1,1,-2.23606797749979,0A2.23606797749979,2.23606797749979,0,1,1,2.23606797749979,0" fill="#72b7b2" stroke="grey" stroke-width="0.7" opacity="1"></path><path transform="translate(22.608053195419284,104.5)" d="M2.23606797749979,0A2.23606797749979,2.23606797749979,0,1,1,-2.23606797749979,0A2.23606797749979,2.23606797749979,0,1,1,2.23606797749979,0" fill="#54a24b" stroke="grey" stroke-width="0.7" opacity="1"></path><path transform="translate(22.608053195419284,104.5)" d="M2.23606797749979,0A2.23606797749979,2.23606797749979,0,1,1,-2.23606797749979,0A2.23606797749979,2.23606797749979,0,1,1,2.23606797749979,0" fill="#72b7b2" stroke="grey" stroke-width="0.7" opacity="1"></path><path transform="translate(30.144070927225712,71.5)" d="M2.23606797749979,0A2.23606797749979,2.23606797749979,0,1,1,-2.23606797749979,0A2.23606797749979,2.23606797749979,0,1,1,2.23606797749979,0" fill="#54a24b" stroke="grey" stroke-width="0.7" opacity="1"></path><path transform="translate(37.680088659032144,93.5)" d="M2.23606797749979,0A2.23606797749979,2.23606797749979,0,1,1,-2.23606797749979,0A2.23606797749979,2.23606797749979,0,1,1,2.23606797749979,0" fill="#72b7b2" stroke="grey" stroke-width="0.7" opacity="1"></path><path transform="translate(64.05615072035464,93.5)" d="M2.23606797749979,0A2.23606797749979,2.23606797749979,0,1,1,-2.23606797749979,0A2.23606797749979,2.23606797749979,0,1,1,2.23606797749979,0" fill="#54a24b" stroke="grey" stroke-width="0.7" opacity="1"></path><path transform="translate(71.59216845216106,71.5)" d="M2.23606797749979,0A2.23606797749979,2.23606797749979,0,1,1,-2.23606797749979,0A2.23606797749979,2.23606797749979,0,1,1,2.23606797749979,0" fill="#72b7b2" stroke="grey" stroke-width="0.7" opacity="1"></path><path transform="translate(97.96823051348356,82.5)" d="M2.23606797749979,0A2.23606797749979,2.23606797749979,0,1,1,-2.23606797749979,0A2.23606797749979,2.23606797749979,0,1,1,2.23606797749979,0" fill="#54a24b" stroke="grey" stroke-width="0.7" opacity="1"></path><path transform="translate(135.6483191725157,82.5)" d="M2.23606797749979,0A2.23606797749979,2.23606797749979,0,1,1,-2.23606797749979,0A2.23606797749979,2.23606797749979,0,1,1,2.23606797749979,0" fill="#e45756" stroke="grey" stroke-width="0.7" opacity="1"></path><path transform="translate(143.18433690432212,93.5)" d="M2.23606797749979,0A2.23606797749979,2.23606797749979,0,1,1,-2.23606797749979,0A2.23606797749979,2.23606797749979,0,1,1,2.23606797749979,0" fill="#e45756" stroke="grey" stroke-width="0.7" opacity="1"></path><path transform="translate(165.79239009974143,104.5)" d="M2.23606797749979,0A2.23606797749979,2.23606797749979,0,1,1,-2.23606797749979,0A2.23606797749979,2.23606797749979,0,1,1,2.23606797749979,0" fill="#f58518" stroke="grey" stroke-width="0.7" opacity="1"></path><path transform="translate(169.56039896564462,71.5)" d="M2.23606797749979,0A2.23606797749979,2.23606797749979,0,1,1,-2.23606797749979,0A2.23606797749979,2.23606797749979,0,1,1,2.23606797749979,0" fill="#f58518" stroke="grey" stroke-width="0.7" opacity="1"></path><path transform="translate(169.56039896564462,82.5)" d="M2.23606797749979,0A2.23606797749979,2.23606797749979,0,1,1,-2.23606797749979,0A2.23606797749979,2.23606797749979,0,1,1,2.23606797749979,0" fill="#f58518" stroke="grey" stroke-width="0.7" opacity="1"></path><path transform="translate(169.56039896564462,71.5)" d="M2.23606797749979,0A2.23606797749979,2.23606797749979,0,1,1,-2.23606797749979,0A2.23606797749979,2.23606797749979,0,1,1,2.23606797749979,0" fill="#e45756" stroke="grey" stroke-width="0.7" opacity="1"></path><path transform="translate(177.09641669745105,93.5)" d="M2.23606797749979,0A2.23606797749979,2.23606797749979,0,1,1,-2.23606797749979,0A2.23606797749979,2.23606797749979,0,1,1,2.23606797749979,0" fill="#f58518" stroke="grey" stroke-width="0.7" opacity="1"></path><path transform="translate(177.09641669745105,104.5)" d="M2.23606797749979,0A2.23606797749979,2.23606797749979,0,1,1,-2.23606797749979,0A2.23606797749979,2.23606797749979,0,1,1,2.23606797749979,0" fill="#e45756" stroke="grey" stroke-width="0.7" opacity="1"></path><path transform="translate(222.31252308828965,115.5)" d="M2.23606797749979,0A2.23606797749979,2.23606797749979,0,1,1,-2.23606797749979,0A2.23606797749979,2.23606797749979,0,1,1,2.23606797749979,0" fill="#e45756" stroke="grey" stroke-width="0.7" opacity="1"></path><path transform="translate(252.45659401551535,126.5)" d="M2.23606797749979,0A2.23606797749979,2.23606797749979,0,1,1,-2.23606797749979,0A2.23606797749979,2.23606797749979,0,1,1,2.23606797749979,0" fill="#e45756" stroke="grey" stroke-width="0.7" opacity="1"></path><path transform="translate(256.22460288141855,137.5)" d="M2.23606797749979,0A2.23606797749979,2.23606797749979,0,1,1,-2.23606797749979,0A2.23606797749979,2.23606797749979,0,1,1,2.23606797749979,0" fill="#e45756" stroke="grey" stroke-width="0.7" opacity="1"></path><path transform="translate(271.2966383450314,38.5)" d="M2.23606797749979,0A2.23606797749979,2.23606797749979,0,1,1,-2.23606797749979,0A2.23606797749979,2.23606797749979,0,1,1,2.23606797749979,0" fill="#4c78a8" stroke="grey" stroke-width="0.7" opacity="1"></path><path transform="translate(301.44070927225715,60.5)" d="M2.23606797749979,0A2.23606797749979,2.23606797749979,0,1,1,-2.23606797749979,0A2.23606797749979,2.23606797749979,0,1,1,2.23606797749979,0" fill="#4c78a8" stroke="grey" stroke-width="0.7" opacity="1"></path><path transform="translate(308.97672700406355,60.5)" d="M2.23606797749979,0A2.23606797749979,2.23606797749979,0,1,1,-2.23606797749979,0A2.23606797749979,2.23606797749979,0,1,1,2.23606797749979,0" fill="#72b7b2" stroke="grey" stroke-width="0.7" opacity="1"></path><path transform="translate(324.0487624676764,38.5)" d="M2.23606797749979,0A2.23606797749979,2.23606797749979,0,1,1,-2.23606797749979,0A2.23606797749979,2.23606797749979,0,1,1,2.23606797749979,0" fill="#72b7b2" stroke="grey" stroke-width="0.7" opacity="1"></path><path transform="translate(342.8888067971925,49.5)" d="M2.23606797749979,0A2.23606797749979,2.23606797749979,0,1,1,-2.23606797749979,0A2.23606797749979,2.23606797749979,0,1,1,2.23606797749979,0" fill="#4c78a8" stroke="grey" stroke-width="0.7" opacity="1"></path><path transform="translate(346.6568156630957,49.5)" d="M2.23606797749979,0A2.23606797749979,2.23606797749979,0,1,1,-2.23606797749979,0A2.23606797749979,2.23606797749979,0,1,1,2.23606797749979,0" fill="#72b7b2" stroke="grey" stroke-width="0.7" opacity="1"></path><path transform="translate(437.08902844477274,49.5)" d="M2.23606797749979,0A2.23606797749979,2.23606797749979,0,1,1,-2.23606797749979,0A2.23606797749979,2.23606797749979,0,1,1,2.23606797749979,0" fill="#e45756" stroke="grey" stroke-width="0.7" opacity="1"></path><path transform="translate(440.85703731067605,60.5)" d="M2.23606797749979,0A2.23606797749979,2.23606797749979,0,1,1,-2.23606797749979,0A2.23606797749979,2.23606797749979,0,1,1,2.23606797749979,0" fill="#e45756" stroke="grey" stroke-width="0.7" opacity="1"></path><path transform="translate(444.6250461765793,38.5)" d="M2.23606797749979,0A2.23606797749979,2.23606797749979,0,1,1,-2.23606797749979,0A2.23606797749979,2.23606797749979,0,1,1,2.23606797749979,0" fill="#e45756" stroke="grey" stroke-width="0.7" opacity="1"></path><path transform="translate(538.8252678241596,5.499999999999997)" d="M2.23606797749979,0A2.23606797749979,2.23606797749979,0,1,1,-2.23606797749979,0A2.23606797749979,2.23606797749979,0,1,1,2.23606797749979,0" fill="#54a24b" stroke="grey" stroke-width="0.7" opacity="1"></path><path transform="translate(557.6653121536757,16.499999999999996)" d="M2.23606797749979,0A2.23606797749979,2.23606797749979,0,1,1,-2.23606797749979,0A2.23606797749979,2.23606797749979,0,1,1,2.23606797749979,0" fill="#54a24b" stroke="grey" stroke-width="0.7" opacity="1"></path><path transform="translate(565.2013298854821,16.499999999999996)" d="M2.23606797749979,0A2.23606797749979,2.23606797749979,0,1,1,-2.23606797749979,0A2.23606797749979,2.23606797749979,0,1,1,2.23606797749979,0" fill="#eeca3b" stroke="grey" stroke-width="0.7" opacity="1"></path><path transform="translate(565.2013298854821,27.499999999999996)" d="M2.23606797749979,0A2.23606797749979,2.23606797749979,0,1,1,-2.23606797749979,0A2.23606797749979,2.23606797749979,0,1,1,2.23606797749979,0" fill="#54a24b" stroke="grey" stroke-width="0.7" opacity="1"></path><path transform="translate(584.0413742149981,5.499999999999997)" d="M2.23606797749979,0A2.23606797749979,2.23606797749979,0,1,1,-2.23606797749979,0A2.23606797749979,2.23606797749979,0,1,1,2.23606797749979,0" fill="#eeca3b" stroke="grey" stroke-width="0.7" opacity="1"></path><path transform="translate(587.8093830809014,27.499999999999996)" d="M2.23606797749979,0A2.23606797749979,2.23606797749979,0,1,1,-2.23606797749979,0A2.23606797749979,2.23606797749979,0,1,1,2.23606797749979,0" fill="#eeca3b" stroke="grey" stroke-width="0.7" opacity="1"></path><path transform="translate(648.0975249353528,16.499999999999996)" d="M2.23606797749979,0A2.23606797749979,2.23606797749979,0,1,1,-2.23606797749979,0A2.23606797749979,2.23606797749979,0,1,1,2.23606797749979,0" fill="#72b7b2" stroke="grey" stroke-width="0.7" opacity="1"></path><path transform="translate(648.0975249353528,16.499999999999996)" d="M2.23606797749979,0A2.23606797749979,2.23606797749979,0,1,1,-2.23606797749979,0A2.23606797749979,2.23606797749979,0,1,1,2.23606797749979,0" fill="#4c78a8" stroke="grey" stroke-width="0.7" opacity="1"></path><path transform="translate(651.865533801256,27.499999999999996)" d="M2.23606797749979,0A2.23606797749979,2.23606797749979,0,1,1,-2.23606797749979,0A2.23606797749979,2.23606797749979,0,1,1,2.23606797749979,0" fill="#72b7b2" stroke="grey" stroke-width="0.7" opacity="1"></path><path transform="translate(663.1695603989657,5.499999999999997)" d="M2.23606797749979,0A2.23606797749979,2.23606797749979,0,1,1,-2.23606797749979,0A2.23606797749979,2.23606797749979,0,1,1,2.23606797749979,0" fill="#72b7b2" stroke="grey" stroke-width="0.7" opacity="1"></path><path transform="translate(666.9375692648688,27.499999999999996)" d="M2.23606797749979,0A2.23606797749979,2.23606797749979,0,1,1,-2.23606797749979,0A2.23606797749979,2.23606797749979,0,1,1,2.23606797749979,0" fill="#4c78a8" stroke="grey" stroke-width="0.7" opacity="1"></path><path transform="translate(670.7055781307721,5.499999999999997)" d="M2.23606797749979,0A2.23606797749979,2.23606797749979,0,1,1,-2.23606797749979,0A2.23606797749979,2.23606797749979,0,1,1,2.23606797749979,0" fill="#4c78a8" stroke="grey" stroke-width="0.7" opacity="1"></path><path transform="translate(700.8496490579978,170.5)" d="M2.23606797749979,0A2.23606797749979,2.23606797749979,0,1,1,-2.23606797749979,0A2.23606797749979,2.23606797749979,0,1,1,2.23606797749979,0" fill="#f58518" stroke="grey" stroke-width="0.7" opacity="1"></path><path transform="translate(712.1536756557074,148.5)" d="M2.23606797749979,0A2.23606797749979,2.23606797749979,0,1,1,-2.23606797749979,0A2.23606797749979,2.23606797749979,0,1,1,2.23606797749979,0" fill="#eeca3b" stroke="grey" stroke-width="0.7" opacity="1"></path><path transform="translate(742.2977465829331,148.5)" d="M2.23606797749979,0A2.23606797749979,2.23606797749979,0,1,1,-2.23606797749979,0A2.23606797749979,2.23606797749979,0,1,1,2.23606797749979,0" fill="#f58518" stroke="grey" stroke-width="0.7" opacity="1"></path><path transform="translate(768.6738086442557,159.5)" d="M2.23606797749979,0A2.23606797749979,2.23606797749979,0,1,1,-2.23606797749979,0A2.23606797749979,2.23606797749979,0,1,1,2.23606797749979,0" fill="#f58518" stroke="grey" stroke-width="0.7" opacity="1"></path><path transform="translate(795.0498707055781,159.5)" d="M2.23606797749979,0A2.23606797749979,2.23606797749979,0,1,1,-2.23606797749979,0A2.23606797749979,2.23606797749979,0,1,1,2.23606797749979,0" fill="#eeca3b" stroke="grey" stroke-width="0.7" opacity="1"></path><path transform="translate(795.0498707055781,170.5)" d="M2.23606797749979,0A2.23606797749979,2.23606797749979,0,1,1,-2.23606797749979,0A2.23606797749979,2.23606797749979,0,1,1,2.23606797749979,0" fill="#eeca3b" stroke="grey" stroke-width="0.7" opacity="1"></path><path transform="translate(797.247875877355,170.5)" d="M2.23606797749979,0A2.23606797749979,2.23606797749979,0,1,1,-2.23606797749979,0A2.23606797749979,2.23606797749979,0,1,1,2.23606797749979,0" fill="#72b7b2" stroke="grey" stroke-width="0.7" opacity="1"></path><path transform="translate(812.3199113409679,159.5)" d="M2.23606797749979,0A2.23606797749979,2.23606797749979,0,1,1,-2.23606797749979,0A2.23606797749979,2.23606797749979,0,1,1,2.23606797749979,0" fill="#4c78a8" stroke="grey" stroke-width="0.7" opacity="1"></path><path transform="translate(819.8559290727743,170.5)" d="M2.23606797749979,0A2.23606797749979,2.23606797749979,0,1,1,-2.23606797749979,0A2.23606797749979,2.23606797749979,0,1,1,2.23606797749979,0" fill="#4c78a8" stroke="grey" stroke-width="0.7" opacity="1"></path><path transform="translate(823.6239379386775,148.5)" d="M2.23606797749979,0A2.23606797749979,2.23606797749979,0,1,1,-2.23606797749979,0A2.23606797749979,2.23606797749979,0,1,1,2.23606797749979,0" fill="#4c78a8" stroke="grey" stroke-width="0.7" opacity="1"></path><path transform="translate(831.1599556704839,148.5)" d="M2.23606797749979,0A2.23606797749979,2.23606797749979,0,1,1,-2.23606797749979,0A2.23606797749979,2.23606797749979,0,1,1,2.23606797749979,0" fill="#72b7b2" stroke="grey" stroke-width="0.7" opacity="1"></path><path transform="translate(838.6959734022903,159.5)" d="M2.23606797749979,0A2.23606797749979,2.23606797749979,0,1,1,-2.23606797749979,0A2.23606797749979,2.23606797749979,0,1,1,2.23606797749979,0" fill="#72b7b2" stroke="grey" stroke-width="0.7" opacity="1"></path></g><g class="mark-group role-title"><g transform="translate(425,-17)"><path class="background" aria-hidden="true" d="M0,0h0v0h0Z" pointer-events="none"></path><g><g class="mark-text role-title-text" role="graphics-symbol" aria-roledescription="title" aria-label="Title text 'CGCS-Template'" pointer-events="none"><text text-anchor="middle" transform="translate(0,10)" font-family="sans-serif" font-size="13px" font-weight="300" fill="#000" opacity="1">CGCS-Template</text></g></g><path class="foreground" aria-hidden="true" d="" pointer-events="none" display="none"></path></g></g></g><path class="foreground" aria-hidden="true" d="" display="none"></path></g></g></g></svg>